<svg xmlns="http://www.w3.org/2000/svg" width="303.986" height="307.473" viewBox="0 0 303.986 307.473">
  <g id="enhance-effect" transform="translate(-2.446)">
    <path id="Path_193396" data-name="Path 193396" d="M129.17,191.415l28.548,28.552L30.995,346.69,2.446,318.138Zm34.562,22.543-28.548-28.552,49.081-49.085,28.557,28.548Z" transform="translate(0 -39.22)" fill="#fff"/>
    <path id="Path_193397" data-name="Path 193397" d="M369.362,193.679l8.5,0v-26.5h26.509v-8.5H377.862v-26.5h-8.5v26.5h-26.5v8.5h26.5Z" transform="translate(-97.939 -38.025)" fill="#fff"/>
    <path id="Path_193398" data-name="Path 193398" d="M368.438,246.285v-8.5h-26.5v-26.5h-8.5v26.5H306.93v8.5h26.508v26.5h8.5v-26.5Z" transform="translate(-87.601 -60.786)" fill="#fff"/>
    <path id="Path_193399" data-name="Path 193399" d="M278.112,26.5H251.6V0h-8.5V26.5H216.6V35h26.5v26.5h8.5V35h26.508Z" transform="translate(-61.614)" fill="#fff"/>
    <path id="Path_193400" data-name="Path 193400" d="M199.008,62.441H172.5V35.932H164V62.441H137.495v8.5H164V97.445h8.5V70.937h26.508Z" transform="translate(-38.854 -10.338)" fill="#fff"/>
  </g>
</svg>
