<svg xmlns="http://www.w3.org/2000/svg" xmlns:xlink="http://www.w3.org/1999/xlink" width="714.715" height="528.001" viewBox="0 0 714.715 528.001">
  <defs>
    <linearGradient id="linear-gradient" x1="0.5" y1="1" x2="0.5" gradientUnits="objectBoundingBox">
      <stop offset="0" stop-color="gray" stop-opacity="0.251"/>
      <stop offset="0.54" stop-color="gray" stop-opacity="0.122"/>
      <stop offset="1" stop-color="gray" stop-opacity="0.102"/>
    </linearGradient>
  </defs>
  <g id="Group_10110" data-name="Group 10110" transform="translate(-282.531 -451)">
    <g id="Group_10109" data-name="Group 10109">
      <path id="Path_194000" data-name="Path 194000" d="M810.37,151.787s8.219-3.341,34.352,8.651,29.4,10.467,36.169,8.633,10.514-2.266,17.792-12.267c0,0,5.111-27.734,10.064-32.027s25.993,2.447,25.993,2.447,25.228,5.783,30.035-27.933c0,0-3.411-25.409,1.233-33.207,0,0-9.346,4.042-24.848-2.488S913.3,70.606,913.3,70.606s-3.9,10.1-3.5,16.122-2.062,8.289-9.445,5.38c0,0-3.622-5.158,1.507-13.686s8.8-14.872,7.366-21.49-5.549-15.771-18.791-20.392-31.215-5.473-39.849-9.066-10.719-5.935-10.719-5.935,5.31,5.321-7.2,27.88-4.539,32.349-4.539,32.349,6.659,15.859,36.04,14.574c0,0,28.312,1.034,12.88,13.038,0,0-9.889-2.009-24.667-6.712s-25.45,14.7-28.1,28.19S810.37,151.787,810.37,151.787Z" transform="translate(-492.234 603.188)" fill="#0d5bb9"/>
      <path id="Path_194016" data-name="Path 194016" d="M934.968,85s-13.043,28-22.518,31.543" transform="translate(-524.871 576.795)" fill="none" stroke="#444053" stroke-miterlimit="10" stroke-width="1"/>
      <path id="Path_194326" data-name="Path 194326" d="M100.35,426.765c.05,4.7,3.173,8.712,6.21,12.149a230.836,230.836,0,0,0,43.83,38.713c7.733,5.238,16.044,10.248,21.182,18.345s6.432,18.4,6.839,28.207a216.811,216.811,0,0,1-8.1,68.786c25.177,4.8,53.256,9,74.238-6.146,12.564-9.069,21.061-24.263,35.061-30.552,9.348-4.2,19.932-3.831,30.123-3.295q72.359,3.809,144.36,14.293c20.1,2.93,40.592,6.246,60.481,2.458s39.456-16.144,46.788-36.176c1.129-3.087,2.144-6.532,4.674-8.39,2.287-1.658,5.281-1.622,8.061-1.522l168,5.774c9.2.314,18.731.572,27.157-3.216,8.169-3.666,14.45-10.72,20.5-17.631,13.829-15.765,28.7-35.161,24.634-56.558-3.252-17.152-17.788-29.137-32.2-37.527s-30.316-15.258-40.907-28.672c-16.115-20.418-15.479-49.64-16.48-76.132a422.906,422.906,0,0,0-8.826-71.344c-4.367-20.646-10.448-41.321-21.818-58.759s-28.758-31.4-48.425-33.96c-25.685-3.345-51.505,12.678-76.632,5.874-21.225-5.717-35.833-26.035-53.42-40.114-31.238-25.013-72.23-30.251-110.986-30.73-41.093-.522-83.272,3.638-119.9,22.933-8.39,4.417-16.594,9.762-22.4,17.566-8.9,11.97-11.063,28.05-16.887,42.043-23.476,56.343-99.83,68.493-124.614,124.236-8.8,19.775-8.712,42.836-2.3,63.6,6.9,22.347,26.306,34.689,34,54.171C144.3,410.528,100.25,417.5,100.35,426.765Z" transform="translate(182.182 370.398)" fill="#0d5bb9" opacity="0.1"/>
      <path id="Path_194335" data-name="Path 194335" d="M164.14,87.83V417.286H693.556V87.83Z" transform="translate(235.16 425.93)" fill="url(#linear-gradient)"/>
      <rect id="Rectangle_7182" data-name="Rectangle 7182" width="518.232" height="25.163" transform="translate(404.895 517.24)" fill="#f6f7f9"/>
      <g id="Group_10099" data-name="Group 10099" transform="translate(404.895 517.24)" opacity="0.2">
        <rect id="Rectangle_7183" data-name="Rectangle 7183" width="518.232" height="25.163" fill="#0d5bb9"/>
      </g>
      <path id="Path_194003" data-name="Path 194003" d="M887.2,173l-.175.3c15.829,19.761,16.875,50.445,16.939,50.708l3.335-3.855C907.236,219.87,903.13,192.889,887.2,173Z" transform="translate(-482.344 540.199)" fill="#444053"/>
      <path id="Path_194004" data-name="Path 194004" d="M834.49,180.057s18.692-9.7,33.213-6.221,47.314-12.307,47.314-12.307,13.9-5.648,16.7-12.085c0,0,9.539-10.088,10.082-15.31s9.831-18.336,15.888-18.844" transform="translate(-502.051 564.199)" fill="none" stroke="#444053" stroke-miterlimit="10" stroke-width="1"/>
      <path id="Path_194005" data-name="Path 194005" d="M1026.4,232.4s9.4-6.332,8.306-13.715" transform="translate(-691.254 521.201)" fill="none" stroke="#444053" stroke-miterlimit="10" stroke-width="1"/>
      <path id="Path_194006" data-name="Path 194006" d="M990.76,239.063s13.435-4.877,14.79-24.013" transform="translate(-641.193 522.711)" fill="none" stroke="#444053" stroke-miterlimit="10" stroke-width="1"/>
      <path id="Path_194007" data-name="Path 194007" d="M962.822,243.8A30.06,30.06,0,0,0,971.4,214.52" transform="translate(-591.598 522.932)" fill="none" stroke="#444053" stroke-miterlimit="10" stroke-width="1"/>
      <path id="Path_194008" data-name="Path 194008" d="M927.314,234.633s8.557-17.95.94-29.633" transform="translate(-529.996 526.891)" fill="none" stroke="#444053" stroke-miterlimit="10" stroke-width="1"/>
      <path id="Path_194009" data-name="Path 194009" d="M1032.2,205.92s9.72,3.084,7.635,8.178" transform="translate(-699.975 526.508)" fill="none" stroke="#444053" stroke-miterlimit="10" stroke-width="1"/>
      <path id="Path_194010" data-name="Path 194010" d="M1002.9,175.71s13,4.13,13.312,22.53" transform="translate(-658.947 539.072)" fill="none" stroke="#444053" stroke-miterlimit="10" stroke-width="1"/>
      <path id="Path_194011" data-name="Path 194011" d="M975.772,168.44s11.84,14.6,10.97,27.9" transform="translate(-613.678 542.094)" fill="none" stroke="#444053" stroke-miterlimit="10" stroke-width="1"/>
      <path id="Path_194012" data-name="Path 194012" d="M941.344,178.26s11.764,11.239,10.263,17.489" transform="translate(-558.518 538.012)" fill="none" stroke="#444053" stroke-miterlimit="10" stroke-width="1"/>
      <path id="Path_194013" data-name="Path 194013" d="M925.48,170.291s11.028,1.974,12.57-1.641" transform="translate(-535.564 542.008)" fill="none" stroke="#444053" stroke-miterlimit="10" stroke-width="1"/>
      <path id="Path_194014" data-name="Path 194014" d="M929.469,148.67s-5.573,7.377-7.01,5.724" transform="translate(-525.219 550.316)" fill="none" stroke="#444053" stroke-miterlimit="10" stroke-width="1"/>
      <path id="Path_194015" data-name="Path 194015" d="M958.65,136.151s27.792,2.015,34.083-6.361" transform="translate(-609.623 558.168)" fill="none" stroke="#444053" stroke-miterlimit="10" stroke-width="1"/>
      <path id="Path_194017" data-name="Path 194017" d="M953.812,62.19S945.8,87.938,935.88,95.976" transform="translate(-557.4 586.281)" fill="none" stroke="#444053" stroke-miterlimit="10" stroke-width="1"/>
      <path id="Path_194018" data-name="Path 194018" d="M979.08,104.215s21.139,9.077,33.832-.105" transform="translate(-641.734 568.848)" fill="none" stroke="#444053" stroke-miterlimit="10" stroke-width="0.75"/>
      <path id="Path_194019" data-name="Path 194019" d="M979.448,52.79s-4.831,18.931-11.338,23.488" transform="translate(-601.861 590.191)" fill="none" stroke="#444053" stroke-miterlimit="10" stroke-width="0.75"/>
      <path id="Path_194020" data-name="Path 194020" d="M1003.65,68s9.879,4.5,13.566,1.051" transform="translate(-660.388 583.865)" fill="none" stroke="#444053" stroke-miterlimit="10" stroke-width="0.75"/>
      <path id="Path_194021" data-name="Path 194021" d="M897.35,159.26s.035,16.5,4.5,17.67" transform="translate(-482.93 545.912)" fill="none" stroke="#444053" stroke-miterlimit="10" stroke-width="1"/>
      <rect id="Rectangle_7184" data-name="Rectangle 7184" width="518.232" height="297.332" transform="translate(404.895 542.402)" fill="#f6f7f9"/>
      <circle id="Ellipse_765" data-name="Ellipse 765" cx="5.596" cy="5.596" r="5.596" transform="translate(411.727 654.072)" fill="#f6f7f9"/>
      <circle id="Ellipse_766" data-name="Ellipse 766" cx="5.596" cy="5.596" r="5.596" transform="translate(426.635 654.072)" fill="#f6f7f9"/>
      <circle id="Ellipse_767" data-name="Ellipse 767" cx="5.596" cy="5.596" r="5.596" transform="translate(441.549 524.072)" fill="#f6f7f9"/>
      <g id="Group_10100" data-name="Group 10100" transform="translate(422.912 579.379)" opacity="0.2">
        <rect id="Rectangle_7185" data-name="Rectangle 7185" width="266.573" height="19.26" fill="#0d5bb9"/>
      </g>
      <g id="Group_10101" data-name="Group 10101" transform="translate(757.834 579.379)" opacity="0.2">
        <rect id="Rectangle_7186" data-name="Rectangle 7186" width="139.808" height="19.26" fill="#0d5bb9"/>
      </g>
      <g id="Group_10102" data-name="Group 10102" transform="translate(474.795 673.207)" opacity="0.2">
        <rect id="Rectangle_7187" data-name="Rectangle 7187" width="18.638" height="61.517" transform="translate(0 88.238)" fill="#0d5bb9"/>
        <rect id="Rectangle_7188" data-name="Rectangle 7188" width="18.638" height="105.633" transform="translate(36.04 44.116)" fill="#0d5bb9"/>
        <rect id="Rectangle_7189" data-name="Rectangle 7189" width="18.638" height="149.749" transform="translate(72.08)" fill="#0d5bb9"/>
        <rect id="Rectangle_7190" data-name="Rectangle 7190" width="18.638" height="135.463" transform="translate(108.12 14.293)" fill="#0d5bb9"/>
        <rect id="Rectangle_7191" data-name="Rectangle 7191" width="18.638" height="93.205" transform="translate(144.16 56.543)" fill="#0d5bb9"/>
      </g>
      <g id="Group_10103" data-name="Group 10103" transform="translate(757.527 640.896)" opacity="0.2">
        <rect id="Rectangle_7192" data-name="Rectangle 7192" width="139.808" height="171.81" fill="#0d5bb9"/>
      </g>
      <rect id="Rectangle_7193" data-name="Rectangle 7193" width="681.066" height="5.003" transform="translate(299.533 973.998)" fill="#0d5bb9"/>
      <rect id="Rectangle_7203" data-name="Rectangle 7203" width="101.481" height="5.717" transform="translate(806.938 831.066)" fill="#e8eaf1"/>
      <path id="Path_194001" data-name="Path 194001" d="M973.7,50.833l-.162-.043c-1.163,4.576,11.82,22.971,22.921,37.573l.132-.106C980.933,67.64,972.805,54.347,973.7,50.833Z" transform="translate(-621.99 589.131)" fill="none" stroke="#444053" stroke-miterlimit="10" stroke-width="1"/>
      <path id="Path_194002" data-name="Path 194002" d="M921.131,110.66l-.062.17c8.316,10.648,18.78,23.364,27.152,32.778.8.895,1.591,1.841,2.35,2.8l.242-.193c-.765-.963-1.563-1.909-2.362-2.832C940.08,133.99,929.447,121.3,921.131,110.66Z" transform="translate(-546.764 566.432)" fill="none" stroke="#444053" stroke-miterlimit="10" stroke-width="1"/>
      <g id="Group_10107" data-name="Group 10107">
        <path id="Path_187069" data-name="Path 187069" d="M337.247,188.13a31.779,31.779,0,0,0,5.547,9.909l-7.063,3.178Z" transform="matrix(0.999, 0.035, -0.035, 0.999, 256.971, 465.225)" fill="#dba585"/>
        <g id="Group_10106" data-name="Group 10106">
          <g id="Group_9458" data-name="Group 9458" transform="translate(535.689 637.01)">
            <g id="Group_9429" data-name="Group 9429" transform="translate(69.468 167.078)">
              <g id="Group_9428" data-name="Group 9428">
                <g id="Group_9427" data-name="Group 9427">
                  <path id="Path_193404" data-name="Path 193404" d="M658.972,1135.033a9.633,9.633,0,0,1,2,2.75,15.842,15.842,0,0,0,2.411,3.237,37,37,0,0,1,3.388,5.546c.14.424-.046,3.346.334,4.173s1.36,2.42.619,2.718-2.015-.891-2.015-.891a1.139,1.139,0,0,1-.269,1.235,1.964,1.964,0,0,1-1.926.535s-.22.983-.776,1.241a2.5,2.5,0,0,1-2.009.2,2.3,2.3,0,0,1-1.336.822,2.1,2.1,0,0,1-1.919-.626s-1.368.643-1.984.062a7.09,7.09,0,0,1-1.1-1.893,24.251,24.251,0,0,1-1.051-10.608c.747-4.451-2.73-7.787-2.73-7.787Z" transform="translate(-650.615 -1135.033)" fill="#dba585"/>
                </g>
              </g>
            </g>
            <g id="Group_9430" data-name="Group 9430" transform="translate(67.357 182.097)">
              <path id="Path_193405" data-name="Path 193405" d="M670.648,1173.556H651.436a3.54,3.54,0,0,1-3.538-3.536V1157.9a3.542,3.542,0,0,1,3.538-3.539h19.212a3.542,3.542,0,0,1,3.539,3.539v12.115A3.54,3.54,0,0,1,670.648,1173.556Zm-19.212-16.817a1.167,1.167,0,0,0-1.164,1.165v12.115a1.164,1.164,0,0,0,1.164,1.163h19.212a1.165,1.165,0,0,0,1.165-1.163V1157.9a1.167,1.167,0,0,0-1.165-1.165Z" transform="translate(-647.898 -1154.365)" fill="#1a232f"/>
            </g>
            <g id="Group_9431" data-name="Group 9431" transform="translate(44.46 196.089)">
              <rect id="Rectangle_6884" data-name="Rectangle 6884" width="72.082" height="51.645" fill="#5a5c5a"/>
            </g>
            <g id="Group_9432" data-name="Group 9432" transform="translate(44.162 57.896)">
              <path id="Path_193406" data-name="Path 193406" d="M623.764,994.491s-3.692.053-5.268,11.092,1.41,15.655,1.764,20.25,5.747,34.266,5.893,35.577.869,17.1,2.971,21.292,17.549,27.942,17.756,29.129,7.5-4.138,7.5-4.138-12.138-25.4-12.84-28.3-5.589-17.7-4.817-22.218-2.164-29.444-1.879-32.215S630.838,996.178,623.764,994.491Z" transform="translate(-618.041 -994.491)" fill="#dba585"/>
            </g>
            <g id="Group_9433" data-name="Group 9433" transform="translate(43.913 57.896)">
              <path id="Path_193407" data-name="Path 193407" d="M623.693,994.491s-3.693.053-5.268,11.092-.15,15.015.8,19.8c.9,4.52,3.961,32.166,4.107,33.477s3.813,17.977,5.719,23.84c1.449,4.458,15.224,27.8,15.43,28.987s10.709-5.454,10.709-5.454-13.469-26.277-14.171-29.175-2.985-12.931-3.058-17.514c-.087-5.385-3.474-31.815-3.189-34.587S633.995,998.267,623.693,994.491Z" transform="translate(-617.721 -994.491)" fill="#414d99"/>
            </g>
            <path id="Path_193408" data-name="Path 193408" d="M582.854,1325.854s6.429,9.55,9.021,11.852c0,0,5.963,2.086,6.335,6.142.241,2.651.009,6.911-6.8,7.1s-11.185-2.187-12.433-6.315a12.445,12.445,0,0,0-3.6-5.97v8.637h-1.534s-.385-8.35-.481-9.885-1.1-7.44,2.136-10.053A8.98,8.98,0,0,1,582.854,1325.854Z" transform="translate(-563.859 -1010.481)" fill="#e6d8d1"/>
            <path id="Path_193409" data-name="Path 193409" d="M638.5,1315.478a27.674,27.674,0,0,0,3.215,5.374c1.541,2.008,6.333,10.267,8.445,10.842s8.636,1.729,9.211,5.375.864,6.238-5.565,6.525-10.652.671-13.723-3.838a33.429,33.429,0,0,0-7.966-7.771v11.765h-2.494s-1.152-12.247-1.824-13.111-2.4-10.268,3.551-15.16S638.5,1315.478,638.5,1315.478Z" transform="translate(-575.887 -1007.732)" fill="#e6d8d1"/>
            <path id="Path_193410" data-name="Path 193410" d="M576.076,1087.71s-8.118,10.556-10.321,23.079,1.3,54.555,1.2,60.745-5.854,21.593-4.7,33.251,10.772,68.733,10.772,68.733l7.364-1.512s-.719-59.159,0-64.055,2.165-22.734,2.452-24.749,18.277-54.933,18.277-63.962S595.653,1072.979,576.076,1087.71Z" transform="translate(-561.398 -956.635)" fill="#dba585"/>
            <path id="Path_193411" data-name="Path 193411" d="M624.57,1093.243s13.339,50.906,14.921,57.961,3.879,12.871,3.879,15.864c0,6.948-2.582,18.107-2.582,18.107l-9.068,80.61h-7.15s-4.511-47.072-5.23-56.572,5.182-24.185,3.742-28.215-23.176-50.523-23.176-50.523S583.449,1078.463,624.57,1093.243Z" transform="translate(-569.107 -958.04)" fill="#dba585"/>
            <path id="Path_193412" data-name="Path 193412" d="M593.66,1338.26s-5.6,2.879-10.688-.921a20.775,20.775,0,0,1-6.8-9.907l7.364-1.512Z" transform="translate(-564.536 -1010.547)" fill="#dba585"/>
            <path id="Path_193413" data-name="Path 193413" d="M651.009,1331.947s-5.758,1.439-7.966,0-9.71-14.121-12.2-14.882c0,0,2.409-4.885,8.5-1.334C639.349,1315.731,649.377,1329.836,651.009,1331.947Z" transform="translate(-576.736 -1007.985)" fill="#dba585"/>
            <path id="Path_193414" data-name="Path 193414" d="M634.187,1161.147s-24.508,14.424-70.445,14.424c0,0-2.6-53.278,4.077-68.27s51.014-5.667,51.014-5.667S632.609,1150.124,634.187,1161.147Z" transform="translate(-561.652 -959.863)" fill="#2c3d54"/>
            <g id="Group_9434" data-name="Group 9434" transform="translate(3.666 53.545)">
              <path id="Path_193415" data-name="Path 193415" d="M601.3,989.264s7.125,3.365,9.6,3.859,12.07,12.961,13.753,17.511,0,11.379-3.463,19.393-.2,10.687-1.781,18.7-2.969,24.982-2.671,29.435-40.019,5.291-49.22-2.823c0,0,9.248-13.85,10.435-15.829s.2-12.763-.89-15.534-8.332-26.328-8.332-26.328-5.926-18.093-.572-22.249c4.65-3.613,17.324-4.9,19.6-5.692S596.649,988.571,601.3,989.264Z" transform="translate(-565.914 -988.891)" fill="#e6d8d1"/>
            </g>
            <g id="Group_9435" data-name="Group 9435" transform="translate(41.118 51.385)">
              <path id="Path_193416" data-name="Path 193416" d="M614.331,1004.524l4.329-5.071-3.76-13.342A88.053,88.053,0,0,0,614.331,1004.524Z" transform="translate(-614.123 -986.111)" fill="#fff"/>
            </g>
            <g id="Group_9436" data-name="Group 9436" transform="translate(19.137 2.1)">
              <path id="Path_193417" data-name="Path 193417" d="M596.752,923.931c4.232-1.491,19.788-5.146,23.448,14.742s-7.321,34.035-17.413,30.275-16.324-17.513-16.919-28S591.409,925.811,596.752,923.931Z" transform="translate(-585.828 -922.67)" fill="#dba585"/>
            </g>
            <g id="Group_9437" data-name="Group 9437" transform="translate(17.034 0.472)">
              <path id="Path_193418" data-name="Path 193418" d="M619.6,938.2s.761-17.02-16.157-17.612-21.47,13.336-20.085,23.488a24.849,24.849,0,0,0,8.389,15.507s-.608-8.212,2.675-10.348,16.442-6.386,22.179-16.28C616.6,932.96,619.259,936.083,619.6,938.2Z" transform="translate(-583.122 -920.574)" fill="#2c323d"/>
            </g>
            <g id="Group_9438" data-name="Group 9438" transform="translate(10.225)">
              <path id="Path_193419" data-name="Path 193419" d="M596.547,936.266c-2.229,6.776-8.838,10.689-14.762,8.742s-8.918-9.021-6.691-15.8,8.839-10.689,14.764-8.742S598.776,929.488,596.547,936.266Z" transform="translate(-574.357 -919.967)" fill="#2c323d"/>
            </g>
            <g id="Group_9439" data-name="Group 9439" transform="translate(25.506 35.947)">
              <path id="Path_193420" data-name="Path 193420" d="M610.972,975.989s-1.422,13.068-1.125,17.323c0,0-7.4,7.418-15.82-8.659A22.066,22.066,0,0,0,594.9,969C592.236,959.969,610.972,975.989,610.972,975.989Z" transform="translate(-594.027 -966.238)" fill="#dba585"/>
            </g>
            <g id="Group_9440" data-name="Group 9440" transform="translate(32.807 63.02)">
              <path id="Path_193421" data-name="Path 193421" d="M611.944,1001.087v6.779l-8.519-6.365Z" transform="translate(-603.425 -1001.087)" fill="#dba585"/>
            </g>
            <g id="Group_9441" data-name="Group 9441" transform="translate(22.022 53.545)">
              <path id="Path_193422" data-name="Path 193422" d="M608.846,1005.144l-3.537-4.378L593.4,988.891l-3.854,3.712Z" transform="translate(-589.541 -988.891)" fill="#cfc3bc"/>
            </g>
            <g id="Group_9442" data-name="Group 9442" transform="translate(0 54.681)">
              <path id="Path_193423" data-name="Path 193423" d="M585.416,990.353s10,15.175,10.476,21.853-3.716,56.636-7.073,72.694-27.624-1.81-27.624-1.81,16.3-26.393,10.047-47.526-8.533-29.58-8.533-29.58,2.152-11.769,9.783-13.426C579.184,991.107,585.416,990.353,585.416,990.353Z" transform="translate(-561.195 -990.353)" fill="#414d99"/>
            </g>
            <g id="Group_9443" data-name="Group 9443" transform="translate(44.337 56.26)">
              <path id="Path_193424" data-name="Path 193424" d="M636.988,1013.441s1.8,6.38-5.222,20.486c0,0,.111,18.054.31,23.69s1.534,26.962,1.534,26.962l-6.948,4.072a1.961,1.961,0,0,1-2.937-1.929c1.969-16.229,8.37-77.789-5.458-94.336l5.548,1.635S633.672,1002.089,636.988,1013.441Z" transform="translate(-618.266 -992.386)" fill="#414d99"/>
            </g>
            <g id="Group_9444" data-name="Group 9444" transform="translate(25.007 23.978)">
              <path id="Path_193425" data-name="Path 193425" d="M598.409,952.395a2.608,2.608,0,0,0-3.859-1.106c-1.187.889-1.88,3.561,0,7.023S603.059,964.19,598.409,952.395Z" transform="translate(-593.385 -950.832)" fill="#dba585"/>
            </g>
            <g id="Group_9445" data-name="Group 9445" transform="translate(41.895 51.386)">
              <path id="Path_193426" data-name="Path 193426" d="M618.883,999.453l5.453,1.51-9.213-14.851Z" transform="translate(-615.123 -986.111)" fill="#fff"/>
            </g>
            <g id="Group_9446" data-name="Group 9446" transform="translate(22.577 53.545)">
              <path id="Path_193427" data-name="Path 193427" d="M605.468,1000.766l-4.982,6.529-10.23-17.051,3.3-1.354Z" transform="translate(-590.257 -988.891)" fill="#fff"/>
            </g>
            <g id="Group_9447" data-name="Group 9447" transform="translate(28.332 42.904)">
              <path id="Path_193428" data-name="Path 193428" d="M611.491,980.863l-.245,2.62s-5.883,1.1-13.581-8.291C597.664,975.193,603.119,981.851,611.491,980.863Z" transform="translate(-597.664 -975.193)" fill="#997761"/>
            </g>
            <g id="Group_9450" data-name="Group 9450" transform="translate(77.105 120.776) rotate(-7)">
              <g id="Group_9449" data-name="Group 9449">
                <g id="Group_9448" data-name="Group 9448">
                  <path id="Path_193429" data-name="Path 193429" d="M653.589,1085.175s3.46,2.229,5.45.983c1.694-1.06,4.647-1.208,5.555-1.255,1.217-.061,4.876-1.646,4.971-.113s-5.91,2.9-7.112,3.438,4.09,3.12,4.685,4.357-4.18,9.753-7.606,7.559-5.639-6.8-6.317-7.063a24.6,24.6,0,0,1-2.557-1.5Z" transform="translate(-650.66 -1084.124)" fill="#dba585"/>
                </g>
              </g>
            </g>
            <g id="Group_9451" data-name="Group 9451" transform="translate(2.872 62.046) rotate(-7)">
              <path id="Path_193430" data-name="Path 193430" d="M568.613,996.212a9.7,9.7,0,0,1,8.957,3.26c4.156,4.453,6.234,11.774,7.323,14.148s14.84,24.341,15.631,24.835,14.767,11.771,21.1,17.808,18.674,12.762,18.674,12.762l-4.65,6.532s-37.5-19.987-42.246-27.308-23.709-27.606-23.709-27.606S558.373,1003.587,568.613,996.212Z" transform="translate(-564.326 -996.067)" fill="#dba585"/>
            </g>
            <g id="Group_9454" data-name="Group 9454" transform="translate(87.023 127.376) rotate(-7)">
              <g id="Group_9453" data-name="Group 9453">
                <g id="Group_9452" data-name="Group 9452">
                  <path id="Path_193431" data-name="Path 193431" d="M669.057,1094.112s10.042,7.41,10.3,8.465-.179,1.574-1.147.921-9.909-6.88-9.909-6.88,10.412,10.769,10.81,11.586c.234.478-.547,1.535-1.1,1.235s-11.481-10.386-11.481-10.386,9.7,10.072,9.833,10.856a.963.963,0,0,1-1.617.778c-.771-.7-10.306-9.537-10.306-9.537s6.6,7.776,6.32,8.5c-.172.443-.8,1.388-2.445-.671s-6.021-6.51-6.021-6.51Z" transform="translate(-662.296 -1094.112)" fill="#dba585"/>
                </g>
              </g>
            </g>
            <path id="Path_193432" data-name="Path 193432" d="M637.3,1041.3s.33,22.534-1.045,33.4l-.609-29.865Z" transform="translate(-577.807 -947.041)" fill="#2f386c"/>
            <g id="Group_9455" data-name="Group 9455" transform="translate(0.93 57.614)">
              <path id="Path_193433" data-name="Path 193433" d="M570.658,994.128s2.735.459,6.89,4.912,6.234,11.773,7.321,14.147,14.841,24.341,15.634,24.835,12.243,8.359,18.575,14.4S637.2,1065.66,637.2,1065.66l-6.048,8.981s-33.068-18.316-38.314-25.292c-5.6-7.449-25.575-29.324-25.575-29.324S554.309,1000.1,570.658,994.128Z" transform="translate(-679.76 -916.054) rotate(-7)" fill="#414d99"/>
              <path id="Path_187064" data-name="Path 187064" d="M302.93,264.012l5.462-.913,5.278,15.837-5.9-.233Z" transform="translate(52.079 -342.01) rotate(45)" fill="#fff"/>
              <path id="Path_187064-2" data-name="Path 187064" d="M302.93,264.012l5.462-.913,5.278,15.837-5.9-.233Z" transform="translate(281.654 -241.718) rotate(79)" fill="#fff"/>
            </g>
            <g id="Group_9457" data-name="Group 9457" transform="translate(72.519 177.64)">
              <g id="Group_9456" data-name="Group 9456">
                <path id="Path_193434" data-name="Path 193434" d="M666.644,1155.029s-1.29-5.017-2.9-5.763-1.248,1.085-1.248,1.085-.328-1.821-1.829-1.719-.958,2.229-.958,2.229a1.5,1.5,0,0,0-2.049-.674c-1.425.639-.569,2.3-.569,2.3s-1.924-1.373-2.387.5c-.782,3.159,1.586,6.137,1.586,6.137a1.781,1.781,0,0,0,2.063-.04,2.109,2.109,0,0,0,3.288-.188s2.561.68,2.809-1.448C664.447,1157.449,667.4,1157.914,666.644,1155.029Z" transform="translate(-654.542 -1148.628)" fill="#c99a7d"/>
              </g>
            </g>
            <path id="Path_193435" data-name="Path 193435" d="M598.817,1066.755l-11.32-18.266s9.652,11.4,10.658,12.62,1.091,1.314,1.091,1.314S598.953,1066.134,598.817,1066.755Z" transform="translate(-567.064 -948.644)" fill="#2f386c"/>
          </g>
          <path id="Path_187066" data-name="Path 187066" d="M340.6,193.431c0,2.979,1.425,5.4,3.207,5.4s3.207-2.423,3.207-5.4S345.589,188,343.807,188,340.6,190.437,340.6,193.431Z" transform="translate(250.223 452.306) rotate(3)" fill="none" stroke="#fff" stroke-miterlimit="10" stroke-width="0.45"/>
          <line id="Line_528" data-name="Line 528" x1="9.851" y1="1.488" transform="translate(570.378 661.905)" fill="none" stroke="#fff" stroke-miterlimit="10" stroke-width="0.45"/>
          <path id="Path_187073" data-name="Path 187073" d="M353,196.038a2.326,2.326,0,1,0,1.574-2.889A2.325,2.325,0,0,0,353,196.038Z" transform="translate(210.397 474.135)" fill="#fff"/>
        </g>
      </g>
      <path id="Path_194380" data-name="Path 194380" d="M141.832,723.169s41.731,26.079-35.2,66.229c0,0-16.95-32.593,1.788-59.167a24.718,24.718,0,0,1,32.778-7.436Z" transform="translate(801.375 185.887)" fill="#0d5bb9"/>
      <path id="Path_194381" data-name="Path 194381" d="M150.639,723.67s-35.716,28.3-34.739,66.776" transform="translate(792.09 184.832)" fill="none" stroke="#535461" stroke-miterlimit="10" stroke-width="1"/>
      <path id="Path_194382" data-name="Path 194382" d="M168.934,764.36s13.078-46.019-2.432-79.834a74.983,74.983,0,0,1-5.674-45.569,125.468,125.468,0,0,1,6.231-21.386" transform="translate(738.487 211.397)" fill="none" stroke="#535461" stroke-miterlimit="10" stroke-width="2"/>
      <path id="Path_194383" data-name="Path 194383" d="M155.4,585.591c0,5.637,9.85,21.979,9.85,21.979s9.85-16.342,9.85-21.979a9.86,9.86,0,1,0-19.707,0Z" transform="translate(740.466 226.619)" fill="#0d5bb9"/>
      <path id="Path_194384" data-name="Path 194384" d="M179.334,625.421c2.96,4.73,19.8,12.9,19.8,12.9s-.3-19.265-3.264-23.988a9.649,9.649,0,0,0-13.624-3.017,10.426,10.426,0,0,0-2.913,14.112Z" transform="translate(698.815 217.389)" fill="#0d5bb9"/>
      <path id="Path_194385" data-name="Path 194385" d="M177.238,695.375c4.856,2.541,23.384.75,23.384.75s-9.655-16.492-14.511-19.01a9.7,9.7,0,0,0-13.234,4.516,10.379,10.379,0,0,0,4.361,13.707Z" transform="translate(703.05 199.58)" fill="#0d5bb9"/>
      <path id="Path_194386" data-name="Path 194386" d="M163.584,749.371c4.342,3.351,22.921,4.865,22.921,4.865s-6.825-17.923-11.2-21.274a9.632,9.632,0,0,0-13.78,2.137,10.446,10.446,0,0,0,2.063,14.273Z" transform="translate(724.588 183.008)" fill="#0d5bb9"/>
      <path id="Path_194387" data-name="Path 194387" d="M167.1,643.494c-3.9,3.928-22.088,8-22.088,8s4.451-18.74,8.359-22.638a9.621,9.621,0,0,1,13.943.2,10.473,10.473,0,0,1-.192,14.441Z" transform="translate(751.531 213.037)" fill="#0d5bb9"/>
      <path id="Path_194388" data-name="Path 194388" d="M150.808,705.855c-4.856,2.541-23.384.75-23.384.75s9.655-16.492,14.511-19.01a9.7,9.7,0,0,1,13.233,4.516,10.379,10.379,0,0,1-4.36,13.707Z" transform="translate(779.577 196.744)" fill="#0d5bb9"/>
      <path id="Path_194389" data-name="Path 194389" d="M146.862,769.271c-4.342,3.35-22.921,4.865-22.921,4.865s6.825-17.923,11.2-21.274A9.632,9.632,0,0,1,148.924,755,10.446,10.446,0,0,1,146.862,769.271Z" transform="translate(786.039 178.024)" fill="#0d5bb9"/>
      <path id="Path_194390" data-name="Path 194390" d="M155.4,585.591c0,5.637,9.85,21.979,9.85,21.979s9.85-16.342,9.85-21.979a9.86,9.86,0,1,0-19.707,0Z" transform="translate(740.466 226.619)" opacity="0.25"/>
      <path id="Path_194391" data-name="Path 194391" d="M179.334,625.421c2.96,4.73,19.8,12.9,19.8,12.9s-.3-19.265-3.264-23.988a9.649,9.649,0,0,0-13.624-3.017,10.426,10.426,0,0,0-2.913,14.112Z" transform="translate(698.815 217.389)" opacity="0.25"/>
      <path id="Path_194392" data-name="Path 194392" d="M177.238,695.375c4.856,2.541,23.384.75,23.384.75s-9.655-16.492-14.511-19.01a9.7,9.7,0,0,0-13.234,4.516,10.379,10.379,0,0,0,4.361,13.707Z" transform="translate(703.05 199.58)" opacity="0.25"/>
      <path id="Path_194393" data-name="Path 194393" d="M163.584,749.371c4.342,3.351,22.921,4.865,22.921,4.865s-6.825-17.923-11.2-21.274a9.632,9.632,0,0,0-13.78,2.137,10.446,10.446,0,0,0,2.063,14.273Z" transform="translate(724.588 183.008)" opacity="0.25"/>
      <path id="Path_194394" data-name="Path 194394" d="M167.1,643.494c-3.9,3.928-22.088,8-22.088,8s4.451-18.74,8.359-22.638a9.621,9.621,0,0,1,13.943.2,10.473,10.473,0,0,1-.192,14.441Z" transform="translate(751.531 213.037)" opacity="0.25"/>
      <path id="Path_194395" data-name="Path 194395" d="M150.808,705.855c-4.856,2.541-23.384.75-23.384.75s9.655-16.492,14.511-19.01a9.7,9.7,0,0,1,13.233,4.516,10.379,10.379,0,0,1-4.36,13.707Z" transform="translate(779.577 196.744)" opacity="0.25"/>
      <path id="Path_194396" data-name="Path 194396" d="M146.862,769.271c-4.342,3.35-22.921,4.865-22.921,4.865s6.825-17.923,11.2-21.274A9.632,9.632,0,0,1,148.924,755,10.446,10.446,0,0,1,146.862,769.271Z" transform="translate(786.039 178.024)" opacity="0.25"/>
      <path id="Path_194397" data-name="Path 194397" d="M210.773,765.53s13.078-45.989-2.453-79.834a74.983,74.983,0,0,1-5.674-45.569,125.468,125.468,0,0,1,6.231-21.387" transform="translate(666.388 211.104)" fill="none" stroke="#535461" stroke-miterlimit="10" stroke-width="2"/>
      <path id="Path_194398" data-name="Path 194398" d="M197.207,586.791c0,5.637,9.85,21.979,9.85,21.979s9.85-16.342,9.85-21.979a9.86,9.86,0,1,0-19.707,0Z" transform="translate(668.394 226.295)" fill="#0d5bb9"/>
      <path id="Path_194399" data-name="Path 194399" d="M221.154,626.581c2.96,4.73,19.8,12.9,19.8,12.9s-.3-19.265-3.264-23.988a9.649,9.649,0,0,0-13.624-3.017,10.426,10.426,0,0,0-2.913,14.112Z" transform="translate(628.158 217.074)" fill="#0d5bb9"/>
      <path id="Path_194400" data-name="Path 194400" d="M219.064,696.535c4.856,2.541,23.384.75,23.384.75s-9.655-16.492-14.511-19.01a9.711,9.711,0,0,0-13.252,4.535A10.4,10.4,0,0,0,219.064,696.535Z" transform="translate(630.963 199.266)" fill="#0d5bb9"/>
      <path id="Path_194401" data-name="Path 194401" d="M205.394,750.541c4.342,3.351,22.921,4.865,22.921,4.865s-6.825-17.923-11.2-21.274a9.632,9.632,0,0,0-13.78,2.136,10.446,10.446,0,0,0,2.063,14.273Z" transform="translate(653.949 182.715)" fill="#0d5bb9"/>
      <path id="Path_194402" data-name="Path 194402" d="M208.935,644.654c-3.9,3.928-22.088,8-22.088,8s4.451-18.74,8.359-22.639a9.621,9.621,0,0,1,13.943.2,10.473,10.473,0,0,1-.192,14.441Z" transform="translate(680.855 212.725)" fill="#0d5bb9"/>
      <path id="Path_194403" data-name="Path 194403" d="M192.618,707.015c-4.856,2.541-23.384.75-23.384.75s9.655-16.492,14.511-19.01a9.7,9.7,0,0,1,13.233,4.516,10.379,10.379,0,0,1-4.36,13.707Z" transform="translate(706.08 196.43)" fill="#0d5bb9"/>
      <path id="Path_194404" data-name="Path 194404" d="M188.672,770.441c-4.342,3.351-22.921,4.865-22.921,4.865s6.825-17.923,11.2-21.274a9.632,9.632,0,0,1,13.78,2.136A10.445,10.445,0,0,1,188.672,770.441Z" transform="translate(715.397 177.731)" fill="#0d5bb9"/>
      <g id="Group_10104" data-name="Group 10104" transform="translate(-13 7)">
        <g id="Group_5847" data-name="Group 5847" transform="translate(508.371 584.253)">
          <rect id="Rectangle_6644" data-name="Rectangle 6644" width="55.123" height="36.479" rx="17" fill="#e46500"/>
          <path id="Path_187074" data-name="Path 187074" d="M218.373,147.27v21.363L199.74,149.986Z" transform="translate(-174.238 -121.466)" fill="#e46500"/>
        </g>
        <g id="Group_5848" data-name="Group 5848" transform="translate(521.125 599.732)">
          <circle id="Ellipse_556" data-name="Ellipse 556" cx="2.528" cy="2.528" r="2.528" transform="translate(0 0)" fill="#fff"/>
          <circle id="Ellipse_557" data-name="Ellipse 557" cx="2.528" cy="2.528" r="2.528" transform="translate(12.384 0)" fill="#fff"/>
          <circle id="Ellipse_558" data-name="Ellipse 558" cx="2.528" cy="2.528" r="2.528" transform="translate(24.767 0)" fill="#fff"/>
        </g>
      </g>
      <g id="Group_10105" data-name="Group 10105" transform="translate(779.371 589.253)">
        <g id="Group_5847-2" data-name="Group 5847" transform="translate(0)">
          <rect id="Rectangle_6644-2" data-name="Rectangle 6644" width="55.123" height="36.479" rx="17" fill="#e56500"/>
          <path id="Path_187074-2" data-name="Path 187074" d="M199.74,147.27v21.363l18.633-18.648Z" transform="translate(-188.752 -121.466)" fill="#e56500"/>
        </g>
        <g id="Group_5848-2" data-name="Group 5848" transform="translate(12.753 15.479)">
          <circle id="Ellipse_556-2" data-name="Ellipse 556" cx="2.528" cy="2.528" r="2.528" transform="translate(0 0)" fill="#fff"/>
          <circle id="Ellipse_557-2" data-name="Ellipse 557" cx="2.528" cy="2.528" r="2.528" transform="translate(12.384 0)" fill="#fff"/>
          <circle id="Ellipse_558-2" data-name="Ellipse 558" cx="2.528" cy="2.528" r="2.528" transform="translate(24.767 0)" fill="#fff"/>
        </g>
      </g>
      <g id="Group_10108" data-name="Group 10108">
        <g id="Group_9496" data-name="Group 9496" transform="translate(641.964 627.73)">
          <g id="Group_5827" data-name="Group 5827" transform="translate(102.572 331.837)">
            <g id="Group_5826" data-name="Group 5826" transform="translate(0 0)">
              <path id="Path_187017" data-name="Path 187017" d="M245.847,409.014s-23.159,13.3-30.77,13.406-1.981,3.5,6.317,4.311c6.576.635,19.728-1.351,27.4-2.865a11.354,11.354,0,0,0,2.434-2.081l.518,1.892a22.98,22.98,0,0,0,3.974-.338c.285-4.054-1.631-14.379-1.631-14.379Z" transform="translate(-211.488 -408.96)" fill="#005479"/>
            </g>
          </g>
          <g id="Group_9482" data-name="Group 9482" transform="translate(80.696 325.552)">
            <path id="Path_193490" data-name="Path 193490" d="M802.478,1332.62a24.614,24.614,0,0,0-.6,2.85c.106.059,12.208,1.5,11.841-.739-.3-1.818-.72-3.792-.72-3.792Z" transform="translate(-801.867 -1330.94)" fill="#807f7d"/>
          </g>
          <g id="Group_9483" data-name="Group 9483" transform="translate(134.884 327.719)">
            <path id="Path_193491" data-name="Path 193491" d="M872.04,1334.777a23.913,23.913,0,0,0-.409,2.726c.1.064,12.272,2.24,12.2.029a10.64,10.64,0,0,0-1.123-3.8Z" transform="translate(-871.619 -1333.729)" fill="#807f7d"/>
          </g>
          <g id="Group_9484" data-name="Group 9484" transform="translate(79.492 147.327)">
            <path id="Path_193492" data-name="Path 193492" d="M813.135,1114.367s-4.4,42.74-6.69,57.373c-2.676,17.108-3.583,31.243-4.329,40.1-.939,11.137-1.12,65.922-1.778,69.179s14.579.9,14.579.9,7.495-71.583,10.29-83.446c2.6-11.043,12.267-58.592,14.642-55.577s5.32,55.489,7.08,64.2,7.109,76.9,7.109,76.9,12.126,2.415,15.352-.314c0,0,1.468-58.768.347-75.1-.428-6.226,7.292-74.625-2.606-102.158C861.9,1091.872,813.135,1114.367,813.135,1114.367Z" transform="translate(-800.318 -1101.525)" fill="#2e3048"/>
          </g>
          <g id="Group_9485" data-name="Group 9485" transform="translate(88.612 53.298)">
            <path id="Path_193493" data-name="Path 193493" d="M855.261,1077.883s-2.937-4.437-6.044-5.009,42.837-22.782,42.714-30.716c-.094-6.437-16.088-18.3-16.088-18.3h0a1.038,1.038,0,0,1,0-.111h0c-.35,1.274-5.573,20.282-5.738,28.756-.175,8.793.525,39.042.525,39.042l-11.776,3.155-37.617.349-8.586-3.5s.938-9.725,1.286-16.558c.218-4.343,1.06-12.117.845-19.689,0,0,.137-7.981-.656-11.418-.085-15.172-1-30.2-1-30.2q-.762-10.321-1.064-19.313c1.659-.875,3.654-1.905,5.252-2.664,4.94-2.352,11.825-5.521,16.243-7.55,2.588-1.187,5.12-2.054,5.12-2.054s17.657-1.693,19.089-1.6a45.105,45.105,0,0,1,5.555,1.9c6.261,2.377,18.33,7.214,20.255,8.594,2.82,2.017,21.276,50.845,21.545,54.2C905.6,1051.238,855.261,1077.883,855.261,1077.883Z" transform="translate(-812.057 -980.49)" fill="#d8d6e1"/>
          </g>
          <path id="Path_193494" data-name="Path 193494" d="M813.954,1119.3s25.841,2.2,48.471,0v7.425s-33.7,3.218-49.6-1.418Z" transform="translate(-723.615 -958.165)" fill="#232536"/>
          <g id="Group_9486" data-name="Group 9486" transform="translate(81.739 55.984)">
            <path id="Path_193495" data-name="Path 193495" d="M809.669,995.025c.2,6.1.494,12.644,1.014,19.651,0,0,.489,17.111,1.474,33.34a32.3,32.3,0,0,1,.315,7.133c-.245,3.174-.59,6.639-1,10.256-.005.046-.009.094-.015.137-.1.857-.2,1.719-.306,2.592,0,.013-.005.024-.005.037-2.2,18.083-5.916,38.827-7.86,45.1-.409,1.31,1,2.522,2.014,3.456l7.067,4.455s2.914-26.824,3.88-35.929c.935-8.787,3.871-20.569,5.159-32.05v-.005c1.631-14.565,3.877-28.834,5.089-37.31,3.153-22.071,7.356-31.945,7.356-31.945C831.839,984.547,809.669,995.025,809.669,995.025Z" transform="translate(-803.21 -983.947)" fill="#70a9ed"/>
          </g>
          <g id="Group_9487" data-name="Group 9487" transform="translate(124.163 54.22)">
            <path id="Path_193496" data-name="Path 193496" d="M896.868,1040.18c3.065,6.719-28.124,18.7-27.42,20.355,1.687,3.974,8.569,12.077,8.569,12.077s41.064-20.312,40.6-24.918c-.334-3.351-19.571-54.041-22.39-56.06-1.628-1.168-13.687-5.444-19.607-7.778-1.081-.426-4.772-1.813-5.742-2.18-1.256,1.4-9.909,10.945-12.965,47.023-.514,6.08,1.112,18.955,2.2,29.468,1.159,11.212,2.441,19.962,3.382,29.338,1.853,18.476,3.149,33.176,3.149,33.176l18.385-8.185c2.975-1.491,8.121-5.375,7-8.506-4.25-11.906-10.628-34.467-10.635-44.914,0,0,3.006-28.829,4.632-34.449C886.032,1024.625,893.441,1032.665,896.868,1040.18Z" transform="translate(-857.819 -981.676)" fill="#70a9ed"/>
          </g>
          <g id="Group_9488" data-name="Group 9488" transform="translate(115.372 36.283)">
            <path id="Path_193497" data-name="Path 193497" d="M863.817,977.483s.12-6.062,2.457-18.324c.625-3.282-19.059,8.636-19.059,8.636s.062,1.153.1,2.7c.022.82.035,1.751.03,2.683,0,.331-.005.659-.013.98-.019.868-.059,1.7-.132,2.406a11.273,11.273,0,0,1-.656,2.364C845.731,980.808,857.187,982.229,863.817,977.483Z" transform="translate(-846.503 -958.587)" fill="#dba686"/>
          </g>
          <path id="Path_193498" data-name="Path 193498" d="M852.039,991.086l-3.264,4.385s1.911,2.557,5.307.669Z" transform="translate(-731.638 -929.556)" fill="#2e3048"/>
          <path id="Path_193499" data-name="Path 193499" d="M846.978,996.926s-12.374,47.64-9.823,84.727l4.162,7.334,3.9-7.687s1.068-66.332,4.461-84.493Z" transform="translate(-728.968 -930.832)" fill="#2e3048"/>
          <path id="Path_193500" data-name="Path 193500" d="M848.478,985.468l3.494,4.085s5.606-1.084,7.252-4.015S848.478,985.468,848.478,985.468Z" transform="translate(-731.571 -928.023)" fill="#dba686"/>
          <path id="Path_193501" data-name="Path 193501" d="M846.8,981.223s.407,3.115,4.3,7.662l-4.245,5.7-2.3-11.831Z" transform="translate(-730.696 -927.355)" fill="#c1bfc9"/>
          <path id="Path_193502" data-name="Path 193502" d="M865.637,976.76s-6.992,8.889-12.661,11.13l2.637,6.52,12.046-14.562Z" transform="translate(-732.575 -926.359)" fill="#c1bfc9"/>
          <g id="Group_9489" data-name="Group 9489" transform="translate(0 116.304)">
            <path id="Path_193503" data-name="Path 193503" d="M714.265,1061.592s-12.962,1.515-13.692,2.344-.555,1.531.666,1.442,12.591-1.095,12.591-1.095-14.86,4.388-15.614,4.925c-.444.317-.188,1.691.475,1.7s15.7-3.478,15.7-3.478-13.866,4.123-14.349,4.773a1.074,1.074,0,0,0,1.179,1.558c1.054-.234,14.192-3.317,14.192-3.317s-9.858,3.648-9.926,4.46c-.042.5.124,1.693,2.632.669s8.726-2.8,8.726-2.8Z" transform="translate(-697.994 -1061.592)" fill="#dba585"/>
          </g>
          <g id="Group_9491" data-name="Group 9491" transform="translate(14.802 107.874)">
            <g id="Group_9490" data-name="Group 9490">
              <path id="Path_193504" data-name="Path 193504" d="M733.843,1059.784s-4.315.225-5.634-1.959c-1.122-1.856-3.863-3.539-4.705-4.057-1.126-.7-3.878-4.061-4.675-2.711s4.284,5.751,5.178,6.873-5.326.708-6.461,1.526-.517,11.113,3.751,10.9,8.492-3.26,9.26-3.146a26.2,26.2,0,0,0,3.119-.031Z" transform="translate(-717.048 -1050.74)" fill="#dba585"/>
            </g>
          </g>
          <g id="Group_9492" data-name="Group 9492" transform="translate(27.249 65.654)">
            <path id="Path_193505" data-name="Path 193505" d="M735.619,1057.835s31.8-4.453,38.856-6.19c3.264-.8,7.56-5.3,11.644-10.6,1.346-1.743,2.666-3.571,3.923-5.385l0-.008c5.01-7.233,8.936-14.167,8.936-14.167s14.809-17.354,2.925-25.088c0,0-5.093-.111-7.887,1.406-2.872,1.558-9,14.347-10.037,16.611s-12.292,23.293-13.046,23.766-11.986,2.914-16.992,3.958c-7.251,1.513-20.875,4.341-20.875,4.341Z" transform="translate(-733.069 -996.395)" fill="#70a9ed"/>
          </g>
          <rect id="Rectangle_6891" data-name="Rectangle 6891" width="12.085" height="9.165" transform="translate(121.478 170.699) rotate(180)" fill="#3e4265"/>
          <path id="Path_193506" data-name="Path 193506" d="M862.865,1101.344a6.831,6.831,0,0,0,2.147-.4s1.123-.722,1.954-1.187a6.3,6.3,0,0,1,.656-.33,12.551,12.551,0,0,0,3.615-1.725c1.414-1.077,6.027-5.392,6.027-5.392l-2.982-4.582-1.376-4.538s-10.753,1.068-12.189,1.919a4.682,4.682,0,0,0-.395.266,15.814,15.814,0,0,0-2.195,2.455c-.2.188-2.074,2.192-1.969,3.006a2.677,2.677,0,0,0,1.4,2.2,6.4,6.4,0,0,0,1.516,3.181,3.984,3.984,0,0,0,2.045,2.859S861.643,1101.1,862.865,1101.344Z" transform="translate(-733.284 -950.106)" fill="#dca787"/>
          <path id="Path_193507" data-name="Path 193507" d="M881.17,1092.375a37.613,37.613,0,0,1-9.219-12.077l18.354-10.052,6.811,13.87Z" transform="translate(-736.809 -947.219)" fill="#70a9ed"/>
          <g id="Group_9493" data-name="Group 9493" transform="translate(100.915 5.522)">
            <path id="Path_193508" data-name="Path 193508" d="M832.7,928.785s-4.324,8.019-2.181,9.264c1.77,1.03-2.075,8.9-2.578,10.182s3.208,2.221,4,3.048,3.125,11.006,6.181,11.312,16.827-4.482,20.576-8.379,6.827-21.509,4.324-28.938S840.331,914.781,832.7,928.785Z" transform="translate(-827.894 -918.992)" fill="#dba585"/>
          </g>
          <g id="Group_9494" data-name="Group 9494" transform="translate(103.645)">
            <path id="Path_193509" data-name="Path 193509" d="M832.62,928.936s-4.413-8.656,3.6-15.08,22.8,4.85,24.468,5.28,11.12,1.08,6.347,17.681c-4.1,14.252-4.673,14.85-4.673,14.85s-3.059-8.256-4.792-9.515c-2.707-1.966-8.643-1.493-8.643-1.493s2.829-7.509-1.591-8.572S837.093,927.277,832.62,928.936Z" transform="translate(-831.408 -911.883)" fill="#1f2531"/>
          </g>
          <g id="Group_9495" data-name="Group 9495" transform="translate(124.776 20.812)">
            <path id="Path_193510" data-name="Path 193510" d="M859.708,942.337c.391-1.032,1.652-5.458,5.45-2.858s-2.366,10.944-3.029,11.051S856.428,951,859.708,942.337Z" transform="translate(-858.608 -938.672)" fill="#dba585"/>
          </g>
          <path id="Path_193511" data-name="Path 193511" d="M847.579,974.938c0,.331-.005.659-.013.98,11.258-3.78,13.439-9.464,13.439-9.464-3.511,2.484-13.455,5.8-13.455,5.8C847.572,973.076,847.585,974.007,847.579,974.938Z" transform="translate(-731.364 -924.06)" fill="#997761"/>
          <path id="Path_187064-3" data-name="Path 187064" d="M302.93,264.012l5.462-.913,5.278,15.837-5.9-.233Z" transform="matrix(0.998, 0.07, -0.07, 0.998, -257.547, -171.34)" fill="#fff"/>
          <path id="Path_187064-4" data-name="Path 187064" d="M302.93,264.012l5.462-.913,5.278,15.837-5.9-.233Z" transform="matrix(0.978, -0.208, 0.208, 0.978, -216.814, -63.473)" fill="#fff"/>
          <g id="Group_5823" data-name="Group 5823" transform="translate(47.992 329.681)">
            <g id="Group_5822" data-name="Group 5822" transform="translate(0 0)">
              <path id="Path_187012" data-name="Path 187012" d="M271.312,407s-23.444,13.532-31.185,13.7-2.007,3.561,6.4,4.383c6.665.644,19.994-1.37,27.774-2.9a11.508,11.508,0,0,0,2.466-2.109l.525,1.917a23.282,23.282,0,0,0,4.028-.342c.289-4.109-1.653-14.573-1.653-14.573Z" transform="translate(-236.478 -407)" fill="#003d57"/>
            </g>
          </g>
        </g>
        <path id="Path_187024" data-name="Path 187024" d="M8.953,8.016l-.829,2.41C2.452,8,.347,6.815.013,6.536l.351-6.9C.3-1.123,8.953,8.016,8.953,8.016Z" transform="translate(758.693 694.707) rotate(-146)" fill="#fff"/>
        <path id="Path_187030" data-name="Path 187030" d="M1.032,15.264.18,7.767c4.7-4.509,14.661-7.18,15.067-7.4l1.8,3.911C16.956,4.327,5.207,11.26,1.032,15.264Z" transform="matrix(0.966, -0.259, 0.259, 0.966, 760.201, 681.791)" fill="#fff"/>
      </g>
    </g>
  </g>
</svg>
