<svg id="Layer_1" data-name="Layer 1" xmlns="http://www.w3.org/2000/svg" xmlns:xlink="http://www.w3.org/1999/xlink" width="706" height="528" viewBox="0 0 706 528">
  <defs>
    <style>
      .cls-1, .cls-9 {
        fill: none;
      }

      .cls-2 {
        fill: url(#linear-gradient);
      }

      .cls-3 {
        fill: url(#linear-gradient-2);
      }

      .cls-4 {
        fill: url(#linear-gradient-3);
      }

      .cls-5 {
        fill: #f5fafa;
      }

      .cls-6 {
        fill: url(#linear-gradient-4);
      }

      .cls-7 {
        fill: url(#linear-gradient-5);
      }

      .cls-8 {
        fill: url(#linear-gradient-6);
      }

      .cls-9 {
        stroke: #535461;
        stroke-miterlimit: 10;
        stroke-width: 2px;
      }

      .cls-10, .cls-11 {
        fill: #0d5bb9;
      }

      .cls-11 {
        opacity: 0.1;
        isolation: isolate;
      }

      .cls-12 {
        fill: #f7b799;
      }

      .cls-13 {
        fill: #fff;
      }

      .cls-14 {
        fill: #0d253a;
      }

      .cls-15 {
        fill: #081a29;
      }

      .cls-16 {
        fill: #250d07;
      }

      .cls-17 {
        opacity: 0.3;
      }

      .cls-18 {
        clip-path: url(#clip-path);
      }

      .cls-19 {
        clip-path: url(#clip-path-2);
      }

      .cls-20 {
        fill: url(#linear-gradient-7);
      }

      .cls-21 {
        fill: #12304d;
      }

      .cls-22 {
        fill: #de3039;
      }

      .cls-23 {
        fill: #c62a30;
      }

      .cls-24 {
        opacity: 0.2;
      }

      .cls-25 {
        clip-path: url(#clip-path-3);
      }

      .cls-26 {
        clip-path: url(#clip-path-4);
      }
    </style>
    <linearGradient id="linear-gradient" x1="353.95" y1="36.91" x2="353.95" y2="527.51" gradientUnits="userSpaceOnUse">
      <stop offset="0" stop-color="#fff"/>
      <stop offset="1" stop-color="#9dc0ec"/>
    </linearGradient>
    <linearGradient id="linear-gradient-2" x1="384.15" y1="527.51" x2="384.15" y2="280.15" gradientUnits="userSpaceOnUse">
      <stop offset="0" stop-color="#fff" stop-opacity="0"/>
      <stop offset="1" stop-color="#fff"/>
    </linearGradient>
    <linearGradient id="linear-gradient-3" x1="391.6" y1="527.51" x2="391.6" y2="343.43" xlink:href="#linear-gradient-2"/>
    <linearGradient id="linear-gradient-4" x1="354.66" y1="413.75" x2="354.66" y2="110.39" gradientUnits="userSpaceOnUse">
      <stop offset="0" stop-color="#fff" stop-opacity="0"/>
      <stop offset="0.68" stop-color="#fff"/>
    </linearGradient>
    <linearGradient id="linear-gradient-5" x1="143.91" y1="441.19" x2="143.91" y2="236.07" xlink:href="#linear-gradient-2"/>
    <linearGradient id="linear-gradient-6" x1="561.05" y1="320.35" x2="561.05" y2="181.04" xlink:href="#linear-gradient-2"/>
    <clipPath id="clip-path">
      <rect class="cls-1" x="271.4" y="203.2" width="12.1" height="10.25"/>
    </clipPath>
    <clipPath id="clip-path-2">
      <path class="cls-1" d="M291.6,301.2c-.1-7.8-.2-14,0-16.9h0l-27-28.5s7.8,45.4,27,45.4"/>
    </clipPath>
    <linearGradient id="linear-gradient-7" x1="5.34" y1="528.48" x2="5.58" y2="528.48" gradientTransform="matrix(-2.71, 452.48, 452.48, 2.71, -238755.97, -3559.58)" gradientUnits="userSpaceOnUse">
      <stop offset="0" stop-color="#0079c3"/>
      <stop offset="0.1" stop-color="#0076bf"/>
      <stop offset="0.2" stop-color="#0072bc"/>
      <stop offset="0.3" stop-color="#006fb9"/>
      <stop offset="0.4" stop-color="#006bb5"/>
      <stop offset="0.5" stop-color="#0068b2"/>
      <stop offset="0.6" stop-color="#0064af"/>
      <stop offset="0.7" stop-color="#0061ab"/>
      <stop offset="0.8" stop-color="#005da8"/>
      <stop offset="0.9" stop-color="#005aa5"/>
      <stop offset="1" stop-color="#0056a2"/>
    </linearGradient>
    <clipPath id="clip-path-3">
      <rect class="cls-1" x="343.8" y="278.4" width="31.4" height="21.61"/>
    </clipPath>
    <clipPath id="clip-path-4">
      <rect class="cls-1" x="426" y="185.5" width="16" height="14.36"/>
    </clipPath>
  </defs>
  <title>Artboard 1</title>
  <g>
    <g>
      <path class="cls-2" d="M678.4,320.3c-.7,7.7-1.5,15.4-2.6,23.1C667.4,402,645.7,460.6,593.1,506c-6.6,5.6-13.7,11.1-22.3,15-22.8,10.2-56.5,4.9-82,4.9H252.3c-29.4,0-71.4,6.8-95.6-7.3a289.7,289.7,0,0,1-49.3-35.9,256.1,256.1,0,0,1-18.6-19.1c-30-34.1-47.6-73.6-55.7-115.9-8.7-45.1-6.8-90.7,16.6-133.3,16-29,41.3-62.9,81.1-76.6,22.8-7.9,49.1-10.1,74-10.3,32.1-.3,65-1.8,92.8-15,31.3-15,54.2-37.9,85.1-53.6S450.2,33.6,488.1,38c52.8,6,94.5,36.8,123.1,70.4a283,283,0,0,1,68.1,173.4A309.4,309.4,0,0,1,678.4,320.3Z"/>
      <path class="cls-3" d="M678.4,320.3c-5.8,66-25.8,134.3-85.3,185.7-6.6,5.6-13.7,11.1-22.3,15-22.8,10.2-56.5,4.9-82,4.9H252.3c-29.4,0-71.4,6.8-95.6-7.3-27.5-16-50-34.5-67.9-55l48-42.4S230.9,460.3,235,457,368.1,341.6,368.1,341.6l56.8,56.6,66.4-118,102.8,80.5,85.2-78.9A309.4,309.4,0,0,1,678.4,320.3Z"/>
      <path class="cls-4" d="M675.8,343.4C667.4,402,645.7,460.6,593.1,506c-6.6,5.6-13.7,11.1-22.3,15-22.8,10.2-56.5,4.9-82,4.9H252.3c-29.4,0-71.4,6.8-95.6-7.3a289.7,289.7,0,0,1-49.3-35.9l41.1-16.9s80.1,43.1,84.2,39.8l101.5-78.9,51.8,22,104.5-72.5,103.6,57.7Z"/>
    </g>
    <path class="cls-5" d="M373.3,301.7a8,8,0,0,1,2.6-6.1,9.7,9.7,0,0,1,6.9-2.5,10.1,10.1,0,0,1,7,2.5,8.2,8.2,0,0,1,2.6,6.1v2.2a8.2,8.2,0,0,1-2.6,6.1,11.3,11.3,0,0,1-13.9,0,7.8,7.8,0,0,1-2.6-6.1Zm4.6,2.2a5.2,5.2,0,0,0,1.3,3.6,4.5,4.5,0,0,0,3.7,1.5,4.6,4.6,0,0,0,3.6-1.5,5.6,5.6,0,0,0,1.2-3.6v-2.2a5.2,5.2,0,0,0-1.3-3.6,5.1,5.1,0,0,0-7.2,0,5.2,5.2,0,0,0-1.3,3.6Zm6.6,28.2-3.5-1.9,22.6-32.4,3.4,1.9Zm11.1-7a8.2,8.2,0,0,1,2.6-6.1,10.1,10.1,0,0,1,7-2.5,9.9,9.9,0,0,1,6.9,2.5,8.2,8.2,0,0,1,2.6,6.1v2.2a7.8,7.8,0,0,1-2.6,6.1,9.3,9.3,0,0,1-6.9,2.5,9.7,9.7,0,0,1-7-2.5,8.2,8.2,0,0,1-2.6-6.1Zm4.7,2.2a5.6,5.6,0,0,0,1.2,3.6,4.7,4.7,0,0,0,3.7,1.5,4.3,4.3,0,0,0,3.6-1.5,5.2,5.2,0,0,0,1.3-3.6v-2.2a5.2,5.2,0,0,0-1.3-3.6,4.6,4.6,0,0,0-3.6-1.5,4.7,4.7,0,0,0-3.7,1.5,5.6,5.6,0,0,0-1.2,3.6Z"/>
    <path class="cls-5" d="M180.9,382.2a5.8,5.8,0,0,0-2.2-4.6c-1.4-1.3-3.7-2.4-7-3.4s-7.9-2.9-10.1-4.9a10.6,10.6,0,0,1-3.5-8.2,11,11,0,0,1,3.2-8.1,14.5,14.5,0,0,1,8.7-3.7v-6.6h5.2v6.6c3.8.5,6.7,1.9,8.7,4.3s3.1,5.6,3.1,9.6h-6.5a10,10,0,0,0-2.1-6.6,7.5,7.5,0,0,0-5.9-2.5c-2.6,0-4.6.6-5.9,1.9a6.5,6.5,0,0,0-1.9,5,6,6,0,0,0,2,4.7,21.4,21.4,0,0,0,7.3,3.5c4.6,1.3,7.9,2.9,10.1,4.9a9.9,9.9,0,0,1,3.4,8,10.3,10.3,0,0,1-3.5,8.2c-2.3,2.1-5.4,3.3-9.4,3.6v5.8h-5.3V394a16.3,16.3,0,0,1-9.4-3.8c-2.4-2.1-3.6-5.3-3.5-9.5h6.4c0,3.1.9,5.3,2.6,6.6a10,10,0,0,0,6.3,1.9,11.4,11.4,0,0,0,6.8-1.8A6,6,0,0,0,180.9,382.2Z"/>
    <path class="cls-5" d="M598.5,253.9h12.7V259H598.5v13.1h-6.3V259H579.5v-5.1h12.7V241.8h6.3Z"/>
    <path class="cls-5" d="M331.8,195.7h-6.3v-5.8h6.3Zm0,25h-6.3v-5.8h6.3Z"/>
    <polygon class="cls-6" points="391 161.1 354.7 110.4 318.3 161.1 335.6 161.1 335.6 413.7 373.8 413.7 373.8 161.1 391 161.1"/>
    <polygon class="cls-7" points="180.2 286.7 143.9 236.1 107.6 286.7 124.8 286.7 124.8 441.2 163 441.2 163 286.7 180.2 286.7"/>
    <polygon class="cls-8" points="597.4 231.7 561 181 524.7 231.7 541.9 231.7 541.9 320.4 580.2 320.4 580.2 231.7 597.4 231.7"/>
  </g>
  <g id="Group_10098" data-name="Group 10098">
    <path id="Path_194327" data-name="Path 194327" class="cls-9" d="M610,523s3.5-45.6,29.2-70.3A69.3,69.3,0,0,0,659.8,414a115.7,115.7,0,0,0,1.5-21.2"/>
    <path id="Path_194328" data-name="Path 194328" class="cls-10" d="M677.4,377.1c-1.9,5-16.5,16.1-16.5,16.1s-3.6-18-1.7-23a9.7,9.7,0,1,1,18.3,6.6.4.4,0,0,1-.1.3Z"/>
    <path id="Path_194329" data-name="Path 194329" class="cls-10" d="M681.9,410.6c-4.3,3.2-22.6,4.6-22.6,4.6s6.8-17.1,11.1-20.3a9.7,9.7,0,0,1,11.5,15.7Z"/>
    <path id="Path_194330" data-name="Path 194330" class="cls-10" d="M663.3,457.9c-5.3.6-21.9-7.5-21.9-7.5s14.5-11.3,19.8-11.8a9.7,9.7,0,0,1,2.1,19.3Z"/>
    <path id="Path_194331" data-name="Path 194331" class="cls-10" d="M641.1,490.5c-5.1,1.5-22.8-3.6-22.8-3.6s12.4-13.6,17.5-15.1a9.8,9.8,0,0,1,12,6.7,9.6,9.6,0,0,1-6.7,12Z"/>
    <path id="Path_194332" data-name="Path 194332" class="cls-10" d="M639.8,408.9c2.3,4.9,17.7,14.9,17.7,14.9s2.2-18.3-.1-23.1a9.6,9.6,0,0,0-12.9-4.6,9.7,9.7,0,0,0-4.7,12.8Z"/>
    <path id="Path_194333" data-name="Path 194333" class="cls-10" d="M614.4,447.4c3.6,4,21.3,8.9,21.3,8.9s-3.3-18.1-7-22a9.7,9.7,0,0,0-14.3,13.1Z"/>
    <path id="Path_194334" data-name="Path 194334" class="cls-10" d="M594.8,488.2c2.9,4.5,19.5,12.4,19.5,12.4s-.2-18.4-3.2-22.9a9.7,9.7,0,1,0-16.3,10.5Z"/>
  </g>
  <g id="Group_10172" data-name="Group 10172">
    <g>
      <path id="Path_194027" data-name="Path 194027" class="cls-10" d="M240.8,488.8s-33-2.1-29.1,21.9c0,0-.8,4.2,2.9,6.1,0,0,.1-1.7,3.4-1.2a10.9,10.9,0,0,0,3.6.2,7.3,7.3,0,0,0,4.4-1.9h0s9.3-3.9,12.9-19.6c0,0,2.6-3.5,2.5-4.3l-5.5,2.4s1.9,4.2.4,7.6c0,0-.2-7.4-1.3-7.3s-2.9,1.5-2.9,1.5,3.3,7.2.8,12.5c0,0,.9-8.9-1.8-12l-3.9,2.4s3.8,7.5,1.2,13.6c0,0,.7-9.4-2-13l-3.6,2.8s3.6,7.4,1.4,12.5c0,0-.3-10.9-2.2-11.8,0,0-3.1,2.9-3.6,4s2.5,5.4,1,8.2c0,0-1-7.2-1.7-7.3s-3.1,4.8-3.5,8.1a18.1,18.1,0,0,1,2.7-8.5,8.7,8.7,0,0,0-4.7,2.5s.5-3.4,5.5-3.7c0,0,2.5-3.7,3.2-3.9s-5-.4-8,1c0,0,2.6-3.2,8.9-1.8l3.5-2.9s-6.6-1-9.3.1c0,0,3.2-2.9,10.3-.8l3.8-2.4s-5.6-1.2-9-.8c0,0,3.6-2,10.1.2l2.7-1.3s-4.1-.8-5.3-.9-1.2-.5-1.2-.5a12.7,12.7,0,0,1,7.7.9S240.9,489.1,240.8,488.8Z"/>
      <ellipse id="Ellipse_747" data-name="Ellipse 747" class="cls-11" cx="218.1" cy="518.9" rx="23.4" ry="4.1"/>
      <path id="Path_194028" data-name="Path 194028" class="cls-10" d="M155,503s-18.6-1.1-16.4,12.4a3.2,3.2,0,0,0,1.6,3.4s0-1,1.9-.6h2a4.4,4.4,0,0,0,2.5-1.1h0s5.2-2.2,7.3-11.1c0,0,1.5-1.9,1.4-2.4l-3.1,1.4a5.8,5.8,0,0,1,.2,4.3s-.1-4.2-.7-4.1l-1.6.8s1.8,4.1.4,7c0,0,.6-5-1-6.7l-2.2,1.3s2.1,4.2.7,7.7c0,0,.4-5.3-1.2-7.4l-2,1.7s2.1,4.1.8,7c0,0-.1-6.2-1.2-6.7a14.3,14.3,0,0,0-2,2.3s1.4,3,.5,4.6c0,0-.5-4.1-.9-4.1a13.2,13.2,0,0,0-1.9,4.6,9.7,9.7,0,0,1,1.5-4.9,4.9,4.9,0,0,0-2.7,1.5s.3-1.9,3.1-2.1a12.4,12.4,0,0,1,1.8-2.2,13.8,13.8,0,0,0-4.5.5s1.5-1.8,5.1-.9l1.9-1.7s-3.7-.5-5.3,0c0,0,1.9-1.6,5.9-.4l2.1-1.3a16.7,16.7,0,0,0-5-.5s1.9-1.1,5.6.1l1.6-.7-3-.6c-.7,0-.7-.2-.7-.2a7.2,7.2,0,0,1,4.3.5S155,503.3,155,503Z"/>
      <ellipse id="Ellipse_748" data-name="Ellipse 748" class="cls-11" cx="143.7" cy="520" rx="13.2" ry="2.3"/>
      <path id="Path_194029" data-name="Path 194029" class="cls-10" d="M191.5,499.7s-22.5-1.4-19.8,14.9a4,4,0,0,0,2,4.2s0-1.2,2.3-.8a9.7,9.7,0,0,0,2.4.1,4.8,4.8,0,0,0,3-1.3h0s6.3-2.7,8.8-13.4c0,0,1.8-2.3,1.7-2.9l-3.8,1.7s1.3,2.8.3,5.2c0,0-.1-5.1-.9-5l-1.9.9s2.2,5,.5,8.6c0,0,.7-6.1-1.2-8.2l-2.7,1.6s2.6,5.1.8,9.3c0,0,.5-6.4-1.4-8.9l-2.4,2s2.5,5,.9,8.4c0,0-.1-7.4-1.4-7.9a12.7,12.7,0,0,0-2.5,2.7s1.7,3.6.7,5.5c0,0-.7-4.9-1.2-4.9s-2.1,3.3-2.3,5.5a11.7,11.7,0,0,1,1.8-5.8,5.9,5.9,0,0,0-3.2,1.7s.3-2.3,3.7-2.5a19.9,19.9,0,0,1,2.2-2.7,14.1,14.1,0,0,0-5.4.7s1.8-2.2,6-1.2l2.4-2s-4.4-.7-6.4,0c0,0,2.2-1.9,7-.5l2.7-1.6a24.7,24.7,0,0,0-6.1-.5s2.4-1.4,6.9.1l1.8-.9a32.9,32.9,0,0,0-3.6-.6c-.8-.1-.9-.4-.9-.4a9.2,9.2,0,0,1,5.2.6S191.6,500,191.5,499.7Z"/>
      <ellipse id="Ellipse_749" data-name="Ellipse 749" class="cls-11" cx="176" cy="520.2" rx="15.9" ry="2.8"/>
    </g>
  </g>
  <rect id="Rectangle_7193" data-name="Rectangle 7193" class="cls-10" x="12.6" y="523" width="681.1" height="5"/>
  <g id="Group_13534" data-name="Group 13534">
    <g id="Group_11974" data-name="Group 11974">
      <path id="Path_197872" data-name="Path 197872" class="cls-12" d="M345.7,282.5c-1.8,1.2-8.4.8-8.4.8s-1.5,7.4-.3,10.2a41.9,41.9,0,0,1,8.6.9c1.9.8.1-11.9.1-11.9"/>
    </g>
    <g id="Group_11980" data-name="Group 11980">
      <path id="Path_197875" data-name="Path 197875" class="cls-12" d="M343.9,283.7c2.6-1.1,5.5-5.4,7.1-5.2a15,15,0,0,1,3.4,1.1,8.5,8.5,0,0,1,3.4,1.1c1.2.7,3.1,1.8,3,2.3s-3.3,2-7.2.2A15.1,15.1,0,0,1,351,285s.6,4.5-6,6.5c0,0-4.1-5-1.1-7.8"/>
    </g>
    <g id="Group_11982" data-name="Group 11982">
      <path id="Path_197877" data-name="Path 197877" class="cls-13" d="M336.5,282.4h3.3s.3,9.6-.6,12.3a9.7,9.7,0,0,1-3.7-.7c-1-.7,1-11.6,1-11.6"/>
    </g>
    <g id="Group_11983" data-name="Group 11983">
      <path id="Path_197878" data-name="Path 197878" class="cls-14" d="M336,295.2s2-10.3,1.1-14.3c0,0-29.8-5.4-36.5-8.3,0,0-15.1-25.8-21.4-33.7s-13.6-16-22-9.8,2.9,23.8,16.2,38.6,19.5,20.5,23.1,21.7,39.5,5.8,39.5,5.8"/>
    </g>
    <g id="Group_11984" data-name="Group 11984">
      <path id="Path_197879" data-name="Path 197879" class="cls-15" d="M337,288.7c-3.4-.4-36.1-4.4-39.2-5.2-4.8-1.3-31.2-25.3-38.9-35.1a124.8,124.8,0,0,0,14.5,19.3c13.4,14.7,19.5,20.5,23.1,21.7s39.5,5.8,39.5,5.8a46.3,46.3,0,0,1,1-6.5"/>
    </g>
    <g id="Group_12000" data-name="Group 12000">
      <path id="Path_197892" data-name="Path 197892" class="cls-12" d="M264.5,383.8c1.2,4.8,4.2,24.4,2.2,27.4s-6.8,16.1-4.4,37.4,2.7,33.4,1.9,38.7-3.3,10.8-2.6,14.3,17.3,15.8,28.6,13.2a53.1,53.1,0,0,1-11.6-12.9c-6.7-9.5-2-34.7-.8-44.5s11-41.5,10.1-48.6-1-12.5-2.5-45.4Z"/>
    </g>
    <g id="Group_12001" data-name="Group 12001">
      <path id="Path_197893" data-name="Path 197893" class="cls-16" d="M262.1,495.8a18.2,18.2,0,0,0-2.1,13.5,75.2,75.2,0,0,1,1.7,12.5,4.2,4.2,0,0,0,3.9,4.2H288c7.5,0,10.7-3.1,9.3-6.4s-5-4.4-7.8-5.8c0,0-11.6,5.3-27.4-18"/>
    </g>
    <g id="Group_12002" data-name="Group 12002">
      <path id="Path_197894" data-name="Path 197894" class="cls-15" d="M258.2,365.6c5.3,20.9,8.5,32.8,6.4,37.6s-6.1,19.4-6.4,57.3c0,9.7-2.2,24.1-1.2,36.3a33.4,33.4,0,0,0,24.1,3.7s-1.6-54.8,3.6-72.4,6.8-39.5,5.7-65.7c-.4-9.9.2-28.2-5.4-26.8-9.4,2.2-26.8,30-26.8,30"/>
    </g>
    <g id="Group_12003" data-name="Group 12003">
      <path id="Path_197895" data-name="Path 197895" class="cls-12" d="M253.7,372.3c-.1,5,.5,31.5-2.1,33.9s-10.8,13.6-13.9,35.1-5.5,34.4-7.5,38.9-6.6,9.1-6.8,12.7,12.9,20.9,24.5,21.9a115.2,115.2,0,0,1-6.4-14.9c-4.1-11.4,5.4-35.9,9-45.1s21.9-39,22.8-46.2,7.4-34.3,7.4-34.3Z"/>
    </g>
    <g id="Group_12004" data-name="Group 12004">
      <path id="Path_197896" data-name="Path 197896" class="cls-16" d="M225.4,487.4a18.7,18.7,0,0,0-5.7,12.6,68.8,68.8,0,0,1-1.5,12.8,4.3,4.3,0,0,0,2.7,5.1l22,7.1c7.3,2.4,11.3.3,10.7-3.3s-3.7-5.9-6.2-8.1c0,0-12.7,1.5-22-26.2"/>
    </g>
    <g id="Group_12005" data-name="Group 12005">
      <path id="Path_197897" data-name="Path 197897" class="cls-14" d="M250.5,338.6c.5,21.7,2.6,61-1.8,67.6-7.1,10.5-8.7,18.1-18.7,59.3-1.5,6-6.5,18.1-8.2,25.4a34.7,34.7,0,0,0,22.5,10.2S255.9,449,265,433.4s13.5-38,18.4-63.7c1.1-5.8,4.7-25.9,2.4-29.8-8-13.3-35.3-1.3-35.3-1.3"/>
    </g>
    <g id="Group_12006" data-name="Group 12006">
      <path id="Path_197898" data-name="Path 197898" class="cls-12" d="M284,173.7a14.9,14.9,0,0,1,4.5,8.9c.5,3.5.2,3.7-.2,4.9s1,3.5,2,4.7,3.3,3.1,1.2,4.4-1.6,2.4-.8,3.1-.4,1.7-.7,2,1.2,1.1.5,1.9-1.6.8-1.6,1.5.9,3.6-.4,4.6-4.6.5-6.3.4a9.3,9.3,0,0,0-5.9,2.5c-.9.9.4,2.5-.3,3.3-3.7,3.9-8.2,5-13.8-2.7-2.2-2.9.9-10.5,1.1-10.7l11.9-18.6Z"/>
    </g>
    <g id="Group_12007" data-name="Group 12007">
      <path id="Path_197899" data-name="Path 197899" class="cls-12" d="M255.1,206.4s6.6,1.9,6.4,4.9c-.4,5.2-3.2,13.9-4.7,14.1s30,18.1,25.6,10.5c-3.4-6-2.7-8.1-5.1-15-.3-1.1-2.1-3.2-1.3-5.1,4.9-12.6,8.5-36.6,8.5-36.6l-9.4-5.5s-24.5,13.5-23.9,13.6,3.9,19.1,3.9,19.1"/>
    </g>
    <g id="Group_12008" data-name="Group 12008">
      <path id="Path_197900" data-name="Path 197900" class="cls-16" d="M285.2,174.9c-.2-2.9-6.9-10.9-16.8-11.4s-16.4,5.2-20.2,17a27.2,27.2,0,0,0-.3,13.3c1.6,5.4,6.4,11.6,10.1,15.5a15.7,15.7,0,0,1,3.1,4.9c1.8-.3,8-9.7,7.7-13.1-.1-.6-2.2,2.5-2.5-.3a7.3,7.3,0,0,0-2.7-5,4.5,4.5,0,0,1-.3-4.5,3.4,3.4,0,0,1,5-1.3h0l1.7,2s2.9-1.8,3.2-3.6-.1-4.9,1.7-5.7a20.1,20.1,0,0,0,6.9-4,20.5,20.5,0,0,0,3.4-3.8"/>
    </g>
    <g id="Group_12009" data-name="Group 12009">
      <path id="Path_197901" data-name="Path 197901" class="cls-12" d="M282.2,210.1s-8,.4-4.2,12.4-15.5-2.5-15.5-2.5l11.6-13.9Z"/>
    </g>
    <g id="Group_12014" data-name="Group 12014" class="cls-17">
      <g id="Group_12013" data-name="Group 12013">
        <g class="cls-18">
          <g id="Group_12012" data-name="Group 12012">
            <g id="Group_12011" data-name="Group 12011">
              <path id="Path_197903" data-name="Path 197903" class="cls-12" d="M271.5,203.3c-.7,5.3,6.1,10.2,6.1,10.2a5.6,5.6,0,0,1,4.4-3.4h1.5c-11.4-.8-12-6.2-12-6.9"/>
            </g>
          </g>
        </g>
      </g>
    </g>
    <g id="Group_12015" data-name="Group 12015">
      <path id="Path_197904" data-name="Path 197904" class="cls-16" d="M252.6,173.8c-.8-5.2-3.2-8.4-7.3-7.3s-8.6,3.8-9.2,12,8.7,13.7,12.5,8.1a26.1,26.1,0,0,0,4-12.8"/>
    </g>
    <g class="cls-19">
      <g id="Group_13537" data-name="Group 13537">
        <g id="Group_13536" data-name="Group 13536">
          <path id="Path_198402" data-name="Path 198402" class="cls-20" d="M24.6-97.8l656.4.4-.4,725-656.4-.3Z"/>
        </g>
      </g>
    </g>
    <g id="Group_13538" data-name="Group 13538">
      <path id="Path_197908" data-name="Path 197908" class="cls-13" d="M259.5,218.5l1-5.6s12.4,4.9,15.8,7.7a10,10,0,0,1,3.1,7.7Z"/>
    </g>
    <g id="Group_13539" data-name="Group 13539">
      <path id="Path_197909" data-name="Path 197909" class="cls-21" d="M249.8,306.5c-.4,8.9-2.7,31.8-3.4,41.5.1,0,10.5,4.5,45.6,2.9v-6.8c0-20.9-.5-55.1-.4-60.5.8-41.9-12.2-55.3-12.2-55.3l-18.7-10.8s-15.2,9.6-14.6,41c.3,11.7,4.6,25.1,3.7,48"/>
    </g>
    <g id="Group_13540" data-name="Group 13540">
      <path id="Path_197910" data-name="Path 197910" class="cls-14" d="M246.4,348c.1,0,10.5,4.5,45.6,2.9V333.6l-24.2-4.4s-6.2-54.1-3.2-65.7a174.9,174.9,0,0,0-18.2-.8c.9,10.7,4.2,23.5,3.4,43.8-.4,8.9-2.7,31.8-3.4,41.5"/>
    </g>
    <g id="Group_13541" data-name="Group 13541">
      <path id="Path_197911" data-name="Path 197911" class="cls-22" d="M275.8,372.2l-42.9-6.9a1.7,1.7,0,0,1-1.2-1.9l4.3-32.3a1.6,1.6,0,0,1,1.7-1.4h0l42.8,7a1.6,1.6,0,0,1,1.3,1.8l-4.3,32.3c-.2.9-.9,1.6-1.7,1.4h0"/>
    </g>
    <g id="Group_13542" data-name="Group 13542">
      <path id="Path_197912" data-name="Path 197912" class="cls-23" d="M280.5,336.7l-42.8-7a1.6,1.6,0,0,0-1.7,1.4h0L234.4,343a1.5,1.5,0,0,0,1.3,1.8l42.8,7a1.6,1.6,0,0,0,1.7-1.4h0l1.6-11.8a1.7,1.7,0,0,0-1.3-1.9h0"/>
    </g>
    <g id="Group_13543" data-name="Group 13543">
      <path id="Path_197913" data-name="Path 197913" class="cls-12" d="M258.3,220.6c-11.1,6.6-13,28.7-15.2,55.4s-2.4,26.4.2,39,9.5,37.2,8.7,41.4-1.4,11.7,3,14.1c5.9,3.1,13.6,1.6,12.4.2s-4.2-4.9-4.4-6.9,5.1,5.9,6,3.9a13,13,0,0,0-1.6-3.1,28.9,28.9,0,0,0-3.5-5.8,11.9,11.9,0,0,1-5-7.9c-.9-3.9-2.4-39.8-3.8-48.1l12.7-52.7s6.3-18.7-9.5-29.5"/>
    </g>
    <g id="Group_13544" data-name="Group 13544">
      <path id="Path_197914" data-name="Path 197914" class="cls-13" d="M249.2,350.8v2.5s9.5.5,12-1.3l-.8-3.4Z"/>
    </g>
    <g id="Group_13545" data-name="Group 13545">
      <path id="Path_197915" data-name="Path 197915" class="cls-21" d="M248.3,351s8.5.6,13.4-1.4c0,0-3.5-41.2-5.9-49.6,0,0,12.8-46.6,13.6-56.5s-5-23.1-9.9-25c0,0-10.8,3.6-15.7,30.8s-5.8,46.2-5.5,49.2,10,52.5,10,52.5"/>
    </g>
  </g>
  <g>
    <g id="Group_11975" data-name="Group 11975">
      <path id="Path_197873" data-name="Path 197873" class="cls-12" d="M353.9,299.7a3.4,3.4,0,0,1-3.1-.1s-3,.7-3.3-1.4c0,0-2.3.4-2.4-2.5,0,0-1.5-1-1.3-2.1s.8-1.6,2.5-2.2,7.2-9.5,8-10.3a18.8,18.8,0,0,1,5.5-2.7c1.2-.4,6.5,3.8,13.6,3.5,0,0,2.7,2.9,1.5,9.3,0,0-5.8-.1-8.7,3.9s-12.3,4.6-12.3,4.6"/>
    </g>
    <g id="Group_11979" data-name="Group 11979" class="cls-24">
      <g id="Group_11978" data-name="Group 11978">
        <g class="cls-25">
          <g id="Group_11977" data-name="Group 11977">
            <g id="Group_11976" data-name="Group 11976">
              <path id="Path_197874" data-name="Path 197874" class="cls-12" d="M353.9,299.7a3.4,3.4,0,0,1-3.1-.1s-3,.7-3.3-1.4c0,0-2.3.4-2.4-2.5,0,0-1.5-1-1.3-2.1s.8-1.6,2.5-2.2,7.2-9.5,8-10.3a18.8,18.8,0,0,1,5.5-2.7c1.2-.4,6.5,3.8,13.6,3.5,0,0,2.7,2.9,1.5,9.3,0,0-5.8-.1-8.7,3.9s-12.3,4.6-12.3,4.6"/>
            </g>
          </g>
        </g>
      </g>
    </g>
    <g id="Group_11981" data-name="Group 11981">
      <path id="Path_197876" data-name="Path 197876" class="cls-12" d="M353.1,300.6c-1-.3-1-1.5.2-3s2.8-4.8,4.7-3.7c0,0,1.3-2.8,3.2-2.4,0,0,1.6-3.6,3.9-1.3,0,0,1.7-1.1,2.3.2s-1.6,5.6-2.4,6.9a4.3,4.3,0,0,1-2.9,1.6s-.7,1.2-3.4.9a2.5,2.5,0,0,1-3.3.5,3.1,3.1,0,0,1-2.3.3"/>
    </g>
    <g id="Group_11985" data-name="Group 11985">
      <path id="Path_197880" data-name="Path 197880" class="cls-13" d="M373.2,277.1l-4.2,1.6s3,12.1,5.4,15l5.7-2.2Z"/>
    </g>
    <g id="Group_11986" data-name="Group 11986">
      <path id="Path_197881" data-name="Path 197881" class="cls-16" d="M434.3,502.3c2,2,19.4-1.2,20.1,1.1s2.1,8.8.8,12.3c0,0,.8.8.2,2.7s-5,2.4-10.7,2.6-39.3,4.4-41.2-1.9c-.7-2.2-1.7-6.9,2.5-6.4s13.7-2,15.9-3.3,7-3.5,8.9-5.4,2.7-2.5,3.5-1.7"/>
    </g>
    <g id="Group_11987" data-name="Group 11987">
      <path id="Path_197882" data-name="Path 197882" class="cls-16" d="M466,505.7c1.9,2.1,19-.7,19.8,1.8s2.3,9.1,1.1,12.7a3.1,3.1,0,0,1,.2,2.8c-.6,1.8-4.8,2.4-10.4,2.4s-38.9,2.8-40.7-3.3c-.7-2.3-1.9-7.1,2.3-6.5s13.5-1.7,15.7-3,6.7-3.4,8.6-5.3,2.6-2.4,3.4-1.6"/>
    </g>
    <g id="Group_11988" data-name="Group 11988">
      <path id="Path_197883" data-name="Path 197883" class="cls-15" d="M463.2,312.9c.1,12.2-4.4,38.2-4.7,41.1a437.5,437.5,0,0,0-.3,45.8c1,22.1-.4,84.7-1.8,105.4,0,0-8.8,3.7-25.7-1.8,0,0,4.4-64.8,1.3-83.4s-7-90-7.5-108.1Z"/>
    </g>
    <g id="Group_11989" data-name="Group 11989">
      <path id="Path_197884" data-name="Path 197884" class="cls-14" d="M469.9,317c5.6,18.5,1.1,32.6,1.1,35.6s2.4,29.1,6,50.7,8.7,84,9.8,104.7c0,0-8,2.5-25.5,0,0,0-2.4-62.4-7.8-80.2s-21.3-98.1-24-115.9Z"/>
    </g>
    <g id="Group_11990" data-name="Group 11990">
      <path id="Path_197885" data-name="Path 197885" class="cls-12" d="M416.6,178.5c1-1.3,2.8-3.7,1.9-5.8s-.8-.9.2-4.6c1.8-6.8,8-9.1,9.1-10.3l.6,1.3c1.7-3.1,3.7-5.6,6.4-6.1,6-1.1,14.8,5.1,18.6,9.4s-.3,12.7-4.7,21.3c-3.2,6.2-.3,11.6.3,13.3-1.3.5-14.3,13.9-14.3,13.9-1-2.1-1.8-4.2-2.6-6.4s-.9-.9-1.4-1.9-.4-3.1-.9-4l-.3-.5a13.9,13.9,0,0,0-3.5-.4c-1.9.1-5.6.9-7-.3s-.5-4.3-.6-5.1-1-.8-1.8-1.6.5-2.2.5-2.2-1.5-1.6-.8-2.2,1.9-1.7-.7-3.2-.6-2.6,1-4.6"/>
    </g>
    <g id="Group_11991" data-name="Group 11991">
      <path id="Path_197886" data-name="Path 197886" class="cls-16" d="M456.5,166.5c-2.6-8.7-8.2-17.3-17.6-17.6s-18.1,5.2-19.2.7c0,0-.1,7.5,2.8,12.1,1-1.8,12.7,9.9,14.6,15.8,1,2.9.4-7.5,5.9-5.5s2,8.5.7,11.9S447,191,447,191v2.3l5.2-6.2s7-11.9,4.4-20.6"/>
    </g>
    <g id="Group_11992" data-name="Group 11992">
      <path id="Path_197887" data-name="Path 197887" class="cls-21" d="M450.5,193.3a11.7,11.7,0,0,0,.7,1.5c5.9,3,16.8,16.1,17.1,30.8.2,7.9-.3,26.5.4,46.1a224.2,224.2,0,0,0,3.5,34.6c1.4,7.6,3.9,25.8,3.9,25.8s-10.4,6.5-32,6.5c-17.8,0-20.8-1.9-20.8-1.9s-2.6-56.9-2.6-70c0-25.8,1.5-33.7,9-50,.9-1.9,20.3-24.5,20.8-23.4"/>
    </g>
    <g id="Group_11996" data-name="Group 11996" class="cls-17">
      <g id="Group_11995" data-name="Group 11995">
        <g class="cls-26">
          <g id="Group_11994" data-name="Group 11994">
            <g id="Group_11993" data-name="Group 11993">
              <path id="Path_197888" data-name="Path 197888" class="cls-12" d="M441.9,185.5s1.6,8.4-11.8,14.4a2.8,2.8,0,0,0-.3-1.3l-.3-.5a13.4,13.4,0,0,0-3.5-.4s15-3.9,15.9-12.2"/>
            </g>
          </g>
        </g>
      </g>
    </g>
    <g id="Group_11997" data-name="Group 11997">
      <path id="Path_197889" data-name="Path 197889" class="cls-14" d="M420.8,273.8c.1,4.7.3,10.8.6,17.4,8.3-9.2,30.9-35.3,38.8-56.1,3.9-10.4-25.3,22.1-39.4,38.7"/>
    </g>
    <g id="Group_11998" data-name="Group 11998">
      <path id="Path_197890" data-name="Path 197890" class="cls-21" d="M454.5,199.9c-4.9,1-17.1,9.8-22.4,23.6-4.1,10.5-19.2,34.4-19.2,34.4l-41,18.3a52.6,52.6,0,0,0,5.7,17.3s37-11.4,41.8-12.4,43.2-48.4,43.2-48.4Z"/>
    </g>
    <g id="Group_11999" data-name="Group 11999">
      <path id="Path_197891" data-name="Path 197891" class="cls-13" d="M449.2,190.5s-13.6,5.8-18.7,18.3c-.4.9.1,6-.8,7.9a117.9,117.9,0,0,0-4.8,11.6,119.1,119.1,0,0,1,12-19.7,81.2,81.2,0,0,1,14.3-13.8s-1.7-3.8-2-4.3"/>
    </g>
  </g>
</svg>
