<svg id="Layer_1" data-name="Layer 1" xmlns="http://www.w3.org/2000/svg" viewBox="0 0 440.4 358.96">
  <defs>
    <style>
      .cls-1 {
        fill: #cfefff;
      }

      .cls-2 {
        fill: #3880a3;
      }

      .cls-18, .cls-3, .cls-5 {
        fill: none;
        stroke-miterlimit: 10;
      }

      .cls-3 {
        stroke: #2b627d;
      }

      .cls-4 {
        fill: #49a8d6;
      }

      .cls-5 {
        stroke: #3880a3;
      }

      .cls-6 {
        fill: #963815;
      }

      .cls-7 {
        fill: #ffa320;
      }

      .cls-8 {
        fill: #ffb780;
      }

      .cls-9 {
        opacity: 0.2;
      }

      .cls-16, .cls-9 {
        isolation: isolate;
      }

      .cls-10 {
        fill: #fff;
      }

      .cls-11 {
        fill: #003d57;
      }

      .cls-12 {
        opacity: 0.36;
      }

      .cls-13 {
        fill: #005479;
      }

      .cls-14 {
        fill: #411809;
      }

      .cls-15 {
        fill: #ffb939;
      }

      .cls-16 {
        opacity: 0.1;
      }

      .cls-17 {
        fill: #003f65;
      }

      .cls-18 {
        stroke: #fff;
        stroke-width: 0.25px;
      }
    </style>
  </defs>
  <title>1-Teams</title>
  <g id="Group_5943" data-name="Group 5943">
    <path id="Path_186835" data-name="Path 186835" class="cls-1" d="M117.14,358.82a60,60,0,0,1-34.68-18.21c-10.7-11.21-10.67-18.91-9.63-23.54,2.3-10.19,33.32-6.75,38.74-22.86,3.56-10.59-8.26-16.84-9.92-36.07-1.48-17.12,5.69-37.52,17.86-45.44,17.33-11.27,40.72,5.36,61.3,13.21,89.73,34.23,171.34-81.23,229.9-43.77,20.75,13.26,37,44.7,32.7,69.3-4.27,24.42-28.65,41.19-22.86,51.74,3.91,7.12,16.09,1.45,25.39,10.51,9.73,9.48,9.87,28.81,6.19,37.7-9.52,22.93-53.63,4.55-145.14,9.12-57.84,2.88-84.57,13.41-146.13,2.85C151.47,361.75,135.28,361.52,117.14,358.82Z" transform="translate(-30.6 -9)"/>
    <g id="Group_5762" data-name="Group 5762">
      <path id="Path_186836" data-name="Path 186836" class="cls-2" d="M144.38,335.47c-6.44-20.94-13.93-39-20.83-38.45-5.44.45-7.35,12.22-11.94,12-8.15-.47-8.53-38-18-39.41-5-.75-7.17,16.38-14.32,16.74-5.91.3-7.24-10.9-19.14-19.1C53.28,262.45,41,257.46,35,262.1c-6.67,5.09-5.43,21.42,1.95,32,11.38,16.35,35.36,16.2,35,22.55-.27,5.43-17.95,7-18.38,14.12-.22,3.63,4.12,6.62,5.26,7.4,14.81,10.16,40.89-4.46,42.06-1.72.28.65-1,2-9.31,7.9-13.54,9.61-17.11,11-16.83,12.8.56,3.72,16.78,6.57,31.79,3.31C125.6,356.34,138.1,343.34,144.38,335.47Z" transform="translate(-30.6 -9)"/>
      <path id="Path_186837" data-name="Path 186837" class="cls-3" d="M139.31,335.91s-39.52-4.24-96.81-62.58" transform="translate(-30.6 -9)"/>
    </g>
    <g id="Group_5763" data-name="Group 5763">
      <path id="Path_186838" data-name="Path 186838" class="cls-4" d="M268.19,355.25c-15.53-15.53-28-30.65-24.29-36.5,2.95-4.6,14.28-.77,16.2-5,3.4-7.45-29.68-25.4-26.49-34.41,1.7-4.79,17.88,1.33,21.56-4.84,3-5.08-6.26-11.52-7.94-25.91-1-8.34.34-21.53,7.3-24.74,7.64-3.52,21.52,5.24,27.46,16.75,9.14,17.75-2.24,38.93,3.53,41.62,4.94,2.3,14.59-12.64,21.13-9.67,3.33,1.51,3.93,6.77,4.09,8.14,2.06,17.89-23.13,34.13-21.25,36.45.44.56,2.2.07,11.36-4.54,14.87-7.48,17.76-10,19.24-8.9,3,2.24-2,17.94-12,29.71C295.49,348.4,278.1,353.38,268.19,355.25Z" transform="translate(-30.6 -9)"/>
      <path id="Path_186839" data-name="Path 186839" class="cls-5" d="M271,351s14.78-37-10-115.12" transform="translate(-30.6 -9)"/>
    </g>
    <g id="Group_5764" data-name="Group 5764">
      <path id="Path_186840" data-name="Path 186840" class="cls-4" d="M362.55,336.86c-.79-21.95.35-41.54,7.07-43.27,5.3-1.36,11,9.16,15.24,7.4,7.57-3.13-4.43-38.81,4.05-43.24,4.5-2.35,12.18,13.16,19.06,11.15,5.69-1.66,3.28-12.7,11.84-24.38,5-6.78,14.92-15.53,22.21-13.14,8,2.62,12.19,18.49,8.69,31-5.39,19.23-28.15,27-25.76,32.88,2.05,5,19.29.68,22.06,7.32,1.4,3.37-1.73,7.62-2.55,8.74-10.67,14.5-40.18,9.24-40.39,12.21-.05.71,1.56,1.55,11.41,4.42,16,4.64,19.82,4.76,20.16,6.58.69,3.71-13.73,11.75-29,13.6C387.21,350.44,371.09,342.24,362.55,336.86Z" transform="translate(-30.6 -9)"/>
      <path id="Path_186841" data-name="Path 186841" class="cls-5" d="M367.51,335.61s36-17,71.06-91.13" transform="translate(-30.6 -9)"/>
    </g>
    <g id="Group_5765" data-name="Group 5765">
      <path id="Path_186842" data-name="Path 186842" class="cls-2" d="M279.25,354.85c-4.81-15.29-7.8-29.3-3.4-31.82,3.47-2,9.5,4.32,12.16,2.25,4.71-3.67-10.64-26.45-5.53-31.2,2.72-2.53,11.12,6.89,15.58,4.14,3.68-2.27-.16-9.57,3.61-19.45,2.18-5.73,7.49-13.82,13.08-13.55,6.13.3,12.16,10.66,12.11,20.11-.07,14.58-14.58,24.44-11.76,28.13,2.42,3.15,13.71-3.25,16.94.88,1.65,2.1.27,5.7-.1,6.64-4.7,12.27-26.49,14.29-26.06,16.43.1.5,1.4.78,8.89.89,12.15.17,14.87-.48,15.46.73,1.21,2.48-7.39,10.92-17.78,15.19C299.24,359.63,286.3,357,279.25,354.85Z" transform="translate(-30.6 -9)"/>
      <path id="Path_186843" data-name="Path 186843" class="cls-3" d="M282.5,353s22.05-19,32.36-77.89" transform="translate(-30.6 -9)"/>
    </g>
    <g id="Group_5766" data-name="Group 5766">
      <path id="Path_186844" data-name="Path 186844" class="cls-4" d="M190.11,333.05c.73-30-1.13-56.76-10.35-59-7.26-1.77-14.86,12.69-20.71,10.35-10.38-4.15,5.44-53.09-6.21-59-6.2-3.14-16.44,18.17-25.88,15.53-7.8-2.18-4.67-17.3-16.57-33.12-6.89-9.18-20.63-21-30.54-17.6C69,193.9,63.49,215.65,68.46,232.63c7.68,26.19,38.9,36.43,35.72,44.52-2.72,6.93-26.34,1.24-30,10.35-1.87,4.63,2.48,10.4,3.63,11.91,14.81,19.64,55.05,12,55.38,16,.08,1-2.11,2.15-15.53,6.21-21.77,6.61-27,6.83-27.43,9.32-.89,5.09,18.94,15.83,39.86,18.12C156.63,352,178.53,340.55,190.11,333.05Z" transform="translate(-30.6 -9)"/>
      <path id="Path_186845" data-name="Path 186845" class="cls-5" d="M183.33,331.42S133.83,308.73,84.77,208" transform="translate(-30.6 -9)"/>
    </g>
  </g>
  <path id="Path_186998" data-name="Path 186998" class="cls-1" d="M111.5,28c-10-9.08-17.87-4.3-22-1.92-5.37,3.09-9,11.16-14.43,12.2-4.6.87-7.49-4.18-12.43-2.89-3.2.83-2.49,3.52-6.06,5.49-5.31,2.91-9.43-1.09-14.17,1.73-2.94,1.76-5.32,5.67-4.33,7.8,1.52,3.28,10.44,1,24.27.29C75.48,50,72.86,51.79,93,51.89c25.31.12,24.77-2.66,37.28-.58,7.11,1.18,12.56,3,14.16.58s-1.14-8.71-5.78-11c-5.61-2.75-9.4,2.59-18.5,1.73C115.89,42.23,118.69,34.53,111.5,28Z" transform="translate(-30.6 -9)"/>
  <path id="Path_186999" data-name="Path 186999" class="cls-1" d="M379.75,13.8c-9.06-8.2-16.13-3.87-19.86-1.73-4.84,2.8-8.09,10.08-13,11-4.15.79-6.76-3.77-11.22-2.61-2.89.75-2.25,3.18-5.48,4.95-4.8,2.64-8.52-1-12.79,1.57-2.66,1.59-4.81,5.12-3.92,7,1.38,3,9.43.92,21.93.26,11.85-.63,9.48.95,27.67,1,22.86.11,22.37-2.4,33.67-.52,6.42,1.07,11.35,2.67,12.79.52s-1-7.87-5.22-9.92c-5.07-2.48-8.49,2.35-16.7,1.57C383.73,26.64,386.25,19.68,379.75,13.8Z" transform="translate(-30.6 -9)"/>
  <path id="Path_187000" data-name="Path 187000" class="cls-1" d="M450.81,96.68c-6.07-5.49-10.79-2.6-13.29-1.16-3.24,1.87-5.41,6.74-8.71,7.37-2.78.53-4.53-2.52-7.51-1.75-1.94.51-1.51,2.13-3.67,3.32-3.2,1.76-5.69-.66-8.55,1.05-1.78,1.06-3.22,3.43-2.62,4.71.92,2,6.31.62,14.67.18,7.92-.42,6.34.63,18.5.7,15.3.07,15-1.61,22.53-.35,4.29.71,7.59,1.78,8.55.35s-.69-5.27-3.49-6.64c-3.39-1.66-5.68,1.57-11.17,1C453.47,105.26,455.16,100.61,450.81,96.68Z" transform="translate(-30.6 -9)"/>
  <path id="Path_187001" data-name="Path 187001" class="cls-1" d="M135,126c-6-5.4-10.62-2.56-13.08-1.14-3.19,1.84-5.33,6.63-8.58,7.25-2.73.52-4.45-2.48-7.39-1.72-1.9.5-1.48,2.1-3.61,3.27-3.16,1.73-5.61-.65-8.42,1-1.75,1-3.17,3.37-2.58,4.64.91,1.95,6.21.61,14.44.17,7.8-.41,6.24.63,18.22.69,15.06.07,14.73-1.58,22.17-.34,4.23.7,7.48,1.76,8.43.34s-.68-5.18-3.44-6.54c-3.34-1.63-5.59,1.55-11,1C137.61,134.4,139.28,129.82,135,126Z" transform="translate(-30.6 -9)"/>
  <path id="Path_187002" data-name="Path 187002" class="cls-6" d="M355.66,111.6c8.28-1.23,14.94,9.08,18.43,16.53,2.27,4.86,7.74,20.65,6.05,32.28-1.49,10.27,1.76,12.84,6.55,27,3.82,11.28-1.92,16.8-7.48,20.39-9.94,6.42-39.69,4-48.77-11.36-7.49-12.67,6-39.13,8.61-44.2,3.55-7,12.62-22.43,7.41-29.38-.78-1.05-2.22-2.33-2.07-4.15C344.67,115.08,351,112.28,355.66,111.6Z" transform="translate(-30.6 -9)"/>
  <g id="Group_5831" data-name="Group 5831">
    <g id="Group_5820" data-name="Group 5820">
      <path id="Path_187003" data-name="Path 187003" class="cls-7" d="M221.13,151.15s7.7-2.25,12.81,13a144.24,144.24,0,0,0,17.46,34.47l37.8,5.47L285,216.72s-46.15.5-50.62-8.37S200.71,159.9,221.13,151.15Z" transform="translate(-30.6 -9)"/>
      <g id="Group_5818" data-name="Group 5818">
        <path id="Path_187004" data-name="Path 187004" class="cls-8" d="M301.75,206.61,294.66,209l-7.06,2.09a1.42,1.42,0,1,0,.77,2.73h0l7.17,5.72a2.63,2.63,0,0,0,2.28.49l4.62-1.18c2-.25,4.16-2.93,4.16-2.93l.62-7.18Z" transform="translate(-30.6 -9)"/>
        <path id="Path_187005" data-name="Path 187005" class="cls-9" d="M298.53,207.81l-3.24,1L301,209Z" transform="translate(-30.6 -9)"/>
        <path id="Path_187006" data-name="Path 187006" class="cls-8" d="M308.88,209.08l-6.81-3.28a5.71,5.71,0,0,0-2.84-.66l-9.52.17Z" transform="translate(-30.6 -9)"/>
        <path id="Path_187007" data-name="Path 187007" class="cls-8" d="M294.83,204.23a6.44,6.44,0,0,1,3.06.56c2.86,1.31,6.91,3.16,6.56,3.83-.76,1.45-2.91,1.17-6.31-.66L286,211.83l3.79-7.52Z" transform="translate(-30.6 -9)"/>
      </g>
      <path id="Path_187008" data-name="Path 187008" class="cls-10" d="M290.64,203.05l-5.06-1-5.68,15.48H285Z" transform="translate(-30.6 -9)"/>
      <g id="Group_5819" data-name="Group 5819">
        <path id="Path_187009" data-name="Path 187009" class="cls-8" d="M302.48,217.91l-.29-1.24a1.39,1.39,0,0,1,1.16-1.57h0a1.38,1.38,0,0,1,1.75.87l.3,1.24a1.4,1.4,0,0,1-1.17,1.58h0A1.39,1.39,0,0,1,302.48,217.91Z" transform="translate(-30.6 -9)"/>
        <path id="Path_187010" data-name="Path 187010" class="cls-8" d="M299.83,219.36l-.29-1.24a1.4,1.4,0,0,1,1.16-1.58h0a1.41,1.41,0,0,1,1.76.88l.28,1.24a1.38,1.38,0,0,1-1.16,1.57h0A1.39,1.39,0,0,1,299.83,219.36Z" transform="translate(-30.6 -9)"/>
        <path id="Path_187011" data-name="Path 187011" class="cls-8" d="M297,220.22l-.09-.47a1.33,1.33,0,0,1,1-1.61l.33-.08a1.33,1.33,0,0,1,1.6,1l.06.33a1.35,1.35,0,0,1-1,1.61l-.47.11A1.17,1.17,0,0,1,297,220.22Z" transform="translate(-30.6 -9)"/>
      </g>
    </g>
    <g id="Group_5823" data-name="Group 5823">
      <g id="Group_5822" data-name="Group 5822">
        <path id="Path_187012" data-name="Path 187012" class="cls-11" d="M244.13,347S262,356.88,267.9,357s1.53,2.6-4.88,3.2c-5.08.47-15.24-1-21.17-2.12a8.68,8.68,0,0,1-1.88-1.54l-.4,1.4a18.52,18.52,0,0,1-3.07-.25c-.22-3,1.26-10.64,1.26-10.64Z" transform="translate(-30.6 -9)"/>
        <g id="Group_5821" data-name="Group 5821">
          <path id="Path_187013" data-name="Path 187013" class="cls-8" d="M244.13,347l-.24-4.78-6.34.32.22,4.42Z" transform="translate(-30.6 -9)"/>
        </g>
      </g>
    </g>
    <path id="Path_187014" data-name="Path 187014" class="cls-11" d="M244.34,203.74l-21.17,3.62S229.62,264,236.31,286c0,0-4.38,37.92.31,58.42l8.39.41s7.14-48.49,9.08-56.67C256.42,278.34,253.53,254.62,244.34,203.74Z" transform="translate(-30.6 -9)"/>
    <path id="Path_187015" data-name="Path 187015" class="cls-11" d="M246.86,340.07l-.64,5.49-10.5-.26-.57-4.93Z" transform="translate(-30.6 -9)"/>
    <g id="Group_5824" data-name="Group 5824" class="cls-12">
      <path id="Path_187016" data-name="Path 187016" d="M234.87,227.12a.72.72,0,0,1,.08-.32Z" transform="translate(-30.6 -9)"/>
    </g>
    <g id="Group_5828" data-name="Group 5828">
      <g id="Group_5827" data-name="Group 5827">
        <g id="Group_5826" data-name="Group 5826">
          <path id="Path_187017" data-name="Path 187017" class="cls-13" d="M219.14,349s17.89,9.84,23.77,9.92,1.53,2.59-4.88,3.19c-5.08.47-15.24-1-21.17-2.12a8.68,8.68,0,0,1-1.88-1.54l-.4,1.4a18.52,18.52,0,0,1-3.07-.25c-.22-3,1.26-10.64,1.26-10.64Z" transform="translate(-30.6 -9)"/>
          <g id="Group_5825" data-name="Group 5825">
            <path id="Path_187018" data-name="Path 187018" class="cls-8" d="M219.14,349l-.24-4.78-6.34.31.22,4.42Z" transform="translate(-30.6 -9)"/>
          </g>
        </g>
      </g>
      <path id="Path_187019" data-name="Path 187019" class="cls-13" d="M234.07,207.09l-22.45,17.49s-7.38,10.9,3.9,62.06c0,0-9.79,28.16-3.53,59.61l8.31,1.26s10-52.15,12.8-60.09C236.42,277.89,239.08,251.4,234.07,207.09Z" transform="translate(-30.6 -9)"/>
      <path id="Path_187020" data-name="Path 187020" class="cls-13" d="M222.39,342.45l-1.08,5.42-10.44-1.09-.18-5Z" transform="translate(-30.6 -9)"/>
      <path id="Path_187021" data-name="Path 187021" class="cls-13" d="M235.71,224.24l12.19-.33,1.94,11.71L232.2,265.88Z" transform="translate(-30.6 -9)"/>
    </g>
    <path id="Path_187022" data-name="Path 187022" class="cls-14" d="M229.84,111.53s8.67-2,11.33,1c4.49,5.15,2,13.25,2,13.25Z" transform="translate(-30.6 -9)"/>
    <path id="Path_187023" data-name="Path 187023" class="cls-15" d="M237.22,151s6.46,5.19,11.43,20.45c4,12.33.24,20,.95,28.56,1.5,18-.74,28.75-.74,28.75l-39,1s-1.34-33.05-1.3-65.87C208.55,152,222.18,147.73,237.22,151Z" transform="translate(-30.6 -9)"/>
    <path id="Path_187024" data-name="Path 187024" class="cls-10" d="M222.62,148.05l2.14-5c6.29,2.69,15.53,10.08,15.9,10.39l-.06,6.93C240.67,161.21,228.23,150.44,222.62,148.05Z" transform="translate(-30.6 -9)"/>
    <path id="Path_187025" data-name="Path 187025" class="cls-8" d="M239.86,118.68c5,6.29,4,14.61,1.73,20-3,6.87-12.35,5.57-17.68.36-4.72-4.64-6.78-12.68-4.1-18.34C223.29,113.35,234.29,111.73,239.86,118.68Z" transform="translate(-30.6 -9)"/>
    <path id="Path_187026" data-name="Path 187026" class="cls-8" d="M233.4,123.61l-10.81.87,2.08,25.81c.36,4.52,11.72,8.25,11.72,8.25,2.7.2,1-5.64.27-9.62Z" transform="translate(-30.6 -9)"/>
    <path id="Path_187027" data-name="Path 187027" class="cls-14" d="M235.7,117.65s-13.3-1.61-9.21,18.58c2.32,11.52-24-14.3,1.12-24.35,16.27-6.5,15.61,13.15,15.61,13.15S242.3,116.51,235.7,117.65Z" transform="translate(-30.6 -9)"/>
    <path id="Path_187028" data-name="Path 187028" class="cls-16" d="M236.3,146.17l-6.74-3.77,6.4,1.12Z" transform="translate(-30.6 -9)"/>
    <path id="Path_187029" data-name="Path 187029" class="cls-16" d="M228.32,149.23l9.3,4.55a19,19,0,0,1,.3,2.81C237.84,157.18,228.32,149.23,228.32,149.23Z" transform="translate(-30.6 -9)"/>
    <path id="Path_187030" data-name="Path 187030" class="cls-10" d="M239.06,163.7l.06-8.8c-5.21-5-15.86-8.56-16.31-8.8l-2.67,5.06C220.24,151.21,234.43,159.26,239.06,163.7Z" transform="translate(-30.6 -9)"/>
    <path id="Path_187031" data-name="Path 187031" class="cls-14" d="M241.17,119.13s-14.17-.43-12.83,8.43c.64,4.21-6.3,3.43-6,.33C224.57,105.73,241.17,119.13,241.17,119.13Z" transform="translate(-30.6 -9)"/>
    <g id="Group_5829" data-name="Group 5829">
      <path id="Path_187032" data-name="Path 187032" class="cls-8" d="M223.67,133.21c1.05,1.18,2.58,1.35,3.44.38a3,3,0,0,0-.34-3.88c-1-1.18-2.58-1.35-3.43-.38A3,3,0,0,0,223.67,133.21Z" transform="translate(-30.6 -9)"/>
    </g>
    <path id="Path_187033" data-name="Path 187033" class="cls-17" d="M243.8,359.77" transform="translate(-30.6 -9)"/>
    <g id="Group_5830" data-name="Group 5830">
      <path id="Path_187034" data-name="Path 187034" class="cls-15" d="M215.26,154.18s13.74.55,7.41,15.43c-10.66,25-14.95,36.77-14.95,36.77l-.12,42.56-13-3.31s-2.71-32.41-1-42.33C195.7,191.13,202.19,152.28,215.26,154.18Z" transform="translate(-30.6 -9)"/>
    </g>
    <path id="Path_187035" data-name="Path 187035" class="cls-8" d="M207.21,253.57l-.36-7.48-3.92-2-6.52.78s-1.7,3-1.22,4.93l.22,1.78a6.77,6.77,0,0,0,4.63,5.61,53.89,53.89,0,0,0,6.19,1.78c.78-.06,1.37-.58,1.33-1.16Z" transform="translate(-30.6 -9)"/>
    <path id="Path_187036" data-name="Path 187036" class="cls-8" d="M207,249.28s.73.31,1.56,3.28c1,3.71-1.38,3.71-1.38,3.71l-1.32-3.35Z" transform="translate(-30.6 -9)"/>
    <path id="Path_187037" data-name="Path 187037" class="cls-10" d="M208.57,249.28l-.18-6.63L193.51,242l1,6.8Z" transform="translate(-30.6 -9)"/>
  </g>
  <g id="Group_5845" data-name="Group 5845">
    <g id="Group_5843" data-name="Group 5843">
      <g id="Group_5832" data-name="Group 5832">
        <path id="Path_187038" data-name="Path 187038" class="cls-7" d="M347.48,156.08s-13.34-3.33-11.43,12.72c3.21,27,4,39.49,4,39.49l-11.83,40.89,13.38.46s11.69-30.35,12.85-40.35C355.9,197,360.56,157.92,347.48,156.08Z" transform="translate(-30.6 -9)"/>
        <path id="Path_187039" data-name="Path 187039" class="cls-8" d="M339.77,252.66,337,249.23l-6.22-2.06s-2.82,2-3.2,4l-1.89,5.78-.36,1a1.26,1.26,0,0,0,.74,1.62,53.26,53.26,0,0,0,4.89,3.71,1.32,1.32,0,0,0,1.74-.61l0,.05c-.21.55.23,1.21,1,1.48a1.27,1.27,0,0,0,1.69-.49l1.5-4Z" transform="translate(-30.6 -9)"/>
        <path id="Path_187040" data-name="Path 187040" class="cls-10" d="M327.25,249.41l2.12-6.74,14.36,3.81-2.84,6.25Z" transform="translate(-30.6 -9)"/>
      </g>
      <g id="Group_5841" data-name="Group 5841">
        <g id="Group_5835" data-name="Group 5835">
          <g id="Group_5834" data-name="Group 5834">
            <path id="Path_187041" data-name="Path 187041" class="cls-13" d="M365.13,348.83s-17.4,10.67-23.28,11-1.4,2.66,5,3,9.71-1.3,13.57-2.41a35.31,35.31,0,0,0,11.91-6.24l.1-.09c2.26-1.95.11-5.64-1-5.58Z" transform="translate(-30.6 -9)"/>
            <g id="Group_5833" data-name="Group 5833">
              <path id="Path_187042" data-name="Path 187042" class="cls-8" d="M365.13,348.83l0-4.79,6.35,0v4.42Z" transform="translate(-30.6 -9)"/>
              <path id="Path_187043" data-name="Path 187043" class="cls-8" d="M365.13,348.83s2.71-1.2-4.69,2.88c-7,3.84-1.45,3.48,2.32,2,7.4-2.95,8.73-5.2,8.73-5.2Z" transform="translate(-30.6 -9)"/>
            </g>
          </g>
          <path id="Path_187044" data-name="Path 187044" class="cls-13" d="M373.44,351.51l.05,5.41-4.3.54,0-2.4Z" transform="translate(-30.6 -9)"/>
        </g>
        <g id="Group_5838" data-name="Group 5838">
          <g id="Group_5837" data-name="Group 5837">
            <path id="Path_187045" data-name="Path 187045" class="cls-11" d="M340.64,349s-17.93,9.76-23.81,9.81-1.54,2.59,4.87,3.22,9.76-.81,13.67-1.72a35,35,0,0,0,12.21-5.63l.11-.07c2.35-1.84.4-5.63-.69-5.62Z" transform="translate(-30.6 -9)"/>
            <g id="Group_5836" data-name="Group 5836">
              <path id="Path_187046" data-name="Path 187046" class="cls-8" d="M340.64,349l.26-4.78,6.34.35L347,349Z" transform="translate(-30.6 -9)"/>
              <path id="Path_187047" data-name="Path 187047" class="cls-8" d="M340.64,349s3-1.2-4.59,2.5c-7.16,3.48-1.61,3.46,2.22,2.09C345.39,351,347,349,347,349Z" transform="translate(-30.6 -9)"/>
            </g>
          </g>
          <path id="Path_187048" data-name="Path 187048" class="cls-11" d="M348.8,352.12l-.23,5.41-4.32.31.09-2.4Z" transform="translate(-30.6 -9)"/>
        </g>
        <path id="Path_187049" data-name="Path 187049" class="cls-11" d="M337.85,204.52l21.23,3.27s-5.49,56.7-11.8,78.86c0,0,5,37.84.68,58.41l-8.38.55s-5.74-48.61-7.82-56.76C329.26,279.07,329.53,255.55,337.85,204.52Z" transform="translate(-30.6 -9)"/>
        <path id="Path_187050" data-name="Path 187050" class="cls-11" d="M337.65,340.87l.73,5.48,10.5-.44.49-4.94Z" transform="translate(-30.6 -9)"/>
        <g id="Group_5839" data-name="Group 5839" class="cls-12">
          <path id="Path_187051" data-name="Path 187051" d="M347.71,227.74a.62.62,0,0,0-.09-.32Z" transform="translate(-30.6 -9)"/>
        </g>
        <g id="Group_5840" data-name="Group 5840">
          <path id="Path_187052" data-name="Path 187052" class="cls-13" d="M351.73,210.41l20.43,14.69s8.36,6.38-6.58,62.51c0,0,12.76,27.3,7,58.85l-8.27,1.4s-10.92-52-13.82-59.87C347,278.52,342.36,247.5,351.73,210.41Z" transform="translate(-30.6 -9)"/>
          <path id="Path_187053" data-name="Path 187053" class="cls-13" d="M362.15,342.83l1.17,5.41L373.75,347l.09-5Z" transform="translate(-30.6 -9)"/>
        </g>
        <path id="Path_187054" data-name="Path 187054" class="cls-13" d="M333.9,231l.86-6.28,13.94.13,1.66,29.74Z" transform="translate(-30.6 -9)"/>
      </g>
      <path id="Path_187055" data-name="Path 187055" class="cls-15" d="M345.11,151.7s-6.92,6.75-11.63,22.09c-3.8,12.39,2.94,17.58,2.38,26.13-1.2,18-2.38,24.81-2.38,24.81l38.68.37-4.43-18.19a106.78,106.78,0,0,0,7.87-44C375.38,150.91,360.08,148.14,345.11,151.7Z" transform="translate(-30.6 -9)"/>
      <path id="Path_187056" data-name="Path 187056" class="cls-7" d="M372.11,174.14s1,15.78-6,25-13.91,9.28-13.91,9.28Z" transform="translate(-30.6 -9)"/>
      <path id="Path_187057" data-name="Path 187057" class="cls-10" d="M359.65,148.47l-2.22-5c-6.25,2.79-15.36,10.34-15.73,10.65l.19,6.93C341.84,161.93,354.09,151,359.65,148.47Z" transform="translate(-30.6 -9)"/>
      <path id="Path_187058" data-name="Path 187058" class="cls-8" d="M341.92,119.4c-4.93,6.37-3.8,14.67-1.39,20,3.08,6.82,12.44,5.36,17.67.06,4.65-4.72,6.57-12.8,3.79-18.41C358.39,113.78,347.37,112.35,341.92,119.4Z" transform="translate(-30.6 -9)"/>
      <path id="Path_187059" data-name="Path 187059" class="cls-8" d="M348.46,124.21l10.83.69-1.65,25.84c-.28,4.52-11.58,8.45-11.58,8.45-2.69.24-1.11-5.63-.42-9.62Z" transform="translate(-30.6 -9)"/>
      <path id="Path_187060" data-name="Path 187060" class="cls-16" d="M345.94,146.82l6.68-3.88-6.38,1.22Z" transform="translate(-30.6 -9)"/>
      <path id="Path_187061" data-name="Path 187061" class="cls-16" d="M354,149.75l-9.22,4.69a17.93,17.93,0,0,0-.25,2.83C344.59,157.86,354,149.75,354,149.75Z" transform="translate(-30.6 -9)"/>
      <path id="Path_187062" data-name="Path 187062" class="cls-10" d="M343.49,164.39l-.18-8.6c5.12-5.07,15.67-9,16.12-9.27l2.76,5C362.08,151.59,348,159.88,343.49,164.39Z" transform="translate(-30.6 -9)"/>
      <g id="Group_5842" data-name="Group 5842">
        <path id="Path_187063" data-name="Path 187063" class="cls-15" d="M370.19,153.19s-7.36-2.45-12.6,12.72a145.12,145.12,0,0,1-17.54,34l-36.79,4.52,4.57,12.63s41-.38,45.51-9.12S389.65,162.46,370.19,153.19Z" transform="translate(-30.6 -9)"/>
        <path id="Path_187064" data-name="Path 187064" class="cls-10" d="M302.93,204l5.32-.9,5.14,15.62-5.75-.23Z" transform="translate(-30.6 -9)"/>
      </g>
      <path id="Path_187065" data-name="Path 187065" class="cls-17" d="M342.08,360.51" transform="translate(-30.6 -9)"/>
      <path id="Path_187066" data-name="Path 187066" class="cls-18" d="M345.1,131.81c0,2.09-1,3.79-2.25,3.79s-2.25-1.7-2.25-3.79,1-3.81,2.25-3.81S345.1,129.71,345.1,131.81Z" transform="translate(-30.6 -9)"/>
      <line id="Line_528" data-name="Line 528" class="cls-18" x1="314.5" y1="122.81" x2="321.32" y2="121.78"/>
    </g>
    <g id="Group_5844" data-name="Group 5844">
      <path id="Path_187067" data-name="Path 187067" class="cls-6" d="M343.3,121.4s12.17,18.83,21.37,17.2c10.46-1.86.87-30-13.13-26-19.69,5.65-12.89,15.06-12.89,15.06S339.85,122.33,343.3,121.4Z" transform="translate(-30.6 -9)"/>
    </g>
  </g>
  <path id="Path_187068" data-name="Path 187068" class="cls-8" d="M241.84,123.61a21.6,21.6,0,0,0,4.3,6.86l-5.48,2.2Z" transform="translate(-30.6 -9)"/>
  <path id="Path_187069" data-name="Path 187069" class="cls-8" d="M339.57,128.13a22,22,0,0,1-3.84,6.86l4.89,2.2Z" transform="translate(-30.6 -9)"/>
  <path id="Path_187070" data-name="Path 187070" class="cls-14" d="M227.67,128.49s8.54,5.14,15.73,2.87c0,0,3.48,11.69-2.74,14.1-5.27,2-13.77-.39-17.63-7.36Z" transform="translate(-30.6 -9)"/>
  <path id="Path_187071" data-name="Path 187071" class="cls-18" d="M344.48,131.81" transform="translate(-30.6 -9)"/>
  <path id="Path_187072" data-name="Path 187072" class="cls-8" d="M356.48,133.12a2.39,2.39,0,1,1-4.31-1.79,2.39,2.39,0,1,1,4.31,1.79Z" transform="translate(-30.6 -9)"/>
  <path id="Path_187073" data-name="Path 187073" class="cls-10" d="M356.06,135.12a1.61,1.61,0,1,1-1.09-2A1.61,1.61,0,0,1,356.06,135.12Z" transform="translate(-30.6 -9)"/>
  <g id="Group_5847" data-name="Group 5847">
    <rect id="Rectangle_6644" data-name="Rectangle 6644" class="cls-4" x="144.31" y="58.69" width="52.26" height="26.97"/>
    <path id="Path_187074" data-name="Path 187074" class="cls-4" d="M212.64,87.27v14.79l-12.9-12.91Z" transform="translate(-30.6 -9)"/>
  </g>
  <g id="Group_5848" data-name="Group 5848">
    <circle id="Ellipse_556" data-name="Ellipse 556" class="cls-10" cx="158.98" cy="72.18" r="1.75"/>
    <circle id="Ellipse_557" data-name="Ellipse 557" class="cls-10" cx="170.48" cy="72.18" r="1.75"/>
    <circle id="Ellipse_558" data-name="Ellipse 558" class="cls-10" cx="181.98" cy="72.18" r="1.75"/>
  </g>
  <g id="Group_5850" data-name="Group 5850">
    <rect id="Rectangle_6645" data-name="Rectangle 6645" class="cls-4" x="268.55" y="60.63" width="52.26" height="26.97"/>
    <path id="Path_187075" data-name="Path 187075" class="cls-4" d="M341.68,89.21V104l-12.9-12.91Z" transform="translate(-30.6 -9)"/>
  </g>
  <g id="Group_5851" data-name="Group 5851">
    <circle id="Ellipse_559" data-name="Ellipse 559" class="cls-10" cx="284.29" cy="74.12" r="1.75"/>
    <circle id="Ellipse_560" data-name="Ellipse 560" class="cls-10" cx="295.79" cy="74.12" r="1.75"/>
    <circle id="Ellipse_561" data-name="Ellipse 561" class="cls-10" cx="307.29" cy="74.12" r="1.75"/>
  </g>
</svg>
