<svg xmlns="http://www.w3.org/2000/svg" viewBox="0 0 440.4 362.99">
  <defs>
    <style>
      .cls-1 {
        fill: #cfefff;
      }

      .cls-2 {
        fill: #3880a3;
      }

      .cls-15, .cls-3, .cls-5 {
        fill: none;
      }

      .cls-3 {
        stroke: #2b627d;
      }

      .cls-3, .cls-5 {
        stroke-miterlimit: 10;
      }

      .cls-4 {
        fill: #49a8d6;
      }

      .cls-5 {
        stroke: #3880a3;
      }

      .cls-6 {
        fill: #ffa320;
      }

      .cls-7 {
        fill: #ffc69a;
      }

      .cls-8 {
        fill: #003d57;
      }

      .cls-9 {
        fill: #daa184;
      }

      .cls-10 {
        fill: #fff;
      }

      .cls-11 {
        fill: #ffb939;
      }

      .cls-12 {
        fill: #411809;
      }

      .cls-13 {
        fill: #005479;
      }

      .cls-14 {
        fill: #ffca6e;
      }

      .cls-15 {
        stroke: #003d57;
        stroke-linecap: round;
        stroke-linejoin: round;
        stroke-width: 0.25px;
      }

      .cls-16 {
        fill: #963815;
      }
    </style>
  </defs>
  <title>2-Tasks</title>
  <g id="Layer_1" data-name="Layer 1">
    <g id="Group_5943" data-name="Group 5943">
      <path id="Path_186835" data-name="Path 186835" class="cls-1" d="M117.14,358.82a60,60,0,0,1-34.68-18.21c-10.7-11.21-10.67-18.91-9.63-23.54,2.3-10.19,33.32-6.75,38.74-22.86,3.56-10.59-8.26-16.84-9.92-36.07-1.48-17.12,5.69-37.52,17.86-45.44,17.33-11.27,40.72,5.36,61.3,13.21,89.73,34.23,171.34-81.23,229.9-43.77,20.75,13.26,37,44.7,32.7,69.3-4.27,24.42-28.65,41.19-22.86,51.74,3.91,7.12,16.09,1.45,25.39,10.51,9.73,9.48,9.87,28.81,6.19,37.7-9.52,22.93-53.63,4.55-145.14,9.12-57.84,2.88-84.57,13.41-146.13,2.85C151.47,361.75,135.28,361.52,117.14,358.82Z" transform="translate(-30.6 -4.97)"/>
      <g id="Group_5762" data-name="Group 5762">
        <path id="Path_186836" data-name="Path 186836" class="cls-2" d="M144.38,335.47c-6.44-20.94-13.93-39-20.83-38.45-5.44.45-7.35,12.22-11.94,12-8.15-.47-8.53-38-18-39.41-5-.75-7.17,16.38-14.32,16.74-5.91.3-7.24-10.9-19.14-19.1C53.28,262.45,41,257.46,35,262.1c-6.67,5.09-5.43,21.42,1.95,32,11.38,16.35,35.36,16.2,35,22.55-.27,5.43-17.95,7-18.38,14.12-.22,3.63,4.12,6.62,5.26,7.4,14.81,10.16,40.89-4.46,42.06-1.72.28.65-1,2-9.31,7.9-13.54,9.61-17.11,11-16.83,12.8.56,3.72,16.78,6.57,31.79,3.31C125.6,356.34,138.1,343.34,144.38,335.47Z" transform="translate(-30.6 -4.97)"/>
        <path id="Path_186837" data-name="Path 186837" class="cls-3" d="M139.31,335.91s-39.52-4.24-96.81-62.58" transform="translate(-30.6 -4.97)"/>
      </g>
      <g id="Group_5763" data-name="Group 5763">
        <path id="Path_186838" data-name="Path 186838" class="cls-4" d="M268.19,355.25c-15.53-15.53-28-30.65-24.29-36.5,2.95-4.6,14.28-.77,16.2-5,3.4-7.45-29.68-25.4-26.49-34.41,1.7-4.79,17.88,1.33,21.56-4.84,3-5.08-6.26-11.52-7.94-25.91-1-8.34.34-21.53,7.3-24.74,7.64-3.52,21.52,5.24,27.46,16.75,9.14,17.75-2.24,38.93,3.53,41.62,4.94,2.3,14.59-12.64,21.13-9.67,3.33,1.51,3.93,6.77,4.09,8.14,2.06,17.89-23.13,34.13-21.25,36.45.44.56,2.2.07,11.36-4.54,14.87-7.48,17.76-10,19.24-8.9,3,2.24-2,17.94-12,29.71C295.49,348.4,278.1,353.38,268.19,355.25Z" transform="translate(-30.6 -4.97)"/>
        <path id="Path_186839" data-name="Path 186839" class="cls-5" d="M271,351s14.78-37-10-115.12" transform="translate(-30.6 -4.97)"/>
      </g>
      <g id="Group_5764" data-name="Group 5764">
        <path id="Path_186840" data-name="Path 186840" class="cls-4" d="M362.55,336.86c-.79-21.95.35-41.54,7.07-43.27,5.3-1.36,11,9.16,15.24,7.4,7.57-3.13-4.43-38.81,4.05-43.24,4.5-2.35,12.18,13.16,19.06,11.15,5.69-1.66,3.28-12.7,11.84-24.38,5-6.78,14.92-15.53,22.21-13.14,8,2.62,12.19,18.49,8.69,31-5.39,19.23-28.15,27-25.76,32.88,2.05,5,19.29.68,22.06,7.32,1.4,3.37-1.73,7.62-2.55,8.74-10.67,14.5-40.18,9.24-40.39,12.21-.05.71,1.56,1.55,11.41,4.42,16,4.64,19.82,4.76,20.16,6.58.69,3.71-13.73,11.75-29,13.6C387.21,350.44,371.09,342.24,362.55,336.86Z" transform="translate(-30.6 -4.97)"/>
        <path id="Path_186841" data-name="Path 186841" class="cls-5" d="M367.51,335.61s36-17,71.06-91.13" transform="translate(-30.6 -4.97)"/>
      </g>
      <g id="Group_5765" data-name="Group 5765">
        <path id="Path_186842" data-name="Path 186842" class="cls-2" d="M279.25,354.85c-4.81-15.29-7.8-29.3-3.4-31.82,3.47-2,9.5,4.32,12.16,2.25,4.71-3.67-10.64-26.45-5.53-31.2,2.72-2.53,11.12,6.89,15.58,4.14,3.68-2.27-.16-9.57,3.61-19.45,2.18-5.73,7.49-13.82,13.08-13.55,6.13.3,12.16,10.66,12.11,20.11-.07,14.58-14.58,24.44-11.76,28.13,2.42,3.15,13.71-3.25,16.94.88,1.65,2.1.27,5.7-.1,6.64-4.7,12.27-26.49,14.29-26.06,16.43.1.5,1.4.78,8.89.89,12.15.17,14.87-.48,15.46.73,1.21,2.48-7.39,10.92-17.78,15.19C299.24,359.63,286.3,357,279.25,354.85Z" transform="translate(-30.6 -4.97)"/>
        <path id="Path_186843" data-name="Path 186843" class="cls-3" d="M282.5,353s22.05-19,32.36-77.89" transform="translate(-30.6 -4.97)"/>
      </g>
      <g id="Group_5766" data-name="Group 5766">
        <path id="Path_186844" data-name="Path 186844" class="cls-4" d="M190.11,333.05c.73-30-1.13-56.76-10.35-59-7.26-1.77-14.86,12.69-20.71,10.35-10.38-4.15,5.44-53.09-6.21-59-6.2-3.14-16.44,18.17-25.88,15.53-7.8-2.18-4.67-17.3-16.57-33.12-6.89-9.18-20.63-21-30.54-17.6C69,193.9,63.49,215.65,68.46,232.63c7.68,26.19,38.9,36.43,35.72,44.52-2.72,6.93-26.34,1.24-30,10.35-1.87,4.63,2.48,10.4,3.63,11.91,14.81,19.64,55.05,12,55.38,16,.08,1-2.11,2.15-15.53,6.21-21.77,6.61-27,6.83-27.43,9.32-.89,5.09,18.94,15.83,39.86,18.12C156.63,352,178.53,340.55,190.11,333.05Z" transform="translate(-30.6 -4.97)"/>
        <path id="Path_186845" data-name="Path 186845" class="cls-5" d="M183.33,331.42S133.83,308.73,84.77,208" transform="translate(-30.6 -4.97)"/>
      </g>
    </g>
  </g>
  <g id="Layer_2" data-name="Layer 2">
    <g id="Group_5947" data-name="Group 5947">
      <g id="Group_5944" data-name="Group 5944">
        <g id="Group_5768" data-name="Group 5768">
          <path id="Path_186846" data-name="Path 186846" class="cls-4" d="M290.57,21.72a18.61,18.61,0,1,0-20,23.38h0c7.59,4.33-2,11.61-2,11.61L280,53.57l11.51-3.15s-12-1.37-7.65-9h0A18.6,18.6,0,0,0,290.57,21.72Z" transform="translate(-30.6 -4.97)"/>
          <path id="Path_186847" data-name="Path 186847" class="cls-4" d="M227.65,67.88l28.61,104.65,42.79-11.69a18.59,18.59,0,1,1,19.07-5.21l42.8-11.7L332.31,39.27Z" transform="translate(-30.6 -4.97)"/>
          <path id="Path_186848" data-name="Path 186848" class="cls-4" d="M377.06,97a18.61,18.61,0,1,0-23.39-20v0c-4.33,7.59-11.61-2-11.61-2l3.15,11.51,3.15,11.51s1.37-12,9-7.65v0A18.61,18.61,0,0,0,377.06,97Z" transform="translate(-30.6 -4.97)"/>
        </g>
      </g>
      <g id="Group_5945" data-name="Group 5945">
        <path id="Path_186849" data-name="Path 186849" class="cls-6" d="M219.36,329.92s11.24,3.2,16.77,6.27c4.42,2.46,5,4.51-.49,4.52-7,0-15.29-.13-20.28-.91-3.37-.52-2-8.44-1.4-9.8Z" transform="translate(-30.6 -4.97)"/>
        <path id="Path_186850" data-name="Path 186850" class="cls-7" d="M218.37,329.94l1.14-4.38-5.82.69L214,330Z" transform="translate(-30.6 -4.97)"/>
        <path id="Path_186851" data-name="Path 186851" class="cls-8" d="M239.52,339.89c-6.06-.21-18.8-.73-22.13-1.53a9.38,9.38,0,0,1-4.18-2.14c.11,1.9.67,3.56,2.15,3.79,5,.78,13.29.93,20.28.91C238,340.91,239.24,340.53,239.52,339.89Z" transform="translate(-30.6 -4.97)"/>
        <path id="Path_186852" data-name="Path 186852" class="cls-9" d="M192.73,177.58s-1.4-6.62,10.38-15.43a180.77,180.77,0,0,0,18.16-15.21l11.17-38.7,3.88,1.84s.24,30.36-1.46,39.38S195.8,197.57,192.73,177.58Z" transform="translate(-30.6 -4.97)"/>
        <path id="Path_186853" data-name="Path 186853" class="cls-6" d="M223.36,137.39,236,139.24l-.48,10.59S217,178.76,205,183.33s-19.32-2.49-16.36-7.52,30.69-28.58,30.69-28.58Z" transform="translate(-30.6 -4.97)"/>
        <rect id="Rectangle_6629" data-name="Rectangle 6629" class="cls-10" x="226.14" y="130.12" width="6.35" height="15.2" transform="translate(26.91 337.77) rotate(-81.03)"/>
        <path id="Path_186854" data-name="Path 186854" class="cls-9" d="M236.31,118.88s-7.33-17.93-5.18-20c0,0,6.85,11.55,8.92,16.43" transform="translate(-30.6 -4.97)"/>
        <g id="Group_5770" data-name="Group 5770">
          <path id="Path_186855" data-name="Path 186855" class="cls-11" d="M149.86,319.15s7.9,8.61,11,14.12c2.49,4.41,1.89,6.44-2.78,3.59-6-3.64-13-8.11-16.81-11.39-2.59-2.21,2.75-8.22,3.94-9.08Z" transform="translate(-30.6 -4.97)"/>
          <path id="Path_186856" data-name="Path 186856" class="cls-7" d="M149,318.65l3.26-3.14L147,313.05l-1.74,3.34Z" transform="translate(-30.6 -4.97)"/>
        </g>
        <g id="Group_5771" data-name="Group 5771">
          <path id="Path_186857" data-name="Path 186857" class="cls-8" d="M215.66,222.74l-23.1-12.89s3.88,48.73,18.64,70.25c0,0,.11,39.19,2.69,47.65l5.4-.14s8.26-44.58,7.49-51.69C225.36,262.85,224,244,215.66,222.74Z" transform="translate(-30.6 -4.97)"/>
        </g>
        <g id="Group_5772" data-name="Group 5772">
          <path id="Path_186858" data-name="Path 186858" class="cls-12" d="M187.05,131.41s-9.25,4.54-10,21.55-3.69,17.65-3.69,17.65a29,29,0,0,0,26.51,0Z" transform="translate(-30.6 -4.97)"/>
          <path id="Path_186859" data-name="Path 186859" class="cls-7" d="M202.34,134.61c3.71,3.4,5.5,8.89,5.69,14.09.2,5.64-8.46,6.4-13.38,3.66-4.35-2.43-7.45-7.88-6.61-12.53C189.12,133.81,197.39,130.07,202.34,134.61Z" transform="translate(-30.6 -4.97)"/>
          <path id="Path_186860" data-name="Path 186860" class="cls-7" d="M197.28,141.53l-9.11,1.41,3.42,22a5.8,5.8,0,0,0,6.6,4.83h0a5.75,5.75,0,0,0,4.7-7.2Z" transform="translate(-30.6 -4.97)"/>
          <path id="Path_186861" data-name="Path 186861" class="cls-12" d="M198.25,133.45s2.26,12.32-10.08,15.34c-8.61,2.11-8.37-19.32,3.79-19.77,17.09-.62,13.24,9.2,13.24,9.2S201.08,132.2,198.25,133.45Z" transform="translate(-30.6 -4.97)"/>
          <path id="Path_186862" data-name="Path 186862" class="cls-10" d="M191.44,149.38a1.67,1.67,0,1,0,.42-2.33h0a1.68,1.68,0,0,0-.43,2.33Z" transform="translate(-30.6 -4.97)"/>
          <path id="Path_186863" data-name="Path 186863" class="cls-9" d="M201.05,155.67l-6.92-3,6.44,1.16Z" transform="translate(-30.6 -4.97)"/>
          <path id="Path_186864" data-name="Path 186864" class="cls-10" d="M205.43,161.93,202,156.11l-12,1.26.69,3.26Z" transform="translate(-30.6 -4.97)"/>
        </g>
        <path id="Path_186865" data-name="Path 186865" class="cls-13" d="M211.31,212.63l-28.14,7.48s-7.91,10.74-5,52.54c0,0-24.57,20.65-31.43,40.76l4.56,3s34.59-30.91,39.45-36.14C196.58,274,207.86,253,211.31,212.63Z" transform="translate(-30.6 -4.97)"/>
        <path id="Path_186866" data-name="Path 186866" class="cls-11" d="M208.33,164.75a7.63,7.63,0,0,0-4.81-5.47c-5.2-1.9-17.88-2-18,15.12-.23,33.69-2.35,45.71-2.35,45.71s6.76,5.88,32.49,2.62l-3.39-21.28,3-6.54a21,21,0,0,0-.55-16Z" transform="translate(-30.6 -4.97)"/>
        <path id="Path_186867" data-name="Path 186867" class="cls-7" d="M197.88,178.94s-1.41-6.63,10.38-15.44a179.34,179.34,0,0,0,18.16-15.2l11.17-38.7,3.88,1.84s.24,30.36-1.46,39.38S201,198.92,197.88,178.94Z" transform="translate(-30.6 -4.97)"/>
        <path id="Path_186868" data-name="Path 186868" class="cls-7" d="M236.71,113.21s-2.58-10.9-.43-13c0,0,2.1,4.53,4.17,9.41.65,1.52,7.25,6.28,3.85,5.77A39.28,39.28,0,0,1,236.71,113.21Z" transform="translate(-30.6 -4.97)"/>
        <path id="Path_186869" data-name="Path 186869" class="cls-7" d="M204,136.71s2.8,2.92,5,3.47a5.09,5.09,0,0,1-2.16,3Z" transform="translate(-30.6 -4.97)"/>
        <path id="Path_186870" data-name="Path 186870" class="cls-8" d="M161.93,338c-5.06-3.36-15.63-10.47-18.06-12.89a9.3,9.3,0,0,1-2.45-4c-.9,1.68-1.28,3.38-.15,4.36,3.85,3.27,10.85,7.74,16.81,11.38C160.1,338.09,161.35,338.41,161.93,338Z" transform="translate(-30.6 -4.97)"/>
        <path id="Path_186871" data-name="Path 186871" class="cls-7" d="M145.63,316.64s6.15,10.63,8.88,7.88L150,317.73Z" transform="translate(-30.6 -4.97)"/>
        <path id="Path_186872" data-name="Path 186872" class="cls-7" d="M214.6,330s10.79,6.05,11.55,2.25l-7.53-3.17Z" transform="translate(-30.6 -4.97)"/>
        <rect id="Rectangle_6630" data-name="Rectangle 6630" class="cls-8" x="181.4" y="319.03" width="9" height="4"/>
        <rect id="Rectangle_6631" data-name="Rectangle 6631" class="cls-13" x="147.27" y="309.79" width="3.58" height="9.07" transform="translate(-228.28 281.27) rotate(-60)"/>
        <path id="Path_186873" data-name="Path 186873" class="cls-11" d="M229.43,137.87,241,140l-.7,13.36S223.1,179.23,211,183.8s-19.32-2.48-16.36-7.52,30.69-28.57,30.69-28.57Z" transform="translate(-30.6 -4.97)"/>
        <rect id="Rectangle_6632" data-name="Rectangle 6632" class="cls-10" x="232.21" y="130.6" width="6.35" height="15.2" transform="translate(31.57 344.17) rotate(-81.03)"/>
        <path id="Path_186874" data-name="Path 186874" class="cls-13" d="M215.66,222.74l3,8.49-19.44,21.44,1.83-29A95,95,0,0,0,215.66,222.74Z" transform="translate(-30.6 -4.97)"/>
      </g>
      <g id="Group_5946" data-name="Group 5946">
        <g id="Group_5785" data-name="Group 5785">
          <g id="Group_5778" data-name="Group 5778">
            <path id="Path_186875" data-name="Path 186875" class="cls-11" d="M360.17,224.47l21.74,3.86,16.37-8.47s-1.63-11.56-1.54-14.79c.22-7.75,3.95-25.2-1.56-37.65-4.05-9.16-11.61-5-21.15-2l-10.75,1.18s-17.25-10.42-5.2,37.61C359.45,209.7,360.17,224.47,360.17,224.47Z" transform="translate(-30.6 -4.97)"/>
            <g id="Group_5774" data-name="Group 5774">
              <path id="Path_186876" data-name="Path 186876" class="cls-7" d="M369.16,132.19c-4.27,4.37-6.07,11.15-6,17.47.14,6.85,10.69,7.19,16.46,3.54,5.12-3.25,8.5-10.06,7.18-15.64C385.14,130.33,374.86,126.36,369.16,132.19Z" transform="translate(-30.6 -4.97)"/>
              <path id="Path_186877" data-name="Path 186877" class="cls-7" d="M366.93,135.33s-2.61,3-4.8,3.72a5.08,5.08,0,0,0,2.31,2.84Z" transform="translate(-30.6 -4.97)"/>
            </g>
            <g id="Group_5775" data-name="Group 5775">
              <path id="Path_186878" data-name="Path 186878" class="cls-11" d="M369,177.68l-9.23-20.54L355,146.69l-9-41.75-7.85,1.1,5,45.66,4.7,11.39,8.73,33.54c1.47,3.55,5-8.42,8.55-9.88a6.94,6.94,0,0,0,3.77-9.06Z" transform="translate(-30.6 -4.97)"/>
              <path id="Path_186879" data-name="Path 186879" class="cls-7" d="M346.39,106.71s-.29-15.17-1.71-11.93a36,36,0,0,0-2,5.54s-4.15-10.3-5.89-8.63a7.13,7.13,0,0,0-1.4,7.87c1.54,4,3.34,8.11,3.34,8.11Z" transform="translate(-30.6 -4.97)"/>
              <rect id="Rectangle_6633" data-name="Rectangle 6633" class="cls-10" x="336.83" y="106.14" width="11.39" height="5.09" transform="translate(-41.89 40.86) rotate(-7.53)"/>
            </g>
            <g id="Group_5777" data-name="Group 5777">
              <g id="Group_5776" data-name="Group 5776">
                <path id="Path_186880" data-name="Path 186880" class="cls-11" d="M378.44,144.85l-14.36-40.23,7.26-3.2,19.78,41.45,2,12.16L380,156.21Z" transform="translate(-30.6 -4.97)"/>
                <path id="Path_186881" data-name="Path 186881" class="cls-11" d="M390.92,184.24a6.93,6.93,0,0,1-8-5.71h0l-3-22.33L393.13,155l4.2,19.51C398,178.32,394.7,183.62,390.92,184.24Z" transform="translate(-30.6 -4.97)"/>
              </g>
              <path id="Path_186882" data-name="Path 186882" class="cls-7" d="M364.7,106.32s-7.76-13-4.84-11a35.5,35.5,0,0,1,4.65,3.64S362.61,88,365,88.48a7.14,7.14,0,0,1,5.35,6c.78,4.18,1.43,8.66,1.43,8.66Z" transform="translate(-30.6 -4.97)"/>
              <rect id="Rectangle_6634" data-name="Rectangle 6634" class="cls-10" x="362.77" y="102.39" width="11.39" height="5.09" transform="translate(-43.23 139.26) rotate(-21.78)"/>
            </g>
            <path id="Path_186883" data-name="Path 186883" class="cls-7" d="M367.51,149.88l1,22.62,12.38-3.95-5.83-20.66Z" transform="translate(-30.6 -4.97)"/>
            <path id="Path_186884" data-name="Path 186884" class="cls-11" d="M384.92,160.86l-4.53-4.66a17.71,17.71,0,0,1-3,5.44c-1.27,1.68-7.25.64-8.92-.65-5.83-4.49-12.05-10.49-12.05-10.49l5.71,13.56-3.11.66v.41l4.63,11s22.73-1.83,22.73-2.3.57-13.08.57-13.08Z" transform="translate(-30.6 -4.97)"/>
          </g>
          <g id="Group_5784" data-name="Group 5784">
            <g id="Group_5779" data-name="Group 5779">
              <path id="Path_186885" data-name="Path 186885" class="cls-8" d="M401.86,239c2.75-19.68-4.84-33-4.84-33-12.73,7.08-37.81,5.46-37.81,5.46l-3.55,33.25-2,36.83s.83,20.62,9.5,48L373,328s1.78-19.45-1.55-47.19c0,0,4.93-19.83,7.61-30,.18-.68,3.09-1.74,3.24-2.32C382.31,248.44,396.94,247.66,401.86,239Z" transform="translate(-30.6 -4.97)"/>
              <path id="Path_186886" data-name="Path 186886" class="cls-8" d="M385.3,329.25l8.58-1.26s4-20.09,0-46.61c0,0,6.81-15.05,7.39-38.91.23-1.18.4-2.32.56-3.46-4.92,8.66-19.55,9.43-19.55,9.43L376,283.22S378.61,299.93,385.3,329.25Z" transform="translate(-30.6 -4.97)"/>
            </g>
            <path id="Path_186887" data-name="Path 186887" class="cls-7" d="M363.31,329.57l1.85,6,6.84-.52,0-6.81Z" transform="translate(-30.6 -4.97)"/>
            <g id="Group_5781" data-name="Group 5781">
              <path id="Path_186888" data-name="Path 186888" class="cls-14" d="M352.61,344.6s.08-4.05,7.7-5.31c4-.68,2-3.66,2-3.66l7.51-2.31-7.16,12.62Z" transform="translate(-30.6 -4.97)"/>
              <g id="Group_5780" data-name="Group 5780">
                <path id="Path_186889" data-name="Path 186889" class="cls-6" d="M371,333.23c-5.07,0-4.7,4.3-5.46,7h0a12.57,12.57,0,0,1-11.2,4.53l7.05,1a17.62,17.62,0,0,0,7-.44l4.25-1.14c2.47-1.35,5.17-10.69-1.19-10.94Z" transform="translate(-30.6 -4.97)"/>
                <path id="Path_186890" data-name="Path 186890" class="cls-6" d="M353.09,344.67c.43.07.84.1,1.24.13C352.8,344.6,352,344.5,353.09,344.67Z" transform="translate(-30.6 -4.97)"/>
              </g>
            </g>
            <path id="Path_186891" data-name="Path 186891" class="cls-7" d="M385.39,329.25l1.77,6.07,6.84-.52,0-6.81Z" transform="translate(-30.6 -4.97)"/>
            <g id="Group_5783" data-name="Group 5783">
              <path id="Path_186892" data-name="Path 186892" class="cls-14" d="M374.63,344.32s.08-4.05,7.71-5.32c4-.67,2-3.65,2-3.65l7.52-2.31-7.17,12.62Z" transform="translate(-30.6 -4.97)"/>
              <g id="Group_5782" data-name="Group 5782">
                <path id="Path_186893" data-name="Path 186893" class="cls-6" d="M393,333c-5.07,0-4.7,4.3-5.46,7h0a12.53,12.53,0,0,1-11.2,4.53l7,1a17.62,17.62,0,0,0,7-.43l4.25-1.15c2.47-1.35,5.17-10.68-1.19-10.94Z" transform="translate(-30.6 -4.97)"/>
                <path id="Path_186894" data-name="Path 186894" class="cls-6" d="M375.11,344.39c.43.07.84.1,1.24.13C374.82,344.32,374.07,344.23,375.11,344.39Z" transform="translate(-30.6 -4.97)"/>
              </g>
            </g>
            <path id="Path_186895" data-name="Path 186895" class="cls-15" d="M362.5,338s-3.58-2.16-2.79-1.05a4.21,4.21,0,0,0,2.75,1.24,3,3,0,0,0-1.37.81,2,2,0,0,1-1.85.38" transform="translate(-30.6 -4.97)"/>
            <path id="Path_186896" data-name="Path 186896" class="cls-15" d="M384.85,338s-3.59-2.16-2.79-1.05a4.21,4.21,0,0,0,2.75,1.24,2.9,2.9,0,0,0-1.37.81,2,2,0,0,1-1.85.38" transform="translate(-30.6 -4.97)"/>
          </g>
          <rect id="Rectangle_6635" data-name="Rectangle 6635" class="cls-8" x="361.14" y="325.57" width="12.81" height="5.39" transform="translate(-63.99 36.76) rotate(-6.22)"/>
          <rect id="Rectangle_6636" data-name="Rectangle 6636" class="cls-8" x="383.2" y="324.31" width="12.81" height="5.39" transform="translate(-63.72 39.14) rotate(-6.22)"/>
          <path id="Path_186897" data-name="Path 186897" class="cls-10" d="M367.3,158.24l-.21,3.79s5,1.75,8.13.81a6.82,6.82,0,0,0,4.22-3.85l-1.05-2.81S375.57,160.61,367.3,158.24Z" transform="translate(-30.6 -4.97)"/>
          <path id="Path_186898" data-name="Path 186898" class="cls-16" d="M370.82,123.49s-9,8.67,0,15.45c0,0,3.33,2.43-1.59,8.31a3.23,3.23,0,0,0,0,4.16c3,3.51,9.52,8.65,16.49-2.2,3.22-5,3.66-10.92,1-14.41a17.51,17.51,0,0,0-8.93-6.6C374.11,126.94,373.9,125.35,370.82,123.49Z" transform="translate(-30.6 -4.97)"/>
          <path id="Path_186899" data-name="Path 186899" class="cls-16" d="M367.09,149c-8.65,7.49-8.15,17.76-8.13,19.37.07,8.26,8.37,14.9,8.55,16.84.51,5.32-8,16.52-6.81,22.08,1.76,8,16.05,10.95,30.06,5.1,16-6.68,18.1-28,3.79-42.65-6.32-6.48-4.66-20.81-5.87-30.07-.73-5.59-2,1.93-4.66-2.21-4-6.19-15-8.46-16.51-6.57s5.88,6.53,4.48,11.92C371.29,145.46,370.43,146.06,367.09,149Z" transform="translate(-30.6 -4.97)"/>
          <path id="Path_186900" data-name="Path 186900" class="cls-7" d="M374,142.33a2.87,2.87,0,1,1-4-.39,3.48,3.48,0,0,1,.51-.34A2.58,2.58,0,0,1,374,142.33Z" transform="translate(-30.6 -4.97)"/>
        </g>
      </g>
      <path id="Path_187524" data-name="Path 187524" class="cls-1" d="M147.9,11.8C135,.14,125,6.29,119.67,9.35c-6.89,4-11.51,14.32-18.52,15.65-5.9,1.13-9.62-5.35-16-3.71-4.11,1.07-3.19,4.53-7.79,7.05-6.81,3.74-12.1-1.4-18.18,2.23-3.77,2.25-6.84,7.28-5.56,10,2,4.21,13.4,1.31,31.16.37,16.85-.88,13.48,1.36,39.34,1.49C156.66,42.6,156,39,172,41.7c9.13,1.51,16.13,3.79,18.19.74s-1.47-11.19-7.43-14.1c-7.2-3.53-12.07,3.34-23.74,2.23C153.55,30,157.14,20.15,147.9,11.8Z" transform="translate(-30.6 -4.97)"/>
      <path id="Path_187525" data-name="Path 187525" class="cls-1" d="M87.86,112.84c-7.62-6.89-13.55-3.26-16.68-1.45-4.07,2.35-6.8,8.46-11,9.25-3.48.66-5.68-3.17-9.42-2.2-2.44.64-1.9,2.68-4.6,4.17-4,2.21-7.15-.83-10.74,1.32-2.23,1.33-4,4.3-3.29,5.92,1.16,2.48,7.92.77,18.42.22,9.95-.53,8,.8,23.23.87,19.21.1,18.79-2,28.29-.44,5.39.9,9.53,2.25,10.73.44s-.86-6.61-4.38-8.33c-4.26-2.08-7.13,2-14,1.32C91.19,123.62,93.32,117.77,87.86,112.84Z" transform="translate(-30.6 -4.97)"/>
      <path id="Path_187526" data-name="Path 187526" class="cls-1" d="M451,102.93c-6-5.44-10.71-2.57-13.19-1.14-3.21,1.85-5.37,6.68-8.64,7.31-2.76.52-4.49-2.5-7.45-1.73-1.92.49-1.5,2.11-3.64,3.29-3.18,1.74-5.65-.66-8.49,1-1.76,1-3.19,3.39-2.6,4.67.91,2,6.26.61,14.55.17,7.87-.41,6.3.64,18.37.7,15.17.07,14.84-1.6,22.35-.35,4.26.71,7.53,1.77,8.49.35s-.69-5.23-3.47-6.59c-3.37-1.65-5.64,1.56-11.09,1C453.6,111.45,455.28,106.83,451,102.93Z" transform="translate(-30.6 -4.97)"/>
    </g>
  </g>
</svg>
