<svg xmlns="http://www.w3.org/2000/svg" viewBox="0 0 435.4 351.92">
  <defs>
    <style>
      .cls-1 {
        fill: #cfefff;
      }

      .cls-2 {
        fill: #3880a3;
      }

      .cls-16, .cls-20, .cls-3, .cls-5 {
        fill: none;
      }

      .cls-3 {
        stroke: #2b627d;
      }

      .cls-16, .cls-3, .cls-5 {
        stroke-miterlimit: 10;
      }

      .cls-4 {
        fill: #49a8d6;
      }

      .cls-5 {
        stroke: #3880a3;
      }

      .cls-6 {
        fill: #f7a714;
      }

      .cls-18, .cls-7 {
        fill: #fff;
      }

      .cls-8 {
        fill: #ffb939;
      }

      .cls-9 {
        fill: #f2ac29;
      }

      .cls-10 {
        fill: #003d57;
      }

      .cls-11 {
        fill: #ffc69a;
      }

      .cls-12 {
        fill: #eba26a;
      }

      .cls-13 {
        fill: #e6e6e6;
      }

      .cls-14 {
        fill: #999;
      }

      .cls-15 {
        fill: #005479;
      }

      .cls-16 {
        stroke: #fff;
      }

      .cls-16, .cls-20 {
        stroke-width: 0.25px;
      }

      .cls-17, .cls-18 {
        isolation: isolate;
      }

      .cls-18 {
        font-size: 14.51px;
        font-family: SegoeUI, Segoe UI;
      }

      .cls-19 {
        fill: #ffb47a;
      }

      .cls-20 {
        stroke: #003d57;
        stroke-linecap: round;
        stroke-linejoin: round;
      }

      .cls-21 {
        fill: #963815;
      }
    </style>
  </defs>
  <title>3-Leads-01</title>
  <g id="Layer_1" data-name="Layer 1">
    <g id="Group_5943" data-name="Group 5943">
      <path id="Path_186835" data-name="Path 186835" class="cls-1" d="M117.14,358.82a60,60,0,0,1-34.68-18.21c-10.7-11.21-10.67-18.91-9.63-23.54,2.3-10.19,33.32-6.75,38.74-22.86,3.56-10.59-8.26-16.84-9.92-36.07-1.48-17.12,5.69-37.52,17.86-45.44,17.33-11.27,40.72,5.36,61.3,13.21,89.73,34.23,171.34-81.23,229.9-43.77,20.75,13.26,37,44.7,32.7,69.3-4.27,24.42-28.65,41.19-22.86,51.74,3.91,7.12,16.09,1.45,25.39,10.51,9.73,9.48,9.87,28.81,6.19,37.7-9.52,22.93-53.63,4.55-145.14,9.12-57.84,2.88-84.57,13.41-146.13,2.85C151.47,361.75,135.28,361.52,117.14,358.82Z" transform="translate(-30.6 -16.05)"/>
      <g id="Group_5762" data-name="Group 5762">
        <path id="Path_186836" data-name="Path 186836" class="cls-2" d="M144.38,335.47c-6.44-20.94-13.93-39-20.83-38.45-5.44.45-7.35,12.22-11.94,12-8.15-.47-8.53-38-18-39.41-5-.75-7.17,16.38-14.32,16.74-5.91.3-7.24-10.9-19.14-19.1C53.28,262.45,41,257.46,35,262.1c-6.67,5.09-5.43,21.42,1.95,32,11.38,16.35,35.36,16.2,35,22.55-.27,5.43-17.95,7-18.38,14.12-.22,3.63,4.12,6.62,5.26,7.4,14.81,10.16,40.89-4.46,42.06-1.72.28.65-1,2-9.31,7.9-13.54,9.61-17.11,11-16.83,12.8.56,3.72,16.78,6.57,31.79,3.31C125.6,356.34,138.1,343.34,144.38,335.47Z" transform="translate(-30.6 -16.05)"/>
        <path id="Path_186837" data-name="Path 186837" class="cls-3" d="M139.31,335.91s-39.52-4.24-96.81-62.58" transform="translate(-30.6 -16.05)"/>
      </g>
      <g id="Group_5763" data-name="Group 5763">
        <path id="Path_186838" data-name="Path 186838" class="cls-4" d="M268.19,355.25c-15.53-15.53-28-30.65-24.29-36.5,2.95-4.6,14.28-.77,16.2-5,3.4-7.45-29.68-25.4-26.49-34.41,1.7-4.79,17.88,1.33,21.56-4.84,3-5.08-6.26-11.52-7.94-25.91-1-8.34.34-21.53,7.3-24.74,7.64-3.52,21.52,5.24,27.46,16.75,9.14,17.75-2.24,38.93,3.53,41.62,4.94,2.3,14.59-12.64,21.13-9.67,3.33,1.51,3.93,6.77,4.09,8.14,2.06,17.89-23.13,34.13-21.25,36.45.44.56,2.2.07,11.36-4.54,14.87-7.48,17.76-10,19.24-8.9,3,2.24-2,17.94-12,29.71C295.49,348.4,278.1,353.38,268.19,355.25Z" transform="translate(-30.6 -16.05)"/>
        <path id="Path_186839" data-name="Path 186839" class="cls-5" d="M271,351s14.78-37-10-115.12" transform="translate(-30.6 -16.05)"/>
      </g>
      <g id="Group_5764" data-name="Group 5764">
        <path id="Path_186840" data-name="Path 186840" class="cls-4" d="M362.55,336.86c-.79-21.95.35-41.54,7.07-43.27,5.3-1.36,11,9.16,15.24,7.4,7.57-3.13-4.43-38.81,4.05-43.24,4.5-2.35,12.18,13.16,19.06,11.15,5.69-1.66,3.28-12.7,11.84-24.38,5-6.78,14.92-15.53,22.21-13.14,8,2.62,12.19,18.49,8.69,31-5.39,19.23-28.15,27-25.76,32.88,2.05,5,19.29.68,22.06,7.32,1.4,3.37-1.73,7.62-2.55,8.74-10.67,14.5-40.18,9.24-40.39,12.21-.05.71,1.56,1.55,11.41,4.42,16,4.64,19.82,4.76,20.16,6.58.69,3.71-13.73,11.75-29,13.6C387.21,350.44,371.09,342.24,362.55,336.86Z" transform="translate(-30.6 -16.05)"/>
        <path id="Path_186841" data-name="Path 186841" class="cls-5" d="M367.51,335.61s36-17,71.06-91.13" transform="translate(-30.6 -16.05)"/>
      </g>
      <g id="Group_5765" data-name="Group 5765">
        <path id="Path_186842" data-name="Path 186842" class="cls-2" d="M279.25,354.85c-4.81-15.29-7.8-29.3-3.4-31.82,3.47-2,9.5,4.32,12.16,2.25,4.71-3.67-10.64-26.45-5.53-31.2,2.72-2.53,11.12,6.89,15.58,4.14,3.68-2.27-.16-9.57,3.61-19.45,2.18-5.73,7.49-13.82,13.08-13.55,6.13.3,12.16,10.66,12.11,20.11-.07,14.58-14.58,24.44-11.76,28.13,2.42,3.15,13.71-3.25,16.94.88,1.65,2.1.27,5.7-.1,6.64-4.7,12.27-26.49,14.29-26.06,16.43.1.5,1.4.78,8.89.89,12.15.17,14.87-.48,15.46.73,1.21,2.48-7.39,10.92-17.78,15.19C299.24,359.63,286.3,357,279.25,354.85Z" transform="translate(-30.6 -16.05)"/>
        <path id="Path_186843" data-name="Path 186843" class="cls-3" d="M282.5,353s22.05-19,32.36-77.89" transform="translate(-30.6 -16.05)"/>
      </g>
    </g>
  </g>
  <g id="Layer_2" data-name="Layer 2">
    <path id="Path_186706" data-name="Path 186706" class="cls-1" d="M249.35,22.41c-12-10.87-21.38-5.13-26.32-2.29-6.42,3.7-10.73,13.35-17.27,14.6-5.5,1-9-5-14.87-3.46-3.84,1-3,4.22-7.27,6.57-6.35,3.49-11.28-1.31-17,2.08-3.52,2.1-6.37,6.79-5.19,9.34,1.83,3.92,12.5,1.22,29.06.35,15.7-.83,12.56,1.26,36.67,1.38,30.3.15,29.65-3.18,44.63-.69,8.51,1.41,15,3.54,17,.69s-1.37-10.43-6.92-13.15c-6.72-3.28-11.25,3.11-22.14,2.08C254.62,39.42,258,30.19,249.35,22.41Z" transform="translate(-30.6 -16.05)"/>
    <path id="Path_186707" data-name="Path 186707" class="cls-1" d="M87.08,125.83c-7.1-6.42-12.63-3-15.55-1.35-3.8,2.18-6.34,7.89-10.21,8.62-3.25.62-5.29-2.95-8.79-2-2.26.59-1.76,2.49-4.29,3.88-3.75,2.06-6.67-.77-10,1.23-2.08,1.24-3.77,4-3.07,5.52,1.08,2.32,7.39.72,17.17.2,9.28-.49,7.43.75,21.67.82,17.9.09,17.52-1.88,26.36-.41,5,.84,8.89,2.09,10,.41s-.81-6.16-4.09-7.77c-4-1.94-6.65,1.84-13.08,1.23C90.19,135.88,92.17,130.43,87.08,125.83Z" transform="translate(-30.6 -16.05)"/>
    <path id="Path_186708" data-name="Path 186708" class="cls-1" d="M448.8,104.79c-5.16-4.67-9.18-2.2-11.31-1-2.76,1.59-4.61,5.74-7.42,6.27-2.37.45-3.86-2.14-6.39-1.48-1.65.43-1.29,1.81-3.13,2.82-2.73,1.5-4.85-.56-7.28.89-1.52.91-2.74,2.92-2.23,4,.78,1.68,5.37.52,12.49.15,6.75-.36,5.4.54,15.76.59,13,.07,12.74-1.36,19.18-.3,3.66.61,6.46,1.53,7.29.3s-.59-4.48-3-5.65c-2.89-1.41-4.84,1.34-9.52.89C451.07,112.11,452.51,108.14,448.8,104.79Z" transform="translate(-30.6 -16.05)"/>
    <g id="Group_5717" data-name="Group 5717">
      <g id="Group_5711" data-name="Group 5711">
        <path id="Path_186709" data-name="Path 186709" class="cls-6" d="M210,290.92a157.77,157.77,0,0,0-31.56-3,157.63,157.63,0,0,0-31.56,3H121.7v14.32c0,.1,0,.2,0,.3a2.68,2.68,0,0,0,0,.3v.55h.09c1.44,9.32,26.2,16.74,56.61,16.74s55.18-7.42,56.62-16.74h.14V290.92Z" transform="translate(-30.6 -16.05)"/>
        <path id="Path_186710" data-name="Path 186710" class="cls-7" d="M189.8,322.77v-15h-2.75v15.15C188,322.86,188.9,322.83,189.8,322.77Z" transform="translate(-30.6 -16.05)"/>
        <path id="Path_186711" data-name="Path 186711" class="cls-7" d="M203.09,321.37V305.54h-10.5v17C196.25,322.27,199.75,321.86,203.09,321.37Z" transform="translate(-30.6 -16.05)"/>
        <ellipse id="Ellipse_541" data-name="Ellipse 541" class="cls-8" cx="147.8" cy="275.5" rx="56.75" ry="17.59"/>
        <path id="Path_186712" data-name="Path 186712" class="cls-6" d="M178.4,279.38c23.94,0,43.48,5.78,45,13.08a4.77,4.77,0,0,0,.15-.92c0-7.73-20.22-14-45.16-14s-45.16,6.27-45.16,14a4.77,4.77,0,0,0,.15.92C134.93,285.16,154.46,279.38,178.4,279.38Z" transform="translate(-30.6 -16.05)"/>
      </g>
      <g id="Group_5712" data-name="Group 5712">
        <path id="Path_186713" data-name="Path 186713" class="cls-6" d="M210,271.76a157.77,157.77,0,0,0-31.56-3,157.63,157.63,0,0,0-31.56,3H121.7v14.32c0,.1,0,.2,0,.3a2.68,2.68,0,0,0,0,.3v.55h.09C123.23,296.55,148,304,178.4,304s55.18-7.42,56.62-16.74h.14V271.76Z" transform="translate(-30.6 -16.05)"/>
        <path id="Path_186714" data-name="Path 186714" class="cls-7" d="M189.8,303.61v-15h-2.75v15.15C188,303.7,188.9,303.67,189.8,303.61Z" transform="translate(-30.6 -16.05)"/>
        <path id="Path_186715" data-name="Path 186715" class="cls-7" d="M203.09,302.2V286.38h-10.5v17C196.25,303.11,199.75,302.7,203.09,302.2Z" transform="translate(-30.6 -16.05)"/>
        <ellipse id="Ellipse_542" data-name="Ellipse 542" class="cls-8" cx="147.8" cy="256.34" rx="56.75" ry="17.59"/>
        <path id="Path_186716" data-name="Path 186716" class="cls-6" d="M178.4,260.22c23.94,0,43.48,5.78,45,13.08a4.77,4.77,0,0,0,.15-.92c0-7.73-20.22-14-45.16-14s-45.16,6.27-45.16,14a4.77,4.77,0,0,0,.15.92C134.93,266,154.46,260.22,178.4,260.22Z" transform="translate(-30.6 -16.05)"/>
      </g>
      <g id="Group_5713" data-name="Group 5713">
        <path id="Path_186717" data-name="Path 186717" class="cls-6" d="M210,252.6a157.77,157.77,0,0,0-31.56-3,157.63,157.63,0,0,0-31.56,3H121.7v14.32c0,.1,0,.2,0,.3s0,.2,0,.3v.55h.09c1.44,9.32,26.2,16.74,56.61,16.74s55.18-7.42,56.62-16.74h.14V252.6Z" transform="translate(-30.6 -16.05)"/>
        <path id="Path_186718" data-name="Path 186718" class="cls-7" d="M189.8,284.45v-15h-2.75v15.15C188,284.54,188.9,284.51,189.8,284.45Z" transform="translate(-30.6 -16.05)"/>
        <path id="Path_186719" data-name="Path 186719" class="cls-7" d="M203.09,283V267.22h-10.5v17C196.25,284,199.75,283.54,203.09,283Z" transform="translate(-30.6 -16.05)"/>
        <ellipse id="Ellipse_543" data-name="Ellipse 543" class="cls-8" cx="147.8" cy="237.17" rx="56.75" ry="17.59"/>
        <path id="Path_186720" data-name="Path 186720" class="cls-6" d="M178.4,241.06c23.94,0,43.48,5.78,45,13.08a4.77,4.77,0,0,0,.15-.92c0-7.73-20.22-14-45.16-14s-45.16,6.27-45.16,14a4.77,4.77,0,0,0,.15.92C134.93,246.84,154.46,241.06,178.4,241.06Z" transform="translate(-30.6 -16.05)"/>
      </g>
      <g id="Group_5714" data-name="Group 5714">
        <path id="Path_186721" data-name="Path 186721" class="cls-6" d="M210,233.44a158.51,158.51,0,0,0-31.56-3,158.37,158.37,0,0,0-31.56,3H121.7v14.31c0,.11,0,.21,0,.31s0,.2,0,.3v.55h.09c1.44,9.32,26.2,16.74,56.61,16.74s55.18-7.42,56.62-16.74h.14V233.44Z" transform="translate(-30.6 -16.05)"/>
        <path id="Path_186722" data-name="Path 186722" class="cls-7" d="M189.8,265.29v-15h-2.75v15.15C188,265.38,188.9,265.35,189.8,265.29Z" transform="translate(-30.6 -16.05)"/>
        <path id="Path_186723" data-name="Path 186723" class="cls-7" d="M203.09,263.88V248.06h-10.5v17Q198.08,264.63,203.09,263.88Z" transform="translate(-30.6 -16.05)"/>
        <ellipse id="Ellipse_544" data-name="Ellipse 544" class="cls-8" cx="147.8" cy="218.01" rx="56.75" ry="17.59"/>
        <path id="Path_186724" data-name="Path 186724" class="cls-6" d="M178.4,221.9c23.94,0,43.48,5.78,45,13.08a4.77,4.77,0,0,0,.15-.92c0-7.73-20.22-14-45.16-14s-45.16,6.27-45.16,14a4.77,4.77,0,0,0,.15.92C134.93,227.68,154.46,221.9,178.4,221.9Z" transform="translate(-30.6 -16.05)"/>
      </g>
      <g id="Group_5715" data-name="Group 5715">
        <path id="Path_186725" data-name="Path 186725" class="cls-6" d="M210,214.28a157.77,157.77,0,0,0-31.56-3,157.63,157.63,0,0,0-31.56,3H121.7V228.6c0,.1,0,.2,0,.3a2.68,2.68,0,0,0,0,.3v.55h.09c1.44,9.32,26.2,16.74,56.61,16.74s55.18-7.42,56.62-16.74h.14V214.28Z" transform="translate(-30.6 -16.05)"/>
        <path id="Path_186726" data-name="Path 186726" class="cls-7" d="M189.8,246.14v-15h-2.75v15.15Z" transform="translate(-30.6 -16.05)"/>
        <path id="Path_186727" data-name="Path 186727" class="cls-7" d="M203.09,244.72V228.9h-10.5v17Q198.08,245.48,203.09,244.72Z" transform="translate(-30.6 -16.05)"/>
        <ellipse id="Ellipse_545" data-name="Ellipse 545" class="cls-8" cx="147.8" cy="198.85" rx="56.75" ry="17.59"/>
        <path id="Path_186728" data-name="Path 186728" class="cls-6" d="M178.4,202.74c23.94,0,43.48,5.78,45,13.08a4.77,4.77,0,0,0,.15-.92c0-7.73-20.22-14-45.16-14s-45.16,6.27-45.16,14a4.77,4.77,0,0,0,.15.92C134.93,208.52,154.46,202.74,178.4,202.74Z" transform="translate(-30.6 -16.05)"/>
      </g>
      <g id="Group_5716" data-name="Group 5716">
        <path id="Path_186729" data-name="Path 186729" class="cls-6" d="M210,195.12a157.77,157.77,0,0,0-31.56-3,157.63,157.63,0,0,0-31.56,3H121.7v14.31c0,.11,0,.21,0,.31s0,.2,0,.3v.55h.09c1.44,9.31,26.2,16.74,56.61,16.74s55.18-7.43,56.62-16.74h.14V195.12Z" transform="translate(-30.6 -16.05)"/>
        <path id="Path_186730" data-name="Path 186730" class="cls-7" d="M189.8,227V212h-2.75v15.15C188,227.06,188.9,227,189.8,227Z" transform="translate(-30.6 -16.05)"/>
        <path id="Path_186731" data-name="Path 186731" class="cls-7" d="M203.09,225.56V209.74h-10.5v17Q198.08,226.31,203.09,225.56Z" transform="translate(-30.6 -16.05)"/>
        <ellipse id="Ellipse_546" data-name="Ellipse 546" class="cls-8" cx="147.8" cy="179.69" rx="56.75" ry="17.59"/>
        <path id="Path_186732" data-name="Path 186732" class="cls-6" d="M178.4,183.58c23.94,0,43.48,5.78,45,13.08a4.77,4.77,0,0,0,.15-.92c0-7.73-20.22-14-45.16-14s-45.16,6.27-45.16,14a4.77,4.77,0,0,0,.15.92C134.93,189.36,154.46,183.58,178.4,183.58Z" transform="translate(-30.6 -16.05)"/>
      </g>
    </g>
    <g id="Group_5727" data-name="Group 5727">
      <g id="Group_5718" data-name="Group 5718">
        <path id="Path_186733" data-name="Path 186733" class="cls-6" d="M347.59,290.92a169.11,169.11,0,0,0-63.11,0H259.33v14.32c0,.1-.05.2-.05.3s.05.2.05.31v.54h.09c1.45,9.32,26.2,16.74,56.62,16.74s55.17-7.42,56.61-16.74h.14V290.92Z" transform="translate(-30.6 -16.05)"/>
        <path id="Path_186734" data-name="Path 186734" class="cls-7" d="M327.43,322.77v-15h-2.74v15.15C325.61,322.86,326.53,322.83,327.43,322.77Z" transform="translate(-30.6 -16.05)"/>
        <path id="Path_186735" data-name="Path 186735" class="cls-7" d="M340.72,321.37V305.54h-10.5v17C333.88,322.27,337.39,321.87,340.72,321.37Z" transform="translate(-30.6 -16.05)"/>
        <ellipse id="Ellipse_547" data-name="Ellipse 547" class="cls-8" cx="285.44" cy="275.5" rx="56.75" ry="17.59"/>
        <path id="Path_186736" data-name="Path 186736" class="cls-6" d="M316,279.38c24,0,43.48,5.78,45,13.08a3.61,3.61,0,0,0,.15-.92c0-7.73-20.22-14-45.16-14s-45.15,6.27-45.15,14a4.77,4.77,0,0,0,.15.92C272.56,285.16,292.09,279.38,316,279.38Z" transform="translate(-30.6 -16.05)"/>
      </g>
      <g id="Group_5719" data-name="Group 5719">
        <path id="Path_186737" data-name="Path 186737" class="cls-6" d="M347.59,271.76a169.11,169.11,0,0,0-63.11,0H259.33v14.32c0,.1-.05.2-.05.3s.05.2.05.3v.55h.09C260.87,296.55,285.62,304,316,304s55.17-7.42,56.61-16.74h.14V271.76Z" transform="translate(-30.6 -16.05)"/>
        <path id="Path_186738" data-name="Path 186738" class="cls-7" d="M327.43,303.61v-15h-2.74v15.15C325.61,303.7,326.53,303.67,327.43,303.61Z" transform="translate(-30.6 -16.05)"/>
        <path id="Path_186739" data-name="Path 186739" class="cls-7" d="M340.72,302.2V286.38h-10.5v17C333.88,303.11,337.39,302.7,340.72,302.2Z" transform="translate(-30.6 -16.05)"/>
        <ellipse id="Ellipse_548" data-name="Ellipse 548" class="cls-8" cx="285.44" cy="256.34" rx="56.75" ry="17.59"/>
        <path id="Path_186740" data-name="Path 186740" class="cls-6" d="M316,260.22c24,0,43.48,5.78,45,13.08a3.61,3.61,0,0,0,.15-.92c0-7.73-20.22-14-45.16-14s-45.15,6.27-45.15,14a4.77,4.77,0,0,0,.15.92C272.56,266,292.09,260.22,316,260.22Z" transform="translate(-30.6 -16.05)"/>
      </g>
      <g id="Group_5720" data-name="Group 5720">
        <path id="Path_186741" data-name="Path 186741" class="cls-6" d="M347.59,252.6a168.7,168.7,0,0,0-63.11,0H259.33v14.32c0,.1-.05.2-.05.3s.05.2.05.31v.54h.09c1.45,9.32,26.2,16.74,56.62,16.74s55.17-7.42,56.61-16.74h.14V252.6Z" transform="translate(-30.6 -16.05)"/>
        <path id="Path_186742" data-name="Path 186742" class="cls-7" d="M327.43,284.45v-15h-2.74v15.15C325.61,284.54,326.53,284.51,327.43,284.45Z" transform="translate(-30.6 -16.05)"/>
        <path id="Path_186743" data-name="Path 186743" class="cls-7" d="M340.72,283V267.22h-10.5v17C333.88,284,337.39,283.55,340.72,283Z" transform="translate(-30.6 -16.05)"/>
        <ellipse id="Ellipse_549" data-name="Ellipse 549" class="cls-8" cx="285.44" cy="237.18" rx="56.75" ry="17.59"/>
        <path id="Path_186744" data-name="Path 186744" class="cls-6" d="M316,241.06c24,0,43.48,5.78,45,13.08a3.61,3.61,0,0,0,.15-.92c0-7.73-20.22-14-45.16-14s-45.15,6.27-45.15,14a4.77,4.77,0,0,0,.15.92C272.56,246.84,292.09,241.06,316,241.06Z" transform="translate(-30.6 -16.05)"/>
      </g>
      <g id="Group_5721" data-name="Group 5721">
        <path id="Path_186745" data-name="Path 186745" class="cls-6" d="M347.59,233.44a168.7,168.7,0,0,0-63.11,0H259.33v14.32c0,.1-.05.2-.05.3s.05.2.05.3v.55h.09c1.45,9.32,26.2,16.74,56.62,16.74s55.17-7.42,56.61-16.74h.14V233.44Z" transform="translate(-30.6 -16.05)"/>
        <path id="Path_186746" data-name="Path 186746" class="cls-7" d="M327.43,265.29v-15h-2.74v15.15C325.61,265.38,326.53,265.35,327.43,265.29Z" transform="translate(-30.6 -16.05)"/>
        <path id="Path_186747" data-name="Path 186747" class="cls-7" d="M340.72,263.88V248.06h-10.5v17C333.88,264.78,337.39,264.38,340.72,263.88Z" transform="translate(-30.6 -16.05)"/>
        <ellipse id="Ellipse_550" data-name="Ellipse 550" class="cls-8" cx="285.44" cy="218.01" rx="56.75" ry="17.59"/>
        <path id="Path_186748" data-name="Path 186748" class="cls-6" d="M316,221.9c24,0,43.48,5.78,45,13.08a3.61,3.61,0,0,0,.15-.92c0-7.73-20.22-14-45.16-14s-45.15,6.27-45.15,14a4.77,4.77,0,0,0,.15.92C272.56,227.68,292.09,221.9,316,221.9Z" transform="translate(-30.6 -16.05)"/>
      </g>
      <g id="Group_5722" data-name="Group 5722">
        <path id="Path_186749" data-name="Path 186749" class="cls-6" d="M347.59,214.28a169.11,169.11,0,0,0-63.11,0H259.33V228.6c0,.1-.05.2-.05.3s.05.2.05.3v.55h.09c1.45,9.32,26.2,16.74,56.62,16.74s55.17-7.42,56.61-16.74h.14V214.28Z" transform="translate(-30.6 -16.05)"/>
        <path id="Path_186750" data-name="Path 186750" class="cls-7" d="M327.43,246.14v-15h-2.74v15.15Z" transform="translate(-30.6 -16.05)"/>
        <path id="Path_186751" data-name="Path 186751" class="cls-7" d="M340.72,244.72V228.9h-10.5v17C333.88,245.62,337.39,245.22,340.72,244.72Z" transform="translate(-30.6 -16.05)"/>
        <ellipse id="Ellipse_551" data-name="Ellipse 551" class="cls-8" cx="285.44" cy="198.85" rx="56.75" ry="17.59"/>
        <path id="Path_186752" data-name="Path 186752" class="cls-6" d="M316,202.74c24,0,43.48,5.78,45,13.08a3.61,3.61,0,0,0,.15-.92c0-7.73-20.22-14-45.16-14s-45.15,6.27-45.15,14a4.77,4.77,0,0,0,.15.92C272.56,208.52,292.09,202.74,316,202.74Z" transform="translate(-30.6 -16.05)"/>
      </g>
      <g id="Group_5723" data-name="Group 5723">
        <path id="Path_186753" data-name="Path 186753" class="cls-6" d="M347.59,195.12a169.11,169.11,0,0,0-63.11,0H259.33v14.32c0,.1-.05.2-.05.3s.05.2.05.3v.55h.09c1.45,9.32,26.2,16.74,56.62,16.74s55.17-7.42,56.61-16.74h.14V195.12Z" transform="translate(-30.6 -16.05)"/>
        <path id="Path_186754" data-name="Path 186754" class="cls-7" d="M327.43,227V212h-2.74v15.15C325.61,227.06,326.53,227,327.43,227Z" transform="translate(-30.6 -16.05)"/>
        <path id="Path_186755" data-name="Path 186755" class="cls-7" d="M340.72,225.56V209.74h-10.5v17C333.88,226.46,337.39,226.06,340.72,225.56Z" transform="translate(-30.6 -16.05)"/>
        <ellipse id="Ellipse_552" data-name="Ellipse 552" class="cls-8" cx="285.44" cy="179.69" rx="56.75" ry="17.59"/>
        <path id="Path_186756" data-name="Path 186756" class="cls-6" d="M316,183.58c24,0,43.48,5.78,45,13.08a3.61,3.61,0,0,0,.15-.92c0-7.73-20.22-14-45.16-14s-45.15,6.27-45.15,14a4.77,4.77,0,0,0,.15.92C272.56,189.36,292.09,183.58,316,183.58Z" transform="translate(-30.6 -16.05)"/>
      </g>
      <g id="Group_5724" data-name="Group 5724">
        <path id="Path_186757" data-name="Path 186757" class="cls-6" d="M347.59,177.52a169.11,169.11,0,0,0-63.11,0H259.33v14.32c0,.11-.05.2-.05.31s.05.2.05.3V193h.09c1.45,9.33,26.2,16.75,56.61,16.75s55.18-7.42,56.62-16.75h.14V177.52Z" transform="translate(-30.6 -16.05)"/>
        <path id="Path_186758" data-name="Path 186758" class="cls-7" d="M327.43,209.38v-15h-2.74v15.14Z" transform="translate(-30.6 -16.05)"/>
        <path id="Path_186759" data-name="Path 186759" class="cls-7" d="M340.72,208V192.15h-10.5v17C333.88,208.87,337.39,208.47,340.72,208Z" transform="translate(-30.6 -16.05)"/>
        <ellipse id="Ellipse_553" data-name="Ellipse 553" class="cls-8" cx="285.44" cy="162.1" rx="56.75" ry="17.59"/>
        <path id="Path_186760" data-name="Path 186760" class="cls-6" d="M316,166c24,0,43.48,5.77,45,13.08a3.61,3.61,0,0,0,.15-.92c0-7.73-20.22-14-45.16-14s-45.15,6.27-45.15,14a4.77,4.77,0,0,0,.15.92C272.56,171.76,292.09,166,316,166Z" transform="translate(-30.6 -16.05)"/>
      </g>
      <g id="Group_5725" data-name="Group 5725">
        <path id="Path_186761" data-name="Path 186761" class="cls-6" d="M347.59,159.93a169.11,169.11,0,0,0-63.11,0H259.33v14.32c0,.1-.05.2-.05.31s.05.19.05.3v.54h.09c1.45,9.32,26.2,16.75,56.62,16.75s55.17-7.43,56.61-16.75h.14V159.93Z" transform="translate(-30.6 -16.05)"/>
        <path id="Path_186762" data-name="Path 186762" class="cls-7" d="M327.43,191.79v-15h-2.74v15.15Z" transform="translate(-30.6 -16.05)"/>
        <path id="Path_186763" data-name="Path 186763" class="cls-7" d="M340.72,190.38V174.55h-10.5v17C333.88,191.28,337.39,190.87,340.72,190.38Z" transform="translate(-30.6 -16.05)"/>
        <ellipse id="Ellipse_554" data-name="Ellipse 554" class="cls-8" cx="285.44" cy="144.51" rx="56.75" ry="17.59"/>
        <path id="Path_186764" data-name="Path 186764" class="cls-6" d="M316,148.39c24,0,43.48,5.78,45,13.08a3.61,3.61,0,0,0,.15-.92c0-7.73-20.22-14-45.16-14s-45.15,6.26-45.15,14a4.77,4.77,0,0,0,.15.92C272.56,154.17,292.09,148.39,316,148.39Z" transform="translate(-30.6 -16.05)"/>
      </g>
      <g id="Group_5726" data-name="Group 5726">
        <path id="Path_186765" data-name="Path 186765" class="cls-6" d="M279.26,333A158,158,0,0,0,251.93,317a158.19,158.19,0,0,0-29.85-10.66L199.3,295.69l-6.06,13c-.05.09-.13.16-.18.26s0,.2-.08.29l-.23.5.08,0C190.19,318.8,209.48,336,237,348.87s53.13,16.62,58.38,8.79l.13.06,6.54-14Z" transform="translate(-30.6 -16.05)"/>
        <path id="Path_186766" data-name="Path 186766" class="cls-7" d="M247.52,353.37l6.35-13.6-2.48-1.16L245,352.34C245.82,352.68,246.68,353,247.52,353.37Z" transform="translate(-30.6 -16.05)"/>
        <path id="Path_186767" data-name="Path 186767" class="cls-7" d="M260.16,357.72l6.69-14.34-9.51-4.44-7.2,15.41C253.58,355.64,256.93,356.77,260.16,357.72Z" transform="translate(-30.6 -16.05)"/>
        <ellipse id="Ellipse_555" data-name="Ellipse 555" class="cls-8" cx="250.41" cy="320.25" rx="17.59" ry="56.75" transform="translate(-176.32 395.57) rotate(-64.96)"/>
        <path id="Path_186768" data-name="Path 186768" class="cls-6" d="M255.55,309.23c21.69,10.14,36.95,23.64,35.25,30.9a4,4,0,0,0,.52-.77c3.27-7-12.39-21.24-35-31.79s-43.57-13.43-46.84-6.43a4.62,4.62,0,0,0-.25.9C213.72,296.07,233.87,299.1,255.55,309.23Z" transform="translate(-30.6 -16.05)"/>
      </g>
    </g>
    <g id="Group_5739" data-name="Group 5739">
      <path id="Path_186769" data-name="Path 186769" class="cls-9" d="M167.44,99.79s0,11.06-.74,17.3-4.77,5.49-4.77,5.49,23.55,8.78,33.42-6.85c0,0-5,.22-5.84-6.67s0-13.2-10.87-14.88Z" transform="translate(-30.6 -16.05)"/>
      <g id="Group_5738" data-name="Group 5738">
        <path id="Path_186770" data-name="Path 186770" class="cls-10" d="M164.89,174h0a24.57,24.57,0,0,0,19.45,3l11.13-2.92,9.87,9.07-48.54,2.36Z" transform="translate(-30.6 -16.05)"/>
        <path id="Path_186771" data-name="Path 186771" class="cls-4" d="M173.05,123.68s-7,36.06-11.14,46.44c-1,2.6-3.2,3.63-6.67,2.57C155.24,172.69,151.29,123.17,173.05,123.68Z" transform="translate(-30.6 -16.05)"/>
        <path id="Path_186772" data-name="Path 186772" class="cls-4" d="M178.62,120.78l-8.48,3.15-5.48,15.35h29.19L188.69,123l-4.05-.91Z" transform="translate(-30.6 -16.05)"/>
        <path id="Path_186773" data-name="Path 186773" class="cls-4" d="M207.92,172.77c.69-2.09,0-4.28-1.51-4.92s-3.32.55-4,2.63,0,4.28,1.51,4.91S207.22,174.85,207.92,172.77Z" transform="translate(-30.6 -16.05)"/>
        <g id="Group_5728" data-name="Group 5728">
          <path id="Path_186774" data-name="Path 186774" class="cls-11" d="M181.16,96.84s9.91,29-.71,33.08c-8.74,3.4-3.64-26.86-3.64-26.86" transform="translate(-30.6 -16.05)"/>
          <path id="Path_186775" data-name="Path 186775" class="cls-12" d="M175.93,126.19s6-2.84,5.89-8.25l-6.53,4,.2,1.79c0,.18,0,.36.08.53l.18,1Z" transform="translate(-30.6 -16.05)"/>
          <path id="Path_186776" data-name="Path 186776" class="cls-11" d="M168.4,105.59s-2.16,11,6.48,17.07c2.39,1.66,11.37-1.57,11.38-18.61C186.27,91.18,168.29,92.53,168.4,105.59Z" transform="translate(-30.6 -16.05)"/>
          <path id="Path_186777" data-name="Path 186777" class="cls-11" d="M184.87,113c1.46.13,2.78-1.36,2.95-3.32s-.88-3.65-2.34-3.78-2.78,1.36-2.95,3.32S183.41,112.91,184.87,113Z" transform="translate(-30.6 -16.05)"/>
          <path id="Path_186778" data-name="Path 186778" class="cls-11" d="M169.27,112c-1,.37-1.49,1.79-1,3.18S170,117.36,171,117s1.48-1.79,1-3.18S170.31,111.59,169.27,112Z" transform="translate(-30.6 -16.05)"/>
          <path id="Path_186779" data-name="Path 186779" class="cls-9" d="M165.83,113.74s12.72,1.57,17.82-7.9c0,0,.39-.18,2.14,2.46,0,0,4.63-12.19-4.91-13.83C159.64,90.83,165.83,113.74,165.83,113.74Z" transform="translate(-30.6 -16.05)"/>
        </g>
        <path id="Path_186780" data-name="Path 186780" class="cls-4" d="M165,129.56s-3.32,19.11-3.05,25.09c.18,3.92,3.23,7.22,3.23,7.22l.69,5-1.53,7.85h0a24.8,24.8,0,0,0,18,3.08l13.43-3.74-2-4.32,6.09-20.5-4.72-15.87Z" transform="translate(-30.6 -16.05)"/>
        <path id="Path_186781" data-name="Path 186781" class="cls-13" d="M180.59,156.75h-5.34a1,1,0,0,1-1.1-.85L173,145.22a1,1,0,0,1,1-1h8.27a1,1,0,0,1,1.1.91v.15l-1.65,10.69A1.07,1.07,0,0,1,180.59,156.75Z" transform="translate(-30.6 -16.05)"/>
        <path id="Path_186782" data-name="Path 186782" class="cls-14" d="M180.42,156.33h-5a1,1,0,0,1-1-.75l-1.1-9.3c0-.48.42-.89,1-.89H182c.62,0,1.11.43,1,.92l-1.55,9.3A1,1,0,0,1,180.42,156.33Z" transform="translate(-30.6 -16.05)"/>
        <path id="Path_186783" data-name="Path 186783" class="cls-2" d="M199.72,149.75s-5.13,10.63-7.86,11.6,1.59-.34,2.95,1.69,1.12,3.12,1.12,3.12Z" transform="translate(-30.6 -16.05)"/>
        <path id="Path_186784" data-name="Path 186784" class="cls-11" d="M170.45,155.58s4.25.81,2.87,3c-5.46,8.46-10.38,15.79-16,16a2,2,0,0,1-2.06-2,1.77,1.77,0,0,1,.05-.51C155.88,169.47,158.9,164.44,170.45,155.58Z" transform="translate(-30.6 -16.05)"/>
        <path id="Path_186785" data-name="Path 186785" class="cls-4" d="M207.28,140.44s-7.91-.83-9,3.53c-1.51,5.81.65,16.07,2.15,24.91.76,4.43,2.18,6.74,7.53,3.89C207.92,172.77,211.52,150.67,207.28,140.44Z" transform="translate(-30.6 -16.05)"/>
        <path id="Path_186786" data-name="Path 186786" class="cls-4" d="M188.69,123s14.38,2.36,19.37,19.46c0,0-8.24,6.8-12.06,10.27l-2.15-13.48Z" transform="translate(-30.6 -16.05)"/>
        <path id="Path_186787" data-name="Path 186787" class="cls-11" d="M182.69,154c-1.22-.55,13.73,24.2,22.47,21.07C205.16,175.05,218,170.11,182.69,154Z" transform="translate(-30.6 -16.05)"/>
        <path id="Path_186788" data-name="Path 186788" class="cls-11" d="M180.41,149.17c-.06-2.57-1.41-1-2.07-.42l1.12-1.57c1.36-2.25-.39-1.4-.77-.92L171,152.43a3.84,3.84,0,0,0-1.1,1.42l-1.56,3.38,4.29,2.36,3.7-2.39C176.46,157,180.48,151.74,180.41,149.17Z" transform="translate(-30.6 -16.05)"/>
        <path id="Path_186789" data-name="Path 186789" class="cls-11" d="M170.43,153s1.91-6.27,2.12-6c1.29,1.72.57,6.31.55,6.05Z" transform="translate(-30.6 -16.05)"/>
        <path id="Path_186790" data-name="Path 186790" class="cls-11" d="M177.47,152.44c.1-2.57.19-3.23.84-2.63l-.46-.67c-1.34-2.26.39-1.4.77-.91l6.74,3.77a4.33,4.33,0,0,1,1.7,1.87l1.45,2.89-2.93,2.47-5.7-2.47C179.76,156.54,177.37,155,177.47,152.44Z" transform="translate(-30.6 -16.05)"/>
        <path id="Path_186791" data-name="Path 186791" class="cls-11" d="M186.31,152.76l-2.68-5.11c-1.26.27-.27,4.64-.27,4.64Z" transform="translate(-30.6 -16.05)"/>
        <g id="Group_5732" data-name="Group 5732">
          <g id="Group_5729" data-name="Group 5729">
            <path id="Path_186792" data-name="Path 186792" class="cls-11" d="M127.56,182.06s22.49-12,70.06,4.15c9.47,3.22,13.52,3,13.52,3l4.76,3.08-2,2.08c-3.14-1.52-5-.41-7.61-.4h-1.85c-11.36,1.26-31.6,3.16-55.44,3.82C119.51,198.57,127.56,182.06,127.56,182.06Z" transform="translate(-30.6 -16.05)"/>
          </g>
          <g id="Group_5730" data-name="Group 5730">
            <path id="Path_186793" data-name="Path 186793" class="cls-10" d="M127.06,183.3a5.49,5.49,0,0,1,2-2.64c1.77-1.3,5.19-3.65,15.72-5.12,11.36-1.58,37.82,6.25,37.82,6.25L182.33,196s-34.86,3.58-45.4,1.07c-5.42-1.29-7-3.28-8.41-4.73A9.25,9.25,0,0,1,127.06,183.3Z" transform="translate(-30.6 -16.05)"/>
          </g>
          <g id="Group_5731" data-name="Group 5731">
            <path id="Path_186794" data-name="Path 186794" class="cls-4" d="M214,193.66s9.51,7.45,15.43,10.19c4.74,2.19,6.78,1.4,3.46-3.18-3-4.1-6.39-8.69-9.45-12.34-.62-.74-5.29-.74-4.62-1.31,1.67-1.45,1.47-1.9,1.47-1.9-.4-.41-1.65-1.92-2.13-2,0,0-6.72,4.85-7.39,6Z" transform="translate(-30.6 -16.05)"/>
            <path id="Path_186795" data-name="Path 186795" class="cls-11" d="M213.37,192.82l-3,.37-3-2,3.28-2.08Z" transform="translate(-30.6 -16.05)"/>
          </g>
          <path id="Path_186796" data-name="Path 186796" class="cls-11" d="M210.73,189.67s5.74,1.62,6.28,6.29l-4.29-2.21Z" transform="translate(-30.6 -16.05)"/>
        </g>
        <g id="Group_5736" data-name="Group 5736">
          <g id="Group_5733" data-name="Group 5733">
            <path id="Path_186797" data-name="Path 186797" class="cls-11" d="M224.57,182.58s-22.48-12-70,4.14c-9.47,3.21-13.52,3-13.52,3l-4.76,3.08-.24,3.62c2.6-2.43,7.31-2,9.88-1.94h1.85c11.36,1.27,31.6,3.16,55.44,3.82C232.63,199.08,224.57,182.58,224.57,182.58Z" transform="translate(-30.6 -16.05)"/>
          </g>
          <g id="Group_5734" data-name="Group 5734">
            <path id="Path_186798" data-name="Path 186798" class="cls-15" d="M225.08,183.81a5.56,5.56,0,0,0-2-2.65c-1.77-1.3-5.19-3.65-15.72-5.11-11.37-1.58-37.82,6.24-37.82,6.24l.23,14.23s34.87,3.57,45.4,1.06c5.43-1.28,7-3.27,8.42-4.72A9.25,9.25,0,0,0,225.08,183.81Z" transform="translate(-30.6 -16.05)"/>
          </g>
          <g id="Group_5735" data-name="Group 5735">
            <path id="Path_186799" data-name="Path 186799" class="cls-4" d="M139.05,194.08s-9.51,7.45-15.43,10.19c-4.74,2.2-6.79,1.41-3.46-3.18,3-4.09,6.39-8.68,9.44-12.33.63-.75,5.29-.74,4.63-1.32-1.67-1.45-1.47-1.89-1.47-1.89.4-.42,1.64-1.93,2.13-2,0,0,6.72,4.85,7.38,6Z" transform="translate(-30.6 -16.05)"/>
            <path id="Path_186800" data-name="Path 186800" class="cls-11" d="M139.63,193.25l3,.36,3-2-3.28-2.07Z" transform="translate(-30.6 -16.05)"/>
          </g>
          <path id="Path_186801" data-name="Path 186801" class="cls-11" d="M142.27,190.09s-5.74,1.62-6.27,6.29l4.28-2.21Z" transform="translate(-30.6 -16.05)"/>
        </g>
        <path id="Path_186802" data-name="Path 186802" class="cls-12" d="M174,118.76l3.64-.73S179.15,120.15,174,118.76Z" transform="translate(-30.6 -16.05)"/>
        <g id="Group_5737" data-name="Group 5737">
          <path id="Path_186803" data-name="Path 186803" class="cls-16" d="M182.05,115.14a2.41,2.41,0,1,1-2.7-2.07l.21,0A2.3,2.3,0,0,1,182.05,115.14Z" transform="translate(-30.6 -16.05)"/>
          <path id="Path_186804" data-name="Path 186804" class="cls-16" d="M173.86,116.76a2.41,2.41,0,1,1-2.7-2.08l.22,0A2.3,2.3,0,0,1,173.86,116.76Z" transform="translate(-30.6 -16.05)"/>
          <path id="Path_186805" data-name="Path 186805" class="cls-16" d="M173.75,116.19s.94-2,3.46-.64" transform="translate(-30.6 -16.05)"/>
        </g>
      </g>
      <path id="Path_186806" data-name="Path 186806" class="cls-7" d="M203.16,165.22s2.22,6.7-.11,11.74c0,0,3.17,1.29,5.13.15,0,0,1.56-7.93-.75-11Z" transform="translate(-30.6 -16.05)"/>
      <path id="Path_186807" data-name="Path 186807" class="cls-7" d="M160.26,164.65s-2.11,6.28.09,11c0,0-3,1.22-4.87.15,0,0-1.46-7.44.74-10.35Z" transform="translate(-30.6 -16.05)"/>
      <rect id="Rectangle_6620" data-name="Rectangle 6620" class="cls-15" x="137.47" y="163.74" width="6.31" height="19.47"/>
      <path id="Path_186808" data-name="Path 186808" class="cls-7" d="M179.41,130.24l5.75-8,1.1,10.64Z" transform="translate(-30.6 -16.05)"/>
      <path id="Path_186809" data-name="Path 186809" class="cls-7" d="M175.4,122.9l-2,10,6-2.63Z" transform="translate(-30.6 -16.05)"/>
    </g>
    <g id="Group_5741" data-name="Group 5741">
      <g id="Group_5740" data-name="Group 5740">
        <rect id="Rectangle_6621" data-name="Rectangle 6621" class="cls-4" x="93.78" y="69.84" width="26.14" height="21.66"/>
        <path id="Path_186810" data-name="Path 186810" class="cls-4" d="M143.42,103.3v8.5L136,104.38Z" transform="translate(-30.6 -16.05)"/>
      </g>
      <g id="_" data-name=" " class="cls-17">
        <text class="cls-18" transform="translate(102.16 85.34)">$</text>
      </g>
    </g>
    <g id="Group_5743" data-name="Group 5743">
      <g id="Group_5742" data-name="Group 5742">
        <rect id="Rectangle_6622" data-name="Rectangle 6622" class="cls-4" x="308.83" y="41.18" width="26.14" height="21.66"/>
        <path id="Path_186811" data-name="Path 186811" class="cls-4" d="M358.48,74.64v8.51l-7.42-7.43Z" transform="translate(-30.6 -16.05)"/>
      </g>
      <g id="_2" data-name=" 2" class="cls-17">
        <text class="cls-18" transform="translate(318.25 56.69)">$</text>
      </g>
    </g>
    <g id="Group_5754" data-name="Group 5754">
      <g id="Group_5753" data-name="Group 5753">
        <g id="Group_5744" data-name="Group 5744">
          <path id="Path_186812" data-name="Path 186812" class="cls-2" d="M302.06,89.24S308.58,88,317,99.73a175.47,175.47,0,0,0,14.53,18.1l14.9-13.49,3.54,2.72s-18.57,23.79-21.19,24C319.8,131.94,282.41,91.83,302.06,89.24Z" transform="translate(-30.6 -16.05)"/>
          <path id="Path_186813" data-name="Path 186813" class="cls-19" d="M348.69,108.4s6.65-5.42,6.28-7.15c-.6-2.84.53-9.94-1.61-5.81-1.34,2.61-2.81,6.94-4.27,6.15s2.76-3.41.47-5.19l-2.88,4.85a4.31,4.31,0,0,0,.23,4.72Z" transform="translate(-30.6 -16.05)"/>
          <rect id="Rectangle_6623" data-name="Rectangle 6623" class="cls-2" x="344.35" y="103.59" width="4.33" height="7.8" transform="translate(-15.74 238.51) rotate(-41.15)"/>
        </g>
        <path id="Rectangle_6624" data-name="Rectangle 6624" class="cls-13" d="M357.91,91.71l1.19.82a.39.39,0,0,1,.1.54h0l-9.62,14h0l-1.51-1h0l9.84-14.28Z" transform="translate(-30.6 -16.05)"/>
        <path id="Path_186814" data-name="Path 186814" class="cls-7" d="M348.07,106l-.94-1.54a.32.32,0,0,1,0-.34L355.51,92a.31.31,0,0,1,.24-.13l2.17-.13Z" transform="translate(-30.6 -16.05)"/>
        <g id="Group_5748" data-name="Group 5748">
          <g id="Group_5745" data-name="Group 5745">
            <path id="Path_186815" data-name="Path 186815" class="cls-11" d="M334.36,228.24l1.54-4.36-6,.2-.06,3.84Z" transform="translate(-30.6 -16.05)"/>
            <path id="Path_186816" data-name="Path 186816" class="cls-10" d="M334.83,227.59a175.75,175.75,0,0,0,18.65,9.76c5.17,2.29,4.79,5.79-1.27,4.93-5-.72-10.62-1.59-15.42-2.57-.85-.18-2.64-3.35-3.43-3.53s-.4,2.68-1,2.52a30.15,30.15,0,0,0-4.22-.68c.73.23,1-9.66,1.83-11.07Z" transform="translate(-30.6 -16.05)"/>
          </g>
          <g id="Group_5746" data-name="Group 5746">
            <path id="Path_186817" data-name="Path 186817" class="cls-20" d="M337.21,228.82" transform="translate(-30.6 -16.05)"/>
            <path id="Path_186818" data-name="Path 186818" class="cls-20" d="M337.21,228.8" transform="translate(-30.6 -16.05)"/>
          </g>
          <g id="Group_5747" data-name="Group 5747">
            <path id="Path_186819" data-name="Path 186819" class="cls-10" d="M318.61,145.68l-12.46,4s12.05,3.78,25.22,27c0,0-3.27,39.94-1.37,48.78l5.51.33s13.38-50.94,11.21-57.92C343.41,157.11,338.81,154.83,318.61,145.68Z" transform="translate(-30.6 -16.05)"/>
          </g>
        </g>
        <g id="Group_5751" data-name="Group 5751">
          <g id="Group_5749" data-name="Group 5749">
            <path id="Path_186820" data-name="Path 186820" class="cls-15" d="M322.76,229.66a173.06,173.06,0,0,0,18.65,9.76c5.17,2.3,4.79,5.79-1.27,4.93-5-.71-10.62-1.59-15.42-2.57-.85-.17-2.64-3.35-3.43-3.52s-.4,2.67-1,2.51a28.65,28.65,0,0,0-4.23-.67c.74.22,1-9.67,1.84-11.07Z" transform="translate(-30.6 -16.05)"/>
            <path id="Path_186821" data-name="Path 186821" class="cls-11" d="M322.76,229.66l2-4.66-6.56-.17-.31,4.2Z" transform="translate(-30.6 -16.05)"/>
          </g>
          <g id="Group_5750" data-name="Group 5750">
            <path id="Path_186822" data-name="Path 186822" class="cls-15" d="M313,146.3,289,152.51s-1.75,4.73,2.07,14.21c2.23,5.55,13.2,7.58,31.74,6.41,0,0-6.15,43.4-4.65,53.16l6,.72s18.93-51.48,16.74-59.16C337,154,319.15,148.29,313,146.3Z" transform="translate(-30.6 -16.05)"/>
          </g>
        </g>
        <g id="Group_5752" data-name="Group 5752">
          <path id="Path_186823" data-name="Path 186823" class="cls-11" d="M322.85,70.35c1.4,4.73.13,10.25-2.35,14.71-2.68,4.84-10.34,1.1-13.08-3.69-2.43-4.24-2.27-10.38.78-13.86C312.15,63,321,64,322.85,70.35Z" transform="translate(-30.6 -16.05)"/>
          <path id="Path_186824" data-name="Path 186824" class="cls-11" d="M315.1,73.61l-8.36-3.42-8.26,20.22a5.66,5.66,0,0,0,3.1,7.39h0A5.67,5.67,0,0,0,309,94.71c.07-.19.14-.38.2-.58Z" transform="translate(-30.6 -16.05)"/>
          <path id="Path_186825" data-name="Path 186825" class="cls-19" d="M311.12,87.39l-4.28-6.06,4.82,4.24Z" transform="translate(-30.6 -16.05)"/>
        </g>
        <path id="Path_186826" data-name="Path 186826" class="cls-4" d="M318.09,102.69c-.09-2.79-1.54-8.45-3.5-10.51-2.43-2.56-4.5-4.17-5.76-4.62-5.1-1.82-18.72-2.07-21,16.32C285.39,124,289,152.5,289,152.5s6.15.65,24.36-1.17c4.93-.49,8-2,7.9-5L319,125.05Z" transform="translate(-30.6 -16.05)"/>
        <path id="Path_186827" data-name="Path 186827" class="cls-4" d="M301.94,94.43s6.52-1.24,14.91,10.49A175.59,175.59,0,0,0,331.38,123l14.9-13.5,3.55,2.73s-18.57,23.79-21.2,24C319.68,137.14,282.29,97,301.94,94.43Z" transform="translate(-30.6 -16.05)"/>
        <path id="Path_186828" data-name="Path 186828" class="cls-11" d="M323.2,73s.87,3.86,2.47,5.45a5,5,0,0,1-3.32,1.41Z" transform="translate(-30.6 -16.05)"/>
        <path id="Path_186829" data-name="Path 186829" class="cls-11" d="M348.57,113.59s6.65-5.41,6.28-7.15c-.6-2.84.53-9.94-1.61-5.8-1.34,2.6-2.8,6.93-4.27,6.14s2.76-3.41.47-5.19l-2.87,4.85a4.27,4.27,0,0,0,.23,4.72Z" transform="translate(-30.6 -16.05)"/>
      </g>
      <path id="Path_186830" data-name="Path 186830" class="cls-21" d="M308.47,76.55S310,71,317,71s7.75,0,9.45-3.87-1.7-7.67-1.7-7.67-8.75-1.91-16.49,1.89C302.4,64.21,299,76.49,308.47,76.55Z" transform="translate(-30.6 -16.05)"/>
      <path id="Path_186831" data-name="Path 186831" class="cls-11" d="M310.85,74.69a2.08,2.08,0,1,1-2.06-2.39A2.26,2.26,0,0,1,310.85,74.69Z" transform="translate(-30.6 -16.05)"/>
      <rect id="Rectangle_6625" data-name="Rectangle 6625" class="cls-4" x="344.93" y="108.22" width="4.33" height="7.8" transform="translate(-18.65 240.03) rotate(-41.15)"/>
      <rect id="Rectangle_6626" data-name="Rectangle 6626" class="cls-15" x="287.16" y="208.98" width="7.46" height="3.35"/>
      <rect id="Rectangle_6627" data-name="Rectangle 6627" class="cls-10" x="298.08" y="207.81" width="7.46" height="3.35"/>
      <path id="Path_186832" data-name="Path 186832" class="cls-7" d="M300.74,84.88,311,88l.43,6-11.92-5.67Z" transform="translate(-30.6 -16.05)"/>
    </g>
    <g id="Group_5766" data-name="Group 5766">
      <path id="Path_186844" data-name="Path 186844" class="cls-4" d="M190.11,333.05c.73-30-1.13-56.76-10.35-59-7.26-1.77-14.86,12.69-20.71,10.35-10.38-4.15,5.44-53.09-6.21-59-6.2-3.14-16.44,18.17-25.88,15.53-7.8-2.18-4.67-17.3-16.57-33.12-6.89-9.18-20.63-21-30.54-17.6C69,193.9,63.49,215.65,68.46,232.63c7.68,26.19,38.9,36.43,35.72,44.52-2.72,6.93-26.34,1.24-30,10.35-1.87,4.63,2.48,10.4,3.63,11.91,14.81,19.64,55.05,12,55.38,16,.08,1-2.11,2.15-15.53,6.21-21.77,6.61-27,6.83-27.43,9.32-.89,5.09,18.94,15.83,39.86,18.12C156.63,352,178.53,340.55,190.11,333.05Z" transform="translate(-30.6 -16.05)"/>
      <path id="Path_186845" data-name="Path 186845" class="cls-5" d="M183.33,331.42S133.83,308.73,84.77,208" transform="translate(-30.6 -16.05)"/>
    </g>
  </g>
</svg>
