<svg xmlns="http://www.w3.org/2000/svg" xmlns:xlink="http://www.w3.org/1999/xlink" viewBox="0 0 433.31 355.25">
  <defs>
    <style>
      .cls-1, .cls-4, .cls-6 {
        fill: none;
      }

      .cls-2 {
        fill: #cfefff;
      }

      .cls-3 {
        fill: #3880a3;
      }

      .cls-4 {
        stroke: #2b627d;
      }

      .cls-4, .cls-6 {
        stroke-miterlimit: 10;
      }

      .cls-5 {
        fill: #49a8d6;
      }

      .cls-6 {
        stroke: #3880a3;
      }

      .cls-7 {
        fill: #3494d8;
      }

      .cls-8 {
        fill: #78c2ff;
      }

      .cls-9 {
        fill: #f4f4f4;
      }

      .cls-10 {
        fill: #1487e3;
      }

      .cls-11 {
        fill: #ff8761;
      }

      .cls-12 {
        fill: #e0e0e0;
      }

      .cls-13 {
        fill: #a1d4ff;
      }

      .cls-14 {
        fill: #d4dce6;
      }

      .cls-15 {
        clip-path: url(#clip-path);
      }

      .cls-16 {
        fill: #421800;
      }

      .cls-17 {
        fill: #f0d0b4;
      }

      .cls-18 {
        fill: #b34fc5;
      }

      .cls-19 {
        fill: #e7ecf2;
      }

      .cls-20 {
        fill: #f3e4b2;
      }

      .cls-21 {
        clip-path: url(#clip-path-2);
      }

      .cls-22 {
        fill: #ecc19c;
      }

      .cls-23 {
        fill: #eb6d4a;
      }

      .cls-24 {
        fill: #543e36;
      }

      .cls-25 {
        fill: #c34628;
      }

      .cls-26 {
        fill: #e1854f;
      }

      .cls-27 {
        clip-path: url(#clip-path-10);
      }

      .cls-28 {
        fill: #5ab7b2;
      }

      .cls-29 {
        fill: #141720;
      }

      .cls-30 {
        fill: #ffb939;
      }

      .cls-31 {
        fill: #ffc69a;
      }

      .cls-32 {
        fill: #293f5e;
      }

      .cls-33 {
        fill: #a77860;
      }

      .cls-34 {
        fill: #eea886;
      }

      .cls-35 {
        fill: #a88d4a;
      }

      .cls-36 {
        fill: #444c94;
      }

      .cls-37 {
        fill: #303669;
      }

      .cls-38 {
        fill: #518afa;
      }

      .cls-39 {
        fill: #003d57;
      }

      .cls-40 {
        fill: #963815;
      }

      .cls-41 {
        fill: #fff;
      }

      .cls-42 {
        fill: #8e3d20;
      }

      .cls-43 {
        fill: #ffa320;
      }

      .cls-44 {
        fill: #ffb780;
      }

      .cls-45 {
        fill: #005479;
      }

      .cls-46 {
        fill: #005265;
      }

      .cls-47 {
        opacity: 0.1;
        isolation: isolate;
      }

      .cls-48 {
        fill: #857b77;
      }

      .cls-49 {
        fill: #50bfa8;
      }

      .cls-50 {
        fill: #eda635;
      }
    </style>
    <clipPath id="clip-path" transform="translate(-30.6 -12.71)">
      <circle class="cls-1" cx="104.73" cy="65.26" r="18.26"/>
    </clipPath>
    <clipPath id="clip-path-2" transform="translate(-30.6 -12.71)">
      <circle class="cls-1" cx="263.36" cy="46.94" r="26.94"/>
    </clipPath>
    <clipPath id="clip-path-10" transform="translate(-30.6 -12.71)">
      <circle class="cls-1" cx="407.91" cy="84.32" r="21.94"/>
    </clipPath>
  </defs>
  <title>4-Roles-01</title>
  <g id="Layer_1" data-name="Layer 1">
    <g id="Group_5943" data-name="Group 5943">
      <path id="Path_186835" data-name="Path 186835" class="cls-2" d="M117.14,358.82a60,60,0,0,1-34.68-18.21c-10.7-11.21-10.67-18.91-9.63-23.54,2.3-10.19,33.32-6.75,38.74-22.86,3.56-10.59-8.26-16.84-9.92-36.07-1.48-17.12,5.69-37.52,17.86-45.44,17.33-11.27,40.72,5.36,61.3,13.21,89.73,34.23,171.34-81.23,229.9-43.77,20.75,13.26,37,44.7,32.7,69.3-4.27,24.42-28.65,41.19-22.86,51.74,3.91,7.12,16.09,1.45,25.39,10.51,9.73,9.48,9.87,28.81,6.19,37.7-9.52,22.93-53.63,4.55-145.14,9.12-57.84,2.88-84.57,13.41-146.13,2.85C151.47,361.75,135.28,361.52,117.14,358.82Z" transform="translate(-30.6 -12.71)"/>
      <g id="Group_5762" data-name="Group 5762">
        <path id="Path_186836" data-name="Path 186836" class="cls-3" d="M144.38,335.47c-6.44-20.94-13.93-39-20.83-38.45-5.44.45-7.35,12.22-11.94,12-8.15-.47-8.53-38-18-39.41-5-.75-7.17,16.38-14.32,16.74-5.91.3-7.24-10.9-19.14-19.1C53.28,262.45,41,257.46,35,262.1c-6.67,5.09-5.43,21.42,1.95,32,11.38,16.35,35.36,16.2,35,22.55-.27,5.43-17.95,7-18.38,14.12-.22,3.63,4.12,6.62,5.26,7.4,14.81,10.16,40.89-4.46,42.06-1.72.28.65-1,2-9.31,7.9-13.54,9.61-17.11,11-16.83,12.8.56,3.72,16.78,6.57,31.79,3.31C125.6,356.34,138.1,343.34,144.38,335.47Z" transform="translate(-30.6 -12.71)"/>
        <path id="Path_186837" data-name="Path 186837" class="cls-4" d="M139.31,335.91s-39.52-4.24-96.81-62.58" transform="translate(-30.6 -12.71)"/>
      </g>
      <g id="Group_5763" data-name="Group 5763">
        <path id="Path_186838" data-name="Path 186838" class="cls-5" d="M268.19,355.25c-15.53-15.53-28-30.65-24.29-36.5,2.95-4.6,14.28-.77,16.2-5,3.4-7.45-29.68-25.4-26.49-34.41,1.7-4.79,17.88,1.33,21.56-4.84,3-5.08-6.26-11.52-7.94-25.91-1-8.34.34-21.53,7.3-24.74,7.64-3.52,21.52,5.24,27.46,16.75,9.14,17.75-2.24,38.93,3.53,41.62,4.94,2.3,14.59-12.64,21.13-9.67,3.33,1.51,3.93,6.77,4.09,8.14,2.06,17.89-23.13,34.13-21.25,36.45.44.56,2.2.07,11.36-4.54,14.87-7.48,17.76-10,19.24-8.9,3,2.24-2,17.94-12,29.71C295.49,348.4,278.1,353.38,268.19,355.25Z" transform="translate(-30.6 -12.71)"/>
        <path id="Path_186839" data-name="Path 186839" class="cls-6" d="M271,351s14.78-37-10-115.12" transform="translate(-30.6 -12.71)"/>
      </g>
      <g id="Group_5766" data-name="Group 5766">
        <path id="Path_186844" data-name="Path 186844" class="cls-5" d="M190.11,333.05c.73-30-1.13-56.76-10.35-59-7.26-1.77-14.86,12.69-20.71,10.35-10.38-4.15,5.44-53.09-6.21-59-6.2-3.14-16.44,18.17-25.88,15.53-7.8-2.18-4.67-17.3-16.57-33.12-6.89-9.18-20.63-21-30.54-17.6C69,193.9,63.49,215.65,68.46,232.63c7.68,26.19,38.9,36.43,35.72,44.52-2.72,6.93-26.34,1.24-30,10.35-1.87,4.63,2.48,10.4,3.63,11.91,14.81,19.64,55.05,12,55.38,16,.08,1-2.11,2.15-15.53,6.21-21.77,6.61-27,6.83-27.43,9.32-.89,5.09,18.94,15.83,39.86,18.12C156.63,352,178.53,340.55,190.11,333.05Z" transform="translate(-30.6 -12.71)"/>
        <path id="Path_186845" data-name="Path 186845" class="cls-6" d="M183.33,331.42S133.83,308.73,84.77,208" transform="translate(-30.6 -12.71)"/>
      </g>
    </g>
  </g>
  <g id="Layer_2" data-name="Layer 2">
    <rect id="Rectangle_6708" data-name="Rectangle 6708" class="cls-7" x="267.4" y="212.29" width="119.02" height="53.86"/>
    <g>
      <g id="Group_6030" data-name="Group 6030">
        <rect id="Rectangle_6697" data-name="Rectangle 6697" class="cls-8" x="229.98" y="114.26" width="12.45" height="3.85"/>
        <g id="Group_7501" data-name="Group 7501">
          <rect id="Rectangle_7384" data-name="Rectangle 7384" class="cls-9" x="137.34" y="85.49" width="158.6" height="90.37" rx="8.77"/>
        </g>
        <g id="Group_6027" data-name="Group 6027">
          <rect id="Rectangle_6694" data-name="Rectangle 6694" class="cls-10" x="247.56" y="114.26" width="36.17" height="3.85"/>
        </g>
        <g id="Group_6022" data-name="Group 6022">
          <rect id="Rectangle_6689" data-name="Rectangle 6689" class="cls-11" x="183.1" y="157.7" width="6.42" height="3.85"/>
        </g>
        <g id="Group_7553" data-name="Group 7553">
          <rect id="Rectangle_6687-3" data-name="Rectangle 6687-3" class="cls-10" x="233.61" y="157.7" width="6.29" height="3.85"/>
        </g>
        <g id="Group_7557" data-name="Group 7557">
          <rect id="Rectangle_6687-2" data-name="Rectangle 6687-2" class="cls-10" x="192.37" y="114.26" width="6.29" height="3.85"/>
        </g>
        <g id="Group_7554" data-name="Group 7554">
          <rect id="Rectangle_6697-2" data-name="Rectangle 6697-2" class="cls-8" x="271.22" y="157.7" width="12.45" height="3.85"/>
        </g>
        <g id="Group_6031" data-name="Group 6031">
          <rect id="Rectangle_6698" data-name="Rectangle 6698" class="cls-11" x="188.08" y="128.75" width="12.45" height="3.85"/>
        </g>
        <g id="Group_6033" data-name="Group 6033">
          <rect id="Rectangle_6700" data-name="Rectangle 6700" class="cls-10" x="203.55" y="114.26" width="21.68" height="3.85"/>
        </g>
        <g id="Group_6020" data-name="Group 6020">
          <rect id="Rectangle_6687" data-name="Rectangle 6687" class="cls-10" x="180.96" y="114.26" width="6.29" height="3.85"/>
        </g>
        <g id="Group_7555" data-name="Group 7555">
          <rect id="Rectangle_6700-2" data-name="Rectangle 6700-2" class="cls-10" x="244.78" y="157.7" width="21.68" height="3.85"/>
        </g>
        <g id="Group_6001" data-name="Group 6001">
          <rect id="Rectangle_6668" data-name="Rectangle 6668" class="cls-8" x="157.03" y="128.75" width="26.69" height="3.85"/>
        </g>
        <g id="Group_6005" data-name="Group 6005">
          <rect id="Rectangle_6672" data-name="Rectangle 6672" class="cls-8" x="157.03" y="143.24" width="38.05" height="3.85"/>
        </g>
        <g id="Group_6007" data-name="Group 6007">
          <rect id="Rectangle_6674" data-name="Rectangle 6674" class="cls-10" x="235.5" y="99.77" width="34" height="3.85"/>
        </g>
        <g id="Group_6014" data-name="Group 6014">
          <rect id="Rectangle_6681" data-name="Rectangle 6681" class="cls-11" x="255.85" y="143.24" width="27.88" height="3.85"/>
        </g>
        <g id="Group_6016" data-name="Group 6016">
          <rect id="Rectangle_6683" data-name="Rectangle 6683" class="cls-12" x="275.79" y="99.77" width="12.45" height="3.85"/>
        </g>
        <g id="Group_6017" data-name="Group 6017">
          <rect id="Rectangle_6684" data-name="Rectangle 6684" class="cls-12" x="235.5" y="143.24" width="12.45" height="3.85"/>
        </g>
        <g id="Group_6018" data-name="Group 6018">
          <rect id="Rectangle_6685" data-name="Rectangle 6685" class="cls-10" x="156.71" y="114.26" width="19.47" height="3.85"/>
        </g>
        <g id="Group_5983" data-name="Group 5983">
          <rect id="Rectangle_6650" data-name="Rectangle 6650" class="cls-10" x="236.2" y="128.75" width="18.01" height="3.85"/>
        </g>
        <g id="Group_5986" data-name="Group 5986">
          <rect id="Rectangle_6653" data-name="Rectangle 6653" class="cls-12" x="257.77" y="128.75" width="30.46" height="3.85"/>
        </g>
        <g id="Group_7556" data-name="Group 7556">
          <rect id="Rectangle_6653-2" data-name="Rectangle 6653-2" class="cls-12" x="196.36" y="157.71" width="30.46" height="3.85"/>
        </g>
        <g id="Group_5987" data-name="Group 5987">
          <rect id="Rectangle_6654" data-name="Rectangle 6654" class="cls-12" x="152.14" y="157.05" width="27.95" height="3.85"/>
        </g>
        <g id="Group_5992" data-name="Group 5992">
          <rect id="Rectangle_6659" data-name="Rectangle 6659" class="cls-8" x="201.62" y="99.77" width="26.69" height="3.85"/>
        </g>
        <g id="Group_5993" data-name="Group 5993">
          <rect id="Rectangle_6660" data-name="Rectangle 6660" class="cls-10" x="201.62" y="143.24" width="26.69" height="3.85"/>
        </g>
        <g id="Group_5981" data-name="Group 5981">
          <rect id="Rectangle_6648" data-name="Rectangle 6648" class="cls-12" x="156.71" y="99.77" width="37.6" height="3.85"/>
        </g>
        <g id="Group_5982" data-name="Group 5982">
          <rect id="Rectangle_6649" data-name="Rectangle 6649" class="cls-12" x="204.83" y="128.75" width="27.14" height="3.85"/>
        </g>
      </g>
      <g>
        <g id="Group_7506" data-name="Group 7506">
          <path id="Path_189311" data-name="Path 189311" class="cls-13" d="M165.93,136.72H104.21V91.42h.84v44.47h60.88Z" transform="translate(-30.6 -12.71)"/>
        </g>
        <g id="Group_7508" data-name="Group 7508">
          <path id="Path_189340" data-name="Path 189340" class="cls-13" d="M104.63,91.47a3.07,3.07,0,1,1,3.07-3.07A3.08,3.08,0,0,1,104.63,91.47Zm0-5.31a2.24,2.24,0,1,0,2.24,2.24h0a2.24,2.24,0,0,0-2.24-2.24Z" transform="translate(-30.6 -12.71)"/>
        </g>
        <g id="girl">
          <g id="Group_7518" data-name="Group 7518">
            <circle id="Ellipse_595" data-name="Ellipse 595" class="cls-14" cx="74.13" cy="52.56" r="18.26"/>
            <g class="cls-15">
              <g id="Group_7517" data-name="Group 7517">
                <path id="Path_189457" data-name="Path 189457" class="cls-16" d="M115.51,66V83L94,82.59v-17Z" transform="translate(-30.6 -12.71)"/>
                <path id="Path_189458" data-name="Path 189458" class="cls-17" d="M112.86,58.31v5.27c0,.08,0,.14,0,.22s0,.12,0,.19,0,.09,0,.14,0,.05,0,.08a.77.77,0,0,1,0,.15,2.66,2.66,0,0,1,0,.28s0,0,0,.08,0,.09,0,.14h0c0,.07,0,.14,0,.21s0,.19,0,.28h0a.09.09,0,0,1,0,0h0l0,.15a.64.64,0,0,0,0,.07.36.36,0,0,0,0,.1s0,0,0,.06l0,.06c0,.16-.09.32-.14.48s0,.15-.07.23a0,0,0,0,1,0,0l-.07.2a.14.14,0,0,0,0,.07c0,.06,0,.12-.08.19l-.09.23-.09.2s0,0,0,0l-.1.22a1.51,1.51,0,0,0-.11.22l-.23.43-.1.19a12.73,12.73,0,0,1-1,1.49l-.15.19c-.08.09-.15.18-.23.26a2.09,2.09,0,0,1-.2.22h0c-.2.2-.39.4-.59.58l-.12.12-.21.18-.16.14c-.15.11-.29.23-.44.33l-.18.13-.3.21-.18.11c-.2.12-.41.24-.61.34l-.15.07-.15.08-.2.08-.08,0-.23.09-.29.09-.21,0h0l-.21,0h0l-.17,0-.24,0h-.54l-.17,0h0l-.22,0-.19,0a5.39,5.39,0,0,1-1-.35,6.78,6.78,0,0,1-.92-.49c-.15-.09-.31-.19-.46-.3l-.22-.16a7.38,7.38,0,0,1-.71-.57l-.19-.17-.19-.18a6,6,0,0,1-.43-.44l0,0-.17-.19c-.16-.18-.32-.37-.46-.56a1.84,1.84,0,0,1-.17-.22c-.2-.26-.39-.54-.57-.83,0-.08-.1-.16-.14-.24L98,68.4c-.2-.37-.38-.74-.54-1.12,0-.06-.05-.11-.07-.17a2,2,0,0,1-.08-.22l-.12-.32c0-.1-.07-.21-.1-.32L97,65.94l-.09-.34a.06.06,0,0,0,0,0c0-.16-.07-.32-.1-.48s-.07-.44-.09-.66l0-.21c0-.07,0-.15,0-.22s0-.27,0-.4,0-.18,0-.27v-5a8.13,8.13,0,0,1,7.68-8.12h.91a8.52,8.52,0,0,1,1.33.19,8.13,8.13,0,0,1,6.33,7.85Z" transform="translate(-30.6 -12.71)"/>
                <path id="Path_189459" data-name="Path 189459" class="cls-17" d="M115.32,86H94.15a10.23,10.23,0,0,1,.55-3.38v0c.07-.2.14-.39.22-.58h0c.07-.19.16-.38.24-.56a10.88,10.88,0,0,1,1.29-2,6,6,0,0,1,.4-.46c.06-.08.13-.15.2-.23l.21-.21a9.84,9.84,0,0,1,1.15-1c.2-.14.4-.29.61-.42l.09-.06.23-.14.33-.19h0l.25-.15a5.79,5.79,0,0,0,.72-.5,6.66,6.66,0,0,0,2.53-5.24h3.13a6.41,6.41,0,0,0,.1,1.16A5.71,5.71,0,0,0,106.7,73a6.64,6.64,0,0,0,2.13,3,5,5,0,0,0,.44.32s0,0,0,0a1.64,1.64,0,0,1,.22.14l.25.14,0,0,.52.31,0,0,.2.14a3.91,3.91,0,0,1,.49.34h0c.2.14.39.31.58.47s.38.34.56.51A10.57,10.57,0,0,1,115.32,86Z" transform="translate(-30.6 -12.71)"/>
                <path id="Path_189460" data-name="Path 189460" class="cls-18" d="M115.32,86H94.15a10.33,10.33,0,0,1,.55-3.39,0,0,0,0,0,0,0c.07-.19.14-.38.22-.57h0c.07-.19.16-.38.24-.56a11.29,11.29,0,0,1,1.29-2.06c.13-.15.26-.31.4-.45s.13-.15.2-.23.14-.14.21-.21a9.84,9.84,0,0,1,1.15-1c.2-.15.4-.29.61-.42l.09-.06.23-.14.33-.19h0l.25-.15a7.11,7.11,0,0,0,.72-.5h0a5.68,5.68,0,0,0,4.07,1.72h0A5.73,5.73,0,0,0,108.83,76h0l.43.33,0,0,.22.14a2.8,2.8,0,0,0,.25.14l0,0,.52.31,0,0,.21.13.48.34h0a6.71,6.71,0,0,1,.58.48c.19.16.38.33.56.51A10.57,10.57,0,0,1,115.32,86Z" transform="translate(-30.6 -12.71)"/>
                <path id="Path_189461" data-name="Path 189461" class="cls-16" d="M115.55,80.12h0c-1.05.28-5.19-4.71-5.24-9.94a10.69,10.69,0,0,1,.08-1.27,13.35,13.35,0,0,1,1.13-3.31,7,7,0,0,0,.66-2.62c0-4.79-1.39-3.23-5.26-5.82-.94-.62-1.6-1.13-2.12-1.54-1.44-1.15-1.8-1.56-3.78-1.56-2.51,0-3.5,4.37-3.79,6.23a16.5,16.5,0,0,0,.94,8.35A7,7,0,0,1,97.19,76c-.72,1-1.82,4.29-3.18,5.36a1.18,1.18,0,0,1-1.35.2c-3.72-1.9-1.48-8-.36-11.85,1.2-4.12,1.56-8.3,2.44-12.46,1-4.69,5-7.55,6.62-6.39.54-1,2-1.33,3.4-1.33a8.51,8.51,0,0,1,2.91.49c5.91,2.3,6,7.79,6.33,10.07.26,1.88,1.19,3.64,1.51,5.5h0a7.87,7.87,0,0,1,.12,1.19c0,2.18-.23,3.66,1.42,5.47C118.3,73.65,117.34,79.33,115.55,80.12Z" transform="translate(-30.6 -12.71)"/>
                <g id="Group_7516" data-name="Group 7516">
                  <path id="Path_189462" data-name="Path 189462" class="cls-19" d="M104.75,77.74h0a2.88,2.88,0,0,1-4,.88,2.8,2.8,0,0,1-.56-.47L99.12,77a6.32,6.32,0,0,1,.56-.33h0l.25-.15a7.11,7.11,0,0,0,.72-.5h0a5.68,5.68,0,0,0,4.07,1.72h0Z" transform="translate(-30.6 -12.71)"/>
                  <path id="Path_189463" data-name="Path 189463" class="cls-19" d="M110.38,77l-1.07,1.14a2.88,2.88,0,0,1-4.08.15,2.8,2.8,0,0,1-.47-.56h0A5.7,5.7,0,0,0,108.83,76h0a4.46,4.46,0,0,0,.43.33l0,0,.22.14.25.15,0,0,.52.31Z" transform="translate(-30.6 -12.71)"/>
                </g>
              </g>
            </g>
          </g>
        </g>
        <g id="Group_6038" data-name="Group 6038">
          <path id="Path_187625" data-name="Path 187625" class="cls-13" d="M198.34,172.88l.62-.69-33.05-36.28v.8Z" transform="translate(-30.6 -12.71)"/>
        </g>
      </g>
      <g>
        <g id="Group_7329" data-name="Group 7329">
          <path id="Path_189341" data-name="Path 189341" class="cls-13" d="M263.54,79.88a3.07,3.07,0,1,1,3.07-3.07A3.08,3.08,0,0,1,263.54,79.88Zm0-5.31a2.24,2.24,0,1,0,2.24,2.24A2.23,2.23,0,0,0,263.54,74.57Z" transform="translate(-30.6 -12.71)"/>
        </g>
        <g id="Group_7552" data-name="Group 7552">
          <path id="Path_189312-2" data-name="Path 189312-2" class="cls-13" d="M263.13,150.06v-71H264v71Z" transform="translate(-30.6 -12.71)"/>
        </g>
        <g id="man">
          <g id="Group_7536" data-name="Group 7536">
            <circle id="Ellipse_607" data-name="Ellipse 607" class="cls-20" cx="232.76" cy="34.23" r="26.94"/>
            <g class="cls-21">
              <g id="Group_7528" data-name="Group 7528">
                <path id="Path_189472" data-name="Path 189472" class="cls-22" d="M275.36,35.11v9c0,.13,0,.26,0,.39s0,.21,0,.32,0,.19,0,.28,0,.14,0,.2a.43.43,0,0,1,0,.12,1.79,1.79,0,0,1,0,.23c0,.14,0,.28,0,.42s0,.07,0,.11a1.55,1.55,0,0,1,0,.21h0c0,.11,0,.2-.05.31s-.05.28-.08.42a0,0,0,0,1,0,0,.13.13,0,0,1,0,.06,0,0,0,0,1,0,0,1.74,1.74,0,0,1-.05.22.44.44,0,0,1,0,.1.83.83,0,0,1,0,.15.36.36,0,0,1,0,.1.25.25,0,0,0,0,.07c-.06.24-.14.48-.21.71s-.07.22-.11.34,0,0,0,0l-.11.3,0,.1c0,.09-.07.18-.11.28s-.09.22-.14.34a2.71,2.71,0,0,1-.13.3l0,.05c-.05.1-.09.21-.15.31l-.15.33c-.11.21-.22.43-.34.63l-.16.29a17,17,0,0,1-1.5,2.19,2,2,0,0,1-.23.28q-.15.2-.33.39l-.3.33c-.28.31-.57.59-.86.87l-.18.16-.31.27-.24.2c-.22.18-.43.35-.64.5l-.27.2-.45.3-.25.16c-.3.18-.61.35-.91.5l-.21.11-.23.11-.29.12-.12,0a2.37,2.37,0,0,1-.34.13,4.43,4.43,0,0,1-.44.14l-.3.08s0,0,0,0l-.3.06-.08,0-.25,0c-.11,0-.23,0-.35,0H263l-.26,0h-.05l-.33,0a1.5,1.5,0,0,1-.29-.06,8.21,8.21,0,0,1-1.54-.52,11.71,11.71,0,0,1-1.36-.71l-.67-.44-.34-.24c-.35-.26-.69-.54-1-.84l-.28-.26-.28-.26c-.23-.22-.45-.45-.67-.69l-.26-.28c-.23-.26-.46-.54-.68-.82l-.24-.32c-.3-.39-.58-.8-.85-1.23l-.21-.35c-.08-.13-.16-.28-.24-.42a15.7,15.7,0,0,1-.8-1.65l-.1-.24a2.19,2.19,0,0,1-.12-.33c-.06-.15-.12-.31-.17-.46s-.11-.32-.16-.48-.09-.3-.13-.46-.09-.33-.13-.5,0,0,0-.06c-.06-.23-.11-.47-.15-.71s-.11-.65-.14-1c0-.11,0-.21,0-.31l0-.32,0-.6c0-.13,0-.26,0-.39v-9a12,12,0,0,1,12-12h0a12.44,12.44,0,0,1,2.65.29A12,12,0,0,1,275.36,35Z" transform="translate(-30.6 -12.71)"/>
              </g>
            </g>
            <g class="cls-21">
              <g id="Group_7529" data-name="Group 7529">
                <path id="Path_189473" data-name="Path 189473" class="cls-22" d="M279,77.48H247.76a15.77,15.77,0,0,1,.83-5c.1-.28.21-.57.32-.84h0c.11-.28.24-.56.37-.83a15.12,15.12,0,0,1,1.9-3c.19-.23.38-.46.58-.68s.2-.21.3-.33.21-.21.31-.31A15.66,15.66,0,0,1,254.06,65c.3-.21.6-.43.91-.63l.95-.56h0l.38-.22a9.89,9.89,0,0,0,4.78-8.46h4.62a9.81,9.81,0,0,0,3.7,7.71,7.79,7.79,0,0,0,.65.48l.07.05.32.2.37.22a.05.05,0,0,1,.05,0c.26.14.52.29.77.45l.35.23c.25.16.49.32.72.5h0c.3.22.59.46.87.7s.55.5.81.76A15.54,15.54,0,0,1,279,77.48Z" transform="translate(-30.6 -12.71)"/>
              </g>
            </g>
            <g class="cls-21">
              <g id="Group_7530" data-name="Group 7530">
                <path id="Path_189474" data-name="Path 189474" class="cls-23" d="M279,77.48H247.76a15.77,15.77,0,0,1,.83-5c.1-.28.2-.57.32-.85h0c.11-.28.23-.55.36-.82a15.63,15.63,0,0,1,1.91-3c.18-.23.38-.46.57-.68l.3-.33.32-.32A15.46,15.46,0,0,1,254.05,65c.3-.22.6-.43.91-.63l.49-.3.47-.26h0l.37-.22a8.62,8.62,0,0,0,1.05-.74h0a8.37,8.37,0,0,0,6,2.53h0a8.4,8.4,0,0,0,6-2.53h0c.21.17.43.33.65.49l.07,0,.32.21.37.21.05,0,.42.24.35.21c.11.08.24.15.35.24s.49.32.72.5h0c.29.23.58.46.86.7s.56.5.82.76A15.56,15.56,0,0,1,279,77.48Z" transform="translate(-30.6 -12.71)"/>
              </g>
            </g>
            <g class="cls-21">
              <g id="Group_7531" data-name="Group 7531">
                <path id="Path_189475" data-name="Path 189475" class="cls-24" d="M275.36,44.06c0,.13,0,.26,0,.39s0,.21,0,.32,0,.19,0,.28,0,.14,0,.2a.43.43,0,0,1,0,.12,1.79,1.79,0,0,1,0,.23c0,.14,0,.28,0,.42s0,.07,0,.11a1.55,1.55,0,0,1,0,.21,3.06,3.06,0,0,1-.05.32c0,.12-.05.24-.07.36s0,0,0,.08,0,0,0,.06,0,0,0,0v0c0,.06,0,.12-.05.18a.36.36,0,0,1,0,.1s0,.11,0,.17,0,0,0,.08a.19.19,0,0,0,0,.07c-.06.25-.13.48-.21.72s-.07.21-.1.33,0,0,0,0l-.1.31a.19.19,0,0,0,0,.09c0,.09-.07.19-.11.28s-.09.23-.14.34-.08.2-.12.3l0,.05c-.05.11-.09.21-.14.31l-.16.33c-.11.21-.22.43-.34.64l-.15.28A18.49,18.49,0,0,1,271.69,54l-.23.28-.34.39-.3.33c-.28.31-.57.59-.86.86l-.18.17-.31.27c-.07.07-.16.13-.24.2s-.42.34-.64.5l-.27.19-.45.31-.25.16c-.3.18-.6.35-.9.5l-.22.11-.23.11-.29.12-.12,0-.34.13a4.28,4.28,0,0,1-.43.14l-.31.08h0l-.3.06-.08,0-.24,0-.36,0H263l-.26,0h-.05l-.33,0-.29-.06a8.46,8.46,0,0,1-1.54-.52,10.83,10.83,0,0,1-1.35-.71c-.23-.14-.45-.28-.68-.44l-.33-.24c-.35-.26-.7-.54-1-.84l-.29-.26-.28-.26c-.23-.22-.45-.45-.67-.69-.08-.09-.17-.18-.25-.28-.24-.26-.47-.54-.69-.82l-.24-.32c-.3-.39-.58-.8-.85-1.23-.07-.12-.14-.23-.2-.35s-.17-.28-.25-.42a18,18,0,0,1-.8-1.65c0-.08-.07-.16-.1-.25l-.12-.32c-.06-.15-.12-.31-.17-.47s-.11-.31-.15-.47-.1-.31-.14-.46-.09-.34-.13-.51a.11.11,0,0,0,0-.05l-.15-.72c-.06-.31-.1-.64-.14-1l0-.31,0-.33q0-.28,0-.6v-.38l1.91,3.76,3.29,1.43,3.89.35h0l2.88.27h0l2.69.24h0l6,.54Z" transform="translate(-30.6 -12.71)"/>
              </g>
            </g>
            <g class="cls-21">
              <g id="Group_7532" data-name="Group 7532">
                <path id="Path_189476" data-name="Path 189476" class="cls-24" d="M263.39,46v2.9h0v4.47h0L251.8,47.42s0,0,0-.06c-.06-.23-.11-.47-.15-.71s-.11-.65-.14-1a1.71,1.71,0,0,1,0-.31l0-.32c0-.2,0-.4,0-.6s0-.26,0-.39V40.7a12.11,12.11,0,0,0,.42,2.74,12,12,0,0,0,.76,2h0c.77,1.61,1.8,2.7,2.75,2.87l.18,0a9,9,0,0,0,1.15.07c1.51,0,2.84-1.21,3.68-1.7h0l.12-.08,0,0a6,6,0,0,1,2.86-.66h0Z" transform="translate(-30.6 -12.71)"/>
                <path id="Path_189477" data-name="Path 189477" class="cls-24" d="M275.36,40.55v3.51a14.94,14.94,0,0,1-.23,2.59c-.06.33-.14.67-.22,1l-2.72,3.92-8.81,1.75h0V46h0a6,6,0,0,1,2.86.66l0,0a.57.57,0,0,0,.13.08h0c.84.49,2.17,1.7,3.68,1.7a9,9,0,0,0,1.15-.07l.18,0c.95-.17,2-1.26,2.75-2.87h0a11.14,11.14,0,0,0,.75-2,11.42,11.42,0,0,0,.43-2.78A.45.45,0,0,1,275.36,40.55Z" transform="translate(-30.6 -12.71)"/>
              </g>
            </g>
            <g class="cls-21">
              <g id="Group_7533" data-name="Group 7533">
                <ellipse id="Ellipse_613" data-name="Ellipse 613" class="cls-22" cx="232.77" cy="37.05" rx="2.94" ry="0.91"/>
              </g>
            </g>
            <g class="cls-21">
              <g id="Group_7534" data-name="Group 7534">
                <path id="Path_189478" data-name="Path 189478" class="cls-24" d="M263.37,23.13h0a12,12,0,0,0-12,12v5.28a11.19,11.19,0,0,1,1.84-4.68c1.45-1.66,1.08-4.19,4.34-4.19,2.11,0,2.23.77,5.79.77h0c3.56,0,3.68-.77,5.79-.77,3.26,0,2.89,2.53,4.35,4.19a11.44,11.44,0,0,1,1.83,4.68V35.11A12,12,0,0,0,263.37,23.13Z" transform="translate(-30.6 -12.71)"/>
              </g>
            </g>
            <g class="cls-21">
              <g id="Group_7535" data-name="Group 7535">
                <path id="Path_189479" data-name="Path 189479" class="cls-25" d="M271.28,64l-.32.33a10.62,10.62,0,0,1-15,.15l-.16-.15-.31-.32.47-.27h0l.37-.21a8.62,8.62,0,0,0,1.05-.74h0a8.38,8.38,0,0,0,6,2.54h0a8.4,8.4,0,0,0,6-2.53h0c.21.17.43.33.65.48l.07.05.32.21.37.21.05,0A2.78,2.78,0,0,1,271.28,64Z" transform="translate(-30.6 -12.71)"/>
              </g>
            </g>
          </g>
        </g>
      </g>
      <g>
        <g id="Group_6037" data-name="Group 6037">
          <path id="Path_187624" data-name="Path 187624" class="cls-13" d="M310.85,157.7l18.94-20.12h77.84v-1H329.39L310.16,157Z" transform="translate(-30.6 -12.71)"/>
        </g>
        <g id="Group_7504" data-name="Group 7504">
          <path id="Path_189342" data-name="Path 189342" class="cls-13" d="M407.48,114.24a3.08,3.08,0,1,1,3.07-3.08A3.08,3.08,0,0,1,407.48,114.24Zm0-5.31a2.24,2.24,0,1,0,2.24,2.23,2.23,2.23,0,0,0-2.24-2.23Z" transform="translate(-30.6 -12.71)"/>
        </g>
        <g id="Group_7505" data-name="Group 7505">
          <path id="Path_189312" data-name="Path 189312" class="cls-13" d="M407,137.53V114h.84v23.56Z" transform="translate(-30.6 -12.71)"/>
        </g>
        <g id="man-2" data-name="man">
          <circle id="Ellipse_626" data-name="Ellipse 626" class="cls-26" cx="377.31" cy="71.61" r="21.94"/>
          <g class="cls-27">
            <g id="Group_7549" data-name="Group 7549">
              <g id="Group_7548" data-name="Group 7548">
                <path id="Path_189495" data-name="Path 189495" class="cls-22" d="M420.62,109.19H395.19a12.73,12.73,0,0,1,.68-4.1,7,7,0,0,1,.26-.69h0c.08-.23.19-.45.29-.67a12.66,12.66,0,0,1,1.55-2.47c.16-.19.31-.38.47-.55l.25-.27.25-.26A11.94,11.94,0,0,1,400.32,99c.24-.18.48-.36.74-.52l.33-.2.19-.11.08,0,.18-.09h0l.3-.17a7.46,7.46,0,0,0,.87-.6,8.16,8.16,0,0,0,2.79-4.33c0-.17.08-.36.12-.55a8.3,8.3,0,0,0,.12-1.41h3.76a8.18,8.18,0,0,0,.12,1.4,5.41,5.41,0,0,0,.12.55,6.29,6.29,0,0,0,.22.74,8.13,8.13,0,0,0,2.55,3.59l.28.21.26.18.05,0,.26.16.3.18,0,0c.21.12.42.24.62.37a2.9,2.9,0,0,1,.29.19c.2.13.4.26.59.41h0c.24.17.47.37.7.57s.45.4.67.61A12.67,12.67,0,0,1,420.62,109.19Z" transform="translate(-30.6 -12.71)"/>
                <path id="Path_189496" data-name="Path 189496" class="cls-28" d="M420.62,109.19H395.19a12.73,12.73,0,0,1,.68-4.1,7,7,0,0,1,.26-.69h0c.08-.23.19-.45.29-.67a12.66,12.66,0,0,1,1.55-2.47c.16-.19.31-.38.47-.55l.25-.27.25-.26A11.94,11.94,0,0,1,400.32,99c.24-.18.48-.36.74-.52l.33-.2.19-.11.08,0,.18-.1h0l.3-.17a6.38,6.38,0,0,0,.86-.61h0a6.79,6.79,0,0,0,4.88,2.06h.34a6.8,6.8,0,0,0,4.58-2h0c.17.14.35.28.53.4a.1.1,0,0,1,0,0l.27.16.3.18,0,0c.21.12.42.24.62.37l.3.19c.2.13.39.26.58.41h0c.24.18.48.37.71.57s.45.4.66.62A12.62,12.62,0,0,1,420.62,109.19Z" transform="translate(-30.6 -12.71)"/>
                <path id="Path_189497" data-name="Path 189497" class="cls-28" d="M411.83,94v1.46a1.06,1.06,0,0,1-.19.62,1.09,1.09,0,0,1-.89.46h-5.82a1.09,1.09,0,0,1-1.09-1.08V94a1.09,1.09,0,0,1,1.09-1.09h5.82a1,1,0,0,1,.58.18A1.07,1.07,0,0,1,411.83,94Z" transform="translate(-30.6 -12.71)"/>
                <path id="Path_189498" data-name="Path 189498" class="cls-28" d="M413.09,97.46v3.18h-11.7V98.28l.19-.11.09,0,.17-.1h0l.31-.18a8.29,8.29,0,0,0,.86-.6,7.35,7.35,0,0,0,1.1-1.06,8.29,8.29,0,0,0,.81-1.13h6a8.25,8.25,0,0,0,.72,1,8.7,8.7,0,0,0,1.18,1.17Z" transform="translate(-30.6 -12.71)"/>
                <path id="Path_189499" data-name="Path 189499" class="cls-29" d="M420.77,78.74A13.93,13.93,0,0,1,414,90.89a12.22,12.22,0,0,1-5.75,1.64h-.32a12.09,12.09,0,0,1-6.08-1.63A14,14,0,0,1,395,78.73c0-7.42,5.47-13.48,12.33-13.78h1.31C415.43,65.4,420.77,71.39,420.77,78.74Z" transform="translate(-30.6 -12.71)"/>
                <path id="Path_189500" data-name="Path 189500" class="cls-22" d="M417.67,74.7V82c0,.1,0,.21,0,.31a2.26,2.26,0,0,1,0,.26,1.77,1.77,0,0,1,0,.23s0,.11,0,.16,0,.07,0,.1,0,.12,0,.19,0,.22,0,.34a.29.29,0,0,1,0,.09,1.11,1.11,0,0,1,0,.17h0l0,.25-.06.34s0,0,0,0a.07.07,0,0,1,0,0v0c0,.06,0,.12,0,.18s0,0,0,.08l0,.13s0,0,0,.07a.64.64,0,0,1,0,.07c-.05.19-.11.38-.17.58s0,.17-.08.27,0,0,0,0l-.09.24,0,.07-.09.23a2.33,2.33,0,0,1-.11.28l-.11.24s0,0,0,.05l-.12.25-.13.27-.27.52-.13.23a15.63,15.63,0,0,1-1.23,1.78,2.11,2.11,0,0,1-.19.23l-.27.32-.24.26h0c-.23.25-.46.48-.7.7l-.15.14-.25.22-.2.16c-.17.14-.34.28-.52.41l-.22.16-.36.24-.21.13,0,0a6.13,6.13,0,0,1-.7.39l-.18.09-.18.09-.24.1a.29.29,0,0,1-.1,0l-.28.11-.35.11-.25.07h0l-.25.06h-.06l-.2,0a2.85,2.85,0,0,1-.29,0h-.65l-.2,0h-.05l-.27,0-.23,0a7.21,7.21,0,0,1-1.26-.43,8.86,8.86,0,0,1-1.1-.58l-.06,0c-.17-.1-.33-.21-.49-.32l-.28-.2a10,10,0,0,1-.84-.68l-.23-.21-.23-.21c-.17-.17-.35-.34-.51-.52l0,0-.21-.23A7.35,7.35,0,0,1,401,90l-.2-.25c-.24-.33-.47-.66-.69-1l-.17-.28-.19-.34a14,14,0,0,1-.66-1.35c0-.06-.05-.13-.08-.2a2.77,2.77,0,0,1-.1-.26c-.05-.13-.09-.26-.14-.38l-.12-.39c0-.13-.08-.25-.11-.38s-.07-.27-.1-.41,0,0,0,0c-.05-.19-.09-.38-.13-.58s-.08-.53-.11-.79l0-.25a2.45,2.45,0,0,0,0-.27c0-.16,0-.32,0-.48s0-.21,0-.32V74.7A9.77,9.77,0,0,1,407.37,65h1.19l.22,0H409a8.45,8.45,0,0,1,1.12.19,9.76,9.76,0,0,1,7.59,9.43A.28.28,0,0,1,417.67,74.7Z" transform="translate(-30.6 -12.71)"/>
                <path id="Path_189501" data-name="Path 189501" class="cls-29" d="M419.84,78.31H396c0-7.19,5.06-13,11.4-13.36H409C415.05,65.58,419.84,71.32,419.84,78.31Z" transform="translate(-30.6 -12.71)"/>
              </g>
            </g>
          </g>
        </g>
      </g>
    </g>
    <g id="Group_6087" data-name="Group 6087">
      <g id="Group_6062" data-name="Group 6062">
        <path id="Path_187662" data-name="Path 187662" class="cls-30" d="M364.27,166.18s-1.61,9.61-2.92,16h0a36.73,36.73,0,0,1-1.3,5.26c-.37.8-3.4,4.06-7.12,7.89-6.51,6.7-15.12,15.15-15.12,15.15l-3.36-6.39s7.65-9,12.83-14.94c2.39-2.77,4.27-4.9,4.61-5.21,1.08-1,2.34-10.52,4.11-18.39a31.59,31.59,0,0,1,5.31-12.22Z" transform="translate(-30.6 -12.71)"/>
      </g>
      <g id="Group_6063" data-name="Group 6063">
        <path id="Path_187663" data-name="Path 187663" class="cls-31" d="M352.93,195.29c-6.51,6.7-15.12,15.15-15.12,15.15l-3.36-6.39s7.65-9,12.83-14.94A10.84,10.84,0,0,1,352.93,195.29Z" transform="translate(-30.6 -12.71)"/>
      </g>
      <g id="Group_6065" data-name="Group 6065">
        <path id="Path_187665" data-name="Path 187665" class="cls-30" d="M395.11,209.14c.24.86-44.3,0-44.3,0s12.32-9,13.12-11.36-3.14-16.77-3.65-21.45c-.41-3.74-1.44-20.48,1-23s11.86-5.48,11.86-5.48l13.54.5a21.56,21.56,0,0,1,3.83,1.21c1.6.74,10.73,4,12.21,8.56s-9.11,19.23-9.11,19.23,0,.66-.05,1.74h0c0,1.44-.11,3.63-.16,6-.07,3.07-.13,6.46-.13,8.93A87.67,87.67,0,0,0,395.11,209.14Z" transform="translate(-30.6 -12.71)"/>
      </g>
      <g id="Group_6066" data-name="Group 6066">
        <path id="Path_187666" data-name="Path 187666" class="cls-32" d="M395.11,209.14s6.06,8.9,6.14,15-10.75,26.42-12.39,29.33c-4.93,8.75-18.45,27.62-18.45,27.62s-2.33-.06-9.6-2.88c0,0,9-24.93,10.13-27.52,4.84-11,7.53-18.76,5.91-20.64s-6.06-3.77-7.34-4.88-23.64,4.22-26,4.83c-6.07,1.57-3.31,12.13-2,16.86,2.25,7.91,4.21,36.5,4.21,36.5s-4.32,1.84-11.56.28c0,0-14.21-51.61-14.66-56.75s-.69-13.6,34.33-20Z" transform="translate(-30.6 -12.71)"/>
      </g>
      <g id="Group_6067" data-name="Group 6067">
        <path id="Path_187667" data-name="Path 187667" class="cls-31" d="M376.88,118.41s-11.74-2.65-9.06,12.13,5.51,16,12.6,12.89,6.45-12.53,6.81-17.18S380.63,118.57,376.88,118.41Z" transform="translate(-30.6 -12.71)"/>
      </g>
      <g id="Group_6068" data-name="Group 6068">
        <path id="Path_187668" data-name="Path 187668" class="cls-31" d="M373.78,151.61s5.2,5.52,13.42.51c0,0-1.83-12-.87-17.78s-10.73,9-10.73,9c.16.08.26.64.29,1.43a17.12,17.12,0,0,1-.13,2.37C375.52,149.09,374.92,151.14,373.78,151.61Z" transform="translate(-30.6 -12.71)"/>
      </g>
      <g id="Group_6070" data-name="Group 6070">
        <path id="Path_187670" data-name="Path 187670" class="cls-33" d="M375.76,147.15c8.48-2.61,9.12-7.72,9.13-7.8-2.79,4.8-9,5.44-9,5.44A15.49,15.49,0,0,1,375.76,147.15Z" transform="translate(-30.6 -12.71)"/>
      </g>
      <g id="Group_6071" data-name="Group 6071">
        <path id="Path_187671" data-name="Path 187671" class="cls-31" d="M386.82,149.2s-2.84,7.06-7.44,6.6-.78-7.55-.57-7.61S383.52,146.72,386.82,149.2Z" transform="translate(-30.6 -12.71)"/>
      </g>
      <g id="Group_6072" data-name="Group 6072">
        <path id="Path_187672" data-name="Path 187672" class="cls-30" d="M345.72,208.51s30.76,3.8,49.39.63l-35.61-4.45S359.29,205.6,345.72,208.51Z" transform="translate(-30.6 -12.71)"/>
      </g>
      <g id="Group_6073" data-name="Group 6073">
        <path id="Path_187673" data-name="Path 187673" class="cls-34" d="M368.72,203.29l-2.29,1.16s.52,3.64,1.78,4.74l2.57-.65S370.24,204.55,368.72,203.29Z" transform="translate(-30.6 -12.71)"/>
      </g>
      <g id="Group_6074" data-name="Group 6074">
        <path id="Path_187674" data-name="Path 187674" class="cls-30" d="M404.31,195.84c-.46.53-6.5,3-13.33,5.59h0c-9.33,3.6-19.86,7-19.86,7l-2.4-5.14s11-6,18.48-10.19c3.52-2,6.24-3.57,6.62-3.93,1.2-1.15,1.51-3,.63-6.16s-2.91-17.85-3.14-19.57.57-6.27,4.85-6.5,6.45,1,6.45,1,1.08.45,1.88,10.83S405.4,194.58,404.31,195.84Z" transform="translate(-30.6 -12.71)"/>
      </g>
      <g id="Group_6075" data-name="Group 6075">
        <path id="Path_187675" data-name="Path 187675" class="cls-35" d="M393.59,179.06h0c0,1.44-.11,3.63-.16,6-4.18-10.23-1.76-18.4-1.72-18.54C391.26,169.3,393.55,178.92,393.59,179.06Z" transform="translate(-30.6 -12.71)"/>
      </g>
      <g id="Group_6076" data-name="Group 6076">
        <path id="Path_187676" data-name="Path 187676" class="cls-35" d="M361.35,182.14h0a36.73,36.73,0,0,1-1.3,5.26c-1.42-6.9-.14-15.74-.14-15.74A88,88,0,0,0,361.35,182.14Z" transform="translate(-30.6 -12.71)"/>
      </g>
      <g id="Group_6077" data-name="Group 6077">
        <path id="Path_187677" data-name="Path 187677" class="cls-31" d="M391,201.43h0c-9.33,3.6-20.2,7.11-20.2,7.11l-2.06-5.25s11-6,18.48-10.19C387.19,193.1,389.9,194.42,391,201.43Z" transform="translate(-30.6 -12.71)"/>
      </g>
      <g id="Group_6078" data-name="Group 6078">
        <path id="Path_187678" data-name="Path 187678" class="cls-36" d="M368.06,208.84l-43.71-.64,22.07,11.2Z" transform="translate(-30.6 -12.71)"/>
      </g>
      <g id="Group_6079" data-name="Group 6079">
        <path id="Path_187679" data-name="Path 187679" class="cls-37" d="M346.42,219.41,368.06,211v-2.18l-23.35,8.43Z" transform="translate(-30.6 -12.71)"/>
      </g>
      <g id="Group_6081" data-name="Group 6081">
        <g id="Group_6080" data-name="Group 6080">
          <path id="Path_187680" data-name="Path 187680" class="cls-31" d="M366.93,204.53s-2.73-.42-4.62-.86c-1.46-.34-5.09.13-6,1.06s-3.87,7.47-4.42,7.87.28,1.32,1.26.86c0,0,.9,2.85,3.11,1.78s3.72-3.4,4.88-3.81,7.91-2.49,7.91-2.49S368.67,203.83,366.93,204.53Z" transform="translate(-30.6 -12.71)"/>
        </g>
      </g>
      <g id="Group_6083" data-name="Group 6083">
        <g id="Group_6082" data-name="Group 6082">
          <path id="Path_187681" data-name="Path 187681" class="cls-34" d="M357,204.3a18.32,18.32,0,0,0-2.21,1.23c-.46.38-2.32,1.77-2.77,2.1s.68,1.25,4-.18S357,204.3,357,204.3Z" transform="translate(-30.6 -12.71)"/>
        </g>
      </g>
      <g id="Group_6084" data-name="Group 6084">
        <path id="Path_187682" data-name="Path 187682" class="cls-37" d="M346.42,219.41l-13-35.51-41.91.69,12.39,32.71Z" transform="translate(-30.6 -12.71)"/>
      </g>
      <g id="Group_6085" data-name="Group 6085">
        <path id="Path_187683" data-name="Path 187683" class="cls-38" d="M320,199.61c1.28,2.56.89,5.34-.86,6.22s-4.22-.48-5.5-3-.89-5.34.87-6.22S318.72,197.05,320,199.61Z" transform="translate(-30.6 -12.71)"/>
      </g>
      <g id="Group_6086" data-name="Group 6086">
        <path id="Path_187684" data-name="Path 187684" class="cls-31" d="M382.72,128.79c.16-1.3,2.74-1.78,2.95.18s-1.18,5.39-2.16,5.05S382.51,130.59,382.72,128.79Z" transform="translate(-30.6 -12.71)"/>
      </g>
      <g id="Group_6149" data-name="Group 6149">
        <path id="Path_186815" data-name="Path 186815" class="cls-31" d="M338.08,286.49,336.24,282l6.25-.12.26,4Z" transform="translate(-30.6 -12.71)"/>
        <path id="Path_186816" data-name="Path 186816" class="cls-39" d="M338.57,285.67a160.32,160.32,0,0,1-16.16,9.13c-4.51,2.18-4,5.11,1.34,4.1,4.43-.83,9.38-1.84,13.61-2.89.75-.18,2.2-2.95,2.9-3.14s.48,2.25,1,2.08a27.7,27.7,0,0,1,3.73-.76c-.64.22-1.31-8.13-2.12-9.28Z" transform="translate(-30.6 -12.71)"/>
      </g>
      <path id="Path_187732" data-name="Path 187732" class="cls-31" d="M369.85,132.5s-.84,3.73-2.39,5.27a4.85,4.85,0,0,0,3.21,1.37Z" transform="translate(-30.6 -12.71)"/>
      <path id="Path_187731" data-name="Path 187731" class="cls-40" d="M384.65,133.31s-1.61-5.75-8.89-5.79-8.07,0-9.84-4,1.77-8,1.77-8,9.1-2,17.17,2C391,120.47,394.56,133.26,384.65,133.31Z" transform="translate(-30.6 -12.71)"/>
      <path id="Path_187733" data-name="Path 187733" class="cls-41" d="M378,155.16l10.34-8.47L386,161Z" transform="translate(-30.6 -12.71)"/>
      <path id="Path_187734" data-name="Path 187734" class="cls-41" d="M375.1,145.33l-5.94,11.15,8.82-1.32Z" transform="translate(-30.6 -12.71)"/>
      <g id="Group_5745" data-name="Group 5745">
        <path id="Path_186815-2" data-name="Path 186815-2" class="cls-31" d="M365.81,284.05l2.9-3.41-5.48-1.89-1.38,3.45Z" transform="translate(-30.6 -12.71)"/>
        <path id="Path_186816-2" data-name="Path 186816-2" class="cls-39" d="M365.61,283.18a147.67,147.67,0,0,0,11.67,12.7c3.36,3.22,2.08,5.67-2.37,3.24-3.67-2-7.76-4.31-11.2-6.45-.6-.38-1.1-3.24-1.66-3.61s-1.06,1.85-1.51,1.54a25.9,25.9,0,0,0-3.08-1.74c.5.38,3.49-6.81,4.54-7.6Z" transform="translate(-30.6 -12.71)"/>
      </g>
    </g>
    <g id="Group_5765" data-name="Group 5765">
      <path id="Path_186842" data-name="Path 186842" class="cls-3" d="M279.25,354.85c-4.81-15.29-7.8-29.3-3.4-31.82,3.47-2,9.5,4.32,12.16,2.25,4.71-3.67-10.64-26.45-5.53-31.2,2.72-2.53,11.12,6.89,15.58,4.14,3.68-2.27-.16-9.57,3.61-19.45,2.18-5.73,7.49-13.82,13.08-13.55,6.13.3,12.16,10.66,12.11,20.11-.07,14.58-14.58,24.44-11.76,28.13,2.42,3.15,13.71-3.25,16.94.88,1.65,2.1.27,5.7-.1,6.64-4.7,12.27-26.49,14.29-26.06,16.43.1.5,1.4.78,8.89.89,12.15.17,14.87-.48,15.46.73,1.21,2.48-7.39,10.92-17.78,15.19C299.24,359.63,286.3,357,279.25,354.85Z" transform="translate(-30.6 -12.71)"/>
      <path id="Path_186843" data-name="Path 186843" class="cls-4" d="M282.5,353s22.05-19,32.36-77.89" transform="translate(-30.6 -12.71)"/>
    </g>
    <g id="Group_5764" data-name="Group 5764">
      <path id="Path_186840" data-name="Path 186840" class="cls-5" d="M362.55,336.86c-.79-21.95.35-41.54,7.07-43.27,5.3-1.36,11,9.16,15.24,7.4,7.57-3.13-4.43-38.81,4.05-43.24,4.5-2.35,12.18,13.16,19.06,11.15,5.69-1.66,3.28-12.7,11.84-24.38,5-6.78,14.92-15.53,22.21-13.14,8,2.62,12.19,18.49,8.69,31-5.39,19.23-28.15,27-25.76,32.88,2.05,5,19.29.68,22.06,7.32,1.4,3.37-1.73,7.62-2.55,8.74-10.67,14.5-40.18,9.24-40.39,12.21-.05.71,1.56,1.55,11.41,4.42,16,4.64,19.82,4.76,20.16,6.58.69,3.71-13.73,11.75-29,13.6C387.21,350.44,371.09,342.24,362.55,336.86Z" transform="translate(-30.6 -12.71)"/>
      <path id="Path_186841" data-name="Path 186841" class="cls-6" d="M367.51,335.61s36-17,71.06-91.13" transform="translate(-30.6 -12.71)"/>
    </g>
    <g id="Group_5799" data-name="Group 5799">
      <path id="Path_186915" data-name="Path 186915" class="cls-42" d="M206.56,154.19c.93-10.15,6.38-9,5-15.87-1.38-7.14-4.73-14.93-9.38-17.67-10.05-5.93-19-.11-19.71.31-11.52,6.89-9.59,27.43-9.5,29,.73,12.7-7.56,12.67-10.78,23.86-4.06,14.14,5.05,31.83,13,35.76,10.52,5.18,40.19,5.82,42.89-9.75.85-4.91,3.35-9.6-1.38-24.41C214,166.87,205.87,161.68,206.56,154.19Z" transform="translate(-30.6 -12.71)"/>
      <g id="Group_5796" data-name="Group 5796">
        <path id="Path_186916" data-name="Path 186916" class="cls-43" d="M191.15,344.32s17.13,12.29,23.15,13.08,1.25,2.85-5.4,2.68-9.9-2.07-13.79-3.5a36.13,36.13,0,0,1-11.8-7.32l-.09-.09c-2.18-2.18-1.64-6.06,1.41-5.67Z" transform="translate(-30.6 -12.71)"/>
        <path id="Path_186917" data-name="Path 186917" class="cls-44" d="M191.15,344.32l.34-4.92-6.54-.46-.32,4.56Z" transform="translate(-30.6 -12.71)"/>
        <path id="Path_186918" data-name="Path 186918" class="cls-44" d="M191.15,344.32s3.34,2.32,10.65,7.07c6.89,4.48,1.36,3.42-2.54,1.86a49.79,49.79,0,0,1-14.63-9.75Z" transform="translate(-30.6 -12.71)"/>
        <path id="Path_186919" data-name="Path 186919" class="cls-39" d="M203.25,195.3l-23.32,15.08s-7.62,11.9,5.9,66.49c0,0-9.72,30.49-2.14,64.07l8.95,1.12s9.32-56.23,12.07-64.84C208,266.9,209.85,242.71,203.25,195.3Z" transform="translate(-30.6 -12.71)"/>
        <rect id="Rectangle_6638" data-name="Rectangle 6638" class="cls-39" x="185.64" y="334.52" width="4.91" height="11.97" transform="translate(-189 504.61) rotate(-88.12)"/>
      </g>
      <g id="Group_5797" data-name="Group 5797">
        <path id="Path_186920" data-name="Path 186920" class="cls-30" d="M179.42,345.4s17.13,12.28,23.15,13.07,1.25,2.85-5.39,2.68-9.9-2.07-13.8-3.49a36.15,36.15,0,0,1-11.79-7.32l-.1-.1c-2.18-2.17-1.64-6.06,1.41-5.67Z" transform="translate(-30.6 -12.71)"/>
        <path id="Path_186921" data-name="Path 186921" class="cls-44" d="M179.42,345.4l.35-4.93-6.55-.46-.31,4.56Z" transform="translate(-30.6 -12.71)"/>
        <path id="Path_186922" data-name="Path 186922" class="cls-44" d="M179.42,345.4s3.34,2.32,10.65,7.07c6.89,4.47,1.36,3.42-2.53,1.86a49.69,49.69,0,0,1-14.63-9.76Z" transform="translate(-30.6 -12.71)"/>
        <path id="Path_186923" data-name="Path 186923" class="cls-39" d="M189.45,276.59c2.9-10,4.24-36.69-2.63-80.5l11.8-8.77c4.32,47.67.81,76-3,86.18-3.16,8.46-15.18,64.18-15.18,64.18l-.72-.12C181.59,324.36,187.35,283.83,189.45,276.59Z" transform="translate(-30.6 -12.71)"/>
        <path id="Path_186924" data-name="Path 186924" class="cls-45" d="M191.62,191,166.33,238.7s1.1,11,7.58,38.19c0,0-9.72,30.49-2.14,64.06l8.95,1.13s9.32-56.24,12.07-64.84C196.09,266.92,198.23,238.42,191.62,191Z" transform="translate(-30.6 -12.71)"/>
      </g>
      <path id="Path_186925" data-name="Path 186925" class="cls-46" d="M215.52,380.64" transform="translate(-30.6 -12.71)"/>
      <path id="Path_186926" data-name="Path 186926" class="cls-30" d="M201.89,159.06a9.3,9.3,0,0,0-5.62-6.83c-6.25-2.53-16.85-3.35-20.94,17.06-5.13,25.61-9,69.41-9,69.41s16.55,13.19,41.94-2L204.84,201l2.68-8.89a20,20,0,0,0-.31-12.48l-4.72-13.2Z" transform="translate(-30.6 -12.71)"/>
      <path id="Path_186927" data-name="Path 186927" class="cls-41" d="M191.75,149l11,7.76L201.05,161l-11.28-10.33Z" transform="translate(-30.6 -12.71)"/>
      <path id="Path_186928" data-name="Path 186928" class="cls-44" d="M187.81,129.09l-8.29,3L189,155c8.13,6.06,9.24,5.22,9.24,5.22,2.86-.54-1-6.94-2.89-10.86Z" transform="translate(-30.6 -12.71)"/>
      <path id="Path_186929" data-name="Path 186929" class="cls-41" d="M189,152.16l11,7.77-1.73,4.22L187,153.82Z" transform="translate(-30.6 -12.71)"/>
      <path id="Path_186930" data-name="Path 186930" class="cls-44" d="M201.1,126.85a20.7,20.7,0,0,1-.64,21.07c-4.47,6.68-13.23,3.2-17.83-3.35-4.08-5.81-5.58-14.44-1.64-19.88C186.1,117.63,196.59,118.43,201.1,126.85Z" transform="translate(-30.6 -12.71)"/>
      <path id="Path_186931" data-name="Path 186931" class="cls-42" d="M198.35,124.6s-11-2.34-16.58,19c-1.21,4.64-15.73-23,9.63-24.39,10.49-.57,13.44,14.65,13.44,14.65S205.54,124.69,198.35,124.6Z" transform="translate(-30.6 -12.71)"/>
      <path id="Path_186932" data-name="Path 186932" class="cls-47" d="M197.46,153.13l-6.88-2.37,5.75.4Z" transform="translate(-30.6 -12.71)"/>
      <path id="Path_186933" data-name="Path 186933" class="cls-42" d="M205.4,133s-16.71,10.85-19.65,4.17c-1.84-4.18-7.58.28-5.8-2.55C198.86,104.76,205.4,133,205.4,133Z" transform="translate(-30.6 -12.71)"/>
      <path id="Path_186934" data-name="Path 186934" class="cls-42" d="M180,134.59c2.79-.13,6.29,8.1,8.42,12.64,1.61,3.43,3.39,10.23-3.94,7.18-3.36-1.4-8.66-4.7-8.86-11.08C175.44,139.35,177.63,134.71,180,134.59Z" transform="translate(-30.6 -12.71)"/>
      <g id="Group_5798" data-name="Group 5798">
        <path id="Path_186935" data-name="Path 186935" class="cls-44" d="M184,139.86c.87,1.45,2.46,1.93,3.56,1.08a3.27,3.27,0,0,0,.4-4.17c-.86-1.45-2.46-1.93-3.55-1.07A3.25,3.25,0,0,0,184,139.86Z" transform="translate(-30.6 -12.71)"/>
      </g>
      <path id="Path_186936" data-name="Path 186936" class="cls-41" d="M186.45,141.1a1.9,1.9,0,1,1-1.95-1.86,1.9,1.9,0,0,1,1.95,1.86Z" transform="translate(-30.6 -12.71)"/>
      <path id="Path_186937" data-name="Path 186937" class="cls-44" d="M203.44,137.43l1.24,7.64-4.47-.5Z" transform="translate(-30.6 -12.71)"/>
      <path id="Path_186938" data-name="Path 186938" class="cls-30" d="M170.17,347l-.34,10.37,6,.2.16-4.83Z" transform="translate(-30.6 -12.71)"/>
      <rect id="Rectangle_6639" data-name="Rectangle 6639" class="cls-45" x="173.91" y="334.79" width="4.91" height="11.97" transform="translate(-200.62 493.14) rotate(-88.12)"/>
    </g>
    <path id="Path_186940" data-name="Path 186940" class="cls-44" d="M204.76,231.93s-.78,3.59,2.31,2.56c0,0,17.59-5.47,12.11-7.48-1.61-.59-5.44,1.32-10.06,1.11C202.86,227.84,204.76,231.93,204.76,231.93Z" transform="translate(-30.6 -12.71)"/>
    <g id="Group_6145" data-name="Group 6145">
      <path id="Path_187724" data-name="Path 187724" class="cls-48" d="M214.1,228.18l16.19-1.31a2.29,2.29,0,0,0,1.76-1.08l16.78-27.21a2.29,2.29,0,0,0-.75-3.16,2.22,2.22,0,0,0-1.18-.34l-17.34-.18a2.28,2.28,0,0,0-2,1.2L211.9,224.8a2.3,2.3,0,0,0,2.2,3.38Z" transform="translate(-30.6 -12.71)"/>
      <g id="Group_6558" data-name="Group 6558">
        <path id="Path_187683-2" data-name="Path 187683-2" class="cls-49" d="M229.72,209.09c-.92,1.86-.64,3.88.63,4.52s3.06-.35,4-2.21.64-3.88-.63-4.51S230.65,207.24,229.72,209.09Z" transform="translate(-30.6 -12.71)"/>
      </g>
    </g>
    <g id="Group_5843" data-name="Group 5843">
      <g id="Group_5842" data-name="Group 5842">
        <path id="Path_187063" data-name="Path 187063" class="cls-50" d="M178,160.61s6.54.28,5.28,14.81a137.94,137.94,0,0,0,1.62,34.44l26.84,15.59-8,9.25s-31.56-13.44-32-22.29S159.69,162.24,178,160.61Z" transform="translate(-30.6 -12.71)"/>
        <path id="Path_187064" data-name="Path 187064" class="cls-41" d="M212.14,225.15l-3.79-2.46-9.45,11.59,4.52,1.65Z" transform="translate(-30.6 -12.71)"/>
      </g>
    </g>
    <path id="Path_187001" data-name="Path 187001" class="cls-2" d="M78,132c-6-5.4-10.62-2.56-13.08-1.14-3.19,1.84-5.33,6.63-8.58,7.25-2.73.52-4.45-2.48-7.39-1.72-1.9.5-1.48,2.1-3.61,3.27-3.16,1.73-5.61-.65-8.42,1-1.75,1-3.17,3.37-2.58,4.64.91,1.95,6.21.61,14.44.17,7.8-.41,6.24.63,18.22.69,15.06.07,14.73-1.58,22.17-.34,4.23.7,7.48,1.76,8.43.34s-.68-5.18-3.44-6.54c-3.34-1.63-5.59,1.55-11,1C80.61,140.4,82.28,135.82,78,132Z" transform="translate(-30.6 -12.71)"/>
    <path id="Path_186998" data-name="Path 186998" class="cls-2" d="M430.5,18c-10-9.08-17.87-4.3-22-1.92-5.37,3.09-9,11.16-14.43,12.2-4.6.87-7.49-4.18-12.43-2.89-3.2.83-2.49,3.52-6.06,5.49-5.31,2.91-9.43-1.09-14.17,1.73-2.94,1.76-5.32,5.67-4.33,7.8,1.52,3.28,10.44,1,24.27.29,13.12-.69,10.5,1.06,30.64,1.16,25.31.12,24.77-2.66,37.28-.58,7.11,1.18,12.56,3,14.16.58s-1.14-8.71-5.78-11c-5.61-2.75-9.4,2.59-18.5,1.73C434.89,32.23,437.69,24.53,430.5,18Z" transform="translate(-30.6 -12.71)"/>
  </g>
</svg>
