<svg id="Layer_1" data-name="Layer 1" xmlns="http://www.w3.org/2000/svg" xmlns:xlink="http://www.w3.org/1999/xlink" viewBox="0 0 423.75 352.39">
  <defs>
    <style>
      .cls-1 {
        fill: #cfefff;
      }

      .cls-2 {
        fill: #3880a3;
      }

      .cls-3, .cls-5 {
        fill: none;
        stroke-miterlimit: 10;
      }

      .cls-3 {
        stroke: #2b627d;
      }

      .cls-4 {
        fill: #49a8d6;
      }

      .cls-5 {
        stroke: #3880a3;
      }

      .cls-6 {
        fill: #f4f4f4;
      }

      .cls-7 {
        fill: url(#linear-gradient);
      }

      .cls-8 {
        fill: #f5f7ff;
      }

      .cls-9 {
        fill: #e6e6e6;
      }

      .cls-10 {
        fill: #78c2ff;
      }

      .cls-11 {
        fill: #f3f3f3;
      }

      .cls-12 {
        fill: #d6d6d6;
      }

      .cls-13 {
        fill: url(#linear-gradient-2);
      }

      .cls-14 {
        fill: #c9e0ff;
      }

      .cls-15 {
        fill: #4aafff;
      }

      .cls-16 {
        fill: #ffa320;
      }

      .cls-17 {
        fill: #fff;
      }

      .cls-18 {
        fill: #003d57;
      }

      .cls-19 {
        fill: #ffb780;
      }

      .cls-20 {
        opacity: 0.36;
      }

      .cls-21 {
        fill: #005479;
      }

      .cls-22 {
        fill: #411809;
      }

      .cls-23 {
        fill: #ffb939;
      }

      .cls-24 {
        opacity: 0.1;
        isolation: isolate;
      }

      .cls-25 {
        fill: #003f65;
      }

      .cls-26 {
        fill: #19193f;
      }

      .cls-27 {
        fill: #963815;
      }

      .cls-28 {
        fill: #ffc69a;
      }

      .cls-29 {
        fill: #434343;
      }

      .cls-30 {
        fill: #eea886;
      }

      .cls-31 {
        fill: #a33131;
      }

      .cls-32 {
        fill: #d1c0ba;
      }

      .cls-33 {
        fill: #d49c34;
      }

      .cls-34 {
        fill: #eea987;
      }

      .cls-35 {
        fill: #a87860;
      }

      .cls-36 {
        fill: #efc18f;
      }
    </style>
    <linearGradient id="linear-gradient" x1="1.46" y1="447.89" x2="2.29" y2="447.89" gradientTransform="matrix(-208.57, 0, 0, 18.31, 606.85, -8193.78)" gradientUnits="userSpaceOnUse">
      <stop offset="0" stop-color="#ff9f55"/>
      <stop offset="1" stop-color="#ffd255"/>
    </linearGradient>
    <linearGradient id="linear-gradient-2" x1="-0.24" y1="437.32" x2="-0.24" y2="436.45" gradientTransform="matrix(37.39, 0, 0, -37.38, 192.88, 16387.8)" gradientUnits="userSpaceOnUse">
      <stop offset="0" stop-color="#d3dae0"/>
      <stop offset="1" stop-color="#fff"/>
    </linearGradient>
  </defs>
  <title>5-Clients-01</title>
  <g id="Group_5943" data-name="Group 5943">
    <path id="Path_186835" data-name="Path 186835" class="cls-1" d="M117.14,358.82a60,60,0,0,1-34.68-18.21c-10.7-11.21-10.67-18.91-9.63-23.54,2.3-10.19,33.32-6.75,38.74-22.86,3.56-10.59-8.26-16.84-9.92-36.07-1.48-17.12,5.69-37.52,17.86-45.44,17.33-11.27,40.72,5.36,61.3,13.21,89.73,34.23,171.34-81.23,229.9-43.77,20.75,13.26,37,44.7,32.7,69.3-4.27,24.42-28.65,41.19-22.86,51.74,3.91,7.12,16.09,1.45,25.39,10.51,9.73,9.48,9.87,28.81,6.19,37.7-9.52,22.93-53.63,4.55-145.14,9.12-57.84,2.88-84.57,13.41-146.13,2.85C151.47,361.75,135.28,361.52,117.14,358.82Z" transform="translate(-30.6 -15.57)"/>
    <g id="Group_5762" data-name="Group 5762">
      <path id="Path_186836" data-name="Path 186836" class="cls-2" d="M144.38,335.47c-6.44-20.94-13.93-39-20.83-38.45-5.44.45-7.35,12.22-11.94,12-8.15-.47-8.53-38-18-39.41-5-.75-7.17,16.38-14.32,16.74-5.91.3-7.24-10.9-19.14-19.1C53.28,262.45,41,257.46,35,262.1c-6.67,5.09-5.43,21.42,1.95,32,11.38,16.35,35.36,16.2,35,22.55-.27,5.43-17.95,7-18.38,14.12-.22,3.63,4.12,6.62,5.26,7.4,14.81,10.16,40.89-4.46,42.06-1.72.28.65-1,2-9.31,7.9-13.54,9.61-17.11,11-16.83,12.8.56,3.72,16.78,6.57,31.79,3.31C125.6,356.34,138.1,343.34,144.38,335.47Z" transform="translate(-30.6 -15.57)"/>
      <path id="Path_186837" data-name="Path 186837" class="cls-3" d="M139.31,335.91s-39.52-4.24-96.81-62.58" transform="translate(-30.6 -15.57)"/>
    </g>
    <g id="Group_5763" data-name="Group 5763">
      <path id="Path_186838" data-name="Path 186838" class="cls-4" d="M268.19,355.25c-15.53-15.53-28-30.65-24.29-36.5,2.95-4.6,14.28-.77,16.2-5,3.4-7.45-29.68-25.4-26.49-34.41,1.7-4.79,17.88,1.33,21.56-4.84,3-5.08-6.26-11.52-7.94-25.91-1-8.34.34-21.53,7.3-24.74,7.64-3.52,21.52,5.24,27.46,16.75,9.14,17.75-2.24,38.93,3.53,41.62,4.94,2.3,14.59-12.64,21.13-9.67,3.33,1.51,3.93,6.77,4.09,8.14,2.06,17.89-23.13,34.13-21.25,36.45.44.56,2.2.07,11.36-4.54,14.87-7.48,17.76-10,19.24-8.9,3,2.24-2,17.94-12,29.71C295.49,348.4,278.1,353.38,268.19,355.25Z" transform="translate(-30.6 -15.57)"/>
      <path id="Path_186839" data-name="Path 186839" class="cls-5" d="M271,351s14.78-37-10-115.12" transform="translate(-30.6 -15.57)"/>
    </g>
    <g id="Group_5766" data-name="Group 5766">
      <path id="Path_186844" data-name="Path 186844" class="cls-4" d="M190.11,333.05c.73-30-1.13-56.76-10.35-59-7.26-1.77-14.86,12.69-20.71,10.35-10.38-4.15,5.44-53.09-6.21-59-6.2-3.14-16.44,18.17-25.88,15.53-7.8-2.18-4.67-17.3-16.57-33.12-6.89-9.18-20.63-21-30.54-17.6C69,193.9,63.49,215.65,68.46,232.63c7.68,26.19,38.9,36.43,35.72,44.52-2.72,6.93-26.34,1.24-30,10.35-1.87,4.63,2.48,10.4,3.63,11.91,14.81,19.64,55.05,12,55.38,16,.08,1-2.11,2.15-15.53,6.21-21.77,6.61-27,6.83-27.43,9.32-.89,5.09,18.94,15.83,39.86,18.12C156.63,352,178.53,340.55,190.11,333.05Z" transform="translate(-30.6 -15.57)"/>
      <path id="Path_186845" data-name="Path 186845" class="cls-5" d="M183.33,331.42S133.83,308.73,84.77,208" transform="translate(-30.6 -15.57)"/>
    </g>
    <g id="Group_5765" data-name="Group 5765">
      <path id="Path_186842" data-name="Path 186842" class="cls-2" d="M279.25,354.85c-4.81-15.29-7.8-29.3-3.4-31.82,3.47-2,9.5,4.32,12.16,2.25,4.71-3.67-10.64-26.45-5.53-31.2,2.72-2.53,11.12,6.89,15.58,4.14,3.68-2.27-.16-9.57,3.61-19.45,2.18-5.73,7.49-13.82,13.08-13.55,6.13.3,12.16,10.66,12.11,20.11-.07,14.58-14.58,24.44-11.76,28.13,2.42,3.15,13.71-3.25,16.94.88,1.65,2.1.27,5.7-.1,6.64-4.7,12.27-26.49,14.29-26.06,16.43.1.5,1.4.78,8.89.89,12.15.17,14.87-.48,15.46.73,1.21,2.48-7.39,10.92-17.78,15.19C299.24,359.63,286.3,357,279.25,354.85Z" transform="translate(-30.6 -15.57)"/>
      <path id="Path_186843" data-name="Path 186843" class="cls-3" d="M282.5,353s22.05-19,32.36-77.89" transform="translate(-30.6 -15.57)"/>
    </g>
    <g id="Group_5764" data-name="Group 5764">
      <path id="Path_186840" data-name="Path 186840" class="cls-4" d="M362.55,336.86c-.79-21.95.35-41.54,7.07-43.27,5.3-1.36,11,9.16,15.24,7.4,7.57-3.13-4.43-38.81,4.05-43.24,4.5-2.35,12.18,13.16,19.06,11.15,5.69-1.66,3.28-12.7,11.84-24.38,5-6.78,14.92-15.53,22.21-13.14,8,2.62,12.19,18.49,8.69,31-5.39,19.23-28.15,27-25.76,32.88,2.05,5,19.29.68,22.06,7.32,1.4,3.37-1.73,7.62-2.55,8.74-10.67,14.5-40.18,9.24-40.39,12.21-.05.71,1.56,1.55,11.41,4.42,16,4.64,19.82,4.76,20.16,6.58.69,3.71-13.73,11.75-29,13.6C387.21,350.44,371.09,342.24,362.55,336.86Z" transform="translate(-30.6 -15.57)"/>
      <path id="Path_186841" data-name="Path 186841" class="cls-5" d="M367.51,335.61s36-17,71.06-91.13" transform="translate(-30.6 -15.57)"/>
    </g>
  </g>
  <path id="Path_187602" data-name="Path 187602" class="cls-1" d="M292.74,48.13c-8.07-7.31-14.36-3.45-17.69-1.54-4.31,2.48-7.21,9-11.6,9.81-3.7.7-6-3.36-10-2.33-2.58.67-2,2.84-4.88,4.42-4.27,2.35-7.59-.88-11.39,1.39-2.37,1.42-4.29,4.57-3.49,6.28,1.22,2.64,8.4.82,19.53.23,10.55-.55,8.44.85,24.64.93,20.37.1,19.93-2.14,30-.46,5.72,1,10.11,2.38,11.39.46s-.92-7-4.65-8.83c-4.52-2.21-7.57,2.09-14.88,1.39C296.28,59.56,298.53,53.36,292.74,48.13Z" transform="translate(-30.6 -15.57)"/>
  <path id="Path_187603" data-name="Path 187603" class="cls-1" d="M95.46,96.81c-8.08-7.3-14.37-3.45-17.69-1.54-4.32,2.49-7.21,9-11.61,9.81-3.7.7-6-3.36-10-2.33-2.57.67-2,2.84-4.88,4.42-4.27,2.35-7.58-.88-11.39,1.4-2.37,1.41-4.29,4.56-3.49,6.27,1.23,2.64,8.4.82,19.53.24,10.55-.56,8.45.85,24.65.93,20.36.1,19.92-2.14,30-.47,5.72.95,10.11,2.38,11.39.47s-.91-7-4.65-8.84c-4.51-2.21-7.56,2.09-14.88,1.4C99,108.24,101.25,102,95.46,96.81Z" transform="translate(-30.6 -15.57)"/>
  <path id="Path_187604" data-name="Path 187604" class="cls-1" d="M429.75,19.43c-7.29-6.59-13-3.11-16-1.39-3.9,2.25-6.5,8.1-10.47,8.85-3.33.64-5.43-3-9-2.1-2.32.61-1.8,2.56-4.4,4-3.85,2.12-6.84-.79-10.28,1.26-2.13,1.27-3.86,4.11-3.14,5.66,1.1,2.38,7.57.74,17.62.21,9.51-.5,7.61.77,22.23.84,18.37.09,18-1.93,27.05-.42,5.16.86,9.12,2.15,10.28.42s-.83-6.33-4.2-8c-4.07-2-6.82,1.89-13.42,1.26C432.94,29.74,435,24.15,429.75,19.43Z" transform="translate(-30.6 -15.57)"/>
  <g id="Group_6221" data-name="Group 6221">
    <rect id="Rectangle_6746" data-name="Rectangle 6746" class="cls-6" x="129.52" y="0.43" width="173.75" height="126.3"/>
  </g>
  <g id="Group_6222" data-name="Group 6222">
    <rect id="Rectangle_6747" data-name="Rectangle 6747" class="cls-7" x="129.52" y="0.43" width="173.75" height="15.26"/>
  </g>
  <path id="Rectangle_6749" data-name="Rectangle 6749" class="cls-8" d="M170.26,20.75h19a2.88,2.88,0,0,1,2.88,2.88h0a2.88,2.88,0,0,1-2.88,2.88h-19a2.88,2.88,0,0,1-2.88-2.88h0A2.88,2.88,0,0,1,170.26,20.75Z" transform="translate(-30.6 -15.57)"/>
  <rect id="Rectangle_6751" data-name="Rectangle 6751" class="cls-9" x="146.25" y="73.47" width="67.47" height="3.13"/>
  <rect id="Rectangle_6751-2" data-name="Rectangle 6751" class="cls-9" x="146.25" y="69.47" width="55.15" height="3.13"/>
  <rect id="Rectangle_6752" data-name="Rectangle 6752" class="cls-9" x="146.25" y="87.71" width="29.15" height="3.13"/>
  <rect id="Rectangle_6752-2" data-name="Rectangle 6752" class="cls-9" x="146.25" y="91.71" width="42.78" height="3.13"/>
  <rect id="Rectangle_6754" data-name="Rectangle 6754" class="cls-9" x="146.25" y="106.79" width="54.69" height="3.13"/>
  <rect id="Rectangle_6755" data-name="Rectangle 6755" class="cls-9" x="146.25" y="111.43" width="43.15" height="3.13"/>
  <rect id="Rectangle_6756" data-name="Rectangle 6756" class="cls-10" x="141.81" y="68.84" width="2.29" height="8.76"/>
  <rect id="Rectangle_6757" data-name="Rectangle 6757" class="cls-10" x="141.81" y="86.71" width="2.29" height="8.76"/>
  <rect id="Rectangle_6758" data-name="Rectangle 6758" class="cls-10" x="141.81" y="105.79" width="2.29" height="8.76"/>
  <g id="Group_6228" data-name="Group 6228">
    <g id="Group_6224" data-name="Group 6224">
      <path id="Rectangle_6759" data-name="Rectangle 6759" class="cls-10" d="M285.39,119.54h0a6.27,6.27,0,0,1,6.26,6.27h0a6.26,6.26,0,0,1-6.26,6.26h0a6.27,6.27,0,0,1-6.27-6.26h0A6.27,6.27,0,0,1,285.39,119.54Z" transform="translate(-30.6 -15.57)"/>
    </g>
    <g id="Group_6227" data-name="Group 6227">
      <g id="Group_6226" data-name="Group 6226">
        <g id="Group_6225" data-name="Group 6225">
          <path id="Path_187753" data-name="Path 187753" class="cls-11" d="M285,128.57l-3.16-2.77a.62.62,0,0,1-.05-.88.65.65,0,0,1,.87-.06l2.24,2,3.19-3.57a.63.63,0,0,1,.93.84Z" transform="translate(-30.6 -15.57)"/>
        </g>
      </g>
    </g>
  </g>
  <g id="Group_6231" data-name="Group 6231">
    <g id="Group_6230" data-name="Group 6230">
      <g id="Group_6229" data-name="Group 6229">
        <path id="Path_187754" data-name="Path 187754" class="cls-10" d="M288.8,113H282a2.86,2.86,0,0,1-2.85-2.86V103.3a2.85,2.85,0,0,1,2.85-2.85h6.83a2.85,2.85,0,0,1,2.86,2.85v6.83A2.86,2.86,0,0,1,288.8,113ZM282,101.24a2.06,2.06,0,0,0-2.06,2.06v6.83a2.06,2.06,0,0,0,2.06,2.06h6.83a2.06,2.06,0,0,0,2.06-2.06V103.3a2.06,2.06,0,0,0-2.06-2.06Z" transform="translate(-30.6 -15.57)"/>
      </g>
    </g>
  </g>
  <g id="Group_6234" data-name="Group 6234">
    <g id="Group_6233" data-name="Group 6233">
      <g id="Group_6232" data-name="Group 6232">
        <path id="Path_187755" data-name="Path 187755" class="cls-10" d="M307.67,93.9h-6.83A2.86,2.86,0,0,1,298,91V84.21a2.85,2.85,0,0,1,2.86-2.85h6.83a2.84,2.84,0,0,1,2.85,2.85V91A2.85,2.85,0,0,1,307.67,93.9Zm-6.83-11.75a2.06,2.06,0,0,0-2.06,2.06V91a2.06,2.06,0,0,0,2.06,2.06h6.83A2.06,2.06,0,0,0,309.73,91V84.21a2.06,2.06,0,0,0-2.06-2.06Z" transform="translate(-30.6 -15.57)"/>
      </g>
    </g>
  </g>
  <g id="Group_6237" data-name="Group 6237">
    <g id="Group_6236" data-name="Group 6236">
      <g id="Group_6235" data-name="Group 6235">
        <path id="Path_187756" data-name="Path 187756" class="cls-10" d="M307.67,132.08h-6.83a2.87,2.87,0,0,1-2.86-2.86v-6.83a2.87,2.87,0,0,1,2.86-2.86h6.83a2.86,2.86,0,0,1,2.85,2.86v6.83A2.86,2.86,0,0,1,307.67,132.08Zm-6.83-11.75a2.06,2.06,0,0,0-2.06,2.06v6.83a2.06,2.06,0,0,0,2.06,2.06h6.83a2.06,2.06,0,0,0,2.06-2.06v-6.83a2.06,2.06,0,0,0-2.06-2.06Z" transform="translate(-30.6 -15.57)"/>
      </g>
    </g>
  </g>
  <g id="Group_6242" data-name="Group 6242">
    <g id="Group_6238" data-name="Group 6238">
      <path id="Rectangle_6760" data-name="Rectangle 6760" class="cls-10" d="M304.25,100.45h0a6.27,6.27,0,0,1,6.27,6.27h0a6.27,6.27,0,0,1-6.27,6.26h0a6.26,6.26,0,0,1-6.26-6.26h0A6.27,6.27,0,0,1,304.25,100.45Z" transform="translate(-30.6 -15.57)"/>
    </g>
    <g id="Group_6241" data-name="Group 6241">
      <g id="Group_6240" data-name="Group 6240">
        <g id="Group_6239" data-name="Group 6239">
          <path id="Path_187757" data-name="Path 187757" class="cls-11" d="M303.86,109.48l-3.17-2.77a.62.62,0,1,1,.8-.95h0l2.24,2,3.2-3.57a.63.63,0,0,1,.88,0,.63.63,0,0,1,0,.87Z" transform="translate(-30.6 -15.57)"/>
        </g>
      </g>
    </g>
  </g>
  <rect id="Rectangle_6775" data-name="Rectangle 6775" class="cls-12" x="146.69" y="57.85" width="13.39" height="1.65"/>
  <rect id="Rectangle_6776" data-name="Rectangle 6776" class="cls-12" x="143.44" y="54.92" width="19.88" height="1.65"/>
  <path id="Path_187783" data-name="Path 187783" class="cls-10" d="M187.47,47.85A3.46,3.46,0,1,1,184,44.39h0A3.46,3.46,0,0,1,187.47,47.85Z" transform="translate(-30.6 -15.57)"/>
  <path id="Path_187784" data-name="Path 187784" class="cls-10" d="M190.24,59.12v6.57a15.21,15.21,0,0,1-12.53,0V59.12a6.27,6.27,0,0,1,12.53,0Z" transform="translate(-30.6 -15.57)"/>
  <g id="Group_6399" data-name="Group 6399">
    <path id="Path_187785" data-name="Path 187785" class="cls-13" d="M184,67.45a15.39,15.39,0,0,1-6.44-1.39,15.57,15.57,0,1,1,12.88,0A15.39,15.39,0,0,1,184,67.45Zm0-30.32a14.75,14.75,0,1,0,14.75,14.76h0A14.77,14.77,0,0,0,184,37.14Z" transform="translate(-30.6 -15.57)"/>
  </g>
  <g id="Group_6412" data-name="Group 6412">
    <g id="Group_6400" data-name="Group 6400">
      <rect id="Rectangle_6777" data-name="Rectangle 6777" class="cls-14" x="177.3" y="26.08" width="1.08" height="24.97"/>
    </g>
    <g id="Group_6401" data-name="Group 6401">
      <rect id="Rectangle_6778" data-name="Rectangle 6778" class="cls-14" x="182.28" y="26.08" width="1.08" height="24.97"/>
    </g>
    <g id="Group_6402" data-name="Group 6402">
      <rect id="Rectangle_6779" data-name="Rectangle 6779" class="cls-14" x="187.27" y="26.08" width="1.08" height="24.97"/>
    </g>
    <g id="Group_6403" data-name="Group 6403">
      <rect id="Rectangle_6780" data-name="Rectangle 6780" class="cls-14" x="192.25" y="26.08" width="1.08" height="24.97"/>
    </g>
    <g id="Group_6404" data-name="Group 6404">
      <rect id="Rectangle_6781" data-name="Rectangle 6781" class="cls-14" x="197.24" y="26.08" width="1.08" height="24.97"/>
    </g>
    <g id="Group_6405" data-name="Group 6405">
      <rect id="Rectangle_6782" data-name="Rectangle 6782" class="cls-14" x="202.22" y="26.08" width="1.08" height="24.97"/>
    </g>
    <g id="Group_6406" data-name="Group 6406">
      <rect id="Rectangle_6783" data-name="Rectangle 6783" class="cls-14" x="207.21" y="26.08" width="1.08" height="24.97"/>
    </g>
    <g id="Group_6407" data-name="Group 6407">
      <rect id="Rectangle_6784" data-name="Rectangle 6784" class="cls-14" x="212.19" y="26.08" width="1.08" height="24.97"/>
    </g>
    <g id="Group_6408" data-name="Group 6408">
      <rect id="Rectangle_6785" data-name="Rectangle 6785" class="cls-14" x="217.18" y="26.08" width="1.08" height="24.97"/>
    </g>
    <g id="Group_6409" data-name="Group 6409">
      <rect id="Rectangle_6786" data-name="Rectangle 6786" class="cls-14" x="222.16" y="26.08" width="1.08" height="24.97"/>
    </g>
    <g id="Group_6410" data-name="Group 6410">
      <rect id="Rectangle_6787" data-name="Rectangle 6787" class="cls-14" x="227.15" y="26.08" width="1.08" height="24.97"/>
    </g>
    <g id="Group_6411" data-name="Group 6411">
      <rect id="Rectangle_6788" data-name="Rectangle 6788" class="cls-14" x="232.13" y="26.08" width="1.08" height="24.97"/>
    </g>
  </g>
  <g id="Group_6425" data-name="Group 6425">
    <g id="Group_6413" data-name="Group 6413">
      <rect id="Rectangle_6789" data-name="Rectangle 6789" class="cls-15" x="177.3" y="33.55" width="1.08" height="17.51"/>
    </g>
    <g id="Group_6414" data-name="Group 6414">
      <rect id="Rectangle_6790" data-name="Rectangle 6790" class="cls-15" x="182.28" y="39.6" width="1.08" height="11.46"/>
    </g>
    <g id="Group_6415" data-name="Group 6415">
      <rect id="Rectangle_6791" data-name="Rectangle 6791" class="cls-15" x="187.27" y="29.69" width="1.08" height="21.37"/>
    </g>
    <g id="Group_6416" data-name="Group 6416">
      <rect id="Rectangle_6792" data-name="Rectangle 6792" class="cls-15" x="192.25" y="44.84" width="1.08" height="6.22"/>
    </g>
    <g id="Group_6417" data-name="Group 6417">
      <rect id="Rectangle_6793" data-name="Rectangle 6793" class="cls-15" x="197.24" y="38.57" width="1.08" height="12.49"/>
    </g>
    <g id="Group_6418" data-name="Group 6418">
      <rect id="Rectangle_6794" data-name="Rectangle 6794" class="cls-15" x="202.22" y="33.89" width="1.08" height="17.16"/>
    </g>
    <g id="Group_6419" data-name="Group 6419">
      <rect id="Rectangle_6795" data-name="Rectangle 6795" class="cls-15" x="207.21" y="39.99" width="1.08" height="11.07"/>
    </g>
    <g id="Group_6420" data-name="Group 6420">
      <rect id="Rectangle_6796" data-name="Rectangle 6796" class="cls-15" x="212.19" y="32.31" width="1.08" height="18.75"/>
    </g>
    <g id="Group_6421" data-name="Group 6421">
      <rect id="Rectangle_6797" data-name="Rectangle 6797" class="cls-15" x="217.18" y="40.76" width="1.08" height="10.3"/>
    </g>
    <g id="Group_6422" data-name="Group 6422">
      <rect id="Rectangle_6798" data-name="Rectangle 6798" class="cls-15" x="222.16" y="34.58" width="1.08" height="16.48"/>
    </g>
    <g id="Group_6423" data-name="Group 6423">
      <rect id="Rectangle_6799" data-name="Rectangle 6799" class="cls-15" x="227.15" y="42.82" width="1.08" height="8.24"/>
    </g>
    <g id="Group_6424" data-name="Group 6424">
      <rect id="Rectangle_6800" data-name="Rectangle 6800" class="cls-15" x="232.13" y="34.58" width="1.08" height="16.48"/>
    </g>
  </g>
  <g id="bars">
    <g id="Group_6560" data-name="Group 6560">
      <g id="Group_6559" data-name="Group 6559">
        <path id="Path_187900" data-name="Path 187900" class="cls-15" d="M306.11,37.94a4.61,4.61,0,1,0,.05,0Zm0,8.22a3.6,3.6,0,1,1,3.61-3.59h0A3.61,3.61,0,0,1,306.11,46.16Z" transform="translate(-30.6 -15.57)"/>
      </g>
    </g>
    <g id="Group_6562" data-name="Group 6562">
      <g id="Group_6561" data-name="Group 6561">
        <path id="Path_187901" data-name="Path 187901" class="cls-15" d="M307.57,43.27a.77.77,0,0,0-.1-.25.94.94,0,0,0-.12-.22c-.07-.06-.1-.13-.16-.19a.57.57,0,0,0-.22-.16.86.86,0,0,0-.23-.13c-.09,0-.15-.09-.25-.12l-.24-.1a.26.26,0,0,1-.13-.06S306,42,306,42s-.09,0-.12-.07l-.1-.09a.16.16,0,0,1-.06-.13.15.15,0,0,1,0-.13v-.15s0-.1,0-.13,0-.1.06-.13l.1-.09A.26.26,0,0,1,306,41a.45.45,0,0,1,.16,0h.19a.41.41,0,0,1,.16,0l.16,0,.12,0c.07,0,.1,0,.13,0l.16.06,0-.19.06-.5v-.13l-.12,0-.13,0s-.06,0-.13,0l-.15,0c-.07,0-.1,0-.16,0h0v-.6h-.76v.63h0a1,1,0,0,0-.28.13.5.5,0,0,0-.22.16,1,1,0,0,0-.19.22.6.6,0,0,0-.13.25l-.09.28a1.17,1.17,0,0,0,0,.32.69.69,0,0,0,0,.25.75.75,0,0,0,.09.25l.13.22a1.46,1.46,0,0,0,.16.19.5.5,0,0,0,.22.16.61.61,0,0,0,.22.13l.25.12.25.1a.23.23,0,0,1,.12.06s.1,0,.13.07a.15.15,0,0,0,.1.06l.09.09a.81.81,0,0,1,.06.13.94.94,0,0,1,0,.16v.16a.19.19,0,0,1-.07.12l-.09.1a.38.38,0,0,1-.13.09s-.09,0-.13.07l-.15,0h-.42l-.15,0a.4.4,0,0,1-.19-.07c-.07,0-.13,0-.19-.06s-.07,0-.1,0l-.09,0-.19-.1,0,.22-.06.57v.1l.1,0a.45.45,0,0,1,.28,0,.63.63,0,0,0,.22.07c.07,0,.16,0,.25.06a.54.54,0,0,0,.25,0h.07v.64h.76v-.67h0a.9.9,0,0,0,.28-.13.82.82,0,0,0,.25-.16.79.79,0,0,0,.19-.22,1.32,1.32,0,0,0,.16-.25l.1-.28a.87.87,0,0,0,0-.32A.71.71,0,0,0,307.57,43.27Z" transform="translate(-30.6 -15.57)"/>
      </g>
    </g>
    <g id="Group_6564" data-name="Group 6564">
      <g id="Group_6563" data-name="Group 6563">
        <path id="Path_187902" data-name="Path 187902" class="cls-15" d="M303.89,47.77a.53.53,0,0,0-.73-.09L298,51.77,291.4,49a.51.51,0,0,0-.48.06l-7.1,5.08a.5.5,0,0,0-.12.69.45.45,0,0,0,.41.23.56.56,0,0,0,.28-.1l6.88-4.91,6.66,2.75a.58.58,0,0,0,.51-.06l5.36-4.25A.53.53,0,0,0,303.89,47.77Z" transform="translate(-30.6 -15.57)"/>
      </g>
    </g>
    <g id="Group_6566" data-name="Group 6566">
      <g id="Group_6565" data-name="Group 6565">
        <path id="Path_187903" data-name="Path 187903" class="cls-15" d="M311.31,65.15H309V50.47a.49.49,0,0,0-.49-.51h-4.68a.5.5,0,0,0-.5.49v14.7h-1.72V55.54a.5.5,0,0,0-.49-.51h-4.71a.5.5,0,0,0-.5.5h0v9.61h-1.71V54.78a.5.5,0,0,0-.5-.51H289a.5.5,0,0,0-.51.49V65.15h-1.71V57.76a.51.51,0,0,0-.49-.51h-4.71a.5.5,0,0,0-.51.5h0v7.39h-2.38a.5.5,0,0,0-.5.51.5.5,0,0,0,.5.5h32.6a.49.49,0,0,0,.5-.49h0a.45.45,0,0,0-.4-.51Zm-25.59,0h-3.64V58.27h3.64Zm7.42,0h-3.65V55.29h3.65Zm7.39,0h-3.65v-9.1h3.65Zm7.42,0H304.3V51H308Z" transform="translate(-30.6 -15.57)"/>
      </g>
    </g>
  </g>
  <path id="Path_187003" data-name="Path 187003" class="cls-16" d="M323,196.64c-6.36,5.52-42.42-9.75-42.42-9.75l.72-11.24,31.44,7.89a122.3,122.3,0,0,0,24.81-21.43c8.94-10.35,14.26-6.1,14.26-6.1C365,169.45,329.34,191.13,323,196.64Z" transform="translate(-30.6 -15.57)"/>
  <path id="Path_187008" data-name="Path 187008" class="cls-17" d="M280.24,187.51l4,1.64.53-14-4.29-.84Z" transform="translate(-30.6 -15.57)"/>
  <g id="Group_5823" data-name="Group 5823">
    <g id="Group_5822" data-name="Group 5822">
      <path id="Path_187012" data-name="Path 187012" class="cls-18" d="M337.19,339s1.49,7.64,1.26,10.64a18.52,18.52,0,0,1-3.07.25l-.4-1.4A8.45,8.45,0,0,1,333.1,350c-5.93,1.14-16.09,2.59-21.17,2.12-6.4-.6-10.76-3.13-4.88-3.2S330.82,339,330.82,339Z" transform="translate(-30.6 -15.57)"/>
      <g id="Group_5821" data-name="Group 5821">
        <path id="Path_187013" data-name="Path 187013" class="cls-19" d="M337.19,339l.22-4.42-6.35-.32-.24,4.78Z" transform="translate(-30.6 -15.57)"/>
      </g>
    </g>
  </g>
  <path id="Path_187014" data-name="Path 187014" class="cls-18" d="M320.86,280.17c1.94,8.18,9.08,56.67,9.08,56.67l8.39-.41c4.7-20.5.31-58.42.31-58.42,6.69-22,13.14-78.65,13.14-78.65l-21.17-3.62C321.43,246.62,318.53,270.34,320.86,280.17Z" transform="translate(-30.6 -15.57)"/>
  <path id="Path_187015" data-name="Path 187015" class="cls-18" d="M339.81,332.37l-.58,4.93-10.5.26-.64-5.49Z" transform="translate(-30.6 -15.57)"/>
  <g id="Group_5824" data-name="Group 5824" class="cls-20">
    <path id="Path_187016" data-name="Path 187016" d="M340,218.8a.72.72,0,0,1,.08.32Z" transform="translate(-30.6 -15.57)"/>
  </g>
  <g id="Group_5828" data-name="Group 5828">
    <g id="Group_5827" data-name="Group 5827">
      <g id="Group_5826" data-name="Group 5826">
        <path id="Path_187017" data-name="Path 187017" class="cls-21" d="M362.18,340.93s1.48,7.64,1.26,10.64a18.52,18.52,0,0,1-3.07.25l-.4-1.4a8.45,8.45,0,0,1-1.88,1.54c-5.93,1.15-16.09,2.59-21.16,2.12-6.42-.6-10.77-3.12-4.89-3.19S355.81,341,355.81,341Z" transform="translate(-30.6 -15.57)"/>
        <g id="Group_5825" data-name="Group 5825">
          <path id="Path_187018" data-name="Path 187018" class="cls-19" d="M362.17,340.93l.22-4.42-6.34-.31-.24,4.78Z" transform="translate(-30.6 -15.57)"/>
        </g>
      </g>
    </g>
    <path id="Path_187019" data-name="Path 187019" class="cls-21" d="M341.85,279.42c2.78,7.94,12.81,60.09,12.81,60.09l8.3-1.26c6.26-31.45-3.53-59.61-3.53-59.61,11.29-51.16,3.91-62.06,3.91-62.06l-22.46-17.49C335.87,243.4,338.54,269.89,341.85,279.42Z" transform="translate(-30.6 -15.57)"/>
    <path id="Path_187020" data-name="Path 187020" class="cls-21" d="M364.27,333.82l-.18,5-10.45,1.09-1.08-5.42Z" transform="translate(-30.6 -15.57)"/>
    <path id="Path_187021" data-name="Path 187021" class="cls-21" d="M342.76,257.88l-17.65-30.26,1.95-11.71,12.18.33Z" transform="translate(-30.6 -15.57)"/>
  </g>
  <path id="Path_187022" data-name="Path 187022" class="cls-22" d="M331.82,117.78s-2.53-8.1,2-13.25c2.65-3,11.32-1,11.32-1Z" transform="translate(-30.6 -15.57)"/>
  <path id="Path_187023" data-name="Path 187023" class="cls-23" d="M366.42,156c0,32.82-1.3,65.87-1.3,65.87l-39-1s-2.24-10.73-.74-28.75c.72-8.54-3.06-16.23,1-28.56,5-15.26,11.42-20.45,11.42-20.45C352.77,139.73,366.41,144,366.42,156Z" transform="translate(-30.6 -15.57)"/>
  <path id="Path_187024" data-name="Path 187024" class="cls-17" d="M334.36,152.37l-.07-6.93c.37-.31,9.61-7.7,15.9-10.39l2.14,5C346.73,142.44,334.28,153.21,334.36,152.37Z" transform="translate(-30.6 -15.57)"/>
  <path id="Path_187025" data-name="Path 187025" class="cls-19" d="M355.14,112.67c2.68,5.66.62,13.7-4.1,18.34-5.33,5.21-14.71,6.51-17.67-.36-2.32-5.36-3.31-13.68,1.73-20C340.66,103.73,351.66,105.35,355.14,112.67Z" transform="translate(-30.6 -15.57)"/>
  <path id="Path_187026" data-name="Path 187026" class="cls-19" d="M338.3,140.92c-.75,4-2.44,9.82.26,9.62,0,0,11.36-3.73,11.72-8.25l2.08-25.81-10.81-.87Z" transform="translate(-30.6 -15.57)"/>
  <path id="Path_187027" data-name="Path 187027" class="cls-22" d="M331.74,117s-.66-19.65,15.61-13.15c25.13,10.05-1.21,35.87,1.12,24.35,4.09-20.19-9.22-18.58-9.22-18.58C332.66,108.51,331.74,117,331.74,117Z" transform="translate(-30.6 -15.57)"/>
  <path id="Path_187028" data-name="Path 187028" class="cls-24" d="M339,135.52l6.4-1.12-6.74,3.77Z" transform="translate(-30.6 -15.57)"/>
  <path id="Path_187029" data-name="Path 187029" class="cls-24" d="M337,148.59a19,19,0,0,1,.3-2.81l9.3-4.55S337.11,149.18,337,148.59Z" transform="translate(-30.6 -15.57)"/>
  <path id="Path_187030" data-name="Path 187030" class="cls-17" d="M354.81,143.16l-2.67-5.06c-.45.24-11.1,3.81-16.31,8.8l.06,8.8C340.53,151.26,354.71,143.21,354.81,143.16Z" transform="translate(-30.6 -15.57)"/>
  <path id="Path_187031" data-name="Path 187031" class="cls-22" d="M352.61,119.89c.31,3.1-6.64,3.88-6-.33,1.34-8.86-12.83-8.43-12.83-8.43S350.38,97.73,352.61,119.89Z" transform="translate(-30.6 -15.57)"/>
  <g id="Group_5829" data-name="Group 5829">
    <path id="Path_187032" data-name="Path 187032" class="cls-19" d="M351.61,121.33c-.85-1-2.39-.8-3.43.38a3,3,0,0,0-.34,3.88c.86,1,2.4.8,3.44-.38A3,3,0,0,0,351.61,121.33Z" transform="translate(-30.6 -15.57)"/>
  </g>
  <path id="Path_187033" data-name="Path 187033" class="cls-25" d="M331.15,351.77" transform="translate(-30.6 -15.57)"/>
  <g id="Group_5830" data-name="Group 5830">
    <path id="Path_187034" data-name="Path 187034" class="cls-23" d="M381.32,195.3c1.7,9.92-1,42.33-1,42.33l-13,3.31-.12-42.56s-4.28-11.73-15-36.77c-6.33-14.88,7.41-15.43,7.41-15.43C372.76,144.28,379.25,183.13,381.32,195.3Z" transform="translate(-30.6 -15.57)"/>
  </g>
  <path id="Path_187035" data-name="Path 187035" class="cls-19" d="M367.39,249.86c0,.58.55,1.1,1.33,1.16a53.31,53.31,0,0,0,6.19-1.78,6.77,6.77,0,0,0,4.63-5.61l.22-1.78c.49-1.94-1.22-4.93-1.22-4.93l-6.51-.78-3.92,2-.36,7.48Z" transform="translate(-30.6 -15.57)"/>
  <path id="Path_187036" data-name="Path 187036" class="cls-19" d="M369.09,244.92l-1.32,3.35s-2.41,0-1.38-3.71c.83-3,1.56-3.28,1.56-3.28Z" transform="translate(-30.6 -15.57)"/>
  <path id="Path_187037" data-name="Path 187037" class="cls-17" d="M380.47,240.81l1-6.8-14.88.64-.17,6.63Z" transform="translate(-30.6 -15.57)"/>
  <path id="Path_187068" data-name="Path 187068" class="cls-19" d="M334,119.61a21.45,21.45,0,0,1-4.31,6.86l5.48,2.2Z" transform="translate(-30.6 -15.57)"/>
  <g id="Group_6520" data-name="Group 6520">
    <path id="Path_187876" data-name="Path 187876" class="cls-26" d="M301.93,197.69H281a3.12,3.12,0,0,1-3-2.38l-9.08-37.52a3.1,3.1,0,0,1,2.28-3.75,3,3,0,0,1,.73-.09h20.93a3.11,3.11,0,0,1,3,2.37L305,193.85a3.11,3.11,0,0,1-2.29,3.75A3,3,0,0,1,301.93,197.69Z" transform="translate(-30.6 -15.57)"/>
  </g>
  <g id="Group_6522" data-name="Group 6522">
    <g id="Group_6521" data-name="Group 6521">
      <path id="Path_187877" data-name="Path 187877" class="cls-19" d="M276.34,187.26c1-.95,3-1.5,4.69-2.63a1.33,1.33,0,0,0,.28-2.3c1.73-.59,1.55-1.39,1.32-1.93-.3-.73-2.19-.52-2.19-.52a17.22,17.22,0,0,0,2.4-.69c.7-.31.46-1.53-.62-1.91s-5.46.69-5.46.69l2.88-1.43c2.16-1.09,2.64-2.08,1.36-2.55-.89-.33-2.63.36-6,2.61-2.52,1.69-2.32,1.91-2.32,1.91S275.11,188.38,276.34,187.26Z" transform="translate(-30.6 -15.57)"/>
    </g>
  </g>
  <g id="Group_6533" data-name="Group 6533">
    <path id="Path_187883" data-name="Path 187883" class="cls-27" d="M179.75,141.83c-6-.89-10.83,6.58-13.36,12-1.64,3.52-5.61,15-4.38,23.4,1.08,7.44-1.28,9.31-4.75,19.58-2.77,8.18,1.39,12.18,5.42,14.78,7.2,4.65,28.78,2.9,35.36-8.23,5.43-9.19-4.36-28.38-6.24-32-2.58-5.05-9.15-16.26-5.38-21.29.57-.77,1.61-1.7,1.51-3C187.72,144.35,183.12,142.33,179.75,141.83Z" transform="translate(-30.6 -15.57)"/>
    <path id="Path_187802" data-name="Path 187802" class="cls-28" d="M175,233.64a44.29,44.29,0,0,0-6.08,15c-1.42,8.07.26,35.07.2,39.06s-3.78,13.93-3,21.45,7,44.34,7,44.34l4.75-1s-.47-38.16,0-41.32,1.39-14.66,1.58-16S191.14,259.8,191.14,254,187.61,224.14,175,233.64Z" transform="translate(-30.6 -15.57)"/>
    <path id="Path_187803" data-name="Path 187803" class="cls-28" d="M201.29,236.3s8.6,32.84,9.62,37.39,2.5,8.3,2.5,10.23c0,4.49-1.66,11.68-1.66,11.68l-13.22,52-5.49.86s3.17-31.95,3.33-38.08,4.89-14.87,4-17.47-15-32.59-15-32.59S174.76,226.77,201.29,236.3Z" transform="translate(-30.6 -15.57)"/>
    <path id="Path_187804" data-name="Path 187804" class="cls-28" d="M183.58,360.17s-4.24,2.37-7-.68a21.59,21.59,0,0,1-3.59-6l4.75-1Z" transform="translate(-30.6 -15.57)"/>
    <path id="Path_187806" data-name="Path 187806" class="cls-23" d="M213.41,283.92s-19.9,8.55-49.53,8.55c0,0,3.12-44.9,7.43-54.57s30.66,1,30.66,1S213.41,275.82,213.41,283.92Z" transform="translate(-30.6 -15.57)"/>
    <g id="Group_6456" data-name="Group 6456">
      <path id="Path_187807" data-name="Path 187807" class="cls-23" d="M235.8,218.88s-18.15,1.56-22.64-.44c-2.25-1-5.3-5.15-8.11-9.7-.48-.77-1-1.56-1.41-2.34-3.44-5.86-6.22-11.62-6.22-11.62s-8.3-10.45.54-14.18a10.78,10.78,0,0,1,5.56,4.25,41.34,41.34,0,0,1,4.22,9.89c.42,1.63,7.53,16,8,16.39s4.91.13,8.35.46c5.62.53,11.54.84,11.54.84Z" transform="translate(-30.6 -15.57)"/>
    </g>
    <g id="Group_6457" data-name="Group 6457">
      <path id="Path_187808" data-name="Path 187808" class="cls-23" d="M204.37,204.3c-2.23,5.17-.13,6.89-1.15,12.06s-1.38,19.9-1.19,22.77-25.46,5.82-31.4.59c0,0,2-11.17,5.62-18.12.69-1.32.36-6.51-.34-8.3L173.74,208h0c-1.13-2.77-2.52-6.15-3.68-9-1.39-3.37-2.46-6-2.46-6s-.89-8.32,2.57-11c3-2.33,11.17-3.16,12.64-3.67a25.28,25.28,0,0,1,8.74-.28,47.88,47.88,0,0,0,6.19,2.49c1.59.32,7.78,8.36,8.87,11.29S206.61,199.13,204.37,204.3Z" transform="translate(-30.6 -15.57)"/>
    </g>
    <g id="Group_6458" data-name="Group 6458">
      <path id="Path_187809" data-name="Path 187809" class="cls-28" d="M193.74,172.7s-.92,8.43-.73,11.18c0,0-3.84,4.67-9.27-5.7a18.25,18.25,0,0,0-.37-10C181.65,162.37,193.74,172.7,193.74,172.7Z" transform="translate(-30.6 -15.57)"/>
    </g>
    <path id="Path_187810" data-name="Path 187810" class="cls-28" d="M179.14,179s3.28,9.7,12.3,9,4.27-8.2,4.27-8.2a21.33,21.33,0,0,0-2.88-1.41c-.63-.12-9-.47-9-.47Z" transform="translate(-30.6 -15.57)"/>
    <path id="Rectangle_6803" data-name="Rectangle 6803" class="cls-29" d="M218.74,187h15.47a4.72,4.72,0,0,1,4.72,4.72v26.15a4.72,4.72,0,0,1-4.72,4.72H218.74a4.72,4.72,0,0,1-4.72-4.72V191.67A4.72,4.72,0,0,1,218.74,187Z" transform="translate(-30.6 -15.57)"/>
    <rect id="Rectangle_6804" data-name="Rectangle 6804" class="cls-17" x="185.11" y="173.8" width="21.52" height="30.75" rx="2.32"/>
    <path id="Path_187811" data-name="Path 187811" class="cls-28" d="M207.8,215.27a2.47,2.47,0,0,0,1.35-.39c.93-.7,1.26-2.41,2.89-2.29s2.39,5.24,2,6.21-2.67,1.45-6,.79S207.8,215.27,207.8,215.27Z" transform="translate(-30.6 -15.57)"/>
    <path id="Path_187812" data-name="Path 187812" class="cls-28" d="M211.48,212.63c1.66-.55,3.35-1,5.05-1.39,2.38-.51,5.21-.68,5.49-.27s-2.31.86-4.64,1.52c-2.14.61-1.63.83-1.63.83s-.14-.07,2.3-.3c2.64-.25,5.34-.24,5.61.29.13.25,0,.42-.91.66.57,0,.65.13.67.35.11,1.19-3.72,2.13-5.24,2.5,1.17-.28,2-.36,1.63.43s-6,2-7.89,2.58C209.82,220.46,211.48,212.63,211.48,212.63Z" transform="translate(-30.6 -15.57)"/>
    <g id="Group_6459" data-name="Group 6459">
      <path id="Path_187813" data-name="Path 187813" class="cls-28" d="M236.09,193.78s3.54-.82,4.68.88a6.66,6.66,0,0,1,.9,4.92c-.28,1-1.2,3.63-2.4,3.09C235.43,201,236.09,193.78,236.09,193.78Z" transform="translate(-30.6 -15.57)"/>
    </g>
    <g id="Group_6460" data-name="Group 6460">
      <path id="Path_187814" data-name="Path 187814" class="cls-28" d="M239.6,193.82s-.5-2.39-1.46-2-.09,2-.09,2Z" transform="translate(-30.6 -15.57)"/>
    </g>
    <g id="Group_6461" data-name="Group 6461">
      <path id="Path_187815" data-name="Path 187815" class="cls-30" d="M236.09,193.78s.06-1.37,2.54,0S236.09,193.78,236.09,193.78Z" transform="translate(-30.6 -15.57)"/>
    </g>
    <path id="Path_187816" data-name="Path 187816" class="cls-31" d="M203.64,206.4s2.7-6.42,2.82-7.87a47.48,47.48,0,0,1-1.41,10.21c-.48-.77-1-1.56-1.41-2.34Z" transform="translate(-30.6 -15.57)"/>
    <path id="Path_187817" data-name="Path 187817" class="cls-32" d="M206.46,198.53v0Z" transform="translate(-30.6 -15.57)"/>
    <path id="Path_187818" data-name="Path 187818" class="cls-33" d="M192.61,215.27l-11.24-19.79s3.93,19.74,6.9,20.41S192.61,215.27,192.61,215.27Z" transform="translate(-30.6 -15.57)"/>
    <g id="Group_6462" data-name="Group 6462">
      <path id="Path_187819" data-name="Path 187819" class="cls-23" d="M170.64,181.6s-5.4,2.69-3.54,9.64a29,29,0,0,0,5.49,11.54c1.67,2.46,5.1,9.06,5.52,9.81s4.54,11.52,8.32,12.75,22.53-4.73,23-4.08,0-6.57,0-6.57-8.7.63-10.62.51c-3.12-.21-8.12,1.06-9.33-1.64-1.41-3.17-6.48-13.6-7-15.32S175.64,179.84,170.64,181.6Z" transform="translate(-30.6 -15.57)"/>
    </g>
    <g id="Group_6463" data-name="Group 6463">
      <path id="Path_187820" data-name="Path 187820" class="cls-28" d="M192.34,148.58s8.32,5.44,5.62,18.56-12.53,5.91-13.59,5.17-4.37-9-4.5-12.55C179.75,156.39,178,142.86,192.34,148.58Z" transform="translate(-30.6 -15.57)"/>
    </g>
    <g id="Group_6465" data-name="Group 6465">
      <path id="Path_187822" data-name="Path 187822" class="cls-34" d="M184.75,160.27c-.27-1.55-3.7-2.87-3.65-.53s2,5,3,4.86S185,161.71,184.75,160.27Z" transform="translate(-30.6 -15.57)"/>
    </g>
    <path id="Path_187823" data-name="Path 187823" class="cls-35" d="M185.17,172.85c.06.11,2,3.92,8.09,4.88.14-1.49.32-3.31.32-3.31A9.69,9.69,0,0,1,185.17,172.85Z" transform="translate(-30.6 -15.57)"/>
    <g id="Group_6480" data-name="Group 6480">
      <rect id="Rectangle_6805" data-name="Rectangle 6805" class="cls-9" x="187.56" y="177.44" width="7.56" height="1.59"/>
      <g id="Group_6472" data-name="Group 6472">
        <g id="Group_6470" data-name="Group 6470">
          <g id="Group_6469" data-name="Group 6469">
            <g id="Group_6468" data-name="Group 6468">
              <g id="Group_6467" data-name="Group 6467">
                <g id="Group_6466" data-name="Group 6466">
                  <path id="Path_187824" data-name="Path 187824" class="cls-10" d="M230.23,197.33l-1.07-1.76a.3.3,0,0,1,.1-.42.31.31,0,0,1,.42.11l.75,1.23,2-1.19a.32.32,0,0,1,.42.11.3.3,0,0,1-.11.42h0Z" transform="translate(-30.6 -15.57)"/>
                </g>
              </g>
            </g>
          </g>
        </g>
        <g id="Group_6471" data-name="Group 6471">
          <path id="Path_187825" data-name="Path 187825" class="cls-10" d="M231,200a3.85,3.85,0,1,1,3.84-3.85A3.85,3.85,0,0,1,231,200Zm0-7.15a3.3,3.3,0,1,0,3.29,3.3,3.3,3.3,0,0,0-3.29-3.3Z" transform="translate(-30.6 -15.57)"/>
        </g>
      </g>
      <g id="Group_6479" data-name="Group 6479">
        <g id="Group_6477" data-name="Group 6477">
          <g id="Group_6476" data-name="Group 6476">
            <g id="Group_6475" data-name="Group 6475">
              <g id="Group_6474" data-name="Group 6474">
                <g id="Group_6473" data-name="Group 6473">
                  <path id="Path_187826" data-name="Path 187826" class="cls-10" d="M230.23,207.05l-1.07-1.76a.3.3,0,0,1,.1-.42.32.32,0,0,1,.42.1h0l.75,1.24,2-1.19a.32.32,0,0,1,.43.09.31.31,0,0,1-.1.42l0,0Z" transform="translate(-30.6 -15.57)"/>
                </g>
              </g>
            </g>
          </g>
        </g>
        <g id="Group_6478" data-name="Group 6478">
          <path id="Path_187827" data-name="Path 187827" class="cls-10" d="M231,209.75a3.85,3.85,0,1,1,3.84-3.85A3.85,3.85,0,0,1,231,209.75Zm0-7.15a3.3,3.3,0,1,0,3.29,3.3,3.3,3.3,0,0,0-3.29-3.3Z" transform="translate(-30.6 -15.57)"/>
        </g>
      </g>
      <rect id="Rectangle_6806" data-name="Rectangle 6806" class="cls-9" x="187.56" y="180.61" width="7.56" height="1.59"/>
      <rect id="Rectangle_6807" data-name="Rectangle 6807" class="cls-9" x="187.56" y="187.82" width="7.56" height="1.59"/>
      <rect id="Rectangle_6808" data-name="Rectangle 6808" class="cls-9" x="187.56" y="190.99" width="7.56" height="1.59"/>
    </g>
    <path id="Path_187886" data-name="Path 187886" class="cls-36" d="M198.47,164.08l.85,5.16-3-.34Z" transform="translate(-30.6 -15.57)"/>
    <g id="Group_6528" data-name="Group 6528">
      <path id="Path_187067" data-name="Path 187067" class="cls-27" d="M193.26,150.88s-8.83,13.65-15.5,12.47c-7.58-1.35-.63-21.75,9.53-18.83,14.27,4.09,9.34,10.92,9.34,10.92S195.76,151.55,193.26,150.88Z" transform="translate(-30.6 -15.57)"/>
    </g>
    <g id="Group_6529" data-name="Group 6529">
      <path id="Path_186935" data-name="Path 186935" class="cls-28" d="M180.8,164.42a1.64,1.64,0,0,0,2.4.73,2.2,2.2,0,0,0,.27-2.81,1.65,1.65,0,0,0-2.4-.73A2.2,2.2,0,0,0,180.8,164.42Z" transform="translate(-30.6 -15.57)"/>
    </g>
    <path id="Path_187885" data-name="Path 187885" class="cls-17" d="M183.75,165.26a1.29,1.29,0,0,1-1.25,1.32,1.3,1.3,0,0,1-1.32-1.26,1.29,1.29,0,1,1,2.57-.06Z" transform="translate(-30.6 -15.57)"/>
    <g id="Group_6530" data-name="Group 6530">
      <path id="Path_186920" data-name="Path 186920" class="cls-23" d="M178.35,353.32s11.58,8.3,15.65,8.84.84,1.92-3.65,1.8-6.69-1.39-9.32-2.36a24.61,24.61,0,0,1-8-4.94l-.06-.07c-1.48-1.47-1.11-4.09,1-3.83Z" transform="translate(-30.6 -15.57)"/>
      <path id="Path_186922" data-name="Path 186922" class="cls-28" d="M178.35,353.32s2.26,1.57,7.2,4.78c4.66,3,.92,2.31-1.71,1.25a33.42,33.42,0,0,1-9.89-6.59Z" transform="translate(-30.6 -15.57)"/>
      <path id="Path_186938" data-name="Path 186938" class="cls-23" d="M172.1,354.42l-.23,7,4.06.14.11-3.27Z" transform="translate(-30.6 -15.57)"/>
    </g>
    <g id="Group_6532" data-name="Group 6532">
      <path id="Path_186920-2" data-name="Path 186920-2" class="cls-23" d="M197.82,346.83s11.58,8.3,15.65,8.83.85,1.93-3.65,1.81-6.69-1.39-9.32-2.36a24.72,24.72,0,0,1-8-4.94l-.06-.07c-1.48-1.47-1.11-4.09,1-3.83Z" transform="translate(-30.6 -15.57)"/>
      <path id="Path_186922-2" data-name="Path 186922-2" class="cls-28" d="M197.82,346.83s2.26,1.57,7.2,4.78c4.66,3,.92,2.31-1.71,1.25a33.55,33.55,0,0,1-9.89-6.59Z" transform="translate(-30.6 -15.57)"/>
      <path id="Path_186938-2" data-name="Path 186938-2" class="cls-23" d="M191.57,347.93l-.23,7,4.07.14.1-3.27Z" transform="translate(-30.6 -15.57)"/>
    </g>
  </g>
</svg>
