<svg xmlns="http://www.w3.org/2000/svg" width="30.806" height="40" viewBox="0 0 30.806 40">
  <g id="_3e0d69654100c1a0bc54c389e58f194a" data-name="3e0d69654100c1a0bc54c389e58f194a" transform="translate(-122.61 -10)">
    <g id="Group_6537" data-name="Group 6537" transform="translate(122.61 10)">
      <path id="Path_187887" data-name="Path 187887" d="M216.892-500.4a4.766,4.766,0,0,0-2.941,2.456,3.027,3.027,0,0,0-.3,1.8,3.11,3.11,0,0,0,.345,1.9,4.3,4.3,0,0,0,3.652,2.445,4.287,4.287,0,0,0,4.362-2.747,5.077,5.077,0,0,0,.022-3.124,4.621,4.621,0,0,0-2.617-2.574A6.261,6.261,0,0,0,216.892-500.4Z" transform="translate(-209.934 500.492)" fill="#ffb939"/>
      <path id="Path_187888" data-name="Path 187888" d="M558.742-500.813a4.388,4.388,0,0,0-2.671,5.978,4.2,4.2,0,0,0,4.222,2.52,3.2,3.2,0,0,0,1.638-.388,4.948,4.948,0,0,0,2.111-2.144,3.223,3.223,0,0,0,.291-1.766,3.062,3.062,0,0,0-.4-1.95,4.116,4.116,0,0,0-2.09-2.046A4.479,4.479,0,0,0,558.742-500.813Z" transform="translate(-537.996 501)" fill="#ffb939"/>
      <path id="Path_187889" data-name="Path 187889" d="M127.651-284.285a4.1,4.1,0,0,0-1.993,1.045c-.883.808-.926.959-2.036,6.075-.56,2.6-1.013,4.966-1.013,5.267a3.7,3.7,0,0,0,.754,2.208l.431.571v13.7l.28.56a2.842,2.842,0,0,0,1.379,1.346,2.32,2.32,0,0,0,1.249.237,2.8,2.8,0,0,0,2.736-1.777c.216-.474.226-.646.258-6.9l.032-6.42.28-.151a3.7,3.7,0,0,0,1.3-1.648,12.024,12.024,0,0,0,.4-1.5,3.217,3.217,0,0,1,.258-.9,14.575,14.575,0,0,0,2.6,1.077,17.179,17.179,0,0,0,3.393.614,2.6,2.6,0,0,0,1.788-.9,2.3,2.3,0,0,0-.9-2.769,12.8,12.8,0,0,0-3.091-1.594c-1.53-.5-1.67-.722-2.144-3.382-.377-2.122-.571-2.585-1.454-3.468A4.591,4.591,0,0,0,127.651-284.285Z" transform="translate(-122.61 293.273)" fill="#ffb939"/>
      <path id="Path_187890" data-name="Path 187890" d="M495.986-284.347a4.693,4.693,0,0,0-2.38,1.389A4.276,4.276,0,0,0,492.281-280a6.307,6.307,0,0,1-.84,2.715c-.377.345-.969.474-2.564.539a10.529,10.529,0,0,0-1.584.129c-.076.043.183.226.625.442a4.282,4.282,0,0,1,2.661,3.361c.043.657.076.733.28.733a8.3,8.3,0,0,0,2.24-.614,2.062,2.062,0,0,1,.679-.226,10.932,10.932,0,0,1,.334,1.336,9.717,9.717,0,0,0,.56,1.81A4.066,4.066,0,0,0,496-268.415c.054,0,.108,2.9.118,6.431l.032,6.441.248.539a2.734,2.734,0,0,0,1.368,1.433,2.316,2.316,0,0,0,1.346.291,2.213,2.213,0,0,0,1.379-.312,3.666,3.666,0,0,0,.894-.722c.657-.84.635-.539.635-7.982v-6.829l.431-.573a3.626,3.626,0,0,0,.754-2.208c0-.3-.463-2.671-1.023-5.278a33.537,33.537,0,0,0-1.282-5.17A4.676,4.676,0,0,0,495.986-284.347Z" transform="translate(-472.397 293.28)" fill="#ffb939"/>
    </g>
  </g>
</svg>
