<svg xmlns="http://www.w3.org/2000/svg" width="52.882" height="52.895" viewBox="0 0 52.882 52.895">
  <g id="opportunity" transform="translate(-0.063)">
    <g id="Group_6539" data-name="Group 6539" transform="translate(21.691 14.785)">
      <g id="Group_6538" data-name="Group 6538">
        <path id="Path_187891" data-name="Path 187891" d="M200.644,150.881a4.683,4.683,0,1,0,4.683,4.683A4.688,4.688,0,0,0,200.644,150.881Z" transform="translate(-195.961 -150.881)" fill="#ffb939"/>
      </g>
    </g>
    <g id="Group_6541" data-name="Group 6541" transform="translate(21.852 0)">
      <g id="Group_6540" data-name="Group 6540" transform="translate(0 0)">
        <path id="Path_187892" data-name="Path 187892" d="M219.814,3.64l-3.1-3.2a1.6,1.6,0,0,0-2.192,0l-3.1,3.2a1.55,1.55,0,0,0,2.192,2.192l.454-.454V9.387a1.545,1.545,0,1,0,3.09,0V5.378l.454.454a1.554,1.554,0,0,0,2.2-2.192Z" transform="translate(-210.967 0)" fill="#ffb939"/>
      </g>
    </g>
    <g id="Group_6543" data-name="Group 6543" transform="translate(21.852 41.941)">
      <g id="Group_6542" data-name="Group 6542">
        <path id="Path_187893" data-name="Path 187893" d="M219.814,411.072a1.562,1.562,0,0,0-2.2,0l-.454.454v-4.009a1.545,1.545,0,1,0-3.09,0v4.009l-.454-.454a1.55,1.55,0,1,0-2.192,2.192l3.1,3.2a1.551,1.551,0,0,0,2.192,0l3.1-3.2A1.55,1.55,0,0,0,219.814,411.072Z" transform="translate(-210.967 -405.967)" fill="#ffb939"/>
      </g>
    </g>
    <g id="Group_6545" data-name="Group 6545" transform="translate(0.063 21.788)">
      <g id="Group_6544" data-name="Group 6544" transform="translate(0)">
        <path id="Path_187894" data-name="Path 187894" d="M9.451,214H5.442l.454-.454A1.55,1.55,0,1,0,3.7,211.355l-3.2,3.1a1.6,1.6,0,0,0,0,2.192l3.2,3.1A1.55,1.55,0,0,0,5.9,217.556l-.454-.454H9.451a1.55,1.55,0,0,0,0-3.1Z" transform="translate(-0.063 -210.901)" fill="#ffb939"/>
      </g>
    </g>
    <g id="Group_6547" data-name="Group 6547" transform="translate(42.005 21.789)">
      <g id="Group_6546" data-name="Group 6546">
        <path id="Path_187895" data-name="Path 187895" d="M416.533,214.457l-3.2-3.1a1.55,1.55,0,1,0-2.192,2.192l.454.454h-4.009a1.55,1.55,0,1,0,0,3.1h4.009l-.454.454a1.55,1.55,0,1,0,2.192,2.192l3.2-3.1A1.585,1.585,0,0,0,416.533,214.457Z" transform="translate(-406.033 -210.902)" fill="#ffb939"/>
      </g>
    </g>
    <g id="Group_6549" data-name="Group 6549" transform="translate(7.28 37.081)">
      <g id="Group_6548" data-name="Group 6548">
        <path id="Path_187896" data-name="Path 187896" d="M78.045,359.378a1.55,1.55,0,0,0-2.192,0l-2.834,2.834v-.642a1.55,1.55,0,0,0-3.1,0v4.384a1.541,1.541,0,0,0,.117.579,1.674,1.674,0,0,0,1.434.972h4.384a1.55,1.55,0,1,0,0-3.1h-.642l2.834-2.834A1.55,1.55,0,0,0,78.045,359.378Z" transform="translate(-69.919 -358.924)" fill="#ffb939"/>
      </g>
    </g>
    <g id="Group_6551" data-name="Group 6551" transform="translate(37.145 7.217)">
      <g id="Group_6550" data-name="Group 6550">
        <path id="Path_187897" data-name="Path 187897" d="M366.019,69.854h-4.384a1.55,1.55,0,0,0,0,3.1h.642l-2.834,2.834a1.55,1.55,0,0,0,2.192,2.192l2.834-2.834v.642a1.55,1.55,0,1,0,3.1,0V71.4A1.584,1.584,0,0,0,366.019,69.854Z" transform="translate(-358.988 -69.854)" fill="#ffb939"/>
      </g>
    </g>
    <g id="Group_6553" data-name="Group 6553" transform="translate(37.145 37.081)">
      <g id="Group_6552" data-name="Group 6552">
        <path id="Path_187898" data-name="Path 187898" d="M366.02,360.02a1.549,1.549,0,0,0-1.55,1.55v.642l-2.834-2.834a1.55,1.55,0,1,0-2.192,2.192l2.834,2.834h-.642a1.55,1.55,0,0,0,0,3.1h4.384a1.584,1.584,0,0,0,1.55-1.55V361.57A1.549,1.549,0,0,0,366.02,360.02Z" transform="translate(-358.989 -358.924)" fill="#ffb939"/>
      </g>
    </g>
    <g id="Group_6555" data-name="Group 6555" transform="translate(7.28 7.217)">
      <g id="Group_6554" data-name="Group 6554">
        <path id="Path_187899" data-name="Path 187899" d="M78.045,75.788l-2.834-2.834h.642a1.55,1.55,0,1,0,0-3.1H71.469a1.6,1.6,0,0,0-1.55,1.55v4.384a1.55,1.55,0,1,0,3.1,0v-.642l2.834,2.834a1.55,1.55,0,1,0,2.192-2.192Z" transform="translate(-69.919 -69.854)" fill="#ffb939"/>
      </g>
    </g>
    <g id="Group_6557" data-name="Group 6557" transform="translate(17.725 25.201)">
      <g id="Group_6556" data-name="Group 6556" transform="translate(0 0)">
        <path id="Path_187583" data-name="Path 187583" d="M56.627,213.151a8.677,8.677,0,0,0-15.891,0c-.014.047-.123.278-.17.415A8.669,8.669,0,0,0,40,216.642v2.642H57.363v-2.642a8.669,8.669,0,0,0-.566-3.076c-.057-.146-.151-.363-.17-.415Zm0,0" transform="translate(-39.999 -207.958)" fill="#ffb939"/>
      </g>
    </g>
  </g>
</svg>
