<svg xmlns="http://www.w3.org/2000/svg" width="34.908" height="42.183" viewBox="0 0 34.908 42.183">
  <g id="man" transform="translate(-0.016)">
    <path id="Path_187613" data-name="Path 187613" d="M122.042,3.636A3.636,3.636,0,1,1,118.406,0,3.636,3.636,0,0,1,122.042,3.636Zm0,0" transform="translate(-105.3)" fill="#ffb939"/>
    <path id="Path_187614" data-name="Path 187614" d="M105.291,309.482a1.818,1.818,0,0,0,2.007-1.811V292.036a.727.727,0,0,0-.727-.727H97.844a.727.727,0,0,0-.727.727v15.636a1.818,1.818,0,0,0,2.007,1.811,1.89,1.89,0,0,0,1.629-1.913V296.4a1.454,1.454,0,0,1,2.909,0V307.57a1.891,1.891,0,0,0,1.629,1.913Zm0,0" transform="translate(-89.101 -267.309)" fill="#ffb939"/>
    <path id="Path_187615" data-name="Path 187615" d="M5.492,129.324a1.8,1.8,0,0,0,1.433.705,1.768,1.768,0,0,0,1.113-.385,1.808,1.808,0,0,0,.32-2.546l-4.036-5.192,3.571-3.12.124.138v6.735a.727.727,0,0,0,.727.727H17.47a.727.727,0,0,0,.727-.727v-5.811l2.262,5.993a1.818,1.818,0,0,0,1.738,1.28h3.273a.727.727,0,0,0-.727.727v2.182H23.288a1.459,1.459,0,0,0-1.455,1.455.826.826,0,0,1,.233.036l6.313,2.109,6.312-2.109a.829.829,0,0,1,.233-.036,1.459,1.459,0,0,0-1.455-1.455H32.015v-2.182a.727.727,0,0,0-.727-.727h-2.65a1.891,1.891,0,0,0,1.914-1.63,1.818,1.818,0,0,0-1.809-2.007h-5.2c-.01,0-1.764-4.348-2.793-6.909a2.909,2.909,0,0,0-2.7-1.818H16.11a1.443,1.443,0,0,0-1.243.713l-1.76,2.945-1.76-2.945a1.444,1.444,0,0,0-1.244-.713H7.652a1.79,1.79,0,0,0-1.2.451L.634,120.3a1.812,1.812,0,0,0-.233,2.48Zm0,0" transform="translate(0 -105.303)" fill="#ffb939"/>
    <path id="Path_187616" data-name="Path 187616" d="M264.84,335.977v4.32a1.459,1.459,0,0,0,1.455,1.455h10.182a1.459,1.459,0,0,0,1.455-1.455v-4.32l-5.818,1.935v.931a.727.727,0,1,1-1.455,0v-.931Zm0,0" transform="translate(-243.007 -308.298)" fill="#ffb939"/>
  </g>
</svg>
