<svg xmlns="http://www.w3.org/2000/svg" width="38.603" height="38.592" viewBox="0 0 38.603 38.592">
  <g id="business-presentation" transform="translate(0 -0.007)">
    <g id="Layer_1_11_" transform="translate(0 0.007)">
      <g id="Group_5950" data-name="Group 5950">
        <path id="Path_187553" data-name="Path 187553" d="M22.8,22.811H2.632V3.515H22.8v7.376l1.755.375V3.272A1.749,1.749,0,0,0,23.681.007H1.754A1.749,1.749,0,0,0,.877,3.272V23.688a.877.877,0,0,0,.876.877H7.159L4,36.391A1.755,1.755,0,1,0,7.4,37.3l3.4-12.731h3.852l3.4,12.731a1.755,1.755,0,0,0,3.391-.9L18.277,24.566h5.405a.877.877,0,0,0,.876-.877V18.443L22.8,18.068v4.743Z" transform="translate(0 -0.007)" fill="#ffb939"/>
        <path id="Path_187554" data-name="Path 187554" d="M36.171,14.145a3.114,3.114,0,1,0-3.114-3.114A3.116,3.116,0,0,0,36.171,14.145Z" transform="translate(-5.906 -1.42)" fill="#ffb939"/>
        <path id="Path_187555" data-name="Path 187555" d="M41.727,25.541,38.506,17.2a1.75,1.75,0,0,0-1.634-1.122H35.16a1.706,1.706,0,0,0-1.216.526L31.472,23l2.036.664L32.257,22.6l.816-5.995a1.714,1.714,0,0,0-1.217-.526H30.331L20.275,13.933a1.754,1.754,0,1,0-.733,3.432l10.236,2.186a1.715,1.715,0,0,0,.324.038V27.7l-.671,11.519a1.756,1.756,0,0,0,1.651,1.853c.034,0,.069,0,.1,0a1.756,1.756,0,0,0,1.75-1.653l.576-9.88.575,9.88a1.755,1.755,0,0,0,1.751,1.653c.034,0,.069,0,.1,0a1.755,1.755,0,0,0,1.649-1.853L36.918,27.7V22.817l1.541,3.988a1.752,1.752,0,1,0,3.268-1.264Z" transform="translate(-3.243 -2.488)" fill="#ffb939"/>
        <path id="Path_187556" data-name="Path 187556" d="M4.806,15.034V22.49a.877.877,0,1,0,1.754,0V15.034a.877.877,0,1,0-1.754,0Z" transform="translate(-0.859 -2.535)" fill="#ffb939"/>
        <path id="Path_187557" data-name="Path 187557" d="M9.61,7.558V21.153a.877.877,0,1,0,1.754,0V7.558a.877.877,0,1,0-1.754,0Z" transform="translate(-1.717 -1.199)" fill="#ffb939"/>
        <path id="Path_187558" data-name="Path 187558" d="M14.416,11.828V21.916a.877.877,0,1,0,1.754,0V11.828a.877.877,0,1,0-1.754,0Z" transform="translate(-2.576 -1.962)" fill="#ffb939"/>
      </g>
    </g>
  </g>
</svg>
