<svg xmlns="http://www.w3.org/2000/svg" width="34.756" height="34.756" viewBox="0 0 34.756 34.756">
  <g id="users" transform="translate(0.001)">
    <path id="Path_187580" data-name="Path 187580" d="M317.2,200a6.788,6.788,0,0,0-3.6,1.032,15.559,15.559,0,0,1,7.261,7.657h3.165v-1.862a6.817,6.817,0,0,0-6.8-6.827Zm0,0" transform="translate(-289.273 -184.484)" fill="#ffb939"/>
    <path id="Path_187581" data-name="Path 187581" d="M10.426,201.009A6.819,6.819,0,0,0,0,206.8v1.862H3.165a15.593,15.593,0,0,1,7.261-7.657Zm0,0" transform="translate(0 -184.461)" fill="#ffb939"/>
    <path id="Path_187582" data-name="Path 187582" d="M163.1,13.034h3.724a3.1,3.1,0,0,0,3.1-3.1V4.345A4.347,4.347,0,0,0,165.586,0h-1.241A4.347,4.347,0,0,0,160,4.345V9.93A3.1,3.1,0,0,0,163.1,13.034Zm0,0" transform="translate(-147.588)" fill="#ffb939"/>
    <path id="Path_187583" data-name="Path 187583" d="M67.339,216.5a14.267,14.267,0,0,0-26.129,0c-.023.078-.2.458-.279.683A14.254,14.254,0,0,0,40,222.236v4.345h28.55v-4.345a14.254,14.254,0,0,0-.931-5.058c-.093-.241-.248-.6-.279-.683Zm0,0" transform="translate(-36.897 -191.825)" fill="#ffb939"/>
    <path id="Path_187584" data-name="Path 187584" d="M329.474,102.206h2.017a1.473,1.473,0,0,0,1.474-1.474v-2.56A2.169,2.169,0,0,0,330.793,96h-.621A2.169,2.169,0,0,0,328,98.172v2.56A1.473,1.473,0,0,0,329.474,102.206Zm0,0" transform="translate(-302.554 -88.552)" fill="#ffb939"/>
    <path id="Path_187585" data-name="Path 187585" d="M57.474,102.206h2.017a1.473,1.473,0,0,0,1.474-1.474v-2.56A2.169,2.169,0,0,0,58.793,96h-.621A2.169,2.169,0,0,0,56,98.172v2.56A1.473,1.473,0,0,0,57.474,102.206Zm0,0" transform="translate(-51.656 -88.552)" fill="#ffb939"/>
  </g>
</svg>
