<svg xmlns="http://www.w3.org/2000/svg" xmlns:xlink="http://www.w3.org/1999/xlink" width="552" height="389.849" viewBox="0 0 552 389.849">
  <defs>
    <clipPath id="clip-path">
      <path id="Path_194832" data-name="Path 194832" d="M495.593,266.451c-.1,2.529.483,8.686-.712,11.31-2.893,1.5-8.067.362-11.688-1.6s-6.811-.6-11.717-1.505c-4.815-.893-8.457-3.235-8.946-5.522-.533-2.5,8.165-2.162,14.235-2.548a25.882,25.882,0,0,0,10.811-2.828Z" transform="translate(-462.507 -263.761)" fill="#1e4174"/>
    </clipPath>
    <clipPath id="clip-path-2">
      <path id="Path_194840" data-name="Path 194840" d="M505.156,264.146c1.649,1.879,6.248,5.864,7.176,8.6-1.05,3.151-5.52,6.066-9.438,7.273s-5.275,4.476-9.4,7.358c-4.048,2.828-8.242,3.774-10.145,2.492-2.078-1.4,4.367-7.423,8.443-12.068A27.451,27.451,0,0,0,497.6,268Z" transform="translate(-482.947 -264.146)" fill="#1e4174"/>
    </clipPath>
    <clipPath id="clip-path-3">
      <path id="Path_194847" data-name="Path 194847" d="M556.291,211.4c1.154,3.048,3.73,6.677,5.351,9.515s6.621,10.4,3.73,18.363c-3.1,8.542-9.994,10.665-17.129,10.665h-16.6c-4.865,0-34.777-7.568-34.777-7.568s3.452,2.041,5.144,7.568,5.091,42.532,5.091,42.532c-2.205,2.287-5.293,3.227-9.209,2.91,0,0-9.054-28.668-12.681-39.321-3.748-11.007-8.231-21.9-7.392-26.69,1.178-6.716,12.485-6.916,21.82-6.583s30.827,1.165,35.2.532l-2.266-8.041Z" transform="translate(-477.715 -211.404)" fill="none"/>
    </clipPath>
    <clipPath id="clip-path-4">
      <path id="Path_194892" data-name="Path 194892" d="M305.622,346.461c-.46,2.366-2.333,7.94-1.8,10.645,2.354,2.051,7.395,2.191,11.176,1.209s6.441,1.014,11.184,1.3c4.655.28,8.539-1.053,9.487-3.058,1.036-2.189-7.1-3.883-12.637-5.635a25.058,25.058,0,0,1-9.4-5.108Z" transform="translate(-303.729 -345.814)" fill="#228c7e"/>
    </clipPath>
    <clipPath id="clip-path-5">
      <path id="Path_194899" data-name="Path 194899" d="M264.9,334.348c-2.338.17-8.056-.217-10.448,1.031-1.3,2.881-.1,7.922,1.823,11.416s.753,6.66,1.739,11.446c.969,4.7,3.244,8.2,5.374,8.609,2.325.45,1.762-8.07,1.939-14.035a26.586,26.586,0,0,1,2.3-10.685Z" transform="translate(-253.91 -334.348)" fill="#03aa99"/>
    </clipPath>
    <clipPath id="clip-path-6">
      <path id="Path_194908" data-name="Path 194908" d="M269.283,388.82s41.975-23.4,44.793-25.655,19.694-61.777,21-65.621c0,0,12.435-10.428,14.153-18.691l-28.748-19.368c-2.2,4.862-2.179,8.105-8.033,20.269-5.59,11.613-7.613,44.332-12.988,72.059a47.927,47.927,0,0,0-8.64,3.469c-5.075,2.491-26.567,25.894-26.567,25.894S264.849,386.351,269.283,388.82Z" transform="translate(-264.247 -259.485)" fill="none"/>
    </clipPath>
  </defs>
  <g id="Group_10425" data-name="Group 10425" transform="translate(-391 -1369.703)">
    <g id="Illustratioan" transform="translate(2557.595 -16088.599)">
      <path id="Path_195246" data-name="Path 195246" d="M451.793,165.325V88.989l-36,56.586v94.091H392.594V104.819h-5.9L369.9,82.251l-16.886,22.569h-5.8V286.8L499.95,350.415l8.085-185.09Zm-65.1,48.384H353.111v-4.933h33.584Zm0-9.845H353.111v-4.933h33.584Zm0-9.846H353.111V189.1h33.584Zm0-9.845H353.111v-4.922h33.584Zm0-9.836H353.111v-4.932h33.584Zm0-9.845H353.111v-4.932h33.584Zm0-9.845H353.111v-4.922h33.584Zm0-9.845H353.111V139.88h33.584Zm0-9.845H353.111v-4.923h33.584Zm0-9.836H353.111V120.19h33.584Zm0-9.845H353.111v-4.923h33.584Zm60.53,239.786H443.74V112.809l3.486-5.494Z" transform="translate(-2264.706 17394.611)" fill="#cfeffe" opacity="0.35"/>
      <path id="Path_195247" data-name="Path 195247" d="M447.134,349.72,361.12,279.459H307.6V447.61H281.737v-301.2H229.015V377.818h-6.188V240.066h-9.536L186.7,211.935v28.131h-5.815V410.194h-12.91V179.8H154.922V98.976h-1.787V179.8H140.08V470.7H480.12V349.72Zm-282.3-21.877H143.291v-5.007h21.541Zm0-11.586H143.291v-5.007h21.541Zm0-11.6H143.291v-5.007h21.541Zm0-11.586H143.291v-5.007h21.541Zm0-11.586H143.291v-5.007h21.541Zm0-11.6H143.291v-5.007h21.541Zm0-11.586H143.291v-5.007h21.541Zm0-11.587H143.291V241.7h21.541Zm0-11.6H143.291V230.1h21.541Zm0-11.587H143.291v-5.007h21.541Zm0-11.586H143.291v-5.007h21.541Zm0-11.6H143.291v-5.007h21.541Zm0-11.586H143.291v-5.007h21.541Zm75.539,69h-6.414V244.912h6.414Zm0-21.406h-6.414V223.49h6.414Zm0-21.422h-6.414V202.084h6.414Zm0-21.406h-6.414V180.66h6.414Zm0-21.422h-6.414V159.24h6.414Zm12.182,85.656h-6.406V244.912h6.406Zm0-21.406h-6.406V223.49h6.406Zm0-21.422h-6.406V202.084h6.406Zm0-21.406h-6.406V180.66h6.406Zm0-21.422h-6.406V159.24h6.406Zm12.189,85.656h-6.414V244.912h6.414Zm0-21.406h-6.414V223.49h6.414Zm0-21.422h-6.414V202.084h6.414Zm0-21.406h-6.414V180.66h6.414Zm0-21.422h-6.414V159.24h6.414Zm12.182,85.656h-6.406V244.912h6.406Zm0-21.406h-6.406V223.49h6.406Zm0-21.422h-6.406V202.084h6.406Zm0-21.406h-6.406V180.66h6.406ZM452.182,455.646h-6.665V442.294h6.665Zm0-26.736h-6.665V415.557h6.665Zm0-26.737h-6.665V388.821h6.665Zm0-26.737h-6.665V362.084h6.665Zm12.367,80.211h-6.665V442.294h6.665Zm0-26.736h-6.665V415.557h6.665Zm0-26.737h-6.665V388.821h6.665Zm0-26.737h-6.665V362.084h6.665Zm12.368,80.211h-6.673V442.294h6.673Zm0-26.736h-6.673V415.557h6.673Zm0-26.737h-6.673V388.821h6.673Zm0-26.737h-6.673V362.084h6.673Z" transform="translate(-2284.814 17359.326)" fill="#cfeffe" opacity="0.35"/>
      <path id="Path_195000" data-name="Path 195000" d="M15.552,0S6.455,19.3,0,21.82" transform="translate(-1629.128 17687.32) rotate(146)" fill="none" stroke="#444053" stroke-miterlimit="10" stroke-width="1"/>
      <path id="Path_195001" data-name="Path 195001" d="M.122,0,0,.206C10.549,13.6,10.978,34.618,11.019,34.8l2.3-2.672C13.278,31.934,10.741,13.483.122,0Z" transform="translate(-1658.307 17664.455) rotate(146)" fill="#444053"/>
      <path id="Path_195006" data-name="Path 195006" d="M0,20.314S5.965,7.936.908,0" transform="translate(-1661.004 17650.754) rotate(146)" fill="none" stroke="#444053" stroke-miterlimit="10" stroke-width="1"/>
      <path id="Path_195010" data-name="Path 195010" d="M0,0S7.871,7.594,6.8,11.89" transform="translate(-1647.297 17654.246) rotate(146)" fill="none" stroke="#444053" stroke-miterlimit="10" stroke-width="1"/>
      <path id="Path_195011" data-name="Path 195011" d="M0,1.24S7.457,2.492,8.536,0" transform="translate(-1649.059 17660.295) rotate(146)" fill="none" stroke="#444053" stroke-miterlimit="10" stroke-width="1"/>
      <path id="Path_195012" data-name="Path 195012" d="M4.8,0S.959,5.106,0,3.987" transform="translate(-1648.752 17669.754) rotate(146)" fill="none" stroke="#444053" stroke-miterlimit="10" stroke-width="1"/>
      <path id="Path_195018" data-name="Path 195018" d="M0,0S-.126,11.307,2.888,12.067" transform="translate(-1660.721 17672.826) rotate(146)" fill="none" stroke="#444053" stroke-miterlimit="10" stroke-width="1"/>
      <path id="Path_195435" data-name="Path 195435" d="M3.845,0A3.693,3.693,0,0,1,7.587,3.784,3.94,3.94,0,0,1,3.742,7.669,3.693,3.693,0,0,1,0,3.886,3.94,3.94,0,0,1,3.845,0Z" transform="translate(-1639.957 17701.088) rotate(146)" fill="#f6f7f9"/>
      <path id="Path_195436" data-name="Path 195436" d="M3.845,0A3.693,3.693,0,0,1,7.587,3.784,3.94,3.94,0,0,1,3.742,7.669,3.693,3.693,0,0,1,0,3.886,3.94,3.94,0,0,1,3.845,0Z" transform="translate(-1648.259 17706.854) rotate(146)" fill="#f6f7f9"/>
      <g id="Group_10416" data-name="Group 10416" transform="translate(-2166.595 17508.834)">
        <g id="Group_10424" data-name="Group 10424" transform="matrix(0.259, -0.966, 0.966, 0.259, 198.232, 174.941)">
          <path id="Path_194999" data-name="Path 194999" d="M0,87.578s5.645-2.2,23.732,6.037,20.328,7.231,24.984,6.036,7.234-1.463,12.19-8.157c0,0,3.355-18.655,6.743-21.518s17.932,1.807,17.932,1.807,17.425,4.049,20.534-18.638c0,0-2.506-17.141.648-22.367,0,0-6.418,2.667-17.143-1.827S70.46,33.505,70.46,33.505s-2.628,6.781-2.318,10.841-1.371,5.572-6.478,3.567c0,0-2.528-3.5.956-9.212s5.973-9.967,4.947-14.435S63.646,13.607,54.49,10.414,32.94,6.537,26.967,4.064,19.543,0,19.543,0s3.692,3.618-4.791,18.741-2.932,21.768-2.932,21.768,4.686,10.726,24.931,10.038c0,0,19.522.868,8.957,8.863,0,0-6.829-1.414-17.044-4.672S11.21,64.486,9.468,73.561,0,87.578,0,87.578Z" transform="translate(144.681 83.276) rotate(146)" fill="#df9a57"/>
          <path id="Path_195002" data-name="Path 195002" d="M0,42.891s12.825-6.424,22.856-3.99S55.4,30.9,55.4,30.9s9.549-3.721,11.438-8.042c0,0,6.514-6.739,6.857-10.254S80.355.306,84.527,0" transform="translate(115.562 57.619) rotate(146)" fill="none" stroke="#444053" stroke-miterlimit="10" stroke-width="1"/>
          <path id="Path_195003" data-name="Path 195003" d="M0,9.191S6.44,4.981,5.642,0" transform="translate(91.595 25.525) rotate(146)" fill="none" stroke="#444053" stroke-miterlimit="10" stroke-width="1"/>
          <path id="Path_195004" data-name="Path 195004" d="M0,16.09S9.231,12.885,10.049,0" transform="translate(84.04 32.191) rotate(146)" fill="none" stroke="#444053" stroke-miterlimit="10" stroke-width="1"/>
          <path id="Path_195005" data-name="Path 195005" d="M0,19.673A19.7,19.7,0,0,0,5.737,0" transform="translate(71.703 40.65) rotate(146)" fill="none" stroke="#444053" stroke-miterlimit="10" stroke-width="1"/>
          <path id="Path_195007" data-name="Path 195007" d="M0,0S6.719,2.137,5.312,5.556" transform="translate(96.218 28.547) rotate(146)" fill="none" stroke="#444053" stroke-miterlimit="10" stroke-width="1"/>
          <path id="Path_195008" data-name="Path 195008" d="M0,0S8.988,2.861,9.313,15.261" transform="translate(96.212 42.806) rotate(146)" fill="none" stroke="#444053" stroke-miterlimit="10" stroke-width="1"/>
          <path id="Path_195009" data-name="Path 195009" d="M0,0S8.25,9.911,7.731,18.863" transform="translate(87.406 52.067) rotate(146)" fill="none" stroke="#444053" stroke-miterlimit="10" stroke-width="1"/>
          <path id="Path_195013" data-name="Path 195013" d="M0,4.079S19.17,5.606,23.455,0" transform="translate(103.389 59.478) rotate(146)" fill="none" stroke="#444053" stroke-miterlimit="10" stroke-width="1"/>
          <path id="Path_195014" data-name="Path 195014" d="M12.156,0S6.792,17.3,0,22.655" transform="translate(101.451 92.78) rotate(146)" fill="none" stroke="#444053" stroke-miterlimit="10" stroke-width="1"/>
          <path id="Path_195015" data-name="Path 195015" d="M0,0S14.627,6.244,23.32.134" transform="translate(115.939 63.454) rotate(146)" fill="none" stroke="#444053" stroke-miterlimit="10" stroke-width="0.75"/>
          <path id="Path_195016" data-name="Path 195016" d="M7.673,0S4.458,12.726,0,15.757" transform="translate(110.653 91.175) rotate(146)" fill="none" stroke="#444053" stroke-miterlimit="10" stroke-width="0.75"/>
          <path id="Path_195017" data-name="Path 195017" d="M0,0S6.837,3.09,9.357.791" transform="translate(120.631 77.474) rotate(146)" fill="none" stroke="#444053" stroke-miterlimit="10" stroke-width="0.75"/>
          <path id="Path_195019" data-name="Path 195019" d="M.158.03.046,0C-.727,3.076,8.333,15.549,16.074,25.455l.09-.07C5.243,11.4-.44,2.392.158.03Z" transform="translate(120.464 87.234) rotate(146)" fill="none" stroke="#444053" stroke-miterlimit="10" stroke-width="1"/>
          <path id="Path_195020" data-name="Path 195020" d="M.042,0,0,.114C5.8,7.339,13.087,15.97,18.915,22.364c.556.608,1.108,1.25,1.637,1.9l.166-.128c-.533-.653-1.089-1.3-1.645-1.922C13.244,15.834,5.838,7.221.042,0Z" transform="translate(93.153 75.28) rotate(146)" fill="none" stroke="#444053" stroke-miterlimit="10" stroke-width="1"/>
        </g>
        <g id="Group_10328" data-name="Group 10328" transform="translate(102.364 110.472)">
          <path id="Path_194870" data-name="Path 194870" d="M315.077,235.762c8.745,8.2,18.252,13.77,29.272,11.611,15.519-3.041,27.639-19.324,27.639-19.324s4,5.367,4,5.9-10.256,21.472-28.856,25.766S311.8,250.3,311.8,250.3Z" transform="translate(-311.803 -228.049)" fill="#dd7a79"/>
        </g>
        <g id="Group_10338" data-name="Group 10338" transform="translate(0 0)">
          <g id="Group_10285" data-name="Group 10285" transform="translate(235.069 120.984)">
            <g id="Group_10280" data-name="Group 10280" transform="translate(0 0)">
              <rect id="Rectangle_7312" data-name="Rectangle 7312" width="293.046" height="204.024" fill="#ffc253"/>
            </g>
            <g id="Group_10281" data-name="Group 10281">
              <path id="Path_194820" data-name="Path 194820" d="M430.2,234.291l137.545,129.18a13.038,13.038,0,0,0,17.956,0l137.546-129.18Z" transform="translate(-430.196 -234.291)" fill="#e09736"/>
            </g>
            <g id="Group_10282" data-name="Group 10282" transform="translate(146.524 46.609)">
              <path id="Path_194821" data-name="Path 194821" d="M666.28,419.383,519.757,261.968,666.28,405.978Z" transform="translate(-519.757 -261.968)" fill="#e09736"/>
            </g>
            <g id="Group_10283" data-name="Group 10283" transform="translate(0 46.609)">
              <path id="Path_194822" data-name="Path 194822" d="M430.2,419.383,576.72,261.968,430.2,405.978Z" transform="translate(-430.196 -261.968)" fill="#e09736"/>
            </g>
            <g id="Group_10284" data-name="Group 10284">
              <path id="Path_194823" data-name="Path 194823" d="M430.2,234.291,565.633,352.073a16.806,16.806,0,0,0,22.173,0L723.243,234.291Z" transform="translate(-430.196 -234.291)" fill="#ffc854"/>
            </g>
          </g>
          <g id="Group_10327" data-name="Group 10327" transform="translate(331.171)">
            <path id="Path_194826" data-name="Path 194826" d="M489.91,178.3a4.564,4.564,0,1,1,4.563,4.7A4.632,4.632,0,0,1,489.91,178.3Z" transform="translate(-444.756 -145.194)" fill="#3b55ce"/>
            <g id="Group_10294" data-name="Group 10294" transform="translate(0 171.013)">
              <g id="Group_10287" data-name="Group 10287" transform="translate(0 14.604)">
                <path id="Path_194827" data-name="Path 194827" d="M462.655,266.953c-.618.719-.684,2.464,2.205,4.636s8.838,3.033,11.256,3.139,3.985-.236,7.23,1.349,8.923,2.654,10.965,1.6c.753-.554.7-2.1.7-2.1Z" transform="translate(-462.31 -266.953)" fill="#aaeeed"/>
              </g>
              <g id="Group_10292" data-name="Group 10292" transform="translate(0.322 9.229)">
                <path id="Path_194828" data-name="Path 194828" d="M495.593,266.451c-.1,2.529.483,8.686-.712,11.31-2.893,1.5-8.067.362-11.688-1.6s-6.811-.6-11.717-1.505c-4.815-.893-8.457-3.235-8.946-5.522-.533-2.5,8.165-2.162,14.235-2.548a25.882,25.882,0,0,0,10.811-2.828Z" transform="translate(-462.507 -263.761)" fill="#1e4174"/>
                <g id="Group_10291" data-name="Group 10291" clip-path="url(#clip-path)">
                  <g id="Group_10288" data-name="Group 10288" transform="translate(20.266 -0.153)">
                    <path id="Path_194829" data-name="Path 194829" d="M476.533,268.673s-.366-3.563-1.639-5" transform="translate(-474.894 -263.67)" fill="none" stroke="#aaeeed" stroke-linecap="round" stroke-miterlimit="10" stroke-width="0.551"/>
                  </g>
                  <g id="Group_10289" data-name="Group 10289" transform="translate(15.553 0.536)">
                    <path id="Path_194830" data-name="Path 194830" d="M473.652,269.082s-.367-3.563-1.639-5" transform="translate(-472.013 -264.079)" fill="none" stroke="#aaeeed" stroke-linecap="round" stroke-miterlimit="10" stroke-width="0.551"/>
                  </g>
                  <g id="Group_10290" data-name="Group 10290" transform="translate(10.841 1.224)">
                    <path id="Path_194831" data-name="Path 194831" d="M470.772,269.491s-.368-3.564-1.639-5" transform="translate(-469.133 -264.488)" fill="none" stroke="#aaeeed" stroke-linecap="round" stroke-miterlimit="10" stroke-width="0.551"/>
                  </g>
                </g>
              </g>
              <g id="Group_10293" data-name="Group 10293" transform="translate(25.391)">
                <path id="Path_194833" data-name="Path 194833" d="M488.4,261.373l-2.555,8.826a4.248,4.248,0,0,0-1.751.536c-.581.436-1.625,2.1-2.394,1.94-3.049-.621-3.872-5.165-3.872-5.165l2.163-9.229Z" transform="translate(-477.83 -258.281)" fill="#ff9a8d"/>
              </g>
            </g>
            <g id="Group_10295" data-name="Group 10295" transform="translate(27.299 95.952)">
              <path id="Path_194834" data-name="Path 194834" d="M531.755,213.709l-1.158,9.3-31.535-.664a10.121,10.121,0,0,0-9.626,7.619c-2.2,7.767-10.44,59.891-10.44,59.891s4.43,3.363,8.931,2.632c0,0,14.867-31.653,17-40.348a46.413,46.413,0,0,0,1.059-16.027l38.01-3.4Z" transform="translate(-478.996 -213.709)" fill="#1e4174"/>
            </g>
            <g id="Group_10303" data-name="Group 10303" transform="translate(33.763 173.145)">
              <g id="Group_10296" data-name="Group 10296" transform="translate(0.402 16.342)">
                <path id="Path_194835" data-name="Path 194835" d="M483.193,286.374c.046.958,1.183,2.253,4.726,1.726s8.377-4.193,10.178-5.857,2.688-3.038,6.084-4.24,8.18-4.527,8.924-6.75c.16-.938-.931-2-.931-2Z" transform="translate(-483.193 -269.251)" fill="#aaeeed"/>
              </g>
              <g id="Group_10301" data-name="Group 10301" transform="translate(0 7.745)">
                <path id="Path_194836" data-name="Path 194836" d="M505.156,264.146c1.649,1.879,6.248,5.864,7.176,8.6-1.05,3.151-5.52,6.066-9.438,7.273s-5.275,4.476-9.4,7.358c-4.048,2.828-8.242,3.774-10.145,2.492-2.078-1.4,4.367-7.423,8.443-12.068A27.451,27.451,0,0,0,497.6,268Z" transform="translate(-482.947 -264.146)" fill="#1e4174"/>
                <g id="Group_10300" data-name="Group 10300" clip-path="url(#clip-path-2)">
                  <g id="Group_10297" data-name="Group 10297" transform="translate(11.115 7.198)">
                    <path id="Path_194837" data-name="Path 194837" d="M494.312,270.816s-2.683-2.284-4.571-2.4" transform="translate(-489.741 -268.42)" fill="none" stroke="#aaeeed" stroke-linecap="round" stroke-miterlimit="10" stroke-width="0.551"/>
                  </g>
                  <g id="Group_10298" data-name="Group 10298" transform="translate(8.214 11.083)">
                    <path id="Path_194838" data-name="Path 194838" d="M492.539,273.123s-2.683-2.284-4.571-2.4" transform="translate(-487.968 -270.727)" fill="none" stroke="#aaeeed" stroke-linecap="round" stroke-miterlimit="10" stroke-width="0.551"/>
                  </g>
                  <g id="Group_10299" data-name="Group 10299" transform="translate(5.314 14.968)">
                    <path id="Path_194839" data-name="Path 194839" d="M490.766,275.431s-2.685-2.284-4.571-2.4" transform="translate(-486.195 -273.034)" fill="none" stroke="#aaeeed" stroke-linecap="round" stroke-miterlimit="10" stroke-width="0.551"/>
                  </g>
                </g>
              </g>
              <g id="Group_10302" data-name="Group 10302" transform="translate(11.616)">
                <path id="Path_194841" data-name="Path 194841" d="M499.256,259.547l1.384,7.745a4.494,4.494,0,0,0-.887,1.644c-.12.729.263,2.669-.391,3.11-2.6,1.75-6.279-.9-6.279-.9l-3.037-9.579Z" transform="translate(-490.047 -259.547)" fill="#ff9a8d"/>
              </g>
            </g>
            <g id="Group_10304" data-name="Group 10304" transform="translate(25.201 92.07)">
              <path id="Path_194842" data-name="Path 194842" d="M556.292,211.4c1.154,3.048,3.73,6.677,5.351,9.515s6.621,10.4,3.73,18.363c-3.1,8.542-9.994,10.665-17.129,10.665h-16.6c-4.866,0-34.777-7.568-34.777-7.568s3.452,2.041,5.144,7.568,5.091,42.532,5.091,42.532c-2.205,2.287-5.292,3.227-9.209,2.91,0,0-8.961-28.7-12.681-39.321-3.889-11.093-8.231-21.9-7.391-26.69,1.178-6.716,12.484-6.916,21.82-6.583s30.828,1.165,35.2.532l-2.266-8.041Z" transform="translate(-477.714 -211.404)" fill="#85b8ed"/>
            </g>
            <g id="Group_10305" data-name="Group 10305" transform="translate(39.95 92.07)">
              <path id="Path_194843" data-name="Path 194843" d="M559.64,239.282c2.891-7.964-2.109-15.525-3.73-18.363s-4.2-6.467-5.351-9.515l-23.722,3.882,1.448,5.141s13.155,1.858,18.891-5.141c0,0,4.193,6.563,5.409,10.5,1.675,5.431,1.217,14.24-9.113,16.357s-48.456-3.656-53.5-4.234-3.365,2.423-.561,8.525,3.979,17.044,6.5,30.149c1.61,8.365,3.427,17.485,3.427,17.485a9.171,9.171,0,0,0,2.03-1.59s-3.4-37.005-5.091-42.532-5.144-7.568-5.144-7.568,29.912,7.568,34.777,7.568h16.6C549.646,249.947,556.538,247.823,559.64,239.282Z" transform="translate(-486.729 -211.404)" fill="#4e7eac"/>
            </g>
            <g id="Group_10307" data-name="Group 10307" transform="translate(25.204 92.07)">
              <g id="Group_10306" data-name="Group 10306" clip-path="url(#clip-path-3)">
                <path id="Path_194844" data-name="Path 194844" d="M543.072,211.421c1.158,7.258,4.118,10.849,3.83,17.485s-5.505,10.012-20.679,8.614-38.5-4.9-40.534-4.313-1.361,3.779,1.353,13.243S499.03,298.01,499.03,298.01" transform="translate(-473.399 -211.392)" fill="none" stroke="#274d79" stroke-miterlimit="10" stroke-width="0.551"/>
                <path id="Path_194845" data-name="Path 194845" d="M526.222,228.987a7.188,7.188,0,0,1-6.05-1.657c-2.7-2.445-3.475-13.6-3.475-13.6" transform="translate(-452.922 -209.816)" fill="none" stroke="#274d79" stroke-miterlimit="10" stroke-width="0.551"/>
                <path id="Path_194846" data-name="Path 194846" d="M488.753,260.743a13.5,13.5,0,0,0,11.912-3.727" transform="translate(-470.695 -180.203)" fill="none" stroke="#274d79" stroke-miterlimit="10" stroke-width="0.551"/>
              </g>
            </g>
            <g id="Group_10308" data-name="Group 10308" transform="translate(61.527)">
              <path id="Path_194848" data-name="Path 194848" d="M532.078,160.127s-4.754-4.143-13.63-3.275c-7.066.689-12.232,4.917-13.857,10.237s-1.135,15.057,7.431,20.5c0,0-2.659,1.49.294,4.379,0,0-4.578,1.152-6.055,3.767s0,5.069.887,8.024,1.181,3.412-2.659,7.363-7.141,10.945-1.724,19.914,14.834,16.487,27.919,15.773c13.237-.722,28.182-5.263,31.933-26.251s-9.1-25.766-12.641-24.823a44.8,44.8,0,0,0,2.729-20.513c-1.181-11.553-6.659-16.741-11.269-17.115C534.653,157.555,532.078,160.127,532.078,160.127Z" transform="translate(-499.918 -156.732)" fill="#001c45"/>
            </g>
            <g id="Group_10309" data-name="Group 10309" transform="translate(35.368 41.379)">
              <path id="Path_194849" data-name="Path 194849" d="M539.482,184.713c-1.752.542-4.676.994-6.223,2.238s-16.845,25.763-16.845,25.763-14.091-22.7-16.185-25.4c-2.2-2.834-12.933-6.378-14.886-5.975-2.416.5-1.111,3.6-.618,5.616.281,1.155.721,4.35,2.712,5.763s9.064,2.513,9.064,2.513,12.679,27.467,15.3,31.583c1.695,2.664,3.562,2.7,6.706-.864C521.551,222.5,533.7,206.1,533.7,206.1Z" transform="translate(-483.929 -181.303)" fill="#ff9a8d"/>
            </g>
            <g id="Group_10310" data-name="Group 10310" transform="translate(81.505 44.789)">
              <path id="Path_194850" data-name="Path 194850" d="M521.546,183.328c-2.8,1.041-5.371.975-6.783,2.828s-2.634,10.322-2.634,10.322,7.007-1.433,8.872-5.216a18.707,18.707,0,0,0,1.916-7.2Z" transform="translate(-512.129 -183.328)" fill="#03aa99"/>
            </g>
            <path id="Path_194851" data-name="Path 194851" d="M533.532,180.525a4.824,4.824,0,0,0,2.367.874c1.562.234,6.657,1.376,7.686,3.339,2.474,3.515-.062,15.04-1.5,23.13-.878,4.933-9.371,16.005-3.571,27.3,0,0-13.07,7.942-26.261,1.238-1.377-6.723.242-11.408.286-18.974-1.865-2.085-3.715-5.914-3.882-8.4-.627-9.23,8.341-12.044,15.325-22.32,1.95-2.868,3.424-2.728,6.078-4.82A6.15,6.15,0,0,1,533.532,180.525Z" transform="translate(-432.854 -140.457)" fill="#3ed9c7"/>
            <g id="Group_10311" data-name="Group 10311" transform="translate(98.085 43.159)">
              <path id="Path_194852" data-name="Path 194852" d="M528.9,183.276c3.948-2.563,7.151.6,9.02,5.217s11.743,33.324,12.609,36.891-2.945,38.864-3.984,40.917-2.125,3.513-6.086,3.513h-18.2s.9-1.913,4.018-2.713,11.951-1.066,13.684-3.919.995-35.778.995-35.778S530,203.3,527.573,197.311,526.1,185.093,528.9,183.276Z" transform="translate(-522.263 -182.36)" fill="#ff9a8d"/>
            </g>
            <g id="Group_10312" data-name="Group 10312" transform="translate(101.637 42.389)">
              <path id="Path_194853" data-name="Path 194853" d="M529.365,182.027c-2.338,0-7.694,5.473-3.172,15.6,0,0,5.864-8.56,11.235-6.48C537.427,191.143,535.08,180.653,529.365,182.027Z" transform="translate(-524.434 -181.903)" fill="#03aa99"/>
            </g>
            <g id="Group_10322" data-name="Group 10322" transform="translate(75.218 2.394)">
              <g id="Group_10313" data-name="Group 10313" transform="translate(13.714 28.413)">
                <path id="Path_194854" data-name="Path 194854" d="M523.675,175.026,527.8,178.8l1.822,6.357a16.339,16.339,0,0,0-3.588,3.331c-1.214,1.884-3.936,6.416-7.21,6.8a28.219,28.219,0,0,0-.165-6.287c-.5-2.2-1.989-6.566-1.989-6.566Z" transform="translate(-516.669 -175.026)" fill="#ff9a8d"/>
              </g>
              <g id="Group_10314" data-name="Group 10314" transform="translate(13.714 28.413)">
                <path id="Path_194855" data-name="Path 194855" d="M523.675,175.026a23.429,23.429,0,0,1,.738,5.364c-.149,1.805-1.7,5.557-5.754,8.617-.5-2.2-1.989-6.566-1.989-6.566Z" transform="translate(-516.669 -175.026)" fill="#ba5964"/>
              </g>
              <g id="Group_10315" data-name="Group 10315" transform="translate(0 20.412)">
                <path id="Path_194856" data-name="Path 194856" d="M511.645,170.275c-.774,2.858-3.953,6.863-3.26,7.577.576.593,3.285.46,3.285.46a5.327,5.327,0,0,0,1.317-4.749C512.312,170.79,511.645,170.275,511.645,170.275Z" transform="translate(-508.286 -170.275)" fill="#ba5964"/>
              </g>
              <g id="Group_10316" data-name="Group 10316" transform="translate(2.649 2.435)">
                <path id="Path_194857" data-name="Path 194857" d="M517.525,159.718c-3.84.36-7.691,5.839-7.619,10.822s1.193,7.7.885,11.216a22.4,22.4,0,0,0,1.15,10.6c.955,2.455,3.444,3.008,6.758,2.184,3.037-.754,7.184-3.762,8.139-4.709s1.137-4.257,1.137-4.257a9.476,9.476,0,0,0,6.606-4.953C536.659,176.36,536.282,157.96,517.525,159.718Z" transform="translate(-509.905 -159.6)" fill="#ff9a8d"/>
              </g>
              <g id="Group_10317" data-name="Group 10317" transform="translate(5.21)">
                <path id="Path_194858" data-name="Path 194858" d="M526.981,186.567a6.394,6.394,0,0,0,3.766-6.4c-.378-4.855-6.731-5.029-6.472-.756a13.948,13.948,0,0,1-7.149-4.173c-5.083-6.142-5.654-11.145-5.654-11.145,1.077-7.649,13.258-4.943,13.258-4.943s6.169-2.745,11.421.859c3.759,2.58,5.675,11.841,2.629,19.552s-7.675,10.78-7.675,10.78Z" transform="translate(-511.471 -158.154)" fill="#001c45"/>
              </g>
            </g>
            <g id="Group_10323" data-name="Group 10323" transform="translate(89.201 39.662)">
              <path id="Path_194863" data-name="Path 194863" d="M518.755,186.884c.065,1.367-2.441,4.378-1.824,6.46s4.812,2.363,7.076,0,3.586-9.767,6.67-11.78a1.754,1.754,0,0,1-1.526-1.28Z" transform="translate(-516.833 -180.284)" fill="#ff9a8d"/>
            </g>
            <g id="Group_10324" data-name="Group 10324" transform="translate(39.427 38.573)">
              <path id="Path_194864" data-name="Path 194864" d="M492.937,180.188s-1.235,11.217,2.974,20.2a1.9,1.9,0,0,1-.779,2.433L490,205.75a1.824,1.824,0,0,1-2.7-1.293,57.881,57.881,0,0,1,1.006-24.819Z" transform="translate(-486.409 -179.637)" fill="#1e4174"/>
            </g>
            <path id="Path_194865" data-name="Path 194865" d="M488.115,181.688c1.3.379,3.179,1.207,3.231,2.477s-1.986,1.327-1.986,1.327,1.449.663,1.558,1.6a1.929,1.929,0,0,1-2.148,1.878,1.431,1.431,0,0,1,.962,1.763c-.425,1.277-2.466.224-2.868,1.165a6.07,6.07,0,0,1-1.314-3.924C485.441,185.272,488.115,181.688,488.115,181.688Z" transform="translate(-447.531 -139.661)" fill="#ff9a8d"/>
            <path id="Path_194866" data-name="Path 194866" d="M497.6,187.925c-1.237-2.447-2.454-4.227-5.258-5.359-2.39-.965-3.522-2.861-4.146-1.9s1.068,4.013,3.684,4.931Z" transform="translate(-445.929 -140.539)" fill="#ff9a8d"/>
            <g id="Group_10325" data-name="Group 10325" transform="translate(38.002 23.922)">
              <path id="Path_194867" data-name="Path 194867" d="M485.538,185.758l10.6,1.376c2.721.337,4.406-14.057,1.685-14.4l-10.4-1.8Z" transform="translate(-485.538 -170.937)" fill="#1e4174"/>
            </g>
            <path id="Path_194868" data-name="Path 194868" d="M498.828,178.414c-3.868-.45-17.169-6.854-20.059-18.371-10.907-1.425-16.02,40.052-5.113,41.476,3-7.162,17.947-8.978,23.292-8.284C499.02,193.513,500.9,178.692,498.828,178.414Z" transform="translate(-458.947 -154.492)" fill="#e7e7e7"/>
          </g>
          <g id="Group_10415" data-name="Group 10415" transform="translate(331.142 218.491) rotate(-17)">
            <path id="Path_194871" data-name="Path 194871" d="M51.868,89.182a10.393,10.393,0,0,0,13.367,3.366l8.555-4.372a3.451,3.451,0,0,1,4.534,1.266l15.2,24.662a3.7,3.7,0,0,1-1.277,5.1c-5,2.927-15.331,7.895-26.651,7.042C49.711,125.053,39.48,110,22.2,81.958S-3.97,37.978,1.711,22.618C5.759,11.674,14.5,4.124,19.184.687a3.457,3.457,0,0,1,5.02.968l15.2,24.661a3.7,3.7,0,0,1-.81,4.775l-7.461,6.145a11.169,11.169,0,0,0-2.709,13.922Z" transform="translate(0 0)" fill="#5b9db6"/>
            <path id="Path_194872" data-name="Path 194872" d="M18.963,36.261l6.281-5.173a3.7,3.7,0,0,0,.81-4.775L18.016,13.276,10.755,1.528A3.448,3.448,0,0,0,5.83.683,59.306,59.306,0,0,0,0,5.583Z" transform="translate(13.354 0.003)" fill="#2339a0"/>
            <path id="Path_194873" data-name="Path 194873" d="M18.967,34.788a58.125,58.125,0,0,0,6.767-3.373,3.691,3.691,0,0,0,1.355-4.942L11.466,1.2A3.442,3.442,0,0,0,7.274.385L0,4.1Z" transform="translate(66.516 87.792)" fill="#2339a0"/>
          </g>
          <g id="Group_10329" data-name="Group 10329" transform="translate(92.992 124.517)">
            <path id="Path_194874" data-name="Path 194874" d="M315.9,232.9l7.084,5.461s3.2,10.084-2.2,15.328l-9.379-5.85Z" transform="translate(-311.4 -232.901)" fill="#e09736"/>
          </g>
          <g id="Group_10336" data-name="Group 10336" transform="translate(0 322.355)">
            <path id="Path_194885" data-name="Path 194885" d="M758.234,359.172H210.418a2.422,2.422,0,0,1-2.092-2.652h0a2.423,2.423,0,0,1,2.092-2.652H758.234a2.423,2.423,0,0,1,2.092,2.652h0A2.422,2.422,0,0,1,758.234,359.172Z" transform="translate(-208.326 -353.867)" fill="#638be2"/>
          </g>
          <g id="Group_10408" data-name="Group 10408" transform="translate(119.551 73.553)">
            <path id="Path_194984" data-name="Path 194984" d="M124.853,159.142a98.313,98.313,0,0,1,70.772-30.172h14.164s66.843,18.008,66.843,91.722c0,72.044-46.278,135.836-66.832,156.993H195.644l-70.791-72.869C85.786,264.6,85.786,199.356,124.853,159.142Zm70.781,120.673c25.665,0,46.472-21.416,46.472-47.824s-20.807-47.835-46.472-47.835-46.471,21.415-46.471,47.835S169.969,279.815,195.634,279.815Z" transform="translate(-95.553 -128.97)" fill="#e09736"/>
            <path id="Path_194986" data-name="Path 194986" d="M138.371,159.142a98.061,98.061,0,0,1,141.521,0c39.1,40.246,39.129,105.461.03,145.707l-70.76,72.836-70.792-72.869C99.305,264.6,99.305,199.356,138.371,159.142Zm70.782,120.673c25.665,0,46.471-21.416,46.471-47.824s-20.806-47.835-46.471-47.835-46.471,21.415-46.471,47.835S183.487,279.815,209.153,279.815Z" transform="translate(-102.226 -128.97)" fill="#fff"/>
            <path id="Path_194987" data-name="Path 194987" d="M208.985,371.565a.258.258,0,0,1-.185-.08l-67.83-69.82c-37.485-38.587-37.485-101.371,0-139.957a94.213,94.213,0,0,1,135.968,0c37.5,38.6,37.516,101.4.03,139.99l-67.8,69.787A.258.258,0,0,1,208.985,371.565Zm-.036-238.306a93.641,93.641,0,0,0-67.609,28.83c-37.281,38.377-37.281,100.819,0,139.2l67.644,69.63,67.614-69.6.184.191-.184-.191c37.28-38.377,37.267-100.835-.031-139.229A93.653,93.653,0,0,0,208.949,133.259Zm.025,150.844c-28.078,0-50.922-23.51-50.922-52.405s22.843-52.416,50.922-52.416S259.9,202.8,259.9,231.7,237.052,284.1,208.974,284.1Zm0-104.283c-27.79,0-50.4,23.272-50.4,51.877s22.608,51.866,50.4,51.866,50.4-23.267,50.4-51.866S236.764,179.82,208.974,179.82Z" transform="translate(-102.048 -128.678)" fill="#9fc6ff" opacity="0.4" style="mix-blend-mode: color-dodge;isolation: isolate"/>
          </g>
        </g>
        <g id="Group_10379" data-name="Group 10379" transform="translate(4.943 58.488)">
          <g id="Group_10360" data-name="Group 10360" transform="translate(0 104.798)">
            <g id="Group_10346" data-name="Group 10346" transform="translate(83.177 136.716)">
              <g id="Group_10339" data-name="Group 10339" transform="translate(0 19.535)">
                <path id="Path_194887" data-name="Path 194887" d="M335.685,352.193c.417.808.1,2.44-3.049,3.787s-8.848.778-11.11.32-3.642-1.135-6.992-.413-8.843.406-10.507-1.041c-.578-.685-.188-2.1-.188-2.1Z" transform="translate(-303.71 -352.193)" fill="#8fc9c6"/>
              </g>
              <g id="Group_10344" data-name="Group 10344" transform="translate(0.033 8.792)">
                <path id="Path_194888" data-name="Path 194888" d="M305.622,346.461c-.46,2.366-2.333,7.94-1.8,10.645,2.354,2.051,7.395,2.191,11.176,1.209s6.441,1.014,11.184,1.3c4.655.28,8.539-1.053,9.487-3.058,1.036-2.189-7.1-3.883-12.637-5.635a25.058,25.058,0,0,1-9.4-5.108Z" transform="translate(-303.729 -345.814)" fill="#228c7e"/>
              </g>
              <g id="Group_10345" data-name="Group 10345" transform="translate(1.925)">
                <path id="Path_194893" data-name="Path 194893" d="M304.886,340.593v9.439a4.116,4.116,0,0,1,1.505.9c.443.536,1.049,2.317,1.795,2.348,2.963.126,4.71-3.9,4.71-3.9l1.114-8.582Z" transform="translate(-304.886 -340.593)" fill="#ff9a8d"/>
              </g>
            </g>
            <g id="Group_10354" data-name="Group 10354" transform="translate(0 121.817)">
              <g id="Group_10347" data-name="Group 10347" transform="translate(0 5.413)">
                <path id="Path_194894" data-name="Path 194894" d="M264.052,366.431c-.646.628-2.259.744-4.357-2.026s-3.066-8.577-3.236-10.945.1-3.915-1.463-7.051-2.719-8.671-1.8-10.706c.489-.754,1.922-.744,1.922-.744Z" transform="translate(-252.869 -334.96)" fill="#aaeeed"/>
              </g>
              <g id="Group_10352" data-name="Group 10352" transform="translate(1.704 4.382)">
                <path id="Path_194895" data-name="Path 194895" d="M264.9,334.348c-2.338.17-8.056-.217-10.448,1.031-1.3,2.881-.1,7.922,1.823,11.416s.753,6.66,1.739,11.446c.969,4.7,3.244,8.2,5.374,8.609,2.325.45,1.762-8.07,1.939-14.035a26.586,26.586,0,0,1,2.3-10.685Z" transform="translate(-253.91 -334.348)" fill="#03aa99"/>
              </g>
              <g id="Group_10353" data-name="Group 10353" transform="translate(10.511)">
                <path id="Path_194900" data-name="Path 194900" d="M267.4,331.746l-5.921,4.382a4.351,4.351,0,0,1-.445,1.733c-.386.581-1.893,1.654-1.726,2.4.666,2.974,4.895,3.646,4.895,3.646l8.233-4.52Z" transform="translate(-259.293 -331.746)" fill="#ff9a8d"/>
              </g>
            </g>
            <g id="Group_10355" data-name="Group 10355" transform="translate(73.756 2.236)">
              <path id="Path_194901" data-name="Path 194901" d="M327.01,260.738c-10.271,0-17.916.8-17.916.8-3.285,1.479-8.921,9.165-10.58,14.042s.8,11.7,1.669,15.894c4.821,23.381,9.756,39.626,11.629,48.895,1.145,5.668-2.937,6.575-2.976,15.557-.054,12.858.461,40.269.461,40.269a11.706,11.706,0,0,0,8.931.727s7.709-45.208,8.553-50.382c1.369-8.39,1.844-11.91,2-26.426C328.995,299.7,327.01,260.738,327.01,260.738Z" transform="translate(-297.951 -260.738)" fill="#1e4174"/>
            </g>
            <g id="Group_10356" data-name="Group 10356" transform="translate(18.619)">
              <path id="Path_194902" data-name="Path 194902" d="M348.318,279.358c-1.718,8.275-13.242,18.23-13.242,18.23-1.306,3.855-18.193,63.374-21.01,65.637-2.817,2.245-44.783,25.64-44.783,25.64a9.672,9.672,0,0,1-3.985-4.315,12.526,12.526,0,0,1-.962-2.829,4.088,4.088,0,0,1-.069-.406.312.312,0,0,1-.018-.089s21.491-23.395,26.558-25.887a46.712,46.712,0,0,1,8.642-3.466v-.018c5.775-27.65,5.6-49.263,10.273-64.541a68.527,68.527,0,0,1,2.714-7.514c1.2-2.706,2.112-4.97,2.852-6.9.309-.83.584-1.591.841-2.317s.481-1.4.671-2.014c.137-.426.257-.832.378-1.2.532-1.735.91-3.131,1.322-4.458.19-.583.378-1.149.584-1.733.121-.283.224-.583.344-.866.121-.3.24-.6.378-.9h.018v.018l8.021,6.154,3.866,2.952Z" transform="translate(-264.249 -259.41)" fill="#14365b"/>
            </g>
            <g id="Group_10357" data-name="Group 10357" transform="translate(18.619)">
              <path id="Path_194903" data-name="Path 194903" d="M331.709,268.534a38.882,38.882,0,0,1-4.9,5.411c-5.96,5.34-9.561,13.647-12.738,30.864-3.581,19.4-9.594,48.231-10.315,50.016-.7,1.787-6.012,1.115-15.7,8.4-7.318,5.5-17.951,16.94-22.76,21.325a12.526,12.526,0,0,1-.962-2.829c-.034-.2-.052-.335-.069-.406a.312.312,0,0,1-.018-.089s21.491-23.395,26.558-25.887a46.712,46.712,0,0,1,8.642-3.466v-.018c5.512-27.65,5.6-49.263,10.273-64.541a64.8,64.8,0,0,1,2.731-7.5c1.2-2.7,2.114-4.968,2.835-6.913.326-.83.6-1.61.841-2.317q.388-1.086.671-2.014c.137-.426.257-.832.378-1.2.532-1.735.91-3.131,1.322-4.458.19-.583.378-1.149.584-1.733.121-.283.224-.583.344-.866.121-.3.258-.583.4-.884v-.018l8.021,6.172Z" transform="translate(-264.249 -259.41)" fill="#14365b"/>
            </g>
            <path id="Path_194904" data-name="Path 194904" d="M329.637,272.224s-5.252,7.083-19.693,7.639c-9.978.384-16.322-3.735-16.322-3.735l3.9-6.288Z" transform="translate(-226.949 -252.276)" fill="#14365b"/>
            <g id="Group_10359" data-name="Group 10359" transform="translate(18.615 0.126)">
              <g id="Group_10358" data-name="Group 10358" clip-path="url(#clip-path-6)">
                <path id="Path_194907" data-name="Path 194907" d="M265.64,329.225c.052,3.653,2.544,8.946,7.094,11.77" transform="translate(-263.361 -211.78)" fill="none" stroke="#274d79" stroke-miterlimit="10" stroke-width="0.525"/>
              </g>
            </g>
          </g>
          <g id="Group_10364" data-name="Group 10364" transform="translate(88.088 34.066)">
            <g id="Group_10363" data-name="Group 10363">
              <g id="Group_10361" data-name="Group 10361">
                <path id="Path_194909" data-name="Path 194909" d="M306.711,229.6l9.947,8.772,5.7-13.927-11.845-7.037Z" transform="translate(-306.711 -217.409)" fill="#ff9a8d"/>
              </g>
              <g id="Group_10362" data-name="Group 10362" transform="translate(3.657 0)">
                <path id="Path_194910" data-name="Path 194910" d="M319.249,228.568s-11.727-3.383-10.158-11.159l11.845,7.036Z" transform="translate(-308.947 -217.409)" fill="#ba5964"/>
              </g>
            </g>
          </g>
          <g id="Group_10365" data-name="Group 10365" transform="translate(68.444 46.257)">
            <path id="Path_194911" data-name="Path 194911" d="M324.059,233.073a12.1,12.1,0,0,1,4.088,7.836c.54,4.948.967,12.354,1.373,23.107.368,9.764,1.324,38.093,1.324,38.093s-7.262,4.9-19.461,3.9c-11.652-.96-16.679-6.857-16.679-6.857s1.214-39.838,5.044-55.518c5.657-16.169,14.6-18.981,14.6-18.981Z" transform="translate(-294.704 -224.648)" fill="#ffc253"/>
          </g>
          <g id="Group_10374" data-name="Group 10374" transform="translate(79.912)">
            <g id="Group_10366" data-name="Group 10366" transform="translate(29.762 22.665)">
              <path id="Path_194912" data-name="Path 194912" d="M319.905,210.639c.614,1.091,3.822,5.722,4.862,7.068s-3.113,1.7-3.113,1.7Z" transform="translate(-319.905 -210.639)" fill="#ba5964"/>
            </g>
            <g id="Group_10367" data-name="Group 10367" transform="translate(4.471 11.317)">
              <path id="Path_194913" data-name="Path 194913" d="M311.954,226.65a28.051,28.051,0,0,0,1.369,2.782c.7,1.191,10.454,5.266,13.029,5.588s5.993-.216,5.312-9.06-2.865-16.5-8.607-20.508-13.792.367-17.268,6.037S306.02,228.282,311.954,226.65Z" transform="translate(-304.446 -203.9)" fill="#ff9a8d"/>
            </g>
            <g id="Group_10368" data-name="Group 10368">
              <path id="Path_194914" data-name="Path 194914" d="M313.692,231.247h0l-1.27,4.072s-.985.485-3.473-2.7c-2.722-3.481-7.689-9.426-7.2-13.2.64-4.954,6.155-6.741,6.155-6.741s2.812-9.156,13.81-14.02,15.86,3.323,7.4,9.363c0,0,5.882,3.023,2.168,5.317a38.29,38.29,0,0,1-8.79,3.634,26.4,26.4,0,0,1-1.879,1.94c-1.549,1.517-8.275.893-8.275.893l.841,3.488s-2.742-.864-4.221.962C307.187,226.444,309.909,232.393,313.692,231.247Z" transform="translate(-301.714 -197.18)" fill="#001c45"/>
            </g>
          </g>
          <g id="Group_10375" data-name="Group 10375" transform="translate(79.684 54.176)">
            <path id="Path_194920" data-name="Path 194920" d="M305.664,230.295c-2.407,1.31-5.567,8.461-3.321,16.187s5.155,15.7,5.155,15.7,11.594-2.819,14.647-10.423c0,0-4.1-10.3-6-14.469S311.745,226.984,305.664,230.295Z" transform="translate(-301.575 -229.35)" fill="#e09736"/>
          </g>
          <g id="Group_10376" data-name="Group 10376" transform="translate(87.13 80.469)">
            <path id="Path_194921" data-name="Path 194921" d="M314.9,264.468c2.6,2.678,6.143,5.62,8.12,6.428-.155-4.5-.321-8.309-.468-12.48l-8.677-11.864-5.7-1.588-2.047,6.086S310.75,260.19,314.9,264.468Z" transform="translate(-306.126 -244.963)" fill="#e09736"/>
          </g>
          <g id="Group_10377" data-name="Group 10377" transform="translate(81.357 54.81)">
            <path id="Path_194922" data-name="Path 194922" d="M307.754,229.946c-5.482,1.5-7.351,9.594-1.834,22.133,5.289,12.022,13.815,23.028,19.055,26.785s25.54,2.521,42.517-2.646c0,0,9.674-3.575,12.365-6.029,5.994-5.468,6.287-12.73,1.886-11.65s-11.351,5.988-11.351,5.988-1.844-3.737-3.182-6.647c0,0-1.189.32-1.608,2.908s-.381,6.2-1.114,6.723c-1.95,1.4-29.162,3.757-32.413.46-3.679-3.733-9.013-13.641-12.8-22.788C315.088,235.072,313.36,228.414,307.754,229.946Z" transform="translate(-302.597 -229.727)" fill="#ff9a8d"/>
          </g>
          <g id="Group_10378" data-name="Group 10378" transform="translate(80.589 52.823)">
            <path id="Path_194923" data-name="Path 194923" d="M306.218,229.492c-2.408,1.312-5.569,8.462-3.323,16.187s5.157,15.7,5.157,15.7,10.885-1.7,15.5-8.131c0,0-4.954-12.593-6.86-16.763S312.3,226.181,306.218,229.492Z" transform="translate(-302.128 -228.547)" fill="#ffc253"/>
          </g>
        </g>
        <path id="Path_194989" data-name="Path 194989" d="M207.675,720.231s8.784-31.8-1.648-55.2a53.226,53.226,0,0,1-3.811-31.507A88.7,88.7,0,0,1,206.4,618.74" transform="translate(283.73 -394.038)" fill="none" stroke="#535461" stroke-miterlimit="10" stroke-width="2"/>
        <path id="Path_194990" data-name="Path 194990" d="M197.2,583.641c0,3.9,6.616,15.2,6.616,15.2s6.616-11.3,6.616-15.2a6.632,6.632,0,1,0-13.237,0Z" transform="translate(286.435 -370.527)" fill="#0d5bb9"/>
        <path id="Path_194991" data-name="Path 194991" d="M220.634,621.722c1.988,3.27,13.3,8.92,13.3,8.92s-.2-13.32-2.192-16.585a6.375,6.375,0,0,0-9.151-2.086,7.341,7.341,0,0,0-1.957,9.757Z" transform="translate(252.064 -387.471)" fill="#0d5bb9"/>
        <path id="Path_194992" data-name="Path 194992" d="M217.28,690.563c3.262,1.757,15.707.518,15.707.518s-6.485-11.4-9.747-13.144a6.441,6.441,0,0,0-8.9,3.136A7.293,7.293,0,0,0,217.28,690.563Z" transform="translate(255.899 -420.259)" fill="#0d5bb9"/>
        <path id="Path_194993" data-name="Path 194993" d="M204.083,744.86c2.917,2.317,15.4,3.364,15.4,3.364s-4.584-12.392-7.525-14.709a6.353,6.353,0,0,0-9.256,1.477A7.366,7.366,0,0,0,204.083,744.86Z" transform="translate(275.353 -448.659)" fill="#0d5bb9"/>
        <path id="Path_194994" data-name="Path 194994" d="M201.683,639.243c-2.62,2.716-14.836,5.53-14.836,5.53s2.99-12.957,5.615-15.652a6.336,6.336,0,0,1,9.365.138,7.4,7.4,0,0,1-.129,9.985Z" transform="translate(298.204 -395.504)" fill="#0d5bb9"/>
        <path id="Path_194995" data-name="Path 194995" d="M184.94,701.042c-3.262,1.757-15.707.518-15.707.518s6.485-11.4,9.747-13.144a6.43,6.43,0,0,1,8.889,3.122,7.282,7.282,0,0,1-2.929,9.477Z" transform="translate(320.93 -425.452)" fill="#0d5bb9"/>
        <path id="Path_194996" data-name="Path 194996" d="M181.146,764.759c-2.917,2.317-15.4,3.364-15.4,3.364s4.584-12.392,7.525-14.709a6.353,6.353,0,0,1,9.256,1.477A7.366,7.366,0,0,1,181.146,764.759Z" transform="translate(328.332 -458.245)" fill="#0d5bb9"/>
        <g id="Group_10417" data-name="Group 10417" transform="translate(138.527 276.901)">
          <path id="Path_194997" data-name="Path 194997" d="M127.969,722.023s28.03,18.031-23.64,45.79c0,0-11.385-22.535,1.2-40.908a16.314,16.314,0,0,1,22.016-5.141Z" transform="translate(-99.606 -719.454)" fill="#df9a57"/>
          <path id="Path_194998" data-name="Path 194998" d="M-5223.7,16353.2s3.118-15.141,6.75-23.76,7.78-10.715,7.78-10.715" transform="translate(5229.185 -16306.633)" fill="none" stroke="#535461" stroke-linecap="round" stroke-width="1"/>
        </g>
        <g id="Group_10418" data-name="Group 10418" transform="translate(118.795 318.41) rotate(-71)">
          <path id="Path_194997-2" data-name="Path 194997" d="M13.965,1.155S27.588,9.4,2.221,22.506c0,0-5.47-10.408.758-18.989A8.307,8.307,0,0,1,13.76,1.036Z" transform="translate(0 0)" fill="#5beca4"/>
          <path id="Path_194998-2" data-name="Path 194998" d="M0,16.06A74.464,74.464,0,0,1,3.4,5.005C5.209.99,7.244,0,7.244,0" transform="translate(2.375 4.501)" fill="none" stroke="#535461" stroke-linecap="round" stroke-width="1"/>
        </g>
      </g>
    </g>
  </g>
</svg>
