<svg xmlns="http://www.w3.org/2000/svg" xmlns:xlink="http://www.w3.org/1999/xlink" viewBox="0 0 685 378.41"><defs><style>.cls-1,.cls-52,.cls-54{fill:none;}.cls-2{fill:#00e1d7;}.cls-2,.cls-61,.cls-66{opacity:0.5;}.cls-13,.cls-14,.cls-15,.cls-16,.cls-17,.cls-19,.cls-2,.cls-50,.cls-58,.cls-59,.cls-61,.cls-66,.cls-67{isolation:isolate;}.cls-3{fill:#0d9993;}.cls-4{fill:#c6dbf0;}.cls-5{fill:#d3e2f0;}.cls-6{fill:#83a7cc;}.cls-7{fill:#e9f2fa;}.cls-8{fill:#a7e5ea;}.cls-9{fill:#fdd66f;}.cls-10,.cls-14,.cls-16,.cls-59,.cls-67{fill:#ecad00;}.cls-11,.cls-17,.cls-58{opacity:0.2;}.cls-12,.cls-15,.cls-19{fill:#fff;}.cls-14{font-size:13px;}.cls-14,.cls-16,.cls-59,.cls-67{font-family:SegoeUIBlack, Segoe UI;}.cls-15{opacity:0.3;}.cls-16{font-size:13px;}.cls-17{fill:#cdf8f9;}.cls-18{fill:#a97c50;}.cls-19{opacity:0.8;}.cls-20{fill:#726658;}.cls-21{fill:#ffbd29;}.cls-22{clip-path:url(#clip-path);}.cls-23{fill:#ffac06;}.cls-24{fill:#ffd454;}.cls-25{fill:#ffb127;}.cls-26{fill:#e38601;}.cls-27{clip-path:url(#clip-path-2);}.cls-28{clip-path:url(#clip-path-3);}.cls-29{clip-path:url(#clip-path-4);}.cls-30{clip-path:url(#clip-path-5);}.cls-31{clip-path:url(#clip-path-6);}.cls-32{clip-path:url(#clip-path-7);}.cls-33{clip-path:url(#clip-path-8);}.cls-34{clip-path:url(#clip-path-9);}.cls-35{clip-path:url(#clip-path-10);}.cls-36{fill:#6f8faf;}.cls-37,.cls-50{fill:#328394;}.cls-38{fill:#ffde8c;}.cls-39{fill:#db9965;}.cls-40{fill:#a3eefe;}.cls-41{fill:#ffb780;}.cls-42{fill:#ffc444;}.cls-43{fill:#eea886;}.cls-44{fill:#1d3b54;}.cls-45{fill:#122536;}.cls-46{fill:#172f42;}.cls-47{fill:#fccca2;}.cls-48{fill:#e54242;}.cls-49{fill:#b88311;}.cls-50{font-size:17px;font-family:PalatinoLinotype-Bold, Palatino Linotype;font-weight:700;}.cls-51{fill:#1b4e67;}.cls-52{stroke:#38728f;}.cls-52,.cls-54{stroke-linecap:round;stroke-miterlimit:10;}.cls-53{fill:#49a8d6;}.cls-54{stroke:#3880a3;}.cls-55{fill:#772a2a;}.cls-56{fill:#39b54a;}.cls-57{fill:#bae27a;}.cls-58{fill:#414042;}.cls-59{font-size:22px;}.cls-60{fill:#883733;}.cls-61{fill:#9b4949;}.cls-62{fill:#a35252;}.cls-63{fill:#944;}.cls-64,.cls-66{fill:#939598;}.cls-65{fill:#e6e7e8;}.cls-67{font-size:19px;}.cls-68{fill:#efaa88;}.cls-69{fill:#292c47;}.cls-70{fill:#1b1d2e;}.cls-71{fill:#282b45;}.cls-72{fill:#eddad3;}.cls-73{fill:#3d4169;}.cls-74{fill:#323657;}.cls-75{fill:#1d2133;}.cls-76{fill:#a77860;}.cls-77{fill:#548ad1;}</style><clipPath id="clip-path"><path class="cls-1" d="M105,303v7.48c0,2.55,11.64,4.69,26,4.69s26-2.1,26-4.69V303Z"/></clipPath><clipPath id="clip-path-2"><path class="cls-1" d="M107.1,294.44v7.48c0,2.55,11.65,4.69,26,4.69s26-2.1,26-4.69v-7.48Z"/></clipPath><clipPath id="clip-path-3"><path class="cls-1" d="M102.55,285.13v7.49c0,2.54,11.65,4.7,26,4.7s26-2.1,26-4.7v-7.49Z"/></clipPath><clipPath id="clip-path-4"><path class="cls-1" d="M105,276.61v7.49c0,2.54,11.64,4.7,26,4.7s26-2.1,26-4.7v-7.49Z"/></clipPath><clipPath id="clip-path-5"><path class="cls-1" d="M106.08,268.12v7.49c0,2.54,11.63,4.7,26,4.7s26-2.1,26-4.7v-7.49Z"/></clipPath><clipPath id="clip-path-6"><path class="cls-1" d="M110.34,263.39v7.49c0,2.55,11.65,4.7,26,4.7s26-2.1,26-4.7v-7.49Z"/></clipPath><clipPath id="clip-path-7"><path class="cls-1" d="M112.48,254.89v7.49c0,2.54,11.65,4.7,26,4.7s26-2.12,26-4.7v-7.49Z"/></clipPath><clipPath id="clip-path-8"><path class="cls-1" d="M107.94,245.58v7.47c0,2.55,11.65,4.7,26,4.7s26-2.1,26-4.7v-7.47Z"/></clipPath><clipPath id="clip-path-9"><path class="cls-1" d="M110.34,237.14v7.47c0,2.55,11.65,4.7,26,4.7s26-2.1,26-4.7v-7.47Z"/></clipPath><clipPath id="clip-path-10"><path class="cls-1" d="M111.46,228.57v7.48c0,2.54,11.64,4.7,26,4.7s26-2.1,26-4.7v-7.48Z"/></clipPath></defs><title>industryArtboard 10</title><g id="Designed_by_Freepik" data-name="Designed by Freepik"><g id="industryBanking_Advisory" data-name="industryBanking Advisory"><path id="Path_200063" data-name="Path 200063" class="cls-2" d="M329.81,328.53s91.82-2.79,143.87,1.88S552,339.56,538,347.21,497.51,368.69,417.68,361s-106.34,4.35-178.52,4.35-117.21-14-134.41-23.13,9.3-10.14,65.57-13.56S329.81,328.53,329.81,328.53Z"/><path id="Path_200844" data-name="Path 200844" class="cls-3" d="M215.14,121.41H452V290.17H215.14Z"/><path id="Path_198917" data-name="Path 198917" class="cls-4" d="M177.44,301.13H489.73a1.83,1.83,0,0,1,1.88,1.79h0v9.14h-316v-9.14a1.83,1.83,0,0,1,1.84-1.8Z"/><rect id="Rectangle_8762" data-name="Rectangle 8762" class="cls-5" x="199.88" y="128.81" width="31.69" height="156.84"/><rect id="Rectangle_8763" data-name="Rectangle 8763" class="cls-6" x="199.88" y="280.81" width="31.69" height="4.85"/><rect id="Rectangle_8764" data-name="Rectangle 8764" class="cls-5" x="197.66" y="281.95" width="36.13" height="3.7" rx="0.34"/><rect id="Rectangle_8765" data-name="Rectangle 8765" class="cls-5" x="195.51" y="285.64" width="40.43" height="4.51" rx="0.59"/><path id="Path_198918" data-name="Path 198918" class="cls-5" d="M231.57,121.41H199.12c-4.7,0-8.51,3.31-8.51,7.4s3.81,7.41,8.51,7.41,8.49-3.31,8.49-7.41h15.48c0,4.11,3.81,7.41,8.51,7.41s8.5-3.31,8.5-7.41S236.27,121.41,231.57,121.41Z"/><path id="Path_198919" data-name="Path 198919" class="cls-6" d="M231.57,136.22v1.46c-4.7,0-8.49-3.31-8.49-7.4H207.61c0,3.87-3.38,7-7.73,7.38v-1.48c4.35-.33,7.73-3.51,7.73-7.38h15.48C223.09,132.91,226.87,136.22,231.57,136.22Z"/><path id="Path_198920" data-name="Path 198920" class="cls-6" d="M197.66,284.86v.41a.41.41,0,0,0,.44.37h35.25a.4.4,0,0,0,.44-.37v-.41Z"/><path id="Path_198921" data-name="Path 198921" class="cls-6" d="M195.51,289.14v.37a.71.71,0,0,0,.76.64h38.92a.7.7,0,0,0,.75-.64v-.37Z"/><path id="Path_198922" data-name="Path 198922" class="cls-7" d="M202.39,279.89a.9.9,0,0,1-1-.82h0V138.89a1,1,0,0,1,1.93,0V279.06A.9.9,0,0,1,202.39,279.89Z"/><path id="Path_198923" data-name="Path 198923" class="cls-7" d="M207.38,279.89a.9.9,0,0,1-1-.82h0V134.55a1,1,0,0,1,1.94,0V279.06A.91.91,0,0,1,207.38,279.89Z"/><path id="Path_198924" data-name="Path 198924" class="cls-7" d="M212.36,280a.9.9,0,0,1-1-.82V131a.92.92,0,0,1,1-.85.91.91,0,0,1,1,.84h0V279.19A.9.9,0,0,1,212.36,280Z"/><path id="Path_198925" data-name="Path 198925" class="cls-7" d="M217.35,279.89a.9.9,0,0,1-1-.82h0V130.88a1,1,0,0,1,1.94,0V279.06a.89.89,0,0,1-1,.83Z"/><path id="Path_198926" data-name="Path 198926" class="cls-7" d="M222.34,279.89a.9.9,0,0,1-1-.83V134.55a1,1,0,0,1,1.06-.87,1,1,0,0,1,.87.87V279.06a.89.89,0,0,1-1,.83Z"/><path id="Path_198927" data-name="Path 198927" class="cls-7" d="M227.32,279.89a.91.91,0,0,1-1-.83V138.89a1,1,0,0,1,1.07-.87,1,1,0,0,1,.87.87V279.06a.9.9,0,0,1-1,.83Z"/><ellipse id="Ellipse_649" data-name="Ellipse 649" class="cls-7" cx="231.57" cy="128.81" rx="3.32" ry="2.88"/><ellipse id="Ellipse_650" data-name="Ellipse 650" class="cls-7" cx="199.07" cy="128.81" rx="3.32" ry="2.88"/><path id="Path_198928" data-name="Path 198928" class="cls-6" d="M207.61,128.81a6.71,6.71,0,0,0-2.59-4.72,5.48,5.48,0,0,1,4.11,4.72Z"/><path id="Path_198929" data-name="Path 198929" class="cls-6" d="M223.09,128.81a6.74,6.74,0,0,1,2.59-4.72,5.48,5.48,0,0,0-4.11,4.72Z"/><rect id="Rectangle_8766" data-name="Rectangle 8766" class="cls-5" x="278.71" y="128.81" width="31.69" height="156.84"/><rect id="Rectangle_8767" data-name="Rectangle 8767" class="cls-6" x="278.71" y="280.81" width="31.69" height="4.85"/><rect id="Rectangle_8768" data-name="Rectangle 8768" class="cls-5" x="276.49" y="281.95" width="36.13" height="3.7" rx="0.34"/><rect id="Rectangle_8769" data-name="Rectangle 8769" class="cls-5" x="274.34" y="285.64" width="40.43" height="4.51" rx="0.59"/><path id="Path_198930" data-name="Path 198930" class="cls-5" d="M310.4,121.41H277.89c-4.7,0-8.5,3.31-8.5,7.4s3.8,7.41,8.5,7.41,8.5-3.31,8.5-7.41h15.45c0,4.11,3.81,7.41,8.51,7.41s8.49-3.31,8.49-7.41S315.1,121.41,310.4,121.41Z"/><path id="Path_198931" data-name="Path 198931" class="cls-6" d="M310.4,136.22v1.46c-4.7,0-8.49-3.31-8.49-7.4H286.44c0,3.87-3.38,7-7.73,7.38v-1.48c4.35-.33,7.73-3.51,7.73-7.38h15.47C301.91,132.91,305.7,136.22,310.4,136.22Z"/><path id="Path_198932" data-name="Path 198932" class="cls-6" d="M276.52,284.86v.41a.4.4,0,0,0,.44.37h35.18a.4.4,0,0,0,.44-.37v-.41Z"/><path id="Path_198933" data-name="Path 198933" class="cls-6" d="M274.34,289.14v.37a.7.7,0,0,0,.75.64H314a.7.7,0,0,0,.75-.64v-.37Z"/><path id="Path_198934" data-name="Path 198934" class="cls-7" d="M281.22,279.89a.9.9,0,0,1-1-.82h0V138.89a1,1,0,0,1,1.08-.85,1,1,0,0,1,.85.85V279.06A.9.9,0,0,1,281.22,279.89Z"/><path id="Path_198935" data-name="Path 198935" class="cls-7" d="M286.21,279.89a.9.9,0,0,1-1-.82h0V134.55a1,1,0,0,1,1.94,0V279.06A.91.91,0,0,1,286.21,279.89Z"/><path id="Path_198936" data-name="Path 198936" class="cls-7" d="M291.19,280a.9.9,0,0,1-1-.82V131a.92.92,0,0,1,1-.85.91.91,0,0,1,1,.84h0V279.19A.9.9,0,0,1,291.19,280Z"/><path id="Path_198937" data-name="Path 198937" class="cls-7" d="M296.18,279.89a.9.9,0,0,1-1-.82h0V130.88a.91.91,0,0,1,1-.85.89.89,0,0,1,1,.83v148.2A.9.9,0,0,1,296.18,279.89Z"/><path id="Path_198938" data-name="Path 198938" class="cls-7" d="M301.18,279.89a.9.9,0,0,1-1-.82h0V134.55a1,1,0,0,1,1.1-.83,1,1,0,0,1,.83.83V279.06A.9.9,0,0,1,301.18,279.89Z"/><path id="Path_198939" data-name="Path 198939" class="cls-7" d="M306.15,279.89a.89.89,0,0,1-.95-.83V138.89a1,1,0,0,1,1.93,0V279.06a.9.9,0,0,1-1,.83Z"/><ellipse id="Ellipse_651" data-name="Ellipse 651" class="cls-7" cx="310.4" cy="128.81" rx="3.32" ry="2.88"/><ellipse id="Ellipse_652" data-name="Ellipse 652" class="cls-7" cx="277.9" cy="128.81" rx="3.32" ry="2.88"/><path id="Path_198940" data-name="Path 198940" class="cls-6" d="M286.44,128.81a6.74,6.74,0,0,0-2.59-4.72,5.48,5.48,0,0,1,4.11,4.72Z"/><path id="Path_198941" data-name="Path 198941" class="cls-6" d="M301.91,128.81a6.72,6.72,0,0,1,2.6-4.72,5.48,5.48,0,0,0-4.11,4.72Z"/><rect id="Rectangle_8770" data-name="Rectangle 8770" class="cls-5" x="357.54" y="128.81" width="31.69" height="156.84"/><rect id="Rectangle_8771" data-name="Rectangle 8771" class="cls-6" x="357.54" y="280.81" width="31.69" height="4.85"/><rect id="Rectangle_8772" data-name="Rectangle 8772" class="cls-5" x="355.32" y="281.95" width="36.13" height="3.7" rx="0.34"/><rect id="Rectangle_8773" data-name="Rectangle 8773" class="cls-5" x="353.17" y="285.64" width="40.43" height="4.51" rx="0.59"/><path id="Path_198942" data-name="Path 198942" class="cls-5" d="M389.23,121.41H356.76c-4.68,0-8.49,3.31-8.49,7.4s3.81,7.41,8.49,7.41,8.51-3.31,8.51-7.41h15.45c0,4.11,3.81,7.41,8.51,7.41s8.5-3.31,8.5-7.41S393.92,121.41,389.23,121.41Z"/><path id="Path_198943" data-name="Path 198943" class="cls-6" d="M389.23,136.22v1.46c-4.7,0-8.51-3.31-8.51-7.4H365.27c0,3.87-3.38,7-7.73,7.38v-1.48c4.35-.33,7.73-3.51,7.73-7.38h15.45C380.72,132.91,384.53,136.22,389.23,136.22Z"/><path id="Path_198944" data-name="Path 198944" class="cls-6" d="M355.32,284.86v.41a.4.4,0,0,0,.43.37H391a.4.4,0,0,0,.44-.37v-.41Z"/><path id="Path_198945" data-name="Path 198945" class="cls-6" d="M353.24,289.14v.37a.7.7,0,0,0,.75.64h38.93a.71.71,0,0,0,.75-.64v-.37Z"/><path id="Path_198946" data-name="Path 198946" class="cls-7" d="M360.09,279.89a.91.91,0,0,1-1-.83V138.89a1,1,0,0,1,1.07-.87,1,1,0,0,1,.86.87V279.06a.89.89,0,0,1-.95.83Z"/><path id="Path_198947" data-name="Path 198947" class="cls-7" d="M365,279.89a.91.91,0,0,1-1-.84V134.55a1,1,0,0,1,1.94,0v144.5a.9.9,0,0,1-1,.84Z"/><path id="Path_198948" data-name="Path 198948" class="cls-7" d="M370,280a.9.9,0,0,1-1-.82V131a.92.92,0,0,1,1-.85.91.91,0,0,1,1,.84h0V279.19A.9.9,0,0,1,370,280Z"/><path id="Path_198949" data-name="Path 198949" class="cls-7" d="M375,279.89a.9.9,0,0,1-1-.82h0V130.88a.91.91,0,0,1,1-.85.89.89,0,0,1,1,.83v148.2A.9.9,0,0,1,375,279.89Z"/><path id="Path_198950" data-name="Path 198950" class="cls-7" d="M380,279.89a.9.9,0,0,1-1-.82h0V134.55a1,1,0,0,1,1.94,0V279.06A.91.91,0,0,1,380,279.89Z"/><path id="Path_198951" data-name="Path 198951" class="cls-7" d="M385,279.89a.9.9,0,0,1-1-.82h0V138.89a1,1,0,0,1,1.95,0V279.06a.9.9,0,0,1-1,.83Z"/><ellipse id="Ellipse_653" data-name="Ellipse 653" class="cls-7" cx="389.23" cy="128.81" rx="3.32" ry="2.88"/><ellipse id="Ellipse_654" data-name="Ellipse 654" class="cls-7" cx="356.73" cy="128.81" rx="3.32" ry="2.88"/><path id="Path_198952" data-name="Path 198952" class="cls-6" d="M365.27,128.81a6.74,6.74,0,0,0-2.59-4.72,5.48,5.48,0,0,1,4.11,4.72Z"/><path id="Path_198953" data-name="Path 198953" class="cls-6" d="M380.74,128.81a6.66,6.66,0,0,1,2.6-4.72,5.48,5.48,0,0,0-4.11,4.72Z"/><rect id="Rectangle_8774" data-name="Rectangle 8774" class="cls-5" x="436.37" y="128.81" width="31.69" height="156.84"/><rect id="Rectangle_8775" data-name="Rectangle 8775" class="cls-6" x="436.37" y="280.81" width="31.69" height="4.85"/><rect id="Rectangle_8776" data-name="Rectangle 8776" class="cls-5" x="434.15" y="281.95" width="36.13" height="3.7" rx="0.34"/><rect id="Rectangle_8777" data-name="Rectangle 8777" class="cls-5" x="432" y="285.64" width="40.43" height="4.51" rx="0.59"/><path id="Path_198954" data-name="Path 198954" class="cls-5" d="M468.06,121.41H435.59c-4.69,0-8.5,3.31-8.5,7.4s3.81,7.41,8.5,7.41,8.51-3.31,8.51-7.41h15.45c0,4.11,3.81,7.41,8.51,7.41s8.49-3.31,8.49-7.41S472.75,121.41,468.06,121.41Z"/><path id="Path_198955" data-name="Path 198955" class="cls-6" d="M468.05,136.22v1.46c-4.69,0-8.5-3.31-8.5-7.4H444.1c0,3.87-3.38,7-7.73,7.38v-1.48c4.35-.33,7.73-3.51,7.73-7.38h15.45C459.55,132.91,463.36,136.22,468.05,136.22Z"/><path id="Path_198956" data-name="Path 198956" class="cls-6" d="M434.15,284.86v.41a.4.4,0,0,0,.43.37h35.26a.4.4,0,0,0,.44-.37v-.41Z"/><path id="Path_198957" data-name="Path 198957" class="cls-6" d="M432,289.14v.37a.7.7,0,0,0,.75.64h38.93a.71.71,0,0,0,.75-.64v-.37Z"/><path id="Path_198958" data-name="Path 198958" class="cls-7" d="M438.87,279.89a.9.9,0,0,1-1-.83V138.89a1,1,0,0,1,1.93,0V279.06a.89.89,0,0,1-1,.83Z"/><path id="Path_198959" data-name="Path 198959" class="cls-7" d="M443.85,279.89a.91.91,0,0,1-1-.83V134.55a1,1,0,0,1,1.94,0V279.06a.9.9,0,0,1-1,.83Z"/><path id="Path_198960" data-name="Path 198960" class="cls-7" d="M448.85,280a.9.9,0,0,1-1-.82V131a1,1,0,0,1,1.93,0V279.19A.9.9,0,0,1,448.85,280Z"/><path id="Path_198961" data-name="Path 198961" class="cls-7" d="M453.84,279.89a.9.9,0,0,1-1-.82h0V130.88a.91.91,0,0,1,1-.85.9.9,0,0,1,1,.83v148.2A.9.9,0,0,1,453.84,279.89Z"/><path id="Path_198962" data-name="Path 198962" class="cls-7" d="M458.83,279.89a.9.9,0,0,1-1-.82h0V134.55a1,1,0,0,1,1.94,0V279.06A.91.91,0,0,1,458.83,279.89Z"/><path id="Path_198963" data-name="Path 198963" class="cls-7" d="M463.81,279.89a.9.9,0,0,1-1-.82h0V138.89a1,1,0,0,1,1.93,0V279.06A.9.9,0,0,1,463.81,279.89Z"/><ellipse id="Ellipse_655" data-name="Ellipse 655" class="cls-7" cx="468.06" cy="128.81" rx="3.32" ry="2.88"/><ellipse id="Ellipse_656" data-name="Ellipse 656" class="cls-7" cx="435.56" cy="128.81" rx="3.32" ry="2.88"/><path id="Path_198964" data-name="Path 198964" class="cls-6" d="M444.1,128.81a6.74,6.74,0,0,0-2.59-4.72,5.48,5.48,0,0,1,4.11,4.72Z"/><path id="Path_198965" data-name="Path 198965" class="cls-6" d="M459.57,128.81a6.7,6.7,0,0,1,2.6-4.72,5.48,5.48,0,0,0-4.11,4.72Z"/><path id="Path_198966" data-name="Path 198966" class="cls-4" d="M184,290.15H483.15A1.84,1.84,0,0,1,485,292v9.14H182.22V292A1.85,1.85,0,0,1,184,290.15Z"/><rect id="Rectangle_8778" data-name="Rectangle 8778" class="cls-6" x="182.17" y="299.37" width="302.83" height="1.75"/><path id="Path_198967" data-name="Path 198967" class="cls-6" d="M335.29,60.72a5.38,5.38,0,0,0-3.41,0L182.17,110.44v11H484.94v-11Z"/><path id="Path_198968" data-name="Path 198968" class="cls-5" d="M333.4,67.44,201.25,113.58a.72.72,0,0,0-.48.8.68.68,0,0,0,.69.6H465.77a.69.69,0,0,0,.7-.6.74.74,0,0,0-.48-.8L333.83,67.44A.54.54,0,0,0,333.4,67.44Z"/><path id="Path_198969" data-name="Path 198969" class="cls-4" d="M490.87,313H176.35c-.41,0-.74-.21-.74-.48s.33-.48.74-.48H490.87c.41,0,.74.22.74.48S491.28,313,490.87,313Z"/><g id="Group_14808" data-name="Group 14808"><path id="Path_198970" data-name="Path 198970" class="cls-8" d="M556.3,260.36s12.5,4.83,13.4,12.52-1.3,46-11.13,55.23a80,80,0,0,1-22.25,2.9c-13.22,0-13.18,0-22.25-2.9-9.8-9.21-12-47.54-11.13-55.23s13.4-12.52,13.4-12.52Z"/><rect id="Rectangle_8779" data-name="Rectangle 8779" class="cls-9" x="524.52" y="322.81" width="23.64" height="2.96"/><rect id="Rectangle_8780" data-name="Rectangle 8780" class="cls-10" x="523.36" y="323.28" width="25.95" height="3.26"/><g id="Group_14595" data-name="Group 14595" class="cls-11"><path id="Path_198971" data-name="Path 198971" class="cls-12" d="M523.66,326.54h5.17l2.29-3.26h-5.18Z"/><path id="Path_198972" data-name="Path 198972" class="cls-12" d="M535.68,323.28h-1.93l-2.29,3.26h1.93Z"/><path id="Path_198973" data-name="Path 198973" class="cls-12" d="M549.31,324.22l-1.63,2.32h1.63Z"/><path id="Path_198974" data-name="Path 198974" class="cls-12" d="M545.87,323.28H540.7l-2.29,3.26h5.18Z"/></g><rect id="Rectangle_8781" data-name="Rectangle 8781" class="cls-9" x="538.23" y="308.72" width="2.97" height="23.64" transform="translate(213.26 856.7) rotate(-89.37)"/><rect id="Rectangle_8782" data-name="Rectangle 8782" class="cls-10" x="538.08" y="308.19" width="3.26" height="25.95" transform="translate(212.63 857.3) rotate(-89.37)"/><g id="Group_14596" data-name="Group 14596" class="cls-11"><path id="Path_198975" data-name="Path 198975" class="cls-12" d="M527,322.66l5.18.06,2.31-3.23-5.17-.06Z"/><path id="Path_198976" data-name="Path 198976" class="cls-12" d="M539.09,319.54l-1.93,0-2.32,3.23,1.93,0Z"/><path id="Path_198977" data-name="Path 198977" class="cls-12" d="M552.71,320.63l-1.66,2.3,1.64,0Z"/><path id="Path_198978" data-name="Path 198978" class="cls-12" d="M549.28,319.66l-5.17-.06-2.32,3.23,5.18.06Z"/></g><rect id="Rectangle_8783" data-name="Rectangle 8783" class="cls-9" x="534.18" y="305.1" width="2.97" height="23.64" transform="translate(218.09 852.2) rotate(-89.93)"/><rect id="Rectangle_8784" data-name="Rectangle 8784" class="cls-10" x="534.04" y="304.57" width="3.26" height="25.95" transform="translate(217.47 852.82) rotate(-89.93)"/><g id="Group_14597" data-name="Group 14597" class="cls-11"><path id="Path_198979" data-name="Path 198979" class="cls-12" d="M523,319.15h5.18l2.29-3.26h-5.18Z"/><path id="Path_198980" data-name="Path 198980" class="cls-12" d="M535,315.91h-1.93l-2.29,3.26h1.93Z"/><path id="Path_198981" data-name="Path 198981" class="cls-12" d="M548.65,316.87,547,319.18h1.63Z"/><path id="Path_198982" data-name="Path 198982" class="cls-12" d="M545.22,315.93H540l-2.28,3.26h5.17Z"/></g><rect id="Rectangle_8785" data-name="Rectangle 8785" class="cls-9" x="537.63" y="301.35" width="2.97" height="23.64" transform="translate(225.19 851.85) rotate(-89.92)"/><rect id="Rectangle_8786" data-name="Rectangle 8786" class="cls-10" x="537.45" y="300.8" width="3.26" height="25.95" transform="translate(224.64 852.47) rotate(-89.93)"/><g id="Group_14598" data-name="Group 14598" class="cls-11"><path id="Path_198983" data-name="Path 198983" class="cls-12" d="M526.41,315.4h5.19l2.28-3.26h-5.17Z"/><path id="Path_198984" data-name="Path 198984" class="cls-12" d="M538.44,312.15h-1.93l-2.29,3.26h1.93Z"/><path id="Path_198985" data-name="Path 198985" class="cls-12" d="M552.06,313.11l-1.63,2.31h1.63Z"/><path id="Path_198986" data-name="Path 198986" class="cls-12" d="M548.63,312.17h-5.18l-2.28,3.26h5.17Z"/></g><rect id="Rectangle_8787" data-name="Rectangle 8787" class="cls-9" x="527.19" y="304.52" width="23.64" height="2.97" transform="translate(-23.72 46.18) rotate(-4.8)"/><rect id="Rectangle_8788" data-name="Rectangle 8788" class="cls-10" x="526.09" y="304.99" width="25.95" height="3.26" transform="translate(-23.77 46.18) rotate(-4.8)"/><g id="Group_14599" data-name="Group 14599" class="cls-11"><path id="Path_198987" data-name="Path 198987" class="cls-12" d="M526.57,309.32l5.16-.44,2-3.43-5.16.43Z"/><path id="Path_198988" data-name="Path 198988" class="cls-12" d="M538.27,305.07l-1.92.16-2,3.43,1.92-.16Z"/><path id="Path_198989" data-name="Path 198989" class="cls-12" d="M551.93,304.86l-1.43,2.45,1.62-.14Z"/><path id="Path_198990" data-name="Path 198990" class="cls-12" d="M548.43,304.22l-5.15.43-2,3.43,5.16-.43Z"/></g><rect id="Rectangle_8789" data-name="Rectangle 8789" class="cls-9" x="535.52" y="297.87" width="2.97" height="23.64" transform="translate(217.06 840.65) rotate(-88.9)"/><rect id="Rectangle_8790" data-name="Rectangle 8790" class="cls-10" x="535.36" y="297.34" width="3.26" height="25.95" transform="translate(216.42 841.25) rotate(-88.9)"/><g id="Group_14600" data-name="Group 14600" class="cls-11"><path id="Path_198991" data-name="Path 198991" class="cls-12" d="M524.27,311.7l5.18.1,2.34-3.22-5.17-.1Z"/><path id="Path_198992" data-name="Path 198992" class="cls-12" d="M536.35,308.66l-1.93,0-2.35,3.22,1.93,0Z"/><path id="Path_198993" data-name="Path 198993" class="cls-12" d="M550,309.86l-1.67,2.29,1.63,0Z"/><path id="Path_198994" data-name="Path 198994" class="cls-12" d="M546.54,308.86l-5.17-.1L539,312l5.18.1Z"/></g><rect id="Rectangle_8791" data-name="Rectangle 8791" class="cls-9" x="535.58" y="289.36" width="2.97" height="23.64" transform="translate(184.48 805.98) rotate(-84.35)"/><rect id="Rectangle_8792" data-name="Rectangle 8792" class="cls-10" x="536.62" y="287.44" width="3.27" height="26.08" transform="translate(185.71 806.16) rotate(-84.29)"/><g id="Group_14601" data-name="Group 14601" class="cls-11"><path id="Path_198995" data-name="Path 198995" class="cls-12" d="M524.22,302.15l5.15.51,2.58-3-5.14-.51Z"/><path id="Path_198996" data-name="Path 198996" class="cls-12" d="M536.49,300.09l-1.92-.19-2.6,3,1.92.19Z"/><path id="Path_198997" data-name="Path 198997" class="cls-12" d="M550,302.36l-1.85,2.15,1.62.16Z"/><path id="Path_198998" data-name="Path 198998" class="cls-12" d="M546.64,301.1l-5.15-.52-2.59,3,5.14.51Z"/></g><path id="Path_198999" data-name="Path 198999" class="cls-10" d="M553.05,289.56a11.1,11.1,0,1,1-1.72-8.34A11.11,11.11,0,0,1,553.05,289.56Z"/><path id="Path_199000" data-name="Path 199000" class="cls-10" d="M553.05,289.56a11.1,11.1,0,1,1-1.72-8.34A11.11,11.11,0,0,1,553.05,289.56Z"/><path id="Path_199001" data-name="Path 199001" class="cls-9" d="M551.32,289.22a9.35,9.35,0,1,1-7.42-10.94h0A9.35,9.35,0,0,1,551.32,289.22Z"/><g id="_" data-name=" " class="cls-13"><text class="cls-14" transform="matrix(0.98, 0.19, -0.19, 0.98, 537.55, 288.7)">$</text></g><path id="Path_199002" data-name="Path 199002" class="cls-15" d="M550.66,286.05a8.1,8.1,0,1,1-1.25-6.1A8.1,8.1,0,0,1,550.66,286.05Z"/><path id="Path_199003" data-name="Path 199003" class="cls-15" d="M538.49,290.06a1.7,1.7,0,1,1-1.34-2,1.7,1.7,0,0,1,1.34,2Z"/><g id="Group_15549" data-name="Group 15549"><path id="Path_199004" data-name="Path 199004" class="cls-10" d="M546.66,249.05a11.1,11.1,0,1,1-13.07-8.71h0A11.11,11.11,0,0,1,546.66,249.05Z"/><path id="Path_199005" data-name="Path 199005" class="cls-10" d="M546.66,249.05a11.1,11.1,0,1,1-13.07-8.71h0A11.11,11.11,0,0,1,546.66,249.05Z"/><path id="Path_199006" data-name="Path 199006" class="cls-9" d="M545,249.39a9.36,9.36,0,1,1-4-5.95A9.35,9.35,0,0,1,545,249.39Z"/><g id="_2" data-name=" 2" class="cls-13"><text class="cls-16" transform="matrix(0.98, -0.2, 0.2, 0.98, 532.01, 254.12)">$</text></g><path id="Path_199007" data-name="Path 199007" class="cls-15" d="M543.15,246.68a8.1,8.1,0,1,1-3.46-5.15A8.11,8.11,0,0,1,543.15,246.68Z"/><path id="Path_199008" data-name="Path 199008" class="cls-15" d="M533.42,255a1.7,1.7,0,1,1-2-1.33h0A1.7,1.7,0,0,1,533.42,255Z"/></g><path id="Path_199009" data-name="Path 199009" class="cls-10" d="M537.24,311.82a11.11,11.11,0,1,1-14.11-6.9,11.12,11.12,0,0,1,14.11,6.9Z"/><path id="Path_199010" data-name="Path 199010" class="cls-10" d="M537.24,311.82a11.11,11.11,0,1,1-14.11-6.9,11.12,11.12,0,0,1,14.11,6.9Z"/><path id="Path_199011" data-name="Path 199011" class="cls-9" d="M535.58,312.39a9.35,9.35,0,1,1-11.88-5.81,9.36,9.36,0,0,1,11.88,5.81Z"/><g id="_3" data-name=" 3" class="cls-13"><text class="cls-16" transform="translate(523.37 318.78) rotate(-18.91)">$</text></g><path id="Path_199012" data-name="Path 199012" class="cls-15" d="M533.42,310a8.09,8.09,0,1,1-10.29-5,8.09,8.09,0,0,1,10.29,5Z"/><path id="Path_199013" data-name="Path 199013" class="cls-15" d="M524.87,319.51a1.7,1.7,0,1,1-2.16-1.06,1.68,1.68,0,0,1,1.3.08A1.73,1.73,0,0,1,524.87,319.51Z"/><path id="Path_199014" data-name="Path 199014" class="cls-17" d="M536.32,327.6c-11.43,0-19.74-.33-21.46-.82-9-9-11.3-46.1-10.42-53.7.72-6.13,10.5-10.48,12.19-11.19H556c1.7.71,11.47,5.06,12.19,11.19.88,7.6-1.44,44.67-10.41,53.7C556.07,327.26,547.75,327.6,536.32,327.6Z"/><path id="Path_199015" data-name="Path 199015" class="cls-18" d="M513,254.81l2.7,5.94h40.83l3-5.94Z"/><path id="Path_199016" data-name="Path 199016" class="cls-19" d="M524.13,265.4H513.42c-7.47,4.83-6.94,9.71-6.94,9.71,0,27,9.16,46,9.16,46s-1.68-22-1.68-34.8C513.92,277.15,520.47,269.15,524.13,265.4Z"/><path id="Path_199017" data-name="Path 199017" class="cls-19" d="M559.58,265.64h-5.82c7.19,2,13.77,13.18,13.77,13.18A15.15,15.15,0,0,0,559.58,265.64Z"/><path id="Path_199018" data-name="Path 199018" class="cls-20" d="M514.76,258.59l1,2.16h40.83l1.1-2.16Z"/></g><g id="Group_14811" data-name="Group 14811"><g id="Group_12850" data-name="Group 12850"><path id="Path_197850" data-name="Path 197850" class="cls-21" d="M105,303v7.48c0,2.55,11.64,4.69,26,4.69s26-2.1,26-4.69V303Z"/></g><g id="Group_12853" data-name="Group 12853"><g class="cls-22"><g id="Group_14602" data-name="Group 14602"><g id="Group_12852" data-name="Group 12852"><rect id="Rectangle_7926" data-name="Rectangle 7926" class="cls-23" x="105.53" y="299.85" width="1.24" height="17.15"/><rect id="Rectangle_7927" data-name="Rectangle 7927" class="cls-23" x="108.73" y="299.85" width="1.24" height="17.15"/><rect id="Rectangle_7928" data-name="Rectangle 7928" class="cls-23" x="112.37" y="299.85" width="1.24" height="17.15"/><rect id="Rectangle_7929" data-name="Rectangle 7929" class="cls-23" x="116.92" y="299.85" width="1.24" height="17.15"/><rect id="Rectangle_7930" data-name="Rectangle 7930" class="cls-23" x="121.92" y="299.85" width="1.24" height="17.15"/><rect id="Rectangle_7931" data-name="Rectangle 7931" class="cls-23" x="127.37" y="299.85" width="1.24" height="17.15"/><rect id="Rectangle_7932" data-name="Rectangle 7932" class="cls-23" x="155.19" y="299.85" width="1.24" height="17.15"/><rect id="Rectangle_7933" data-name="Rectangle 7933" class="cls-23" x="151.99" y="299.85" width="1.24" height="17.15"/><rect id="Rectangle_7934" data-name="Rectangle 7934" class="cls-23" x="148.35" y="299.85" width="1.24" height="17.15"/><rect id="Rectangle_7935" data-name="Rectangle 7935" class="cls-23" x="143.79" y="299.85" width="1.24" height="17.15"/><rect id="Rectangle_7936" data-name="Rectangle 7936" class="cls-23" x="138.8" y="299.85" width="1.24" height="17.15"/><rect id="Rectangle_7937" data-name="Rectangle 7937" class="cls-23" x="133.35" y="299.85" width="1.24" height="17.15"/></g></g></g></g><g id="Group_12854" data-name="Group 12854"><path id="Path_197852" data-name="Path 197852" class="cls-24" d="M157,302.81c0,2.55-11.65,4.7-26,4.7s-26-2.1-26-4.7,11.64-4.7,26-4.7,26,2.11,26,4.7"/><path id="Path_197853" data-name="Path 197853" class="cls-25" d="M151.65,302.32c0,1.21-9.26,2.18-20.68,2.18s-20.68-1-20.68-2.18,9.26-2.18,20.68-2.18,20.68,1,20.68,2.18"/><path id="Path_197854" data-name="Path 197854" class="cls-26" d="M111.18,303c2.55-.9,10.47-1.55,19.79-1.55s17.21.65,19.78,1.55c.59-.2.9-.41.9-.64,0-1.2-9.26-2.18-20.68-2.18s-20.68,1-20.68,2.18c0,.23.32.43.89.64"/><path id="Path_197855" data-name="Path 197855" class="cls-21" d="M107.1,294.44v7.48c0,2.55,11.65,4.69,26,4.69s26-2.1,26-4.69v-7.48Z"/></g><g id="Group_12857" data-name="Group 12857"><g class="cls-27"><g id="Group_14603" data-name="Group 14603"><g id="Group_12856" data-name="Group 12856"><rect id="Rectangle_7939" data-name="Rectangle 7939" class="cls-23" x="107.67" y="291.34" width="1.24" height="17.15"/><rect id="Rectangle_7940" data-name="Rectangle 7940" class="cls-23" x="110.87" y="291.34" width="1.24" height="17.15"/><rect id="Rectangle_7941" data-name="Rectangle 7941" class="cls-23" x="114.51" y="291.34" width="1.24" height="17.15"/><rect id="Rectangle_7942" data-name="Rectangle 7942" class="cls-23" x="119.05" y="291.34" width="1.24" height="17.15"/><rect id="Rectangle_7943" data-name="Rectangle 7943" class="cls-23" x="124.06" y="291.34" width="1.24" height="17.15"/><rect id="Rectangle_7944" data-name="Rectangle 7944" class="cls-23" x="129.51" y="291.34" width="1.24" height="17.15"/><rect id="Rectangle_7945" data-name="Rectangle 7945" class="cls-23" x="157.31" y="291.34" width="1.24" height="17.15"/><rect id="Rectangle_7946" data-name="Rectangle 7946" class="cls-23" x="154.13" y="291.34" width="1.24" height="17.15"/><rect id="Rectangle_7947" data-name="Rectangle 7947" class="cls-23" x="150.48" y="291.34" width="1.24" height="17.15"/><rect id="Rectangle_7948" data-name="Rectangle 7948" class="cls-23" x="145.93" y="291.34" width="1.24" height="17.15"/><rect id="Rectangle_7949" data-name="Rectangle 7949" class="cls-23" x="140.93" y="291.34" width="1.24" height="17.15"/><rect id="Rectangle_7950" data-name="Rectangle 7950" class="cls-23" x="135.48" y="291.34" width="1.24" height="17.15"/></g></g></g></g><g id="Group_12858" data-name="Group 12858"><path id="Path_197857" data-name="Path 197857" class="cls-24" d="M159.12,294.31c0,2.55-11.65,4.7-26,4.7s-26-2.1-26-4.7,11.63-4.7,26-4.7,26,2.1,26,4.7"/><path id="Path_197858" data-name="Path 197858" class="cls-25" d="M153.78,293.81c0,1.27-9.25,2.18-20.67,2.18s-20.68-1-20.68-2.18,9.26-2.18,20.68-2.18,20.68,1,20.68,2.18"/><path id="Path_197859" data-name="Path 197859" class="cls-26" d="M113.32,294.43c2.55-.89,10.46-1.54,19.79-1.54s17.21.65,19.78,1.54c.58-.2.89-.42.89-.63,0-1.2-9.25-2.18-20.67-2.18s-20.68,1-20.68,2.18c0,.21.32.43.89.63"/><path id="Path_197860" data-name="Path 197860" class="cls-21" d="M102.55,285.13v7.49c0,2.54,11.65,4.7,26,4.7s26-2.1,26-4.7v-7.49Z"/></g><g id="Group_12861" data-name="Group 12861"><g class="cls-28"><g id="Group_14604" data-name="Group 14604"><g id="Group_12860" data-name="Group 12860"><rect id="Rectangle_7952" data-name="Rectangle 7952" class="cls-23" x="103.12" y="282.02" width="1.24" height="17.15"/><rect id="Rectangle_7953" data-name="Rectangle 7953" class="cls-23" x="106.32" y="282.02" width="1.24" height="17.15"/><rect id="Rectangle_7954" data-name="Rectangle 7954" class="cls-23" x="109.96" y="282.02" width="1.24" height="17.15"/><rect id="Rectangle_7955" data-name="Rectangle 7955" class="cls-23" x="114.52" y="282.02" width="1.24" height="17.15"/><rect id="Rectangle_7956" data-name="Rectangle 7956" class="cls-23" x="119.51" y="282.02" width="1.24" height="17.15"/><rect id="Rectangle_7957" data-name="Rectangle 7957" class="cls-23" x="124.96" y="282.02" width="1.24" height="17.15"/><rect id="Rectangle_7958" data-name="Rectangle 7958" class="cls-23" x="152.78" y="282.02" width="1.24" height="17.15"/><rect id="Rectangle_7959" data-name="Rectangle 7959" class="cls-23" x="149.58" y="282.02" width="1.24" height="17.15"/><rect id="Rectangle_7960" data-name="Rectangle 7960" class="cls-23" x="145.93" y="282.02" width="1.24" height="17.15"/><rect id="Rectangle_7961" data-name="Rectangle 7961" class="cls-23" x="141.38" y="282.02" width="1.24" height="17.15"/><rect id="Rectangle_7962" data-name="Rectangle 7962" class="cls-23" x="136.39" y="282.02" width="1.24" height="17.15"/><rect id="Rectangle_7963" data-name="Rectangle 7963" class="cls-23" x="130.93" y="282.02" width="1.24" height="17.15"/></g></g></g></g><g id="Group_12862" data-name="Group 12862"><path id="Path_197862" data-name="Path 197862" class="cls-24" d="M154.57,285c0,2.55-11.65,4.69-26,4.69s-26-2.1-26-4.69,11.64-4.7,26-4.7,26,2.1,26,4.7"/><path id="Path_197863" data-name="Path 197863" class="cls-25" d="M149.2,284.51c0,1.2-9.25,2.17-20.68,2.17s-20.67-1-20.67-2.17,9.25-2.18,20.67-2.18,20.68,1,20.68,2.18"/><path id="Path_197864" data-name="Path 197864" class="cls-26" d="M108.78,285.13c2.54-.89,10.46-1.54,19.78-1.54s17.22.65,19.79,1.54c.57-.19.89-.41.89-.62,0-1.21-9.26-2.18-20.68-2.18s-20.67,1-20.67,2.18c0,.21.31.43.89.62"/><path id="Path_197865" data-name="Path 197865" class="cls-21" d="M105,276.61v7.49c0,2.54,11.64,4.7,26,4.7s26-2.1,26-4.7v-7.49Z"/></g><g id="Group_12865" data-name="Group 12865"><g class="cls-29"><g id="Group_14605" data-name="Group 14605"><g id="Group_12864" data-name="Group 12864"><rect id="Rectangle_7965" data-name="Rectangle 7965" class="cls-23" x="105.53" y="273.52" width="1.24" height="17.15"/><rect id="Rectangle_7966" data-name="Rectangle 7966" class="cls-23" x="108.73" y="273.52" width="1.24" height="17.15"/><rect id="Rectangle_7967" data-name="Rectangle 7967" class="cls-23" x="112.37" y="273.52" width="1.24" height="17.15"/><rect id="Rectangle_7968" data-name="Rectangle 7968" class="cls-23" x="116.92" y="273.52" width="1.24" height="17.15"/><rect id="Rectangle_7969" data-name="Rectangle 7969" class="cls-23" x="121.92" y="273.52" width="1.24" height="17.15"/><rect id="Rectangle_7970" data-name="Rectangle 7970" class="cls-23" x="127.37" y="273.52" width="1.24" height="17.15"/><rect id="Rectangle_7971" data-name="Rectangle 7971" class="cls-23" x="155.19" y="273.52" width="1.24" height="17.15"/><rect id="Rectangle_7972" data-name="Rectangle 7972" class="cls-23" x="151.99" y="273.52" width="1.24" height="17.15"/><rect id="Rectangle_7973" data-name="Rectangle 7973" class="cls-23" x="148.35" y="273.52" width="1.24" height="17.15"/><rect id="Rectangle_7974" data-name="Rectangle 7974" class="cls-23" x="143.79" y="273.52" width="1.24" height="17.15"/><rect id="Rectangle_7975" data-name="Rectangle 7975" class="cls-23" x="138.8" y="273.52" width="1.24" height="17.15"/><rect id="Rectangle_7976" data-name="Rectangle 7976" class="cls-23" x="133.35" y="273.52" width="1.24" height="17.15"/></g></g></g></g><g id="Group_12866" data-name="Group 12866"><path id="Path_197867" data-name="Path 197867" class="cls-24" d="M157,276.5c0,2.54-11.65,4.68-26,4.68s-26-2.1-26-4.68,11.64-4.7,26-4.7,26,2.1,26,4.7"/><path id="Path_197868" data-name="Path 197868" class="cls-25" d="M151.65,276c0,1.2-9.26,2.18-20.68,2.18s-20.68-1-20.68-2.18,9.26-2.18,20.68-2.18,20.68,1,20.68,2.18"/><path id="Path_197869" data-name="Path 197869" class="cls-26" d="M111.18,276.61c2.55-.89,10.47-1.54,19.79-1.54s17.21.65,19.78,1.54c.59-.19.9-.41.9-.62,0-1.28-9.26-2.18-20.68-2.18s-20.68,1-20.68,2.18c0,.21.32.43.89.62"/><path id="Path_197870" data-name="Path 197870" class="cls-21" d="M106.08,268.12v7.49c0,2.54,11.63,4.7,26,4.7s26-2.1,26-4.7v-7.49Z"/></g><g id="Group_12869" data-name="Group 12869"><g class="cls-30"><g id="Group_14606" data-name="Group 14606"><g id="Group_12868" data-name="Group 12868"><rect id="Rectangle_7978" data-name="Rectangle 7978" class="cls-23" x="106.65" y="265.01" width="1.24" height="17.15"/><rect id="Rectangle_7979" data-name="Rectangle 7979" class="cls-23" x="109.83" y="265.01" width="1.24" height="17.15"/><rect id="Rectangle_7980" data-name="Rectangle 7980" class="cls-23" x="113.49" y="265.01" width="1.24" height="17.15"/><rect id="Rectangle_7981" data-name="Rectangle 7981" class="cls-23" x="118.03" y="265.01" width="1.24" height="17.15"/><rect id="Rectangle_7982" data-name="Rectangle 7982" class="cls-23" x="123.02" y="265.01" width="1.24" height="17.15"/><rect id="Rectangle_7983" data-name="Rectangle 7983" class="cls-23" x="128.49" y="265.01" width="1.24" height="17.15"/><rect id="Rectangle_7984" data-name="Rectangle 7984" class="cls-23" x="156.29" y="265.01" width="1.24" height="17.15"/><rect id="Rectangle_7985" data-name="Rectangle 7985" class="cls-23" x="153.1" y="265.01" width="1.24" height="17.15"/><rect id="Rectangle_7986" data-name="Rectangle 7986" class="cls-23" x="149.46" y="265.01" width="1.24" height="17.15"/><rect id="Rectangle_7987" data-name="Rectangle 7987" class="cls-23" x="144.91" y="265.01" width="1.24" height="17.15"/><rect id="Rectangle_7988" data-name="Rectangle 7988" class="cls-23" x="139.91" y="265.01" width="1.24" height="17.15"/><rect id="Rectangle_7989" data-name="Rectangle 7989" class="cls-23" x="134.46" y="265.01" width="1.24" height="17.15"/></g></g></g></g><g id="Group_12870" data-name="Group 12870"><path id="Path_197872" data-name="Path 197872" class="cls-24" d="M158.11,268c0,2.55-11.63,4.7-26,4.7s-26-2.1-26-4.7,11.65-4.69,26-4.69,26,2.1,26,4.69"/><path id="Path_197873" data-name="Path 197873" class="cls-25" d="M152.75,267.5c0,1.19-9.25,2.16-20.66,2.16s-20.68-1-20.68-2.16,9.26-2.18,20.68-2.18,20.67,1,20.67,2.18"/><path id="Path_197874" data-name="Path 197874" class="cls-26" d="M112.28,268.12c2.54-.89,10.45-1.54,19.78-1.54s17.2.65,19.78,1.54c.58-.19.89-.41.89-.62,0-1.28-9.26-2.18-20.67-2.18s-20.67,1-20.67,2.18c0,.21.3.43.89.62"/></g><g id="Group_12850-2" data-name="Group 12850-2"><path id="Path_197850-2" data-name="Path 197850-2" class="cls-21" d="M110.34,263.39v7.49c0,2.55,11.65,4.7,26,4.7s26-2.1,26-4.7v-7.49Z"/></g><g id="Group_12853-2" data-name="Group 12853-2"><g class="cls-31"><g id="Group_14607" data-name="Group 14607"><g id="Group_12852-2" data-name="Group 12852-2"><rect id="Rectangle_7926-2" data-name="Rectangle 7926-2" class="cls-23" x="110.92" y="260.29" width="1.24" height="17.15"/><rect id="Rectangle_7927-2" data-name="Rectangle 7927-2" class="cls-23" x="114.11" y="260.29" width="1.24" height="17.15"/><rect id="Rectangle_7928-2" data-name="Rectangle 7928-2" class="cls-23" x="117.75" y="260.29" width="1.24" height="17.15"/><rect id="Rectangle_7929-2" data-name="Rectangle 7929-2" class="cls-23" x="122.3" y="260.29" width="1.24" height="17.15"/><rect id="Rectangle_7930-2" data-name="Rectangle 7930-2" class="cls-23" x="127.3" y="260.29" width="1.24" height="17.15"/><rect id="Rectangle_7931-2" data-name="Rectangle 7931-2" class="cls-23" x="132.75" y="260.29" width="1.24" height="17.15"/><rect id="Rectangle_7932-2" data-name="Rectangle 7932-2" class="cls-23" x="160.56" y="260.29" width="1.24" height="17.15"/><rect id="Rectangle_7933-2" data-name="Rectangle 7933-2" class="cls-23" x="157.38" y="260.29" width="1.24" height="17.15"/><rect id="Rectangle_7934-2" data-name="Rectangle 7934-2" class="cls-23" x="153.72" y="260.29" width="1.24" height="17.15"/><rect id="Rectangle_7935-2" data-name="Rectangle 7935-2" class="cls-23" x="149.18" y="260.29" width="1.24" height="17.15"/><rect id="Rectangle_7936-2" data-name="Rectangle 7936-2" class="cls-23" x="144.17" y="260.29" width="1.24" height="17.15"/><rect id="Rectangle_7937-2" data-name="Rectangle 7937-2" class="cls-23" x="138.72" y="260.29" width="1.24" height="17.15"/></g></g></g></g><g id="Group_12854-2" data-name="Group 12854-2"><path id="Path_197852-2" data-name="Path 197852-2" class="cls-24" d="M162.36,263.26c0,2.54-11.65,4.7-26,4.7s-26-2.1-26-4.7,11.65-4.69,26-4.69,26,2.1,26,4.69"/><path id="Path_197853-2" data-name="Path 197853-2" class="cls-25" d="M157,262.77c0,1.2-9.25,2.17-20.68,2.17s-20.67-1-20.67-2.17,9.25-2.17,20.67-2.17,20.68,1,20.68,2.17"/><path id="Path_197854-2" data-name="Path 197854-2" class="cls-26" d="M116.57,263.39c2.54-.89,10.45-1.54,19.78-1.54s17.22.65,19.79,1.54c.57-.19.89-.4.89-.62,0-1.21-9.25-2.18-20.68-2.18s-20.67,1-20.67,2.18c0,.22.32.43.89.62"/><path id="Path_197855-2" data-name="Path 197855-2" class="cls-21" d="M112.48,254.89v7.49c0,2.54,11.65,4.7,26,4.7s26-2.12,26-4.7v-7.49Z"/></g><g id="Group_12857-2" data-name="Group 12857-2"><g class="cls-32"><g id="Group_14608" data-name="Group 14608"><g id="Group_12856-2" data-name="Group 12856-2"><rect id="Rectangle_7939-2" data-name="Rectangle 7939-2" class="cls-23" x="113.05" y="251.78" width="1.24" height="17.15"/><rect id="Rectangle_7940-2" data-name="Rectangle 7940-2" class="cls-23" x="116.25" y="251.78" width="1.24" height="17.15"/><rect id="Rectangle_7941-2" data-name="Rectangle 7941-2" class="cls-23" x="119.89" y="251.78" width="1.24" height="17.15"/><rect id="Rectangle_7942-2" data-name="Rectangle 7942-2" class="cls-23" x="124.44" y="251.78" width="1.24" height="17.15"/><rect id="Rectangle_7943-2" data-name="Rectangle 7943-2" class="cls-23" x="129.44" y="251.78" width="1.24" height="17.15"/><rect id="Rectangle_7944-2" data-name="Rectangle 7944-2" class="cls-23" x="134.89" y="251.78" width="1.24" height="17.15"/><rect id="Rectangle_7945-2" data-name="Rectangle 7945-2" class="cls-23" x="162.7" y="251.78" width="1.24" height="17.15"/><rect id="Rectangle_7946-2" data-name="Rectangle 7946-2" class="cls-23" x="159.5" y="251.78" width="1.24" height="17.15"/><rect id="Rectangle_7947-2" data-name="Rectangle 7947-2" class="cls-23" x="155.86" y="251.78" width="1.24" height="17.15"/><rect id="Rectangle_7948-2" data-name="Rectangle 7948-2" class="cls-23" x="151.32" y="251.78" width="1.24" height="17.15"/><rect id="Rectangle_7949-2" data-name="Rectangle 7949-2" class="cls-23" x="146.31" y="251.78" width="1.24" height="17.15"/><rect id="Rectangle_7950-2" data-name="Rectangle 7950-2" class="cls-23" x="140.86" y="251.78" width="1.24" height="17.15"/></g></g></g></g><g id="Group_12858-2" data-name="Group 12858-2"><path id="Path_197857-2" data-name="Path 197857-2" class="cls-24" d="M164.48,254.75c0,2.55-11.64,4.7-26,4.7s-26-2.1-26-4.7,11.65-4.7,26-4.7,26,2.11,26,4.7"/><path id="Path_197858-2" data-name="Path 197858-2" class="cls-25" d="M159.17,254.27c0,1.2-9.26,2.16-20.68,2.16s-20.68-1-20.68-2.16,9.26-2.18,20.68-2.18,20.68,1,20.68,2.18"/><path id="Path_197859-2" data-name="Path 197859-2" class="cls-26" d="M118.71,254.89c2.54-.89,10.45-1.54,19.78-1.54s17.2.65,19.79,1.54c.57-.19.89-.41.89-.62,0-1.21-9.25-2.18-20.68-2.18s-20.67,1-20.67,2.18c0,.21.3.43.89.62"/><path id="Path_197860-2" data-name="Path 197860-2" class="cls-21" d="M107.94,245.58v7.47c0,2.55,11.65,4.7,26,4.7s26-2.1,26-4.7v-7.47Z"/></g><g id="Group_12861-2" data-name="Group 12861-2"><g class="cls-33"><g id="Group_14609" data-name="Group 14609"><g id="Group_12860-2" data-name="Group 12860-2"><rect id="Rectangle_7952-2" data-name="Rectangle 7952-2" class="cls-23" x="108.51" y="242.48" width="1.24" height="17.15"/><rect id="Rectangle_7953-2" data-name="Rectangle 7953-2" class="cls-23" x="111.71" y="242.48" width="1.24" height="17.15"/><rect id="Rectangle_7954-2" data-name="Rectangle 7954-2" class="cls-23" x="115.35" y="242.48" width="1.24" height="17.15"/><rect id="Rectangle_7955-2" data-name="Rectangle 7955-2" class="cls-23" x="119.89" y="242.48" width="1.24" height="17.15"/><rect id="Rectangle_7956-2" data-name="Rectangle 7956-2" class="cls-23" x="124.9" y="242.48" width="1.24" height="17.15"/><rect id="Rectangle_7957-2" data-name="Rectangle 7957-2" class="cls-23" x="130.35" y="242.48" width="1.24" height="17.15"/><rect id="Rectangle_7958-2" data-name="Rectangle 7958-2" class="cls-23" x="158.15" y="242.48" width="1.24" height="17.15"/><rect id="Rectangle_7959-2" data-name="Rectangle 7959-2" class="cls-23" x="154.96" y="242.48" width="1.24" height="17.15"/><rect id="Rectangle_7960-2" data-name="Rectangle 7960-2" class="cls-23" x="151.32" y="242.48" width="1.24" height="17.15"/><rect id="Rectangle_7961-2" data-name="Rectangle 7961-2" class="cls-23" x="146.77" y="242.48" width="1.24" height="17.15"/><rect id="Rectangle_7962-2" data-name="Rectangle 7962-2" class="cls-23" x="141.77" y="242.48" width="1.24" height="17.15"/><rect id="Rectangle_7963-2" data-name="Rectangle 7963-2" class="cls-23" x="136.32" y="242.48" width="1.24" height="17.15"/></g></g></g></g><g id="Group_12862-2" data-name="Group 12862-2"><path id="Path_197862-2" data-name="Path 197862-2" class="cls-24" d="M160,245.44c0,2.55-11.65,4.7-26,4.7s-26-2.1-26-4.7,11.65-4.7,26-4.7,26,2.1,26,4.7"/><path id="Path_197863-2" data-name="Path 197863-2" class="cls-25" d="M154.63,245c0,1.27-9.26,2.18-20.68,2.18s-20.68-1-20.68-2.18,9.26-2.18,20.68-2.18,20.68,1,20.68,2.18"/><path id="Path_197864-2" data-name="Path 197864-2" class="cls-26" d="M114.16,245.58c2.55-.89,10.46-1.55,19.79-1.55s17.21.66,19.78,1.55c.58-.2.9-.42.9-.63,0-1.21-9.26-2.18-20.68-2.18s-20.68,1-20.68,2.18c0,.21.32.43.89.64"/><path id="Path_197865-2" data-name="Path 197865-2" class="cls-21" d="M110.34,237.14v7.47c0,2.55,11.65,4.7,26,4.7s26-2.1,26-4.7v-7.47Z"/></g><g id="Group_12865-2" data-name="Group 12865-2"><g class="cls-34"><g id="Group_14610" data-name="Group 14610"><g id="Group_12864-2" data-name="Group 12864-2"><rect id="Rectangle_7965-2" data-name="Rectangle 7965-2" class="cls-23" x="110.92" y="233.97" width="1.24" height="17.15"/><rect id="Rectangle_7966-2" data-name="Rectangle 7966-2" class="cls-23" x="114.11" y="233.97" width="1.24" height="17.15"/><rect id="Rectangle_7967-2" data-name="Rectangle 7967-2" class="cls-23" x="117.75" y="233.97" width="1.24" height="17.15"/><rect id="Rectangle_7968-2" data-name="Rectangle 7968-2" class="cls-23" x="122.3" y="233.97" width="1.24" height="17.15"/><rect id="Rectangle_7969-2" data-name="Rectangle 7969-2" class="cls-23" x="127.3" y="233.97" width="1.24" height="17.15"/><rect id="Rectangle_7970-2" data-name="Rectangle 7970-2" class="cls-23" x="132.75" y="233.97" width="1.24" height="17.15"/><rect id="Rectangle_7971-2" data-name="Rectangle 7971-2" class="cls-23" x="160.56" y="233.97" width="1.24" height="17.15"/><rect id="Rectangle_7972-2" data-name="Rectangle 7972-2" class="cls-23" x="157.38" y="233.97" width="1.24" height="17.15"/><rect id="Rectangle_7973-2" data-name="Rectangle 7973-2" class="cls-23" x="153.72" y="233.97" width="1.24" height="17.15"/><rect id="Rectangle_7974-2" data-name="Rectangle 7974-2" class="cls-23" x="149.18" y="233.97" width="1.24" height="17.15"/><rect id="Rectangle_7975-2" data-name="Rectangle 7975-2" class="cls-23" x="144.17" y="233.97" width="1.24" height="17.15"/><rect id="Rectangle_7976-2" data-name="Rectangle 7976-2" class="cls-23" x="138.72" y="233.97" width="1.24" height="17.15"/></g></g></g></g><g id="Group_12866-2" data-name="Group 12866-2"><path id="Path_197867-2" data-name="Path 197867-2" class="cls-24" d="M162.36,236.94c0,2.54-11.65,4.7-26,4.7s-26-2.1-26-4.7,11.65-4.7,26-4.7,26,2.1,26,4.7"/><path id="Path_197868-2" data-name="Path 197868-2" class="cls-25" d="M157,236.44c0,1.27-9.25,2.18-20.68,2.18s-20.67-1-20.67-2.18,9.25-2.18,20.67-2.18,20.68,1,20.68,2.18"/><path id="Path_197869-2" data-name="Path 197869-2" class="cls-26" d="M116.57,237.14c2.54-.9,10.45-1.55,19.78-1.55s17.22.64,19.79,1.55c.57-.2.89-.42.89-.64,0-1.21-9.25-2.18-20.68-2.18s-20.67,1-20.67,2.18c0,.22.32.43.89.64"/><path id="Path_197870-2" data-name="Path 197870-2" class="cls-21" d="M111.46,228.57v7.48c0,2.54,11.64,4.7,26,4.7s26-2.1,26-4.7v-7.48Z"/></g><g id="Group_12869-2" data-name="Group 12869-2"><g class="cls-35"><g id="Group_14611" data-name="Group 14611"><g id="Group_12868-2" data-name="Group 12868-2"><rect id="Rectangle_7978-2" data-name="Rectangle 7978-2" class="cls-23" x="112.02" y="225.47" width="1.24" height="17.15"/><rect id="Rectangle_7979-2" data-name="Rectangle 7979-2" class="cls-23" x="115.22" y="225.47" width="1.24" height="17.15"/><rect id="Rectangle_7980-2" data-name="Rectangle 7980-2" class="cls-23" x="118.86" y="225.47" width="1.24" height="17.15"/><rect id="Rectangle_7981-2" data-name="Rectangle 7981-2" class="cls-23" x="123.41" y="225.47" width="1.24" height="17.15"/><rect id="Rectangle_7982-2" data-name="Rectangle 7982-2" class="cls-23" x="128.41" y="225.47" width="1.24" height="17.15"/><rect id="Rectangle_7983-2" data-name="Rectangle 7983-2" class="cls-23" x="133.86" y="225.47" width="1.24" height="17.15"/><rect id="Rectangle_7984-2" data-name="Rectangle 7984-2" class="cls-23" x="161.67" y="225.47" width="1.24" height="17.15"/><rect id="Rectangle_7985-2" data-name="Rectangle 7985-2" class="cls-23" x="158.48" y="225.47" width="1.24" height="17.15"/><rect id="Rectangle_7986-2" data-name="Rectangle 7986-2" class="cls-23" x="154.83" y="225.47" width="1.24" height="17.15"/><rect id="Rectangle_7987-2" data-name="Rectangle 7987-2" class="cls-23" x="150.29" y="225.47" width="1.24" height="17.15"/><rect id="Rectangle_7988-2" data-name="Rectangle 7988-2" class="cls-23" x="145.29" y="225.47" width="1.24" height="17.15"/><rect id="Rectangle_7989-2" data-name="Rectangle 7989-2" class="cls-23" x="139.83" y="225.47" width="1.24" height="17.15"/></g></g></g></g><g id="Group_12870-2" data-name="Group 12870-2"><path id="Path_197872-2" data-name="Path 197872-2" class="cls-24" d="M163.48,228.43c0,2.55-11.66,4.7-26,4.7s-26-2.11-26-4.7,11.64-4.7,26-4.7,26,2.1,26,4.7"/><path id="Path_197873-2" data-name="Path 197873-2" class="cls-25" d="M158.12,227.94c0,1.2-9.26,2.17-20.68,2.17s-20.68-1-20.68-2.17,9.26-2.18,20.68-2.18,20.68,1,20.68,2.18"/><path id="Path_197874-2" data-name="Path 197874-2" class="cls-26" d="M117.68,228.57c2.54-.89,10.46-1.55,19.78-1.55s17.22.66,19.79,1.55c.58-.2.89-.42.89-.63,0-1.28-9.26-2.18-20.68-2.18s-20.67,1-20.67,2.18c0,.21.31.43.89.63"/></g></g><g id="Group_15548" data-name="Group 15548"><rect id="Rectangle_8793" data-name="Rectangle 8793" class="cls-36" x="429.06" y="186.46" width="94.91" height="57.58" rx="2.28"/><rect id="Rectangle_8794" data-name="Rectangle 8794" class="cls-37" x="429.06" y="191.57" width="94.91" height="12.43"/><path id="Path_199029" data-name="Path 199029" class="cls-38" d="M505.93,233.3a5.48,5.48,0,1,1-5.48-5.48,5.49,5.49,0,0,1,5.48,5.48Z"/><path id="Path_199030" data-name="Path 199030" class="cls-39" d="M514.49,233.3a5.48,5.48,0,1,1-5.48-5.48,5.48,5.48,0,0,1,5.48,5.48Z"/><path id="Path_199031" data-name="Path 199031" class="cls-40" d="M477.35,230.32H437a1.23,1.23,0,0,1-1.23-1.23h0a1.22,1.22,0,0,1,1.22-1.24h40.41a1.22,1.22,0,0,1,1.23,1.23h0a1.23,1.23,0,0,1-1.23,1.23Z"/><path id="Path_199032" data-name="Path 199032" class="cls-40" d="M481.69,234.53H437a1.23,1.23,0,0,1-1.23-1.23h0a1.23,1.23,0,0,1,1.21-1.25h44.76a1.25,1.25,0,0,1,1.25,1.25h0a1.23,1.23,0,0,1-1.23,1.23Z"/><rect id="Rectangle_8795" data-name="Rectangle 8795" class="cls-12" x="434.5" y="212.62" width="51.58" height="8.08"/></g><g id="Group_14810" data-name="Group 14810"><path id="Path_186937" data-name="Path 186937" class="cls-41" d="M480.49,176.73,478.14,175l2.29-3.63Z"/><path id="Path_194761" data-name="Path 194761" class="cls-42" d="M501.63,207.25s-7.39-16.72,1.17-15.34a30.74,30.74,0,0,1,5.92,7.32c2.26,3.72,7,13.57,6.85,16.9S513,222,510.46,227.31c0,0-5.31,9.92-5.48,11.13l-5.63-2.92s4.77-9.5,8.13-17.81Z"/><path id="Path_194762" data-name="Path 194762" class="cls-43" d="M458.85,349.05h-1.37s.47-5.26-.82-5.32-4.49,4.29-6.4,5-11.71,1.23-11.77-.57,3.77-2.52,5-3,7-6.16,8-6.85,2.74-5.35,2.74-5.35l5.48-.24s.32,4.37.65,6.67c.11.72.18,1.44.22,2.16a40.13,40.13,0,0,1-1.69,7.58Z"/><path id="Path_194763" data-name="Path 194763" class="cls-43" d="M494.12,348H493v-4.89c-1,0-4.22,3.15-5.23,4s-2.39.85-6.62,1.12-4.64-2.27-4-3.14,2.83-1.23,4-1.78,5.58-5.56,6.77-6.74a12.46,12.46,0,0,0,1.9-4.59l4.95.43a30.62,30.62,0,0,0,.53,5.73h0c.05.22.11.44.16.65C496.17,341.57,494.12,348,494.12,348Z"/><path id="Path_194764" data-name="Path 194764" class="cls-44" d="M475.8,236.94a51.5,51.5,0,0,0-2,5.48c-.16,1.11-4.55,11.72-5.82,18.85-.77,4.29-2.85,17.68-3,19.37-.29,2.92-1.66,9.35-1.86,12.33-.12,1.67-8.32,27.2-10.29,40.53a24.41,24.41,0,0,0,8.22-.23A139.54,139.54,0,0,0,472.18,300a133.36,133.36,0,0,1,6.4-22.89c1.85-4.86,12.41-18.58,13.51-20.12s8-10.07,1.47-19.3S475.8,236.94,475.8,236.94Z"/><path id="Path_194765" data-name="Path 194765" class="cls-44" d="M499.39,276.16c-.59,4,0,9.2,1.29,23.73S498.49,332,498.49,332a17.4,17.4,0,0,1-9.28,0c.11-1,0-35.43,0-38.5s-.89-6.55-1.11-10.07a70.8,70.8,0,0,0-2.53-11.33c-.37-1.37-.75-2.74-1.14-4h0l-.63-2.16c-1.76-6.12-4.11-29.8-4.11-29.8s13.18-10.62,19.59-.63,3.13,17.26,2.9,18.51S500,272.19,499.39,276.16Z"/><path id="Path_194766" data-name="Path 194766" class="cls-45" d="M493.93,254.81c-.1.23-6.66,14.81-8.36,17.33-.37-1.37-.75-2.74-1.14-4h0S493.71,255.14,493.93,254.81Z"/><path id="Path_194767" data-name="Path 194767" class="cls-46" d="M494.12,348H493v-4.89c-1,0-4.22,3.15-5.23,4s-2.39.85-6.62,1.13-4.64-2.28-4-3.14,2.83-1.23,4-1.78c4.54.25,10.06-6.13,12.72-6.11,1.37,0,1.37.78,1.45.93h0a2.44,2.44,0,0,0,.15.66C496.17,341.57,494.12,348,494.12,348Z"/><path id="Path_194768" data-name="Path 194768" class="cls-46" d="M458.85,349.05h-1.37s.47-5.26-.82-5.32-4.49,4.29-6.4,5-11.71,1.24-11.77-.57,3.77-2.52,5-3c4.05,0,10.62-4.47,12.66-5.37a7.35,7.35,0,0,1,4.25-.36,19.76,19.76,0,0,1,.22,2.16,39.64,39.64,0,0,1-1.73,7.54Z"/><path id="Path_194769" data-name="Path 194769" class="cls-43" d="M487.5,181.36s2.11,5.56.48,9.87c0,0,7.7-.51,8-1.37s-.31-9.24.74-11.7S487.5,181.36,487.5,181.36Z"/><path id="Path_194770" data-name="Path 194770" class="cls-42" d="M486.69,189.33s-4.55,1.63-6.61,2.07-6.36,2.5-6,10.18a163.4,163.4,0,0,0,2.1,17.65,69.45,69.45,0,0,1-.57,15.78,58,58,0,0,0,23.77,0s-2.26-7-2.26-8.8,7.6-16.62,7.94-19,1.88-12.66-1.57-14.95-6.25-2-7.72-3S488.87,188.61,486.69,189.33Z"/><path id="Path_194771" data-name="Path 194771" class="cls-42" d="M504.27,247.08a63.71,63.71,0,0,1-33.51,0,45.41,45.41,0,0,0,3.07-8.22h0a48.47,48.47,0,0,0,1.15-5.48h0a49.92,49.92,0,0,0-.47-17.95c2.17-17.72,29-23,31.13-17.4s-4.11,29.76-4.47,31.84S504.27,247.08,504.27,247.08Z"/><path id="Path_194772" data-name="Path 194772" class="cls-43" d="M494.16,159.08c-3.1-1.05-11.48-2.19-13.62,10.68s2.52,13.08,7.33,12.72,12.33-9,12.89-11.68S503,162.07,494.16,159.08Z"/><path id="Path_194773" data-name="Path 194773" class="cls-47" d="M482.27,164s2.55,5.49,5.9,7.39c0,0,2.11,5.82,6.66,8.22,0,0,12.08-8,5.08-17.52S483.05,160.07,482.27,164Z"/><path id="Path_194774" data-name="Path 194774" class="cls-43" d="M487.89,169.46a1.57,1.57,0,0,1,2.09-.77,1.59,1.59,0,0,1,.8.85c.8,1.83-2.11,5.07-2.9,4.89S486.86,172,487.89,169.46Z"/><path id="Path_194775" data-name="Path 194775" class="cls-47" d="M499.5,163.48c.26-.41,8.22-4.11,9.93,3.62s-6.45,16.75-7.87,20.62.64,12.94.64,12.94-4.88-4.61-6.36-9.43C494.23,185.92,493.68,172.55,499.5,163.48Z"/><path id="Path_194776" data-name="Path 194776" class="cls-48" d="M499.9,172.78a8.07,8.07,0,0,0-2.74,5c-.26-1.3-.07-12.24.52-13.42C498.1,163.55,499,172.69,499.9,172.78Z"/><path id="Path_194777" data-name="Path 194777" class="cls-49" d="M470.55,239.75a48.66,48.66,0,0,0,1.24-6h0s1.37-2.83,1.78-4.11,3.78-17.92,3.78-17.92S480.88,227.25,470.55,239.75Z"/><path id="Path_194778" data-name="Path 194778" class="cls-43" d="M460.1,239.74a18.3,18.3,0,0,1-3.19,2.63c-.78.24-2.27-1.09-7.8-1.5-.49,0-1.37.4-1.14,1a8.48,8.48,0,0,0,3.63,2.66c1,.26,5.89,2.19,8.22,1.25a9.73,9.73,0,0,0,4-4Z"/><path id="Path_194779" data-name="Path 194779" class="cls-42" d="M478.79,191.83s-6.39,2.53-6.77,11.41-.73,13.52-1.07,14.89-1,6.85-2.62,10.21-11.8,13.39-11.8,13.39l5,4.66s14.28-14.32,15.14-16.94,4.44-20.85,4.73-23.92C481.58,203.05,484.84,192,478.79,191.83Z"/><path id="Path_186936" data-name="Path 186936" class="cls-12" d="M486.61,173.33a1.24,1.24,0,1,0,1.26-1.22,1.29,1.29,0,0,0-.89.36A1.17,1.17,0,0,0,486.61,173.33Z"/></g><g id="BANK" class="cls-13"><text class="cls-50" transform="translate(305.2 102.78)">BANK</text></g><g id="Group_14790" data-name="Group 14790"><g id="Group_5762" data-name="Group 5762"><path id="Path_186836" data-name="Path 186836" class="cls-51" d="M145,336.07c-1.09-6.81-2.64-12.77-4.81-12.9-1.72-.1-2.83,3.49-4.25,3.22-2.52-.5-1-12.22-3.88-13.08-1.53-.45-3,4.8-5.2,4.6-1.86-.17-1.78-3.72-5.13-6.8-1.93-1.8-5.54-3.89-7.62-2.71-2.3,1.3-2.63,6.44-.79,10.07,2.83,5.59,10.31,6.6,9.92,8.56-.32,1.68-5.9,1.39-6.35,3.6-.22,1.12,1,2.24,1.32,2.53,4.17,3.82,12.94.41,13.19,1.31.06.21-.4.58-3.25,2.06-4.64,2.4-5.82,2.68-5.81,3.25,0,1.18,4.94,2.78,9.76,2.42C138.26,341.75,142.73,338.25,145,336.07Z"/><path id="Path_186837" data-name="Path 186837" class="cls-52" d="M143.43,336s-10.34-2.52-23.51-19.05"/></g><g id="Group_5766" data-name="Group 5766"><path id="Path_186844" data-name="Path 186844" class="cls-53" d="M159.39,337.32c1.54-9.32,2.14-17.74-.64-18.85-2.19-.87-5.19,3.31-6.91,2.32-3.05-1.75,4-16.31.65-18.66-1.8-1.25-5.92,4.94-8.75,3.7-2.34-1-.7-5.59-3.72-11.05-1.74-3.16-5.51-7.45-8.75-6.82-3.54.67-6.21,7.22-5.41,12.72,1.25,8.51,10.54,13.07,9.19,15.45-1.15,2-8.27-.77-9.81,1.91-.78,1.36.32,3.35.61,3.87,3.76,6.78,16.64,6.16,16.57,7.42,0,.31-.75.58-5.12,1.25-7.07,1.11-8.71.95-9,1.71-.5,1.54,5.22,5.76,11.64,7.39C148.12,341.76,155.45,339.15,159.39,337.32Z"/><path id="Path_186845" data-name="Path 186845" class="cls-54" d="M157.35,336.52s-13.14-7.81-23.33-35.7"/></g></g><g id="Group_14812" data-name="Group 14812"><path id="Path_199033" data-name="Path 199033" class="cls-55" d="M382,331.9a6.48,6.48,0,0,1-7.06,5.84h0l-65-6.59a6.5,6.5,0,0,1-5.74-7.15h0l4.8-47.3a6.49,6.49,0,0,1,7.06-5.85h0l65,6.65a6.47,6.47,0,0,1,5.74,7.12v0Z"/><rect id="Rectangle_8796" data-name="Rectangle 8796" class="cls-56" x="303.81" y="235.25" width="39.83" height="64.91" transform="translate(-67.1 113.68) rotate(-18.08)"/><path id="Path_199034" data-name="Path 199034" class="cls-57" d="M321,298.55,344,291a4.56,4.56,0,0,1,2.85-5.62L332.05,240A4.55,4.55,0,0,1,326.4,237v-.08l-23,7.51v.08a4.53,4.53,0,0,1-2.83,5.7l14.85,45.47A4.53,4.53,0,0,1,321,298.55Z"/><path id="Path_199035" data-name="Path 199035" class="cls-56" d="M316.32,279.86a12.14,12.14,0,1,1,6.07,7.08A12.14,12.14,0,0,1,316.32,279.86Z"/><path id="Path_199036" data-name="Path 199036" class="cls-57" d="M336.11,272.15l.51,1.46-2.1.72a4.12,4.12,0,0,1-2.74,5.07l-1.08-3.18c.82-.28,1.07-.88.75-1.78s-.89-1.25-1.51-1-.68.68-.65,1.57v1.67c.08,2.67-.84,4.33-2.74,5a3.63,3.63,0,0,1-3.18-.25,5.5,5.5,0,0,1-2.15-2.52l-2.28.78-.5-1.46,2.26-.77c-.6-2.62.37-4.71,2.64-5.48l1.08,3.2a1.47,1.47,0,0,0-.77,1.93l.06.13c.3.89,1,1.48,1.73,1.22l.27-.14a2.48,2.48,0,0,0,.36-1.55V275c-.21-3.22,1.49-4.31,2.74-4.74a3.86,3.86,0,0,1,3.07.16,5.18,5.18,0,0,1,2.24,2.43Z"/><path id="Path_199037" data-name="Path 199037" class="cls-58" d="M319,313l37.86-12.33L336.68,239l-1.74.58c-3.22,5.61-12.55,18.53-32.18,23.87Z"/><path id="Path_199038" data-name="Path 199038" class="cls-10" d="M373.81,281.81a16.76,16.76,0,1,1-11.46-20.75h0A16.77,16.77,0,0,1,373.81,281.81Z"/><path id="Path_199039" data-name="Path 199039" class="cls-10" d="M373.81,281.81a16.76,16.76,0,1,1-11.46-20.75h0A16.77,16.77,0,0,1,373.81,281.81Z"/><path id="Path_199040" data-name="Path 199040" class="cls-9" d="M371.26,281.08a14.11,14.11,0,1,1-9.63-17.48h0A14.12,14.12,0,0,1,371.26,281.08Z"/><g id="_4" data-name=" 4" class="cls-13"><text class="cls-59" transform="translate(349.83 280.95) rotate(16.09)">$</text></g><path id="Path_199041" data-name="Path 199041" class="cls-15" d="M370.7,276.13a12.21,12.21,0,1,1-8.4-15.08h.05A12.21,12.21,0,0,1,370.7,276.13Z"/><path id="Path_199042" data-name="Path 199042" class="cls-15" d="M351.87,280.59a2.57,2.57,0,1,1-.22-2A2.55,2.55,0,0,1,351.87,280.59Z"/><rect id="Rectangle_8797" data-name="Rectangle 8797" class="cls-60" x="303.08" y="278" width="84.49" height="64.53" rx="5.07"/><path id="Path_199043" data-name="Path 199043" class="cls-55" d="M387.57,335.58V285a6.84,6.84,0,0,0-3.3-5.9c-8.59,39.36-56.28,42.54-81.18,41.43v15.07a7,7,0,0,0,6.94,7h70.6A7,7,0,0,0,387.57,335.58Z"/><path id="Path_199044" data-name="Path 199044" class="cls-61" d="M310,278a7,7,0,0,0-6.95,7v6.55C320.44,295,351.6,297.78,368,278Z"/><path id="Path_199045" data-name="Path 199045" class="cls-62" d="M378,339.06h-7.48a.28.28,0,0,1-.33-.21.29.29,0,0,1,.21-.33H378a.28.28,0,1,1,.12.54Zm-15,0h-7.48a.28.28,0,0,1-.12-.54H363a.28.28,0,0,1,.33.21.27.27,0,0,1-.2.33Zm-15,0h-7.48a.28.28,0,0,1-.33-.21.29.29,0,0,1,.21-.33H348a.28.28,0,0,1,.33.21.28.28,0,0,1-.21.33Zm-15,0h-7.48a.28.28,0,0,1-.33-.21.28.28,0,0,1,.2-.33h7.62a.28.28,0,0,1,.33.21.28.28,0,0,1-.21.33h-.13Zm-15,0h-7.48a.28.28,0,0,1-.12-.54h7.6a.28.28,0,0,1,.13.54Zm-8,0a3.47,3.47,0,0,1-3.46-3.48v-2.44a.25.25,0,0,1,.24-.27h0a.27.27,0,0,1,.27.27h0v2.44a2.92,2.92,0,0,0,2.92,2.94h0a.28.28,0,0,1,.33.21.28.28,0,0,1-.21.33Zm73.79-3h0a.26.26,0,0,1-.25-.27V328.3a.26.26,0,0,1,.26-.26.26.26,0,0,1,.26.26h0v7.51A.27.27,0,0,1,383.82,336.06Zm-77-10.14a.27.27,0,0,1-.27-.26h0v-7.48a.26.26,0,0,1,.24-.28h0a.27.27,0,0,1,.27.28h0v7.48a.27.27,0,0,1-.27.27Zm77-4.84a.26.26,0,0,1-.26-.26h0v-7.48a.26.26,0,0,1,.26-.26.26.26,0,0,1,.26.26v7.48a.25.25,0,0,1-.24.27Zm-77-10.13a.27.27,0,0,1-.27-.26V303.2a.26.26,0,0,1,.24-.28h0a.27.27,0,0,1,.27.28h0v7.48a.27.27,0,0,1-.27.27Zm77-4.84a.26.26,0,0,1-.26-.26h0v-7.48a.26.26,0,0,1,.26-.26.25.25,0,0,1,.26.26v7.48a.26.26,0,0,1-.24.27Zm-77-10.14a.26.26,0,0,1-.27-.26h0v-7.48a.26.26,0,0,1,.24-.28h0a.28.28,0,0,1,.27.28h0v7.48a.27.27,0,0,1-.27.27Zm77-4.77a.26.26,0,0,1-.26-.26h0V285a2.85,2.85,0,0,0-.35-1.37.28.28,0,0,1,.11-.37.27.27,0,0,1,.35.11,3.38,3.38,0,0,1,.41,1.64v5.9a.25.25,0,0,1-.26.26Zm-74.6-9a.27.27,0,0,1-.25-.29.26.26,0,0,1,.19-.24,3.12,3.12,0,0,1,.86-.11h6.68a.27.27,0,0,1,.27.27h0a.26.26,0,0,1-.26.26H310a3.76,3.76,0,0,0-.74.1Zm67.37-.11h-7.48a.26.26,0,0,1-.28-.25h0a.27.27,0,0,1,.28-.27h7.48a.27.27,0,0,1,.27.27.26.26,0,0,1-.27.19Zm-15,0h-7.48a.26.26,0,0,1-.27-.25h0a.27.27,0,0,1,.27-.27h7.48a.28.28,0,0,1,.28.27.27.27,0,0,1-.28.19Zm-15,0h-7.48a.26.26,0,0,1-.28-.25h0a.28.28,0,0,1,.28-.27h7.48a.27.27,0,0,1,.27.27.26.26,0,0,1-.27.19Zm-15,0h-7.48a.26.26,0,0,1-.27-.25h0a.27.27,0,0,1,.27-.27h7.5a.27.27,0,0,1,.27.27h0a.26.26,0,0,1-.27.19Z"/><path id="Path_199046" data-name="Path 199046" class="cls-63" d="M322.1,310.1a7,7,0,0,1-7,6.94H303c-3.84,0-3.74-3.11-3.74-6.94v-2.33c0-3.84-.1-6.95,3.74-6.95h12.22a7,7,0,0,1,6.95,6.95Z"/><path id="Path_199047" data-name="Path 199047" class="cls-64" d="M319.74,308.9a5.14,5.14,0,1,1-5.13-5.13h0A5.13,5.13,0,0,1,319.74,308.9Z"/><path id="Path_199048" data-name="Path 199048" class="cls-65" d="M319.28,308.1a4.11,4.11,0,1,1-4.11-4.11,4.11,4.11,0,0,1,4.11,4.11Z"/><path id="Path_199049" data-name="Path 199049" class="cls-15" d="M318.2,306.05a1.51,1.51,0,1,1-1.52-1.49h0A1.52,1.52,0,0,1,318.2,306.05Z"/><rect id="Rectangle_8798" data-name="Rectangle 8798" class="cls-65" x="359.99" y="327.78" width="18.58" height="6.41" rx="0.78"/><path id="Path_199050" data-name="Path 199050" class="cls-66" d="M378.57,333.13v-1.95c-2.53.63-11.23,2.27-18.57-2v4a1.06,1.06,0,0,0,1.06,1.07H377.5A1.08,1.08,0,0,0,378.57,333.13Z"/></g><g id="Group_15551" data-name="Group 15551"><path id="Path_199004-2" data-name="Path 199004-2" class="cls-10" d="M276.75,240.54a17.07,17.07,0,1,1-10.7-21.64h0A17.07,17.07,0,0,1,276.75,240.54Z"/><path id="Path_199005-2" data-name="Path 199005-2" class="cls-10" d="M276.75,240.54a17.07,17.07,0,1,1-10.7-21.64h0A17.07,17.07,0,0,1,276.75,240.54Z"/><path id="Path_199006-2" data-name="Path 199006-2" class="cls-9" d="M274.25,239.7a14.39,14.39,0,1,1-.73-11A14.39,14.39,0,0,1,274.25,239.7Z"/><path id="Path_199007-2" data-name="Path 199007-2" class="cls-15" d="M272.18,239.75a12.44,12.44,0,1,1-.64-9.52A12.45,12.45,0,0,1,272.18,239.75Z"/><g id="_5" data-name=" 5" class="cls-13"><text class="cls-67" transform="translate(253.34 239.23) rotate(18.47)">$</text></g></g><g id="Group_14809" data-name="Group 14809"><path id="Path_194812" data-name="Path 194812" class="cls-43" d="M242.43,236.49a2.6,2.6,0,0,0,1.46.55c5.19-.15-1.2-5,4.11-.24,1.37,1.25-1.37,6.7-2.33,7.36s-3.35-.44-5.89-3.37S242.43,236.49,242.43,236.49Z"/><path id="Path_194813" data-name="Path 194813" class="cls-43" d="M247,236a48.53,48.53,0,0,1,5.48,2.13c2.46,1.12,5.34,2.87,5.07,3.49-.41,1-2.62-.75-5.13-1.71s-2-.32-2-.32,0-.16,2.26,1.29,5.12,3.34,4.9,3.86-.36.69-1.37.28c.53.35.51.56.37.79-.69,1.22-4.73-.49-6.33-1.18,1.23.54,2.08,1.06,1.18,1.54s-6.63-2.14-8.73-2.9S247,236,247,236Z"/><path id="Path_194783" data-name="Path 194783" class="cls-68" d="M232.8,241s2.74.94,3.9-.24a9.31,9.31,0,0,1,3.6-1.79c.82-.25,3.06-1.95,3.38-.9s-3.56,3-4.29,3.55,3.32,1.45,3.93,2.19-1.23,7.4-3.94,6.47-5-3.73-5.48-3.8a15.59,15.59,0,0,1-2-.59Z"/><path id="Path_194784" data-name="Path 194784" class="cls-68" d="M243.33,243.24s8.12,3.4,8.48,4.11.13,1.11-.63.83-8-4.43-8-4.43,9,7,9.36,7.51c.23.29-.13,1.14-.55,1s-9.59-5.2-9.59-5.2,8.34,5.28,8.56,5.8a.69.69,0,0,1-.45.86.67.67,0,0,1-.52-.05l-8.67-4.82s5.83,4.23,5.75,4.78c0,.33-.31,1.08-1.78,0s-5.22-3.45-5.22-3.45Z"/><path id="Path_194785" data-name="Path 194785" class="cls-69" d="M196.21,201.55s11.07,16.58,17.39,22.69c2,1.92,21.78,15.36,22.53,16.13s-1.94,7.37-1.94,7.37-25.32-14.68-26.8-15.58-19.84-21.92-20.73-24.88-.58-6.37,2.4-7.73C193.22,197.64,196.21,201.55,196.21,201.55Z"/><path id="Path_194793" data-name="Path 194793" class="cls-70" d="M156.86,338s1.08.46,2.68,1.31a14.11,14.11,0,0,0,5.72,1.95c2.29.16,4.67,1,4.52,3.16s-7.49,2.85-14.37,1.66-7-1.37-7-1.9a35.39,35.39,0,0,1,.75-6.15C149.49,337.84,156.86,338,156.86,338Z"/><path id="Path_194795" data-name="Path 194795" class="cls-71" d="M192.57,270.47c-.76-7.69-26.36-24.36-27.59-17.07s9.33,24,10,29.45.11,6.85-4,11.62S149.38,334,149.38,334c.51,2.64,9.59,3.48,9.9,2.89s24.89-33.16,26.22-34.4,6.2-6.78,6.94-9.51a59.43,59.43,0,0,0,.8-14.65S192.66,271.1,192.57,270.47Z"/><path id="Path_194796" data-name="Path 194796" class="cls-70" d="M206.25,337.71a11.52,11.52,0,0,1,3.12,1.12c1.88,1.09-2.73-1,6.21,2.49-2.17-.86,5,1.08,4.79,3.29s-7.84,2.84-14.84,1.62-7.1-1.39-7.18-1.93a28,28,0,0,1,.61-5.77C199.15,338.2,206.25,337.71,206.25,337.71Z"/><path id="Path_194797" data-name="Path 194797" class="cls-43" d="M208.71,337.06s-.61,1.9-.42,2.18c-.43-.61-8.11-1.12-8.53.26.12-.4,1.37-3.1,2-4.5C202.37,333.79,208.71,337.06,208.71,337.06Z"/><path id="Path_194797-2" data-name="Path 194797-2" class="cls-43" d="M158.7,337.05a9.18,9.18,0,0,0-.42,2.66c-.44-.76-8.11-1.37-8.52.31.12-.49,1.37-3.78,2-5.48C152.34,333.08,158.7,337.05,158.7,337.05Z"/><path id="Path_194798" data-name="Path 194798" class="cls-71" d="M200,250.13s29.64,22.46,33,27.06-.41,11.42-.9,13.7-21.25,42.12-21.5,46c0,0-9.07,1.27-11.43-1.72,0,0,13.19-38.36,15.3-45.62s-7.33-8.31-13.15-11-31.51-17.63-32.88-23.29a16.76,16.76,0,0,1,0-9.05S175.54,241.58,200,250.13Z"/><path id="Path_194799" data-name="Path 194799" class="cls-12" d="M202.46,195.05s2.24,9.8,1.69,15.18-6.1,19.18-6.51,22.14,2.4,17.81,2.4,17.81l-33.33,5q.16-9.45,1.27-18.88c1.23-10.25,5.08-18.35,6.44-24.14,4.62-19.76,21.48-22.5,21.48-22.5Z"/><path id="Path_194800" data-name="Path 194800" class="cls-43" d="M218.58,173.13s2.17,5.26.74,5.89c-1.16.52.72,5.66,1,6.48s-2.14,1.18-2.74,1.63-2.66,6.63-4.58,6.63-10.15-3.89-12.22-6.55-2.83-13.8-.79-18.25S214.76,163.93,218.58,173.13Z"/><path id="Path_194801" data-name="Path 194801" class="cls-43" d="M207.46,191.8s-.29.48-.71,1.23l-.59,1.07c-.17.3-.34.62-.51,1a31.47,31.47,0,0,0-2.64,5.86c-.52,2.41-6-11.08-6-11.08a119.46,119.46,0,0,0,7.1-15.21C207.27,166.32,207.46,191.8,207.46,191.8Z"/><path id="Path_194802" data-name="Path 194802" class="cls-71" d="M219,174.26a7.71,7.71,0,0,0-1.26-9.59c-4.56-4.52-14.47,1.53-15.54,1.68s-6.85,0-5.1,10.56c1.55,9.23,2,8.94,2,8.94s2.33-4.34,3.5-5c1.8-1,5.48-.37,5.48-.37s-1.28-4.84,1.55-5.21S216.32,172.94,219,174.26Z"/><path id="Path_194803" data-name="Path 194803" class="cls-43" d="M205.47,178.87c-.18-.67-.67-3.5-3.2-2.14s.76,7,1.16,7.06C204.87,184.18,205.91,180.52,205.47,178.87Z"/><path id="Path_194804" data-name="Path 194804" class="cls-72" d="M197.62,199.69s3.46,8,6.4,10.77l-1.37,4.78-6.72-14.62Z"/><path id="Path_194805" data-name="Path 194805" class="cls-73" d="M201,253.1l-.57-3.11-32.67,4.78-.09,3.37Z"/><path id="Path_194806" data-name="Path 194806" class="cls-74" d="M201.57,213.88c-.84,1.73-1.65,3.48-2.41,5.25h0C197.49,223,196,227,194.68,230.8c-.48,1.37-.92,2.74-1.37,4.11a81.13,81.13,0,0,1-15.15,27.2s-13.07-2.44-15.91-4.93a237.25,237.25,0,0,1,9-36.6c.48-1.37,1-2.74,1.48-4.11h0c4.56-17.45,13.07-26.82,23.16-26.82C196.06,189.91,206,204.84,201.57,213.88Z"/><path id="Path_194807" data-name="Path 194807" class="cls-74" d="M170.83,221.84s-4.29,18.62-15.07,33.28c-1.48,2,14.22,5.07,14.22,5.07Z"/><path id="Path_194808" data-name="Path 194808" class="cls-75" d="M185.66,218.34c-4.42,3.87-14.41,13.19-14.41,13.19.48-1.37,1-2.74,1.48-4.11h0C176.2,224.64,185.52,218.43,185.66,218.34Z"/><path id="Path_194809" data-name="Path 194809" class="cls-76" d="M207.46,193.17s-.29.48-.71,1.23l-.59,1.07c-2.74-2.48-6.55-11.48-5-6.52A46.35,46.35,0,0,0,207.46,193.17Z"/><path id="Path_194811" data-name="Path 194811" class="cls-77" d="M203.91,210.75a16.47,16.47,0,0,1,.14,4.49c-.14.45-1.37-.27-1.37-.27Z"/><path id="Path_194814" data-name="Path 194814" class="cls-74" d="M198.14,195.47s12.94,17.54,20.14,23.88c2.28,2,24.94,14.36,25.8,15.15S242,244,242,244s-28.4-14.69-30.06-15.62S187.7,202,186.58,198.81s.48-3.49,3.66-5.13C194.69,191.38,198.14,195.47,198.14,195.47Z"/></g></g></g></svg>