<svg xmlns="http://www.w3.org/2000/svg" xmlns:xlink="http://www.w3.org/1999/xlink" viewBox="0 0 680 378"><defs><style>.cls-1,.cls-17,.cls-67,.cls-69{fill:none;}.cls-2{fill:#b1dafc;}.cls-3{fill:#8fcaf2;}.cls-4{fill:#fff;}.cls-5{fill:#a3d1ff;}.cls-6{opacity:0.3;}.cls-7{clip-path:url(#clip-path);}.cls-8{fill:#5275a0;}.cls-9{opacity:0.34;}.cls-10{clip-path:url(#clip-path-2);}.cls-11{fill:#d1ebff;}.cls-12{fill:#dfe3e5;}.cls-13{opacity:0.35;}.cls-14{clip-path:url(#clip-path-3);}.cls-15{fill:#e2f0fb;}.cls-16{clip-path:url(#clip-path-4);}.cls-17{stroke:#8fcef9;}.cls-17,.cls-69{stroke-miterlimit:10;}.cls-18{opacity:0.21;}.cls-19{clip-path:url(#clip-path-5);}.cls-20{clip-path:url(#clip-path-6);}.cls-21{clip-path:url(#clip-path-7);}.cls-22{fill:#f7d361;}.cls-23{fill:#68a9e1;opacity:0.5;isolation:isolate;}.cls-24{fill:#ffb127;}.cls-25{fill:#e38601;}.cls-26{fill:#ffbd29;}.cls-27{clip-path:url(#clip-path-9);}.cls-28{fill:#ffac06;}.cls-29{fill:#ffd454;}.cls-30{clip-path:url(#clip-path-21);}.cls-31{clip-path:url(#clip-path-33);}.cls-32{clip-path:url(#clip-path-45);}.cls-33{clip-path:url(#clip-path-57);}.cls-34{clip-path:url(#clip-path-69);}.cls-35{clip-path:url(#clip-path-81);}.cls-36{clip-path:url(#clip-path-93);}.cls-37{clip-path:url(#clip-path-105);}.cls-38{clip-path:url(#clip-path-117);}.cls-39{clip-path:url(#clip-path-129);}.cls-40{fill:#b5905c;}.cls-41{fill:#feaf84;}.cls-42{fill:#222b70;}.cls-43{fill:#595b8d;}.cls-44{fill:#33354b;}.cls-45{fill:#45a59b;}.cls-46{fill:#a9a9a9;}.cls-47{fill:#ffc69a;}.cls-48{fill:#411809;}.cls-49{fill:#ffb780;}.cls-50{clip-path:url(#clip-path-130);}.cls-51{fill:#e2a203;}.cls-52{fill:#fde571;}.cls-53{clip-path:url(#clip-path-131);}.cls-54{clip-path:url(#clip-path-132);}.cls-55{clip-path:url(#clip-path-133);}.cls-56{clip-path:url(#clip-path-134);}.cls-57{clip-path:url(#clip-path-135);}.cls-58{fill:#963815;}.cls-59{fill:#ffc8b0;}.cls-60{fill:#f2a181;}.cls-61{fill:#ffbe9d;}.cls-62{fill:#ffa320;}.cls-63{fill:#92a7f4;}.cls-64{fill:#6262dd;}.cls-65{fill:#e56500;}.cls-66{clip-path:url(#clip-path-136);}.cls-67,.cls-69{stroke:#999;}.cls-67{stroke-miterlimit:10;}.cls-68{fill:#b5c8dd;}</style><clipPath id="clip-path"><rect class="cls-1" x="206.53" y="92.83" width="240.57" height="162.89"/></clipPath><clipPath id="clip-path-2"><rect class="cls-1" x="328.19" y="170.23" width="89.6" height="49.18"/></clipPath><clipPath id="clip-path-3"><rect class="cls-1" x="278.87" y="113.24" width="151.52" height="108.09"/></clipPath><clipPath id="clip-path-4"><rect class="cls-1" x="284.76" y="145.02" width="128.78" height="61.51"/></clipPath><clipPath id="clip-path-5"><rect class="cls-1" x="284.76" y="129.27" width="128.78" height="77.27"/></clipPath><clipPath id="clip-path-6"><rect class="cls-1" x="209" y="159" width="57.81" height="24.8"/></clipPath><clipPath id="clip-path-7"><path class="cls-1" d="M232.56,199.27H412s14.25-17.67,5.21-31-19.18-12.88-16-35.34,3-40.69-23.43-43.84S342.16,57.48,323,63,275.72,45.83,262.7,48.85s-26.44-6.17-39.18,5.48,26.3,59.73,22.2,64.66-16.58-.68-22.88,9.46S217.77,174.2,232.56,199.27Z"/></clipPath><clipPath id="clip-path-9"><path class="cls-1" d="M471.87,337.05v9.59c0,3.29,14.93,6,33.29,6s33.29-2.74,33.29-6v-9.59Z"/></clipPath><clipPath id="clip-path-21"><path class="cls-1" d="M475.29,326.23v9.59c0,3.29,14.93,6,33.29,6s33.29-2.74,33.29-6v-9.59Z"/></clipPath><clipPath id="clip-path-33"><path class="cls-1" d="M470.36,314.45V324c0,3.29,14.93,6,33.29,6s33.29-2.74,33.29-6v-9.59Z"/></clipPath><clipPath id="clip-path-45"><path class="cls-1" d="M472.82,302.8v9.59c0,3.29,14.94,6,33.3,6s33.29-2.74,33.29-6V302.8Z"/></clipPath><clipPath id="clip-path-57"><path class="cls-1" d="M469,291.84v9.59c0,3.29,14.93,6,33.29,6s33.29-2.74,33.29-6v-9.59Z"/></clipPath><clipPath id="clip-path-69"><path class="cls-1" d="M472.28,281v9.59c0,3.29,14.93,6,33.29,6s33.29-2.74,33.29-6V281Z"/></clipPath><clipPath id="clip-path-81"><path class="cls-1" d="M469,269.1v9.59c0,3.29,14.93,6,33.29,6s33.29-2.74,33.29-6V269.1Z"/></clipPath><clipPath id="clip-path-93"><path class="cls-1" d="M475.29,258.55v9.59c0,3.29,14.93,6,33.29,6s33.29-2.74,33.29-6v-9.59Z"/></clipPath><clipPath id="clip-path-105"><path class="cls-1" d="M471.73,247.05v9.59c0,3.28,14.93,6,33.29,6s33.29-2.74,33.29-6v-9.59Z"/></clipPath><clipPath id="clip-path-117"><path class="cls-1" d="M475.29,236.22v9.59c0,3.29,14.93,6,33.29,6s33.29-2.74,33.29-6v-9.59Z"/></clipPath><clipPath id="clip-path-129"><rect class="cls-1" x="486.11" y="230.61" width="52.61" height="65.9"/></clipPath><clipPath id="clip-path-130"><path class="cls-1" d="M205.32,221.34c-11.5,2.6-18.5,15.48-15.34,28.63s14.8,21.78,26.44,19l4.38-1.1-11-47.68Z"/></clipPath><clipPath id="clip-path-131"><path class="cls-1" d="M130.67,309v9.59c0,3.29,14.94,6,33.29,6s33.3-2.74,33.3-6V309Z"/></clipPath><clipPath id="clip-path-132"><path class="cls-1" d="M133.41,298.05v9.59c0,3.29,14.94,6,33.29,6s33.29-2.74,33.29-6v-9.59Z"/></clipPath><clipPath id="clip-path-133"><path class="cls-1" d="M127.66,286.13v9.59c0,3.3,14.93,6,33.29,6s33.29-2.73,33.29-6v-9.59Z"/></clipPath><clipPath id="clip-path-134"><path class="cls-1" d="M130.67,275.31v9.59c0,3.29,14.94,6,33.29,6s33.3-2.74,33.3-6v-9.59Z"/></clipPath><clipPath id="clip-path-135"><path class="cls-1" d="M132,264.48v9.59c0,3.29,14.94,6,33.29,6s33.29-2.74,33.29-6v-9.59Z"/></clipPath><clipPath id="clip-path-136"><rect class="cls-1" x="165.06" y="252.71" width="11.1" height="35.21"/></clipPath></defs><title>industryArtboard 2</title><g id="Designed_by_Freepik" data-name="Designed by Freepik"><g id="industryFinancial_Consulting_Financial_Consulting" data-name="industryFinancial Consulting Financial Consulting"><rect id="Rectangle_8004" data-name="Rectangle 8004" class="cls-2" x="312.71" y="272.16" width="47.4" height="32.61"/><path id="Path_197882" data-name="Path 197882" class="cls-3" d="M360.25,293.8,312.85,289v-8.63h47.4Z"/><path id="Path_197883" data-name="Path 197883" class="cls-2" d="M384.63,304.22H288.32a5.48,5.48,0,1,0,0,11h96.31a5.49,5.49,0,0,0,5.48-5.48,5.32,5.32,0,0,0-5.17-5.48,1.6,1.6,0,0,0-.31,0h0"/><path id="Path_197884" data-name="Path 197884" class="cls-3" d="M390.25,309.83a5.49,5.49,0,0,1-5.48,5.48H288.46a5.49,5.49,0,0,1-5.48-5.48,4.53,4.53,0,0,1,.14-1.37,5.27,5.27,0,0,0,5.34,4.11h96.31a5.58,5.58,0,0,0,5.34-4.11c0,.41.14.83.14,1.37"/><path id="Path_197885" data-name="Path 197885" class="cls-4" d="M485.05,79.67H188a5.8,5.8,0,0,0-5.76,5.76V281.61a5.8,5.8,0,0,0,5.76,5.76h297a5.8,5.8,0,0,0,5.76-5.76h0V85.43a5.8,5.8,0,0,0-5.76-5.76"/><rect id="Rectangle_8005" data-name="Rectangle 8005" class="cls-5" x="187.08" y="85.43" width="298.93" height="178.37"/><path id="Path_197886" data-name="Path 197886" class="cls-4" d="M460.53,258.18H231.47a5.79,5.79,0,0,1-5.76-5.75h0V101.05a5.8,5.8,0,0,1,5.76-5.76H460.53a5.8,5.8,0,0,1,5.76,5.76V252.29a5.66,5.66,0,0,1-5.41,5.89h-.35"/><path id="Path_197887" data-name="Path 197887" class="cls-3" d="M460.53,94.88l-229.06.41a5.8,5.8,0,0,0-5.76,5.76h0v5.48L466.29,106V100.5a5.69,5.69,0,0,0-5.73-5.62h0"/><path id="Path_197888" data-name="Path 197888" class="cls-4" d="M239,102.14a1.92,1.92,0,1,1-1.92-1.92h0a1.88,1.88,0,0,1,1.92,1.83v.09h0"/><path id="Path_197889" data-name="Path 197889" class="cls-4" d="M247.36,102.14a1.92,1.92,0,1,1-1.92-1.92h0a2,2,0,0,1,1.92,1.92h0"/><path id="Path_197890" data-name="Path 197890" class="cls-4" d="M255.58,102.14a1.92,1.92,0,1,1-1.92-1.92h0a2,2,0,0,1,1.92,1.92h0"/><g id="Group_12879" data-name="Group 12879" class="cls-6"><g id="Group_12878" data-name="Group 12878"><g id="Group_14613" data-name="Group 14613"><g class="cls-7"><g id="Group_12877" data-name="Group 12877"><path id="Path_197891" data-name="Path 197891" class="cls-8" d="M441.35,255.58H212.42a5.78,5.78,0,0,1-5.75-5.75h0V98.58a5.78,5.78,0,0,1,5.75-5.75H441.49a5.78,5.78,0,0,1,5.75,5.75h0V249.83a5.81,5.81,0,0,1-5.88,5.75h0"/></g></g></g></g></g><path id="Path_197892" data-name="Path 197892" class="cls-4" d="M436.28,252.16H207.22a5.8,5.8,0,0,1-5.76-5.76h0V95a5.8,5.8,0,0,1,5.76-5.76H436.28A5.8,5.8,0,0,1,442,95h0V246.26a5.66,5.66,0,0,1-5.41,5.89h-.35"/><path id="Path_197893" data-name="Path 197893" class="cls-3" d="M436.28,88.85l-229.06.41A5.8,5.8,0,0,0,201.46,95h0v5.48L442,100V94.47a5.59,5.59,0,0,0-5.56-5.62h-.2"/><path id="Path_197894" data-name="Path 197894" class="cls-4" d="M214.75,96.11a1.92,1.92,0,1,1-1.91-1.91h0A1.86,1.86,0,0,1,214.75,96v.09h0"/><path id="Path_197895" data-name="Path 197895" class="cls-4" d="M223,96.11a1.92,1.92,0,1,1-1.91-1.91h0A1.86,1.86,0,0,1,223,96v.09h0"/><path id="Path_197896" data-name="Path 197896" class="cls-4" d="M231.33,96.11a1.92,1.92,0,1,1-1.92-1.91h0a2,2,0,0,1,1.92,1.91h0"/><g id="Group_12882" data-name="Group 12882" class="cls-9"><g id="Group_12881" data-name="Group 12881"><g id="Group_14614" data-name="Group 14614"><g class="cls-10"><g id="Group_12880" data-name="Group 12880"><path id="Path_197897" data-name="Path 197897" class="cls-11" d="M415.6,219.55H330.66a2.39,2.39,0,0,1-2.33-2.33h0V172.7a2.39,2.39,0,0,1,2.33-2.33H415.6a2.4,2.4,0,0,1,2.33,2.33h0v44.52a2.41,2.41,0,0,1-2.33,2.33h0"/></g></g></g></g></g><path id="Path_197898" data-name="Path 197898" class="cls-3" d="M233,114.75H212.56a1.58,1.58,0,0,1-1.64-1.52v-.68a1.57,1.57,0,0,1,1.52-1.64H233a1.59,1.59,0,0,1,1.65,1.52v.12h0v.55a1.68,1.68,0,0,1-1.65,1.65h0"/><path id="Path_197899" data-name="Path 197899" class="cls-3" d="M224.21,152H212.56a1.58,1.58,0,0,1-1.64-1.52v-.12h0v-.55a1.58,1.58,0,0,1,1.52-1.65h11.77a1.58,1.58,0,0,1,1.64,1.52v.68a1.58,1.58,0,0,1-1.52,1.64h-.12"/><path id="Path_197900" data-name="Path 197900" class="cls-3" d="M253.66,121.32l-41.1.14a1.58,1.58,0,0,1-1.64-1.52v-.67a1.58,1.58,0,0,1,1.52-1.65h.12l41.1-.13a1.58,1.58,0,0,1,1.65,1.52v.67a1.68,1.68,0,0,1-1.65,1.64h0"/><path id="Path_197901" data-name="Path 197901" class="cls-12" d="M264.9,130.91l-53.43.14a.58.58,0,0,1-.55-.55h0v-.27a.58.58,0,0,1,.55-.55l53.43-.14a.59.59,0,0,1,.54.55v.27c.14.28-.13.55-.54.55h0"/><path id="Path_197902" data-name="Path 197902" class="cls-12" d="M264.9,127.9l-53.43.13a.57.57,0,0,1-.55-.54h0v-.28a.59.59,0,0,1,.55-.55l53.43-.13a.58.58,0,0,1,.54.55v.27c.14.27-.13.55-.54.55h0"/><path id="Path_197903" data-name="Path 197903" class="cls-12" d="M264.9,133.93l-53.43.13a.58.58,0,0,1-.55-.54h0v-.28a.59.59,0,0,1,.55-.55l53.43-.13a.58.58,0,0,1,.54.54v.28c.14.41-.13.55-.54.55h0"/><path id="Path_197904" data-name="Path 197904" class="cls-12" d="M264.9,137.08l-53.43.13a.58.58,0,0,1-.55-.54h0v-.28a.59.59,0,0,1,.55-.55h0l53.43-.13a.58.58,0,0,1,.54.54v.28c.14.27-.13.55-.54.55h0"/><path id="Path_197905" data-name="Path 197905" class="cls-12" d="M251.2,140.09l-39.73.14a.59.59,0,0,1-.55-.55v-.27a.58.58,0,0,1,.55-.55h0l39.73-.14a.58.58,0,0,1,.54.55v.27c.14.28-.13.55-.54.55h0"/><path id="Path_197906" data-name="Path 197906" class="cls-12" d="M326.27,235.85l-40.14.14a.59.59,0,0,1-.55-.55h0v-.27a.59.59,0,0,1,.55-.55h0l40.14-.14a.59.59,0,0,1,.55.55h0v.14a.62.62,0,0,1-.55.68h0"/><path id="Path_197907" data-name="Path 197907" class="cls-12" d="M326.27,232.84l-40.14.14a.6.6,0,0,1-.55-.55h0v-.14a.6.6,0,0,1,.55-.55h0l40.14-.13a.58.58,0,0,1,.55.54v.14a.58.58,0,0,1-.55.55"/><path id="Path_197908" data-name="Path 197908" class="cls-12" d="M326.27,239l-40.14.14a.59.59,0,0,1-.55-.55h0v-.13a.59.59,0,0,1,.55-.55h0l40.14-.14a.59.59,0,0,1,.55.55v.14a.57.57,0,0,1-.55.54"/><path id="Path_197909" data-name="Path 197909" class="cls-12" d="M326.27,242l-40.14.14a.6.6,0,0,1-.55-.55h0v-.14a.6.6,0,0,1,.55-.55h0l40.14-.13a.58.58,0,0,1,.55.54v.14a.58.58,0,0,1-.55.55h0"/><path id="Path_197910" data-name="Path 197910" class="cls-12" d="M316.82,245H286.13a.59.59,0,0,1-.55-.55v-.13a.59.59,0,0,1,.55-.55h30.69a.59.59,0,0,1,.55.55v.13a.59.59,0,0,1-.55.55"/><path id="Path_197911" data-name="Path 197911" class="cls-12" d="M372.44,236l-40.14.14a.6.6,0,0,1-.55-.55h0v-.41a.59.59,0,0,1,.55-.55h0l40.14-.14a.6.6,0,0,1,.55.55h0v.14c.14.55-.14.82-.55.82h0"/><path id="Path_197912" data-name="Path 197912" class="cls-12" d="M372.44,232.84,332.3,233a.6.6,0,0,1-.55-.55h0v-.14a.6.6,0,0,1,.55-.55h0l40.14-.13a.59.59,0,0,1,.55.54v.14c.14.28-.14.55-.55.55h0"/><path id="Path_197913" data-name="Path 197913" class="cls-12" d="M372.44,239l-40.14.14a.59.59,0,0,1-.55-.55h0v-.13a.59.59,0,0,1,.55-.55l40.14-.14a.6.6,0,0,1,.55.55v.14c.14.27-.14.54-.55.54"/><path id="Path_197914" data-name="Path 197914" class="cls-12" d="M372.44,242l-40.14.14a.6.6,0,0,1-.55-.55h0v-.14a.6.6,0,0,1,.55-.55l40.14-.13a.59.59,0,0,1,.55.54h0v.14c.14.27-.14.55-.55.55"/><path id="Path_197915" data-name="Path 197915" class="cls-12" d="M363,245H332.3a.59.59,0,0,1-.55-.55v-.13a.59.59,0,0,1,.55-.55H363a.59.59,0,0,1,.55.55h0v.13c.13.28-.14.55-.55.55h0"/><path id="Path_197916" data-name="Path 197916" class="cls-12" d="M418.75,236l-40.14.14a.59.59,0,0,1-.55-.55h0v-.41a.58.58,0,0,1,.55-.55h0l40.14-.14a.59.59,0,0,1,.54.55h0v.14a.77.77,0,0,1-.54.82h0"/><path id="Path_197917" data-name="Path 197917" class="cls-12" d="M418.75,232.84l-40.14.14a.59.59,0,0,1-.55-.55h0v-.14a.59.59,0,0,1,.55-.55l40.14-.13a.58.58,0,0,1,.54.54h0v.14a.58.58,0,0,1-.54.55"/><path id="Path_197918" data-name="Path 197918" class="cls-12" d="M418.75,239l-40.14.14a.58.58,0,0,1-.55-.55h0v-.13a.58.58,0,0,1,.55-.55l40.14-.14a.59.59,0,0,1,.54.55h0v.14a.57.57,0,0,1-.54.54"/><path id="Path_197919" data-name="Path 197919" class="cls-12" d="M418.75,242H378.47a.58.58,0,0,1-.55-.55h0v-.14a.58.58,0,0,1,.55-.54l40.14-.14a.59.59,0,0,1,.55.55h0v.13a.48.48,0,0,1-.23.64.41.41,0,0,1-.18.05h0"/><path id="Path_197920" data-name="Path 197920" class="cls-12" d="M409.29,245H378.61a.58.58,0,0,1-.55-.55v-.13a.58.58,0,0,1,.55-.55h30.68a.58.58,0,0,1,.55.55h0v.13a.58.58,0,0,1-.55.55h0"/><path id="Path_197921" data-name="Path 197921" class="cls-12" d="M221.88,245.58H207.77a.65.65,0,0,1-.69-.61v-.21a.66.66,0,0,1,.61-.69h14.19a.66.66,0,0,1,.69.61v.08h0v.14c-.14.41-.41.68-.69.68h0"/><path id="Path_197922" data-name="Path 197922" class="cls-12" d="M243.12,245.58H229a.64.64,0,0,1-.68-.61.09.09,0,0,1,0-.07v-.14a.65.65,0,0,1,.6-.69h14.2a.65.65,0,0,1,.68.61v.08h0v.14c-.14.41-.41.68-.68.68h0"/><path id="Path_197923" data-name="Path 197923" class="cls-12" d="M264.35,245.58H250.24a.65.65,0,0,1-.69-.61v-.07h0v-.14a.66.66,0,0,1,.61-.69h14.19a.66.66,0,0,1,.69.61v.22c-.14.41-.41.68-.69.68"/><g id="Group_12885" data-name="Group 12885" class="cls-13"><g id="Group_12884" data-name="Group 12884"><g id="Group_14615" data-name="Group 14615"><g class="cls-14"><g id="Group_12883" data-name="Group 12883"><path id="Path_197924" data-name="Path 197924" class="cls-8" d="M425.73,221.47H283.53a4.62,4.62,0,0,1-4.66-4.58v-99a4.62,4.62,0,0,1,4.58-4.66H425.73a4.62,4.62,0,0,1,4.66,4.58v98.85a4.74,4.74,0,0,1-4.66,4.8"/></g></g></g></g></g><path id="Path_197925" data-name="Path 197925" class="cls-15" d="M420.53,214.48H278.32a4.62,4.62,0,0,1-4.66-4.58V111.05a4.62,4.62,0,0,1,4.59-4.66H420.53a4.63,4.63,0,0,1,4.66,4.58v98.85a4.62,4.62,0,0,1-4.59,4.66h-.07"/><g id="Group_12888" data-name="Group 12888" class="cls-13"><g id="Group_12887" data-name="Group 12887"><g id="Group_14616" data-name="Group 14616"><g class="cls-16"><g id="Group_12886" data-name="Group 12886"><path id="Path_197926" data-name="Path 197926" class="cls-2" d="M284.76,161.46c4.25,0,9,33.57,24.11,33.57s29.32-46.86,39.73-46.86,12.33,34.66,20.55,34.66,18.09-37.94,26-37.94,18.36,27.81,18.36,27.81v33.7H284.76Z"/></g></g></g></g></g><rect id="Rectangle_8010" data-name="Rectangle 8010" class="cls-4" x="389.02" y="116.12" width="18.77" height="1.64"/><rect id="Rectangle_8011" data-name="Rectangle 8011" class="cls-4" x="389.02" y="119.27" width="18.77" height="1.64"/><rect id="Rectangle_8012" data-name="Rectangle 8012" class="cls-4" x="389.02" y="122.28" width="18.77" height="1.64"/><rect id="Rectangle_8013" data-name="Rectangle 8013" class="cls-4" x="376.82" y="116.12" width="8.49" height="1.64"/><rect id="Rectangle_8014" data-name="Rectangle 8014" class="cls-4" x="376.82" y="119.27" width="8.49" height="1.64"/><rect id="Rectangle_8015" data-name="Rectangle 8015" class="cls-4" x="376.82" y="122.28" width="8.49" height="1.64"/><path id="Path_197927" data-name="Path 197927" class="cls-17" d="M285.31,154.06c5.2,2.6,10.14,33.3,24,33.3s28.09-50,37.68-50,18.77,40.14,28.91,40.14,36.71-49.6,36.71-49.6"/><path id="Path_197928" data-name="Path 197928" class="cls-17" d="M414.77,206.54h-130v-88.1"/><g id="Group_12891" data-name="Group 12891" class="cls-18"><g id="Group_12890" data-name="Group 12890"><g id="Group_14617" data-name="Group 14617"><g class="cls-19"><g id="Group_12889" data-name="Group 12889"><path id="Path_197929" data-name="Path 197929" class="cls-2" d="M284.76,181.47s16.3-34,24.52-34c6.58,0,6.85,17.67,12.47,17.67s11.78-35.89,17.13-35.89c5.2,0,4.11,42.74,11.37,42.74s8.9-28.22,13.42-28.22S373.13,183,377.92,183c9.59,0,19-47.27,24.39-47.27s11.37,28.77,11.37,28.77v41.92H284.9V181.47Z"/></g></g></g></g></g><path id="Path_197930" data-name="Path 197930" class="cls-4" d="M286.27,153.65a1,1,0,1,1-1-1h0c.55-.13,1,.42,1,1"/><path id="Path_197931" data-name="Path 197931" class="cls-4" d="M299.15,179.55a1,1,0,1,1-1-1h0a.94.94,0,0,1,1,.91v.05h0"/><path id="Path_197932" data-name="Path 197932" class="cls-4" d="M348.05,137.35a1,1,0,1,1-.95-1h0a.93.93,0,0,1,.95.91v0"/><path id="Path_197933" data-name="Path 197933" class="cls-4" d="M335.31,153.79a1,1,0,1,1-1-1h0c.42-.14,1,.41,1,1"/><path id="Path_197934" data-name="Path 197934" class="cls-4" d="M400.53,150.37a1,1,0,1,1-1-1c.54-.14,1,.41,1,1h0"/><path id="Path_197935" data-name="Path 197935" class="cls-4" d="M413.68,127.9a1,1,0,1,1-1-1c.41-.14,1,.27,1,1h0"/><path id="Path_197936" data-name="Path 197936" class="cls-4" d="M376.82,177.22a1,1,0,1,1-.95-1h0a.93.93,0,0,1,.95.91v.05"/><path id="Path_197937" data-name="Path 197937" class="cls-4" d="M326.13,170.92a1,1,0,0,1-1.91,0,1,1,0,0,1,1-1h0c.41-.14.95.41.95,1"/><path id="Path_197938" data-name="Path 197938" class="cls-4" d="M365.59,164.89a1,1,0,1,1-1-1c.55-.14,1,.41,1,1"/><path id="Path_197939" data-name="Path 197939" class="cls-11" d="M222.84,230.24a2.26,2.26,0,0,1-1,.13,4.25,4.25,0,1,1,4.24-4.24h0a2.58,2.58,0,0,1-.13,1.1l5.2,1.91a9.74,9.74,0,1,0-12.33,6.17h0a10.13,10.13,0,0,0,5.35.27Z"/><path id="Path_197940" data-name="Path 197940" class="cls-11" d="M254.21,225.17a2.38,2.38,0,0,1,.14,1,4.25,4.25,0,1,1-4.25-4.25h0a2.57,2.57,0,0,1,1.1.14l1.92-5.21a9.75,9.75,0,1,0,6.16,12.33h0a10.1,10.1,0,0,0,.28-5.34Z"/><g id="Group_12894" data-name="Group 12894" class="cls-9"><g id="Group_12893" data-name="Group 12893"><g id="Group_14618" data-name="Group 14618"><g class="cls-20"><g id="Group_12892" data-name="Group 12892"><path id="Path_197941" data-name="Path 197941" class="cls-11" d="M264.76,183.8H211.19a2.17,2.17,0,0,1-2.19-2.14v-.06h0V161.19a2.15,2.15,0,0,1,2.14-2.19h53.62a2.16,2.16,0,0,1,2.19,2.13v.06h0V181.6a2.36,2.36,0,0,1-2.19,2.19h0"/></g></g></g></g></g><path id="Path_197942" data-name="Path 197942" class="cls-11" d="M262.7,190.37H209.14a2.17,2.17,0,0,1-2.2-2.13v-.07h0V167.76a2.18,2.18,0,0,1,2.14-2.19H262.7a2.17,2.17,0,0,1,2.2,2.14v0h0v20.41a2.17,2.17,0,0,1-2.13,2.2h-.07"/><path id="Path_197943" data-name="Path 197943" class="cls-3" d="M342.3,274.76a5.76,5.76,0,1,1-5.75-5.75h0a5.87,5.87,0,0,1,5.75,5.75"/><g id="Group_14621" data-name="Group 14621"><g class="cls-21"><g id="Group_14619" data-name="Group 14619"><path id="Path_199051" data-name="Path 199051" class="cls-22" d="M412,149.27l-57.54-42.33-13,21L261.2,75.43l4.93-8.5L236,64.6l14.66,26.3,5.61-8.63,88,57.27,12.88-20.28,54.11,40C411.07,159.27,412.17,153.1,412,149.27Z"/></g></g><g class="cls-21"><g id="Group_14620" data-name="Group 14620"><path id="Path_199053" data-name="Path 199053" class="cls-22" d="M589.72,61.45,532.18,19.12l-13,21L438.88-12.39l4.94-8.49-30.14-2.33,14.66,26.3L434-5.54l88,57.27,12.87-20.28,54.12,40C588.76,71.59,589.86,65.29,589.72,61.45Z"/></g></g></g><path id="Path_200271" data-name="Path 200271" class="cls-23" d="M154.34,329.67c101.58-6.56,190.83-5.52,320.23,0s111.3,22.06,111.3,22.06-22.06,9.15-64.62,11.09-112.33-6.93-112.33-6.93-36.33-5.2-111.23-4.16-94.46,10-153.73,11.09-56.79-.37-75.71-6.93S52.76,336.22,154.34,329.67Z"/><g id="Group_14787" data-name="Group 14787"><path id="Path_197979" data-name="Path 197979" class="cls-24" d="M535.57,348.84c0,1.5-11.78,2.74-26.44,2.74s-26.44-1.24-26.44-2.74,11.78-2.74,26.44-2.74,26.44,1.23,26.44,2.74"/><path id="Path_197980" data-name="Path 197980" class="cls-25" d="M483.79,349.66c3.29-1.1,13.42-1.92,25.34-1.92s22.06.82,25.35,1.92c.68-.28,1.1-.55,1.1-.82,0-1.51-11.78-2.74-26.44-2.74s-26.45,1.23-26.45,2.74c0,.27.41.54,1.1.82"/><path id="Path_197981" data-name="Path 197981" class="cls-26" d="M471.87,337.05v9.59c0,3.29,14.93,6,33.29,6s33.29-2.74,33.29-6v-9.59Z"/><g id="Group_14634" data-name="Group 14634"><g class="cls-27"><g id="Group_14622" data-name="Group 14622"><rect id="Rectangle_8032" data-name="Rectangle 8032" class="cls-28" x="472.55" y="333.08" width="1.51" height="21.92"/></g></g><g class="cls-27"><g id="Group_14623" data-name="Group 14623"><rect id="Rectangle_8033" data-name="Rectangle 8033" class="cls-28" x="476.66" y="333.08" width="1.51" height="21.92"/></g></g><g class="cls-27"><g id="Group_14624" data-name="Group 14624"><rect id="Rectangle_8034" data-name="Rectangle 8034" class="cls-28" x="481.32" y="333.08" width="1.51" height="21.92"/></g></g><g class="cls-27"><g id="Group_14625" data-name="Group 14625"><rect id="Rectangle_8035" data-name="Rectangle 8035" class="cls-28" x="487.07" y="333.08" width="1.51" height="21.92"/></g></g><g class="cls-27"><g id="Group_14626" data-name="Group 14626"><rect id="Rectangle_8036" data-name="Rectangle 8036" class="cls-28" x="493.51" y="333.08" width="1.64" height="21.92"/></g></g><g class="cls-27"><g id="Group_14627" data-name="Group 14627"><rect id="Rectangle_8037" data-name="Rectangle 8037" class="cls-28" x="500.5" y="333.08" width="1.51" height="21.92"/></g></g><g class="cls-27"><g id="Group_14628" data-name="Group 14628"><rect id="Rectangle_8038" data-name="Rectangle 8038" class="cls-28" x="535.98" y="333.08" width="1.51" height="21.92"/></g></g><g class="cls-27"><g id="Group_14629" data-name="Group 14629"><rect id="Rectangle_8039" data-name="Rectangle 8039" class="cls-28" x="531.87" y="333.08" width="1.51" height="21.92"/></g></g><g class="cls-27"><g id="Group_14630" data-name="Group 14630"><rect id="Rectangle_8040" data-name="Rectangle 8040" class="cls-28" x="527.21" y="333.08" width="1.51" height="21.92"/></g></g><g class="cls-27"><g id="Group_14631" data-name="Group 14631"><rect id="Rectangle_8041" data-name="Rectangle 8041" class="cls-28" x="521.46" y="333.08" width="1.64" height="21.92"/></g></g><g class="cls-27"><g id="Group_14632" data-name="Group 14632"><rect id="Rectangle_8042" data-name="Rectangle 8042" class="cls-28" x="515.02" y="333.08" width="1.51" height="21.92"/></g></g><g class="cls-27"><g id="Group_14633" data-name="Group 14633"><rect id="Rectangle_8043" data-name="Rectangle 8043" class="cls-28" x="508.03" y="333.08" width="1.51" height="21.92"/></g></g></g><path id="Path_197983" data-name="Path 197983" class="cls-29" d="M538.31,336.92c0,3.29-14.93,6-33.29,6s-33.29-2.74-33.29-6,14.93-6,33.29-6,33.29,2.74,33.29,6"/><path id="Path_197984" data-name="Path 197984" class="cls-24" d="M531.46,336.37c0,1.51-11.78,2.74-26.44,2.74s-26.44-1.23-26.44-2.74,11.78-2.74,26.44-2.74,26.44,1.1,26.44,2.74"/><path id="Path_197985" data-name="Path 197985" class="cls-25" d="M479.81,337.05c3.29-1.1,13.42-1.91,25.34-1.91s22.06.82,25.35,1.91c.68-.27,1.1-.54,1.1-.82,0-1.5-11.78-2.74-26.44-2.74s-26.44,1.24-26.44,2.74c-.14.41.27.69,1.1.82"/><path id="Path_197986" data-name="Path 197986" class="cls-26" d="M475.29,326.23v9.59c0,3.29,14.93,6,33.29,6s33.29-2.74,33.29-6v-9.59Z"/><g id="Group_14647" data-name="Group 14647"><g class="cls-30"><g id="Group_14635" data-name="Group 14635"><rect id="Rectangle_8045" data-name="Rectangle 8045" class="cls-28" x="476.11" y="322.26" width="1.51" height="21.92"/></g></g><g class="cls-30"><g id="Group_14636" data-name="Group 14636"><rect id="Rectangle_8046" data-name="Rectangle 8046" class="cls-28" x="480.22" y="322.26" width="1.51" height="21.92"/></g></g><g class="cls-30"><g id="Group_14637" data-name="Group 14637"><rect id="Rectangle_8047" data-name="Rectangle 8047" class="cls-28" x="484.88" y="322.26" width="1.51" height="21.92"/></g></g><g class="cls-30"><g id="Group_14638" data-name="Group 14638"><rect id="Rectangle_8048" data-name="Rectangle 8048" class="cls-28" x="490.63" y="322.26" width="1.51" height="21.92"/></g></g><g class="cls-30"><g id="Group_14639" data-name="Group 14639"><rect id="Rectangle_8049" data-name="Rectangle 8049" class="cls-28" x="497.07" y="322.26" width="1.64" height="21.92"/></g></g><g class="cls-30"><g id="Group_14640" data-name="Group 14640"><rect id="Rectangle_8050" data-name="Rectangle 8050" class="cls-28" x="503.92" y="322.26" width="1.51" height="21.92"/></g></g><g class="cls-30"><g id="Group_14641" data-name="Group 14641"><rect id="Rectangle_8051" data-name="Rectangle 8051" class="cls-28" x="539.54" y="322.26" width="1.51" height="21.92"/></g></g><g class="cls-30"><g id="Group_14642" data-name="Group 14642"><rect id="Rectangle_8052" data-name="Rectangle 8052" class="cls-28" x="535.43" y="322.26" width="1.51" height="21.92"/></g></g><g class="cls-30"><g id="Group_14643" data-name="Group 14643"><rect id="Rectangle_8053" data-name="Rectangle 8053" class="cls-28" x="530.78" y="322.26" width="1.51" height="21.92"/></g></g><g class="cls-30"><g id="Group_14644" data-name="Group 14644"><rect id="Rectangle_8054" data-name="Rectangle 8054" class="cls-28" x="525.02" y="322.26" width="1.51" height="21.92"/></g></g><g class="cls-30"><g id="Group_14645" data-name="Group 14645"><rect id="Rectangle_8055" data-name="Rectangle 8055" class="cls-28" x="518.58" y="322.26" width="1.51" height="21.92"/></g></g><g class="cls-30"><g id="Group_14646" data-name="Group 14646"><rect id="Rectangle_8056" data-name="Rectangle 8056" class="cls-28" x="511.6" y="322.26" width="1.51" height="21.92"/></g></g></g><path id="Path_197988" data-name="Path 197988" class="cls-29" d="M541.87,326.09c0,3.29-14.93,6-33.29,6s-33.29-2.74-33.29-6,14.93-6,33.29-6,33.29,2.74,33.29,6"/><path id="Path_197989" data-name="Path 197989" class="cls-24" d="M535,325.41c0,1.51-11.78,2.74-26.44,2.74s-26.44-1.23-26.44-2.74,11.78-2.74,26.44-2.74S535,323.9,535,325.41"/><path id="Path_197990" data-name="Path 197990" class="cls-25" d="M483.24,326.23c3.29-1.1,13.43-1.92,25.35-1.92s22.05.83,25.34,1.92c.69-.27,1.1-.55,1.1-.82,0-1.51-11.78-2.74-26.44-2.74s-26.44,1.23-26.44,2.74c0,.27.41.55,1.1.82"/><path id="Path_197991" data-name="Path 197991" class="cls-26" d="M470.36,314.45V324c0,3.29,14.93,6,33.29,6s33.29-2.74,33.29-6v-9.59Z"/><g id="Group_14660" data-name="Group 14660"><g class="cls-31"><g id="Group_14648" data-name="Group 14648"><rect id="Rectangle_8058" data-name="Rectangle 8058" class="cls-28" x="471.04" y="310.48" width="1.51" height="21.92"/></g></g><g class="cls-31"><g id="Group_14649" data-name="Group 14649"><rect id="Rectangle_8059" data-name="Rectangle 8059" class="cls-28" x="475.15" y="310.48" width="1.51" height="21.92"/></g></g><g class="cls-31"><g id="Group_14650" data-name="Group 14650"><rect id="Rectangle_8060" data-name="Rectangle 8060" class="cls-28" x="479.81" y="310.48" width="1.51" height="21.92"/></g></g><g class="cls-31"><g id="Group_14651" data-name="Group 14651"><rect id="Rectangle_8061" data-name="Rectangle 8061" class="cls-28" x="485.7" y="310.48" width="1.51" height="21.92"/></g></g><g class="cls-31"><g id="Group_14652" data-name="Group 14652"><rect id="Rectangle_8062" data-name="Rectangle 8062" class="cls-28" x="492" y="310.48" width="1.51" height="21.92"/></g></g><g class="cls-31"><g id="Group_14653" data-name="Group 14653"><rect id="Rectangle_8063" data-name="Rectangle 8063" class="cls-28" x="498.99" y="310.48" width="1.51" height="21.92"/></g></g><g class="cls-31"><g id="Group_14654" data-name="Group 14654"><rect id="Rectangle_8064" data-name="Rectangle 8064" class="cls-28" x="534.61" y="310.48" width="1.64" height="21.92"/></g></g><g class="cls-31"><g id="Group_14655" data-name="Group 14655"><rect id="Rectangle_8065" data-name="Rectangle 8065" class="cls-28" x="530.5" y="310.48" width="1.51" height="21.92"/></g></g><g class="cls-31"><g id="Group_14656" data-name="Group 14656"><rect id="Rectangle_8066" data-name="Rectangle 8066" class="cls-28" x="525.84" y="310.48" width="1.51" height="21.92"/></g></g><g class="cls-31"><g id="Group_14657" data-name="Group 14657"><rect id="Rectangle_8067" data-name="Rectangle 8067" class="cls-28" x="519.95" y="310.48" width="1.51" height="21.92"/></g></g><g class="cls-31"><g id="Group_14658" data-name="Group 14658"><rect id="Rectangle_8068" data-name="Rectangle 8068" class="cls-28" x="513.65" y="310.48" width="1.51" height="21.92"/></g></g><g class="cls-31"><g id="Group_14659" data-name="Group 14659"><rect id="Rectangle_8069" data-name="Rectangle 8069" class="cls-28" x="506.66" y="310.48" width="1.64" height="21.92"/></g></g></g><path id="Path_197993" data-name="Path 197993" class="cls-29" d="M536.8,314.31c0,3.29-14.93,6-33.29,6s-33.29-2.74-33.29-6,14.93-6,33.29-6,33.29,2.6,33.29,6"/><path id="Path_197994" data-name="Path 197994" class="cls-24" d="M530.09,313.63c0,1.5-11.78,2.74-26.44,2.74s-26.44-1.24-26.44-2.74,11.78-2.74,26.44-2.74,26.44,1.23,26.44,2.74"/><path id="Path_197995" data-name="Path 197995" class="cls-25" d="M478.31,314.45c3.29-1.1,13.42-1.92,25.34-1.92s22.06.82,25.35,1.92c.68-.27,1.1-.55,1.1-.82,0-1.51-11.78-2.74-26.44-2.74s-26.45,1.23-26.45,2.74c0,.27.41.55,1.1.82"/><path id="Path_197996" data-name="Path 197996" class="cls-26" d="M472.82,302.8v9.59c0,3.29,14.94,6,33.3,6s33.29-2.74,33.29-6V302.8Z"/><g id="Group_14673" data-name="Group 14673"><g class="cls-32"><g id="Group_14661" data-name="Group 14661"><rect id="Rectangle_8071" data-name="Rectangle 8071" class="cls-28" x="473.51" y="298.83" width="1.51" height="21.92"/></g></g><g class="cls-32"><g id="Group_14662" data-name="Group 14662"><rect id="Rectangle_8072" data-name="Rectangle 8072" class="cls-28" x="477.62" y="298.83" width="1.51" height="21.92"/></g></g><g class="cls-32"><g id="Group_14663" data-name="Group 14663"><rect id="Rectangle_8073" data-name="Rectangle 8073" class="cls-28" x="482.28" y="298.83" width="1.51" height="21.92"/></g></g><g class="cls-32"><g id="Group_14664" data-name="Group 14664"><rect id="Rectangle_8074" data-name="Rectangle 8074" class="cls-28" x="488.03" y="298.83" width="1.51" height="21.92"/></g></g><g class="cls-32"><g id="Group_14665" data-name="Group 14665"><rect id="Rectangle_8075" data-name="Rectangle 8075" class="cls-28" x="494.47" y="298.83" width="1.51" height="21.92"/></g></g><g class="cls-32"><g id="Group_14666" data-name="Group 14666"><rect id="Rectangle_8076" data-name="Rectangle 8076" class="cls-28" x="501.46" y="298.83" width="1.51" height="21.92"/></g></g><g class="cls-32"><g id="Group_14667" data-name="Group 14667"><rect id="Rectangle_8077" data-name="Rectangle 8077" class="cls-28" x="536.94" y="298.83" width="1.51" height="21.92"/></g></g><g class="cls-32"><g id="Group_14668" data-name="Group 14668"><rect id="Rectangle_8078" data-name="Rectangle 8078" class="cls-28" x="532.97" y="298.83" width="1.51" height="21.92"/></g></g><g class="cls-32"><g id="Group_14669" data-name="Group 14669"><rect id="Rectangle_8079" data-name="Rectangle 8079" class="cls-28" x="528.31" y="298.83" width="1.51" height="21.92"/></g></g><g class="cls-32"><g id="Group_14670" data-name="Group 14670"><rect id="Rectangle_8080" data-name="Rectangle 8080" class="cls-28" x="522.42" y="298.83" width="1.51" height="21.92"/></g></g><g class="cls-32"><g id="Group_14671" data-name="Group 14671"><rect id="Rectangle_8081" data-name="Rectangle 8081" class="cls-28" x="515.98" y="298.83" width="1.51" height="21.92"/></g></g><g class="cls-32"><g id="Group_14672" data-name="Group 14672"><rect id="Rectangle_8082" data-name="Rectangle 8082" class="cls-28" x="509.13" y="298.83" width="1.51" height="21.92"/></g></g></g><path id="Path_197998" data-name="Path 197998" class="cls-29" d="M539.27,302.53c0,3.29-14.93,6-33.29,6s-33.29-2.74-33.29-6,14.93-6,33.29-6,33.29,2.74,33.29,6"/><path id="Path_197999" data-name="Path 197999" class="cls-24" d="M532.42,302c0,1.51-11.78,2.74-26.44,2.74s-26.44-1.23-26.44-2.74,11.78-2.74,26.44-2.74,26.44,1.24,26.44,2.74"/><path id="Path_198000" data-name="Path 198000" class="cls-25" d="M480.77,302.8c3.29-1.1,13.43-1.91,25.35-1.91s22.06.82,25.34,1.91c.69-.27,1.1-.54,1.1-.82,0-1.5-11.78-2.74-26.44-2.74s-26.44,1.24-26.44,2.74c0,.28.28.55,1.1.82"/><path id="Path_198001" data-name="Path 198001" class="cls-26" d="M469,291.84v9.59c0,3.29,14.93,6,33.29,6s33.29-2.74,33.29-6v-9.59Z"/><g id="Group_14686" data-name="Group 14686"><g class="cls-33"><g id="Group_14674" data-name="Group 14674"><rect id="Rectangle_8084" data-name="Rectangle 8084" class="cls-28" x="469.67" y="287.87" width="1.64" height="21.92"/></g></g><g class="cls-33"><g id="Group_14675" data-name="Group 14675"><rect id="Rectangle_8085" data-name="Rectangle 8085" class="cls-28" x="473.78" y="287.87" width="1.51" height="21.92"/></g></g><g class="cls-33"><g id="Group_14676" data-name="Group 14676"><rect id="Rectangle_8086" data-name="Rectangle 8086" class="cls-28" x="478.44" y="287.87" width="1.51" height="21.92"/></g></g><g class="cls-33"><g id="Group_14677" data-name="Group 14677"><rect id="Rectangle_8087" data-name="Rectangle 8087" class="cls-28" x="484.33" y="287.87" width="1.51" height="21.92"/></g></g><g class="cls-33"><g id="Group_14678" data-name="Group 14678"><rect id="Rectangle_8088" data-name="Rectangle 8088" class="cls-28" x="490.63" y="287.87" width="1.51" height="21.92"/></g></g><g class="cls-33"><g id="Group_14679" data-name="Group 14679"><rect id="Rectangle_8089" data-name="Rectangle 8089" class="cls-28" x="497.62" y="287.87" width="1.51" height="21.92"/></g></g><g class="cls-33"><g id="Group_14680" data-name="Group 14680"><rect id="Rectangle_8090" data-name="Rectangle 8090" class="cls-28" x="533.24" y="287.87" width="1.51" height="21.92"/></g></g><g class="cls-33"><g id="Group_14681" data-name="Group 14681"><rect id="Rectangle_8091" data-name="Rectangle 8091" class="cls-28" x="529.13" y="287.87" width="1.51" height="21.92"/></g></g><g class="cls-33"><g id="Group_14682" data-name="Group 14682"><rect id="Rectangle_8092" data-name="Rectangle 8092" class="cls-28" x="524.47" y="287.87" width="1.51" height="21.92"/></g></g><g class="cls-33"><g id="Group_14683" data-name="Group 14683"><rect id="Rectangle_8093" data-name="Rectangle 8093" class="cls-28" x="518.58" y="287.87" width="1.51" height="21.92"/></g></g><g class="cls-33"><g id="Group_14684" data-name="Group 14684"><rect id="Rectangle_8094" data-name="Rectangle 8094" class="cls-28" x="512.28" y="287.87" width="1.64" height="21.92"/></g></g><g class="cls-33"><g id="Group_14685" data-name="Group 14685"><rect id="Rectangle_8095" data-name="Rectangle 8095" class="cls-28" x="505.29" y="287.87" width="1.51" height="21.92"/></g></g></g><path id="Path_198003" data-name="Path 198003" class="cls-29" d="M535.43,291.71c0,3.29-14.93,6-33.29,6s-33.29-2.74-33.29-6,14.93-6,33.29-6,33.29,2.74,33.29,6"/><path id="Path_198004" data-name="Path 198004" class="cls-24" d="M528.72,291c0,1.51-11.78,2.74-26.44,2.74s-26.44-1.23-26.44-2.74,11.78-2.74,26.44-2.74,26.44,1.24,26.44,2.74"/><path id="Path_198005" data-name="Path 198005" class="cls-25" d="M476.94,291.84c3.29-1.1,13.42-1.91,25.34-1.91s22.06.82,25.35,1.91c.68-.27,1.1-.54,1.1-.82,0-1.5-11.78-2.74-26.44-2.74s-26.45,1.24-26.45,2.74c0,.28.41.55,1.1.83"/><path id="Path_198006" data-name="Path 198006" class="cls-26" d="M472.28,281v9.59c0,3.29,14.93,6,33.29,6s33.29-2.74,33.29-6V281Z"/><g id="Group_14699" data-name="Group 14699"><g class="cls-34"><g id="Group_14687" data-name="Group 14687"><rect id="Rectangle_8097" data-name="Rectangle 8097" class="cls-28" x="472.96" y="277.05" width="1.51" height="21.92"/></g></g><g class="cls-34"><g id="Group_14688" data-name="Group 14688"><rect id="Rectangle_8098" data-name="Rectangle 8098" class="cls-28" x="477.07" y="277.05" width="1.51" height="21.92"/></g></g><g class="cls-34"><g id="Group_14689" data-name="Group 14689"><rect id="Rectangle_8099" data-name="Rectangle 8099" class="cls-28" x="481.73" y="277.05" width="1.51" height="21.92"/></g></g><g class="cls-34"><g id="Group_14690" data-name="Group 14690"><rect id="Rectangle_8100" data-name="Rectangle 8100" class="cls-28" x="487.48" y="277.05" width="1.51" height="21.92"/></g></g><g class="cls-34"><g id="Group_14691" data-name="Group 14691"><rect id="Rectangle_8101" data-name="Rectangle 8101" class="cls-28" x="493.92" y="277.05" width="1.64" height="21.92"/></g></g><g class="cls-34"><g id="Group_14692" data-name="Group 14692"><rect id="Rectangle_8102" data-name="Rectangle 8102" class="cls-28" x="500.91" y="277.05" width="1.51" height="21.92"/></g></g><g class="cls-34"><g id="Group_14693" data-name="Group 14693"><rect id="Rectangle_8103" data-name="Rectangle 8103" class="cls-28" x="536.39" y="277.05" width="1.51" height="21.92"/></g></g><g class="cls-34"><g id="Group_14694" data-name="Group 14694"><rect id="Rectangle_8104" data-name="Rectangle 8104" class="cls-28" x="532.28" y="277.05" width="1.51" height="21.92"/></g></g><g class="cls-34"><g id="Group_14695" data-name="Group 14695"><rect id="Rectangle_8105" data-name="Rectangle 8105" class="cls-28" x="527.62" y="277.05" width="1.51" height="21.92"/></g></g><g class="cls-34"><g id="Group_14696" data-name="Group 14696"><rect id="Rectangle_8106" data-name="Rectangle 8106" class="cls-28" x="521.87" y="277.05" width="1.51" height="21.92"/></g></g><g class="cls-34"><g id="Group_14697" data-name="Group 14697"><rect id="Rectangle_8107" data-name="Rectangle 8107" class="cls-28" x="515.43" y="277.05" width="1.51" height="21.92"/></g></g><g class="cls-34"><g id="Group_14698" data-name="Group 14698"><rect id="Rectangle_8108" data-name="Rectangle 8108" class="cls-28" x="508.44" y="277.05" width="1.51" height="21.92"/></g></g></g><path id="Path_198008" data-name="Path 198008" class="cls-29" d="M538.72,280.88c0,3.29-14.93,6-33.29,6s-33.29-2.74-33.29-6,14.93-6,33.29-6,33.29,2.6,33.29,6"/><path id="Path_198009" data-name="Path 198009" class="cls-24" d="M531.87,280.2c0,1.51-11.78,2.74-26.44,2.74S479,281.71,479,280.2s11.78-2.74,26.44-2.74,26.44,1.23,26.44,2.74"/><path id="Path_198010" data-name="Path 198010" class="cls-25" d="M480.22,281c3.29-1.1,13.43-1.92,25.34-1.92s22.06.83,25.35,1.92c.68-.27,1.1-.55,1.1-.82,0-1.51-11.78-2.74-26.44-2.74s-26.44,1.23-26.44,2.74c-.14.27.27.55,1.1.82"/><path id="Path_198011" data-name="Path 198011" class="cls-26" d="M469,269.1v9.59c0,3.29,14.93,6,33.29,6s33.29-2.74,33.29-6V269.1Z"/><g id="Group_14712" data-name="Group 14712"><g class="cls-35"><g id="Group_14700" data-name="Group 14700"><rect id="Rectangle_8110" data-name="Rectangle 8110" class="cls-28" x="469.67" y="265.13" width="1.64" height="21.92"/></g></g><g class="cls-35"><g id="Group_14701" data-name="Group 14701"><rect id="Rectangle_8111" data-name="Rectangle 8111" class="cls-28" x="473.78" y="265.13" width="1.51" height="21.92"/></g></g><g class="cls-35"><g id="Group_14702" data-name="Group 14702"><rect id="Rectangle_8112" data-name="Rectangle 8112" class="cls-28" x="478.44" y="265.13" width="1.51" height="21.92"/></g></g><g class="cls-35"><g id="Group_14703" data-name="Group 14703"><rect id="Rectangle_8113" data-name="Rectangle 8113" class="cls-28" x="484.33" y="265.13" width="1.51" height="21.92"/></g></g><g class="cls-35"><g id="Group_14704" data-name="Group 14704"><rect id="Rectangle_8114" data-name="Rectangle 8114" class="cls-28" x="490.63" y="265.13" width="1.51" height="21.92"/></g></g><g class="cls-35"><g id="Group_14705" data-name="Group 14705"><rect id="Rectangle_8115" data-name="Rectangle 8115" class="cls-28" x="497.62" y="265.13" width="1.51" height="21.92"/></g></g><g class="cls-35"><g id="Group_14706" data-name="Group 14706"><rect id="Rectangle_8116" data-name="Rectangle 8116" class="cls-28" x="533.24" y="265.13" width="1.51" height="21.92"/></g></g><g class="cls-35"><g id="Group_14707" data-name="Group 14707"><rect id="Rectangle_8117" data-name="Rectangle 8117" class="cls-28" x="529.13" y="265.13" width="1.51" height="21.92"/></g></g><g class="cls-35"><g id="Group_14708" data-name="Group 14708"><rect id="Rectangle_8118" data-name="Rectangle 8118" class="cls-28" x="524.47" y="265.13" width="1.51" height="21.92"/></g></g><g class="cls-35"><g id="Group_14709" data-name="Group 14709"><rect id="Rectangle_8119" data-name="Rectangle 8119" class="cls-28" x="518.58" y="265.13" width="1.51" height="21.92"/></g></g><g class="cls-35"><g id="Group_14710" data-name="Group 14710"><rect id="Rectangle_8120" data-name="Rectangle 8120" class="cls-28" x="512.28" y="265.13" width="1.64" height="21.92"/></g></g><g class="cls-35"><g id="Group_14711" data-name="Group 14711"><rect id="Rectangle_8121" data-name="Rectangle 8121" class="cls-28" x="505.29" y="265.13" width="1.51" height="21.92"/></g></g></g><path id="Path_198013" data-name="Path 198013" class="cls-29" d="M535.43,269c0,3.28-14.93,6-33.29,6s-33.29-2.74-33.29-6,14.93-6,33.29-6,33.29,2.74,33.29,6"/><path id="Path_198014" data-name="Path 198014" class="cls-24" d="M528.72,268.28c0,1.51-11.78,2.74-26.44,2.74s-26.44-1.23-26.44-2.74,11.78-2.74,26.44-2.74,26.44,1.23,26.44,2.74"/><path id="Path_198015" data-name="Path 198015" class="cls-25" d="M476.94,269.1c3.29-1.1,13.42-1.92,25.34-1.92s22.06.83,25.35,1.92c.68-.27,1.1-.55,1.1-.82,0-1.51-11.78-2.74-26.44-2.74s-26.45,1.23-26.45,2.74c0,.27.41.55,1.1.82"/><path id="Path_198016" data-name="Path 198016" class="cls-26" d="M475.29,258.55v9.59c0,3.29,14.93,6,33.29,6s33.29-2.74,33.29-6v-9.59Z"/><g id="Group_14725" data-name="Group 14725"><g class="cls-36"><g id="Group_14713" data-name="Group 14713"><rect id="Rectangle_8123" data-name="Rectangle 8123" class="cls-28" x="476.11" y="254.58" width="1.51" height="21.92"/></g></g><g class="cls-36"><g id="Group_14714" data-name="Group 14714"><rect id="Rectangle_8124" data-name="Rectangle 8124" class="cls-28" x="480.22" y="254.58" width="1.51" height="21.92"/></g></g><g class="cls-36"><g id="Group_14715" data-name="Group 14715"><rect id="Rectangle_8125" data-name="Rectangle 8125" class="cls-28" x="484.88" y="254.58" width="1.51" height="21.92"/></g></g><g class="cls-36"><g id="Group_14716" data-name="Group 14716"><rect id="Rectangle_8126" data-name="Rectangle 8126" class="cls-28" x="490.63" y="254.58" width="1.51" height="21.92"/></g></g><g class="cls-36"><g id="Group_14717" data-name="Group 14717"><rect id="Rectangle_8127" data-name="Rectangle 8127" class="cls-28" x="497.07" y="254.58" width="1.64" height="21.92"/></g></g><g class="cls-36"><g id="Group_14718" data-name="Group 14718"><rect id="Rectangle_8128" data-name="Rectangle 8128" class="cls-28" x="503.92" y="254.58" width="1.51" height="21.92"/></g></g><g class="cls-36"><g id="Group_14719" data-name="Group 14719"><rect id="Rectangle_8129" data-name="Rectangle 8129" class="cls-28" x="539.54" y="254.58" width="1.51" height="21.92"/></g></g><g class="cls-36"><g id="Group_14720" data-name="Group 14720"><rect id="Rectangle_8130" data-name="Rectangle 8130" class="cls-28" x="535.43" y="254.58" width="1.51" height="21.92"/></g></g><g class="cls-36"><g id="Group_14721" data-name="Group 14721"><rect id="Rectangle_8131" data-name="Rectangle 8131" class="cls-28" x="530.78" y="254.58" width="1.51" height="21.92"/></g></g><g class="cls-36"><g id="Group_14722" data-name="Group 14722"><rect id="Rectangle_8132" data-name="Rectangle 8132" class="cls-28" x="525.02" y="254.58" width="1.51" height="21.92"/></g></g><g class="cls-36"><g id="Group_14723" data-name="Group 14723"><rect id="Rectangle_8133" data-name="Rectangle 8133" class="cls-28" x="518.58" y="254.58" width="1.51" height="21.92"/></g></g><g class="cls-36"><g id="Group_14724" data-name="Group 14724"><rect id="Rectangle_8134" data-name="Rectangle 8134" class="cls-28" x="511.6" y="254.58" width="1.51" height="21.92"/></g></g></g><path id="Path_198018" data-name="Path 198018" class="cls-29" d="M541.87,258.42c0,3.28-14.93,6-33.29,6s-33.29-2.74-33.29-6,14.93-6,33.29-6,33.29,2.74,33.29,6"/><path id="Path_198019" data-name="Path 198019" class="cls-24" d="M535,257.87c0,1.51-11.78,2.74-26.44,2.74s-26.44-1.23-26.44-2.74,11.78-2.74,26.44-2.74,26.44,1.1,26.44,2.74"/><path id="Path_198020" data-name="Path 198020" class="cls-25" d="M483.24,258.55c3.29-1.1,13.43-1.91,25.35-1.91s22.05.82,25.34,1.91c.69-.27,1.1-.54,1.1-.82,0-1.51-11.78-2.74-26.44-2.74s-26.44,1.23-26.44,2.74c0,.41.41.69,1.1.82"/><path id="Path_198021" data-name="Path 198021" class="cls-26" d="M471.73,247.05v9.59c0,3.28,14.93,6,33.29,6s33.29-2.74,33.29-6v-9.59Z"/><g id="Group_14738" data-name="Group 14738"><g class="cls-37"><g id="Group_14726" data-name="Group 14726"><rect id="Rectangle_8136" data-name="Rectangle 8136" class="cls-28" x="472.41" y="243.07" width="1.51" height="21.92"/></g></g><g class="cls-37"><g id="Group_14727" data-name="Group 14727"><rect id="Rectangle_8137" data-name="Rectangle 8137" class="cls-28" x="476.52" y="243.07" width="1.51" height="21.92"/></g></g><g class="cls-37"><g id="Group_14728" data-name="Group 14728"><rect id="Rectangle_8138" data-name="Rectangle 8138" class="cls-28" x="481.18" y="243.07" width="1.51" height="21.92"/></g></g><g class="cls-37"><g id="Group_14729" data-name="Group 14729"><rect id="Rectangle_8139" data-name="Rectangle 8139" class="cls-28" x="486.94" y="243.07" width="1.51" height="21.92"/></g></g><g class="cls-37"><g id="Group_14730" data-name="Group 14730"><rect id="Rectangle_8140" data-name="Rectangle 8140" class="cls-28" x="493.37" y="243.07" width="1.51" height="21.92"/></g></g><g class="cls-37"><g id="Group_14731" data-name="Group 14731"><rect id="Rectangle_8141" data-name="Rectangle 8141" class="cls-28" x="500.36" y="243.07" width="1.51" height="21.92"/></g></g><g class="cls-37"><g id="Group_14732" data-name="Group 14732"><rect id="Rectangle_8142" data-name="Rectangle 8142" class="cls-28" x="535.84" y="243.07" width="1.51" height="21.92"/></g></g><g class="cls-37"><g id="Group_14733" data-name="Group 14733"><rect id="Rectangle_8143" data-name="Rectangle 8143" class="cls-28" x="531.87" y="243.07" width="1.51" height="21.92"/></g></g><g class="cls-37"><g id="Group_14734" data-name="Group 14734"><rect id="Rectangle_8144" data-name="Rectangle 8144" class="cls-28" x="527.08" y="243.07" width="1.64" height="21.92"/></g></g><g class="cls-37"><g id="Group_14735" data-name="Group 14735"><rect id="Rectangle_8145" data-name="Rectangle 8145" class="cls-28" x="521.32" y="243.07" width="1.51" height="21.92"/></g></g><g class="cls-37"><g id="Group_14736" data-name="Group 14736"><rect id="Rectangle_8146" data-name="Rectangle 8146" class="cls-28" x="514.88" y="243.07" width="1.51" height="21.92"/></g></g><g class="cls-37"><g id="Group_14737" data-name="Group 14737"><rect id="Rectangle_8147" data-name="Rectangle 8147" class="cls-28" x="508.03" y="243.07" width="1.51" height="21.92"/></g></g></g><path id="Path_198023" data-name="Path 198023" class="cls-29" d="M538.17,246.91c0,3.29-14.93,6-33.29,6s-33.29-2.74-33.29-6,14.93-6,33.29-6,33.29,2.74,33.29,6"/><path id="Path_198024" data-name="Path 198024" class="cls-24" d="M531.32,246.22c0,1.51-11.78,2.74-26.44,2.74s-26.44-1.23-26.44-2.74,11.78-2.74,26.44-2.74,26.44,1.24,26.44,2.74"/><path id="Path_198025" data-name="Path 198025" class="cls-25" d="M479.67,247.05c3.29-1.1,13.43-1.92,25.35-1.92s22.05.82,25.34,1.92c.69-.28,1.1-.55,1.1-.83,0-1.5-11.78-2.74-26.44-2.74s-26.44,1.24-26.44,2.74c-.14.28.27.55,1.1.83"/><path id="Path_198026" data-name="Path 198026" class="cls-26" d="M475.29,236.22v9.59c0,3.29,14.93,6,33.29,6s33.29-2.74,33.29-6v-9.59Z"/><g id="Group_14751" data-name="Group 14751"><g class="cls-38"><g id="Group_14739" data-name="Group 14739"><rect id="Rectangle_8149" data-name="Rectangle 8149" class="cls-28" x="476.11" y="232.25" width="1.51" height="21.92"/></g></g><g class="cls-38"><g id="Group_14740" data-name="Group 14740"><rect id="Rectangle_8150" data-name="Rectangle 8150" class="cls-28" x="480.22" y="232.25" width="1.51" height="21.92"/></g></g><g class="cls-38"><g id="Group_14741" data-name="Group 14741"><rect id="Rectangle_8151" data-name="Rectangle 8151" class="cls-28" x="484.88" y="232.25" width="1.51" height="21.92"/></g></g><g class="cls-38"><g id="Group_14742" data-name="Group 14742"><rect id="Rectangle_8152" data-name="Rectangle 8152" class="cls-28" x="490.63" y="232.25" width="1.51" height="21.92"/></g></g><g class="cls-38"><g id="Group_14743" data-name="Group 14743"><rect id="Rectangle_8153" data-name="Rectangle 8153" class="cls-28" x="497.07" y="232.25" width="1.64" height="21.92"/></g></g><g class="cls-38"><g id="Group_14744" data-name="Group 14744"><rect id="Rectangle_8154" data-name="Rectangle 8154" class="cls-28" x="503.92" y="232.25" width="1.51" height="21.92"/></g></g><g class="cls-38"><g id="Group_14745" data-name="Group 14745"><rect id="Rectangle_8155" data-name="Rectangle 8155" class="cls-28" x="539.54" y="232.25" width="1.51" height="21.92"/></g></g><g class="cls-38"><g id="Group_14746" data-name="Group 14746"><rect id="Rectangle_8156" data-name="Rectangle 8156" class="cls-28" x="535.43" y="232.25" width="1.51" height="21.92"/></g></g><g class="cls-38"><g id="Group_14747" data-name="Group 14747"><rect id="Rectangle_8157" data-name="Rectangle 8157" class="cls-28" x="530.78" y="232.25" width="1.51" height="21.92"/></g></g><g class="cls-38"><g id="Group_14748" data-name="Group 14748"><rect id="Rectangle_8158" data-name="Rectangle 8158" class="cls-28" x="525.02" y="232.25" width="1.51" height="21.92"/></g></g><g class="cls-38"><g id="Group_14749" data-name="Group 14749"><rect id="Rectangle_8159" data-name="Rectangle 8159" class="cls-28" x="518.58" y="232.25" width="1.51" height="21.92"/></g></g><g class="cls-38"><g id="Group_14750" data-name="Group 14750"><rect id="Rectangle_8160" data-name="Rectangle 8160" class="cls-28" x="511.6" y="232.25" width="1.51" height="21.92"/></g></g></g><g id="Group_12958" data-name="Group 12958"><g id="Group_14752" data-name="Group 14752"><g class="cls-39"><g id="Group_12957" data-name="Group 12957"><path id="Path_198093" data-name="Path 198093" class="cls-40" d="M538.72,230.74l-1.37,7.95s-8.36,3.15-10.27,3.15-10.42,1.23-10.42,1.23,1.24,6.17.42,9.87S510,285.27,510,285.27l-1.37.82V289a5.55,5.55,0,0,1,1.37,1.78,20.42,20.42,0,0,1,.41,4s-1.78.28-4.11.55c-.68.14-1.37-1.23-2.05-1.23-4.8.68-10.69,2.74-10.69,2.19a3.54,3.54,0,0,1,1.23-2.19l7-1.23,1.64-50s-6.85.55-7.12,1.51.27,6.44.27,8.9c0,2.19-2.87,29.18-2.87,29.18-.41.14-.69.27-1.1.41a3.25,3.25,0,0,0-.28,1.92c.41,1.37,1.65,3.29,1.37,4-.54,1.23-3.42,1.37-3.42,1.37l-2.05-9.59-.82-20.55-1.1-13,2.19-10.54,16.3-3.7,33.3-2.19"/></g></g></g></g><path id="Path_198094" data-name="Path 198094" class="cls-41" d="M486.11,281.84c-.13,1.51,0,2.88,0,4.39.14,1.1,3.84,1,4.25.27s.14-5.89.14-5.89"/><path id="Path_198095" data-name="Path 198095" class="cls-42" d="M491.32,287.6V291l-3.84.82-.41-.68a4.79,4.79,0,0,1-2.19,1.1,15.19,15.19,0,0,1-3.56.27c-3.15-.27-5.21-1.37-5.21-1.78-.41-1.91,8.63-3.28,9.18-4.52.41-.82.14-1.1.69-1a3,3,0,0,1,.82.55,2.21,2.21,0,0,0,2.33,1.1,3.26,3.26,0,0,0,1.5-.82,2,2,0,0,1,.69,1.51"/><path id="Path_198096" data-name="Path 198096" class="cls-43" d="M518.45,238.83c-5.62-.14-20.55,2.19-26.17,2.74.27,2.32,1.51,5.61,1.64,8.76a237.76,237.76,0,0,1-2.46,32.75s-2.2,2.33-5.48-.14c-2.6-14.52-6.17-43.7-4.8-49.46,1.78-7.4,24.52-13.29,38.5-12.19"/><g id="Group_12961" data-name="Group 12961"><g id="Group_14753" data-name="Group 14753"><g id="Group_16000" data-name="Group 16000"><path id="Path_198097" data-name="Path 198097" class="cls-44" d="M519.54,221.15c-8.87-.79-21.5,1.83-28.67,5.9a16.89,16.89,0,0,1,4.25,2.89,7.35,7.35,0,0,1,2.43,5.39,17.08,17.08,0,0,1-.6,5c5.83-.65,17-2.49,21.5-2.36Z"/></g></g></g><path id="Path_198098" data-name="Path 198098" class="cls-41" d="M500,286.36c0,1.51,0,2.88.14,4.39.27,1.1,3.83.82,4.24.14s-.13-5.9-.13-5.9"/><path id="Path_198099" data-name="Path 198099" class="cls-42" d="M505.43,291.84c.14,1.24.14,3.43.14,3.43l-3.7,1-.41-.69a7.14,7.14,0,0,1-2.2,1.24,10.15,10.15,0,0,1-3.56.27c-3.15-.27-5.2-1.23-5.34-1.64-.41-1.92,8.49-3.7,9-4.94.28-1,.14-1.1.69-1,.27.13.68.27.82.54a2.08,2.08,0,0,0,2.33,1,2.3,2.3,0,0,0,1.37-.82,1.81,1.81,0,0,1,.82,1.64"/><path id="Path_198100" data-name="Path 198100" class="cls-43" d="M540.5,221.84c1.51,3.42,2.47,9.59,1,12.33-1.23,2.33-1.92,3.7-4.11,4.52-9.45,3.15-17.67,2.46-28.36,1.92,4.39,11.92-2.46,35.89-3.42,46.71-4,1.78-6.3-.13-6.3-.13.41-21.92-4.39-52.61-1.51-57.95,1.78-3.16,23.29-7.4,23.7-7.4"/><path id="Path_198101" data-name="Path 198101" class="cls-41" d="M464.61,192.25l-2.6-.14a4,4,0,0,0-1.24.27,10.52,10.52,0,0,1-2.19.69,10.19,10.19,0,0,1-4.93-.41c-1.23-.28-.14-1.37,1.64-1.37s.82.27,1.65-.28-.83-1.37-2.2-1.78a18.65,18.65,0,0,1-2.46-1.1,18.44,18.44,0,0,1-3.29-1.51c-.55-.27-1-.82-.41-1s4.25.82,5.07.82,1.23-1.1,3.42-1.1,4.25,2.33,5.35,2.87,4.8.28,4.8.28"/><path id="Path_198102" data-name="Path 198102" class="cls-45" d="M516.12,171s-5.07,0-8.22,2.19c-1.78,1.24-17.27,11.37-19.18,12.33S463.1,188,463.1,188a4,4,0,0,0-1.24,2.74,8.05,8.05,0,0,0,.55,3.15s23.43,2.19,28.36,1.1,24.66-9.45,24.66-9.45"/><path id="Path_198103" data-name="Path 198103" class="cls-46" d="M540.64,222.11c-2.6,6.17-16.17,4-23.43,4.25-6.44.27-8.08-2.06-8.08-2.06.27-9.31,1.78-16.16.27-22.87-2.46-11.51-3.83-25.62-1.64-28.23,4.52-3.42,16.58-6,26-3,7.12,2.19,9.32,4.25,8.9,9.59-.14,1.78-4.8,34.66-2.06,42.33"/><path id="Path_198104" data-name="Path 198104" class="cls-3" d="M530.36,223.62,496,220.88l19.86,9Z"/><path id="Path_198105" data-name="Path 198105" class="cls-47" d="M515.84,230.74l14.39-6,.13-1.23-14.52,6Z"/><path id="Path_198106" data-name="Path 198106" class="cls-41" d="M514.06,218.41l-2.88,1.37a5,5,0,0,0-5.48-.27c-2.87,1.92,0,7.94,2.06,7.53s8.36-4.38,8.36-4.38Z"/><path id="Path_198107" data-name="Path 198107" class="cls-45" d="M514.61,224.3a3.81,3.81,0,0,1-2.19-3,6.85,6.85,0,0,1,.27-2.88s8.08-4.79,13.84-9.18a44.49,44.49,0,0,1,8.35-5.2c-.54-4.94-1-9.87-1.5-14.8-.28-2.6-1-6-.55-8.63.55-3.57,1.78-9.18,6-8.5,7.53,1.23,5.75,17.26,5.48,23.15-.14,4,.13,10.83-2.33,14.12-3.56,5.2-27.4,14.93-27.4,14.93"/><path id="Path_198108" data-name="Path 198108" class="cls-47" d="M515.84,230.74l-31.51-5.07a2.34,2.34,0,0,1-1.92-2.19l-1-22.33a1.85,1.85,0,0,1,1.77-1.92h.42l29.59,4.8a2,2,0,0,1,1.64,1.78Z"/><path id="Path_187022" data-name="Path 187022" class="cls-48" d="M522.56,139.64s-6.58-1.51-8.64.82c-3.42,4-1.5,10.14-1.5,10.14Z"/><path id="Path_187024" data-name="Path 187024" class="cls-4" d="M528,167.45l-1.65-3.84c-4.8,2.06-11.78,7.67-12,7.95v5.34C514.34,177.45,523.79,169.23,528,167.45Z"/><path id="Path_187025" data-name="Path 187025" class="cls-49" d="M514.88,145c-3.83,4.79-3,11.1-1.37,15.21,2.33,5.2,9.46,4.24,13.43.27,3.56-3.56,5.2-9.73,3.15-14a9.23,9.23,0,0,0-12.47-3.84A14.83,14.83,0,0,0,514.88,145Z"/><path id="Path_187026" data-name="Path 187026" class="cls-49" d="M519.82,148.82l8.22.68-1.65,19.73c-.27,3.42-8.9,6.3-8.9,6.3-2.06.14-.83-4.25-.28-7.4Z"/><path id="Path_187027" data-name="Path 187027" class="cls-48" d="M518,144.3s10.14-1.24,7,14.11c-1.78,8.76,18.22-11-.82-18.5-12.33-4.93-11.92,10-11.92,10S513.1,143.34,518,144.3Z"/><path id="Path_187030" data-name="Path 187030" class="cls-4" d="M515.57,179.37v-6.72c4-3.83,12-6.57,12.47-6.71l2.05,3.84C529.82,169.78,519,175.94,515.57,179.37Z"/><path id="Path_187031" data-name="Path 187031" class="cls-48" d="M513.92,145.39s10.83-.27,9.73,6.44c-.55,3.15,4.8,2.6,4.52.28C526.52,135.12,513.92,145.39,513.92,145.39Z"/><path id="Path_187032" data-name="Path 187032" class="cls-49" d="M527.21,156.08a1.76,1.76,0,0,1-2.44.43l0,0c-.14,0-.14-.14-.28-.14a2.29,2.29,0,0,1,.28-3,1.6,1.6,0,0,1,2.23-.48l.1.07c.13,0,.13.13.27.13A2.15,2.15,0,0,1,527.21,156.08Z"/><path id="Path_187068" data-name="Path 187068" class="cls-49" d="M513.38,148.82a16,16,0,0,1-3.29,5.2l4.11,1.65Z"/><path id="Path_187070" data-name="Path 187070" class="cls-48" d="M524.2,152.52s-6.44,4-11.92,2.19c0,0-2.6,8.9,2.06,10.68,4,1.51,10.54-.27,13.42-5.61Z"/></g><g id="Group_14789" data-name="Group 14789"><path id="Path_198115" data-name="Path 198115" class="cls-26" d="M205.32,221.34l4.39-1,11,47.68-4.39,1.1c-11.5,2.6-23.29-5.89-26.44-19.05s4-26.16,15.48-28.77"/><g id="Group_14788" data-name="Group 14788"><g id="Group_12966" data-name="Group 12966"><g id="Group_14760" data-name="Group 14760"><g class="cls-50"><g id="Group_12965" data-name="Group 12965"><rect id="Rectangle_8181" data-name="Rectangle 8181" class="cls-51" x="191.79" y="270.33" width="29.18" height="1.23" transform="translate(-55.56 53.25) rotate(-12.97)"/><rect id="Rectangle_8182" data-name="Rectangle 8182" class="cls-51" x="189.84" y="268.61" width="29.17" height="1.23" transform="translate(-55.35 52.92) rotate(-13.01)"/><rect id="Rectangle_8183" data-name="Rectangle 8183" class="cls-51" x="189.02" y="264.03" width="29.18" height="1.23" transform="translate(-54.11 52.33) rotate(-12.94)"/><rect id="Rectangle_8184" data-name="Rectangle 8184" class="cls-51" x="189.47" y="259.56" width="29.17" height="1.23" transform="translate(-53.32 52.61) rotate(-13.01)"/><rect id="Rectangle_8185" data-name="Rectangle 8185" class="cls-51" x="187.46" y="255.7" width="29.17" height="1.23" transform="translate(-52.51 52.05) rotate(-13.01)"/><rect id="Rectangle_8186" data-name="Rectangle 8186" class="cls-51" x="186.9" y="249.98" width="29.18" height="1.23" transform="translate(-51.18 51.71) rotate(-12.99)"/><rect id="Rectangle_8187" data-name="Rectangle 8187" class="cls-51" x="181.11" y="222.33" width="29.19" height="1.23" transform="translate(-44.95 49.48) rotate(-12.94)"/><rect id="Rectangle_8188" data-name="Rectangle 8188" class="cls-51" x="181.87" y="226.32" width="29.18" height="1.23" transform="translate(-45.99 49.97) rotate(-12.99)"/><rect id="Rectangle_8189" data-name="Rectangle 8189" class="cls-51" x="181.08" y="230.53" width="29.17" height="1.23" transform="translate(-47 49.97) rotate(-13.01)"/><rect id="Rectangle_8190" data-name="Rectangle 8190" class="cls-51" x="182.18" y="234.89" width="29.17" height="1.23" transform="translate(-47.96 50.33) rotate(-13.01)"/><rect id="Rectangle_8191" data-name="Rectangle 8191" class="cls-51" x="183.27" y="239.68" width="29.17" height="1.23" transform="translate(-49.01 50.7) rotate(-13.01)"/><rect id="Rectangle_8192" data-name="Rectangle 8192" class="cls-51" x="184.87" y="244.76" width="29.17" height="1.23" transform="translate(-50.11 51.19) rotate(-13.01)"/></g></g></g></g><path id="Path_198117" data-name="Path 198117" class="cls-29" d="M195.19,248.88c3,13.15,14.8,21.78,26.44,19S240,252.44,237,239.29s-14.8-21.79-26.44-19-18.36,15.35-15.34,28.64"/><path id="Path_198118" data-name="Path 198118" class="cls-52" d="M236.29,240.11c-3-13.15-14.8-21.78-26.45-19A19.8,19.8,0,0,0,198.2,229a19.55,19.55,0,0,1,12.33-8.9c11.51-2.6,23.29,5.89,26.44,19a25.24,25.24,0,0,1-3.84,20.68,25.45,25.45,0,0,0,3.16-19.73"/><path id="Path_198119" data-name="Path 198119" class="cls-52" d="M220.26,263.12c8.63-1.91,13.7-11.91,11.37-22.19s-11.24-17-19.87-14.93-13.7,11.92-11.37,22.19,11.24,16.85,19.87,14.93"/><path id="Path_198120" data-name="Path 198120" class="cls-24" d="M220.26,262.58c8.63-1.92,13.7-11.92,11.37-22.2s-11.24-17-19.87-14.93-13.7,11.92-11.37,22.19,11.37,16.85,19.87,14.94"/><path id="Path_198121" data-name="Path 198121" class="cls-25" d="M218.48,262c8.63-1.92,13.7-11.92,11.37-22.2-1.65-6.85-6.17-12.19-11.65-14.38,6.3,1.51,11.78,7.26,13.43,14.93,2.33,10.28-2.74,20.14-11.37,22.2a13.1,13.1,0,0,1-8.22-.69,14.58,14.58,0,0,0,6.44.14"/><path id="Path_198122" data-name="Path 198122" class="cls-25" d="M215.46,234.22a11.46,11.46,0,0,1,2.19.14,10,10,0,0,1,1.92.68,4.84,4.84,0,0,1,1.37,1,2,2,0,0,1,.82,1.23v.41a.3.3,0,0,1-.27.28l-3.15,1c-.14,0-.41.13-.55.13s-.41-.13-.55-.13a.42.42,0,0,0-.27-.14c-.14-.14-.41-.14-.55-.27s-.55-.14-.82-.14-.82.14-1.1.14-.55.13-.82.27a2.68,2.68,0,0,0-.69.41,1.84,1.84,0,0,0-.41.55.6.6,0,0,0,0,.68c0,.28.27.41.41.55a2,2,0,0,0,1,.28h1.51a16.65,16.65,0,0,0,2.33-.28,8.1,8.1,0,0,1,2.6,0,5.63,5.63,0,0,1,2.05.55,6.1,6.1,0,0,1,1.51,1.1,8.41,8.41,0,0,1,1,1.92,3.5,3.5,0,0,1,.13,2.05,5.25,5.25,0,0,1-.68,1.92,7.71,7.71,0,0,1-1.37,1.64,7.48,7.48,0,0,1-2.06,1.37l.55,1.79v.54c-.13.14-.27.28-.41.28l-3.15,1h-.55c-.13-.14-.27-.28-.27-.41l-.55-1.79a13,13,0,0,1-2.33-.13,4.72,4.72,0,0,1-1.92-.69,6,6,0,0,1-1.5-1.1,2.86,2.86,0,0,1-.83-1.37v-.41a.31.31,0,0,1,.28-.27l3.15-1c.14,0,.41-.14.55-.14s.27.14.41.14.27.14.41.27.41.28.68.28a2.26,2.26,0,0,0,1,.13,3.78,3.78,0,0,0,1.24-.27,9.58,9.58,0,0,0,2-1,1.19,1.19,0,0,0,.55-1.23,1.06,1.06,0,0,0-.55-.55,3.14,3.14,0,0,0-1.1-.14,8.17,8.17,0,0,0-1.78.14c-.68.14-1.51.14-2.47.27a6.51,6.51,0,0,1-4.24-.68,4.88,4.88,0,0,1-2.19-3,3.7,3.7,0,0,1-.14-1.78,8.5,8.5,0,0,1,.41-1.78,11.45,11.45,0,0,1,1.1-1.64,8.79,8.79,0,0,1,1.78-1.37l-.55-1.78a.69.69,0,0,1,.41-.83l3.15-.95h.55c.14.13.28.27.28.41Z"/><path id="Path_198123" data-name="Path 198123" class="cls-29" d="M215.87,233.81a11.41,11.41,0,0,1,2.19.13,10.71,10.71,0,0,1,1.92.69,4.84,4.84,0,0,1,1.37,1,2,2,0,0,1,.82,1.23v.41a.3.3,0,0,1-.27.28l-3.15,1c-.14,0-.41.14-.55.14s-.41-.14-.55-.14a.46.46,0,0,0-.27-.13c-.14-.14-.41-.14-.55-.28s-.55-.13-.82-.13-.82.13-1.1.13-.55.14-.82.28a2.68,2.68,0,0,0-.69.41,1.84,1.84,0,0,0-.41.55.6.6,0,0,0,0,.68c0,.28.28.41.41.55a1.9,1.9,0,0,0,1,.27h1.51a15.26,15.26,0,0,0,2.33-.27,8.1,8.1,0,0,1,2.6,0,5.63,5.63,0,0,1,2,.55,5.85,5.85,0,0,1,1.51,1.1,8.41,8.41,0,0,1,1,1.92,3.5,3.5,0,0,1,.14,2,5.46,5.46,0,0,1-.69,1.92,7.71,7.71,0,0,1-1.37,1.64,7.58,7.58,0,0,1-2.05,1.37l.54,1.78v.55c-.13.14-.27.28-.41.28l-3.15,1h-.55c-.13-.14-.27-.28-.27-.42l-.55-1.78a13,13,0,0,1-2.33-.13,4.72,4.72,0,0,1-1.92-.69,6.24,6.24,0,0,1-1.5-1.1,2.77,2.77,0,0,1-.82-1.37v-.41a.28.28,0,0,1,.27-.27l3.15-1c.14,0,.41-.14.55-.14a.49.49,0,0,1,.41.14c.14,0,.27.13.41.27s.41.28.69.28a2.35,2.35,0,0,0,.95.13,4,4,0,0,0,1.24-.27,9.58,9.58,0,0,0,2.05-1,1.19,1.19,0,0,0,.55-1.23,1.06,1.06,0,0,0-.55-.55A2.93,2.93,0,0,0,219,245a7.64,7.64,0,0,0-1.78.14c-.68.13-1.51.13-2.46.27a6.53,6.53,0,0,1-4.25-.68,4.88,4.88,0,0,1-2.19-3,3.7,3.7,0,0,1-.14-1.78,8.5,8.5,0,0,1,.41-1.78,11.45,11.45,0,0,1,1.1-1.64,8.79,8.79,0,0,1,1.78-1.37l-.55-1.78v-.55c.14-.14.28-.28.41-.28l3.16-.95H215c.14.13.28.27.28.41Z"/></g></g><g id="Group_14762" data-name="Group 14762"><g id="Group_12850" data-name="Group 12850"><path id="Path_197850" data-name="Path 197850" class="cls-26" d="M130.67,309v9.59c0,3.29,14.94,6,33.29,6s33.29-2.74,33.29-6V309Z"/></g><g id="Group_12853" data-name="Group 12853"><g id="Group_14754" data-name="Group 14754"><g class="cls-53"><g id="Group_12852" data-name="Group 12852"><rect id="Rectangle_7926" data-name="Rectangle 7926" class="cls-28" x="131.36" y="305.04" width="1.51" height="21.92"/><rect id="Rectangle_7927" data-name="Rectangle 7927" class="cls-28" x="135.47" y="305.04" width="1.51" height="21.92"/><rect id="Rectangle_7928" data-name="Rectangle 7928" class="cls-28" x="140.13" y="305.04" width="1.51" height="21.92"/><rect id="Rectangle_7929" data-name="Rectangle 7929" class="cls-28" x="146.02" y="305.04" width="1.51" height="21.92"/><rect id="Rectangle_7930" data-name="Rectangle 7930" class="cls-28" x="152.32" y="305.04" width="1.51" height="21.92"/><rect id="Rectangle_7931" data-name="Rectangle 7931" class="cls-28" x="159.31" y="305.04" width="1.51" height="21.92"/><rect id="Rectangle_7932" data-name="Rectangle 7932" class="cls-28" x="194.93" y="305.04" width="1.51" height="21.92"/><rect id="Rectangle_7933" data-name="Rectangle 7933" class="cls-28" x="190.82" y="305.04" width="1.51" height="21.92"/><rect id="Rectangle_7934" data-name="Rectangle 7934" class="cls-28" x="186.16" y="305.04" width="1.51" height="21.92"/><rect id="Rectangle_7935" data-name="Rectangle 7935" class="cls-28" x="180.27" y="305.04" width="1.51" height="21.92"/><rect id="Rectangle_7936" data-name="Rectangle 7936" class="cls-28" x="173.96" y="305.04" width="1.51" height="21.92"/><rect id="Rectangle_7937" data-name="Rectangle 7937" class="cls-28" x="166.98" y="305.04" width="1.51" height="21.92"/></g></g></g></g><g id="Group_12854" data-name="Group 12854"><path id="Path_197852" data-name="Path 197852" class="cls-29" d="M197.12,308.74c0,3.29-14.94,6-33.29,6s-33.29-2.74-33.29-6,14.93-6,33.29-6,33.29,2.74,33.29,6"/><path id="Path_197853" data-name="Path 197853" class="cls-24" d="M190.4,308.19c0,1.51-11.78,2.74-26.44,2.74s-26.44-1.23-26.44-2.74,11.78-2.74,26.44-2.74,26.44,1.23,26.44,2.74"/><path id="Path_197854" data-name="Path 197854" class="cls-25" d="M138.62,309c3.29-1.1,13.43-1.92,25.35-1.92s22.05.83,25.34,1.92c.69-.27,1.1-.55,1.1-.82,0-1.51-11.78-2.74-26.44-2.74s-26.45,1.23-26.45,2.74c0,.27.41.55,1.1.82"/><path id="Path_197855" data-name="Path 197855" class="cls-26" d="M133.41,298.05v9.59c0,3.29,14.94,6,33.29,6s33.29-2.74,33.29-6v-9.59Z"/></g><g id="Group_12857" data-name="Group 12857"><g id="Group_14755" data-name="Group 14755"><g class="cls-54"><g id="Group_12856" data-name="Group 12856"><rect id="Rectangle_7939" data-name="Rectangle 7939" class="cls-28" x="134.1" y="294.08" width="1.51" height="21.92"/><rect id="Rectangle_7940" data-name="Rectangle 7940" class="cls-28" x="138.21" y="294.08" width="1.51" height="21.92"/><rect id="Rectangle_7941" data-name="Rectangle 7941" class="cls-28" x="142.87" y="294.08" width="1.51" height="21.92"/><rect id="Rectangle_7942" data-name="Rectangle 7942" class="cls-28" x="148.62" y="294.08" width="1.51" height="21.92"/><rect id="Rectangle_7943" data-name="Rectangle 7943" class="cls-28" x="155.06" y="294.08" width="1.51" height="21.92"/><rect id="Rectangle_7944" data-name="Rectangle 7944" class="cls-28" x="162.05" y="294.08" width="1.51" height="21.92"/><rect id="Rectangle_7945" data-name="Rectangle 7945" class="cls-28" x="197.67" y="294.08" width="1.51" height="21.92"/><rect id="Rectangle_7946" data-name="Rectangle 7946" class="cls-28" x="193.56" y="294.08" width="1.51" height="21.92"/><rect id="Rectangle_7947" data-name="Rectangle 7947" class="cls-28" x="188.9" y="294.08" width="1.51" height="21.92"/><rect id="Rectangle_7948" data-name="Rectangle 7948" class="cls-28" x="183.01" y="294.08" width="1.51" height="21.92"/><rect id="Rectangle_7949" data-name="Rectangle 7949" class="cls-28" x="176.7" y="294.08" width="1.51" height="21.92"/><rect id="Rectangle_7950" data-name="Rectangle 7950" class="cls-28" x="169.72" y="294.08" width="1.51" height="21.92"/></g></g></g></g><g id="Group_12858" data-name="Group 12858"><path id="Path_197857" data-name="Path 197857" class="cls-29" d="M199.86,297.91c0,3.29-14.94,6-33.29,6s-33.29-2.74-33.29-6,14.93-6,33.29-6,33.29,2.74,33.29,6"/><path id="Path_197858" data-name="Path 197858" class="cls-24" d="M193.14,297.23c0,1.51-11.78,2.74-26.44,2.74s-26.44-1.23-26.44-2.74,11.78-2.74,26.44-2.74,26.44,1.23,26.44,2.74"/><path id="Path_197859" data-name="Path 197859" class="cls-25" d="M141.36,298.05c3.29-1.1,13.43-1.92,25.35-1.92s22,.83,25.34,1.92c.69-.27,1.1-.55,1.1-.82,0-1.51-11.78-2.74-26.44-2.74s-26.45,1.23-26.45,2.74c0,.27.41.55,1.1.82"/><path id="Path_197860" data-name="Path 197860" class="cls-26" d="M127.66,286.13v9.59c0,3.29,14.93,6,33.29,6s33.29-2.74,33.29-6v-9.59Z"/></g><g id="Group_12861" data-name="Group 12861"><g id="Group_14756" data-name="Group 14756"><g class="cls-55"><g id="Group_12860" data-name="Group 12860"><rect id="Rectangle_7952" data-name="Rectangle 7952" class="cls-28" x="128.34" y="282.16" width="1.51" height="21.92"/><rect id="Rectangle_7953" data-name="Rectangle 7953" class="cls-28" x="132.45" y="282.16" width="1.51" height="21.92"/><rect id="Rectangle_7954" data-name="Rectangle 7954" class="cls-28" x="137.11" y="282.16" width="1.51" height="21.92"/><rect id="Rectangle_7955" data-name="Rectangle 7955" class="cls-28" x="142.87" y="282.16" width="1.51" height="21.92"/><rect id="Rectangle_7956" data-name="Rectangle 7956" class="cls-28" x="149.3" y="282.16" width="1.51" height="21.92"/><rect id="Rectangle_7957" data-name="Rectangle 7957" class="cls-28" x="156.29" y="282.16" width="1.51" height="21.92"/><rect id="Rectangle_7958" data-name="Rectangle 7958" class="cls-28" x="191.77" y="282.16" width="1.51" height="21.92"/><rect id="Rectangle_7959" data-name="Rectangle 7959" class="cls-28" x="187.66" y="282.16" width="1.51" height="21.92"/><rect id="Rectangle_7960" data-name="Rectangle 7960" class="cls-28" x="183.01" y="282.16" width="1.51" height="21.92"/><rect id="Rectangle_7961" data-name="Rectangle 7961" class="cls-28" x="177.25" y="282.16" width="1.51" height="21.92"/><rect id="Rectangle_7962" data-name="Rectangle 7962" class="cls-28" x="170.81" y="282.16" width="1.51" height="21.92"/><rect id="Rectangle_7963" data-name="Rectangle 7963" class="cls-28" x="163.83" y="282.16" width="1.51" height="21.92"/></g></g></g></g><g id="Group_12862" data-name="Group 12862"><path id="Path_197862" data-name="Path 197862" class="cls-29" d="M194.1,286c0,3.28-14.93,6-33.29,6s-33.29-2.74-33.29-6,14.93-6,33.29-6,33.29,2.74,33.29,6"/><path id="Path_197863" data-name="Path 197863" class="cls-24" d="M187.25,285.45c0,1.5-11.78,2.74-26.44,2.74s-26.44-1.24-26.44-2.74,11.78-2.74,26.44-2.74,26.44,1.1,26.44,2.74"/><path id="Path_197864" data-name="Path 197864" class="cls-25" d="M135.6,286.13c3.29-1.1,13.43-1.92,25.35-1.92s22.05.83,25.34,1.92c.69-.27,1.1-.55,1.1-.82,0-1.51-11.78-2.74-26.44-2.74s-26.44,1.23-26.44,2.74c-.14.41.27.69,1.1.82"/><path id="Path_197865" data-name="Path 197865" class="cls-26" d="M130.67,275.31v9.59c0,3.29,14.94,6,33.29,6s33.29-2.74,33.29-6v-9.59Z"/></g><g id="Group_12865" data-name="Group 12865"><g id="Group_14757" data-name="Group 14757"><g class="cls-56"><g id="Group_12864" data-name="Group 12864"><rect id="Rectangle_7965" data-name="Rectangle 7965" class="cls-28" x="131.36" y="271.34" width="1.51" height="21.92"/><rect id="Rectangle_7966" data-name="Rectangle 7966" class="cls-28" x="135.47" y="271.34" width="1.51" height="21.92"/><rect id="Rectangle_7967" data-name="Rectangle 7967" class="cls-28" x="140.13" y="271.34" width="1.51" height="21.92"/><rect id="Rectangle_7968" data-name="Rectangle 7968" class="cls-28" x="146.02" y="271.34" width="1.51" height="21.92"/><rect id="Rectangle_7969" data-name="Rectangle 7969" class="cls-28" x="152.32" y="271.34" width="1.51" height="21.92"/><rect id="Rectangle_7970" data-name="Rectangle 7970" class="cls-28" x="159.31" y="271.34" width="1.51" height="21.92"/><rect id="Rectangle_7971" data-name="Rectangle 7971" class="cls-28" x="194.93" y="271.34" width="1.51" height="21.92"/><rect id="Rectangle_7972" data-name="Rectangle 7972" class="cls-28" x="190.82" y="271.34" width="1.51" height="21.92"/><rect id="Rectangle_7973" data-name="Rectangle 7973" class="cls-28" x="186.16" y="271.34" width="1.51" height="21.92"/><rect id="Rectangle_7974" data-name="Rectangle 7974" class="cls-28" x="180.27" y="271.34" width="1.51" height="21.92"/><rect id="Rectangle_7975" data-name="Rectangle 7975" class="cls-28" x="173.96" y="271.34" width="1.51" height="21.92"/><rect id="Rectangle_7976" data-name="Rectangle 7976" class="cls-28" x="166.98" y="271.34" width="1.51" height="21.92"/></g></g></g></g><g id="Group_12866" data-name="Group 12866"><path id="Path_197867" data-name="Path 197867" class="cls-29" d="M197.12,275.17c0,3.29-14.94,6-33.29,6s-33.29-2.74-33.29-6,14.93-6,33.29-6,33.29,2.74,33.29,6"/><path id="Path_197868" data-name="Path 197868" class="cls-24" d="M190.4,274.49c0,1.51-11.78,2.74-26.44,2.74s-26.44-1.23-26.44-2.74,11.78-2.74,26.44-2.74,26.44,1.23,26.44,2.74"/><path id="Path_197869" data-name="Path 197869" class="cls-25" d="M138.62,275.31c3.29-1.1,13.43-1.92,25.35-1.92s22.05.82,25.34,1.92c.69-.27,1.1-.55,1.1-.82,0-1.51-11.78-2.74-26.44-2.74s-26.45,1.23-26.45,2.74c0,.27.41.55,1.1.82"/><path id="Path_197870" data-name="Path 197870" class="cls-26" d="M132,264.49v9.59c0,3.28,14.94,6,33.29,6s33.29-2.74,33.29-6v-9.59Z"/></g><g id="Group_12869" data-name="Group 12869"><g id="Group_14758" data-name="Group 14758"><g class="cls-57"><g id="Group_12868" data-name="Group 12868"><rect id="Rectangle_7978" data-name="Rectangle 7978" class="cls-28" x="132.86" y="260.51" width="1.51" height="21.92"/><rect id="Rectangle_7979" data-name="Rectangle 7979" class="cls-28" x="136.84" y="260.51" width="1.51" height="21.92"/><rect id="Rectangle_7980" data-name="Rectangle 7980" class="cls-28" x="141.5" y="260.51" width="1.51" height="21.92"/><rect id="Rectangle_7981" data-name="Rectangle 7981" class="cls-28" x="147.39" y="260.51" width="1.51" height="21.92"/><rect id="Rectangle_7982" data-name="Rectangle 7982" class="cls-28" x="153.83" y="260.51" width="1.51" height="21.92"/><rect id="Rectangle_7983" data-name="Rectangle 7983" class="cls-28" x="160.68" y="260.51" width="1.51" height="21.92"/><rect id="Rectangle_7984" data-name="Rectangle 7984" class="cls-28" x="196.3" y="260.51" width="1.51" height="21.92"/><rect id="Rectangle_7985" data-name="Rectangle 7985" class="cls-28" x="192.19" y="260.51" width="1.51" height="21.92"/><rect id="Rectangle_7986" data-name="Rectangle 7986" class="cls-28" x="187.53" y="260.51" width="1.51" height="21.92"/><rect id="Rectangle_7987" data-name="Rectangle 7987" class="cls-28" x="181.77" y="260.51" width="1.51" height="21.92"/><rect id="Rectangle_7988" data-name="Rectangle 7988" class="cls-28" x="175.33" y="260.51" width="1.51" height="21.92"/><rect id="Rectangle_7989" data-name="Rectangle 7989" class="cls-28" x="168.35" y="260.51" width="1.51" height="21.92"/></g></g></g></g><g id="Group_12870" data-name="Group 12870"><path id="Path_197872" data-name="Path 197872" class="cls-29" d="M198.62,264.21c0,3.29-14.93,6-33.29,6s-33.29-2.74-33.29-6,14.94-6,33.29-6,33.29,2.75,33.29,6"/><path id="Path_197873" data-name="Path 197873" class="cls-24" d="M191.77,263.66c0,1.51-11.78,2.74-26.44,2.74s-26.44-1.23-26.44-2.74,11.78-2.74,26.44-2.74,26.44,1.24,26.44,2.74"/><path id="Path_197874" data-name="Path 197874" class="cls-25" d="M140,264.49c3.29-1.1,13.43-1.92,25.35-1.92s22,.82,25.34,1.92c.69-.28,1.1-.55,1.1-.83,0-1.5-11.78-2.74-26.44-2.74s-26.45,1.24-26.45,2.74c0,.28.41.55,1.1.83"/></g><path id="Path_198124" data-name="Path 198124" class="cls-58" d="M175.06,164.48s8.77.27,4.11,10.27-4.11-10.27-4.11-10.27"/><path id="Path_198125" data-name="Path 198125" class="cls-59" d="M177.53,168.18s2.33,1.5,2.33,9.17c0,.28,1.23,4.11,1.23,4.11a1.6,1.6,0,0,0-1.37.28c-.41,5.89-1.23,5.75-2.06,6.3s-7.67-.82-11.92-3-5.75-8.63-4-12.46,10.55-7.81,15.76-4.39"/><path id="Path_198126" data-name="Path 198126" class="cls-58" d="M157.94,173.65c-.69,3.7,1.1,9.32,8.35,11.79a44,44,0,0,0,1.1-4.39c.41-2.19,6.58-4.66,9.32-7.12l.41-.41a5.44,5.44,0,0,0,0-7.26c-1.51-1.78-4.8-4.93-10.69-2.88-5.34,1.92-7.67,5.75-8.49,10.27"/><path id="Path_198127" data-name="Path 198127" class="cls-59" d="M175.33,181.88c-1.1,1.23-1.37,3.7-1.23,6.16a3.91,3.91,0,0,0,.14,1.23c.14,1.51.41,3,.68,4.52l-8.35-.27a39.69,39.69,0,0,0-.28-8.08s11.78-6.44,9-3.56"/><path id="Path_198128" data-name="Path 198128" class="cls-60" d="M174.24,189.27a25.53,25.53,0,0,1-5.48-2.74c2.33.83,5.48,1.65,5.48,1.65a1.49,1.49,0,0,0,0,1.1"/><path id="Path_198129" data-name="Path 198129" class="cls-61" d="M180.13,248.46l-13-14.11s-7.94,8.35-6.43,17.53c.68,4.52,2,6.85,2.46,9s1.37,30,.82,31.93-3.56,7.26-5.2,13c-1.92,7-4,17-5.48,23-1.65,6,1,14.11,1.64,12.05,4.8-17.4,17.54-37.4,19.59-46s3.43-24.93,5.62-46.44"/><path id="Path_198130" data-name="Path 198130" class="cls-61" d="M158.76,328.33s-4,11.37-3.7,12.88c.13.82,1.1,3.83,1.23,4.24.14.14,3,2.47,1.1,2.47s-6.3-6-7-6.44A3,3,0,0,1,149,338.6a11.91,11.91,0,0,1,2.47-4.24A18.68,18.68,0,0,0,153,329.7Z"/><path id="Path_198131" data-name="Path 198131" class="cls-62" d="M160,348.33a11.64,11.64,0,0,0-3.15-2.47c-.41-.41-.69-.68-.55-.41.28.55-1,.69-1.64.28-2.19-1.78-2.88-4.39-3.84-5.62-1.51-1.78-.41-4.11-.27-4.52a12.8,12.8,0,0,0-3.15,1.37,5.65,5.65,0,0,0-1.65,1.92,26.65,26.65,0,0,1-1.5,3.42l2,1.65,2.06-1.78.54.54a4.64,4.64,0,0,1,1.1,2.2,8.11,8.11,0,0,0,.55,1.64,5.75,5.75,0,0,0,1.51,2.19l.82.69a3.72,3.72,0,0,0,2.33.82h4.11a.94.94,0,0,0,1-.91v-.19a1.87,1.87,0,0,0-.28-.82"/><path id="Path_198132" data-name="Path 198132" class="cls-61" d="M190.13,346.69c-.27-.41-3.56-1.24-5.21-2.06a10.18,10.18,0,0,1-3.42-3.83c-.27-1,.14-5.21.41-7.13,1.51-12.6,5.89-30.27,7-37.67,1.78-12.88,1.23-26.17-1.78-47.4L170,232.84s-6,9.18-5.06,18.5c.54,5.34,4.93,6.58,5.48,8.77s8.76,36.43,8.76,36.43a69.84,69.84,0,0,0-3.7,14.93c-.68,6.72,1.23,14.39,1.1,22.06-.14,1.51-.14,5.21-.68,6.3-.69,1.37-2.2,2.88-2.33,4.66a2.81,2.81,0,0,0,1.91,2.6c1.24.55,2.06-.14,2.47-.14,2.6.14,3.15,1.92,7.67,2.33a6.58,6.58,0,0,0,4.66-1.51,1.12,1.12,0,0,0-.14-1.1"/><path id="Path_198133" data-name="Path 198133" class="cls-62" d="M190.4,348.19a3.62,3.62,0,0,1-1,1.1,5.47,5.47,0,0,1-2.87,1h-2.19a5.59,5.59,0,0,1-2.6-.68,4.9,4.9,0,0,1-1.37-1,4.59,4.59,0,0,0-2.2-1,4.49,4.49,0,0,0-1.37,0l-.13,2.6h-3a19.46,19.46,0,0,0-.82-3.84,4.59,4.59,0,0,1,.27-2.32,8.79,8.79,0,0,1,1.92-3c.14.41.82,2.88,3,3.29,1.65.27,3.7,1.92,6.58,1.92.82,0,1.64-1,1.1-1.24s1,0,1.78.42a25.3,25.3,0,0,1,2.88,1.37c.27,0,.27.82,0,1.37"/><path id="Path_198134" data-name="Path 198134" class="cls-59" d="M153,215s.83,4.52,1.37,6.44,3.29,13.7,5.89,13.42,16.72-12,16.72-12l-2.06-4-12.46,5.89s-1.1-13.56-2.06-16.71Z"/><path id="Path_198135" data-name="Path 198135" class="cls-60" d="M156.57,215.44c1.37,4.66,3.83,11.92,4.8,13.15.41.55,8.76-2.46,8.76-5.61l-8.63-9.87Z"/><path id="Path_198136" data-name="Path 198136" class="cls-63" d="M164.51,193.8a14.57,14.57,0,0,0-7.53,2.6c-5.35,4-4.11,19.18-4.11,19.18s-.28.82,3.28.54a25.21,25.21,0,0,0,6.44-1.23l-1.1-12.19Z"/><path id="Path_198137" data-name="Path 198137" class="cls-64" d="M155.47,203s-.41,8.77,1.1,13.16a10.83,10.83,0,0,0,2.88-.41Z"/><path id="Path_198138" data-name="Path 198138" class="cls-64" d="M164.24,194.62c.13-1,.41-2.19,1.37-2.6a1.78,1.78,0,0,1,.82-.14,35.37,35.37,0,0,1,5.34-.41,9.31,9.31,0,0,1,3.43.55c1.64.82,2.6,2.6,3.29,4.24Z"/><path id="Path_198139" data-name="Path 198139" class="cls-42" d="M153.14,327.51c1.1-4.94,4-17.4,5.89-22.75s4.8-11.1,4.93-11.91a68.25,68.25,0,0,0-1-7.81v-.14c0-.55-2.87-22.74-4-26.17a29.16,29.16,0,0,1-1.78-11.37c.27-6,5.21-13.29,6.44-14.66l22.33-.41s3.84,9,4.25,14.8c.82,11.92-.41,36.85-.41,36.85h0a79,79,0,0,1-.69,9.73c-.68,4.93-7.53,45.07-7.53,45.07a12.74,12.74,0,0,1-6-.68v-.82c.27-4.8-1.92-20.28,0-29.73A116.66,116.66,0,0,1,178.35,296l-2-10.28a3.7,3.7,0,0,0-.14-.55,80.28,80.28,0,0,1-1.51,9.87c-1,3.83-10.82,24.93-14.66,34.11-1.37,3.15-2.46,6.58-2.46,6.58s-4.66-.55-6-2.6a29.89,29.89,0,0,0,1.64-5.62"/><path id="Path_198140" data-name="Path 198140" class="cls-65" d="M185.88,228.87c-.82-1.51-1.5-8.09-1.23-9.73s1.92-2.74,2.6-6.71a14,14,0,0,0-2.33-10.69c-1.64-2.33-4-7.26-4.38-7.4-6.85-2.05-8.09-1.1-12.6-1a30.54,30.54,0,0,0-6,.69c-2.47.54-5.48,1.37-6,4.8a33,33,0,0,0,1.51,15.48c1.1,3.28,7.4,14.66,5.75,16.85a11.27,11.27,0,0,0-1.37,2.05c-.41,2.33,3.29,2.88,7,3.29a70.64,70.64,0,0,0,10.69,0c10.41-.55,6.71-7,6.43-7.67"/><g id="Group_12969" data-name="Group 12969" class="cls-13"><g id="Group_12968" data-name="Group 12968"><g id="Group_14761" data-name="Group 14761"><g class="cls-66"><g id="Group_12967" data-name="Group 12967"><path id="Path_198142" data-name="Path 198142" class="cls-8" d="M165.06,252.71a18.37,18.37,0,0,0,3.15,6.85l7.53,28.35s.14-1.23.28-2.6c-2.47-10.27-5.48-23.83-5.89-25.2-.41-1.92-4-3.15-5.07-7.4"/></g></g></g></g></g><path id="Path_198143" data-name="Path 198143" class="cls-59" d="M183.14,211.33s10.42,16.72,14.11,16.72c2.74,0,17.68-18,17.68-18l-5.07-1.37-12.19,8.35-7.4-12.19Z"/><path id="Path_198144" data-name="Path 198144" class="cls-59" d="M220.82,203.93v-1c.14-.68.55-1.23.68-1.91a6.54,6.54,0,0,0,.14-1.65c0-.55.41-1.64-.14-1.64a4.07,4.07,0,0,0,.28-1.23c0-.28,0-.83-.28-.83a2.85,2.85,0,0,0-1.37,1.1c-.41.41-1.1,1.51-1.5,1.92a5.33,5.33,0,0,1-1.92,1.51s.27-.41,0-.69-1.23.28-2.19.41c-.55.14-1.78,1.65-2.2,2.06a17.45,17.45,0,0,0-.95,3.83,8.56,8.56,0,0,1-2.2,3.29l4.39,2.19c.13,0,.55-.54.68-.68a5.78,5.78,0,0,1,1-.82c1.37-1.37,3.29-1.92,4.52-3.43a4.88,4.88,0,0,0,1.1-2.46h0"/><path id="Path_198145" data-name="Path 198145" class="cls-60" d="M216.85,200.23a5.34,5.34,0,0,1-1.92,1.1c-.41.28-.55.55-1,.69.68.14.68-.28,1.92-.69a1.73,1.73,0,0,0,1.23-1c0-.14,0-.14-.14-.28l-.13.14"/><path id="Path_198146" data-name="Path 198146" class="cls-65" d="M174.1,193.11c2.19.14,9.32.55,13.7,7a55,55,0,0,1,6.3,11.1c-.55,1.92-4.25,6-7.67,5.89-.14-.14-5.21-6.3-6.17-11.37Z"/><path id="Path_186899" data-name="Path 186899" class="cls-58" d="M176.43,182.69a21.24,21.24,0,0,1,7.12,16.86c0,7.12-7.26,12.87-7.4,14.65-.4,4.67,7,14.39,5.9,19.19-1.51,7-14,9.45-26.17,4.38-13.84-5.75-15.76-24.38-3.29-37,5.48-5.62,4.11-18.08,5.07-26.17.69-4.8,1.78,1.65,4.11-1.91,3.43-5.35,13-7.4,14.39-5.76s-5.07,5.62-3.84,10.42C172.73,179.55,173.42,180.09,176.43,182.69Z"/><path id="Path_186900" data-name="Path 186900" class="cls-59" d="M170.4,176.81a2.53,2.53,0,1,0,3.56-.28h0c-.13-.13-.27-.27-.41-.27A2.33,2.33,0,0,0,170.4,176.81Z"/></g><g id="Group_5765" data-name="Group 5765"><path id="Path_186842" data-name="Path 186842" class="cls-47" d="M103.34,344.59c-.65-8.22-1.93-15.48-4.51-15.84-2-.28-3.7,3.89-5.37,3.42-3-.84,0-14.67-3.38-15.95-1.78-.69-4,5.43-6.63,5-2.2-.38-1.77-4.6-5.47-8.59-2.15-2.31-6.24-5.15-8.86-3.94-2.87,1.32-3.75,7.43-1.9,11.93,2.84,6.94,11.67,8.85,11,11.15-.54,2-7.16,1.09-7.91,3.69-.38,1.32,1,2.77,1.33,3.15,4.61,5,15.39,1.71,15.6,2.81,0,.26-.52.64-4.07,2.14C77.44,346,76,346.18,76,346.87c-.1,1.42,5.62,3.79,11.41,3.82C94.72,350.72,100.39,347,103.34,344.59Z"/><path id="Path_186843" data-name="Path 186843" class="cls-67" d="M101.43,344.34S87.25,339.52,71,313.41"/></g><g id="Group_5763" data-name="Group 5763"><path id="Path_186838" data-name="Path 186838" class="cls-68" d="M112.54,349.06c8-8,14.41-15.77,12.5-18.78-1.52-2.37-7.35-.4-8.34-2.58C115,323.87,132,314.63,130.34,310c-.88-2.46-9.2.69-11.1-2.49-1.55-2.61,3.22-5.93,4.08-13.33.52-4.29-.17-11.08-3.76-12.73-3.93-1.82-11.07,2.7-14.13,8.62-4.7,9.13,1.16,20-1.81,21.42-2.55,1.18-7.51-6.51-10.88-5-1.71.78-2,3.48-2.1,4.19-1.06,9.2,11.9,17.56,10.94,18.76-.23.28-1.13,0-5.85-2.34-7.65-3.85-9.14-5.15-9.9-4.58-1.54,1.15,1,9.23,6.18,15.29C98.49,345.53,107.44,348.1,112.54,349.06Z"/><path id="Path_186839" data-name="Path 186839" class="cls-69" d="M111.09,346.87s-7.6-19,5.15-59.24"/></g></g></g></svg>