<svg xmlns="http://www.w3.org/2000/svg" width="288.077" height="257.888" viewBox="0 0 288.077 257.888">
  <g id="Group_10357" data-name="Group 10357" transform="translate(-244.306 -144.207)">
    <g id="Group_10346" data-name="Group 10346" transform="translate(244.306 233.601)">
      <path id="Path_194923" data-name="Path 194923" d="M273.01,178.034c-.083,1.68-1.152,2.99-2.4,2.924l-11.893-.6c-1.252-.065-2.178-1.475-2.095-3.16l.48-9.575c.092-1.685,1.174-3,2.418-2.933l11.88.6c1.235.061,2.178,1.471,2.091,3.164Z" transform="translate(-202.876 -164.689)" fill="#aebfce"/>
      <path id="Path_194924" data-name="Path 194924" d="M272.293,192.017c.087-1.689-.855-3.107-2.09-3.164l-11.889-.589c-1.24-.079-2.322,1.244-2.409,2.92l-.476,9.589c-.087,1.676.838,3.09,2.086,3.16l11.9.589c1.239.07,2.309-1.239,2.392-2.92Z" transform="translate(-206.904 -85.388)" fill="#aebfce"/>
      <path id="Path_194925" data-name="Path 194925" d="M269.722,176c.764,1.5.493,3.16-.62,3.727l-10.6,5.421c-1.091.563-2.618-.183-3.387-1.685l-4.369-8.541c-.777-1.5-.489-3.168.6-3.736l10.605-5.416c1.113-.585,2.636.188,3.391,1.676Z" transform="translate(-224.117 -161.73)" fill="#aebfce"/>
      <path id="Path_194926" data-name="Path 194926" d="M276.1,188.467c-.773-1.514-2.287-2.265-3.391-1.7l-10.592,5.425c-1.122.567-1.392,2.248-.633,3.749l4.373,8.532c.764,1.506,2.291,2.256,3.4,1.693l10.6-5.421c1.1-.576,1.388-2.243.615-3.753Z" transform="translate(-187.956 -91.047)" fill="#aebfce"/>
      <path id="Path_194927" data-name="Path 194927" d="M264.308,175.448c1.423.912,2.016,2.509,1.353,3.544l-6.481,9.994c-.681,1.052-2.365,1.152-3.793.24l-8.035-5.22c-1.41-.917-2.021-2.505-1.331-3.54l6.459-10c.668-1.039,2.37-1.148,3.775-.231Z" transform="translate(-239.494 -148.137)" fill="#aebfce"/>
      <path id="Path_194928" data-name="Path 194928" d="M276.066,183.051c-1.405-.912-3.107-.8-3.771.236l-6.464,10c-.681,1.039-.092,2.627,1.331,3.548l8.052,5.207c1.41.917,3.112.816,3.8-.236l6.442-9.99c.694-1.034.092-2.623-1.327-3.539Z" transform="translate(-172.838 -105)" fill="#aebfce"/>
      <path id="Path_194929" data-name="Path 194929" d="M257.642,176.293c1.689.092,3.016,1.161,2.95,2.4l-.62,11.888c-.057,1.244-1.471,2.178-3.142,2.095l-9.6-.484c-1.685-.092-2.994-1.165-2.924-2.414l.594-11.871c.07-1.253,1.475-2.182,3.164-2.095Z" transform="translate(-244.306 -127.287)" fill="#aebfce"/>
      <path id="Path_194930" data-name="Path 194930" d="M271.649,177.01c-1.689-.087-3.112.847-3.164,2.086l-.607,11.884c-.065,1.244,1.248,2.331,2.942,2.4l9.571.493c1.689.079,3.1-.851,3.164-2.1l.6-11.884c.07-1.248-1.257-2.318-2.928-2.409Z" transform="translate(-165.011 -123.256)" fill="#aebfce"/>
      <path id="Path_194931" data-name="Path 194931" d="M255.607,181.877c1.5-.768,3.164-.5,3.74.607l5.416,10.6c.567,1.108-.188,2.632-1.689,3.4l-8.541,4.364c-1.5.773-3.16.493-3.74-.615l-5.421-10.592c-.563-1.1.192-2.632,1.689-3.4Z" transform="translate(-241.346 -108.335)" fill="#aebfce"/>
      <path id="Path_194932" data-name="Path 194932" d="M268.073,175.5c-1.5.768-2.252,2.283-1.689,3.391l5.421,10.592c.559,1.108,2.234,1.392,3.74.62l8.541-4.364c1.5-.768,2.252-2.287,1.685-3.4l-5.421-10.6c-.563-1.109-2.23-1.384-3.74-.615Z" transform="translate(-170.658 -144.497)" fill="#aebfce"/>
      <path id="Path_194933" data-name="Path 194933" d="M255.056,187.551c.925-1.418,2.51-2.016,3.557-1.344l9.99,6.459c1.043.685,1.161,2.383.236,3.8l-5.215,8.061c-.917,1.405-2.505,2.008-3.548,1.322l-9.99-6.464c-1.043-.676-1.148-2.365-.24-3.775Z" transform="translate(-227.75 -93.225)" fill="#aebfce"/>
      <path id="Path_194934" data-name="Path 194934" d="M262.669,175.782c-.912,1.418-.807,3.1.244,3.788l10,6.459c1.03.676,2.619.083,3.54-1.331l5.211-8.052c.912-1.418.8-3.112-.236-3.784l-9.99-6.468c-1.048-.668-2.636-.083-3.557,1.327Z" transform="translate(-184.614 -159.88)" fill="#aebfce"/>
      <path id="Path_194935" data-name="Path 194935" d="M299.171,166.909a50.17,50.17,0,1,0,47.554,52.647A50.156,50.156,0,0,0,299.171,166.909Zm-4.216,83.085a33.026,33.026,0,1,1,34.662-31.306A33.027,33.027,0,0,1,294.955,249.993Z" transform="translate(-237.055 -157.444)" fill="#768296"/>
    </g>
    <g id="Group_10347" data-name="Group 10347" transform="translate(279.401 144.207)">
      <path id="Path_194936" data-name="Path 194936" d="M271.051,152.9c-.044,1.1-.746,1.951-1.558,1.912l-7.751-.393c-.812-.044-1.423-.96-1.366-2.06l.319-6.237c.052-1.1.759-1.955,1.571-1.912l7.742.388c.808.044,1.414.96,1.362,2.06Z" transform="translate(-225.35 -144.207)" fill="#aebfce"/>
      <path id="Path_194937" data-name="Path 194937" d="M270.586,162.012c.052-1.091-.563-2.016-1.366-2.06l-7.747-.384c-.807-.048-1.514.812-1.567,1.907l-.31,6.245c-.057,1.091.545,2.012,1.357,2.056l7.755.393c.8.044,1.506-.812,1.554-1.9Z" transform="translate(-227.971 -92.534)" fill="#aebfce"/>
      <path id="Path_194938" data-name="Path 194938" d="M268.9,151.573a1.777,1.777,0,0,1-.4,2.435l-6.9,3.531a1.8,1.8,0,0,1-2.208-1.1l-2.85-5.569a1.794,1.794,0,0,1,.393-2.431l6.913-3.531a1.774,1.774,0,0,1,2.208,1.1Z" transform="translate(-239.188 -142.28)" fill="#aebfce"/>
      <path id="Path_194939" data-name="Path 194939" d="M273.066,159.7a1.791,1.791,0,0,0-2.213-1.113l-6.9,3.535a1.8,1.8,0,0,0-.415,2.44l2.846,5.569a1.807,1.807,0,0,0,2.222,1.1l6.909-3.54a1.787,1.787,0,0,0,.4-2.435Z" transform="translate(-215.624 -96.219)" fill="#aebfce"/>
      <path id="Path_194940" data-name="Path 194940" d="M265.385,151.217a1.791,1.791,0,0,1,.873,2.313l-4.216,6.507a1.792,1.792,0,0,1-2.47.153l-5.237-3.4a1.784,1.784,0,0,1-.873-2.309l4.212-6.52a1.794,1.794,0,0,1,2.462-.148Z" transform="translate(-249.21 -133.418)" fill="#aebfce"/>
      <path id="Path_194941" data-name="Path 194941" d="M273.055,156.169a1.8,1.8,0,0,0-2.466.153l-4.216,6.52a1.784,1.784,0,0,0,.873,2.313l5.246,3.391a1.8,1.8,0,0,0,2.475-.153l4.2-6.512a1.777,1.777,0,0,0-.869-2.309Z" transform="translate(-205.776 -105.309)" fill="#aebfce"/>
      <path id="Path_194942" data-name="Path 194942" d="M261.043,151.764c1.1.061,1.964.764,1.912,1.571l-.4,7.742c-.035.807-.96,1.423-2.047,1.37l-6.25-.319c-1.1-.061-1.955-.759-1.912-1.571l.388-7.738c.044-.816.965-1.418,2.064-1.366Z" transform="translate(-252.348 -119.833)" fill="#aebfce"/>
      <path id="Path_194943" data-name="Path 194943" d="M270.162,152.236c-1.1-.061-2.025.546-2.06,1.357l-.393,7.742c-.048.812.812,1.523,1.912,1.567l6.241.327c1.091.052,2.016-.563,2.06-1.375l.393-7.742c.039-.807-.82-1.51-1.916-1.571Z" transform="translate(-200.671 -117.206)" fill="#aebfce"/>
      <path id="Path_194944" data-name="Path 194944" d="M259.71,155.41a1.788,1.788,0,0,1,2.44.393l3.531,6.9a1.8,1.8,0,0,1-1.1,2.217l-5.573,2.846a1.8,1.8,0,0,1-2.44-.406l-3.522-6.9a1.777,1.777,0,0,1,1.1-2.208Z" transform="translate(-250.417 -107.483)" fill="#aebfce"/>
      <path id="Path_194945" data-name="Path 194945" d="M267.834,151.246a1.8,1.8,0,0,0-1.1,2.217l3.527,6.9a1.8,1.8,0,0,0,2.44.415l5.569-2.85a1.789,1.789,0,0,0,1.1-2.217l-3.527-6.9a1.778,1.778,0,0,0-2.435-.406Z" transform="translate(-204.353 -131.05)" fill="#aebfce"/>
      <path id="Path_194946" data-name="Path 194946" d="M259.357,159.1a1.794,1.794,0,0,1,2.313-.877l6.512,4.216a1.8,1.8,0,0,1,.153,2.47l-3.4,5.25a1.8,1.8,0,0,1-2.322.864l-6.5-4.207a1.786,1.786,0,0,1-.162-2.466Z" transform="translate(-241.558 -97.639)" fill="#aebfce"/>
      <path id="Path_194947" data-name="Path 194947" d="M264.315,151.433a1.786,1.786,0,0,0,.157,2.466l6.512,4.216a1.786,1.786,0,0,0,2.309-.864l3.4-5.259a1.779,1.779,0,0,0-.153-2.457l-6.507-4.22a1.809,1.809,0,0,0-2.322.873Z" transform="translate(-213.447 -141.075)" fill="#aebfce"/>
      <path id="Path_194948" data-name="Path 194948" d="M288.1,145.652a32.7,32.7,0,1,0,30.991,34.308A32.682,32.682,0,0,0,288.1,145.652Zm-2.75,54.149a21.527,21.527,0,1,1,22.59-20.4A21.532,21.532,0,0,1,285.347,199.8Z" transform="translate(-247.619 -139.488)" fill="#768296"/>
    </g>
    <g id="Group_10348" data-name="Group 10348" transform="translate(446.57 230.202)">
      <path id="Path_194949" data-name="Path 194949" d="M306.092,171.078c-.044.908-.62,1.61-1.283,1.58l-6.4-.323c-.677-.039-1.17-.794-1.13-1.7l.271-5.146c.039-.908.624-1.615,1.3-1.576l6.385.319c.663.035,1.17.79,1.122,1.7Z" transform="translate(-268.37 -163.911)" fill="#aebfce"/>
      <path id="Path_194950" data-name="Path 194950" d="M305.708,178.614c.039-.9-.476-1.667-1.13-1.706l-6.394-.323c-.668-.031-1.248.677-1.3,1.58l-.253,5.154a1.47,1.47,0,0,0,1.126,1.7l6.394.314c.668.035,1.244-.663,1.283-1.571Z" transform="translate(-270.531 -121.274)" fill="#aebfce"/>
      <path id="Path_194951" data-name="Path 194951" d="M304.313,169.985a1.46,1.46,0,0,1-.323,2.008l-5.7,2.911a1.479,1.479,0,0,1-1.829-.9l-2.352-4.6a1.473,1.473,0,0,1,.332-2.008l5.7-2.907c.594-.319,1.414.1,1.82.9Z" transform="translate(-279.789 -162.32)" fill="#aebfce"/>
      <path id="Path_194952" data-name="Path 194952" d="M307.753,176.7c-.419-.82-1.231-1.222-1.82-.921l-5.7,2.92a1.472,1.472,0,0,0-.345,2.012l2.352,4.591a1.481,1.481,0,0,0,1.833.912l5.7-2.915a1.5,1.5,0,0,0,.327-2.021Z" transform="translate(-260.342 -124.31)" fill="#aebfce"/>
      <path id="Path_194953" data-name="Path 194953" d="M301.415,169.7a1.469,1.469,0,0,1,.72,1.9l-3.483,5.381a1.476,1.476,0,0,1-2.038.127l-4.325-2.806a1.471,1.471,0,0,1-.716-1.907l3.478-5.373a1.471,1.471,0,0,1,2.034-.127Z" transform="translate(-288.059 -155.01)" fill="#aebfce"/>
      <path id="Path_194954" data-name="Path 194954" d="M307.736,173.783a1.485,1.485,0,0,0-2.038.127l-3.47,5.381a1.48,1.48,0,0,0,.711,1.912L307.273,184a1.484,1.484,0,0,0,2.047-.127l3.465-5.377a1.481,1.481,0,0,0-.72-1.9Z" transform="translate(-252.211 -131.814)" fill="#aebfce"/>
      <path id="Path_194955" data-name="Path 194955" d="M297.831,170.15c.908.048,1.619.624,1.58,1.292l-.323,6.389a1.481,1.481,0,0,1-1.7,1.13l-5.154-.262c-.912-.052-1.615-.629-1.584-1.3l.332-6.381c.026-.672.79-1.178,1.7-1.126Z" transform="translate(-290.651 -143.797)" fill="#aebfce"/>
      <path id="Path_194956" data-name="Path 194956" d="M305.363,170.535c-.917-.044-1.685.454-1.711,1.126l-.323,6.385c-.035.677.668,1.257,1.58,1.3l5.146.266c.908.044,1.667-.458,1.707-1.126l.323-6.394c.035-.668-.677-1.244-1.58-1.3Z" transform="translate(-248.001 -141.633)" fill="#aebfce"/>
      <path id="Path_194957" data-name="Path 194957" d="M296.721,173.151a1.489,1.489,0,0,1,2.021.332l2.907,5.7c.31.6-.092,1.405-.9,1.829l-4.6,2.348a1.482,1.482,0,0,1-2.012-.332l-2.907-5.7a1.471,1.471,0,0,1,.9-1.82Z" transform="translate(-289.052 -133.608)" fill="#aebfce"/>
      <path id="Path_194958" data-name="Path 194958" d="M303.431,169.719a1.489,1.489,0,0,0-.908,1.829l2.915,5.7a1.471,1.471,0,0,0,2.008.332l4.6-2.348a1.465,1.465,0,0,0,.895-1.824l-2.911-5.7a1.468,1.468,0,0,0-2.008-.332Z" transform="translate(-251.04 -153.054)" fill="#aebfce"/>
      <path id="Path_194959" data-name="Path 194959" d="M296.435,176.2a1.478,1.478,0,0,1,1.912-.716l5.373,3.474a1.473,1.473,0,0,1,.131,2.034l-2.806,4.338a1.481,1.481,0,0,1-1.916.711l-5.364-3.478a1.462,1.462,0,0,1-.131-2.029Z" transform="translate(-281.744 -125.48)" fill="#aebfce"/>
      <path id="Path_194960" data-name="Path 194960" d="M300.523,169.874a1.486,1.486,0,0,0,.135,2.038l5.373,3.474a1.463,1.463,0,0,0,1.9-.716l2.8-4.329a1.48,1.48,0,0,0-.122-2.038l-5.377-3.474a1.471,1.471,0,0,0-1.907.716Z" transform="translate(-258.542 -161.327)" fill="#aebfce"/>
      <path id="Path_194961" data-name="Path 194961" d="M320.158,165.1a26.98,26.98,0,1,0,25.571,28.312A26.973,26.973,0,0,0,320.158,165.1Zm-2.274,44.682a17.762,17.762,0,1,1,18.649-16.838A17.757,17.757,0,0,1,317.884,209.786Z" transform="translate(-286.748 -160.017)" fill="#768296"/>
    </g>
    <g id="Group_10349" data-name="Group 10349" transform="translate(314.017 156.806)">
      <path id="Path_194962" data-name="Path 194962" d="M269.78,228.518,322.536,195.5l-48.9-38.585A62.255,62.255,0,0,0,269.78,228.518Z" transform="translate(-260.279 -114.047)" fill="#fcd751"/>
      <path id="Path_194963" data-name="Path 194963" d="M270.127,151.608l23.253,57.745,45.241-42.714a61.467,61.467,0,0,0-68.494-15.031Z" transform="translate(-227.147 -147.094)" fill="#1c4670"/>
      <path id="Path_194964" data-name="Path 194964" d="M276.623,214.66A61.906,61.906,0,0,0,320.271,227.8l-5.058-62.039-52.757,33.016A62.051,62.051,0,0,0,276.623,214.66Z" transform="translate(-252.955 -84.303)" fill="#1c4670"/>
      <path id="Path_194965" data-name="Path 194965" d="M263.34,171.682l48.9,38.585-23.258-57.741A61.887,61.887,0,0,0,263.34,171.682Z" transform="translate(-249.981 -128.814)" fill="#aebfce"/>
      <path id="Path_194966" data-name="Path 194966" d="M274.544,198.684l59.875,17.034a62.347,62.347,0,0,0-14.634-59.748Z" transform="translate(-212.287 -117.23)" fill="#aebfce"/>
      <path id="Path_194967" data-name="Path 194967" d="M274.544,165.757,279.6,227.8a62.673,62.673,0,0,0,20.574-5.3,61.915,61.915,0,0,0,34.243-39.7Z" transform="translate(-212.287 -84.303)" fill="#ffa229"/>
    </g>
    <g id="Group_10356" data-name="Group 10356" transform="translate(339.132 208.858)">
      <g id="Group_10350" data-name="Group 10350" transform="translate(85.705)">
        <path id="Path_194968" data-name="Path 194968" d="M339.445,266.567a53.777,53.777,0,1,1,38.022-15.751A53.407,53.407,0,0,1,339.445,266.567Zm0-96.326a42.535,42.535,0,1,0,30.092,12.46A42.251,42.251,0,0,0,339.449,170.241Z" transform="translate(-285.671 -159.02)" fill="#1c4670"/>
      </g>
      <g id="Group_10351" data-name="Group 10351" transform="translate(76.189 83.212)">
        <rect id="Rectangle_7428" data-name="Rectangle 7428" width="36.643" height="11.227" transform="matrix(0.707, -0.707, 0.707, 0.707, 0, 25.907)" fill="#1c4670"/>
      </g>
      <path id="Rectangle_7429" data-name="Rectangle 7429" d="M1.715,0H110.542a1.716,1.716,0,0,1,1.716,1.716V23.541a1.715,1.715,0,0,1-1.715,1.715H1.714A1.714,1.714,0,0,1,0,23.542V1.715A1.715,1.715,0,0,1,1.715,0Z" transform="translate(0 175.373) rotate(-44.984)" fill="#aebfce"/>
      <g id="Group_10352" data-name="Group 10352" transform="translate(65.937 106.81)">
        <rect id="Rectangle_7430" data-name="Rectangle 7430" width="3.743" height="25.257" transform="matrix(0.707, -0.707, 0.707, 0.707, 0, 2.647)" fill="#fcd751"/>
      </g>
      <g id="Group_10353" data-name="Group 10353" transform="translate(59.763 112.985)">
        <rect id="Rectangle_7431" data-name="Rectangle 7431" width="3.741" height="25.256" transform="translate(0 2.645) rotate(-44.994)" fill="#fcd751"/>
      </g>
      <g id="Group_10354" data-name="Group 10354" transform="translate(10.808 161.935)">
        <rect id="Rectangle_7432" data-name="Rectangle 7432" width="3.745" height="25.258" transform="matrix(0.707, -0.707, 0.707, 0.707, 0, 2.649)" fill="#fcd751"/>
      </g>
      <g id="Group_10355" data-name="Group 10355" transform="translate(16.986 155.759)">
        <rect id="Rectangle_7433" data-name="Rectangle 7433" width="3.739" height="25.259" transform="translate(0 2.644) rotate(-45.007)" fill="#fcd751"/>
      </g>
    </g>
  </g>
</svg>
