<svg xmlns="http://www.w3.org/2000/svg" width="262.875" height="297.768" viewBox="0 0 262.875 297.768">
  <g id="Group_10365" data-name="Group 10365" transform="translate(-34.737 -344.329)">
    <g id="Group_10301" data-name="Group 10301" transform="translate(34.737 489.666)">
      <g id="Group_10299" data-name="Group 10299" transform="translate(0 10.365)">
        <path id="Path_194870" data-name="Path 194870" d="M55.826,391.106c-.063,1.22-.83,2.159-1.731,2.117l-8.588-.427A1.991,1.991,0,0,1,44,390.507l.352-6.916c.059-1.211.842-2.163,1.744-2.112l8.576.436c.889.042,1.568,1.061,1.5,2.284Z" transform="translate(-5.196 -381.477)" fill="#aebfce"/>
        <path id="Path_194871" data-name="Path 194871" d="M55.271,401.9c.059-1.216-.62-2.234-1.509-2.28l-8.584-.423c-.889-.054-1.677.893-1.735,2.108l-.344,6.92a1.982,1.982,0,0,0,1.509,2.284l8.584.419c.9.054,1.668-.893,1.731-2.108Z" transform="translate(-8.065 -324.931)" fill="#aebfce"/>
        <path id="Path_194872" data-name="Path 194872" d="M53.262,389.664a1.958,1.958,0,0,1-.444,2.687l-7.649,3.923a1.984,1.984,0,0,1-2.448-1.22l-3.16-6.161a1.991,1.991,0,0,1,.444-2.7l7.654-3.911A1.959,1.959,0,0,1,50.1,383.49Z" transform="translate(-20.34 -379.368)" fill="#aebfce"/>
        <path id="Path_194873" data-name="Path 194873" d="M58.183,399.3a1.982,1.982,0,0,0-2.444-1.237l-7.645,3.923a1.974,1.974,0,0,0-.457,2.7l3.152,6.165a1.989,1.989,0,0,0,2.456,1.22l7.654-3.911a1.993,1.993,0,0,0,.44-2.712Z" transform="translate(5.445 -328.967)" fill="#aebfce"/>
        <path id="Path_194874" data-name="Path 194874" d="M49.22,389.391a1.985,1.985,0,0,1,.972,2.553l-4.673,7.222a1.986,1.986,0,0,1-2.741.163l-5.8-3.764a1.965,1.965,0,0,1-.964-2.557l4.665-7.218a1.981,1.981,0,0,1,2.729-.168Z" transform="translate(-31.304 -369.673)" fill="#aebfce"/>
        <path id="Path_194875" data-name="Path 194875" d="M58.3,395.259a1.985,1.985,0,0,0-2.729.168l-4.665,7.226a1.969,1.969,0,0,0,.964,2.557l5.809,3.76a1.973,1.973,0,0,0,2.737-.172l4.657-7.213a1.971,1.971,0,0,0-.96-2.557Z" transform="translate(16.225 -338.916)" fill="#aebfce"/>
        <path id="Path_194876" data-name="Path 194876" d="M44.367,390.185c1.22.067,2.175.838,2.125,1.731l-.444,8.588c-.038.9-1.06,1.568-2.272,1.509l-6.92-.352c-1.22-.063-2.171-.842-2.117-1.744l.432-8.567c.046-.91,1.073-1.58,2.284-1.513Z" transform="translate(-34.737 -354.808)" fill="#aebfce"/>
        <path id="Path_194877" data-name="Path 194877" d="M55.177,390.737c-1.22-.059-2.247.616-2.284,1.509l-.436,8.58c-.05.9.9,1.685,2.121,1.735l6.912.356c1.216.063,2.238-.62,2.28-1.517l.44-8.58c.046-.9-.91-1.672-2.121-1.735Z" transform="translate(21.806 -351.935)" fill="#aebfce"/>
        <path id="Path_194878" data-name="Path 194878" d="M42.922,394.379a1.992,1.992,0,0,1,2.7.44l3.911,7.649a1.976,1.976,0,0,1-1.22,2.452l-6.161,3.156a1.993,1.993,0,0,1-2.708-.44l-3.906-7.654a1.965,1.965,0,0,1,1.216-2.444Z" transform="translate(-32.625 -341.292)" fill="#aebfce"/>
        <path id="Path_194879" data-name="Path 194879" d="M52.544,389.453a1.983,1.983,0,0,0-1.216,2.452l3.915,7.645a1.971,1.971,0,0,0,2.7.449l6.166-3.152a1.976,1.976,0,0,0,1.22-2.452l-3.911-7.654a1.991,1.991,0,0,0-2.7-.44Z" transform="translate(17.778 -367.077)" fill="#aebfce"/>
        <path id="Path_194880" data-name="Path 194880" d="M42.647,398.607a2,2,0,0,1,2.565-.968l7.213,4.665a1.993,1.993,0,0,1,.168,2.745l-3.764,5.818a1.974,1.974,0,0,1-2.561.951l-7.209-4.661a1.971,1.971,0,0,1-.176-2.724Z" transform="translate(-22.933 -330.519)" fill="#aebfce"/>
        <path id="Path_194881" data-name="Path 194881" d="M48.522,389.529a1.985,1.985,0,0,0,.172,2.733l7.226,4.661a1.967,1.967,0,0,0,2.553-.956l3.764-5.822a1.98,1.98,0,0,0-.172-2.724l-7.218-4.669a1.985,1.985,0,0,0-2.561.952Z" transform="translate(7.826 -378.047)" fill="#aebfce"/>
        <path id="Path_194882" data-name="Path 194882" d="M74.405,383.142a36.217,36.217,0,1,0,34.336,38.012A36.217,36.217,0,0,0,74.405,383.142Zm-3.047,59.984a23.842,23.842,0,1,1,25.031-22.6A23.838,23.838,0,0,1,71.358,443.125Z" transform="translate(-29.567 -376.312)" fill="#768296"/>
      </g>
      <g id="Group_10300" data-name="Group 10300" transform="translate(33.101)">
        <path id="Path_194883" data-name="Path 194883" d="M58.147,386.093c-.046.893-.612,1.588-1.266,1.559l-6.321-.323c-.666-.042-1.157-.784-1.115-1.677l.256-5.088c.05-.893.625-1.593,1.283-1.559l6.308.319c.658.034,1.157.788,1.115,1.685Z" transform="translate(-20.905 -379.004)" fill="#1c4670"/>
        <path id="Path_194884" data-name="Path 194884" d="M57.742,394.04c.046-.905-.453-1.664-1.111-1.685l-6.312-.314c-.658-.046-1.228.658-1.283,1.551l-.251,5.093a1.456,1.456,0,0,0,1.111,1.677l6.321.314c.654.034,1.224-.662,1.266-1.555Z" transform="translate(-23.018 -337.404)" fill="#1c4670"/>
        <path id="Path_194885" data-name="Path 194885" d="M56.261,385.024a1.455,1.455,0,0,1-.327,1.987L50.3,389.886a1.464,1.464,0,0,1-1.8-.9l-2.318-4.531a1.466,1.466,0,0,1,.319-1.991l5.633-2.867c.591-.323,1.4.092,1.8.884Z" transform="translate(-32.045 -377.449)" fill="#1c4670"/>
        <path id="Path_194886" data-name="Path 194886" d="M59.883,392.111c-.411-.8-1.211-1.2-1.8-.9l-5.629,2.875a1.462,1.462,0,0,0-.331,1.987l2.318,4.539a1.463,1.463,0,0,0,1.807.9l5.629-2.883a1.456,1.456,0,0,0,.323-1.987Z" transform="translate(-13.076 -340.37)" fill="#1c4670"/>
        <path id="Path_194887" data-name="Path 194887" d="M53.29,384.828a1.448,1.448,0,0,1,.717,1.874l-3.441,5.315a1.456,1.456,0,0,1-2.012.126l-4.267-2.771a1.453,1.453,0,0,1-.713-1.882l3.437-5.315a1.454,1.454,0,0,1,2-.117Z" transform="translate(-40.114 -370.316)" fill="#1c4670"/>
        <path id="Path_194888" data-name="Path 194888" d="M59.969,389.148a1.455,1.455,0,0,0-2.008.122l-3.429,5.306a1.45,1.45,0,0,0,.708,1.89l4.271,2.766a1.457,1.457,0,0,0,2.012-.126l3.429-5.306a1.453,1.453,0,0,0-.708-1.886Z" transform="translate(-5.148 -347.689)" fill="#1c4670"/>
        <path id="Path_194889" data-name="Path 194889" d="M49.715,385.411c.9.046,1.6.616,1.563,1.274l-.327,6.308c-.029.666-.78,1.161-1.672,1.123l-5.093-.264c-.893-.046-1.589-.612-1.551-1.283l.314-6.3c.034-.658.784-1.161,1.677-1.111Z" transform="translate(-42.635 -359.381)" fill="#1c4670"/>
        <path id="Path_194890" data-name="Path 194890" d="M57.671,385.817c-.893-.042-1.647.448-1.681,1.107l-.323,6.312c-.034.662.666,1.241,1.568,1.282l5.08.26c.889.042,1.643-.449,1.681-1.123l.319-6.3c.038-.666-.666-1.237-1.559-1.283Z" transform="translate(-1.044 -357.268)" fill="#1c4670"/>
        <path id="Path_194891" data-name="Path 194891" d="M48.655,388.5a1.465,1.465,0,0,1,1.987.318l2.875,5.625a1.46,1.46,0,0,1-.9,1.811l-4.535,2.318a1.459,1.459,0,0,1-1.987-.331l-2.875-5.625a1.46,1.46,0,0,1,.889-1.807Z" transform="translate(-41.084 -349.438)" fill="#1c4670"/>
        <path id="Path_194892" data-name="Path 194892" d="M55.735,384.875a1.446,1.446,0,0,0-.893,1.8l2.867,5.629a1.46,1.46,0,0,0,2,.323l4.535-2.314a1.453,1.453,0,0,0,.889-1.806l-2.871-5.633a1.463,1.463,0,0,0-1.987-.323Z" transform="translate(-4.003 -368.41)" fill="#1c4670"/>
        <path id="Path_194893" data-name="Path 194893" d="M48.45,391.608a1.473,1.473,0,0,1,1.89-.712l5.306,3.433a1.463,1.463,0,0,1,.126,2.016l-2.766,4.279a1.454,1.454,0,0,1-1.89.7L45.81,397.9a1.452,1.452,0,0,1-.126-2Z" transform="translate(-33.955 -341.515)" fill="#1c4670"/>
        <path id="Path_194894" data-name="Path 194894" d="M52.772,384.934a1.453,1.453,0,0,0,.134,2.008l5.306,3.424a1.449,1.449,0,0,0,1.882-.7l2.771-4.275a1.469,1.469,0,0,0-.126-2.012l-5.306-3.437a1.474,1.474,0,0,0-1.89.708Z" transform="translate(-11.326 -376.479)" fill="#1c4670"/>
        <path id="Path_194895" data-name="Path 194895" d="M71.818,380.228a26.646,26.646,0,1,0,25.253,27.965A26.647,26.647,0,0,0,71.818,380.228ZM69.58,424.36a17.543,17.543,0,1,1,18.4-16.623A17.539,17.539,0,0,1,69.58,424.36Z" transform="translate(-38.834 -375.205)" fill="#1c4670"/>
      </g>
    </g>
    <g id="Group_10306" data-name="Group 10306" transform="translate(166.299 512.61)">
      <g id="Group_10302" data-name="Group 10302" transform="translate(0 36.561)">
        <path id="Path_194896" data-name="Path 194896" d="M66.379,413.619c-1-3.135,1.182-2.242,2.59-.293s11.807,14.2,17.571-1.639c6.052-15.73-9.846-13.3-12.189-12.763s-4.569-.206-1.748-1.92c3.554-2.146,10.877-6.191,20.152-1.932,9.808,4.5,7.511,16.007,5.633,21.045s-7.712,15.223-18.057,12.189C70.532,425.431,67.661,417.584,66.379,413.619Z" transform="translate(-66.126 -393.2)" fill="#1c4670"/>
        <path id="Path_194897" data-name="Path 194897" d="M115.068,432.791c2.817-1.719.6-2.46-1.744-1.916s-18.237,2.967-12.2-12.776c5.759-15.831,16.154-3.575,17.571-1.626s3.588,2.833,2.582-.306c-1.266-3.944-4.149-11.8-13.928-14.678-10.374-3.03-16.179,7.151-18.074,12.189-1.869,5.025-4.17,16.539,5.642,21.041C104.191,438.986,111.513,434.941,115.068,432.791Z" transform="translate(2.483 -368.513)" fill="#1c4670"/>
        <rect id="Rectangle_7401" data-name="Rectangle 7401" width="6.938" height="67.243" transform="translate(30.514 22.295) rotate(-69.553)" fill="#1c4670"/>
        <rect id="Rectangle_7402" data-name="Rectangle 7402" width="6.945" height="67.248" transform="translate(28.086 28.79) rotate(-69.533)" fill="#1c4670"/>
        <path id="Path_194898" data-name="Path 194898" d="M113.324,421.173c2.339-.545,4.56.2,1.744,1.916-3.554,2.15-10.877,6.195-20.148,1.928-9.812-4.5-7.511-16.016-5.642-21.041l11.849,4.422C95.087,424.141,110.977,421.706,113.324,421.173Z" transform="translate(2.483 -358.811)" fill="#1c4670"/>
        <path id="Path_194899" data-name="Path 194899" d="M80.332,414.327c-9.8-2.875-12.671-10.722-13.953-14.687-1-3.135,1.182-2.242,2.59-.293s11.807,14.2,17.571-1.639l11.849,4.43C96.5,407.172,90.676,417.362,80.332,414.327Z" transform="translate(-66.126 -379.221)" fill="#1c4670"/>
      </g>
      <g id="Group_10305" data-name="Group 10305" transform="translate(33.776)">
        <g id="Group_10303" data-name="Group 10303" transform="translate(21.752)">
          <rect id="Rectangle_7403" data-name="Rectangle 7403" width="61.772" height="5.376" transform="translate(0 72.701) rotate(-69.557)" fill="#fcd751"/>
          <rect id="Rectangle_7404" data-name="Rectangle 7404" width="61.777" height="5.36" transform="translate(5.002 74.57) rotate(-69.491)" fill="#ffa229"/>
          <path id="Path_194900" data-name="Path 194900" d="M90.973,407.679s-8.924-4.938-7.494-9.016c1.425-4.061,11.3-15.8,16.1-14Z" transform="translate(-66.766 -384.478)" fill="#fcd751"/>
          <path id="Path_194901" data-name="Path 194901" d="M85.149,407.537s9.976,2.129,11.573-1.886,1.853-19.339-2.972-21.129Z" transform="translate(-60.942 -384.336)" fill="#ffa229"/>
        </g>
        <g id="Group_10304" data-name="Group 10304" transform="translate(0 60.908)">
          <path id="Path_194902" data-name="Path 194902" d="M93.427,459.174A9.947,9.947,0,0,1,80.643,465h0a9.938,9.938,0,0,1-5.83-12.78L92.065,406.09a9.926,9.926,0,0,1,12.78-5.834h0a9.923,9.923,0,0,1,5.822,12.784Z" transform="translate(-74.184 -397.045)" fill="#aebfce"/>
          <path id="Path_194903" data-name="Path 194903" d="M79.3,455.584a2.034,2.034,0,0,1-2.511,1.383h0a2.038,2.038,0,0,1-1-2.691L94.964,402.99a2.045,2.045,0,0,1,2.515-1.387h0a2.036,2.036,0,0,1,1,2.678Z" transform="translate(-69.559 -391.066)" fill="#768296"/>
          <path id="Path_194904" data-name="Path 194904" d="M80.826,455.44a2.028,2.028,0,0,1-2.515,1.383h0a2.041,2.041,0,0,1-.981-2.7L96.5,402.842a2.037,2.037,0,0,1,2.515-1.383h0a2.042,2.042,0,0,1,.989,2.7Z" transform="translate(-64.656 -391.525)" fill="#768296"/>
          <path id="Path_194905" data-name="Path 194905" d="M74.723,453.152a2.045,2.045,0,0,0,1,2.7h0a2.017,2.017,0,0,0,2.506-1.383L97.4,403.186a2.041,2.041,0,0,0-.989-2.7h0a2.028,2.028,0,0,0-2.506,1.392Z" transform="translate(-72.954 -394.628)" fill="#768296"/>
          <path id="Path_194906" data-name="Path 194906" d="M103.109,411.465a4.93,4.93,0,0,1-6.346,2.888l-15.5-5.793a4.94,4.94,0,0,1-2.892-6.354h0a4.933,4.933,0,0,1,6.342-2.884l15.5,5.792a4.931,4.931,0,0,1,2.888,6.35Z" transform="translate(-61.806 -399.009)" fill="#768296"/>
          <path id="Path_194907" data-name="Path 194907" d="M99.965,409.379a4.038,4.038,0,0,1-5.285,2.083L81.452,406.5a4.014,4.014,0,0,1-2.624-5.017h0a4.006,4.006,0,0,1,5.273-2.075l13.237,4.942a4.022,4.022,0,0,1,2.628,5.025Z" transform="translate(-60.059 -398.675)" fill="#768296"/>
        </g>
      </g>
    </g>
    <g id="Group_10309" data-name="Group 10309" transform="translate(111.116 344.329)">
      <g id="Group_10307" data-name="Group 10307" transform="translate(36.205 78.363)">
        <path id="Path_194908" data-name="Path 194908" d="M109.251,401.79,89.517,367.617a3.453,3.453,0,0,0-3.86-1.609,3.455,3.455,0,0,0-3.86,1.609L62.064,401.79a3.461,3.461,0,1,0,6,3.454l17.6-30.463,17.6,30.463a3.459,3.459,0,1,0,5.994-3.454Z" transform="translate(-61.598 -353.857)" fill="#1c4670"/>
        <path id="Path_194909" data-name="Path 194909" d="M74.691,414.789a4.179,4.179,0,0,1-4.175,4.179h0a4.179,4.179,0,0,1-4.175-4.179V367.2a4.179,4.179,0,0,1,4.175-4.179h0a4.179,4.179,0,0,1,4.175,4.179Z" transform="translate(-46.457 -363.025)" fill="#1c4670"/>
      </g>
      <path id="Rectangle_7405" data-name="Rectangle 7405" d="M1.413,0h110a1.415,1.415,0,0,1,1.415,1.415v76.2a1.413,1.413,0,0,1-1.413,1.413h-110A1.415,1.415,0,0,1,0,77.616V1.413A1.413,1.413,0,0,1,1.413,0Z" transform="translate(3.852 5.052)" fill="#aebfce"/>
      <g id="Group_10308" data-name="Group 10308" transform="translate(23.524 19.361)">
        <rect id="Rectangle_7406" data-name="Rectangle 7406" width="7.535" height="26.749" transform="translate(14.934 24.776)" fill="#fcd751"/>
        <rect id="Rectangle_7407" data-name="Rectangle 7407" width="7.54" height="38.955" transform="translate(27.998 12.57)" fill="#fcd751"/>
        <rect id="Rectangle_7408" data-name="Rectangle 7408" width="7.53" height="19.021" transform="translate(44.423 32.504)" fill="#fcd751"/>
        <rect id="Rectangle_7409" data-name="Rectangle 7409" width="7.532" height="26.749" transform="translate(59.159 24.776)" fill="#fcd751"/>
        <path id="Path_194910" data-name="Path 194910" d="M109.592,357.515l-6.41,3.766,2.435,1.343L94.642,376.111,78.934,348.948,62.3,370.884l1.666.847,14.738-19.443,15.646,27.06,12.9-15.833,2.409,1.33Z" transform="translate(-46.665 -348.948)" fill="#fff"/>
        <rect id="Rectangle_7410" data-name="Rectangle 7410" width="2.243" height="57.673" transform="translate(5.601)" fill="#fff"/>
        <rect id="Rectangle_7411" data-name="Rectangle 7411" width="73.481" height="2.047" transform="translate(0 51.525)" fill="#fff"/>
      </g>
      <path id="Path_194911" data-name="Path 194911" d="M173.489,350.256a5.921,5.921,0,0,1-5.931,5.922H58.887a5.923,5.923,0,0,1-5.927-5.922h0a5.929,5.929,0,0,1,5.927-5.927H167.558a5.927,5.927,0,0,1,5.931,5.927Z" transform="translate(-52.96 -344.329)" fill="#1c4670"/>
    </g>
    <g id="Group_10310" data-name="Group 10310" transform="translate(253.126 415.852)">
      <path id="Path_194912" data-name="Path 194912" d="M89.285,514.9l-2.444-2.272a111.868,111.868,0,0,0,30.036-76.419,112.279,112.279,0,0,0-26.691-72.654l2.544-2.159a115.594,115.594,0,0,1,27.479,74.813A115.17,115.17,0,0,1,89.285,514.9Z" transform="translate(-86.841 -361.393)" fill="#768296"/>
    </g>
    <g id="Group_10311" data-name="Group 10311" transform="translate(55.345 396.441)">
      <path id="Path_194913" data-name="Path 194913" d="M42.995,450.985H39.654A115.867,115.867,0,0,1,88.3,356.762l1.928,2.708A112.552,112.552,0,0,0,42.995,450.985Z" transform="translate(-39.654 -356.762)" fill="#768296"/>
    </g>
    <g id="Group_10312" data-name="Group 10312" transform="translate(110.32 586.255)">
      <path id="Path_194914" data-name="Path 194914" d="M113.366,422.033a115.342,115.342,0,0,1-60.6-17.139l1.756-2.846a112.524,112.524,0,0,0,84.759,13.643l.767,3.244A115.9,115.9,0,0,1,113.366,422.033Z" transform="translate(-52.77 -402.048)" fill="#768296"/>
    </g>
    <g id="Group_10319" data-name="Group 10319" transform="translate(180.837 380.199)">
      <g id="Group_10313" data-name="Group 10313" transform="translate(0)">
        <path id="Path_194915" data-name="Path 194915" d="M103.767,421.228a34.175,34.175,0,1,1,24.159-10.009A33.946,33.946,0,0,1,103.767,421.228Zm0-58.341a24.168,24.168,0,1,0,17.093,7.084A24.023,24.023,0,0,0,103.767,362.888Z" transform="translate(-69.594 -352.887)" fill="#1c4670"/>
      </g>
      <g id="Group_10314" data-name="Group 10314" transform="translate(50.87 50.869)">
        <rect id="Rectangle_7412" data-name="Rectangle 7412" width="10.003" height="22.198" transform="translate(0 7.072) rotate(-44.992)" fill="#1c4670"/>
      </g>
      <path id="Path_194916" data-name="Path 194916" d="M138.117,410.587a4.523,4.523,0,0,1,0,6.4L133.7,421.4a4.528,4.528,0,0,1-6.4,0L85.627,379.725a4.521,4.521,0,0,1,0-6.4l4.405-4.409a4.548,4.548,0,0,1,6.409,0Z" transform="translate(-22.668 -305.96)" fill="#ffa229"/>
      <g id="Group_10315" data-name="Group 10315" transform="translate(65.912 65.927)">
        <rect id="Rectangle_7413" data-name="Rectangle 7413" width="15.293" height="3.335" transform="matrix(0.709, -0.706, 0.706, 0.709, 0, 10.791)" fill="#1c4670"/>
      </g>
      <g id="Group_10316" data-name="Group 10316" transform="translate(69.66 69.658)">
        <rect id="Rectangle_7414" data-name="Rectangle 7414" width="15.296" height="3.333" transform="matrix(0.707, -0.707, 0.707, 0.707, 0, 10.821)" fill="#1c4670"/>
      </g>
      <g id="Group_10317" data-name="Group 10317" transform="translate(99.301 99.308)">
        <rect id="Rectangle_7415" data-name="Rectangle 7415" width="15.301" height="3.336" transform="matrix(0.708, -0.706, 0.706, 0.708, 0, 10.81)" fill="#1c4670"/>
      </g>
      <g id="Group_10318" data-name="Group 10318" transform="translate(95.573 95.56)">
        <rect id="Rectangle_7416" data-name="Rectangle 7416" width="15.29" height="3.338" transform="translate(0 10.821) rotate(-45.051)" fill="#1c4670"/>
      </g>
    </g>
  </g>
</svg>
