<svg xmlns="http://www.w3.org/2000/svg" width="285.092" height="287.947" viewBox="0 0 285.092 287.947">
  <g id="Group_10345" data-name="Group 10345" transform="translate(-142.079 -240.72)">
    <g id="Group_10323" data-name="Group 10323" transform="translate(309.003 288.163)">
      <g id="Group_10321" data-name="Group 10321" transform="translate(8.767 22.153)">
        <rect id="Rectangle_7417" data-name="Rectangle 7417" width="18.828" height="22.6" fill="#fcd751"/>
      </g>
      <g id="Group_10322" data-name="Group 10322">
        <path id="Path_194917" data-name="Path 194917" d="M213.09,274.426H176.737l18.179-23.855h0Z" transform="translate(-176.737 -250.57)" fill="#fcd751"/>
      </g>
    </g>
    <g id="Group_10331" data-name="Group 10331" transform="translate(142.079 302.043)">
      <g id="Group_10324" data-name="Group 10324" transform="translate(20.145)">
        <rect id="Rectangle_7418" data-name="Rectangle 7418" width="8.061" height="226.624" fill="#1c4670"/>
      </g>
      <g id="Group_10325" data-name="Group 10325" transform="translate(0 202.467)">
        <rect id="Rectangle_7419" data-name="Rectangle 7419" width="244.567" height="8.043" fill="#1c4670"/>
      </g>
      <g id="Group_10326" data-name="Group 10326" transform="translate(39.654 139.131)">
        <rect id="Rectangle_7420" data-name="Rectangle 7420" width="37.232" height="51.879" fill="#aebfce"/>
      </g>
      <g id="Group_10327" data-name="Group 10327" transform="translate(76.98 120.435)">
        <rect id="Rectangle_7421" data-name="Rectangle 7421" width="37.241" height="70.574" fill="#ffa229"/>
      </g>
      <g id="Group_10328" data-name="Group 10328" transform="translate(114.316 85.254)">
        <rect id="Rectangle_7422" data-name="Rectangle 7422" width="37.237" height="105.756" fill="#1c4670"/>
      </g>
      <g id="Group_10329" data-name="Group 10329" transform="translate(151.647 59.395)">
        <rect id="Rectangle_7423" data-name="Rectangle 7423" width="37.237" height="131.615" fill="#ffa229"/>
      </g>
      <g id="Group_10330" data-name="Group 10330" transform="translate(188.978 25.271)">
        <rect id="Rectangle_7424" data-name="Rectangle 7424" width="37.237" height="165.738" fill="#aebfce"/>
      </g>
    </g>
    <g id="Group_10335" data-name="Group 10335" transform="translate(192.64 265.06)">
      <g id="Group_10332" data-name="Group 10332" transform="translate(0 15.432)">
        <path id="Path_194918" data-name="Path 194918" d="M159.7,392.775l-7.126-4.976,21.038-30.126H192.9L212.64,320.2h19.97l19.646-28.662H271.7l19.134-34.974,7.022-7.582,6.383,5.9-6.651,7.187L276.874,300.23H256.833L237.2,328.888H217.884l-19.74,37.482H178.15Z" transform="translate(-152.577 -248.978)" fill="#1c4670"/>
      </g>
      <g id="Group_10334" data-name="Group 10334" transform="translate(132.227)">
        <g id="Group_10333" data-name="Group 10333">
          <path id="Path_194919" data-name="Path 194919" d="M205.481,279.591l7.666-33.818-33.116,10.263Z" transform="translate(-180.031 -245.773)" fill="#1c4670"/>
        </g>
      </g>
    </g>
    <g id="Group_10338" data-name="Group 10338" transform="translate(379.295 395.038)">
      <g id="Group_10336" data-name="Group 10336" transform="translate(11.542 29.175)">
        <rect id="Rectangle_7425" data-name="Rectangle 7425" width="24.792" height="29.758" fill="#fcd751"/>
      </g>
      <g id="Group_10337" data-name="Group 10337">
        <path id="Path_194920" data-name="Path 194920" d="M239.208,304.18H191.332l23.936-31.419h0Z" transform="translate(-191.332 -272.761)" fill="#fcd751"/>
      </g>
    </g>
    <g id="Group_10341" data-name="Group 10341" transform="translate(181.442 327.347)">
      <g id="Group_10339" data-name="Group 10339" transform="translate(11.537 29.175)">
        <rect id="Rectangle_7426" data-name="Rectangle 7426" width="24.796" height="29.758" fill="#fcd751"/>
      </g>
      <g id="Group_10340" data-name="Group 10340">
        <path id="Path_194921" data-name="Path 194921" d="M198.128,290.125H150.252l23.935-31.419h0Z" transform="translate(-150.252 -258.706)" fill="#fcd751"/>
      </g>
    </g>
    <g id="Group_10344" data-name="Group 10344" transform="translate(248.564 240.72)">
      <g id="Group_10342" data-name="Group 10342" transform="translate(7.29 18.433)">
        <rect id="Rectangle_7427" data-name="Rectangle 7427" width="15.658" height="18.795" fill="#fcd751"/>
      </g>
      <g id="Group_10343" data-name="Group 10343">
        <path id="Path_194922" data-name="Path 194922" d="M194.431,260.568H164.188L179.31,240.72h0Z" transform="translate(-164.188 -240.72)" fill="#fcd751"/>
      </g>
    </g>
  </g>
</svg>
