<svg id="Group_10288" data-name="Group 10288" xmlns="http://www.w3.org/2000/svg" width="263.058" height="268.926" viewBox="0 0 263.058 268.926">
  <g id="Group_10267" data-name="Group 10267" transform="translate(143.443 134.84)">
    <path id="Path_194824" data-name="Path 194824" d="M245.827,402.862c-7.067-5.817-18.838-9.622-32.208-9.622-13.344,0-25.12,3.8-32.186,9.622h-6.96v12.671c0,12.308,17.528,22.284,39.147,22.284,21.635,0,39.164-9.975,39.164-22.284V402.862Z" transform="translate(-174.463 -323.719)" fill="#ffa229"/>
    <path id="Path_194825" data-name="Path 194825" d="M245.827,399.536c-7.067-5.809-18.838-9.63-32.208-9.63-13.344,0-25.12,3.821-32.195,9.63h-6.952V412.2c0,12.312,17.528,22.3,39.147,22.3,21.635,0,39.164-9.984,39.164-22.3V399.536Z" transform="translate(-174.463 -334.604)" fill="#fcd751"/>
    <path id="Path_194826" data-name="Path 194826" d="M245.827,396.193c-7.075-5.809-18.846-9.617-32.208-9.617s-25.12,3.808-32.195,9.617h-6.952v12.658c0,12.312,17.528,22.292,39.147,22.292,21.635,0,39.164-9.98,39.164-22.292V396.193Z" transform="translate(-174.463 -345.476)" fill="#ffa229"/>
    <path id="Path_194827" data-name="Path 194827" d="M245.833,392.874c-7.075-5.817-18.846-9.634-32.208-9.634s-25.12,3.817-32.2,9.634h-6.96v12.662c0,12.317,17.528,22.288,39.155,22.288s39.164-9.971,39.164-22.288V392.874Z" transform="translate(-174.47 -356.367)" fill="#fcd751"/>
    <path id="Path_194828" data-name="Path 194828" d="M245.833,389.522c-7.075-5.8-18.846-9.613-32.208-9.613s-25.133,3.808-32.2,9.613h-6.96V402.2c0,12.308,17.528,22.288,39.155,22.288s39.164-9.98,39.164-22.288V389.522Z" transform="translate(-174.47 -367.243)" fill="#ffa229"/>
    <path id="Path_194829" data-name="Path 194829" d="M252.789,399.218c0,12.308-17.528,22.3-39.164,22.3s-39.155-9.992-39.155-22.3S192,376.939,213.625,376.939,252.789,386.919,252.789,399.218Z" transform="translate(-174.47 -376.939)" fill="#fcd751"/>
    <path id="Path_194830" data-name="Path 194830" d="M241.868,396.521c0,10.372-14.76,18.778-32.98,18.778s-32.967-8.406-32.967-18.778,14.761-18.756,32.967-18.756S241.868,386.162,241.868,396.521Z" transform="translate(-169.733 -374.242)" fill="#ffa229"/>
    <path id="Path_194831" data-name="Path 194831" d="M228.807,393.309c0,8.044-11.455,14.556-25.58,14.556s-25.572-6.512-25.572-14.556,11.455-14.56,25.572-14.56S228.807,385.274,228.807,393.309Z" transform="translate(-164.072 -371.03)" fill="#fcd751"/>
    <g id="Group_10266" data-name="Group 10266" transform="translate(29.18 10.85)">
      <path id="Path_194832" data-name="Path 194832" d="M188.865,400.142a42.67,42.67,0,0,1-4.469-.3,19.449,19.449,0,0,1-2.99-.606l1.744-2.9a15.385,15.385,0,0,0,2.248.529,29.8,29.8,0,0,0,3.467.354v-5.156c-.93-.234-1.838-.5-2.751-.793a12.26,12.26,0,0,1-2.435-1.028,5.687,5.687,0,0,1-1.723-1.467,3.351,3.351,0,0,1-.644-2.03,3.767,3.767,0,0,1,2.03-3.386,13.494,13.494,0,0,1,5.523-1.565v-2.311H193.5V381.7a32.49,32.49,0,0,1,3.446.3c.977.149,1.885.337,2.721.533l-1.608,2.8q-.761-.2-1.919-.41c-.772-.128-1.655-.234-2.64-.3V389.4c.925.23,1.859.5,2.793.8a13.234,13.234,0,0,1,2.5,1.062,6.208,6.208,0,0,1,1.787,1.429,2.94,2.94,0,0,1,.7,1.966,4.1,4.1,0,0,1-2.081,3.646A13.229,13.229,0,0,1,193.5,400v2.363h-4.632Zm-1.74-13.686c0,.512.345.938,1.041,1.279a15.846,15.846,0,0,0,2.614.955v-4.15a5.677,5.677,0,0,0-2.879.588A1.577,1.577,0,0,0,187.125,386.456Zm8.342,8.564c0-.546-.38-.981-1.143-1.335a19.338,19.338,0,0,0-2.738-.938v4.474a6.63,6.63,0,0,0,2.921-.7A1.725,1.725,0,0,0,195.467,395.02Z" transform="translate(-181.312 -379.483)" fill="#ffa229"/>
    </g>
  </g>
  <g id="Group_10274" data-name="Group 10274" transform="translate(54.061)">
    <g id="Group_10268" data-name="Group 10268">
      <path id="Path_194833" data-name="Path 194833" d="M221.02,480.337v-7.31l-.013,7.31a67.517,67.517,0,1,1,.013,0Zm-.009-120.387A52.884,52.884,0,0,0,221,465.718h.017a52.884,52.884,0,0,0-.009-105.767Z" transform="translate(-153.512 -345.322)" fill="#1c4670"/>
    </g>
    <g id="Group_10269" data-name="Group 10269" transform="translate(60.189 126.567)">
      <rect id="Rectangle_7393" data-name="Rectangle 7393" width="14.623" height="45.793" fill="#1c4670"/>
    </g>
    <path id="Path_194834" data-name="Path 194834" d="M191.386,485.934a7.4,7.4,0,0,1-7.4,7.4l-10.176.008a7.4,7.4,0,0,1-7.4-7.4V389.763a7.4,7.4,0,0,1,7.4-7.408h10.184a7.412,7.412,0,0,1,7.4,7.4Z" transform="translate(-111.399 -224.416)" fill="#aebfce"/>
    <g id="Group_10270" data-name="Group 10270" transform="translate(55.012 173.067)">
      <rect id="Rectangle_7394" data-name="Rectangle 7394" width="24.968" height="3.657" fill="#fcd751"/>
    </g>
    <g id="Group_10271" data-name="Group 10271" transform="translate(55.012 181.705)">
      <rect id="Rectangle_7395" data-name="Rectangle 7395" width="24.964" height="3.653" fill="#fcd751"/>
    </g>
    <g id="Group_10272" data-name="Group 10272" transform="translate(55.016 250.136)">
      <rect id="Rectangle_7396" data-name="Rectangle 7396" width="24.968" height="3.657" fill="#fcd751"/>
    </g>
    <g id="Group_10273" data-name="Group 10273" transform="translate(55.012 241.504)">
      <rect id="Rectangle_7397" data-name="Rectangle 7397" width="24.973" height="3.657" fill="#fcd751"/>
    </g>
  </g>
  <g id="Group_10275" data-name="Group 10275" transform="translate(80.234 21.162)">
    <path id="Path_194835" data-name="Path 194835" d="M205.942,388.4a22.64,22.64,0,1,0-38.763,0c6.12,10.935,7.361,13.549,7.434,18.543.119,7.485,0,13.456,0,13.456h23.9s-.111-5.971,0-13.456C198.585,401.947,199.831,399.333,205.942,388.4Z" transform="translate(-145.702 -337.963)" fill="#fcd751"/>
    <path id="Path_194836" data-name="Path 194836" d="M175.722,370.416h-8.483c1.258,6.841,8.483,6.841,8.483,6.841s7.233,0,8.5-6.841Z" transform="translate(-134.869 -284.557)" fill="#002254"/>
    <path id="Path_194837" data-name="Path 194837" d="M196.434,370.815a3.927,3.927,0,0,1-3.936,3.923H169.553a3.927,3.927,0,0,1-3.936-3.923h0a3.931,3.931,0,0,1,3.936-3.928H192.5a3.931,3.931,0,0,1,3.936,3.928Z" transform="translate(-140.165 -296.078)" fill="#768296"/>
    <path id="Path_194838" data-name="Path 194838" d="M194.251,370.047a3.411,3.411,0,0,1-3.616,3.16H169.524a3.408,3.408,0,0,1-3.617-3.16h0a3.4,3.4,0,0,1,3.617-3.16h21.111a3.408,3.408,0,0,1,3.616,3.16Z" transform="translate(-139.218 -296.078)" fill="#768296"/>
    <path id="Path_194839" data-name="Path 194839" d="M196.434,372.623a3.931,3.931,0,0,1-3.936,3.932H169.553a3.931,3.931,0,0,1-3.936-3.932h0a3.937,3.937,0,0,1,3.936-3.932H192.5a3.937,3.937,0,0,1,3.936,3.932Z" transform="translate(-140.165 -290.189)" fill="#768296"/>
    <path id="Path_194840" data-name="Path 194840" d="M170.526,350.284a1.551,1.551,0,0,1,1.552,1.544v9.037a1.549,1.549,0,0,1-1.552,1.535h0a1.54,1.54,0,0,1-1.548-1.535v-9.037a1.542,1.542,0,0,1,1.548-1.544Z" transform="translate(-129.192 -350.284)" fill="#ffa229"/>
    <path id="Path_194841" data-name="Path 194841" d="M165.109,351.693a1.544,1.544,0,0,1,2.115.567l4.516,7.822a1.537,1.537,0,0,1-.563,2.115h0a1.545,1.545,0,0,1-2.111-.563l-4.516-7.826a1.555,1.555,0,0,1,.559-2.115Z" transform="translate(-144.327 -346.366)" fill="#ffa229"/>
    <path id="Path_194842" data-name="Path 194842" d="M161.138,355.614a1.553,1.553,0,0,1,2.111-.567l7.826,4.521a1.542,1.542,0,0,1,.563,2.107h0a1.541,1.541,0,0,1-2.111.571l-7.83-4.516a1.546,1.546,0,0,1-.559-2.115Z" transform="translate(-155.475 -335.399)" fill="#ffa229"/>
    <path id="Path_194843" data-name="Path 194843" d="M159.649,361.007a1.549,1.549,0,0,1,1.552-1.548h9.037a1.547,1.547,0,0,1,1.544,1.548h0a1.547,1.547,0,0,1-1.544,1.548H161.2a1.549,1.549,0,0,1-1.552-1.548Z" transform="translate(-159.649 -320.329)" fill="#ffa229"/>
    <path id="Path_194844" data-name="Path 194844" d="M161.057,369.88a1.553,1.553,0,0,1,.567-2.116l7.826-4.521a1.539,1.539,0,0,1,2.111.571h0A1.542,1.542,0,0,1,171,365.93l-7.83,4.512a1.546,1.546,0,0,1-2.111-.563Z" transform="translate(-155.722 -308.654)" fill="#ffa229"/>
    <path id="Path_194845" data-name="Path 194845" d="M179.394,351.693a1.541,1.541,0,0,0-2.111.567l-4.525,7.822a1.551,1.551,0,0,0,.571,2.115h0a1.543,1.543,0,0,0,2.111-.563l4.525-7.826a1.551,1.551,0,0,0-.572-2.115Z" transform="translate(-117.516 -346.366)" fill="#ffa229"/>
    <path id="Path_194846" data-name="Path 194846" d="M185.9,355.614a1.554,1.554,0,0,0-2.111-.567l-7.83,4.521a1.551,1.551,0,0,0-.567,2.107h0a1.557,1.557,0,0,0,2.124.571l7.822-4.516a1.536,1.536,0,0,0,.563-2.115Z" transform="translate(-108.899 -335.399)" fill="#ffa229"/>
    <path id="Path_194847" data-name="Path 194847" d="M188.312,361.007a1.539,1.539,0,0,0-1.544-1.548h-9.033a1.551,1.551,0,0,0-1.548,1.548h0a1.551,1.551,0,0,0,1.548,1.548h9.033a1.539,1.539,0,0,0,1.544-1.548Z" transform="translate(-105.656 -320.329)" fill="#ffa229"/>
    <path id="Path_194848" data-name="Path 194848" d="M185.981,369.88a1.547,1.547,0,0,0-.571-2.116l-7.817-4.521a1.552,1.552,0,0,0-2.12.571h0a1.564,1.564,0,0,0,.572,2.115l7.822,4.512a1.544,1.544,0,0,0,2.115-.563Z" transform="translate(-108.651 -308.654)" fill="#ffa229"/>
    <path id="Path_194849" data-name="Path 194849" d="M194.251,371.86a3.411,3.411,0,0,1-3.616,3.164H169.524a3.408,3.408,0,0,1-3.617-3.164h0a3.411,3.411,0,0,1,3.617-3.169h21.111a3.414,3.414,0,0,1,3.616,3.169Z" transform="translate(-139.218 -290.189)" fill="#768296"/>
  </g>
  <g id="Group_10278" data-name="Group 10278" transform="translate(192.479 191.255)">
    <g id="Group_10277" data-name="Group 10277">
      <path id="Path_194850" data-name="Path 194850" d="M256.546,425.463a35.289,35.289,0,1,1-35.291-35.3A35.285,35.285,0,0,1,256.546,425.463Z" transform="translate(-185.968 -390.167)" fill="#fcd751"/>
      <path id="Path_194851" data-name="Path 194851" d="M246.051,420.9a29.344,29.344,0,1,1-29.35-29.333A29.343,29.343,0,0,1,246.051,420.9Z" transform="translate(-181.414 -385.603)" fill="#ffa229"/>
      <path id="Path_194852" data-name="Path 194852" d="M236.251,416.667a23.793,23.793,0,1,1-23.8-23.806A23.8,23.8,0,0,1,236.251,416.667Z" transform="translate(-177.166 -381.372)" fill="#fcd751"/>
      <g id="Group_10276" data-name="Group 10276" transform="translate(26.007 16.59)">
        <path id="Path_194853" data-name="Path 194853" d="M199.09,427.834a21.544,21.544,0,0,1-4.158-.5,11.624,11.624,0,0,1-2.781-.968l1.612-4.76a9.182,9.182,0,0,0,2.107.874,14.6,14.6,0,0,0,3.22.576v-8.427a27.583,27.583,0,0,1-2.559-1.284,9.676,9.676,0,0,1-2.26-1.7,7.965,7.965,0,0,1-1.612-2.384,8.549,8.549,0,0,1-.593-3.305,7.659,7.659,0,0,1,1.889-5.544,9,9,0,0,1,5.135-2.559v-3.792h4.32v3.621a17.724,17.724,0,0,1,3.2.49,19.7,19.7,0,0,1,2.529.874l-1.5,4.58a13.6,13.6,0,0,0-1.783-.657,12.2,12.2,0,0,0-2.452-.5v7.809c.857.379,1.732.823,2.6,1.3a11.182,11.182,0,0,1,2.32,1.719,8.43,8.43,0,0,1,1.663,2.354,7.507,7.507,0,0,1,.644,3.207,8.6,8.6,0,0,1-1.928,5.975,9.2,9.2,0,0,1-5.3,2.764v3.864h-4.32Zm-1.616-22.365a2.646,2.646,0,0,0,.964,2.094,11.388,11.388,0,0,0,2.448,1.539v-6.76a3.541,3.541,0,0,0-2.691.951A3.273,3.273,0,0,0,197.474,405.47Zm7.758,13.984a2.635,2.635,0,0,0-1.062-2.171,12.223,12.223,0,0,0-2.546-1.531v7.3a4.2,4.2,0,0,0,2.712-1.143A3.436,3.436,0,0,0,205.231,419.454Z" transform="translate(-192.066 -394.057)" fill="#ffa229"/>
      </g>
    </g>
  </g>
  <g id="Group_10281" data-name="Group 10281" transform="translate(0 126.678)">
    <path id="Path_194854" data-name="Path 194854" d="M214.47,403.952s-27.521.64-33.457-4.512c-5.941,5.152-33.466,4.512-33.466,4.512s-3.514.964-3.429,5.8,3.429,5.148,3.429,5.148H214.47s3.352-.316,3.433-5.148S214.47,403.952,214.47,403.952Z" transform="translate(-130.125 -295.315)" fill="#1c4670"/>
    <g id="Group_10279" data-name="Group 10279" transform="translate(13.991 108.636)">
      <path id="Path_194855" data-name="Path 194855" d="M214.47,400.5s-.363,0-2.145,0a4.167,4.167,0,0,1,2.951,4.273c-.077,3.6-3.843,3.032-3.843,3.032H150.588s-3.762.572-3.851-3.032a4.178,4.178,0,0,1,2.956-4.273c-1.783,0-2.145,0-2.145,0s-3.514.964-3.429,5.8,3.429,5.148,3.429,5.148H214.47s3.352-.315,3.433-5.148S214.47,400.5,214.47,400.5Z" transform="translate(-144.117 -400.498)" fill="#1c4670"/>
    </g>
    <path id="Path_194856" data-name="Path 194856" d="M168.512,379.883a4.85,4.85,0,0,1-4.862,4.853h-8.124a4.842,4.842,0,0,1-4.849-4.853h0a4.853,4.853,0,0,1,4.849-4.858h8.124a4.862,4.862,0,0,1,4.862,4.858Z" transform="translate(-108.707 -375.025)" fill="#fcd751"/>
    <path id="Path_194857" data-name="Path 194857" d="M191.724,376.94A50.888,50.888,0,1,0,242.6,427.828,50.887,50.887,0,0,0,191.724,376.94Zm0,91.4a40.516,40.516,0,1,1,40.516-40.511A40.518,40.518,0,0,1,191.724,468.339Z" transform="translate(-140.836 -368.773)" fill="#768296"/>
    <path id="Path_194858" data-name="Path 194858" d="M183.79,379.371a40.516,40.516,0,1,0,40.516,40.52A40.52,40.52,0,0,0,183.79,379.371Z" transform="translate(-132.902 -360.836)" fill="#e3fdff"/>
    <path id="Path_194859" data-name="Path 194859" d="M181.988,379.371a38.161,38.161,0,1,0,38.166,38.162A38.168,38.168,0,0,0,181.988,379.371Z" transform="translate(-131.1 -360.836)" fill="#fff"/>
    <g id="Group_10280" data-name="Group 10280" transform="translate(26.484 39.893)">
      <path id="Path_194860" data-name="Path 194860" d="M166.038,398.108c-6.534,6.9-12.389,11.971-13.063,11.327-.691-.644,4.056-6.773,10.585-13.673s12.393-11.976,13.08-11.327S172.572,391.2,166.038,398.108Z" transform="translate(-127.906 -384.379)" fill="#768296"/>
      <path id="Path_194861" data-name="Path 194861" d="M160.779,395.351c6.9,6.538,11.976,12.389,11.336,13.072s-6.777-4.065-13.677-10.6-11.984-12.393-11.336-13.072S153.874,388.822,160.779,395.351Z" transform="translate(-147.046 -383.367)" fill="#768296"/>
    </g>
    <path id="Path_194862" data-name="Path 194862" d="M154.977,402.872c0,3.548-.567,6.427-1.25,6.427-.7,0-1.254-2.879-1.254-6.427s.554-6.453,1.254-6.453C154.41,396.42,154.977,399.311,154.977,402.872Z" transform="translate(-102.84 -305.174)" fill="#768296"/>
    <path id="Path_194863" data-name="Path 194863" d="M154.977,384.741c0-3.553-.567-6.44-1.25-6.44-.7,0-1.254,2.887-1.254,6.44s.554,6.436,1.254,6.436C154.41,391.176,154.977,388.293,154.977,384.741Z" transform="translate(-102.84 -364.329)" fill="#768296"/>
    <path id="Path_194864" data-name="Path 194864" d="M166.76,388.577c3.557,0,6.436.567,6.436,1.258s-2.879,1.258-6.436,1.258-6.444-.572-6.444-1.258S163.195,388.577,166.76,388.577Z" transform="translate(-77.238 -330.78)" fill="#768296"/>
    <path id="Path_194865" data-name="Path 194865" d="M148.641,388.577c-3.553,0-6.444.567-6.444,1.258s2.891,1.258,6.444,1.258,6.436-.572,6.436-1.258S152.2,388.577,148.641,388.577Z" transform="translate(-136.393 -330.78)" fill="#768296"/>
    <path id="Path_194866" data-name="Path 194866" d="M163.047,397.782c1.949,1.945,3.22,3.825,2.836,4.2s-2.265-.883-4.2-2.832c-1.953-1.941-3.216-3.834-2.845-4.205S161.106,395.833,163.047,397.782Z" transform="translate(-82.276 -310.208)" fill="#768296"/>
    <path id="Path_194867" data-name="Path 194867" d="M149.353,384.085c-1.945-1.945-3.821-3.22-4.209-2.836s.891,2.269,2.84,4.209,3.83,3.216,4.209,2.836S151.3,386.026,149.353,384.085Z" transform="translate(-126.988 -354.927)" fill="#768296"/>
    <path id="Path_194868" data-name="Path 194868" d="M161.686,384.085c1.932-1.945,3.821-3.22,4.2-2.836s-.879,2.269-2.836,4.209c-1.94,1.953-3.83,3.216-4.209,2.836S159.729,386.026,161.686,384.085Z" transform="translate(-82.276 -354.927)" fill="#768296"/>
    <path id="Path_194869" data-name="Path 194869" d="M147.984,397.782c-1.945,1.945-3.216,3.825-2.84,4.2s2.265-.883,4.209-2.832,3.22-3.834,2.84-4.205S149.928,395.833,147.984,397.782Z" transform="translate(-126.988 -310.208)" fill="#768296"/>
  </g>
</svg>
