<svg xmlns="http://www.w3.org/2000/svg" viewBox="0 0 685 378"><defs><style>.cls-1{fill:#30a763;opacity:0.86;}.cls-2{fill:#e4e4e4;}.cls-3{fill:#004651;}.cls-4{fill:#dadada;}.cls-5{fill:#f3f3f3;}.cls-6{fill:#f6f6f6;}.cls-7{fill:#be1622;}.cls-8{fill:#b2b2b2;}.cls-9{opacity:0.5;}.cls-10{fill:#006e35;}.cls-11{fill:#b1cdbe;}.cls-12{fill:#a3e4e1;}.cls-13{fill:#4e4f4f;}.cls-14{fill:#58697d;}.cls-15{fill:#333;}.cls-16{fill:#38324d;}.cls-17{fill:#2d2642;}.cls-18{fill:#313236;}.cls-19{fill:#6a6b6b;}.cls-20{fill:#08a7b8;}.cls-21{fill:#037477;}.cls-22{fill:#00a9b8;}.cls-23{fill:#193b53;}.cls-24{fill:#50777f;}.cls-25{fill:#c6c6c6;}.cls-26{fill:#273438;}.cls-27{fill:#de2d32;}.cls-28{fill:#ff9409;}.cls-29{fill:#ededed;}.cls-30{fill:#1d15b7;}.cls-31{fill:#e50e28;}.cls-32{fill:#9d9d9c;}.cls-33{fill:#eea886;}.cls-34{fill:#222b70;}.cls-35{fill:#353a3d;}.cls-36{fill:#ead8cf;}.cls-37{fill:#7782e5;}.cls-38{fill:#3d3e52;}.cls-39{fill:#4b5257;}.cls-40{fill:#ffa320;}.cls-41{fill:#e56500;}.cls-42{fill:#fff;}.cls-43{fill:#4d6ea3;}.cls-44{fill:#bdaea7;}.cls-45{fill:#5b83c2;}.cls-46{fill:#92a7f4;}.cls-47{fill:#ff9f7a;}.cls-48{fill:#a77860;}.cls-49{fill:#963815;}.cls-50{fill:#003d57;}.cls-51{fill:#ffb780;}.cls-52{fill:#005479;}.cls-53{fill:#2f6b8c;}.cls-54{fill:#2f4563;}.cls-55{fill:#bcc0cf;}.cls-56{fill:#434343;}.cls-57{fill:#dbdff0;}.cls-58{fill:#616161;}.cls-59{fill:#e0cec7;}.cls-60{fill:#a7aab8;}.cls-61{fill:#c6cad9;}.cls-62{fill:#411809;}</style></defs><title>industryArtboard 2 copy 6</title><g id="Designed_by_Freepik" data-name="Designed by Freepik"><path id="Path_200097" data-name="Path 200097" class="cls-1" d="M107.35,356.93c-22.58,8,20.26,10.25,62.79,10.25s55-10.25,107.34-10.25c22.35,0,79.56,5.57,103.28,5.51,31.33-.09,67.27,4.63,84.64-8.4s-65.85-22.66-101.62-22.66-46.86,1-126.9,0c-14.87,1-101.49,2.85-115.84,3.79C64.05,338.89,125.48,350.54,107.35,356.93Z"/><g id="Building"><path id="Path_199181" data-name="Path 199181" class="cls-2" d="M264.15,308.22a6.53,6.53,0,0,1-6.54,6.48H99.67a6.52,6.52,0,0,1-6.54-6.48V188.39a6.51,6.51,0,0,1,6.53-6.47h158a6.51,6.51,0,0,1,6.54,6.47h0Z"/><path id="Path_199182" data-name="Path 199182" class="cls-2" d="M536.2,308.22a6.5,6.5,0,0,1-6.52,6.48H371.8a6.51,6.51,0,0,1-6.52-6.48V188.39a6.5,6.5,0,0,1,6.52-6.47H529.69a6.51,6.51,0,0,1,6.54,6.47h0Z"/><path id="Path_199183" data-name="Path 199183" class="cls-3" d="M254.35,182.46a6.51,6.51,0,0,1-6.53,6.48H88.38a6.52,6.52,0,0,1-6.54-6.48v-1.62a6.5,6.5,0,0,1,6.54-6.47H247.82a6.49,6.49,0,0,1,6.53,6.47h0Z"/><path id="Path_199184" data-name="Path 199184" class="cls-3" d="M548.2,182.46a6.5,6.5,0,0,1-6.53,6.48H382.23a6.51,6.51,0,0,1-6.54-6.48v-1.62a6.5,6.5,0,0,1,6.54-6.47H541.68a6.5,6.5,0,0,1,6.54,6.47h0Z"/><path id="Path_199185" data-name="Path 199185" class="cls-4" d="M341.41,81.54a6.51,6.51,0,0,0-6.52-6.49H291.36a6.51,6.51,0,0,0-6.54,6.47V125a6.51,6.51,0,0,0,6.53,6.47h43.53a6.51,6.51,0,0,0,6.54-6.47h0Z"/><path id="Path_199186-2" data-name="Path 199186-2" class="cls-5" d="M386,308.21a6.51,6.51,0,0,1-6.52,6.49H246.74a6.51,6.51,0,0,1-6.54-6.47V136.51a6.5,6.5,0,0,1,6.54-6.47H379.5a6.5,6.5,0,0,1,6.54,6.47h0Z"/><path id="Path_199187" data-name="Path 199187" class="cls-3" d="M391.47,130.64a6.52,6.52,0,0,0-6.58-6.47H241.35a6.54,6.54,0,0,0-6.55,6.47v1.64a6.55,6.55,0,0,0,6.59,6.48H384.88a6.53,6.53,0,0,0,6.59-6.48Z"/><ellipse id="Ellipse_657" data-name="Ellipse 657" class="cls-6" cx="313.13" cy="100.96" rx="18.51" ry="18.35"/><path id="Path_199188" data-name="Path 199188" class="cls-7" d="M324.89,95.38h-6.15v-6.1a2.09,2.09,0,0,0-2.11-2.08h-7a2.1,2.1,0,0,0-2.11,2.08v6.1h-6.15a2.1,2.1,0,0,0-2.15,2.06v7a2.1,2.1,0,0,0,2.1,2.09h6.15v6.1a2.1,2.1,0,0,0,2.11,2.08h7a2.09,2.09,0,0,0,2.11-2.08v-6.1h6.15a2.09,2.09,0,0,0,2.1-2.07v-7a2.09,2.09,0,0,0-2-2.09Z"/><g id="Door"><rect id="Rectangle_8812" data-name="Rectangle 8812" class="cls-8" x="275.02" y="248.31" width="76.91" height="66.39"/><rect id="Rectangle_8813" data-name="Rectangle 8813" class="cls-4" x="288.9" y="248.31" width="48.98" height="66.39"/><rect id="Rectangle_8814" data-name="Rectangle 8814" class="cls-8" x="310.95" y="247.22" width="4.53" height="67.47"/><path id="Path_199189" data-name="Path 199189" class="cls-3" d="M359.38,247.22a6.53,6.53,0,0,1-6.54,6.49H274.53a6.51,6.51,0,0,1-6.52-6.49h0a6.5,6.5,0,0,1,6.52-6.42H352.9a6.49,6.49,0,0,1,6.53,6.47h0Z"/><path id="Path_199190" data-name="Path 199190" class="cls-3" d="M308.78,283a1.54,1.54,0,0,1-1.55,1.53h-6.16a1.54,1.54,0,0,1-1.55-1.52h0a1.55,1.55,0,0,1,1.55-1.53h6.16A1.55,1.55,0,0,1,308.78,283Z"/><path id="Path_199191" data-name="Path 199191" class="cls-3" d="M326.73,283a1.54,1.54,0,0,1-1.55,1.53H319a1.53,1.53,0,0,1-1.54-1.52h0A1.53,1.53,0,0,1,319,281.5h6.21a1.55,1.55,0,0,1,1.55,1.53Z"/></g></g><g id="Window" class="cls-9"><path id="Path_199192" data-name="Path 199192" class="cls-10" d="M180,208.61H158.78a6.09,6.09,0,0,0-6.05,6.13v21.47a6.1,6.1,0,0,0,6.05,6.14H180a6.12,6.12,0,0,0,6.06-6.14V214.7A6.1,6.1,0,0,0,180,208.61Z"/><path id="Path_199193" data-name="Path 199193" class="cls-10" d="M223.21,213.94a6.06,6.06,0,0,0-6-5.33H196a6.08,6.08,0,0,0-6,6.09v22a6.06,6.06,0,0,0,6,5.61H217.2a6.1,6.1,0,0,0,6.05-6.14V214.7a4.78,4.78,0,0,0,0-.76Z"/><path id="Path_199194" data-name="Path 199194" class="cls-10" d="M217.22,249.5H196a6.09,6.09,0,0,0-6,6.12h0V277.1a6.12,6.12,0,0,0,6,6.14h21.18a6.11,6.11,0,0,0,6.06-6.14V255.63A6.1,6.1,0,0,0,217.22,249.5Z"/><path id="Path_199195" data-name="Path 199195" class="cls-10" d="M138.08,208.69a6.61,6.61,0,0,0-1-.08H115.93a6.09,6.09,0,0,0-6.06,6.09v21.47a6.12,6.12,0,0,0,6.06,6.14h21.16a6.12,6.12,0,0,0,6.06-6.14V214.7A6.12,6.12,0,0,0,138.08,208.69Z"/><path id="Path_199196" data-name="Path 199196" class="cls-10" d="M137.9,249.56h-22a6.1,6.1,0,0,0-6.06,6.13v21.47a6.24,6.24,0,0,0,.45,2.34,6.07,6.07,0,0,0,5.6,3.8h21.17a6.1,6.1,0,0,0,6-6.14V255.63a6.11,6.11,0,0,0-5.24-6.07Z"/><path id="Path_199197" data-name="Path 199197" class="cls-10" d="M182.74,250.18a6,6,0,0,0-2.74-.68H158.78a6.09,6.09,0,0,0-6.05,6.13V277.1a6.1,6.1,0,0,0,6.05,6.14H180a6.11,6.11,0,0,0,6.06-6.14V255.63A6.12,6.12,0,0,0,182.74,250.18Z"/><path id="Path_199198" data-name="Path 199198" class="cls-11" d="M322.4,151.51H300.56a6.24,6.24,0,0,0-6.22,6.26v22.11a6.25,6.25,0,0,0,6.22,6.09h21.81a6.26,6.26,0,0,0,6.24-6.26v-22A6.26,6.26,0,0,0,322.4,151.51Z"/><path id="Path_199199" data-name="Path 199199" class="cls-11" d="M366,151.51H344.2a6.24,6.24,0,0,0-6.22,6.26v22a6.21,6.21,0,0,0,6.19,6.26H366a2.72,2.72,0,0,0,.57,0,6.24,6.24,0,0,0,5.65-6.08V157.8a6.25,6.25,0,0,0-6.22-6.29Z"/><path id="Path_199200" data-name="Path 199200" class="cls-11" d="M281.24,194.09a6.16,6.16,0,0,0-3-.76H256.46a6.24,6.24,0,0,0-6.22,6.27h0v22a6.27,6.27,0,0,0,6.22,6.27h21.81a6.22,6.22,0,0,0,4.63-2.09,5.81,5.81,0,0,1,1-1.47h0a6.53,6.53,0,0,0,.61-2.75V199.59A6.26,6.26,0,0,0,281.24,194.09Z"/><path id="Path_199201" data-name="Path 199201" class="cls-11" d="M366,193.32H344.2a6.24,6.24,0,0,0-6.22,6.27v22a6.24,6.24,0,0,0,6.22,6.27H366a6.26,6.26,0,0,0,6.23-6.27v-22A6.26,6.26,0,0,0,366,193.32Z"/><path id="Path_199202" data-name="Path 199202" class="cls-11" d="M278.27,151.51H256.46a6.24,6.24,0,0,0-6.22,6.26v22a6.24,6.24,0,0,0,6.22,6.26h21.81a6.24,6.24,0,0,0,6.23-6.26v-22A6.25,6.25,0,0,0,278.27,151.51Z"/><path id="Path_199203" data-name="Path 199203" class="cls-11" d="M322.4,193.32H300.56a6.24,6.24,0,0,0-6.22,6.27v22a6.28,6.28,0,0,0,2.74,5.22,6.18,6.18,0,0,0,3.43,1.05h21.81a6.26,6.26,0,0,0,6.23-6.27v-22a6.26,6.26,0,0,0-6.23-6.27Z"/><path id="Path_199204" data-name="Path 199204" class="cls-10" d="M475.61,209.42a6,6,0,0,0-3-.81H451.44a6.1,6.1,0,0,0-6.06,6.13v21.47a6.14,6.14,0,0,0,2.47,4.93,6,6,0,0,0,3.59,1.21h21.17a6.11,6.11,0,0,0,6.05-6.14V214.7A6.13,6.13,0,0,0,475.61,209.42Z"/><path id="Path_199205" data-name="Path 199205" class="cls-10" d="M521,214.45a6.1,6.1,0,0,0-6-5.84H493.73a6.09,6.09,0,0,0-6.05,6.13v21.47a6.1,6.1,0,0,0,6.05,6.14H515a6.09,6.09,0,0,0,6-6.14h0V214.7S521,214.54,521,214.45Z"/><path id="Path_199206" data-name="Path 199206" class="cls-10" d="M426.14,208.45H403.31a6.49,6.49,0,0,0-6.53,6.47h0v22.67a6.49,6.49,0,0,0,6.53,6.47h22.85a6.5,6.5,0,0,0,6.54-6.47h0V214.92a6.5,6.5,0,0,0-6.54-6.47Z"/><path id="Path_199207" data-name="Path 199207" class="cls-10" d="M426.14,251.67H403.31a6.52,6.52,0,0,0-6.53,6.49v22.66a6.5,6.5,0,0,0,6.53,6.43h22.85a6.52,6.52,0,0,0,6.54-6.48V258.11a7.18,7.18,0,0,0-.14-1.38A6.52,6.52,0,0,0,426.14,251.67Z"/><path id="Path_199208" data-name="Path 199208" class="cls-10" d="M474.55,249.81a6,6,0,0,0-1.88-.3H451.44a6.09,6.09,0,0,0-6.06,6.12V277.1a6.11,6.11,0,0,0,6.06,6.14h21.17a6.1,6.1,0,0,0,6.05-6.14V255.63A6.12,6.12,0,0,0,474.55,249.81Z"/><path id="Path_199209" data-name="Path 199209" class="cls-12" d="M283.11,214.19a5.44,5.44,0,0,0-1,1.52,6.42,6.42,0,0,0,1-1.54Z"/></g><g id="Group_14898" data-name="Group 14898"><g id="Group_14897" data-name="Group 14897"><g id="Group_14870" data-name="Group 14870"><g id="Group_14856" data-name="Group 14856"><rect id="Rectangle_9183" data-name="Rectangle 9183" class="cls-13" x="177.12" y="295.73" width="1.11" height="47.17"/></g><g id="Group_14857" data-name="Group 14857"><path id="Path_200237" data-name="Path 200237" class="cls-13" d="M183.14,342.26l1.07-.29L172,296.4l-1.08.29Z"/></g><g id="Group_14858" data-name="Group 14858"><path id="Path_200238" data-name="Path 200238" class="cls-13" d="M188.79,340.07l1-.56-23.53-40.85-.95.56Z"/></g><g id="Group_14859" data-name="Group 14859"><polygon id="Rectangle_9184" data-name="Rectangle 9184" class="cls-13" points="160.42 303.12 161.2 302.34 194.46 335.69 193.68 336.48 160.42 303.12"/></g><g id="Group_14860" data-name="Group 14860"><path id="Path_200239" data-name="Path 200239" class="cls-13" d="M197.48,331.76l.55-1-40.74-23.59-.56,1Z"/></g><g id="Group_14861" data-name="Group 14861"><path id="Path_200240" data-name="Path 200240" class="cls-13" d="M199.93,326.21l.29-1.07-45.45-12.22-.28,1.08Z"/></g><g id="Group_14862" data-name="Group 14862"><rect id="Rectangle_9185" data-name="Rectangle 9185" class="cls-13" x="153.82" y="319.1" width="47.04" height="1.11"/></g><g id="Group_14863" data-name="Group 14863"><path id="Path_200241" data-name="Path 200241" class="cls-13" d="M154.77,326.38l45.45-12.21-.29-1.07-45.44,12.21Z"/></g><g id="Group_14864" data-name="Group 14864"><polygon id="Rectangle_9186" data-name="Rectangle 9186" class="cls-13" points="156.73 331.13 197.48 307.54 198.03 308.51 157.29 332.1 156.73 331.13"/></g><g id="Group_14865" data-name="Group 14865"><polygon id="Rectangle_9187" data-name="Rectangle 9187" class="cls-13" points="160.41 336.18 193.68 302.82 194.46 303.61 161.2 336.96 160.41 336.18"/></g><g id="Group_14866" data-name="Group 14866"><path id="Path_200242" data-name="Path 200242" class="cls-13" d="M166.22,340.65l23.53-40.86-1-.55-23.52,40.85Z"/></g><g id="Group_14867" data-name="Group 14867"><polygon id="Rectangle_9188" data-name="Rectangle 9188" class="cls-13" points="170.96 342.62 183.14 297.05 184.21 297.34 172.03 342.9 170.96 342.62"/></g><g id="Group_14868" data-name="Group 14868"><path id="Path_200243" data-name="Path 200243" class="cls-14" d="M152.49,319.32a25.19,25.19,0,1,1,25.19,25.25h0A25.24,25.24,0,0,1,152.49,319.32Zm3.32,0a21.86,21.86,0,1,0,21.86-21.92A21.89,21.89,0,0,0,155.81,319.32Z"/></g><g id="Group_14869" data-name="Group 14869"><path id="Path_200244" data-name="Path 200244" class="cls-15" d="M173.84,319.32a3.83,3.83,0,1,0,3.83-3.85A3.83,3.83,0,0,0,173.84,319.32Z"/></g></g><path id="Path_200245" data-name="Path 200245" class="cls-16" d="M198.2,307.14a3.14,3.14,0,0,1-3.25,3H153.11a3.14,3.14,0,0,1-3.25-3v-2.51a3.14,3.14,0,0,1,3.25-3H195a3.15,3.15,0,0,1,3.25,3Z"/><path id="Path_200246" data-name="Path 200246" class="cls-17" d="M152.71,307.39h41.84a3.14,3.14,0,0,0,3.26-3v-1.16a2.87,2.87,0,0,1,.4,1.4v2.51a3.15,3.15,0,0,1-3.26,3H153.11a3.14,3.14,0,0,1-3.25-3V305.8A3.26,3.26,0,0,0,152.71,307.39Z"/><g id="Group_14878" data-name="Group 14878"><path id="Path_200260" data-name="Path 200260" class="cls-18" d="M208.13,342.2a1.55,1.55,0,0,0,.31,0l12.41-2.4a1.62,1.62,0,0,0-.61-3.19h0l-11,2.13-9.49-28.82a1.62,1.62,0,0,0-1.54-1.12H151.47c0-7.63.1-34.78,0-43.61-.14-11.48-8.69-12.11-8.78-12.12a1.63,1.63,0,0,0-.2,3.25c.59,0,5.64.69,5.73,8.9.12,10,0,44.8,0,45.2a1.62,1.62,0,0,0,1.62,1.63H197l9.56,29.07A1.62,1.62,0,0,0,208.13,342.2Z"/></g><g id="Group_14879" data-name="Group 14879"><path id="Path_200261" data-name="Path 200261" class="cls-19" d="M194.22,312a1.62,1.62,0,0,0,1.62-1.61c.2-23.28-19.6-29.13-19.8-29.19a1.61,1.61,0,0,0-.44-.06H149.85a1.63,1.63,0,0,0,0,3.25h25.51c2.06.65,17.4,6.2,17.24,26a1.62,1.62,0,0,0,1.61,1.64h0Z"/></g><g id="Group_14894" data-name="Group 14894"><g id="Group_15552" data-name="Group 15552"><g id="Group_14880" data-name="Group 14880"><rect id="Rectangle_9189" data-name="Rectangle 9189" class="cls-20" x="171.21" y="295.82" width="1.17" height="49.46"/></g><g id="Group_14881" data-name="Group 14881"><polygon id="Rectangle_9190" data-name="Rectangle 9190" class="cls-20" points="164.75 296.82 165.87 296.52 178.67 344.29 177.54 344.59 164.75 296.82"/></g><g id="Group_14882" data-name="Group 14882"><polygon id="Rectangle_9191" data-name="Rectangle 9191" class="cls-20" points="158.74 299.49 159.75 298.91 184.5 341.69 183.5 342.28 158.74 299.49"/></g><g id="Group_14883" data-name="Group 14883"><polygon id="Rectangle_9192" data-name="Rectangle 9192" class="cls-20" points="153.7 303.57 154.52 302.75 189.4 337.72 188.58 338.55 153.7 303.57"/></g><g id="Group_14884" data-name="Group 14884"><path id="Path_200262" data-name="Path 200262" class="cls-20" d="M192.57,333.59l.57-1-42.71-24.74-.59,1Z"/></g><g id="Group_14885" data-name="Group 14885"><polygon id="Rectangle_9193" data-name="Rectangle 9193" class="cls-20" points="147.5 314.92 147.8 313.79 195.42 326.69 195.12 327.82 147.5 314.92"/></g><g id="Group_14886" data-name="Group 14886"><rect id="Rectangle_9194" data-name="Rectangle 9194" class="cls-20" x="146.78" y="320.31" width="49.33" height="1.17"/></g><g id="Group_14887" data-name="Group 14887"><path id="Path_200263" data-name="Path 200263" class="cls-20" d="M147.78,328l47.66-12.8-.3-1.13-47.66,12.8Z"/></g><g id="Group_14888" data-name="Group 14888"><path id="Path_200264" data-name="Path 200264" class="cls-20" d="M150.43,333.94l42.72-24.73-.58-1-42.73,24.73Z"/></g><g id="Group_14889" data-name="Group 14889"><polygon id="Rectangle_9195" data-name="Rectangle 9195" class="cls-20" points="153.7 338.22 188.57 303.25 189.4 304.07 154.52 339.04 153.7 338.22"/></g><g id="Group_14890" data-name="Group 14890"><path id="Path_200265" data-name="Path 200265" class="cls-20" d="M159.79,342.9l24.67-42.83-1-.58-24.67,42.84Z"/></g><g id="Group_14891" data-name="Group 14891"><path id="Path_200266" data-name="Path 200266" class="cls-20" d="M165.89,345.27l12.76-47.77-1.12-.3L164.76,345Z"/></g></g><g id="Group_14892" data-name="Group 14892"><path id="Path_200267" data-name="Path 200267" class="cls-21" d="M145.39,320.55A26.41,26.41,0,1,1,171.8,347,26.44,26.44,0,0,1,145.39,320.55Zm3.48,0a22.93,22.93,0,1,0,22.93-23h0A23,23,0,0,0,148.87,320.55Z"/></g><g id="Group_14893" data-name="Group 14893"><path id="Path_200268" data-name="Path 200268" class="cls-18" d="M167.77,320.55a4,4,0,1,0,4-4h0A4,4,0,0,0,167.77,320.55Z"/></g></g><path id="Path_200270" data-name="Path 200270" class="cls-18" d="M191,284.15a2.3,2.3,0,0,1-2.37,2.21H154a2.31,2.31,0,0,1-2.38-2.21v-1.86a2.31,2.31,0,0,1,2.38-2.21H188.6a2.32,2.32,0,0,1,2.38,2.21Z"/></g></g><g id="Ambulance"><path id="Path_199210" data-name="Path 199210" class="cls-22" d="M597.1,241.35H476.2c-3.7,0-4.28,2.25-6.69,5.76L453.56,274h-22.3c-3.7,0-6.7,2.48-6.7,5.54v35.15c0,3.07,3,5.55,6.7,5.55H597.1a5.75,5.75,0,0,0,5.44-3.88h0v-.16a4.71,4.71,0,0,0,.23-1.44V247.13A5.75,5.75,0,0,0,597.1,241.35Z"/><path id="Path_199211" data-name="Path 199211" class="cls-21" d="M502.17,312.88H469.41c-4.13,0-7.5-4.38-7.5-9.77V273.23c0-5.38,3.35-9.76,7.5-9.76h32.76c4.14,0,7.5,4.37,7.5,9.76v29.82C509.59,308.46,506.22,312.88,502.17,312.88Zm-32.68-46.83c-2.66,0-4.9,3.36-4.9,7.25v29.81c0,3.93,2.24,7.25,4.9,7.25h32.68c2.66,0,4.9-3.35,4.9-7.25V273.23c0-3.92-2.24-7.24-4.9-7.24Z"/><path id="Path_199212" data-name="Path 199212" class="cls-23" d="M480.42,245.29c-2.59,0-3,1.58-4.7,4.05,0,0-11.88,18.55-12.28,20.67s2.11,4,4.7,4h41.53V245.29Z"/><path id="Path_199213" data-name="Path 199213" class="cls-24" d="M493.65,253.09a2.13,2.13,0,0,0-3,.19l-18.62,20.77h5.64L493.81,256a2.12,2.12,0,0,0-.15-2.91Z"/><path id="Path_199214" data-name="Path 199214" class="cls-24" d="M505.8,245.29,486.33,267.1a2.09,2.09,0,0,0,.16,2.94h0a2.1,2.1,0,0,0,3-.18h0l20.08-22.48v-2.1Z"/><path id="Path_199215" data-name="Path 199215" class="cls-21" d="M509.59,275H468a6.15,6.15,0,0,1-4.68-2.08,3.77,3.77,0,0,1-.86-3.09c.4-2.18,10.21-17.89,12.17-21,.32-.47.57-.88.8-1.27,1.12-1.8,2-3.22,4.6-3.22h29.6ZM480,246.25c-1.56,0-2,.64-3,2.32-.26.4-.52.84-.84,1.3-5.56,8.86-11.63,19-11.9,20.32a1.88,1.88,0,0,0,.45,1.51,4.27,4.27,0,0,0,3.25,1.39H507.7V246.25Z"/><path id="Path_199216" data-name="Path 199216" class="cls-6" d="M508.25,282.32a1.51,1.51,0,0,1-1.51,1.5h-7.68a1.51,1.51,0,0,1-1.51-1.5h0a1.5,1.5,0,0,1,1.51-1.49h7.68A1.5,1.5,0,0,1,508.25,282.32Z"/><path id="Path_199217" data-name="Path 199217" class="cls-25" d="M425.07,282a2.24,2.24,0,0,1,.08-.57h-.38a1,1,0,0,0-1.1.91v9.86a1,1,0,0,0,1.1.89,1.21,1.21,0,0,0,.38,0,2.74,2.74,0,0,1-.08-.64Z"/><path id="Path_199218" data-name="Path 199218" class="cls-6" d="M427.12,279.67a2.4,2.4,0,0,0-2.05,2.33v10.34a2.8,2.8,0,0,0,.08.64,2.11,2.11,0,0,0,2,1.67,2.2,2.2,0,0,0,2-2.33V282a2.2,2.2,0,0,0-2-2.32Z"/><path id="Path_199219" data-name="Path 199219" class="cls-4" d="M591.8,300.41h-4.29a3.09,3.09,0,0,0-2.86,3.25,46,46,0,0,0,2.23,4.3c.88,1.47,1.82,2.63,3.34,2.63h12.6V300.41Z"/><path id="Path_199220" data-name="Path 199220" class="cls-26" d="M604.72,317.47a2.81,2.81,0,0,1-2.82,2.74H426.47a2.81,2.81,0,0,1-2.81-2.79h0a2.8,2.8,0,0,1,2.81-2.77H601.9a2.81,2.81,0,0,1,2.82,2.77Z"/><rect id="Rectangle_8815" data-name="Rectangle 8815" class="cls-27" x="592.87" y="301.43" width="10.01" height="8.05"/><path id="Path_199221" data-name="Path 199221" class="cls-28" d="M589,301.43a2.6,2.6,0,0,0-2.61,2.59,36.65,36.65,0,0,0,2,3.35,3.77,3.77,0,0,0,3.1,2.08h1.4V301.4Z"/><path id="Path_199222" data-name="Path 199222" class="cls-21" d="M458.28,301a19.38,19.38,0,0,0-19.46,19.26h38.92A19.36,19.36,0,0,0,458.28,301Z"/><path id="Path_199223" data-name="Path 199223" class="cls-26" d="M475.4,320.21A17.05,17.05,0,1,1,458,303.43h.24a17.08,17.08,0,0,1,17.12,16.78Z"/><path id="Path_199224" data-name="Path 199224" class="cls-21" d="M565.91,301a19.38,19.38,0,0,0-19.46,19.26h38.92A19.38,19.38,0,0,0,565.91,301Z"/><path id="Path_199225" data-name="Path 199225" class="cls-26" d="M582.94,320.21a17,17,0,1,1-17.33-16.78h.3A17,17,0,0,1,582.94,320.21Z"/><path id="Path_199226" data-name="Path 199226" class="cls-22" d="M471,320.21a12.63,12.63,0,1,1-3.74-8.93A12.62,12.62,0,0,1,471,320.21Z"/><path id="Path_199227" data-name="Path 199227" class="cls-29" d="M469.23,320.21a10.91,10.91,0,1,1-3.23-7.7A11,11,0,0,1,469.23,320.21Z"/><path id="Path_199228" data-name="Path 199228" class="cls-26" d="M461.29,320.21a3,3,0,1,1-3.05-3h0A3,3,0,0,1,461.29,320.21Z"/><path id="Path_199229" data-name="Path 199229" class="cls-22" d="M578.65,320.21a12.69,12.69,0,1,1-12.82-12.59H566A12.72,12.72,0,0,1,578.65,320.21Z"/><path id="Path_199230" data-name="Path 199230" class="cls-29" d="M576.9,320.21a10.87,10.87,0,1,1-3.21-7.7A10.87,10.87,0,0,1,576.9,320.21Z"/><path id="Path_199231" data-name="Path 199231" class="cls-26" d="M569,320.21a3,3,0,1,1-3.06-3h0A3,3,0,0,1,569,320.21Z"/><path id="Path_199232" data-name="Path 199232" class="cls-29" d="M572,263.65H560.74V252.54a2.13,2.13,0,0,0-2.13-2.13h-7.14a2.13,2.13,0,0,0-2.14,2.11v11.13H538.12a2.15,2.15,0,0,0-2.15,2.13v7.06a2.15,2.15,0,0,0,2.15,2.13h11.21v11.11a2.13,2.13,0,0,0,2.12,2.13h7.15a2.12,2.12,0,0,0,2.14-2.11V274.91h11.19a2.13,2.13,0,0,0,2.15-2.12h0v-7.07A2.13,2.13,0,0,0,572,263.65Z"/><path id="Path_199233" data-name="Path 199233" class="cls-30" d="M491.55,235.26a3.07,3.07,0,0,0,0,6.14h3l4.84-6.14Z"/><path id="Path_199234" data-name="Path 199234" class="cls-31" d="M516.41,235.26H501.86L497,241.35h19.37a3.07,3.07,0,0,0,0-6.14Z"/><path id="Path_199235" data-name="Path 199235" class="cls-32" d="M499.35,235.26l-4.82,6.14H497l4.82-6.14Z"/></g><g id="Group_14336" data-name="Group 14336"><path id="Path_198483" data-name="Path 198483" class="cls-33" d="M377.27,215.42s-.85-2.1.33-2.39l.44,1.9Z"/><g id="Group_14298" data-name="Group 14298"><g id="Group_14292" data-name="Group 14292"><g id="Group_14291" data-name="Group 14291"><path id="Path_198484" data-name="Path 198484" class="cls-34" d="M380.5,347.39s-4.52,2.13-4.49,2.83.68,1.69,1.2,1.66,7.8.14,8.47-.37,3.36-5.61,5.06-5.95a3.81,3.81,0,0,0,2.65-4.67,3.61,3.61,0,0,0-.6-1.23C390.82,336.74,383.54,347,380.5,347.39Z"/></g></g><g id="Group_14294" data-name="Group 14294"><g id="Group_14293" data-name="Group 14293"><path id="Path_198485" data-name="Path 198485" class="cls-33" d="M389.41,338.35a18,18,0,0,0-4.33,4.64c-1.1,2.16-5.41,4.73-5.26,5.12s4.11.62,5.4-1a43.54,43.54,0,0,1,6.91-6.66c1.28-.67.22-.71.22-.71Z"/></g></g><g id="Group_14295" data-name="Group 14295"><path id="Path_198486" data-name="Path 198486" class="cls-33" d="M389.42,338.34a33.36,33.36,0,0,0,2.22-5.72c.16-1.37,4.11,1.53,1.08,7.43Z"/></g><g id="Group_14297" data-name="Group 14297"><g id="Group_14296" data-name="Group 14296"><path id="Path_198487" data-name="Path 198487" class="cls-34" d="M392.54,344.41l-1,6.74h-.71l-.07-5.63S392.21,344.08,392.54,344.41Z"/></g></g></g><g id="Group_14299" data-name="Group 14299"><path id="Path_198488" data-name="Path 198488" class="cls-35" d="M393.65,251.29s-4.71,22.9-6.2,28.54a113.57,113.57,0,0,0-3.06,17.35c-.18,3.31.9,6.63,1,8.38s2.48,33,2.48,33,5.36.72,6,.22,4.33-25.61,3.08-35.49,1.15-12.7,4.46-17.34,8.85-22.24,8.69-24.31S407.38,236,407.38,236,397.2,222.87,393.65,251.29Z"/></g><g id="Group_14301" data-name="Group 14301"><g id="Group_14300" data-name="Group 14300"><path id="Path_198489" data-name="Path 198489" class="cls-34" d="M418.86,342.21s-3.56,6-5.05,7c-2,1.37-.77,2.75.2,2.75s5.9.35,7-.88,1.63-5,2.64-5.92,1.94-4.55-.49-5.77C420.48,338,418.86,342.21,418.86,342.21Z"/></g></g><g id="Group_14303" data-name="Group 14303"><g id="Group_14302" data-name="Group 14302"><path id="Path_198490" data-name="Path 198490" class="cls-33" d="M420.23,339.05s-3.86,7.57-4.56,8.61,1.37,1,2.58.55,4.49-5.49,4.85-6.48a5.7,5.7,0,0,0,.1-2.36Z"/></g></g><g id="Group_14305" data-name="Group 14305"><g id="Group_14304" data-name="Group 14304"><path id="Path_198491" data-name="Path 198491" class="cls-34" d="M424.51,343.36l-.95,7.24h-.49l.15-5.22Z"/></g></g><g id="Group_14306" data-name="Group 14306"><path id="Path_198492" data-name="Path 198492" class="cls-33" d="M420.23,339.05a18.12,18.12,0,0,0-.18-5.69c-.63-2.58,4.22-.71,4.22-.71a16.94,16.94,0,0,1-1.08,6.72C421.86,342.05,420.23,339.05,420.23,339.05Z"/></g><g id="Group_14307" data-name="Group 14307"><path id="Path_198493" data-name="Path 198493" class="cls-35" d="M427.63,242.83s.53,20.08-.86,27.21-3.65,20-3.4,23.24a27.09,27.09,0,0,0,1.37,8.38c.6,1.57,3,13.61-.8,36.66l-4.83.22s-3.32-23.78-4-30.41-2.15-11-2.15-13-5.63-19.76-5.38-27.48-2.08-23.76,0-27.8C412.44,230.48,427.63,242.83,427.63,242.83Z"/></g><g id="Group_14308" data-name="Group 14308"><path id="Path_198494" data-name="Path 198494" class="cls-36" d="M412.71,196.25l5.92,46.08-24-.45L396,201.33l6.37-4.39.08,5.66,2.49-5.5,4.22,5.85Z"/></g><g id="Group_14309" data-name="Group 14309"><path id="Path_198495" data-name="Path 198495" class="cls-37" d="M390,191.08s3.9.57,5.35,1.8,6.38,2.56,6.38,2.56l-8,4.3Z"/></g><g id="Group_14310" data-name="Group 14310"><path id="Path_198496" data-name="Path 198496" class="cls-38" d="M417.78,175.37s6.49.14,4.58,6.18-9,8.35-11.8,4.86S417.78,175.37,417.78,175.37Z"/></g><g id="Group_14311" data-name="Group 14311"><path id="Path_198497" data-name="Path 198497" class="cls-39" d="M394.94,244.86s20.72.94,23.13.69-3.3-3.22-3.3-3.22l-18.36-.41Z"/></g><g id="Group_14312" data-name="Group 14312"><path id="Path_198498" data-name="Path 198498" class="cls-33" d="M404.41,163.4s-6,4.13-5.78,13.62,4.46,10.37,11,8,9.11-15.34,7.7-17.86S412.61,160.75,404.41,163.4Z"/></g><g id="Group_14313" data-name="Group 14313"><path id="Path_198499" data-name="Path 198499" class="cls-40" d="M412.11,189.63A22.35,22.35,0,0,0,417,192.7c1.56.42,7.44,2.9,7.86,4.24s7.85,22.81,7.77,24.06-25.32,20.05-25.89,20.05-3.81-4.56-3.81-4.56l8.6-7.39s-2.07-11.37-2.48-15.93-.25-15.94.74-18.51C410.48,193,411.26,191.27,412.11,189.63Z"/></g><g id="Group_14314" data-name="Group 14314"><path id="Path_198500" data-name="Path 198500" class="cls-40" d="M425.79,226.91s-.27,6.7.39,8.94,4.11,21.09,4.38,21.74-10.18-.65-13.4-8.24a71.16,71.16,0,0,1-4.72-19.23C412.6,229.21,425.79,226.91,425.79,226.91Z"/></g><g id="Group_14315" data-name="Group 14315"><path id="Path_198501" data-name="Path 198501" class="cls-40" d="M402.93,190.53s-6.29,10.63-6.29,18.26,2.14,13,2,15.85-2.3,22.16-4.54,26.9a17.16,17.16,0,0,1-7.13,7.14s4.39-10.71,5.3-19.59-1.66-32-1.66-32,.17-8.05,1.83-9.2,5.22-2.91,6.71-4.12S402.93,190.53,402.93,190.53Z"/></g><g id="Group_14316" data-name="Group 14316"><path id="Path_198502" data-name="Path 198502" class="cls-41" d="M412.44,228.61s9.72-9,10.11-9.27-.76-3.37-.76-3.37Z"/></g><g id="Group_14317" data-name="Group 14317"><path id="Path_198503" data-name="Path 198503" class="cls-42" d="M402.93,190.53l-.56,6.41-4.77,5.22,2.74-9.4Z"/></g><g id="Group_14318" data-name="Group 14318"><path id="Path_198504" data-name="Path 198504" class="cls-33" d="M405,197l-2.55,5.6-.11-5.59.55-6.38s.49-.42.73-2.08a16.37,16.37,0,0,0,.2-2.43c-.08-4.55,0-1.14-.1-1.79-.44-5.16,8.44-1.62,8.44-1.62a19.34,19.34,0,0,0,0,6.87C412.86,192.51,405,197,405,197Z"/></g><g id="Group_14319" data-name="Group 14319"><path id="Path_198505" data-name="Path 198505" class="cls-43" d="M397.09,220.71s5.37,6.14,5.72,6.87-10.06-4.77-10.06-4.77Z"/></g><g id="Group_14320" data-name="Group 14320"><path id="Path_198506" data-name="Path 198506" class="cls-44" d="M402.42,202.59c-.11.17-2.74,3.78-1.37,11,1.18,6,1.59,17.6,1.77,22.57,0,1,.07,1.79.08,2.16h.48c0-.36,0-1.1-.08-2.14-.18-5-.6-16.67-1.78-22.65C400.23,206.43,402.42,202.59,402.42,202.59Z"/></g><g id="Group_14321" data-name="Group 14321"><path id="Path_198507" data-name="Path 198507" class="cls-45" d="M381.12,223.2s.42,11.08,5.83,12.69,13.06,3.24,14.73,3.19,1.92.74,1.92.74a56.2,56.2,0,0,1-.37,7.1c-.37,1.68-2.82,5.66-2.29,7.46s6.43,4.12,7.51,2.75-1.81-3.79-2.3-4.48,3.6-11.35,4.11-14.16,1.47-7.87-3.71-10-13.09-5.74-13.09-5.74Z"/></g><g id="Group_14322" data-name="Group 14322"><path id="Path_198508" data-name="Path 198508" class="cls-33" d="M380.16,174.34s-4.84,3-4.67,8.16,3.4,10.08,9.15,9,5-9.29,5.32-10.37S389.76,173.43,380.16,174.34Z"/></g><g id="Group_14323" data-name="Group 14323"><path id="Path_198509" data-name="Path 198509" class="cls-33" d="M390,191.08c-2.67,8.46-8.8,1.76-8.5,1.75.06,0,.11-.1.15-.22a6.46,6.46,0,0,0,.1-1.07V191s6.92-4.81,6.94-2.75a3,3,0,0,0,1.32,2.79Z"/></g><g id="Group_14325" data-name="Group 14325"><path id="Path_198511" data-name="Path 198511" class="cls-38" d="M413.85,181.55a13.87,13.87,0,0,0-1.22-5.31c-1.08-1.63-.19-1.06-2.43-2.75s-10-.85-10.61-3.05,3.75-11.69,13-8.24S419.19,176.1,413.85,181.55Z"/></g><g id="Group_14326" data-name="Group 14326"><path id="Path_198512" data-name="Path 198512" class="cls-33" d="M412.16,173.24c.48-.92,2.66-1.69,2.9.37s-1.79,3.9-3.08,3.65S411.81,173.91,412.16,173.24Z"/></g><g id="Group_14327" data-name="Group 14327"><path id="Path_198513" data-name="Path 198513" class="cls-33" d="M385.87,181.55c.13-.47,1.54-1.37,2.11,0s-.79,3.48-1.82,2.57S385.87,181.55,385.87,181.55Z"/></g><g id="Group_14328" data-name="Group 14328"><path id="Path_198514" data-name="Path 198514" class="cls-46" d="M390,191.08c.13-.29,1.75.32,3.2,2.49a16.62,16.62,0,0,1,2.25,6.59c.19,1.18-2.12,8.09-.47,12s2.58,5.29,2.15,8.52-15.33,3.49-16.26,2.38-4-9.62-3.79-16.13-2.29-7.84-1.87-8.41,5.66-6.22,6.28-5.71S387.09,197.1,390,191.08Z"/></g><g id="Group_14329" data-name="Group 14329"><path id="Path_198515" data-name="Path 198515" class="cls-47" d="M374.68,208.82c-4.36,1.8-10,3.31-12,4.42a2.47,2.47,0,0,0-.63.44c-1,1.11-2.86,3.91-5,4s-2.74-2.75-.61-5.22-1.44-1.75.42-2.75,3.11.54,4.59-.14a2.39,2.39,0,0,0,.32-.16c1.61-1.06,7-4.67,9.31-5.8s2.23-4.12,4.11-5.09c0,0,4-.69,4.28,3S379.65,206.72,374.68,208.82Z"/></g><g id="Group_14331" data-name="Group 14331"><path id="Path_198517" data-name="Path 198517" class="cls-33" d="M403.2,236.94a1.94,1.94,0,0,1-1.85.5c-1.29-.2-3.27-2.44-4.46-2.52s.86,1.37.9,2,.45,1.07-.54,1.07-6.2-2.36-7.29-2.2-.37.65-.37.65-1.23-.36-1.37.48,4.9,3.86,5.48,4a18.19,18.19,0,0,0,7.87.37l5.05-1.37Z"/></g><g id="Group_14332" data-name="Group 14332"><path id="Path_198518" data-name="Path 198518" class="cls-40" d="M402.93,236.52s3.18,4.69,3.81,4.56,13.94-10.22,13.94-10.22l-8.22-2.25-.9.52Z"/></g><g id="Group_14333" data-name="Group 14333"><path id="Path_198519" data-name="Path 198519" class="cls-48" d="M411.16,184.34s-2,3.23-7.52,4.12h0a15.38,15.38,0,0,0,.15-2.35,14.55,14.55,0,0,0,7.37-1.77Z"/></g><g id="Group_14334" data-name="Group 14334"><path id="Path_198520" data-name="Path 198520" class="cls-48" d="M387.94,189.52s-.55,3.61-6.34,3.09a6.36,6.36,0,0,0,.1-1.07S385.83,192.43,387.94,189.52Z"/></g><path id="Path_198521" data-name="Path 198521" class="cls-33" d="M377.76,213.87a6.52,6.52,0,0,0-.68,5.26c.93,2.86,3.86,4.38,3.85,4S378.28,216.33,377.76,213.87Z"/><g id="Group_14335" data-name="Group 14335"><path id="Path_198522" data-name="Path 198522" class="cls-42" d="M412.11,189.63,405,197l4.22,5.84,5.89-11.08Z"/></g><path id="Path_187885" data-name="Path 187885" class="cls-42" d="M411.53,177.62a1.26,1.26,0,1,0,0-.18Z"/><path id="Path_186869-2" data-name="Path 186869-2" class="cls-33" d="M398.71,175.75a12,12,0,0,1-1.37,4.72,4.05,4.05,0,0,0,2.86.75Z"/><path id="Path_186869-3" data-name="Path 186869-3" class="cls-33" d="M375.82,185.07a13.75,13.75,0,0,1,0,3.51,3.31,3.31,0,0,0,2.34-.07Z"/><path id="Path_186830" data-name="Path 186830" class="cls-49" d="M389.05,184s-1.37-3.26-6.85-3-6,.31-7.47-1.93,1.09-4.67,1.09-4.67a27.82,27.82,0,0,1,12.86.47C393.38,176.36,396.41,183.57,389.05,184Z"/></g><g id="Group_14899" data-name="Group 14899"><g id="Group_14341" data-name="Group 14341"><g id="Group_5823" data-name="Group 5823"><g id="Group_5822" data-name="Group 5822"><path id="Path_187012" data-name="Path 187012" class="cls-50" d="M265.76,340.71s13.12,7.28,17.45,7.38,1.14,1.91-3.58,2.35c-3.74.35-11.2-.73-15.56-1.55a6.25,6.25,0,0,1-1.37-1.14l-.3,1a14.25,14.25,0,0,1-2.26-.18,49.2,49.2,0,0,1,.93-7.84Z"/><g id="Group_5821" data-name="Group 5821"><path id="Path_187013" data-name="Path 187013" class="cls-51" d="M265.76,340.71l-.18-3.51-4.66.23.16,3.26Z"/></g></g></g><g id="Group_5827" data-name="Group 5827"><g id="Group_5826" data-name="Group 5826"><path id="Path_187017" data-name="Path 187017" class="cls-52" d="M229.81,342.2s13.15,7.24,17.47,7.3,1.12,1.91-3.59,2.35c-3.73.35-11.2-.74-15.55-1.56a6.82,6.82,0,0,1-1.37-1.13l-.29,1a14.26,14.26,0,0,1-2.26-.19,46.88,46.88,0,0,1,.93-7.83Z"/><g id="Group_5825" data-name="Group 5825"><path id="Path_187018" data-name="Path 187018" class="cls-51" d="M229.81,342.2l-.18-3.53-4.66.23.16,3.26Z"/></g></g></g></g><g id="Group_14288" data-name="Group 14288"><g id="Group_14273" data-name="Group 14273"><g id="Group_14272" data-name="Group 14272"><g id="Group_14271" data-name="Group 14271"><path id="Path_198432" data-name="Path 198432" class="cls-33" d="M291.54,211.06s2.36-.74,2.55-2.14a7.91,7.91,0,0,1,1.55-3c.44-.59,1.11-2.88,1.86-2.34s-.93,3.85-1.15,4.61,3-.69,3.81-.5,2.88,5.69.56,6.43-5.29,0-5.67.19a14.52,14.52,0,0,1-1.67.61Z"/></g></g></g><g id="Group_14276" data-name="Group 14276"><g id="Group_14275" data-name="Group 14275"><g id="Group_14274" data-name="Group 14274"><path id="Path_198433" data-name="Path 198433" class="cls-33" d="M299.57,207.69s7.26-1.78,7.85-1.5.66.69,0,.88-7,1.94-7,1.94,8.94-.67,9.48-.54c.31.07.49.84.15,1s-9.18,1.3-9.18,1.3,8.36-.6,8.77-.35a.57.57,0,0,1,.13.79.56.56,0,0,1-.4.25l-8.34,1.09s6.11,0,6.33.35.34.9-1.25.87-5.3.27-5.3.27Z"/></g></g></g><g id="Group_14277" data-name="Group 14277"><path id="Path_198434" data-name="Path 198434" class="cls-42" d="M295.45,217s-20.32,4.5-24.36,3.51c-1.87-.46-4.33-3.05-6.68-6.08-.76-1-1.52-2.06-2.24-3.11h0c-2.87-4.12-5.11-8.13-5.11-8.13s-8.48-10-1.69-14.41a4.53,4.53,0,0,1,4.74,1.51,43.84,43.84,0,0,1,5.48,8.85c.59,1.29,8.92,13.33,9.36,13.61s4.11-.69,7-.93A65.32,65.32,0,0,0,293.81,209Z"/></g><g id="Group_14279" data-name="Group 14279"><path id="Path_198436" data-name="Path 198436" class="cls-53" d="M265.88,337.27a14.09,14.09,0,0,1,.36,1.59c-.07,0-7.2.82-7-.41.18-1,.43-2.12.43-2.12Z"/></g><g id="Group_14281" data-name="Group 14281"><path id="Path_198438" data-name="Path 198438" class="cls-53" d="M230.67,338.13a12.12,12.12,0,0,1,.1,1.59s-6.85,1.24-6.85,0a9.67,9.67,0,0,1,.44-2.19Z"/></g><g id="Group_14282" data-name="Group 14282"><path id="Path_198439" data-name="Path 198439" class="cls-54" d="M258.69,244.22s3.3,24,4.65,32.15c1.57,9.49,2.11,17.35,2.56,22.27.55,6.18,1.27,37.83,1.67,39.63s-9.59.86-9.59.86-5.23-41.2-6.85-47.84c-1.53-6.13-6-32.61-7.4-30.93S238,292,237,296.87s-3.83,42.91-3.83,42.91-9.42,1.51-11.33,0c0,0,1.5-33.95,2.16-43,.24-3.45-2.18-41.36,3.64-56.66C230.67,232,258.69,244.22,258.69,244.22Z"/></g><path id="Path_198440" data-name="Path 198440" class="cls-55" d="M249,186.58s8.72,1.81,9.76,2.75,3.11,10.56,3.22,13.22a101.86,101.86,0,0,1-2.17,18c-1.13,4.12-.92,24.61-.21,30.37,0,0-17.58,5-34.87,2.75,0,0,2.9-21.53,2.21-27.23-.89-7.29-3-24.09-3-24.09s1.53-11.71,3.07-13,12.13-2.75,12.13-2.75Z"/><path id="Path_198441" data-name="Path 198441" class="cls-33" d="M245.4,159.5s10.51-3.88,9.85,10.11-3.12,15.42-10,13.47-7.49-10.8-8.4-15.11S242,160.12,245.4,159.5Z"/><path id="Path_198442" data-name="Path 198442" class="cls-33" d="M250.39,188.47s-2.16,1.38-10.36-2.18a37.59,37.59,0,0,0-1.37-10.91c-1.6-5.26,11,7,11,7a4.22,4.22,0,0,0-.08,1.37A14.69,14.69,0,0,0,250,186a5.32,5.32,0,0,1,.44,2.52Z"/><path id="Path_198444" data-name="Path 198444" class="cls-48" d="M250,185.93c-8.22-1.37-9.35-6-9.38-6.08,3.16,4.12,9,3.91,9,3.91A16,16,0,0,0,250,185.93Z"/><path id="Path_198445" data-name="Path 198445" class="cls-56" d="M249.61,190.31s1.48,2.2,2.38,7.82a120.79,120.79,0,0,1,.74,15.33l-2.06.25s-3.12-19.78-2.58-23.23Z"/><path id="Path_198447" data-name="Path 198447" class="cls-42" d="M258.78,189.31s5.07,6.57,3.24,23.79c-3.33,31.11,5.37,81,5.37,81l-9,2.81s-8.57-63.84-6.38-87c1-10.56,3.95-14.08-.71-22.87A17.54,17.54,0,0,1,258.78,189.31Z"/><path id="Path_198448" data-name="Path 198448" class="cls-42" d="M236.74,186.93s14.21,14.39,15.32,25.29S255,297,255,297l-33.82-2s3.11-39,3.88-43.86,2.33-32.87-1.1-45.87c-1.85-7,.34-15.84,4.55-16.8S236.74,186.93,236.74,186.93Z"/><path id="Path_198449" data-name="Path 198449" class="cls-57" d="M232,188.8s5.48,1.51,2.46,11.57c-2.35,7.88-2.74,9.61-2.74,9.61l-12.62-3.16s3.7-17.32,9.75-18.25A6.87,6.87,0,0,1,232,188.8Z"/><path id="Path_198450" data-name="Path 198450" class="cls-58" d="M257.21,225.92l-20.47,29.2L218,242l19.74-29.73Z"/><path id="Path_198451" data-name="Path 198451" class="cls-59" d="M255,226.78,236.8,252.72,220.2,241l17.53-26.32Z"/><path id="Path_198452" data-name="Path 198452" class="cls-58" d="M249.39,223.8l1.28-1.81L244,217.25l-1.55,1.64Z"/><g id="Group_14287" data-name="Group 14287"><g id="Group_14286" data-name="Group 14286"><g id="Group_14285" data-name="Group 14285"><g id="Group_14284" data-name="Group 14284"><g id="Group_14283" data-name="Group 14283"><path id="Path_198453" data-name="Path 198453" class="cls-33" d="M247.45,245.58a3.87,3.87,0,0,1-1.15-.28s-.57-.41-1-.69l-.34-.19a6.67,6.67,0,0,1-1.9-1,49.89,49.89,0,0,1-3.24-4.13l1.5-1.88,1.15-2a46.76,46.76,0,0,1,6.53,1.37l.21.15a8.78,8.78,0,0,1,1.12,1.38c.11.11,1.07,1.23,1,1.67a1.36,1.36,0,0,1-.81,1.14,3.38,3.38,0,0,1-.89,1.69,2.16,2.16,0,0,1-1.17,1.49S248.11,245.48,247.45,245.58Z"/></g></g></g></g></g><path id="Path_198454" data-name="Path 198454" class="cls-60" d="M240,184.72a26.05,26.05,0,0,0,8.52,3.18l-2.25,3.61-7.15-4.94Z"/><path id="Path_198455" data-name="Path 198455" class="cls-60" d="M250,185.93a3.76,3.76,0,0,1-1.37,2l2.12,3-.08-3.93Z"/><path id="Path_198456" data-name="Path 198456" class="cls-56" d="M248.56,187.9l1.67,2.35s-1,1.37-3.34.33Z"/><path id="Path_198457" data-name="Path 198457" class="cls-60" d="M264.43,214.43h0c-.78-1-1.54-2-2.25-3.09h0s.28-7.58,0-9.76C262.18,201.58,264.67,209.75,264.43,214.43Z"/><path id="Path_198458" data-name="Path 198458" class="cls-60" d="M229.56,209.41s-1.64,10.77-1.52,11.45S220.58,218.69,229.56,209.41Z"/><path id="Path_198459" data-name="Path 198459" class="cls-42" d="M232.59,189.48c1.15.44,1.59,2.47,1.11,8.38a19.89,19.89,0,0,1-3.32,10c-.76,1.37-5,9.78-4.26,10.89s8,8.24,8.42,8.83,8.48,7.9,8.48,7.9l-4.11,5.76s-17.42-13.64-18.77-15-5.48-4.24-3.92-9,4.27-16.15,4.75-17S225,186.54,232.59,189.48Z"/><rect id="Rectangle_8332" data-name="Rectangle 8332" class="cls-61" x="255.37" y="205.56" width="3.99" height="6.1"/><path id="Path_198523" data-name="Path 198523" class="cls-62" d="M239.88,168.86c.83-.21,1.51-.48,1.82.29.18.4,1.49,4.9,1.49,4.9a18.17,18.17,0,0,1,.59-2.42,11.55,11.55,0,0,0-.18-3l-.23-2.85a3.7,3.7,0,0,1,.44-2.66,2.94,2.94,0,0,1,1.16-.84,10.64,10.64,0,0,1,4.84-.6,48.16,48.16,0,0,0,4.95.29,5.31,5.31,0,0,0,2-.37,3.54,3.54,0,0,0,2-2.35,5.33,5.33,0,0,0-.24-3.06,4.85,4.85,0,0,1-.71.86,3.78,3.78,0,0,0-.55-1.44c-1,2.22-11.66-1.26-14.44-.87-1.93.29-3.48.39-4.11,3a.93.93,0,0,1-.44.31,7.26,7.26,0,0,0-3.72,4.63c-.95,2.75.11,6.39,1.37,9.21a6,6,0,0,0,1,1.78,3.88,3.88,0,0,0,2.39,1.14c.8,0,2.32.51,2.52-.22.15-.51-.84-1.73-1.07-2.24"/><path id="Path_198446" data-name="Path 198446" class="cls-33" d="M241.63,169.37c-.46-1.24-3.08-1.08-2.74.88s2.43,5,3.3,4.39S242.21,171,241.63,169.37Z"/><path id="Path_186869" data-name="Path 186869" class="cls-33" d="M255.15,170.74a32.86,32.86,0,0,0,2.55,4.75,5.48,5.48,0,0,1-3.4.77Z"/></g></g></g></svg>