<svg xmlns="http://www.w3.org/2000/svg" viewBox="0 0 685 378"><defs><style>.cls-1,.cls-5{fill:#fff;}.cls-1{opacity:0.5;}.cls-1,.cls-48{isolation:isolate;}.cls-2{fill:#848f38;}.cls-3{fill:#c9e5fc;}.cls-4{fill:#8fcaf2;}.cls-6{fill:#6c4848;}.cls-7{fill:#9e7171;}.cls-8{fill:#fafafc;}.cls-9{fill:#e9d9cd;}.cls-10{fill:#d5c4b7;}.cls-11{fill:#8c91d1;}.cls-12{fill:#ba916d;}.cls-13{fill:#2d214b;}.cls-14{fill:#a2aaf2;}.cls-15{fill:#58615b;}.cls-16{fill:#594945;}.cls-17{opacity:0.8;}.cls-18{fill:#f5f5f9;}.cls-19{fill:#edac84;}.cls-20{fill:#541c09;}.cls-21{fill:#49a8d6;}.cls-22{fill:#0b1651;}.cls-23{fill:#1a598c;}.cls-24{fill:#ffca44;}.cls-25{fill:#b5a9a9;}.cls-26{fill:#78c2ff;}.cls-27{fill:#e6e6e6;}.cls-28,.cls-34,.cls-37,.cls-38,.cls-41,.cls-53,.cls-56,.cls-58,.cls-63{fill:none;}.cls-28{stroke:#fff;stroke-width:2px;}.cls-28,.cls-53,.cls-56,.cls-58{stroke-linecap:round;}.cls-28,.cls-53{stroke-linejoin:round;}.cls-29{fill:#e1cdc2;}.cls-30{fill:#ea6d42;}.cls-31{fill:#f2e0d6;}.cls-32{fill:#5f699e;}.cls-33{fill:#75645d;}.cls-34{stroke:#707070;}.cls-35{fill:#9ba55a;}.cls-36{fill:#2abccc;}.cls-38{stroke:#9ba55a;}.cls-39{fill:#83b9f7;}.cls-40{fill:#d17e6f;}.cls-41{stroke:silver;}.cls-41,.cls-63{stroke-miterlimit:10;}.cls-42{fill:#005479;}.cls-43{fill:#ffb780;}.cls-44{fill:#ffbe9d;}.cls-45{fill:#411809;}.cls-46{fill:#f2a181;}.cls-47{fill:#ffb939;}.cls-48{fill:#ffa320;opacity:0.45;}.cls-49{fill:#1b227a;}.cls-50{fill:#eaeaea;}.cls-51{fill:#fe7d90;}.cls-52{fill:#e5f8ff;}.cls-53{stroke:#a1d2f0;stroke-width:0.53px;}.cls-54{fill:#003d57;}.cls-55{fill:#b5c8dd;}.cls-56,.cls-58{stroke:#999;}.cls-56{stroke-miterlimit:10;}.cls-57{fill:#03618a;}.cls-58{stroke-miterlimit:10;}.cls-59{fill:#57c6f2;}.cls-60{fill:#3e89cc;}.cls-61{fill:#963815;}.cls-62{fill:#b03d44;}.cls-63{stroke:#6b9cff;stroke-width:0.55px;}.cls-64{fill:#6b9cff;}.cls-65{fill:#3358cc;}.cls-66{fill:#d18100;}.cls-67{fill:#d1d1d1;}</style></defs><title>industryArtboard 2 copy 2</title><g id="Designed_by_Freepik" data-name="Designed by Freepik"><g id="ilustrator"><path id="shadow" class="cls-1" d="M133,358.55c16.92,7.82,26,7.14,85.17,5.65s89-11.6,151.38-11.6,67.87,1.11,111.18,0,89.94-3.93,87.11-8.85-56-13.09-87.11-13.09-3.62,4.1-54.69,4.72-160.88,0-160.88,0-81.58-4.56-114.68-2.46S116.08,350.72,133,358.55Z"/><g id="Group_15540" data-name="Group 15540"><g id="Group_15545" data-name="Group 15545"><g id="Group_15796" data-name="Group 15796"><g id="Group_15669" data-name="Group 15669"><g id="Group_15668" data-name="Group 15668"><path id="Path_200979" data-name="Path 200979" class="cls-2" d="M457.89,246.22H446.61a4.72,4.72,0,0,1-4.72-4.72V230.22a4.71,4.71,0,0,1,4.72-4.71h11.28a4.71,4.71,0,0,1,4.71,4.71V241.5A4.73,4.73,0,0,1,457.89,246.22Zm-11.28-19.4a3.4,3.4,0,0,0-3.4,3.4V241.5a3.41,3.41,0,0,0,3.4,3.4h11.28a3.42,3.42,0,0,0,3.4-3.4V230.22a3.41,3.41,0,0,0-3.4-3.4Z"/></g></g></g><rect id="Rectangle_8004" data-name="Rectangle 8004" class="cls-3" x="315.6" y="270.79" width="47.4" height="33.61"/><path id="Path_197883" data-name="Path 197883" class="cls-3" d="M387.53,303.85H291.22a5.48,5.48,0,1,0,0,11h96.31a5.5,5.5,0,0,0,5.48-5.48,5.33,5.33,0,0,0-5.17-5.48h-.31"/><path id="Path_197884" data-name="Path 197884" class="cls-4" d="M393.15,309.47a5.51,5.51,0,0,1-5.48,5.48H291.35a5.51,5.51,0,0,1-5.48-5.48,4.87,4.87,0,0,1,.14-1.37,5.3,5.3,0,0,0,5.34,4.11h96.32A5.58,5.58,0,0,0,393,308.1c0,.41.14.82.14,1.37"/><path id="Path_200640" data-name="Path 200640" class="cls-5" d="M216.44,276.41H472.53a14.51,14.51,0,0,0,14.5-14.5V89.79a14.5,14.5,0,0,0-14.5-14.5H216.44a14.5,14.5,0,0,0-14.5,14.5V261.91A14.5,14.5,0,0,0,216.44,276.41Z"/><path id="Path_200641" data-name="Path 200641" class="cls-6" d="M213.1,254.89H475.86V85.29H213.1Z"/><rect id="Rectangle_9327" data-name="Rectangle 9327" class="cls-7" x="213.15" y="93.02" width="262.49" height="25.1"/><path id="Path_200679" data-name="Path 200679" class="cls-8" d="M258.42,109.78H227.21a3.14,3.14,0,0,1-3.13-3.14v-2.45a3.13,3.13,0,0,1,3.13-3.13h31.21a3.13,3.13,0,0,1,3.13,3.13v2.45A3.14,3.14,0,0,1,258.42,109.78Z"/><path id="Path_200725" data-name="Path 200725" class="cls-9" d="M476.16,273.66h29.67v1.76H476.16Z"/><path id="Path_200726" data-name="Path 200726" class="cls-5" d="M501.86,339h-2.6V280h2.6Z"/><path id="Path_200727" data-name="Path 200727" class="cls-10" d="M460.18,273.16h20.63v2.51H460.18Z"/><path id="Path_200728" data-name="Path 200728" class="cls-11" d="M466.59,275.42h7.81V251.7h-7.81Z"/><path id="Path_200729" data-name="Path 200729" class="cls-12" d="M402.21,280H516.48v-4.55H402.21Z"/><path id="Path_200744" data-name="Path 200744" class="cls-13" d="M487.24,258.32h0C487.19,258.34,487.19,258.34,487.24,258.32Z"/><path id="Path_200755" data-name="Path 200755" class="cls-5" d="M416.83,339h2.6V280h-2.6Z"/><path id="Path_200756" data-name="Path 200756" class="cls-14" d="M440.21,263.13h60.57a3.43,3.43,0,0,0,3.43-3.43V219a3.43,3.43,0,0,0-3.43-3.43H440.21a3.43,3.43,0,0,0-3.43,3.43h0V259.7a3.43,3.43,0,0,0,3.43,3.43Z"/><path id="Path_200757" data-name="Path 200757" class="cls-15" d="M439.42,255.67h62.15V218.13H439.42Z"/><path id="Path_200760" data-name="Path 200760" class="cls-5" d="M478.29,228.36h11.38c.63,0,1.14-.37,1.14-.82v-.35c0-.46-.51-.83-1.14-.83H478.29c-.63,0-1.14.37-1.14.83v.35C477.15,228,477.66,228.36,478.29,228.36Z"/><path id="Path_201225" data-name="Path 201225" class="cls-5" d="M478.68,232.36H494c.85,0,1.54-.37,1.54-.82v-.35c0-.46-.69-.83-1.54-.83H478.68c-.85,0-1.54.37-1.54.83v.35C477.14,232,477.83,232.36,478.68,232.36Z"/><path id="Path_201226" data-name="Path 201226" class="cls-5" d="M478.48,236.36h13.23c.74,0,1.33-.37,1.33-.82v-.35c0-.46-.6-.83-1.33-.83H478.48c-.74,0-1.34.37-1.34.83v.35C477.14,236,477.74,236.36,478.48,236.36Z"/><path id="Path_201227" data-name="Path 201227" class="cls-5" d="M478.79,240.36h16.29c.91,0,1.64-.37,1.64-.82v-.35c0-.46-.73-.83-1.64-.83H478.79c-.91,0-1.65.37-1.65.83v.35C477.14,240,477.88,240.36,478.79,240.36Z"/><path id="Path_200762" data-name="Path 200762" class="cls-16" d="M468.32,259.27a2.18,2.18,0,1,0,2.17-2.17,2.18,2.18,0,0,0-2.17,2.17Z"/><g id="Group_15994" data-name="Group 15994" class="cls-17"><path id="Path_200768" data-name="Path 200768" class="cls-18" d="M467.4,231.47a8.78,8.78,0,1,1-8.78-8.78h0A8.78,8.78,0,0,1,467.4,231.47Z"/><path id="Path_200769" data-name="Path 200769" class="cls-5" d="M464.34,236.32l-.65,2.32a8.66,8.66,0,0,1-4,1.54,7,7,0,0,1-.79.07h-.29c-.29,0-.57,0-.84,0a9.27,9.27,0,0,1-.92-.14,8.9,8.9,0,0,1-3.59-1.64c-.12-.77-.25-1.62-.37-2.41.65-.24,2.7-.94,4-1.38l.06,0,.08,0,.22-.08.2-.07.52-.17h0l1.74.13.3,0h.13c.1,0,.41.1.81.23h0a8.43,8.43,0,0,1,3.34,1.64Z"/><path id="Path_200770" data-name="Path 200770" class="cls-19" d="M459.07,227.11s2.09.36,1.74,3.63-2.2,3-2.32,3-1.86,0-1.95-4C456.54,229.75,456.51,226.8,459.07,227.11Z"/><path id="Path_200771" data-name="Path 200771" class="cls-19" d="M460,232.77a7.53,7.53,0,0,0,.06,1.64c.12.29-1.68,1.22-2.8.16a11,11,0,0,0,.15-2c-.07-.52,2.59.19,2.59.19Z"/><path id="Path_200772" data-name="Path 200772" class="cls-19" d="M460.85,229.81s.24-.24.32,0-.37,1.35-.34,1.4-.05.1-.11,0a14.2,14.2,0,0,1,.13-1.45Z"/><path id="Path_200773" data-name="Path 200773" class="cls-19" d="M456.57,229.72s-.23-.25-.32,0a4,4,0,0,0,.29,1.41s.07.11.12.06a10.37,10.37,0,0,0-.1-1.47Z"/><path id="Path_200774" data-name="Path 200774" class="cls-20" d="M461,229.53l-.14.78-.3.4a8.58,8.58,0,0,0,0-1,1.85,1.85,0,0,1-.06-.25,4.12,4.12,0,0,0-.1-.41,4.47,4.47,0,0,0-3.35.11s0,.13,0,.28,0,.37-.1.4-.08,1-.08,1l-.25-.28s-.07-.51-.14-1.09h0c0-.14,0-.28,0-.42a2.72,2.72,0,0,1,.78-2.28,3.81,3.81,0,0,1,2.72,0,.92.92,0,0,1,.4.11,3.91,3.91,0,0,1,.68,2.63Z"/><path id="Path_200777" data-name="Path 200777" class="cls-21" d="M460,234.14a5.52,5.52,0,0,1-1.34,1.16l.57.87,1-1.72-.2-.31Z"/><path id="Path_200778" data-name="Path 200778" class="cls-21" d="M457.29,234.27a3.87,3.87,0,0,0,1.37,1l-.63.9L457,234.63l.34-.35Z"/><path id="Path_200780" data-name="Path 200780" class="cls-21" d="M464.9,236.18l0,0c-.05.19-.26.91-.52,1.88a3.88,3.88,0,0,1-.31.26l-.36.27a8.62,8.62,0,0,1-4,1.54c.13-3,.49-5.73.49-5.73l.81.22h0a18.58,18.58,0,0,1,3.74,1.42h0l.15.08Z"/><path id="Path_200781" data-name="Path 200781" class="cls-21" d="M456.86,240.07a8.69,8.69,0,0,1-3.59-1.63,9.37,9.37,0,0,1-.89-.78l-.16-.17-.11-.47-.15-.64h0a20.09,20.09,0,0,1,4.93-1.74h0c0,.09,0,2.56,0,5.43Z"/><path id="Path_200782" data-name="Path 200782" class="cls-22" d="M459.17,236.12c0,.8-.07,4.13-.07,4.13h-.48a7.63,7.63,0,0,1-.84,0c.17-2.18.22-3.55.35-4.09a1.53,1.53,0,0,1,.27-.44l.3-.38s.27.41.27.48Z"/><path id="Path_200783" data-name="Path 200783" class="cls-13" d="M465.34,237.12a9.26,9.26,0,0,1-1,1l-.31.25s.5-1.47.85-2.19c.23.16.33.69.44.94Z"/><path id="Path_200784" data-name="Path 200784" class="cls-13" d="M452.39,237.66l-.16-.17c-.2-.21-.38-.42-.56-.65a1.08,1.08,0,0,1,.3-.46h0l.42,1.28Z"/></g><path id="Path_197943" data-name="Path 197943" class="cls-4" d="M344.2,265.4a5.76,5.76,0,1,1-5.76-5.76h0a5.89,5.89,0,0,1,5.76,5.76"/><g id="Group_15794" data-name="Group 15794"><g id="Group_15660" data-name="Group 15660"><rect id="Rectangle_9356" data-name="Rectangle 9356" class="cls-2" x="412.85" y="184.15" width="17.06" height="17.06" rx="8.53"/></g><g id="Group_15663" data-name="Group 15663"><g id="Group_15662" data-name="Group 15662"><g id="Group_15661" data-name="Group 15661"><path id="Path_200977" data-name="Path 200977" class="cls-5" d="M420.84,196.43l-4.32-3.76a.84.84,0,0,1-.08-1.19h0a.85.85,0,0,1,1.2-.08h0l3.05,2.66L425,189.2a.84.84,0,0,1,1.2-.06.85.85,0,0,1,.07,1.2Z"/></g></g></g></g><g id="Group_15795" data-name="Group 15795"><g id="Group_15666" data-name="Group 15666"><g id="Group_15665" data-name="Group 15665"><path id="Path_200978" data-name="Path 200978" class="cls-2" d="M426,175.22h-9.3a3.89,3.89,0,0,1-3.89-3.89V162a3.89,3.89,0,0,1,3.89-3.88H426a3.88,3.88,0,0,1,3.88,3.88v9.3A3.89,3.89,0,0,1,426,175.22Zm-9.3-16a2.81,2.81,0,0,0-2.8,2.81v9.3a2.8,2.8,0,0,0,2.8,2.8H426a2.8,2.8,0,0,0,2.8-2.8V162a2.82,2.82,0,0,0-2.8-2.81Z"/></g></g></g><g id="Group_15998" data-name="Group 15998"><g id="Group_15666-2" data-name="Group 15666-2"><g id="Group_15665-2" data-name="Group 15665-2"><path id="Path_200978-2" data-name="Path 200978-2" class="cls-2" d="M451.34,201.22H442a3.89,3.89,0,0,1-3.89-3.89V188a3.89,3.89,0,0,1,3.89-3.88h9.3a3.88,3.88,0,0,1,3.88,3.88v9.3A3.89,3.89,0,0,1,451.34,201.22Zm-9.3-16a2.81,2.81,0,0,0-2.8,2.81v9.3a2.8,2.8,0,0,0,2.8,2.8h9.3a2.8,2.8,0,0,0,2.8-2.8V188a2.82,2.82,0,0,0-2.8-2.81Z"/></g></g></g><g id="Group_15797" data-name="Group 15797"><g id="Group_15671" data-name="Group 15671"><path id="Rectangle_9357" data-name="Rectangle 9357" class="cls-2" d="M447.06,158.15h0a8.52,8.52,0,0,1,8.53,8.53h0a8.52,8.52,0,0,1-8.53,8.53h0a8.52,8.52,0,0,1-8.53-8.53h0a8.53,8.53,0,0,1,8.53-8.53Z"/></g><g id="Group_15674" data-name="Group 15674"><g id="Group_15673" data-name="Group 15673"><g id="Group_15672" data-name="Group 15672"><path id="Path_200980" data-name="Path 200980" class="cls-5" d="M446.52,170.44l-4.31-3.76a.85.85,0,0,1-.08-1.2h0a.85.85,0,0,1,1.2-.08h0l3.05,2.66,4.35-4.85a.85.85,0,0,1,1.2-.07h0a.85.85,0,0,1,.07,1.2h0Z"/></g></g></g></g><g id="Group_15996" data-name="Group 15996"><g id="Group_15671-2" data-name="Group 15671-2"><path id="Rectangle_9357-2" data-name="Rectangle 9357-2" class="cls-2" d="M480.47,244.15h0a2.94,2.94,0,0,1,2.93,2.94h0a2.93,2.93,0,0,1-2.93,2.93h0a2.94,2.94,0,0,1-2.94-2.93h0a2.94,2.94,0,0,1,2.94-2.94Z"/></g><g id="Group_15674-2" data-name="Group 15674-2"><g id="Group_15673-2" data-name="Group 15673-2"><g id="Group_15672-2" data-name="Group 15672-2"><path id="Path_200980-2" data-name="Path 200980-2" class="cls-5" d="M480.28,248.38l-1.48-1.29a.3.3,0,0,1,0-.42.29.29,0,0,1,.41,0h0l1.05.91,1.5-1.67a.29.29,0,1,1,.43.39Z"/></g></g></g></g><g id="Group_15997" data-name="Group 15997"><g id="Group_15671-3" data-name="Group 15671-3"><path id="Rectangle_9357-3" data-name="Rectangle 9357-3" class="cls-2" d="M490.47,244.15h0a2.94,2.94,0,0,1,2.93,2.94h0a2.93,2.93,0,0,1-2.93,2.93h0a2.94,2.94,0,0,1-2.94-2.93h0a2.94,2.94,0,0,1,2.94-2.94Z"/></g><g id="Group_15674-3" data-name="Group 15674-3"><g id="Group_15673-3" data-name="Group 15673-3"><g id="Group_15672-3" data-name="Group 15672-3"><path id="Path_200980-3" data-name="Path 200980-3" class="cls-5" d="M490.28,248.38l-1.48-1.29a.3.3,0,0,1,0-.42.29.29,0,0,1,.41,0h0l1.05.91,1.5-1.67a.29.29,0,1,1,.43.39Z"/></g></g></g></g><g id="Group_15798" data-name="Group 15798"><g id="Group_15677" data-name="Group 15677"><g id="Group_15676" data-name="Group 15676"><path id="Path_200981" data-name="Path 200981" class="cls-2" d="M451.34,149.23H442a3.89,3.89,0,0,1-3.89-3.89V136a3.89,3.89,0,0,1,3.89-3.88h9.3a3.9,3.9,0,0,1,3.89,3.88v9.3A3.9,3.9,0,0,1,451.34,149.23Zm-9.3-16a2.8,2.8,0,0,0-2.81,2.8v9.3a2.81,2.81,0,0,0,2.81,2.81h9.3a2.82,2.82,0,0,0,2.8-2.81V136a2.81,2.81,0,0,0-2.8-2.8Z"/></g></g></g><g id="Group_15799" data-name="Group 15799"><g id="Group_15679" data-name="Group 15679"><path id="Rectangle_9358" data-name="Rectangle 9358" class="cls-2" d="M421.38,132.16h0a8.53,8.53,0,0,1,8.53,8.53h0a8.53,8.53,0,0,1-8.53,8.53h0a8.53,8.53,0,0,1-8.53-8.53h0a8.53,8.53,0,0,1,8.53-8.53Z"/></g><g id="Group_15682" data-name="Group 15682"><g id="Group_15681" data-name="Group 15681"><g id="Group_15680" data-name="Group 15680"><path id="Path_200982" data-name="Path 200982" class="cls-5" d="M420.84,144.45l-4.32-3.76a.85.85,0,0,1-.08-1.2h0a.85.85,0,0,1,1.2-.08h0l3.05,2.66,4.35-4.85a.85.85,0,1,1,1.27,1.13Z"/></g></g></g></g><g id="Group_15990" data-name="Group 15990"><g id="Group_15848" data-name="Group 15848"><g id="Group_15847" data-name="Group 15847"><g id="Group_15846" data-name="Group 15846"><path id="Path_201146" data-name="Path 201146" class="cls-5" d="M329.72,234.66a18.91,18.91,0,0,1-25-17.67c0-.43,0-.85,0-1.27a18.68,18.68,0,0,1,1.11-5.43,18.92,18.92,0,1,1,23.85,24.37Zm8.11-18.1a14.18,14.18,0,0,0-27.51-4.66h0a14.16,14.16,0,0,0-.82,4.07c0,.31,0,.63,0,1a14.18,14.18,0,1,0,28.36-.37Z"/></g></g></g><g id="Group_15851" data-name="Group 15851"><g id="Group_15850" data-name="Group 15850"><g id="Group_15849" data-name="Group 15849"><path id="Path_201147" data-name="Path 201147" class="cls-23" d="M312.45,225.43l-3.75,2.9a18.92,18.92,0,0,0,21,6.33l-1.52-4.48a13.82,13.82,0,0,1-4.37.74A14.12,14.12,0,0,1,312.45,225.43Z"/></g></g></g><g id="Group_15854" data-name="Group 15854"><g id="Group_15853" data-name="Group 15853"><g id="Group_15852" data-name="Group 15852"><path id="Path_201148" data-name="Path 201148" class="cls-24" d="M309.5,216l-4.73-.26c0,.42,0,.84,0,1.27a18.8,18.8,0,0,0,3.95,11.34l3.75-2.9a14.11,14.11,0,0,1-3-8.5C309.48,216.61,309.48,216.29,309.5,216Z"/></g></g></g><g id="Group_15857" data-name="Group 15857"><g id="Group_15856" data-name="Group 15856"><g id="Group_15855" data-name="Group 15855"><path id="Path_201149" data-name="Path 201149" class="cls-24" d="M309.5,216a14.16,14.16,0,0,1,.82-4.07h0l-4.45-1.61a19,19,0,0,0-1.1,5.43Z"/></g></g></g><g id="Group_15860" data-name="Group 15860"><g id="Group_15859" data-name="Group 15859"><g id="Group_15858" data-name="Group 15858"><path id="Path_201150" data-name="Path 201150" class="cls-25" d="M335,201.64a18.91,18.91,0,0,0-29.15,8.65l4.44,1.62h0a14.18,14.18,0,0,1,21.93-6.42Z"/></g></g></g></g><g id="Group_15991" data-name="Group 15991"><rect id="Rectangle_9415" data-name="Rectangle 9415" class="cls-26" x="278.25" y="217.73" width="5.08" height="16.67"/></g><g id="Group_15992" data-name="Group 15992"><rect id="Rectangle_9416" data-name="Rectangle 9416" class="cls-26" x="269.92" y="222.4" width="5.08" height="11.99"/></g><g id="Group_15993" data-name="Group 15993"><rect id="Rectangle_9417" data-name="Rectangle 9417" class="cls-26" x="286.59" y="210" width="5.08" height="24.4"/></g><rect id="Rectangle_9438" data-name="Rectangle 9438" class="cls-26" x="237.66" y="161.71" width="3.78" height="14.46"/><g id="Group_10718" data-name="Group 10718"><path id="Path_195364" data-name="Path 195364" class="cls-2" d="M298.35,133.68l1,2.08,2.3.34L300,137.73l.4,2.29L298.35,139,296.28,140l.4-2.29L295,136.1l2.4-.34Z"/><path id="Path_195365" data-name="Path 195365" class="cls-2" d="M308.42,133.68l1,2.08,2.3.34-1.67,1.63.4,2.29L308.42,139,306.35,140l.43-2.19-1.66-1.64,2.3-.34Z"/><path id="Path_195366" data-name="Path 195366" class="cls-2" d="M318.49,133.68l1,2.08,2.3.34-1.67,1.63.4,2.29L318.49,139,316.42,140l.4-2.29-1.67-1.63,2.3-.34Z"/><path id="Path_195367" data-name="Path 195367" class="cls-2" d="M328.55,133.68l1,2.08,2.31.34-1.67,1.63.39,2.29L328.55,139,326.49,140l.39-2.29-1.68-1.63,2.3-.34Z"/><path id="Path_195368" data-name="Path 195368" class="cls-27" d="M338.66,133.68l1,2.08,2.3.34-1.67,1.63.4,2.29L338.66,139,336.59,140l.4-2.29-1.67-1.63,2.31-.34Z"/><g id="Group_10717" data-name="Group 10717"><line id="Line_553" data-name="Line 553" class="cls-28" x1="296.05" y1="147.22" x2="317.08" y2="147.22"/><line id="Line_554" data-name="Line 554" class="cls-28" x1="364.3" y1="155.64" x2="380.3" y2="155.64"/><line id="Line_555" data-name="Line 555" class="cls-28" x1="296.05" y1="155.64" x2="357.37" y2="155.64"/><line id="Line_556" data-name="Line 556" class="cls-28" x1="296.05" y1="164.07" x2="380.3" y2="164.07"/><line id="Line_557" data-name="Line 557" class="cls-28" x1="353.52" y1="172.49" x2="380.3" y2="172.49"/><line id="Line_558" data-name="Line 558" class="cls-28" x1="296.05" y1="172.49" x2="346.86" y2="172.49"/><line id="Line_559" data-name="Line 559" class="cls-28" x1="323.99" y1="147.22" x2="380.3" y2="147.22"/></g></g><g id="Group_15995" data-name="Group 15995"><path id="Path_200768-2" data-name="Path 200768-2" class="cls-18" d="M282.51,153.73A22.53,22.53,0,1,1,260,131.2h0A22.53,22.53,0,0,1,282.51,153.73Z"/><path id="Path_200769-2" data-name="Path 200769-2" class="cls-29" d="M274.65,166.15l-1.66,6a22.37,22.37,0,0,1-10.24,4c-.67.08-1.35.14-2,.16H260c-.73,0-1.45,0-2.16-.1a22.75,22.75,0,0,1-2.34-.35,22.48,22.48,0,0,1-9.21-4.2c-.32-2-.66-4.15-1-6.19,1.65-.62,6.92-2.41,10.25-3.53l.14,0,.21-.07.57-.19.51-.18,1.34-.45h0l.07,0h0l4.48.33.75.06h.23l.1,0c.27.07,1.05.27,2.09.59h0c2.65.81,6.94,2.35,8.56,4.21Z"/><path id="Path_200770-2" data-name="Path 200770-2" class="cls-19" d="M261.15,142.54s5.37.91,4.46,9.3-5.65,7.66-6,7.64-4.76.1-5-10.16c0,0-.07-7.59,6.5-6.78Z"/><path id="Path_200771-2" data-name="Path 200771-2" class="cls-19" d="M263.5,157.05a19.78,19.78,0,0,0,.14,4.21c.33.75-4.3,3.13-7.18.42a30.18,30.18,0,0,0,.4-5.11c-.18-1.33,6.64.48,6.64.48Z"/><path id="Path_200772-2" data-name="Path 200772-2" class="cls-19" d="M265.72,149.47s.59-.62.8,0-.95,3.46-.88,3.6-.11.24-.25.1a29,29,0,0,1,.33-3.72Z"/><path id="Path_200773-2" data-name="Path 200773-2" class="cls-19" d="M254.71,149.24s-.57-.65-.8,0,.62,3.45.73,3.62c0,0,.18.29.33.16a29.72,29.72,0,0,0-.26-3.77Z"/><path id="Path_200774-2" data-name="Path 200774-2" class="cls-30" d="M266.06,148.75c-.19,1.15-.36,2-.36,2l-.78,1a20.53,20.53,0,0,0-.07-2.6c-.05-.14-.1-.38-.16-.63-.09-.43-.18-.9-.24-1.07s-4.6-1.56-8.6.28a5.76,5.76,0,0,1,0,.73c0,.45,0,1-.25,1-.39.14-.23,2.64-.23,2.64l-.62-.72s-.18-1.3-.37-2.8h0l-.12-1.07c-.08-1.51.06-4.24,2-5.85,1.32-.57,3.44-1,7,0a2.46,2.46,0,0,1,1,.27c2.2,2.42,1.74,6.76,1.74,6.76Z"/><path id="Path_200777-2" data-name="Path 200777-2" class="cls-31" d="M263.51,160.58a15,15,0,0,1-3.43,3l1.45,2.24,2.48-4.42-.5-.79Z"/><path id="Path_200778-2" data-name="Path 200778-2" class="cls-31" d="M256.57,160.92a10,10,0,0,0,3.51,2.63l-1.6,2.3-2.79-4,.87-.91Z"/><path id="Path_200780-2" data-name="Path 200780-2" class="cls-13" d="M276.09,165.8l0,.13c-.14.48-.67,2.35-1.35,4.84-.26.22-.52.44-.79.65s-.61.47-.93.7a22.37,22.37,0,0,1-10.24,4c.33-7.8,1.25-14.71,1.25-14.71.74.19,1.43.38,2.09.57h0a47.76,47.76,0,0,1,9.6,3.63h0c.26.14.38.22.38.22Z"/><path id="Path_200781-2" data-name="Path 200781-2" class="cls-13" d="M255.48,175.8a22.22,22.22,0,0,1-9.21-4.2,21.51,21.51,0,0,1-2.27-2c-.14-.13-.28-.28-.41-.42-.4-1.68-.66-2.77-.68-2.84h0s2.79-1.83,12.65-4.46h0c0,.22,0,6.55-.08,13.93Z"/><path id="Path_200782-2" data-name="Path 200782-2" class="cls-32" d="M260.79,165.65c-.09,2.06-.1,6-.07,10.59H260c-.73,0-1.45,0-2.16-.1a69,69,0,0,1,1.5-10.5l.17-.68,1.33.22c0,.14,0,.3,0,.47Z"/><path id="Path_200783-2" data-name="Path 200783-2" class="cls-13" d="M277.23,168.21a22.56,22.56,0,0,1-2.52,2.56c-.26.22-.52.44-.79.65,0,0,1.3-3.78,2.17-5.62.6.4.87,1.75,1.14,2.41Z"/><path id="Path_200784-2" data-name="Path 200784-2" class="cls-13" d="M244,169.6l-.41-.43a20.65,20.65,0,0,1-1.43-1.67,2.55,2.55,0,0,1,.75-1.17h0l1.09,3.26Z"/></g><path id="Path_195364-2" data-name="Path 195364-2" class="cls-2" d="M448.4,244.1l.49,1,1.09.16-.79.77.19,1.08-1-.5-1,.5.19-1.08-.79-.77,1.13-.16Z"/><path id="Path_195365-2" data-name="Path 195365-2" class="cls-2" d="M453.15,244.1l.49,1,1.09.16-.79.77.19,1.08-1-.5-1,.5.2-1-.79-.77,1.09-.16Z"/><path id="Path_195366-2" data-name="Path 195366-2" class="cls-2" d="M457.9,244.1l.49,1,1.09.16-.79.77.19,1.08-1-.5-1,.5.19-1.08-.79-.77,1.09-.16Z"/><path id="Path_195367-2" data-name="Path 195367-2" class="cls-27" d="M462.65,244.1l.49,1,1.08.16-.78.77.18,1.08-1-.5-1,.5.18-1.08-.8-.77,1.09-.16Z"/><path id="Path_195368-2" data-name="Path 195368-2" class="cls-27" d="M467.42,244.1l.49,1,1.08.16-.78.77.18,1.08-1-.5-1,.5.18-1.08-.78-.77,1.08-.16Z"/></g><g id="Group_15544" data-name="Group 15544"><path id="Path_200715" data-name="Path 200715" class="cls-5" d="M242.56,338.78h-3.05V200.23h3.05V338.78Z"/><path id="Path_200839" data-name="Path 200839" class="cls-5" d="M167.56,338.78h-3.05V200.23h3.05V338.78Z"/><path id="Path_200716-2" data-name="Path 200716-2" class="cls-4" d="M246.85,305.65h-82A8.89,8.89,0,0,1,155.7,297V151a8.9,8.9,0,0,1,9.15-8.61h82A8.9,8.9,0,0,1,256,151V297a8.89,8.89,0,0,1-9.15,8.61Z"/><path id="Path_200717" data-name="Path 200717" class="cls-5" d="M244.2,298.88H167.49a8.77,8.77,0,0,1-9-8.48V153.61a8.77,8.77,0,0,1,9-8.47H244.2a8.77,8.77,0,0,1,9,8.47V290.4a8.76,8.76,0,0,1-9,8.47Z"/><path id="Path_200718" data-name="Path 200718" class="cls-33" d="M220.79,147.78H190.9V141h29.89v6.75Z"/><path id="Path_200719" data-name="Path 200719" class="cls-34" d="M235.75,291.86H175.69c-4.86,0-8.82-3.49-8.82-7.78V253.92c0-4.3,4-7.79,8.82-7.79h60.06c4.87,0,8.82,3.49,8.82,7.79v30.16C244.57,288.37,240.62,291.86,235.75,291.86Z"/><path id="Path_200721" data-name="Path 200721" class="cls-35" d="M231.44,196.26a7.14,7.14,0,1,0,7.13,7.14h0A7.14,7.14,0,0,0,231.44,196.26Zm0,15.21a8.08,8.08,0,1,1,8.07-8.08h0A8.07,8.07,0,0,1,231.44,211.47Z"/><path id="Path_200722" data-name="Path 200722" class="cls-35" d="M231.44,214.87a7.14,7.14,0,1,0,7.13,7.14h0A7.13,7.13,0,0,0,231.44,214.87Zm0,15.21a8.08,8.08,0,1,1,8.07-8.08h0A8.08,8.08,0,0,1,231.44,230.08Z"/><path id="Path_200724" data-name="Path 200724" class="cls-36" d="M206.55,193.79a2.18,2.18,0,0,0-.25-.28.45.45,0,0,0-.13-.1s0,0,0,0h0c-4.78-2.64-13.39-4.79-13.39-4.79a14.8,14.8,0,0,1-.2-3.76,10.63,10.63,0,0,0,2.16-5.19c.14.11.25-.14.25-.14s1.21-3.29,1-4a.36.36,0,0,0-.41-.32.5.5,0,0,0-.2.08c0-.18.07-.37.1-.57,0,0,.51-4.82-1.93-7.51a2.69,2.69,0,0,0-1.15-.3c-3.92-1.2-6.27-.66-7.74,0-2.19,1.78-2.35,4.83-2.25,6.51,0,.4.09.8.13,1.18h0c0,.15,0,.3.05.45a.37.37,0,0,0-.61.22c-.27.7.69,3.84.81,4,0,0,.2.32.36.18h0a11.55,11.55,0,0,0,2.12,5.5c-.09,1.55-.36,3.49-.44,4h0c-2,.63-12,3.3-15.08,5.3a3,3,0,0,0-.84,1.3,23.61,23.61,0,0,0,1.59,1.86c.15.16.3.32.46.47a24.9,24.9,0,0,0,15.36,7.29c.79.07,1.59.11,2.4.11h.83c.76,0,1.51-.08,2.25-.17a25,25,0,0,0,11.39-4.41c.35-.25.69-.51,1-.78s.59-.47.88-.72a25.9,25.9,0,0,0,2.8-2.84,12.68,12.68,0,0,0-1.3-2.54Z"/><g id="Ellipse_772" data-name="Ellipse 772"><circle class="cls-37" cx="189.15" cy="179.44" r="26"/><circle class="cls-38" cx="189.15" cy="179.44" r="25.5"/></g><path id="Path_200957" data-name="Path 200957" class="cls-39" d="M209.19,220.37h-36.8a1,1,0,0,1-1-1h0a1,1,0,0,1,1-1h36.8a1,1,0,0,1,1,1h0A1,1,0,0,1,209.19,220.37Z"/><g id="Group_15599" data-name="Group 15599"><path id="Path_200896" data-name="Path 200896" class="cls-40" d="M179,228.19a2.27,2.27,0,0,1-2.27,2.27h0a2.27,2.27,0,0,1-2.27-2.27h0a2.27,2.27,0,0,1,2.27-2.27h0a2.27,2.27,0,0,1,2.27,2.27Z"/><path id="Path_200897" data-name="Path 200897" class="cls-40" d="M188.37,228.19a2.27,2.27,0,0,1-2.27,2.27h0a2.27,2.27,0,0,1-2.27-2.27h0a2.27,2.27,0,0,1,2.27-2.27h0a2.27,2.27,0,0,1,2.27,2.27Z"/><path id="Path_200898" data-name="Path 200898" class="cls-40" d="M197.74,228.19a2.27,2.27,0,0,1-2.27,2.27h0a2.27,2.27,0,0,1-2.27-2.27h0a2.27,2.27,0,0,1,2.27-2.27h0a2.27,2.27,0,0,1,2.27,2.27Z"/><path id="Path_200899" data-name="Path 200899" class="cls-40" d="M207.12,228.19a2.27,2.27,0,0,1-2.27,2.27h0a2.27,2.27,0,0,1-2.27-2.27h0a2.27,2.27,0,0,1,2.27-2.27h0a2.27,2.27,0,0,1,2.27,2.27Z"/></g><g id="Group_15601" data-name="Group 15601"><line id="Line_642" data-name="Line 642" class="cls-41" x1="171.27" y1="261.04" x2="202.54" y2="261.04"/><line id="Line_643" data-name="Line 643" class="cls-41" x1="171.27" y1="266.8" x2="202.54" y2="266.8"/><line id="Line_644" data-name="Line 644" class="cls-41" x1="171.27" y1="272.55" x2="202.54" y2="272.55"/><line id="Line_645" data-name="Line 645" class="cls-41" x1="171.27" y1="278.3" x2="202.54" y2="278.3"/></g><path id="Path_200977-2" data-name="Path 200977-2" class="cls-35" d="M230.28,206.68l-2.7-2.25a.7.7,0,0,1-.07-1,.69.69,0,0,1,1-.06l1.67,1.35,3.56-4a.69.69,0,0,1,1-.05.7.7,0,0,1,.05,1Z"/><path id="Path_201224" data-name="Path 201224" class="cls-35" d="M230.28,225.47l-2.7-2.25a.69.69,0,0,1,.91-1.05l1.67,1.36,3.56-4a.69.69,0,1,1,1,.93Z"/></g><g id="Group_15537" data-name="Group 15537"><g id="Group_5823" data-name="Group 5823"><g id="Group_5822" data-name="Group 5822"><path id="Path_187012" data-name="Path 187012" class="cls-42" d="M513,333.5s-9.42,5.22-12.53,5.28-.81,1.37,2.57,1.69a53.81,53.81,0,0,0,11.18-1.11,4.9,4.9,0,0,0,1-.83l.21.74a11,11,0,0,0,1.62-.12,37.8,37.8,0,0,0-.66-5.62Z"/><g id="Group_5821" data-name="Group 5821"><path id="Path_187013" data-name="Path 187013" class="cls-43" d="M513,333.5l.12-2.51,3.35.16-.11,2.33Z"/></g></g></g><path id="Path_187017" data-name="Path 187017" class="cls-42" d="M538.5,334.56s-9.43,5.19-12.53,5.24-.81,1.36,2.57,1.68a53.82,53.82,0,0,0,11.18-1.12,5.15,5.15,0,0,0,1-.81l.21.74a11.07,11.07,0,0,0,1.62-.14,35.46,35.46,0,0,0-.66-5.62Z"/><path id="Path_187018" data-name="Path 187018" class="cls-43" d="M538.5,334.56l.13-2.45,3.34.15-.11,2.33Z"/><path id="Path_195389" data-name="Path 195389" class="cls-44" d="M495.1,240.28a33.54,33.54,0,0,1-2.29,4.31c-.28.21-2.28,1.22-2.94,1.54a2.79,2.79,0,0,0-.69.44,2.16,2.16,0,0,0-.48.68c-.35.7-.67,1.42-.95,2.15a3.7,3.7,0,0,0-.19.59,3.76,3.76,0,0,0,0,.75c.08,1.45.23,2.89.4,4.31a.36.36,0,0,0,.07.22c.13.14.35,0,.44-.13a1.57,1.57,0,0,1,.31-.45l.1.36a.84.84,0,0,0,.74-.33,6.52,6.52,0,0,0,1.69-3,2.14,2.14,0,0,1,.22-.66c.3-.55,1-.73,1.5-1.05a8.93,8.93,0,0,0,1.41-.95,2.5,2.5,0,0,0,.61-2,1,1,0,0,1,.15-.35c.45-.69,2.26-3.12,2.26-3.12"/><path id="Path_195390" data-name="Path 195390" class="cls-45" d="M524.29,166.82c-1.35.39-2.08,2.13-2.53,3.32a19.23,19.23,0,0,0-1,4.49,6.43,6.43,0,0,0,.22,3.17,8,8,0,0,0,.89,1.37,2.82,2.82,0,0,0,.63.66,1,1,0,0,0,.89.16,1.52,1.52,0,0,0,.71-1.09,28.6,28.6,0,0,1,3.22-8.18"/><path id="Path_195391" data-name="Path 195391" class="cls-46" d="M522.78,175.8c0-.91-1-1.5-1.79-.56a5.68,5.68,0,0,0-.91,3.33c0,1.3,1,1.56,1.79,1.74"/><path id="Path_195394" data-name="Path 195394" class="cls-42" d="M519.16,295.87c-.31-4.91,3.68-11.38,3.68-11.38s-10.62-5.83-10.78-7.64c0,0-1.45,10-2,13.49-.9,6.13,2.16,41.15,2.16,41.15a12.56,12.56,0,0,0,5.18.07s.55-13.49,2.76-22.69C521.17,304.6,519.53,297.08,519.16,295.87Z"/><path id="Path_195395" data-name="Path 195395" class="cls-42" d="M520,239.75c-4,8.9-8.32,37.59-9.36,47.5-.44,4.2,3.07,9.12,7.14,5.32,4.91-4.54,11.7-25.3,14.15-29s11.59-7,5.34-25.64"/><path id="Path_195398" data-name="Path 195398" class="cls-42" d="M530,295.3c.68,3.47,9.72,2.17,9.52-.9-.27-4.36,2.79-10,3.95-30.67.14-2.38,2.45-2.72,3.45-9.16S544,241,544,241l-13.91-2s-5.35,12.07-4.24,24.09S529.16,291.23,530,295.3Z"/><path id="Path_195399" data-name="Path 195399" class="cls-42" d="M539.45,293.68s3.16,6.27,3.53,10.79c.55,6.63-.12,28.43-.12,28.43a14.05,14.05,0,0,1-5.25.21s-8-38.7-8.32-42.85S539.45,293.68,539.45,293.68Z"/><path id="Path_195400" data-name="Path 195400" class="cls-47" d="M514.62,197.81c1.58-1.8,6.58-4.77,13.25-4.56,4.59.15,17.17.9,18.51,4,.71,1.57,1.48,17.66.43,23.22-.79,4.17-2.8,14.51-2.8,17s1.33,3.56.71,4.3c-1.4,1.62-11,2.29-15.47,2.29-4,0-10.82-1.07-11.16-2.34-.52-1.9.77-1.84,1-3.83s1.11-15.16-.06-17.07c-1.86-3-3.68-11-3.86-13.31S513.05,199.61,514.62,197.81Z"/><path id="Path_195401" data-name="Path 195401" class="cls-48" d="M543.3,210.83c.47,1,3.68,6.2,3.68,6.2l.12.63a26,26,0,0,1-.33,2.78c-.78,4.17-2.8,14.51-2.8,17s1.34,3.57.71,4.29-2.45,1.16-4.76,1.51A5.49,5.49,0,0,0,541,241.7c.19-.74-1-.54-1.22-1.17s2.78-12.67,3.52-18.46S542.82,209.91,543.3,210.83Z"/><path id="Path_195402" data-name="Path 195402" class="cls-44" d="M523.94,187.58a50.72,50.72,0,0,1-.27,5.78,8.94,8.94,0,0,1-1.32.74s.78,4.82,2,4.46,9.2-4.39,9.2-4.39-1.14-.47-1.14-.91,1.07-9.17,1.07-9.17"/><path id="Path_195403" data-name="Path 195403" class="cls-44" d="M529.44,167.42c-1.17.32-4.23-.32-5.08.94a29.06,29.06,0,0,0-1.9,5.19,52.54,52.54,0,0,0-1.51,5.21c-.6,2.27-1.58,6.42.63,8.3a3,3,0,0,0,1.72.87l3.14.59a10.52,10.52,0,0,0,5,.11c2.16-.7,3.34-3.68,3.89-5.68l3.18-11.53Z"/><path id="Path_195404" data-name="Path 195404" class="cls-49" d="M524,199.89s-.44,20.43-1.22,32.85l2.94,4.15,2.07-5.19a157.85,157.85,0,0,0-2-31.61Z"/><path id="Path_195405" data-name="Path 195405" class="cls-49" d="M523.31,198.09l.06.29a5.53,5.53,0,0,0,.62,1.51h0l1.84.14s1.23-.66,1.43-1.36-2.06-1.86-2.06-1.86l-.27.11a4,4,0,0,0-1.61,1.15Z"/><path id="Path_195406" data-name="Path 195406" class="cls-50" d="M532.6,191.34a11.14,11.14,0,0,1,2.46,2.53,23.6,23.6,0,0,1-6.14,7.61,10.58,10.58,0,0,0-3.68-4.68S531.89,195.42,532.6,191.34Z"/><path id="Path_195407" data-name="Path 195407" class="cls-50" d="M525.24,196.81a7.9,7.9,0,0,0-3.68,3.48,17.87,17.87,0,0,1,.5-6.47s1.23-2.08,1.77-2.12A9.88,9.88,0,0,0,525.24,196.81Z"/><path id="Path_195408" data-name="Path 195408" class="cls-47" d="M514.87,198.21c-3.29,3.3-10.58,22.55-11.24,23s-10.71,22.64-10.71,22.64l3.29,2.57s12.14-15.52,15.09-21.63c2.11-4.31,10.58-16.29,10.58-16.29S518.19,194.9,514.87,198.21Z"/><path id="Path_195409" data-name="Path 195409" class="cls-48" d="M507.69,226.68c1.3-1.76,8.2-14.5,8.2-14.5l1,3.45c-3,4.7-6.23,10.38-7.6,12.6-3.34,5.1-13.09,18.14-13.09,18.14l-1.11-.81Z"/><g id="Group_10733" data-name="Group 10733"><path id="Path_195410" data-name="Path 195410" class="cls-51" d="M536.66,235.31l24.15,4.55a1.14,1.14,0,0,1,.91,1.33h0v.1L558.48,258a1.13,1.13,0,0,1-1.32.82L533,254.26a1.14,1.14,0,0,1-.92-1.33h0v-.08l3.24-16.71a1.12,1.12,0,0,1,1.32-.82Z"/><path id="Path_195411" data-name="Path 195411" class="cls-52" d="M537,236.58,560.1,241l-3.2,16.58-23.12-4.36Z"/><g id="Group_10732" data-name="Group 10732"><line id="Line_581" data-name="Line 581" class="cls-53" x1="536.33" y1="252.31" x2="538.86" y2="238.19"/><line id="Line_582" data-name="Line 582" class="cls-53" x1="538.52" y1="252.73" x2="541.04" y2="238.61"/><line id="Line_583" data-name="Line 583" class="cls-53" x1="541.66" y1="253.36" x2="544.18" y2="239.25"/><line id="Line_584" data-name="Line 584" class="cls-53" x1="544.8" y1="254.01" x2="547.32" y2="239.9"/><line id="Line_585" data-name="Line 585" class="cls-53" x1="547.92" y1="254.65" x2="550.76" y2="240.53"/><line id="Line_586" data-name="Line 586" class="cls-53" x1="551.06" y1="255.3" x2="553.9" y2="241.18"/><line id="Line_587" data-name="Line 587" class="cls-53" x1="554.2" y1="255.94" x2="557.15" y2="241.82"/></g></g><g id="Group_10734" data-name="Group 10734"><path id="Path_195412" data-name="Path 195412" class="cls-47" d="M549.47,247.45s-1,1.94-1.47,2.93c-.33.65-2.87,2.81-3.89,4.53a4.39,4.39,0,0,0-.8,2.72,1.82,1.82,0,0,0,2,1.67c.27-.06.58-.2.8,0a1,1,0,0,1,.22.34,1.07,1.07,0,0,0,1.45.43h0a1.07,1.07,0,0,0,.52-.69,1.78,1.78,0,0,0,2.45,0,1.39,1.39,0,0,1-.58-1.22,2.83,2.83,0,0,1,.74-1.23,3.69,3.69,0,0,0,.75-2.33,15.38,15.38,0,0,0-.25-1.77,5.66,5.66,0,0,1,.79-3.5"/><path id="Path_195413" data-name="Path 195413" class="cls-47" d="M542.2,208.44c.73,2.6,11.83,19.71,11.83,19.71l-5.95,21.68,3.44,2.12s10.57-17.57,10.61-22.54-7.74-23.16-13.42-30.66a12.78,12.78,0,0,0-5.44-3.56"/></g><path id="Path_195414" data-name="Path 195414" class="cls-45" d="M536.59,181c-.74-.43-1.29-.87-1.77-.17-.24.37-2.45,4.62-2.45,4.62a19,19,0,0,0,0-2.61,14.9,14.9,0,0,1,.86-3l.88-2.83a4.18,4.18,0,0,0,.21-2.83,3.09,3.09,0,0,0-.9-1.16,9.45,9.45,0,0,0-4.35-1.86,47,47,0,0,1-4.69-1,5.06,5.06,0,0,1-1.79-.91,3.87,3.87,0,0,1-1.23-2.88,6.12,6.12,0,0,1,.92-3.08,5.19,5.19,0,0,0,.47,1.08,4.09,4.09,0,0,1,.86-1.35c.45,2.54,11.15,1.7,13.64,2.82,1.73.78,3.16,1.23,3.11,4.09a1,1,0,0,0,.35.44,7.83,7.83,0,0,1,2.45,5.68c.23,3.1-1.58,6.47-3.36,9.05a5.77,5.77,0,0,1-1.33,1.58,3.43,3.43,0,0,1-2.45.55c-.77-.14-2.29-.07-2.31-.85,0-.57,1.23-1.57,1.53-2"/><path id="Path_195415" data-name="Path 195415" class="cls-44" d="M533.81,183.9a1,1,0,0,0,.65,1.23,1,1,0,0,0,.81-.11,3.39,3.39,0,0,0,2.13-2.63c.25-1.34-.47-2.7-1.7-2.34a1.83,1.83,0,0,0-1.16,1.78"/><path id="Path_195416" data-name="Path 195416" class="cls-46" d="M523.94,188.05l3.44.64a4.81,4.81,0,0,1-3.47,1.22"/><path id="Path_195417" data-name="Path 195417" class="cls-54" d="M516.33,295.76c-.63-2,1.13-5.18,2-7.54S525.67,267,525.67,267l1.43,7.59c-1.34,3.26-2.81,6.75-4.27,9.81h0c-.58,1.23-1.14,2.31-1.69,3.34a18.7,18.7,0,0,0-1.94,8c.37,1.23,2,8.72,1,13.07-2.21,9.16-2.76,22.69-2.76,22.69a10.73,10.73,0,0,1-1.6.18c.2-3.33.52-9.23.55-10.4,0-1.64,2.14-11.12,2-14.88A50.83,50.83,0,0,0,516.33,295.76Z"/><g id="Group_10735" data-name="Group 10735"><path id="Path_195418" data-name="Path 195418" class="cls-51" d="M532.73,247.93l2.08.49,1.51-7.85-2.1-.44Z"/><path id="Path_195419" data-name="Path 195419" class="cls-51" d="M529.81,243.24a1.91,1.91,0,0,1,2.22-1.51h0l2.45.45-.71,3.74-2.45-.46a1.9,1.9,0,0,1-1.52-2.22Zm2.94.56a1,1,0,0,0-.84-1.23,1.07,1.07,0,1,0-.4,2.1h0a1.06,1.06,0,0,0,1.23-.85h0Z"/></g><path id="Path_187070" data-name="Path 187070" class="cls-45" d="M532.36,182.46s-7,.68-12-.91c0,0-3.3,8.58,1.09,10.25,3.68,1.41,8.42-.35,11.14-5.27Z"/><path id="Path_187068-2" data-name="Path 187068-2" class="cls-46" d="M524,177.8a16.79,16.79,0,0,1-4.08,3.76,3.64,3.64,0,0,0,1.46.69,6.31,6.31,0,0,0,1.94,0Z"/></g><g id="Group_15547" data-name="Group 15547"><g id="Group_15546" data-name="Group 15546"><g id="Group_5763" data-name="Group 5763"><path id="Path_186838" data-name="Path 186838" class="cls-55" d="M142.61,345.68c3.49-7.17,6-13.84,4-15.4-1.56-1.23-5,1.42-6.16.2-2-2.16,7.19-12.23,5-15-1.16-1.45-6,2.57-8,.89-1.63-1.39.79-4.7-.33-9.83-.65-3-2.67-7.36-5.44-7.63-3-.31-6.76,4.34-7.44,9-1,7.18,5.37,13.1,3.71,14.71-1.42,1.37-6.51-2.61-8.4-.82-1,.91-.55,2.79-.44,3.28,1.41,6.38,12,9,11.61,10-.09.24-.75.28-4.44-.22-6-.81-7.28-1.33-7.66-.78-.76,1.13,2.81,5.93,7.64,8.78C132.43,346.56,139,346.21,142.61,345.68Z"/><path id="Path_186839" data-name="Path 186839" class="cls-56" d="M141.14,344.55s-9.45-10.95-10.18-40.7"/></g></g><g id="Group_5763-2" data-name="Group 5763-2"><path id="Path_186838-2" data-name="Path 186838-2" class="cls-57" d="M143.38,343.4c-.44-6.27-1.37-11.81-3.33-12.11-1.55-.22-2.85,2.95-4.12,2.57-2.25-.67.08-11.19-2.47-12.2-1.35-.53-3.07,4.12-5.09,3.76-1.67-.31-1.32-3.52-4.11-6.59-1.62-1.78-4.73-4-6.73-3.07-2.19,1-2.91,5.64-1.53,9.09,2.12,5.31,8.84,6.83,8.34,8.58-.44,1.5-5.48.78-6.07,2.75-.3,1,.73,2.13,1,2.42,3.48,3.8,11.72,1.41,11.87,2.25,0,.2-.4.49-3.12,1.6-4.41,1.81-5.49,2-5.53,2.49-.08,1.07,4.25,2.94,8.67,3A19.51,19.51,0,0,0,143.38,343.4Z"/><path id="Path_186839-2" data-name="Path 186839-2" class="cls-58" d="M141.93,343.21s-10.78-3.75-23-23.79"/></g></g><g id="Group_15538" data-name="Group 15538"><g id="Group_10738" data-name="Group 10738"><path id="Path_195421" data-name="Path 195421" class="cls-59" d="M173.82,193.66l-5.94,26.13a1.24,1.24,0,0,0,.89,1.49h.15L187.44,224a1.22,1.22,0,0,0,1.4-1l5.95-26.12a1.23,1.23,0,0,0-.9-1.49h-.15l-18.52-2.67A1.23,1.23,0,0,0,173.82,193.66Z"/><path id="Path_195422" data-name="Path 195422" class="cls-52" d="M175,194.51l-5.69,25,18.4,2.63,5.69-25Z"/><g id="Group_10737" data-name="Group 10737"><line id="Line_588" data-name="Line 588" class="cls-53" x1="191.42" y1="198.98" x2="175.79" y2="196.75"/><line id="Line_589" data-name="Line 589" class="cls-53" x1="190.89" y1="201.35" x2="175.27" y2="199.11"/><line id="Line_590" data-name="Line 590" class="cls-53" x1="184.39" y1="203.31" x2="174.63" y2="201.92"/><line id="Line_591" data-name="Line 591" class="cls-53" x1="183.69" y1="205.35" x2="173.93" y2="203.94"/><line id="Line_592" data-name="Line 592" class="cls-53" x1="182.99" y1="207.37" x2="173.24" y2="205.98"/><line id="Line_593" data-name="Line 593" class="cls-53" x1="186.58" y1="218.61" x2="176.83" y2="217.21"/></g></g><path id="Path_195423" data-name="Path 195423" class="cls-46" d="M166.7,232.37a8.25,8.25,0,0,0,2.58-2.3l2.21-2.63a2.2,2.2,0,0,0,.62-1.16c-1.22-.1-2,1.5-3.26,1.59A26.39,26.39,0,0,1,171.3,222a1.74,1.74,0,0,0,.36-1.44,9.52,9.52,0,0,0-3.43,2.45,17.64,17.64,0,0,0-1.86,2.37,25.33,25.33,0,0,0-3.32,8.15"/><g id="Group_10739" data-name="Group 10739"><path id="Path_195424" data-name="Path 195424" class="cls-44" d="M161.39,253.38l-13.22-11.15s-6.13,8.34-3.82,16.39c1.14,4,2.57,5.92,3.18,7.8s4.56,26.59,4.26,28.41-2.45,6.9-3.25,12.26c-1,6.43-.81,27.37-1.57,32.92s4.37,6.49,4.65,4.62c2.45-16.06,8.77-41.08,9.66-49.07S161.81,272.81,161.39,253.38Z"/><path id="Path_195425" data-name="Path 195425" class="cls-46" d="M161.43,269.23l-5.75,13.18a29.45,29.45,0,0,1,4,13.83c.1,2.55-.12,5.09,0,7.64a2,2,0,0,0,.07.55c.78-3.76,1.35-6.88,1.57-8.9.63-5.67.63-14.72.43-26.32Z"/><path id="Path_195426" data-name="Path 195426" class="cls-44" d="M152.51,339.46s-1.22,5.83-.9,6.58a10.45,10.45,0,0,0,2.74,3.68c1.23.81,4.11,1.79,4.35,2.14a.89.89,0,0,1-.18,1.23,5.83,5.83,0,0,1-4,1c-3.84-.64-4.25-2.33-6.48-2.6a2.91,2.91,0,0,1-2.17,0,2.54,2.54,0,0,1-1.5-2.46,11.22,11.22,0,0,1,1.69-4.11c.65-1.22,1.1-6.62,1.1-6.62"/><path id="Path_195427" data-name="Path 195427" class="cls-49" d="M158.83,353.33c.28-.49.36-1.22.09-1.38a23.31,23.31,0,0,0-2.39-1.44c-.74-.34-1.93-.65-1.51-.43s-.35,1.07-1.05,1c-2.45-.14-4.18-1.75-5.55-2.08a4.73,4.73,0,0,1-2.9-3.22,9.29,9.29,0,0,0-1.42,2.72,4.41,4.41,0,0,0-.29,2.07,5.07,5.07,0,0,1,.22,2,3.77,3.77,0,0,0,1.42.5,4.91,4.91,0,0,0,1.53,0l.16-1.22a5.08,5.08,0,0,1,1.23.12,6.31,6.31,0,0,1,1.88.87c.27.33.49.93.85,1.1a7.53,7.53,0,0,0,3.16.79C156.84,354.89,158.35,354.14,158.83,353.33Z"/></g><g id="Group_10740" data-name="Group 10740"><path id="Path_195428" data-name="Path 195428" class="cls-44" d="M179.39,353.09c-.28-.32-3.34-.81-4.79-1.41a8.34,8.34,0,0,1-3.34-3.19,35.92,35.92,0,0,1-.21-6.39c.29-11.43,2.45-39.37,2.71-46.06.53-11.63-1-23.62-5.45-42.29L151.66,241s-4.67,8.67-3.1,17c.9,4.81,4.9,5.55,5.56,7.36s10.75,32,10.75,32a57,57,0,0,0-2,13.73c-.1,6.13,2.67,24.53,3.17,31.49.06,1.37.31,4.64-.1,5.69-.49,1.22-1.75,2.77-1.69,4.39a2.47,2.47,0,0,0,1.89,2.2c1.23.37,1.84-.32,2.24-.33,2.36-.1,3,1.51,7.06,1.51a6.53,6.53,0,0,0,4-1.67.85.85,0,0,0,0-1.2l0,0Z"/><path id="Path_195429" data-name="Path 195429" class="cls-49" d="M179.79,354.51c.22-.51.2-1.23-.1-1.37a20.15,20.15,0,0,0-2.67-1c-.82-.22-2.09-.33-1.62-.17s-.21,1.1-.93,1.22c-2.52.25-4.58-1-6-1.15a3.86,3.86,0,0,1-3-2.7,9.75,9.75,0,0,0-1.5,2.92,4.57,4.57,0,0,0,0,2.08,4.45,4.45,0,0,1,.5,1.92,4.15,4.15,0,0,0,1.49.18,6.56,6.56,0,0,0,1.58-.23V355a6.26,6.26,0,0,1,1.23-.09,4.43,4.43,0,0,1,2.06.74c.34.26.71.7,1.11.8a8.5,8.5,0,0,0,3.29.25C178,356.41,179.39,355.41,179.79,354.51Z"/></g><path id="Path_195430" data-name="Path 195430" class="cls-21" d="M148.53,240.86c-1.13,1.23-5.17,7.95-5.2,13.42s1.9,9,2.07,10.1c1.23,8.35,2.51,18.4,2.51,19s4.74,3.68,11.12,3.31c11.77-.74,16.35-3.83,16.35-3.83s-.57-20.22-2.38-30.2c-.91-5-4.91-13-4.91-13"/><path id="Path_195431" data-name="Path 195431" class="cls-44" d="M137.78,219s1.9,9.42,2.39,11,3,12.32,5.29,12.14,15.11-10.84,15.11-10.84l-1.81-3.68-11.26,5.45s-1-12.16-1.92-15.06"/><path id="Path_195432" data-name="Path 195432" class="cls-60" d="M142.13,224.83c1.22,4.19,3.68,8.58,4.36,11.9.15.65,7.93-2.19,7.95-5.1"/><path id="Path_195433" data-name="Path 195433" class="cls-21" d="M145.4,206a13.86,13.86,0,0,0-5.62,1.84c-4.82,3.68-1.09,17.08-1.09,17.08s-.23.71,3,.52a21.93,21.93,0,0,0,5.84-1.1l-.94-11"/><path id="Path_195434" data-name="Path 195434" class="cls-60" d="M141.13,213.54s-.4,7.87,1,11.84a13.08,13.08,0,0,0,2.64-.34Z"/><path id="Path_195435" data-name="Path 195435" class="cls-44" d="M163.21,181.27c2.24,2.91,1.8,7,1.23,10.64q-.44,2.76-.84,5.52a2.78,2.78,0,0,1-2.52,3,2.75,2.75,0,0,1-1-.11v4.57q-3.9.09-7.8,0a7.64,7.64,0,0,0-.68-3.09c-1.23,0-2.12-1.3-2.62-2.46a34,34,0,0,1-1.4-4.17,21.94,21.94,0,0,1-1.1-5.72A8.25,8.25,0,0,1,148.1,184a10,10,0,0,1,3.17-2.36c1.62-.85,3.55-1.51,5.22-.78"/><path id="Path_195436" data-name="Path 195436" class="cls-61" d="M160.53,195.15a4.72,4.72,0,0,1,.2-3.41,2.4,2.4,0,0,1,.69-.88,1.44,1.44,0,0,1,2,.34l.1.16A19.8,19.8,0,0,0,164,185a8.27,8.27,0,0,0-5.25-7.22c-5.52-2.26-13.49,0-15.68,5.39a13.38,13.38,0,0,0,2.46,13.41c2.85,3,7,3.48,10.79,2.86,1.94-.32,4.91-.13,6-2.78a.3.3,0,0,0-.17-.38h0a.29.29,0,0,0-.13,0A1.57,1.57,0,0,1,160.53,195.15Z"/><path id="Path_195437" data-name="Path 195437" class="cls-61" d="M161,188c.21.32.16.74.36,1.08a2.39,2.39,0,0,0,1.32,1c.94.45.72,1.8.7,2.46.7-.47.81-1.75,1-2.4s.32-1.47.53-2.2a11.69,11.69,0,0,0,.64-2.11,8.7,8.7,0,0,0-3.32-7,4.66,4.66,0,0,0-5.16,0,4.06,4.06,0,0,0-1.47,1.88,1.19,1.19,0,0,0,0,1"/><path id="Path_195438" data-name="Path 195438" class="cls-62" d="M148.4,206c.14-.9.37-1.94,1.23-2.28a2.72,2.72,0,0,1,.74-.16,61.13,61.13,0,0,1,7.65-.36,7.16,7.16,0,0,1,3.1.54,7.65,7.65,0,0,1,3,3.83"/><path id="Path_195439" data-name="Path 195439" class="cls-21" d="M169.93,238.66a20.19,20.19,0,0,1-1.47-1.72,26.84,26.84,0,0,1-1.08-8.73c.26-1.59,1.67-2.45,2.31-6a13.12,13.12,0,0,0-2.11-9.66c-1.49-2.16-.6-2.15-1.1-4.8a2.57,2.57,0,0,0-.53-1.31,13.08,13.08,0,0,0-3-1.42c-4.13-.63-6.56-.13-10.73,0a36.09,36.09,0,0,0-6.13.79c-2.25.49-4.2,1.09-4.67,4.13a30.73,30.73,0,0,0,1.29,14c1,3,6.63,13.21,5.22,15.2a6.71,6.71,0,0,0-1.23,1.88c-.36,2.07,4.33,2.8,6.33,2.95a73.22,73.22,0,0,0,9.6,0c2.32-.1,7.36-.9,7.74-3.77a2.09,2.09,0,0,0-.47-1.54Z"/><path id="Path_195440" data-name="Path 195440" class="cls-60" d="M169.05,223.09a8.62,8.62,0,0,1-.62,2.38,6.37,6.37,0,0,1-4.2.2,63.18,63.18,0,0,0-1.9-8S169.05,222.31,169.05,223.09Z"/><path id="Path_195441" data-name="Path 195441" class="cls-61" d="M149.77,197.53a4.42,4.42,0,0,0-4.36,1.71c-1.22,1.47-1.75,3.68-.61,5.28a5.05,5.05,0,0,0,1.66,1.31,8.77,8.77,0,0,0,6.24,1.22,5,5,0,0,0,3.92-4.56c0-2-1.46-3.61-2.9-4.91"/><g id="Group_10742" data-name="Group 10742"><path id="Path_195442" data-name="Path 195442" class="cls-44" d="M166.09,221.16s7.62,18.4,10.93,18.4c2.45,0,8.32-17,8.32-17l-3.68-1.77-4.16,7.13-4.25-13.26"/><path id="Path_195443" data-name="Path 195443" class="cls-44" d="M180.86,222.08a7.34,7.34,0,0,0,1.15-3.32,13.53,13.53,0,0,1-.08-3.54,15.12,15.12,0,0,1,1.22-2.45c.37-.31,1.7-.81,2-.59s.72-.81,1.22-.72a1.15,1.15,0,0,1,1,1c0,.49.73.59.81.94a5.14,5.14,0,0,0,.18.95c.13.27.54.13.67.8a2.31,2.31,0,0,1,0,1c0,.3.32.29.23.88a7.38,7.38,0,0,1-.86,2.05,6,6,0,0,1-2.08,2.11,3.86,3.86,0,0,0-1.23,1.67"/><path id="Path_195444" data-name="Path 195444" class="cls-49" d="M183.69,206.91a.43.43,0,0,0-.58-.21h0a.59.59,0,0,0-.15.73c3,6.84,2.58,5.83,2.26,5.1,0,0,.17.21.53-.1s.25-.5.25-.5S183.79,207.05,183.69,206.91Z"/><g id="Group_10741" data-name="Group 10741"><path id="Path_195445" data-name="Path 195445" class="cls-46" d="M185.29,212.58a5.52,5.52,0,0,1-1.38,1.43c-.35.32-.3.54-.7.87.69,0,.57-.44,1.45-1.08a1.86,1.86,0,0,0,.91-1.11.16.16,0,0,0-.1-.19h0a.14.14,0,0,0-.17.06Z"/></g></g><path id="Path_195446" data-name="Path 195446" class="cls-21" d="M159.08,204.72c2,.1,7.76-.9,11,2.46,2.7,2.82,4.24,10.19,5.33,13.2-2.7,2.74-5.3,4.9-9.39,4.07-.15-.12-2.18-6.5-3.68-7.07"/><path id="Path_195447" data-name="Path 195447" class="cls-60" d="M161.27,286.5c-.75-4.91-5.4-19.9-5.59-20.31a18.16,18.16,0,0,1-5-5.62c-.58,3.3.92,6.56,2.33,9.59,2.45,5.3,3.92,11,6.05,16.51"/><path id="Path_187885" data-name="Path 187885" class="cls-5" d="M162.69,196a.76.76,0,0,1-.62.89.77.77,0,0,1-.9-.62,1.22,1.22,0,0,1,0-.27,1.06,1.06,0,0,1,.35-.89.67.67,0,0,1,.81,0,1,1,0,0,1,.36.86Z"/></g></g><line id="Line_649" data-name="Line 649" class="cls-63" x1="211.79" y1="250.47" x2="211.79" y2="287.41"/><g id="Group_15600" data-name="Group 15600"><path id="Path_200900" data-name="Path 200900" class="cls-64" d="M228.08,255a13.89,13.89,0,0,0-13.89,13.89h0a13.89,13.89,0,0,0,13.89,13.89h0a13.89,13.89,0,0,0,0-27.78Zm0,25.51a11.61,11.61,0,0,1-11.62-11.61h0a11.63,11.63,0,0,1,11.62-11.62h0a11.62,11.62,0,0,1,0,23.24Z"/><path id="Path_200901" data-name="Path 200901" class="cls-24" d="M241.33,273.11a14.08,14.08,0,0,0,.64-4.18,13.86,13.86,0,0,0-6.21-11.56l-1.25,1.88a11.62,11.62,0,0,1,4.65,13.18Z"/><path id="Path_200902" data-name="Path 200902" class="cls-65" d="M239.17,272.41a11.62,11.62,0,0,1-22.25-.27l-2.18.63a13.89,13.89,0,0,0,26.6.32Z"/><path id="Path_200903" data-name="Path 200903" class="cls-66" d="M226.21,255.19l.3,2.24a13.83,13.83,0,0,1,1.57-.12,11.56,11.56,0,0,1,6.4,1.93l1.25-1.9a13.88,13.88,0,0,0-7.65-2.3A14.58,14.58,0,0,0,226.21,255.19Z"/><path id="Path_200904" data-name="Path 200904" class="cls-67" d="M234.2,271.05H222.74a2.12,2.12,0,0,1-2.12-2.12h0a2.12,2.12,0,0,1,2.12-2.12H234.2a2.12,2.12,0,0,1,2.12,2.12h0a2.12,2.12,0,0,1-2.12,2.12Z"/></g></g></g></svg>