<svg xmlns="http://www.w3.org/2000/svg" viewBox="0 0 685 378"><defs><style>.cls-1{fill:#dee9f2;opacity:0.19;}.cls-1,.cls-6,.cls-7{isolation:isolate;}.cls-2{fill:#6c441c;}.cls-3{fill:#3c1f01;}.cls-4{fill:#8f6a44;}.cls-5{fill:#a6805a;}.cls-6{fill:#3c1f02;opacity:0.99;}.cls-7{fill:#d3ae87;opacity:0.33;}.cls-8{fill:#79bedf;}.cls-9{fill:#ffb780;}.cls-10{fill:#ccc8c8;}.cls-11{fill:#3ac09c;}.cls-12{fill:#021323;}.cls-13{fill:#6e6e6e;}.cls-14{fill:#003d57;}.cls-15{fill:#eebb73;}.cls-16{fill:#ffc5c5;}.cls-17{fill:#ff6d6d;}.cls-18{fill:#3d3d3d;}.cls-19{fill:#1e1e1e;}.cls-20{fill:#707070;}.cls-21{fill:#fff;}.cls-22{fill:#c53d81;}.cls-23{fill:#0e0e0e;}.cls-24{fill:#555da2;}.cls-25{fill:#777eb5;}.cls-26{fill:#ffc69a;}.cls-27{fill:#a77860;}.cls-28{fill:#ed6964;}.cls-29{fill:#d65151;}.cls-30{fill:#173a58;}.cls-31{fill:#fac1ad;}.cls-32{fill:#e2e2e2;}.cls-33{fill:#f2f2f2;}.cls-34{fill:#411809;}.cls-35{fill:#eea886;}.cls-36{fill:#6f6fdc;}.cls-37{fill:#594b70;}.cls-38{fill:#4c4cc5;}.cls-39{fill:#fff0f0;}.cls-40{fill:#1b1d2e;}.cls-41{fill:#061f3d;}.cls-42{fill:#f5b;}.cls-43{fill:#383432;}.cls-44{fill:#4a0808;}</style></defs><title>industryArtboard 2 copy</title><g id="Designed_by_Freepik" data-name="Designed by Freepik"><g id="Group_14477" data-name="Group 14477"><path id="Path_200062" data-name="Path 200062" class="cls-1" d="M310.48,350.19c-63.74,1-88.83,19.3-125.88,16.93C115.79,362.7,65.18,349.73,71.08,327s142.5-36.67,277.26-36.67S625.48,309.44,610.11,327s-91.94,37.37-170.53,36.22S374.23,349.21,310.48,350.19Z"/><g id="Group_14449" data-name="Group 14449"><g id="Group_14448" data-name="Group 14448"><path id="Path_198570-2" data-name="Path 198570-2" class="cls-2" d="M99.06,313.06S142.8,177.51,229.45,177.51,445.66,313.06,445.66,313.06Z"/><path id="Path_198571" data-name="Path 198571" class="cls-3" d="M126.63,308.38S172,175.56,236.07,175.56,460.24,308.38,460.24,308.38Z"/><path id="Path_198572" data-name="Path 198572" class="cls-4" d="M235.05,159.06c41.94-3,83,48.17,83,48.17l-76.28-5.55-40.4,25.8-16.25-17.76-37.81,14S193.11,162.08,235.05,159.06Z"/><path id="Path_198573" data-name="Path 198573" class="cls-5" d="M218.53,163.21c13.91.1-17.16,64.49-17.16,64.49l-16.26-18-37.76,14s15.5-21.21,33.44-36.19S212.24,163.16,218.53,163.21Z"/><path id="Path_198574-2-2" data-name="Path 198574-2-2" class="cls-2" d="M332.43,313.06h-95L345.09,196.84s4.08-4.9,33-37.18,55-36.37,55-36.37l148.7,189.77Z"/><path id="Path_198575" data-name="Path 198575" class="cls-6" d="M343.91,313.06S373.64,123.3,433.12,123.3,581.81,313.06,581.81,313.06Z"/><path id="Path_198576" data-name="Path 198576" class="cls-4" d="M425.43,122.07c48.42-1.8,93,79.6,93,79.6L433.39,188,374,228l-8.88-29.25-41.75,21.78S352.15,182.3,372.2,161,400,134.05,400,134.05a56,56,0,0,1,11.34-7.92C417.1,123.31,419.27,122.3,425.43,122.07Z"/><path id="Path_198577" data-name="Path 198577" class="cls-7" d="M420,123.42c12.85,1.66-46.31,102.43-46.31,102.43L365.1,198.7l-41.73,21.79S339,198.31,352.44,183s23.49-25.75,23.49-25.75,12.48-13.61,23.73-22.94S416.8,123,420,123.42Z"/></g><g id="Group_15999" data-name="Group 15999"><path id="Path_201228" data-name="Path 201228" class="cls-8" d="M226.44,312.74s.05.19.72-.74c1-.94.74-.82.74-.82s-.38-.9-1.07-.68c-6.13,1.88-28.1,2.17-24.48,6.2s29.9,9.18,38.92,9.89c19.81,1.55,35.94-1.62,53.26-2.16s16,0,16,0,34,.29,43.38-1.26,34.78-7.7,0-10.26S226.44,312.74,226.44,312.74Z"/><path id="Path_201229" data-name="Path 201229" class="cls-8" d="M220,312c3.22-1.79,8.66-3,14.74-4.65s10.59-2.76,10.59-2.76l-7.26,8S216.74,313.77,220,312Z"/></g></g><path id="Path_195033" data-name="Path 195033" class="cls-9" d="M475.92,288.37c-.49,5,.33-.17-.76,4.78a28,28,0,0,0,.76,8.06c.51,1.34-1.35,33.78-1.54,34.52s4,.33,4,.33,8.25-23.66,7.74-27.51-1-12.07.43-15.4S476.51,281.1,475.92,288.37Z"/><path id="Path_195033-2" data-name="Path 195033-2" class="cls-9" d="M452.79,285.84c-.54,5.37.36-.18-.83,5.11a29.51,29.51,0,0,0,.83,8.63c.56,1.43-.71,37-.92,37.8s4.33.35,4.33.35,7.73-26,7.38-30.6-.79-12.61.8-16.18S453.44,278.07,452.79,285.84Z"/><g id="bag"><path id="Path_198691" data-name="Path 198691" class="cls-10" d="M415.12,309.79h-2V302H401.79v7.8h-2v-8.66a1.14,1.14,0,0,1,1.14-1.14H414a1.14,1.14,0,0,1,1.14,1.14h0Z"/><rect id="Rectangle_8540-2" data-name="Rectangle 8540-2" class="cls-11" x="375.45" y="307.02" width="64.01" height="42.23" rx="2.67"/><rect id="Rectangle_8541" data-name="Rectangle 8541" class="cls-12" x="385.95" y="307.02" width="5.17" height="42.23"/><rect id="Rectangle_8542" data-name="Rectangle 8542" class="cls-12" x="423.77" y="307.02" width="5.17" height="42.23"/><path id="Path_198692" data-name="Path 198692" class="cls-13" d="M401.51,316.49a4.45,4.45,0,0,0-6.22,6.22,2.74,2.74,0,0,0,.84.82,4.44,4.44,0,0,0,6.21-6.2A2.56,2.56,0,0,0,401.51,316.49Z"/><rect id="Rectangle_8543" data-name="Rectangle 8543" class="cls-14" x="403.16" y="337.47" width="11.96" height="7"/><path id="Path_198693" data-name="Path 198693" class="cls-15" d="M414.56,320.07c-2.88-.48-7.58,8.9-7.58,8.9h0s9.62,4.33,11.51,2.11-1.05-10.43-3.93-11Z"/></g><path id="Path_198673" data-name="Path 198673" class="cls-16" d="M464.11,177.1a58,58,0,0,0-10.21,0c-3.3.59-3.7,8.8-3.3,16.09s-3.45,39.74,1,41.89,27.41,9.48,38.76,3.52c5.48-3.41,2.74-24.46,2.93-32.82s1.59-23.65-1-25.64S469.93,175.07,464.11,177.1Z"/><path id="Path_198674" data-name="Path 198674" class="cls-17" d="M463.08,182.69a49.29,49.29,0,0,0-9.09,0c-2.94.52-3.28,7.82-2.94,14.31s-3.06,35.35.94,37.23,24.42,8.42,34.45,3.12c4.91-3,2.44-21.73,2.62-29.16s1.37-21-.89-22.8S468.23,180.88,463.08,182.69Z"/><path id="Path_198675" data-name="Path 198675" class="cls-18" d="M443.33,163.07s50.94,4.11,58.1,2.74c5.72,8.3,3.77,21.44-3,19.37-8.91-2.74-33.71-7.38-53.32-3.28C436.63,179.1,438,164.62,443.33,163.07Z"/><path id="Path_198676" data-name="Path 198676" class="cls-19" d="M499.38,169.84s2.22-.25,2.88,4.59-2.07,7.7-2.88,8.07-5.3-.22-5.3-.22-1.14-10.06,1-11A34.23,34.23,0,0,1,499.38,169.84Z"/><path id="Path_198677" data-name="Path 198677" class="cls-20" d="M499.53,169.82s-2.12,1-2.16,5.48.76,8.91,4.26,9.83c-3.33,1.27-5.3,0-13.45-1.77s-37.32-2.43-43.05-1.37c-5.48.11-8.83-11-4.85-14.62C451.08,167.51,499.53,169.82,499.53,169.82Z"/><path id="Path_195669" data-name="Path 195669" class="cls-21" d="M467.05,185.21h10.38l-.33,55.62-13.79,1.51Z"/><path id="Path_195672" data-name="Path 195672" class="cls-22" d="M488.26,294.76s2.67-14.57,3.87-24.77,0-15.81,0-15.81l-1.83-12.05H454.81l-.25,10.62L450,294.12H466.8l5.6-36.29,2,36.29Z"/><path id="Path_195673" data-name="Path 195673" class="cls-23" d="M486.64,243.89l-.26-1.77H456.23v1.55l6.32,2.1a27.07,27.07,0,0,0,15.84.4Z"/><path id="Path_195674" data-name="Path 195674" class="cls-21" d="M488.51,194.11c-3.27-3.59-10.84-9.34-19.18-8L460.6,190,458,208.37l-2.29-.52,31.09.36,3,1.47S491.86,197.71,488.51,194.11Z"/><path id="Path_195682" data-name="Path 195682" class="cls-24" d="M466,186.49l-2.31,68.13H449.27l4.25-31,2.74-18.81s1.37-12.65,4.29-14.91A34.15,34.15,0,0,1,466,186.49Z"/><path id="Path_195684" data-name="Path 195684" class="cls-24" d="M477.59,186.12l-1.5,68.51h15.44s.58-54.29-1.14-60S477.59,186.12,477.59,186.12Z"/><path id="Path_195685" data-name="Path 195685" class="cls-25" d="M460.41,189l6.64-3.81-2.15,33.71-3.64-19,1.29-.87Z"/><path id="Path_195686" data-name="Path 195686" class="cls-25" d="M476.85,219.4l.58-34.18,5.93,2.64L480.13,199l.82.63Z"/><path id="Path_187667" data-name="Path 187667" class="cls-26" d="M469.11,164.16s-9.18-2.06-7.08,9.5,4.31,12.52,9.86,10.09,5-9.81,5.33-13.44S472.06,164.29,469.11,164.16Z"/><path id="Path_187668" data-name="Path 187668" class="cls-26" d="M468.23,191.06s2.52,3.4,9-.52c0,0-1.43-9.38-.68-13.91s-8.4,7.05-8.4,7.05a3.79,3.79,0,0,1,.23,1.11,12.9,12.9,0,0,1-.11,1.86A36,36,0,0,0,468.23,191.06Z"/><path id="Path_187670" data-name="Path 187670" class="cls-27" d="M468.23,186.65c6.65-2,7.14-6,7.16-6.11-2.18,3.77-7.05,4.26-7.05,4.26a11.42,11.42,0,0,1-.11,1.85Z"/><path id="Path_187671" data-name="Path 187671" class="cls-26" d="M476.91,188.26s-2.24,5.48-5.83,5.16-.62-5.91-.45-6A7.59,7.59,0,0,1,476.91,188.26Z"/><path id="Path_187732" data-name="Path 187732" class="cls-26" d="M463.62,175.19a10.86,10.86,0,0,1-1.87,4.12,3.8,3.8,0,0,0,2.51,1.05Z"/><path id="Path_198678" data-name="Path 198678" class="cls-28" d="M457.69,235l24.16,9.93,3.09,4.59-18.24,16.8-19.52-5.64-3.08-4.59Z"/><path id="Path_198679" data-name="Path 198679" class="cls-29" d="M460.78,239.56,485,249.48l-15.16,21.39-22.6-10.24Z"/><path id="Path_198680" data-name="Path 198680" class="cls-30" d="M466.86,240.11c.1-.2,2.3-4.81,5.66-4.57a6.52,6.52,0,0,1,5.07,2.74,7.32,7.32,0,0,1,0,6.3l-1.22-.48a6.14,6.14,0,0,0,.08-5.12,5.31,5.31,0,0,0-4.11-2.11c-2-.15-3.86,2.74-4.38,3.82Z"/><path id="Path_198681" data-name="Path 198681" class="cls-31" d="M416.35,206s-2.49-1.81-2.05-3.81c.18-.85-4.22-2-4.22-2l-2.35.21a21.58,21.58,0,0,0-.38,4.88c.26,1.44,5.33,2.64,6.67,3.9C415.56,208.86,416.35,206,416.35,206Z"/><path id="Path_198682" data-name="Path 198682" class="cls-32" d="M413.27,202.1l-4.69,1.72-2.46-11.45.6-.27,6.85,9.81Z"/><path id="Path_198683" data-name="Path 198683" class="cls-33" d="M413.87,201.79l-4.68,1.69L406.72,192l5.29-.11Z"/><path id="Path_198684" data-name="Path 198684" class="cls-31" d="M414.3,202.2s.13-.74.33-2.19-1.95-3-2.35-2.74a1.79,1.79,0,0,0,.3,2.14c1.18.78.77,2,1.15,2.74a.35.35,0,0,0,.43.18.86.86,0,0,0,.14-.13Z"/><path id="Path_198685" data-name="Path 198685" class="cls-31" d="M407,200.48s1-2.33,2.33-2.66,1.47.34.81,1.11-2.52,2.23-2.85,3.41S406.27,201.83,407,200.48Z"/><path id="Path_198686" data-name="Path 198686" class="cls-31" d="M406.75,198.87s.55-1.86,1.57-2.29,1.24.09.78.74a11.57,11.57,0,0,0-1.65,3.27C407.31,201.5,406.27,200,406.75,198.87Z"/><path id="Path_198687" data-name="Path 198687" class="cls-31" d="M407,202.11s1-2.33,2.33-2.66,1.47.33.81,1.11a12.78,12.78,0,0,0-2.67,3.45C407.14,205.18,406.27,203.48,407,202.11Z"/><path id="Path_198688" data-name="Path 198688" class="cls-31" d="M407.43,203.48s1-2.08,2.29-2.4,1.44.31.8,1a12.4,12.4,0,0,0-2.62,3.24C407.57,206.34,406.68,204.66,407.43,203.48Z"/><path id="Path_198689" data-name="Path 198689" class="cls-30" d="M482.84,188.5s-5.19,23.88,8.41,34.63a9.62,9.62,0,0,0,0-3.3s-7.11-11.86-3-30.9C486.72,187.47,482.84,188.5,482.84,188.5Z"/><path id="Path_198523" data-name="Path 198523" class="cls-34" d="M475.51,174.36c-.73-.19-1.3-.41-1.58.24-.13.35-1.27,4.23-1.27,4.23a16.37,16.37,0,0,0-.52-2.09,10.08,10.08,0,0,1,.16-2.57l.21-2.44a3.19,3.19,0,0,0-.39-2.3,2.6,2.6,0,0,0-1-.72,9.13,9.13,0,0,0-4.11-.53c-1.37.08-2.85.3-4.28.26a4.76,4.76,0,0,1-1.74-.33,3,3,0,0,1-1.67-2,4.79,4.79,0,0,1,.19-2.65,3.47,3.47,0,0,0,.63.74,3.46,3.46,0,0,1,.47-1.24c.9,1.91,10.06-1.07,12.46-.73,1.67.23,3,.33,3.52,2.56a1,1,0,0,0,.38.28,6.13,6.13,0,0,1,3.22,4c.82,2.42-.1,5.48-1.14,7.92a4.79,4.79,0,0,1-.83,1.54,3.37,3.37,0,0,1-2.06,1c-.7,0-2,.44-2.18-.2s.72-1.49.92-1.93"/><path id="Path_198102" data-name="Path 198102" class="cls-24" d="M460.41,190a14.26,14.26,0,0,0-7.07,1.89c-1.52,1.07-14.69,9.67-16.34,10.56s-21.92,2.06-21.92,2.06a3.65,3.65,0,0,0-1.06,2.33,8.85,8.85,0,0,0,.46,2.74s20,1.85,24.21,1,21.07-8.07,21.07-8.07"/><path id="Path_198690" data-name="Path 198690" class="cls-30" d="M460.05,187.54s2.89,24.15-9.59,32.7a9.61,9.61,0,0,1,.29-3.29s6.06-9.82,4.84-29.28a10.33,10.33,0,0,1,4.46-.13Z"/><path id="Path_198449" data-name="Path 198449" class="cls-24" d="M488.55,192.71s-4.75,1.37-2.15,10c2.06,6.85,2.33,8.3,2.33,8.3l11-2.74s-3.2-15.08-8.45-15.82a6.28,6.28,0,0,0-2.69.22Z"/><g id="Group_14286" data-name="Group 14286"><g id="Group_14285" data-name="Group 14285"><g id="Group_14284" data-name="Group 14284"><g id="Group_14283" data-name="Group 14283"><path id="Path_198453" data-name="Path 198453" class="cls-35" d="M475.07,241.85a3.43,3.43,0,0,0,1-.25L477,241a1.08,1.08,0,0,1,.3-.16,6.61,6.61,0,0,0,1.66-.88,43,43,0,0,0,2.74-3.55l-1.29-1.63-1-1.7a41.11,41.11,0,0,0-5.69,1.2l-.18.14a10.07,10.07,0,0,0-1,1.19c-.08.1-.92,1.07-.85,1.46a1.2,1.2,0,0,0,.7,1,3,3,0,0,0,.77,1.46,1.9,1.9,0,0,0,1,1.3S474.49,241.85,475.07,241.85Z"/></g></g></g></g><path id="Path_198459" data-name="Path 198459" class="cls-24" d="M488,193.3c-1,.38-1.37,2.15-1,7.26a17.13,17.13,0,0,0,2.88,8.66c.67,1.18,4.36,8.47,3.7,9.43s-7,7.15-7.3,7.66-7.37,6.85-7.37,6.85l3.57,5s15.07-11.81,16.31-13,4.7-3.66,3.4-7.79-3.72-14-4.11-14.75S494.6,190.76,488,193.3Z"/><g id="Group_14476" data-name="Group 14476"><path id="Path_198694" data-name="Path 198694" class="cls-36" d="M289.54,69.82l42,19.26L367,82.41,293.47,69.08Z"/><path id="Path_198695" data-name="Path 198695" class="cls-37" d="M336.59,115.08l-17.34,3.26a5.15,5.15,0,1,0,0,10.3,4.84,4.84,0,0,0,2-.4L338.57,125c3.34-.62,5-1.67,4.19-5.91S339.93,114.46,336.59,115.08Z"/><path id="Path_198696" data-name="Path 198696" class="cls-38" d="M389.69,71.06c-15.08.82-39,6.4-60.23,11.57-44.7,11-80.46,21.56-78.31,30.33A358.82,358.82,0,0,0,336,109.65c47.48-7.78,80.4-22.12,78.26-30.92C413.2,74.12,391.7,71,389.69,71.06Z"/><path id="Path_198697-2" data-name="Path 198697-2" class="cls-38" d="M392.89,86.34c-28.09,3.14-141.8,26.17-141.8,26.17a1.14,1.14,0,0,0,0,.45A358.82,358.82,0,0,0,336,109.65c47.45-7.78,80.4-22.12,78.23-30.92a1.9,1.9,0,0,0-.14-.4,40.83,40.83,0,0,1-21.16,8Z"/><path id="Path_198698" data-name="Path 198698" class="cls-36" d="M278.82,153.93l6.14-1.39,89.29-59.41-48.47,5.94Z"/><path id="Path_198699" data-name="Path 198699" class="cls-36" d="M235.9,86.79l15.45,23.43,17.91-7.13-26-17.49Z"/><path id="Path_198700" data-name="Path 198700" class="cls-36" d="M243.71,129.65l10.61-2,16.32-18.24L251.54,113Z"/><path id="Path_198701" data-name="Path 198701" class="cls-21" d="M340.61,115.62c-.71,0-1,2-.57,4.14s1.27,3.59,2,3.45,1-1.81.62-4S341.34,115.48,340.61,115.62Z"/><path id="Path_198702" data-name="Path 198702" class="cls-39" d="M393.71,76c-2.15,2-7,3.23-5.66,5.66s9,.82,12.25-1.36A21.55,21.55,0,0,0,406,74l-8.66-2A20.63,20.63,0,0,1,393.71,76Z"/><path id="Path_198703" data-name="Path 198703" class="cls-39" d="M280.86,153.47l52.22-55.9-3.34.54Z"/><path id="Path_198704" data-name="Path 198704" class="cls-39" d="M326.29,83.43l3.2-.8L291.44,69.39Z"/><rect id="Rectangle_9439" data-name="Rectangle 9439" class="cls-21" x="345.77" y="89.57" width="6.19" height="6.19" rx="1" transform="translate(-12.03 99.75) rotate(-16)"/><rect id="Rectangle_9440" data-name="Rectangle 9440" class="cls-21" x="370.55" y="83.37" width="6.19" height="6.19" rx="1" transform="translate(-9.36 106.34) rotate(-16)"/><rect id="Rectangle_9442" data-name="Rectangle 9442" class="cls-21" x="362.29" y="85.44" width="6.19" height="6.19" rx="1" transform="translate(-10.25 104.14) rotate(-16)"/><rect id="Rectangle_9441" data-name="Rectangle 9441" class="cls-21" x="354.03" y="87.5" width="6.19" height="6.19" rx="1" transform="translate(-11.14 101.95) rotate(-16)"/></g><path id="Path_194793" data-name="Path 194793" class="cls-40" d="M473.76,333.87s-1,.38-2.46,1.06a14.13,14.13,0,0,1-5.24,1.56c-2.09.13-4.27.78-4.13,2.54s6.85,2.29,13.16,1.33,6.37-1.1,6.42-1.52a25.67,25.67,0,0,0-.69-4.94C480.51,333.74,473.76,333.87,473.76,333.87Z"/><path id="Path_194796" data-name="Path 194796" class="cls-40" d="M451.13,334.33a9.51,9.51,0,0,0-2.52.91c-1.52.88,2.21-.84-5,2,1.76-.7-4,.87-3.88,2.66s6.35,2.3,12,1.31,5.75-1.12,5.82-1.56A22.18,22.18,0,0,0,457,335C456.88,334.73,451.13,334.33,451.13,334.33Z"/><g id="Group_14452" data-name="Group 14452"><g id="Group_14451" data-name="Group 14451"><path id="Path_195032" data-name="Path 195032" class="cls-26" d="M201.89,236.36a54.88,54.88,0,0,0-5.87,9.19c-1.53,3.65-4.11,11.66-3.74,17.81s2.39,17.81,1.78,20.47-1.19,8.07-1.82,9.94-3.19,7.31-3.44,12.92,3.56,30.24,3.4,32.53,4.33.93,4.33.93,1.54-22.25,2.39-26,1.86-16.82,2.63-17.81,2.85-10.62,2.53-12.14,8.35-24.47,8.85-29.05,9.88-18.17,9.88-18.17S215.06,232.06,201.89,236.36Z"/><path id="Path_195033-3" data-name="Path 195033-3" class="cls-26" d="M217.51,236.36a24.23,24.23,0,0,0,.47,3.17c.26.85,6.12,22.51,6.71,30.84a165.58,165.58,0,0,0,2.38,17.17,36.85,36.85,0,0,1-.76,9.25c-.51,1.53,2.55,37.64,2.74,38.49s-2,1.1-3.66.85-9.77-26.51-9.26-30.93,1-13.84-.43-17.66S201.26,256,201.18,254.31,195.63,223.31,217.51,236.36Z"/><path id="Path_195034" data-name="Path 195034" class="cls-26" d="M196.45,337.45a18.31,18.31,0,0,0,.87,3.74c.46.8,1.72,4.88,2.29,5.63s1.82,6.48,0,7.17-6.14,1.84-7.59-.47a9.39,9.39,0,0,1-1.37-6.31c.22-1.76,2-9.8,1.95-10.59S196.45,337.45,196.45,337.45Z"/><path id="Path_195035" data-name="Path 195035" class="cls-41" d="M198.87,345.25s.21,4.44-3.15,4.44-4.84-4-4.84-4-1.13,2,0,6.2,5.91,3.36,7,3.21S204,353.57,198.87,345.25Z"/><path id="Path_195036" data-name="Path 195036" class="cls-41" d="M228.76,333.46s2.37,4.25,3.78,5.1c1.76,1.07,5.17,4.51,6.35,4.66s5.48.92,4.64,3.33c-.68,2-10.87,1.7-12,.72s-4.59-4.55-6-4.49-.88,5.14-.88,5.14h-1.51s-.52-4.92-.59-5.75c-.19-2.51,1.6-4.35,1.68-5.77s.16-2.49.16-2.49Z"/><path id="Path_195038" data-name="Path 195038" class="cls-42" d="M223.62,236s1.21,5,1.66,6.5.89,25,1.6,39.22c0,0-11.16,7.39-34.72,6.29,0,0-3.1-28.68-.94-36.08s5-13.43,8-15.55C201.85,234.43,223.62,236,223.62,236Z"/><g id="Group_10432" data-name="Group 10432"><g id="Group_10431" data-name="Group 10431"><path id="Path_195040" data-name="Path 195040" class="cls-26" d="M184.5,248.7a34.11,34.11,0,0,0,1,4.11c.65,2.05,1.24,2.74,1,3.88-.2.87-1.2,1.54-1.37,1.26s-.39-3.73-1.81-3.72.42,4.27-.41,4-4.11-2.1-3.92-3.84,1.5-3,1.37-5.57a5.57,5.57,0,0,1,.66-3.33Z"/></g></g><path id="Path_195045" data-name="Path 195045" class="cls-42" d="M226.87,205.61c-.19,3-1.71,5.49-2,6.57s0,3.56-.32,6.06-1.27,14.33-1,17.7-23.18,1.8-25,.83c0,0,4-7.07,4.11-10,0-1,.63-4.11-1-6.44-.87-1.2-2.74-4.48-4.42-7.29h0l-1.67-2.93h0l-1-1.75s-.77-14.22,2.11-15.68a14.56,14.56,0,0,1,7.19-1.85,19.9,19.9,0,0,0,4.66-.7l6.56.7a37.18,37.18,0,0,0,5.87,1.6c1.66.12,3.75,3.7,3.56,6S227.06,202.61,226.87,205.61Z"/><path id="Path_195046" data-name="Path 195046" class="cls-42" d="M199.53,191.49a9,9,0,0,0-7.58,4.56c-2.35,4.59-2.61,9.44-3.18,11.15s-2.42,11-3,12.49a143.1,143.1,0,0,0-4.45,17.81c-.82,5.62-1.49,11.22-1.49,11.22l5.31.11s2.74-12.93,4.33-15.86,2.29-11.7,3-13.62,5-15.35,5.93-16.31S204,192.34,199.53,191.49Z"/><g id="Group_10438" data-name="Group 10438"><path id="Path_195049" data-name="Path 195049" class="cls-26" d="M230.5,219.77h-3.69a8.92,8.92,0,0,0-4.59,1.37c-.61.73-2.24,5.3-2.64,5.62s.35.82,1.08.4a1.88,1.88,0,0,0,2.53.81h.07c1.62-1,2.55-2.66,3.42-3.07s5.92-2.58,5.92-2.58S231.79,219.1,230.5,219.77Z"/></g><path id="Path_195051" data-name="Path 195051" class="cls-42" d="M244.67,218a91.75,91.75,0,0,1-12.07,6.22s-.84-4.11-1.66-4.55l8.22-5.68s-6.36-4.35-10.15-7c-.94-.65-1.72-1.19-2.2-1.55l-.37-.27c-1.54-1.22-7.85-9.88-5.48-12.75a11,11,0,0,1,6.5,3.13,50,50,0,0,0,7.58,6.27c1,.67,11.66,8.88,12.11,10.16S248.24,215.45,244.67,218Z"/><path id="Path_195053" data-name="Path 195053" class="cls-43" d="M229.8,219.78a6.12,6.12,0,0,1,1.26,3.22,3.08,3.08,0,0,0,.93-.4,10,10,0,0,0-1.05-2.93S230.87,219.59,229.8,219.78Z"/><path id="Path_195054" data-name="Path 195054" class="cls-43" d="M231.5,220.09c0,.31-.4.58-.89.58s-.89-.27-.89-.58.4-.59.89-.59S231.5,219.76,231.5,220.09Z"/><g id="Group_14450" data-name="Group 14450"><path id="Path_195044" data-name="Path 195044" class="cls-26" d="M219.61,163.63c3.2.44,9.11,2.74,6,15s-10.88,12.24-14.12,7.73S209.33,170,210.6,168A9.68,9.68,0,0,1,219.61,163.63Z"/><path id="Path_195047" data-name="Path 195047" class="cls-26" d="M215.26,190.65a38.51,38.51,0,0,0-.37,4.92c.18.8-6.19,3.06-6.3-5.48,0,0,1.93-6.54,1.1-9.28s5.78,8.09,5.78,8.09S215.37,189.68,215.26,190.65Z"/><path id="Path_195048" data-name="Path 195048" class="cls-44" d="M225,180.62s-2.74-3.64-5.94-4.62-4.28-.37-6.79.69a4.77,4.77,0,0,0-2.64,3.93s-4-10,.93-14.56a11.42,11.42,0,0,1,14.44-.6C227.59,167.66,227.27,174.24,225,180.62Z"/><circle id="Ellipse_552" data-name="Ellipse 552" class="cls-44" cx="212.56" cy="165.27" r="5.07"/><path id="Path_195050" data-name="Path 195050" class="cls-26" d="M206.7,190.54s1.56,9.59,7.37,8.51,1.37-8.11,1.37-8.11S213.48,188.73,206.7,190.54Z"/><path id="Path_195055" data-name="Path 195055" class="cls-26" d="M212.89,175.56a1.18,1.18,0,0,0-1.49-.63,1.16,1.16,0,0,0-.69.8c-.63,1.37,1,5.58,1.85,4.55S213.4,177.19,212.89,175.56Z"/><path id="Path_186936" data-name="Path 186936" class="cls-21" d="M213.23,179.76a1.25,1.25,0,0,1-1.61.75,1.26,1.26,0,1,1,.86-2.37,1.35,1.35,0,0,1,.71.64A1.24,1.24,0,0,1,213.23,179.76Z"/><path id="Path_187886" data-name="Path 187886" class="cls-26" d="M223.06,184.14l-1.1,4.55-2.36-1.37Z"/></g></g></g></g></g></svg>