<svg xmlns="http://www.w3.org/2000/svg" width="283.246" height="131.739" viewBox="0 0 283.246 131.739">
  <g id="Group_5783" data-name="Group 5783" transform="translate(-278.165 -217)">
    <path id="Path_186873" data-name="Path 186873" d="M62.044,337.365h198.7a12.074,12.074,0,0,0,3.721-.578c5.776-1.874,20.2-8.617-2.079-24.861-21.42-15.619-11.6-25.436-33.917-35.7-26.312-12.1-36.791,10.657-57.122,15.173-24.993,5.556-39.272-40.61-60.695-25.882s-7.587,31.686-26.33,39.718c-14.577,6.247-33.207,7.637-34.467,19.283C49.1,331.471,55.049,337.365,62.044,337.365Z" transform="translate(287.009 11.374)" fill="#c9dff5"/>
    <path id="Path_186871" data-name="Path 186871" d="M48.548,86h104.69s13.989-2.8,0-13.289-4.2-15.388-16.787-23.781-22.381-2.8-30.075,4.9-20.284-6.994-31.475.7-4.9,10.492-14.688,14.688c-7.628,3.269-17.378,3.991-18.009,10.1A6.253,6.253,0,0,0,48.548,86Z" transform="translate(235.992 172.249)" fill="#c9dff5"/>
    <path id="Path_186875" data-name="Path 186875" d="M46,69.547h62.927s8.408-1.682,0-7.988-2.523-9.249-10.09-14.294-13.453-1.682-18.077,2.943-12.192-4.2-18.919.42-2.943,6.306-8.829,8.829c-4.585,1.965-10.446,2.4-10.825,6.072A3.759,3.759,0,0,0,46,69.547Z" transform="translate(442.778 172.249)" fill="#c9dff5"/>
  </g>
</svg>
