<svg xmlns="http://www.w3.org/2000/svg" width="65.404" height="42.556" viewBox="0 0 65.404 42.556">
  <g id="noun_Quotation_Marks_19279" data-name="noun_Quotation Marks_19279" transform="translate(-278.942 -394.221)" opacity="0.2">
    <path id="Path_105" data-name="Path 105" d="M278.968,422.256c-.006.168-.026.333-.026.5,0,.057.007.112.009.168,0,.112-.009.223-.009.335l.024-.017A14.01,14.01,0,1,0,294.95,408.9a13.611,13.611,0,0,1,13.034-9.674v-5A29.023,29.023,0,0,0,278.968,422.256Z" transform="translate(0 0)" fill="#fff"/>
    <path id="Path_106" data-name="Path 106" d="M639.5,422.256c-.006.168-.026.333-.026.5,0,.057.009.112.009.168,0,.112-.009.223-.009.335l.026-.017A14.009,14.009,0,1,0,655.482,408.9a13.61,13.61,0,0,1,13.033-9.674v-5A29.022,29.022,0,0,0,639.5,422.256Z" transform="translate(-324.169 0)" fill="#fff"/>
  </g>
</svg>
