<svg xmlns="http://www.w3.org/2000/svg" width="706" height="528" viewBox="0 0 706 528">
  <defs>
    <style>
      .cls-1, .cls-2 {
        isolation: isolate;
      }

      .cls-14, .cls-2 {
        fill: #0d5bb9;
      }

      .cls-2 {
        opacity: 0.1;
      }

      .cls-3, .cls-4 {
        fill: #fed27b;
      }

      .cls-4 {
        opacity: 0.5;
      }

      .cls-4, .cls-7, .cls-8 {
        mix-blend-mode: multiply;
      }

      .cls-5, .cls-7 {
        fill: #ece4da;
      }

      .cls-6 {
        fill: #474463;
      }

      .cls-11, .cls-8 {
        fill: #958fed;
      }

      .cls-8 {
        opacity: 0.4;
      }

      .cls-9 {
        fill: #111640;
      }

      .cls-10 {
        fill: #fcfcfc;
      }

      .cls-12 {
        fill: #2243aa;
      }

      .cls-13 {
        fill: #fff;
      }
    </style>
  </defs>
  <title>Artboard 1</title>
  <g class="cls-1">
    <g id="Layer_1" data-name="Layer 1">
      <g id="Group_10172" data-name="Group 10172">
        <path id="Path_194326" data-name="Path 194326" class="cls-2" d="M25.2,337.6c-8.2,1.3-18.7,5.2-18.6,14.1.1,4.6,3.1,8.5,6.1,11.8a219.1,219.1,0,0,0,42.4,37.4c7.4,5.1,15.5,9.9,20.4,17.8s6.3,17.8,6.7,27.3a210.6,210.6,0,0,1-7.9,66.5c24.4,4.6,51.5,8.7,71.8-5.9,12.2-8.8,20.4-23.5,34-29.6,9-4.1,19.2-3.7,29.1-3.2q70.1,3.8,139.6,13.8c19.5,2.9,39.3,6.1,58.6,2.4s38.1-15.6,45.2-35c1.1-3,2.1-6.3,4.5-8.1s5.1-1.6,7.8-1.5L627.5,451c8.9.3,18.1.6,26.2-3.1s14-10.4,19.9-17c13.3-15.3,27.7-34.1,23.8-54.8-3.2-16.5-17.2-28.1-31.2-36.3s-29.3-14.7-39.5-27.7c-15.6-19.7-15-48-16-73.6a412.9,412.9,0,0,0-8.5-69.1c-4.2-19.9-10.1-39.9-21.1-56.8s-27.8-30.4-46.9-32.9c-24.8-3.2-49.8,12.3-74.1,5.7-20.5-5.5-34.7-25.2-51.7-38.8C378.2,22.4,341.5,17.4,304,16.9c-39.7-.5-83.5,3.5-118.9,22.2-8.1,4.3-16.1,9.4-21.7,17-8.6,11.6-10.7,27.1-16.3,40.6C124.4,151.2,50.5,163,26.5,216.9c-8.5,19.2-8.4,41.5-2.2,61.6C31,300.1,49.7,312,57.2,330.9,49.2,336,35,336,25.2,337.6Z"/>
        <g>
          <path class="cls-3" d="M510.2,461.5l-59.5,2.7-11.3-36.9c-.1-.1-4.9-16.1-4.9-16.1l-7.3-31.1L412,315.4l-4.9-21.2-16,9.2-2.8,1.6-8.8,5s-1,7.9-10.3,13.6-13.1-4.6-13.1-4.6c-7.6,1.6-9.3-6.7-9.3-6.7l8.3-12.1c-5.9.9-11.6-.2-12.3-10l16.9-20.1,7.6-9.1,64.9-28c13.6,10.1,29.2,28.7,45.1,49.3a24.8,24.8,0,0,1,5,15l-.5,87.6Z"/>
          <path class="cls-4" d="M450.7,283.1l-7.9,47.1-14.7-21L412,315.4l-4.9-21.2L379.5,310s-1,7.9-10.3,13.6-13.1-4.6-13.1-4.6c-7.6,1.6-9.3-6.7-9.3-6.7l8.3-12.1c-5.9.9-11.6-.2-12.3-10l16.9-20.1,73.1-24.4Z"/>
          <path class="cls-3" d="M363.5,197.4l-3.9,84.2-18.8,11.5-5.7,9-.9,2-12.6,28.5-.9,2.2-27.8,63H201.7c14-40.4,37.6-80.5,57.3-112.3,6.7-10.9,12.9-20.8,18.1-29.4,4.2-6.9,7.8-13.1,10.4-18.3l8.2-73.6c8.5-35.3,23.8-46.7,24.5-66.7,0-.4-.2-11.5-.1-18.4.1-3.3,2.4-6.1,5.3-6.1,12-.1,15.5,14.6,13.8,31.9v.4l-6.3,46.6.9,7.6,16.5-12.1Z"/>
          <polygon class="cls-5" points="337.2 306.6 324.4 334.6 323.3 336.9 320.7 334.8 307.6 324.4 259 285.5 256 283.1 275 254.4 277.1 256.1 323 294.7 334.2 304.1 337.2 306.6"/>
          <path class="cls-6" d="M327.3,336.9,259.5,528H115.3C135.9,482.9,235.6,311.4,256,283.1l3,2.3,49.2,37,13.4,10.2,2.8,2Z"/>
          <path class="cls-5" d="M312.4,356.5c0,4.2-3,7.6-6.7,7.6s-6.6-3.4-6.6-7.6,2.9-7.6,6.6-7.6S312.4,352.3,312.4,356.5Z"/>
          <polygon class="cls-4" points="363.5 197.4 359.6 281.6 340.8 293.1 335.1 302.1 334.2 304.1 323 294.7 329.5 279 331.5 199.6 324.8 151.9 338.3 102 339.2 105.3 332.9 151.9 333.8 159.5 350.3 147.4 363.5 197.4"/>
          <polygon class="cls-7" points="337.2 306.6 324.4 334.6 321.6 332.6 308.2 322.4 323 294.7 334.2 304.1 337.2 306.6"/>
          <polygon class="cls-8" points="327.3 336.9 259.5 528 250.2 528 286.9 397.8 307.6 324.4 308.2 322.4 321.6 332.6 324.4 334.6 327.3 336.9"/>
          <path class="cls-3" d="M436.6,114.7s30.2,1.6,28.1,18.7-28.1,7.7-28.1,7.7Z"/>
          <g>
            <path class="cls-9" d="M431.8,287.2H346.7c-4.6,0-8.4-4.4-8.4-9.7V89.3c0-5.4,3.8-9.7,8.4-9.7h85.1c4.6,0,8.4,4.3,8.4,9.7V277.5C440.2,282.8,436.4,287.2,431.8,287.2Z"/>
            <path class="cls-10" d="M346.7,269.6a2.9,2.9,0,0,1-2.7-3.1V91.4a2.9,2.9,0,0,1,2.7-3.1h85.1a2.9,2.9,0,0,1,2.7,3.1V266.5a2.9,2.9,0,0,1-2.7,3.1Z"/>
            <path class="cls-11" d="M391.1,83.9a2,2,0,0,1-1.9,2.2,2.2,2.2,0,0,1,0-4.4A2,2,0,0,1,391.1,83.9Z"/>
            <path class="cls-11" d="M371,83.9a.9.9,0,0,1-.9,1H353.3a.9.9,0,0,1-.9-1,1,1,0,0,1,.9-1h16.8a1,1,0,0,1,.9,1Z"/>
            <ellipse class="cls-3" cx="392" cy="175.4" rx="30" ry="31.2"/>
            <path class="cls-12" d="M344.5,269.1a4,4,0,0,1-1-2.6V91.4a3.4,3.4,0,0,1,3.2-3.6h85.1a3.2,3.2,0,0,1,2.2,1l-.7.8a1.9,1.9,0,0,0-1.5-.7H346.7a2.4,2.4,0,0,0-2.2,2.5V266.5a2.4,2.4,0,0,0,.7,1.8Z"/>
            <g>
              <path class="cls-3" d="M399.3,181.1c0,3.7-2.8,6.7-6.1,6.7a6.7,6.7,0,0,1,0-13.4C396.5,174.4,399.3,177.4,399.3,181.1Z"/>
              <path class="cls-13" d="M397.1,156.2a9.3,9.3,0,0,0-12.8-3.3l-1.3.8a9.9,9.9,0,0,0-3.2,13.2l2.1,4h4.6L383,165a5.9,5.9,0,0,1,1.9-8l1.3-.8a5.4,5.4,0,0,1,7.7,2l2.8,4.8,3.1-1.9Z"/>
              <path class="cls-13" d="M379.2,170.3v10.2a12.4,12.4,0,0,0,12.2,12.7h2.5a12.5,12.5,0,0,0,12.2-12.7V170.3Zm10.9,7.2a2.6,2.6,0,0,1,2.5-2.6,2.5,2.5,0,0,1,2.4,1.8,1.9,1.9,0,0,1,.1.8,2.5,2.5,0,0,1-1.4,2.3v6.3h-2.2v-6.3A2.7,2.7,0,0,1,390.1,177.5Z"/>
            </g>
          </g>
          <path class="cls-3" d="M440.2,161.6s-10.3,15.1,0,26.3v4.2s-14.8,11.5,0,26.5V243s12.2-.3,12.8-11.5-8.7-12.1-8.7-12.1,10.8.8,10.2-17.9c-.2-4.1-2.9-10.2-7.4-10.7,0,0,8.9-.2,9.1-10.8a59.4,59.4,0,0,0-2.3-16.9,9.6,9.6,0,0,0-4.4-5.9l-9.3-5.4Z"/>
          <path class="cls-3" d="M438.4,398c-2.2,7.9-3.9,13.2-3.9,13.2s-16.9-15.1-24.2-37.9a82.6,82.6,0,0,1-2.4-10.1c0-.4-.1-.7-.1-1a6.8,6.8,0,0,1-.2-1.4l-.3-2.3c-.5-6.4.5-13.6-.7-21.5-2-13.2-10.6-22.2-18.3-32-4.8-6-9.2-12.3-11.6-20a49.2,49.2,0,0,1-1.4-5.5c-1.8-8.7,2.5-19.3,16.5-16.5s25.3,25.4,29.6,33.9,12.6,23.7,23.5,35.7C452.8,341.2,444,377.9,438.4,398Z"/>
          <polygon class="cls-5" points="504.5 428.9 442.6 468.6 432.8 430.9 488.2 400.4 504.5 428.9"/>
          <polygon class="cls-6" points="558 528 448.1 528 435.7 467.1 501.2 421.1 558 528"/>
          <path class="cls-5" d="M462.6,482.1c0,4.2-3,7.6-6.7,7.6s-6.6-3.4-6.6-7.6,3-7.6,6.6-7.6S462.6,477.9,462.6,482.1Z"/>
          <path class="cls-4" d="M450.7,421l-11.3,6.3c-.1-.1-4.9-16.1-4.9-16.1s-16.9-15.1-24.2-37.9a98.2,98.2,0,0,1-2.4-10.1c0-.4-.1-.7-.1-1a6.8,6.8,0,0,1-.2-1.4l-.3-2.3c-.5-6.4.5-13.6-.7-21.5-2-13.2-10.6-22.2-18.3-32-4.8-6-9.2-12.3-11.6-20a156.1,156.1,0,0,1,14.4,18.4c6.4,9.1,12.7,18.6,20.4,26.8a112.6,112.6,0,0,0,15.7,49.9,143.7,143.7,0,0,0,8.5,12.9l2.7,5Z"/>
          <polygon class="cls-8" points="450.7 421 461.4 449 441.2 463.2 432.8 430.9 450.7 421"/>
          <polygon class="cls-8" points="461.4 449 488.5 528 448.1 528 435.7 467.1 461.4 449"/>
        </g>
        <rect id="Rectangle_7193" data-name="Rectangle 7193" class="cls-14" x="12.6" y="523" width="681.1" height="5"/>
      </g>
    </g>
  </g>
</svg>
