<svg id="Layer_1" data-name="Layer 1" xmlns="http://www.w3.org/2000/svg" xmlns:xlink="http://www.w3.org/1999/xlink" width="706" height="528" viewBox="0 0 706 528">
  <defs>
    <style>
      .cls-1, .cls-14, .cls-15, .cls-16 {
        fill: #0d5bb9;
      }

      .cls-1, .cls-13, .cls-26, .cls-3 {
        opacity: 0.1;
      }

      .cls-1, .cls-14, .cls-15, .cls-20, .cls-26, .cls-3, .cls-33 {
        isolation: isolate;
      }

      .cls-2 {
        fill: #d2d4de;
      }

      .cls-4 {
        fill: #30374e;
      }

      .cls-5 {
        fill: #dfe3ef;
      }

      .cls-26, .cls-6 {
        fill: #fff;
      }

      .cls-7 {
        fill: url(#linear-gradient);
      }

      .cls-8 {
        fill: #65617d;
      }

      .cls-9 {
        fill: #fbbebe;
      }

      .cls-10 {
        fill: #e7effd;
      }

      .cls-11 {
        fill: #3f3d56;
      }

      .cls-12 {
        fill: #e3a79f;
      }

      .cls-14 {
        opacity: 0.2;
      }

      .cls-15 {
        opacity: 0.5;
      }

      .cls-17 {
        fill: url(#linear-gradient-2);
      }

      .cls-18 {
        fill: #2d293d;
      }

      .cls-19 {
        fill: #575988;
      }

      .cls-20, .cls-21 {
        opacity: 0.05;
      }

      .cls-22 {
        fill: #ffcdd3;
      }

      .cls-23 {
        fill: #dce6f2;
      }

      .cls-24 {
        fill: #656691;
      }

      .cls-25 {
        fill: #444053;
      }

      .cls-27, .cls-31, .cls-32 {
        fill: none;
        stroke-miterlimit: 10;
      }

      .cls-27 {
        stroke: #444053;
      }

      .cls-28 {
        fill: #efb7b9;
      }

      .cls-29 {
        fill: #925978;
      }

      .cls-30 {
        fill: #4c4981;
      }

      .cls-31, .cls-32 {
        stroke: #535461;
      }

      .cls-32 {
        stroke-width: 2px;
      }

      .cls-33 {
        opacity: 0.25;
      }
    </style>
    <linearGradient id="linear-gradient" x1="-142.44" y1="761.54" x2="-142.44" y2="762.98" gradientTransform="matrix(63.24, 0, 0, -133.32, 9637.71, 102036.97)" gradientUnits="userSpaceOnUse">
      <stop offset="0" stop-color="gray" stop-opacity="0.25"/>
      <stop offset="0.54" stop-color="gray" stop-opacity="0.12"/>
      <stop offset="1" stop-color="gray" stop-opacity="0.1"/>
    </linearGradient>
    <linearGradient id="linear-gradient-2" x1="-142.91" y1="761.96" x2="-142.91" y2="763.07" gradientTransform="matrix(71.2, 0, 0, -143.92, 10696.02, 109942.6)" xlink:href="#linear-gradient"/>
  </defs>
  <title>Artboard 1</title>
  <g id="Group_10160" data-name="Group 10160">
    <g id="undraw_data_trends_b0wg" data-name="undraw data trends b0wg">
      <path id="Path_193999" data-name="Path 193999" class="cls-1" d="M369.1,100.8c-42.2,7.8-84.4,3.6-125.1-2.2S162.7,85.4,120.4,86.8c-27.1,1-57.4,6.9-76.2,25s-20.7,41.3-20.5,62.8c.1,16.2,1.5,33,11.4,46.1,6.9,9,17.5,15.6,25.5,24,27.7,29.1,19.9,74.2,2.3,112.4-8.3,17.9-18.4,35.5-24,53.9s-6.1,38.1,4.4,53.4,30.2,23.8,50.8,28.4c41.9,9.5,88.4,4.6,133.4-2.2,99.5-15.1,197.9-39.5,296-63.9,36.4-9,72.8-18.1,107.8-31.4,19.4-7.3,39.1-16.6,51.6-31.2,15.7-18.6,15.9-44.2.3-59.8-26.1-26.1-84.6-21.2-104.9-50.9-11.2-16.3-6.7-38.3,1.9-57.6,18.3-41.4,54.2-82.1,49-123.7-3.5-28.5-28.5-52.5-61.8-59.1-34.9-6.9-79.4,4.7-99.2,33.1S406.4,93.9,369.1,100.8Z"/>
      <ellipse id="Ellipse_746" data-name="Ellipse 746" class="cls-1" cx="453.4" cy="514" rx="228.7" ry="11.3"/>
      <path id="Path_194030" data-name="Path 194030" class="cls-2" d="M448.7,497.6v5.2H299.1v-4.3c18.7-7.1,31.3-25.2,32.1-45.8s-10.6-39.6-28.7-48.2H447.7a50.7,50.7,0,0,0-27.2,33.8,51.3,51.3,0,0,0,28.2,59.3Z"/>
      <path id="Path_194031" data-name="Path 194031" class="cls-3" d="M447.7,407.5a50.9,50.9,0,0,0-27.2,33.8H329.7a50.4,50.4,0,0,0-27.2-33.8Z"/>
      <path id="Path_194032" data-name="Path 194032" class="cls-2" d="M127.9,381v29.4c0,16.3,11.4,29.4,25.6,29.4H593.6c14.1,0,25.6-13.1,25.6-29.4V381Z"/>
      <path id="Path_194033" data-name="Path 194033" class="cls-3" d="M448.7,497.6v5.2H299.1v-4.3a46.6,46.6,0,0,0,11.6-6.3H439.6A52,52,0,0,0,448.7,497.6Z"/>
      <path id="Rectangle_7154" data-name="Rectangle 7154" class="cls-2" d="M257.5,493.8H490.4a7.8,7.8,0,0,1,7.8,7.8h0a7.7,7.7,0,0,1-7.8,7.7H257.5a7.7,7.7,0,0,1-7.8-7.7h0A7.8,7.8,0,0,1,257.5,493.8Z"/>
      <path id="Path_194034" data-name="Path 194034" class="cls-4" d="M619.2,70.5c0-14.7-11.5-26.5-25.6-26.5H153.5c-14.2,0-25.6,11.8-25.6,26.5v328H619.2Z"/>
      <path id="Path_194035" data-name="Path 194035" class="cls-5" d="M605.8,82.3V364.2a12.9,12.9,0,0,1-12.6,13.1H153.9a12.4,12.4,0,0,1-8.9-3.9,13.3,13.3,0,0,1-3.7-9.2V82.3a12.8,12.8,0,0,1,3.7-9.2,12.3,12.3,0,0,1,8.9-3.8H593.2A12.8,12.8,0,0,1,605.8,82.3Z"/>
      <ellipse id="Ellipse_750" data-name="Ellipse 750" class="cls-6" cx="373.5" cy="56.6" rx="5.9" ry="6.1"/>
      <ellipse id="Ellipse_751" data-name="Ellipse 751" class="cls-6" cx="373.5" cy="419.5" rx="14.6" ry="15.1"/>
      <path id="Path_194036" data-name="Path 194036" class="cls-6" d="M605.8,82.3H141.3a12.8,12.8,0,0,1,3.7-9.2,12.3,12.3,0,0,1,8.9-3.8H593.2a12.3,12.3,0,0,1,8.9,3.8A13.3,13.3,0,0,1,605.8,82.3Z"/>
      <ellipse id="Ellipse_752" data-name="Ellipse 752" class="cls-5" cx="153.9" cy="75.8" rx="3.2" ry="3.3"/>
      <ellipse id="Ellipse_753" data-name="Ellipse 753" class="cls-5" cx="163.3" cy="75.8" rx="3.2" ry="3.3"/>
      <ellipse id="Ellipse_754" data-name="Ellipse 754" class="cls-5" cx="172.8" cy="75.8" rx="3.2" ry="3.3"/>
      <rect id="Rectangle_7155" data-name="Rectangle 7155" class="cls-6" x="185" y="112.9" width="374.9" height="226.93"/>
      <g>
        <path id="Path_194037" data-name="Path 194037" class="cls-7" d="M674.2,378.5A11.2,11.2,0,0,0,673,375c0-.1-1.3-1.7-1.3-2.6s-1.9-2.8-1.9-2.8a4.5,4.5,0,0,1-2.7-3.3c-.3-2.3-3-2.4-3-2.4h0v-.5a8.3,8.3,0,0,0-.3-2.7,3.2,3.2,0,0,0-1.6-1.4,6.3,6.3,0,0,0-.8-2.3,2.6,2.6,0,0,1-.6-2.5c.2-.9-.4-3.1-1.7-3.4l-2.8-.8h-1.5a1.3,1.3,0,0,1-.8-.3,19.8,19.8,0,0,0-4.7-1.5,7.9,7.9,0,0,1-2.6-.8l-1.9-1.6a8.1,8.1,0,0,1-1.7-2.4h0l-.5-1.2h0a8.1,8.1,0,0,0,1.7-2.4l.2-.2h.4a1.9,1.9,0,0,0,.9-1.2h0a.4.4,0,0,0,.1-.3h0v-.2h0v-.6h0c.1-.3.1-.7.2-1h0a14.7,14.7,0,0,1,1.5-3.4h0c.1-.2.1-.4.2-.6l.2-.5v-.6c.1-.1.1-.1,0-.2s.1-.4.1-.6a6.9,6.9,0,0,0-.4-3.2c-.4-.9-.9-1.7-1.2-2.5s-.7-2.8-1.3-4.1a4.6,4.6,0,0,0-5.6-2.3c-1,.3-1.8,1.1-2.8,1.4a8.1,8.1,0,0,1-4.1-.1,5.1,5.1,0,0,0-4,.7c-1.3,1.1-1.6,3.1-2.8,4.3s-1.1.8-1.7,1.3a2.1,2.1,0,0,0-.8,1.1h0v.2h0v.2h0v.3h0v.2h0v.2h0a4.9,4.9,0,0,1,.4,1.1.9.9,0,0,1,0,.7,1.8,1.8,0,0,1-.5.7,9.4,9.4,0,0,0-2,3.3l-.2.5h1.9l.9-.3v.4a10.9,10.9,0,0,0,5.9,9.8v.6h-.2s-.8-.4-1.5.8a5.2,5.2,0,0,1-2.2,1.7s-8.2,1.4-8.5,2.5l-3.8.2s-1.4.2-1.5,3.1-.9,3.2-.9,3.2a12.8,12.8,0,0,0-1.4,4.3,2.4,2.4,0,0,1-1.2,2.2l-.2,2.7a1.9,1.9,0,0,0-1.3.3,2.7,2.7,0,0,0-.6,1.2,6.4,6.4,0,0,1-1.1,2.7s-2.5,2.1-2.6,3.9l-1.5,1s-3.6-.9-4.4-2.3l-.2-.3h0l-1.5-1.3a.9.9,0,0,1,0,.7l-.2-.3-.5-.9s-5.2-6.3-8.6-6.7h0a2.3,2.3,0,0,0-1.5,1.5c-.4,1.5-.9,4,.2,5.2l5.4,5.9h.1l1.1,1.5c-.2.5-.3,1-.5,1.4h0v.3h0v.2c0,.1,0,.1-.1.2h0a8.9,8.9,0,0,0-.2,1.1h.3c1.5.7,9.4,4.3,9.8,4.8a5.5,5.5,0,0,0,6.1.9,7,7,0,0,0,3.3-3.7c.9-1.4,1.8-2.8,2.6-4.2s2.1-1.2,2.1-1.2.2,6.2-.8,8.4-3,12.3-3,12.3h.4v.6h.5c-.2,1.1-1,6.4-1,6.4a19.4,19.4,0,0,1-.7,3.3,17.3,17.3,0,0,0-.5,5.1l-.8,3.2.3.5h0a8.3,8.3,0,0,0,2.1,2.8,10.3,10.3,0,0,1-.4,1.4,4.2,4.2,0,0,0-.3,2.2,23.2,23.2,0,0,0-.7,4.6,19.7,19.7,0,0,1-.5,3.5l-.9,8a88.1,88.1,0,0,0-.2,8.9,21.6,21.6,0,0,1-.2,4.4s.5,5.5.4,6.1a10.3,10.3,0,0,0-.4,4.6,24.4,24.4,0,0,1,.2,5.4,58.4,58.4,0,0,0,.6,6.8,16,16,0,0,1-.1,3.8c-.1,1.2-.3,2.4-.5,3.5s-1.3,2.5,1.1,4.9.9,2,.9,2-1.9-.9-1.7,1,.5,1.4.5,1.4l-.4,1.5h.3l-.3.4-.9.9a3.5,3.5,0,0,0-.6,1.4,34.3,34.3,0,0,1-6.4,5.6,23.1,23.1,0,0,0-3.6,2.5c-.6.7-.5,1.2.7,1.6a16.9,16.9,0,0,0,9.7.1,11.7,11.7,0,0,0,4.8-3.1,7,7,0,0,1,3.8-.7c1.9.4,5.6-2.2,5.6-2.2v-.6l-.2-1.9a1.1,1.1,0,0,1-.3-1.1,8.8,8.8,0,0,0-.2-1.7,4.3,4.3,0,0,0-.1-.5h.3s-.4-2.4.4-2.8.6-6.5.6-6.5a8.1,8.1,0,0,0-1.6-1.6c-.5-.3,0-3.1,0-3.5s.9-7.5.9-7.5a9.2,9.2,0,0,1,.1-3.3,19.3,19.3,0,0,0-.5-4.7,1,1,0,0,1,.2-1c.5-.5.3-5.5.3-5.5V456a12.6,12.6,0,0,1,1-3.8,7,7,0,0,0,.2-3.2h0v-.7a25.9,25.9,0,0,1,.9-4c.6-2,1.2-5.4,1.2-5.4l4.2-11.3h0a17.5,17.5,0,0,1,1.9,7.1,31.2,31.2,0,0,1,.4,5.2c0,2.2.2,4.3.4,6.4s.6,7.4.6,7.8a55,55,0,0,0,1.1,6.9c.5.9-.4,3.6-.7,3.9a54.5,54.5,0,0,0,.1,7s-.7,5.4-.8,6.5a23.5,23.5,0,0,0-.2,7c.4,1.7.3,1.9.3,1.9s1.6,1.7.6,1.9a2.2,2.2,0,0,0-1.6,1.2,2.6,2.6,0,0,0-.2,2.1c.6,1.7,1.3,3.4,2,5l.8-.2v3.3a17.7,17.7,0,0,1,.2,3.2,17.1,17.1,0,0,0-.4,3.6c0,.3-.1.5-.1.7s0,2.4,5,1.7,5.9-2.8,5.9-2.8v-.2a13.8,13.8,0,0,1,.3-2c.2-.8-1.4-4.1-1.4-4.1a8.9,8.9,0,0,0-.7-2.8,3.6,3.6,0,0,1-.4-.9,1.3,1.3,0,0,0-.1-.6h.3s-.2-1.7.8-2.2a1.5,1.5,0,0,0,.6-2c.1-1,.2-2.1.4-3.1a1.5,1.5,0,0,1,.4-1.4c.6-.7,1.1-5.2,1.1-5.2V465a15.5,15.5,0,0,0,0-4.3c-.4-1.2-.7-3.6-.3-4.3s.1-3.6.1-3.6,0-6.4.7-8,.4-11.5.4-11.5l.2-6.5s1.5-1.4,1.1-8.9a10.9,10.9,0,0,1,3.6.1c.5.4,3.7,2.5,5.6,1.2l2.2-1.8-.8-13.9.8,1.3c0-1.9,5.3-8.2,5.3-8.2,1.9-2.6,3.9-5,6-7.4,1.1-.8,3.2-4.9,3.2-4.9a16.3,16.3,0,0,1,1.1-2.3C675.6,381.2,674,379,674.2,378.5Zm-11.6,4.8c-1.3.2-4.1,3.3-4.2,4a3.1,3.1,0,0,1-.6,1.3,2.8,2.8,0,0,0-.1-.9c-.3-4.1-.6-9.1-.5-9.5a36.2,36.2,0,0,0,.2-4.6h0a22.5,22.5,0,0,0,3.8,6.3s.4,1.5,1,1.6S662.6,383.3,662.6,383.3Z"/>
        <path id="Path_194038" data-name="Path 194038" class="cls-8" d="M590.7,386.9s1.6-8.9,6.9-9l3.8,8.2-2.5,1.9S593.3,388.1,590.7,386.9Z"/>
        <path id="Path_194039" data-name="Path 194039" class="cls-3" d="M601.4,386.1l-2.5,1.9a37.1,37.1,0,0,1-6.7-.6l-1.5-.5v-.2a17,17,0,0,1,1-3.2,11.2,11.2,0,0,1,.5-1.3,8.1,8.1,0,0,1,3.4-3.7,3.4,3.4,0,0,1,1.7-.5h.2v.2l1.3,2.7Z"/>
        <path id="Path_194040" data-name="Path 194040" class="cls-8" d="M645.1,422.2s5.5-.6,6-.2,3.7,2.6,5.5,1.2.6-5.9.6-6.1-.1-6.8-.1-6.8l-3.4-4.6-4.1-8.1-8.5-.9.2,12.9v6.6Z"/>
        <path id="Path_194041" data-name="Path 194041" class="cls-3" d="M645.1,422.2s5.5-.6,6-.2,3.7,2.6,5.5,1.2.6-5.9.6-6.1-.1-6.8-.1-6.8l-3.4-4.6-4.1-8.1-8.5-.9.2,12.9v6.6Z"/>
        <path id="Path_194042" data-name="Path 194042" class="cls-9" d="M596.4,377.9s-.4,5.5-3.8,5.6l-2.2-1.6c-2.9-2.2-7.6-6.6-6.3-10.7,1.8-5.9,10.9,4.9,10.9,4.9l.6.8Z"/>
        <path id="Path_194043" data-name="Path 194043" class="cls-3" d="M596.4,377.8s-.4,5.6-3.8,5.7l-2.2-1.6-.3-.4a4.1,4.1,0,0,0,1.9.5,2.5,2.5,0,0,0,2.4-1.5l.9-2.3a6.5,6.5,0,0,0,.4-1.3Z"/>
        <path id="Path_194044" data-name="Path 194044" class="cls-10" d="M595,387.8l-.7-1-2.6-3.4-1.3-1.7a4.1,4.1,0,0,0,1.9.5,2.6,2.6,0,0,0,2.4-1.6l.9-2.2c.4-1.2.4-1.9.2-2.1a6.7,6.7,0,0,1,1.5,1.4h0l.3.2v.2l1.3,2.7h0C599.1,381.7,599.5,387.1,595,387.8Z"/>
        <path id="Path_194045" data-name="Path 194045" class="cls-8" d="M621.5,501.1s-3.7,2.6-5.6,2.2a5.9,5.9,0,0,0-3.7.6,10.7,10.7,0,0,1-4.7,3.2,16.5,16.5,0,0,1-9.6-.2c-1.1-.4-1.2-.9-.7-1.5a17.8,17.8,0,0,1,3.6-2.5,33.7,33.7,0,0,0,6.3-5.6,2,2,0,0,1,.6-1.3l.9-1,.9-1.2,10.9.4a15.5,15.5,0,0,1,.3,1.6,5,5,0,0,1,.2,1.7,1.1,1.1,0,0,0,.3,1.1l.2,1.9Z"/>
        <path id="Path_194046" data-name="Path 194046" class="cls-8" d="M644.4,504.3a14.2,14.2,0,0,0-.4,2v.2s-.8,2.1-5.8,2.8-4.9-1.7-4.9-1.7a2,2,0,0,1,.1-.7c0-1.1.2-2.3.3-3.5a11.6,11.6,0,0,0-.1-3.2v-4.6l8.1-.9a6.3,6.3,0,0,0,.3,1.9,1.6,1.6,0,0,0,.3.9,8.9,8.9,0,0,1,.7,2.8A13.6,13.6,0,0,1,644.4,504.3Z"/>
        <path id="Path_194047" data-name="Path 194047" class="cls-3" d="M620.4,494.2l.4,1.6c-1.2.2-6.4,1.2-7.7.5a23.7,23.7,0,0,0-4.6-1.1V495l.9-1.2Z"/>
        <path id="Path_194048" data-name="Path 194048" class="cls-3" d="M641.9,496.6c-2.1-.4-6.6.5-8.4.8v-1.9l8.2-.8A13.7,13.7,0,0,0,641.9,496.6Z"/>
        <path id="Path_194049" data-name="Path 194049" class="cls-11" d="M646.5,427.1l-.2,6.4s.2,9.9-.4,11.5-.7,7.8-.7,7.8.5,3,0,3.6-.2,3.1.2,4.3a15.5,15.5,0,0,1,0,4.3v17.3s-.4,4.5-1.1,5.2a1.4,1.4,0,0,0-.3,1.4,15.4,15.4,0,0,0-.4,3,1.7,1.7,0,0,1-.6,2.1c-1.1.5-.8,2.1-.8,2.1-2.4-.6-9.3,1-9.3,1a50.5,50.5,0,0,1-2-4.9,2.6,2.6,0,0,1,.2-2.1,2.6,2.6,0,0,1,1.6-1.3c.9-.1-.7-1.8-.7-1.8s.2-.2-.3-1.9a26.6,26.6,0,0,1,.3-6.9l.8-6.4a56.1,56.1,0,0,1-.1-7.1c.2-.3,1.1-2.9.7-3.8a41.6,41.6,0,0,1-1.2-6.9c0-.3-.5-7.8-.5-7.8a46.8,46.8,0,0,1-.4-6.2c-.1-1.8-.2-3.5-.4-5.2a16.6,16.6,0,0,0-1.9-7h0l-4.2,11.2a49.1,49.1,0,0,1-1.2,5.2c-.3,1.4-.6,2.7-.8,4v.7h0a8.5,8.5,0,0,1-.2,3.2,10.2,10.2,0,0,0-1,3.8v3.1s.2,4.9-.3,5.4a.8.8,0,0,0-.2,1,15,15,0,0,1,.4,4.7,11.6,11.6,0,0,0-.1,3.2s-.7,7.1-.8,7.5-.5,3.2,0,3.4a7.5,7.5,0,0,1,1.5,1.6s.3,6-.5,6.5-.4,2.8-.4,2.8-6.4,1.3-7.9.5a22.1,22.1,0,0,0-4.6-1.1l.5-1.5s-.3.5-.6-1.4,1.7-1,1.7-1,1.4.4-.9-2a3.9,3.9,0,0,1-1-4.8c.2-1.1.3-2.3.4-3.5a12,12,0,0,0,.1-3.8c-.3-1.6-.6-6.8-.6-6.8a22.6,22.6,0,0,0-.1-5.2,10.2,10.2,0,0,1,.4-4.6c.1-.6-.4-6.1-.4-6.1a16.1,16.1,0,0,0,.1-4.4,87.2,87.2,0,0,1,.3-8.8l.8-7.9a21.1,21.1,0,0,0,.5-3.5,36.2,36.2,0,0,1,.6-4.6,5.7,5.7,0,0,1,.4-2.2,12.7,12.7,0,0,0,.6-3.9l4.3-10.1,2-8.9,28.1-.2.3,2.1c.2,1.4.4,3.5.7,6.1s.5,5,.7,8.1C648.3,425.4,646.5,427.1,646.5,427.1Z"/>
        <path id="Path_194050" data-name="Path 194050" class="cls-9" d="M643.9,352.3l-6.6,7.3s-8.4-3.6-7.5-4.7a7,7,0,0,0,.1-3.5,53.8,53.8,0,0,0-1-5.5s14.7-2.5,13.5.1a3.9,3.9,0,0,0-.1,3A10.1,10.1,0,0,0,643.9,352.3Z"/>
        <path id="Path_194051" data-name="Path 194051" class="cls-3" d="M642.4,346.1c-.5,1-.7,1.1-.4,2.1-1.9,2.1-4.4,4.4-7.4,4.4a11.2,11.2,0,0,1-4.7-1.1,53.8,53.8,0,0,0-1-5.5S643.6,343.6,642.4,346.1Z"/>
        <path id="Path_194052" data-name="Path 194052" class="cls-9" d="M645.1,341.5a11,11,0,0,1-5.2,9.8,10.3,10.3,0,0,1-10.7,0,11,11,0,0,1-5.1-9.8h0a10.5,10.5,0,0,1,21-.1v.2Z"/>
        <path id="Path_194053" data-name="Path 194053" class="cls-3" d="M646.6,411.8h-13c-6.2.1-12.2-1.2-14.7-.9-5.1.5,1.9-4.9,1.9-4.9a46.4,46.4,0,0,0,11.8,1.2h1.5a59.6,59.6,0,0,0,11.9-1.5C646.1,407.2,646.4,409.2,646.6,411.8Z"/>
        <path id="Path_194054" data-name="Path 194054" class="cls-12" d="M646.6,411.5h-13c-6.2.1-12.2-1.1-14.7-.8-5.1.5,1.9-5,1.9-5a38.9,38.9,0,0,0,11.8,1.2h1.5a79,79,0,0,0,11.9-1.5C646.1,406.9,646.4,408.9,646.6,411.5Z"/>
        <path id="Path_194055" data-name="Path 194055" class="cls-3" d="M631.8,354.2l-8.1,4-6.4,50.3s3.8-1.8,5.9-.7,8.6.1,8.6.1,4.8-.2,5.5.3,9.1-2.3,9.1-2.3,1.5-3.5.3-4,.4-6,.4-6l-.7-36.2-1.5-4.7-3.8-2.4-3.8,3.2-1.9.3Z"/>
        <path id="Path_194056" data-name="Path 194056" class="cls-10" d="M631.8,353.7l-8.1,3.9L617.4,408s3.7-1.8,5.8-.7,8.7.1,8.7.1,4.8-.3,5.5.3,9-2.3,9-2.3,1.5-3.5.4-4,.3-6,.3-6l-.7-36.3-1.4-4.7-3.8-2.3-3.9,3.2-1.9.2Z"/>
        <path id="Path_194057" data-name="Path 194057" class="cls-3" d="M631.6,355.9s2.4,2.9,2.3,3.5-.1,2-.1,2l-1.8,3.7s-.9,4.7-.9,5.6-1.6,9.3-1.6,9.3l-1.9,12.8-2.3,16.9,2.4,4.2,2.8-2.5,3.8-29.9.8-5.9s.8-10.6.8-11.7a25.7,25.7,0,0,0-.5-4,4.7,4.7,0,0,1,3-3.4c2.4-.7-.2-.2-.2-.2l-1.3-1.1-1.2.5S632.3,354.6,631.6,355.9Z"/>
        <path id="Path_194058" data-name="Path 194058" class="cls-11" d="M631.4,355.6s2.3,2.9,2.3,3.5-.2,2.1-.2,2.1l-1.7,3.7s-1,4.6-1,5.6-1.6,9.3-1.6,9.3l-1.8,12.8L625,409.4l2.4,4.3,2.9-2.5,3.7-30,.8-5.9s.9-10.6.9-11.7-.3-2.7-.5-4a4.7,4.7,0,0,1,3-3.4c2.3-.6-.2-.1-.2-.1l-1.4-1.2-1.2.5S632.1,354.3,631.4,355.6Z"/>
        <path id="Path_194059" data-name="Path 194059" class="cls-3" d="M629.8,352s-.3.3-.4,2.1A29.8,29.8,0,0,1,628,360s4.6-3.3,6.9-2.9Z"/>
        <path id="Path_194060" data-name="Path 194060" class="cls-10" d="M629.8,351.4s-.3.3-.4,2.1a29.2,29.2,0,0,1-1.4,6s4.6-3.3,6.9-2.9Z"/>
        <path id="Path_194061" data-name="Path 194061" class="cls-3" d="M642.4,350.5l-7.3,6.6a63.6,63.6,0,0,1,6.9,4.6c.8.9,1.6-8.9,1.6-8.9Z"/>
        <path id="Path_194062" data-name="Path 194062" class="cls-10" d="M642.6,349.9l-7.2,6.6c2.4,1.5,4.7,3,6.9,4.7s1.6-9,1.6-9Z"/>
        <path id="Path_194063" data-name="Path 194063" class="cls-3" d="M630.1,350.6s-.8-.5-1.6.7a5.2,5.2,0,0,1-2.1,1.8s-8.1,1.3-8.4,2.4l-3.8.3s-1.3.1-1.4,3-.9,3.2-.9,3.2a12.8,12.8,0,0,0-1.4,4.3,2.3,2.3,0,0,1-1.2,2.2l5.6,14.9s.1,6.2-.9,8.4-2.9,12.2-2.9,12.2.8-.2.7.3-.9,6.6-.9,6.6a18.3,18.3,0,0,1-.7,3.2,17.7,17.7,0,0,0-.5,5.1l-.7,3.1s1.7,3.9,4.2,3.4,7.2-11,7.2-11l3-11.2,2.3-11.1.7-7.5,1-16.6,1.6-11S630.7,351.3,630.1,350.6Z"/>
        <path id="Path_194064" data-name="Path 194064" class="cls-8" d="M629.8,350s-.8-.4-1.5.8a5.5,5.5,0,0,1-2.2,1.8s-8.1,1.3-8.4,2.4l-3.7.2s-1.3.2-1.5,3.1-.8,3.1-.8,3.1a9.9,9.9,0,0,0-1.4,4.3,2.9,2.9,0,0,1-1.2,2.3l5.5,14.8s.2,6.2-.9,8.4-2.9,12.2-2.9,12.2.8-.2.8.4-1,6.5-1,6.5a16.5,16.5,0,0,1-.7,3.2,22.4,22.4,0,0,0-.5,5.2l-.7,3.1s1.7,3.9,4.2,3.3,7.3-10.9,7.3-10.9l2.9-11.2,2.3-11.1.7-7.6,1-16.6,1.6-11S630.5,350.8,629.8,350Z"/>
        <path id="Path_194065" data-name="Path 194065" class="cls-3" d="M601.4,386.1l-2.5,1.9a37.1,37.1,0,0,1-6.7-.6l-1.5-.7h0a5.6,5.6,0,0,0,3.6.1c3.6-1.2,3.2-7.5,3.1-8.8v-.3h0c0,.1.1.1.1.2l.2.2h0l1.3,2.6v.2Z"/>
        <path id="Path_194066" data-name="Path 194066" class="cls-8" d="M610.3,368.2l-1.2.4-.2,2.6a1.8,1.8,0,0,0-1.9,1.6h0a5.4,5.4,0,0,1-1.1,2.6s-2.4,2.1-2.5,3.9l-1.5,1s-3.5-.9-4.3-2.3,1.6,11.8-6.9,8.9c0,0,9.5,4.3,10,4.9a5.5,5.5,0,0,0,6,.9,6.5,6.5,0,0,0,3.2-3.7,38.7,38.7,0,0,0,2.7-4.3c.1-.5,2-1.2,2-1.2l3.8-9.5Z"/>
        <path id="Path_194067" data-name="Path 194067" class="cls-3" d="M641.4,354.6l1.2-6a9,9,0,0,0,1.2,2.4l1.9,1.5a11.4,11.4,0,0,0,2.6.9,14.6,14.6,0,0,1,4.6,1.5c.5.5,2.2.1,2.2.1l2.8.9c1.3.3,1.9,2.5,1.6,3.3a2.5,2.5,0,0,0,.7,2.5,8.5,8.5,0,0,1,.8,2.4,2.5,2.5,0,0,1,1.4,1.3,11.2,11.2,0,0,1,.4,3.2l-6.6,9.6a33.9,33.9,0,0,1-.2,4.5c-.3.9.9,14.9.9,14.9l1.4,24.1a18.4,18.4,0,0,1-2.2,1.7c-.4.2-.8-8.5-.8-8.8s-10.2-15.8-10.2-15.8a14.7,14.7,0,0,1-1.4-2.8c0-.5-1.3-5.1-1.3-5.1l-1.9-9Z"/>
        <path id="Path_194068" data-name="Path 194068" class="cls-8" d="M663.3,368.1v.5l-6.6,9.6h0a22.6,22.6,0,0,1-.2,4.5c-.1.5.2,5.4.5,9.5s.5,5.4.5,5.4l.5,10.2.8,13.9a18.4,18.4,0,0,1-2.2,1.7c-.4.2-.8-8.5-.8-8.8s-10.2-15.8-10.2-15.8a24.4,24.4,0,0,1-1.4-2.8c0-.5-1.2-5.1-1.2-5.1l-2-9,.9-27.3.7-6a20.7,20.7,0,0,0,1.7,2.4l1.9,1.5a11.4,11.4,0,0,0,2.6.9,13.6,13.6,0,0,1,4.7,1.5c.4.5,2.2.1,2.2.1l2.7.8c1.3.3,1.9,2.5,1.6,3.4a2.9,2.9,0,0,0,.7,2.5,6.3,6.3,0,0,1,.8,2.3,2.7,2.7,0,0,1,1.5,1.3A8.9,8.9,0,0,1,663.3,368.1Z"/>
        <path id="Path_194069" data-name="Path 194069" class="cls-3" d="M609.3,486.2c.2,0,9.5.3,9.3,1.9S609.3,486.2,609.3,486.2Z"/>
        <path id="Path_194070" data-name="Path 194070" class="cls-3" d="M611.3,488.7s6.3,1.1,4.6,2.1S611.3,488.7,611.3,488.7Z"/>
        <path id="Path_194071" data-name="Path 194071" class="cls-3" d="M634.5,485.1s10.4.9,8.8,2.2-5.2,1.3-5.4,1.4A38.9,38.9,0,0,1,634.5,485.1Z"/>
        <path id="Path_194072" data-name="Path 194072" class="cls-3" d="M633.3,489.9s5.7,1,5.9,2.1S633.3,489.9,633.3,489.9Z"/>
        <path id="Path_194073" data-name="Path 194073" class="cls-3" d="M636.4,462.3s5.3,1.3,5.6,2.2Z"/>
        <path id="Path_194074" data-name="Path 194074" class="cls-3" d="M616.1,466.2s-2.7.8,0,2.5S616.1,466.2,616.1,466.2Z"/>
        <path id="Path_194075" data-name="Path 194075" class="cls-3" d="M628.3,422.2c.3,0,5.1-1.6,6.8-.9a12.3,12.3,0,0,0,3.8.8Z"/>
        <path id="Path_194076" data-name="Path 194076" class="cls-3" d="M628.9,427.4v.5l-4.1,11.2s-.7,3.4-1.3,5.2-.6,2.7-.8,4l3.6-23.4Z"/>
        <path id="Path_194077" data-name="Path 194077" class="cls-11" d="M635.4,411.6h-1.8l-1-4.6h1.5Z"/>
        <path id="Path_194078" data-name="Path 194078" class="cls-9" d="M656.2,406l-1.1,1-3.7,3.1s-9.9,5.5-12.7.3,8.9-7.9,11.6-8.6l.6-.2Z"/>
        <path id="Path_194079" data-name="Path 194079" class="cls-3" d="M613.7,362.2s2,.9,2.4,2.2S613.7,362.2,613.7,362.2Z"/>
        <path id="Path_194080" data-name="Path 194080" class="cls-3" d="M607.7,375.6s-2.8,3.5-1.7,4.9S607.7,375.6,607.7,375.6Z"/>
        <path id="Path_194081" data-name="Path 194081" class="cls-3" d="M658.3,364.2s-2.7.3-2.7,2.7Z"/>
        <path id="Path_194082" data-name="Path 194082" class="cls-3" d="M633.7,400.9c.3-.3,6.4-9.6,7.8-8.8Z"/>
        <path id="Path_194083" data-name="Path 194083" class="cls-3" d="M645.1,341.7a11.6,11.6,0,0,1-1.2,5.1h-.1c-.7-.1-1-.9-1.5-1.4a2,2,0,0,0-2.4-.4,2.5,2.5,0,0,0-1.2,2.4c-.3-1.5-.2-3.1-.5-4.5s-1.4-3-2.7-3-1.3.2-1.7-.3-.3-.7-.5-1-3.9-.8-5.1,0a38.1,38.1,0,0,1-4.1,2.9,10.6,10.6,0,0,1,10.5-10.6,10.5,10.5,0,0,1,10.5,10.5v.2Z"/>
        <path id="Path_194084" data-name="Path 194084" class="cls-11" d="M633.3,338.4c.2.3.2.7.5,1s1.1.2,1.7.2,2.3,1.6,2.7,3,.2,3.1.5,4.5a2.5,2.5,0,0,1,1.2-2.3,2,2,0,0,1,2.4.3c.5.5.8,1.3,1.5,1.5s1.3-.5,1.6-1.3a16,16,0,0,0,.3-2.3c.5-1.3,1.1-2.6,1.7-3.9a7.4,7.4,0,0,0,0-5.1c-.3-.9-.9-1.7-1.2-2.5s-.6-2.8-1.2-4a4.6,4.6,0,0,0-5.5-2.4c-1,.4-1.8,1.1-2.8,1.4a8.2,8.2,0,0,1-4.1-.1,4.9,4.9,0,0,0-3.9.8c-1.3,1-1.6,3-2.8,4.2a16.7,16.7,0,0,1-1.6,1.2,2.5,2.5,0,0,0-.9,1.9c.1.9,1,1.8.6,2.7a1.5,1.5,0,0,1-.5.6,10.9,10.9,0,0,0-2.1,3.8c2.4.8,4.9-1.9,6.8-3.2S632.3,336.7,633.3,338.4Z"/>
        <path id="Path_194085" data-name="Path 194085" class="cls-3" d="M656.2,406.2l-1.1.9a33.1,33.1,0,0,0-4.9-5v-.2h.6Z"/>
        <path id="Path_194086" data-name="Path 194086" class="cls-10" d="M657.3,404.5l-.8,1.9c-.4.9-.9,1.6-.9,1s-5.2-5.6-5.2-5.6l.7-.7.9-.8Z"/>
        <path id="Path_194087" data-name="Path 194087" class="cls-3" d="M657.5,397.7l.5,10.2c-1.3-2.2-5.1-7.9-7.5-7.7l5.9-7,.6-.9C657.2,395.3,657.5,397.7,657.5,397.7Z"/>
        <path id="Path_194088" data-name="Path 194088" class="cls-3" d="M657.3,404.5l-.8,1.9c-1.6-2.2-3.7-4.8-5.4-5.3l.9-.8Z"/>
        <path id="Path_194089" data-name="Path 194089" class="cls-8" d="M661.7,367.5l1.6,1.3s2.6,0,2.9,2.4a4.5,4.5,0,0,0,2.7,3.3s1.8,1.9,1.8,2.8,1.4,2.4,1.4,2.5,1.3,3,1.2,3.5,1.4,2.7.9,3.5a16.3,16.3,0,0,0-1.1,2.3s-2.1,4.1-3.1,4.9c-2.1,2.3-4.1,4.8-6,7.3,0,0-5.2,6.2-5.2,8.2,0,0-5.1-8.8-8.1-8.6l5.9-7a7.2,7.2,0,0,0,1.1-1.9c0-.7,2.8-3.8,4.1-4s.2-1.8-.3-1.9-1.1-1.5-1.1-1.5-3.9-4.8-3.9-7.8S661.7,367.5,661.7,367.5Z"/>
        <path id="Path_194090" data-name="Path 194090" class="cls-3" d="M664.1,372.6s-3.8,2.8-3,3.7S664.1,372.6,664.1,372.6Z"/>
        <path id="Path_194091" data-name="Path 194091" class="cls-3" d="M664.2,384.1s6.9-2.3,7.7,0Z"/>
        <path id="Path_194092" data-name="Path 194092" class="cls-3" d="M621.5,501.1s-3.7,2.6-5.6,2.2a5.9,5.9,0,0,0-3.7.6,10.7,10.7,0,0,1-4.7,3.2,16.5,16.5,0,0,1-9.6-.2c-1.1-.4-1.2-.9-.7-1.5,2.6.5,8.4,1.6,10,.8a31.7,31.7,0,0,0,4.9-3.2l4.4-.5,4.9-2Z"/>
        <path id="Path_194093" data-name="Path 194093" class="cls-3" d="M644,506.3v.2s-.8,2.1-5.8,2.8-4.9-1.7-4.9-1.7a2,2,0,0,1,.1-.7C634.9,507.6,638.3,508.2,644,506.3Z"/>
        <path id="Path_194094" data-name="Path 194094" class="cls-3" d="M615.6,371.9s0,10.4-.9,11.5S615.6,371.9,615.6,371.9Z"/>
        <path id="Path_194095" data-name="Path 194095" class="cls-3" d="M655.4,375.3l1.3,3.8S657.2,375.4,655.4,375.3Z"/>
        <g id="Group_10091" data-name="Group 10091" class="cls-13">
          <path id="Path_194096" data-name="Path 194096" d="M624.2,336.2c.3-.9-.6-1.7-.7-2.6a1.9,1.9,0,0,0-.1.8,15.9,15.9,0,0,0,.7,2Z"/>
          <path id="Path_194097" data-name="Path 194097" d="M638.8,346.1c-.3-1.5-.2-3-.5-4.4s-1.3-3-2.7-3-1.3.2-1.7-.2a11.7,11.7,0,0,1-.5-1.1c-1-1.6-3.9-.8-5.1,0s-4.3,3.9-6.6,3.3l-.3.9c2.4.7,4.9-2,6.8-3.2s4.2-1.7,5.1,0,.2.7.5,1,1.1.2,1.7.2,2.3,1.5,2.7,3,.2,3,.5,4.5A3.4,3.4,0,0,1,638.8,346.1Z"/>
          <path id="Path_194098" data-name="Path 194098" d="M645.5,344.4c-.3.7-.9,1.4-1.6,1.2s-1-.9-1.5-1.5a2.1,2.1,0,0,0-2.4-.3,2.7,2.7,0,0,0-1.2,2.2,2.8,2.8,0,0,1,1.1-1.3,2.1,2.1,0,0,1,2.4.3c.5.6.8,1.4,1.5,1.5s1.3-.5,1.5-1.2a3.5,3.5,0,0,0,.3-1.4C645.6,344.1,645.5,344.2,645.5,344.4Z"/>
          <path id="Path_194099" data-name="Path 194099" d="M647.6,338.1a20,20,0,0,0-1.7,4c-.1.3-.1.6-.2.9.5-1.4,1.1-2.7,1.7-4a5.8,5.8,0,0,0,.4-1.9,3,3,0,0,1-.2,1Z"/>
        </g>
      </g>
      <rect id="Rectangle_7156" data-name="Rectangle 7156" class="cls-5" x="220.2" y="135.6" width="47.9" height="51.4"/>
      <rect id="Rectangle_7157" data-name="Rectangle 7157" class="cls-5" x="281.7" y="135.6" width="47.9" height="51.4"/>
      <rect id="Rectangle_7158" data-name="Rectangle 7158" class="cls-14" x="343.1" y="135.6" width="47.9" height="51.4"/>
      <rect id="Rectangle_7159" data-name="Rectangle 7159" class="cls-14" x="404.6" y="135.6" width="47.9" height="51.4"/>
      <rect id="Rectangle_7160" data-name="Rectangle 7160" class="cls-14" x="466" y="135.6" width="47.9" height="51.4"/>
      <path id="Path_194713" data-name="Path 194713" class="cls-1" d="M471.8,146.8l38.1-29.9,30,41-38.2,29.9Z"/>
      <path id="Path_194100" data-name="Path 194100" class="cls-6" d="M244.2,141.1a8.3,8.3,0,0,0-8.6,8,8.3,8.3,0,0,0,16.6.6v-.3A8.2,8.2,0,0,0,244.2,141.1Zm5.5,10.5a5.6,5.6,0,0,1-1.2-.4,1.6,1.6,0,0,1,0-.7l1.2-.2c.1-.1.1-.1,0-.3a5,5,0,0,1-.3-2.4,2,2,0,0,0-.7-1.8,2.7,2.7,0,0,0-1.2-.3l-1,.2c-1.6.7-.7,2.9-1.2,4.2s-.3.3,0,.4a3.5,3.5,0,0,0,1.1.3v.5c-.1.2-.5.3-.6.4l-.7.2c-.1,0-.1.1-.1.2h.6a4.2,4.2,0,0,1,1.7,1,2.5,2.5,0,0,1,.8,1.8c0,.2-.1.3-.2.5h-.4a2.7,2.7,0,0,0-1.8-2.6l-1.6-.4a.7.7,0,0,1-.5-.3c0-.2-.1-.4-.1-.6v-.4c0-.2.3-.3.3-.4a3.1,3.1,0,0,0,.3-1.3c.3.1.4-.5.4-.7s.2-.9-.1-1a1.4,1.4,0,0,0,.2-.6,3.8,3.8,0,0,0,0-1.5,2.6,2.6,0,0,0-4.8-.2,4.3,4.3,0,0,0-.1,1.6,1.4,1.4,0,0,0,.2.7c-.2.1-.2.7-.1.9s.1.9.5.8a3.4,3.4,0,0,0,.1,1l.3.5v.2a3.4,3.4,0,0,1-.1,1c0,.3-.7.4-.9.5a4.2,4.2,0,0,0-1.6.4,7.4,7.4,0,0,1-.1-7.2,6.8,6.8,0,0,1,9.1-2.9,8.3,8.3,0,0,1,1.8,1.3,7.4,7.4,0,0,1,2,5.1,7.1,7.1,0,0,1-.5,2.9,1.5,1.5,0,0,0-.9-.6Z"/>
      <path id="Path_194101" data-name="Path 194101" class="cls-15" d="M244.9,178.4v-9.2l4.1,4.3,1-1.1-5.8-6.1-5.9,6.1,1.1,1,4-4.2v9.2Z"/>
      <path id="Path_194102" data-name="Path 194102" class="cls-15" d="M306.4,178.4v-9.2l4,4.3,1-1.1-5.8-6.1-5.8,6.1,1,1,4.1-4.2v9.2Z"/>
      <path id="Path_194103" data-name="Path 194103" class="cls-6" d="M305.8,147.7h-.2l-3.4,4.5v.2h.2l5.8.6h.1c.1-.1.1-.2,0-.2l-2.5-5.1Zm3.8,2.4h-.2l-.9.9c-.1.1-.1.2,0,.2l.9,1.9h1.7c.1,0,.2,0,.2-.1h0l-1.6-3Zm.4-1.5a1,1,0,0,0,.9-.7.9.9,0,0,0-.5-.9.6.6,0,0,0-.9.1.8.8,0,0,0-.3.9.8.8,0,0,0,.8.6Z"/>
      <path id="Path_194104" data-name="Path 194104" class="cls-6" d="M312.8,145.1l-2.4-.2-.2-2.5a1,1,0,0,0-1-.9h-.1l-10.7,1a.8.8,0,0,0-.6.4.9.9,0,0,0-.3.7l1,11.1a1.3,1.3,0,0,0,.4.7l.7.2h.5v.7a1,1,0,0,0,.2.7l.7.4,10.7.9a1,1,0,0,0,1.1-.9h0l.9-11.1a1,1,0,0,0-.2-.7,1,1,0,0,0-.7-.4Zm-13.3,6.4a.2.2,0,0,1-.2-.2l-.7-7.5a.1.1,0,0,1,.1-.1h.1l10.1-1a.3.3,0,0,1,.3.3l.2,1.9-7.3-.6a.6.6,0,0,0-.7.2,1,1,0,0,0-.4.7l-.5,6.3Zm13.1-5-.6,7.4a.3.3,0,0,1-.3.3h-.6l-9.5-.8h-.1V153l.2-1.6.5-5.9v-.2h.2l7.2.7h2.9c.1,0,.2.1.2.3Z"/>
      <rect id="Rectangle_7162" data-name="Rectangle 7162" class="cls-5" x="220.2" y="234.1" width="109.3" height="84.42"/>
      <path id="Path_194105" data-name="Path 194105" class="cls-16" d="M287.4,260.1a37.1,37.1,0,0,0-34.8,5.2,40.2,40.2,0,0,0-16.1,32.3,2.7,2.7,0,0,1-2.6,2.9,2.8,2.8,0,0,1-2.8-2.7v-.2a45.9,45.9,0,0,1,18.3-36.9,42.6,42.6,0,0,1,39.6-6"/>
      <path id="Path_194106" data-name="Path 194106" class="cls-6" d="M289,254.6c17.8,6.3,29.7,23.6,29.7,43a2.7,2.7,0,1,1-5.4.2v-.2c0-16.9-10.4-32-25.9-37.5"/>
      <path id="Path_194107" data-name="Path 194107" class="cls-16" d="M278.9,277.3h0a4.7,4.7,0,0,0-4,2.3,4.8,4.8,0,0,0-4-2.3h0a4.8,4.8,0,0,0-4.7,5,10.1,10.1,0,0,0,2,5.7,32.7,32.7,0,0,0,6.7,6.7,32.7,32.7,0,0,0,6.7-6.7,10.9,10.9,0,0,0,2-5.7,4.8,4.8,0,0,0-4.7-5Z"/>
      <rect id="Rectangle_7163" data-name="Rectangle 7163" class="cls-5" x="359.7" y="199.3" width="165.8" height="127.74"/>
      <rect id="Rectangle_7164" data-name="Rectangle 7164" class="cls-6" x="376.8" y="294.2" width="6.8" height="23.58"/>
      <rect id="Rectangle_7165" data-name="Rectangle 7165" class="cls-6" x="389.7" y="265.4" width="6.8" height="52.76"/>
      <rect id="Rectangle_7166" data-name="Rectangle 7166" class="cls-5" x="402.6" y="239.4" width="6.8" height="79.06"/>
      <rect id="Rectangle_7167" data-name="Rectangle 7167" class="cls-6" x="415.6" y="220.9" width="6.8" height="97.82"/>
      <rect id="Rectangle_7168" data-name="Rectangle 7168" class="cls-16" x="402.6" y="220.9" width="6.8" height="97.82"/>
      <rect id="Rectangle_7169" data-name="Rectangle 7169" class="cls-16" x="428.5" y="264.4" width="6.8" height="53.77"/>
      <rect id="Rectangle_7170" data-name="Rectangle 7170" class="cls-6" x="441.5" y="250.6" width="6.8" height="67.67"/>
      <rect id="Rectangle_7171" data-name="Rectangle 7171" class="cls-6" x="454.4" y="229.8" width="6.8" height="88.77"/>
      <rect id="Rectangle_7172" data-name="Rectangle 7172" class="cls-14" x="467.3" y="278.4" width="6.8" height="39.53"/>
      <rect id="Rectangle_7173" data-name="Rectangle 7173" class="cls-14" x="480.3" y="260.4" width="6.8" height="57.79"/>
      <rect id="Rectangle_7174" data-name="Rectangle 7174" class="cls-14" x="493.2" y="239.4" width="6.8" height="79.06"/>
      <rect id="Rectangle_7175" data-name="Rectangle 7175" class="cls-14" x="506.1" y="239.4" width="6.8" height="79.06"/>
      <path id="Path_194108" data-name="Path 194108" class="cls-8" d="M544.1,179.3l6.6-3.8,3.1,1.9,62.4,310.7-3.8.7-7.8-7Z"/>
      <path id="Path_194109" data-name="Path 194109" class="cls-3" d="M550.7,175.5l61.7,313.3,3.8-.7L553.8,177.4Z"/>
      <path id="Path_194110" data-name="Path 194110" class="cls-8" d="M504.9,201.6l47.4,4.7v3.8l-47.2-4.3Z"/>
      <path id="Path_194111" data-name="Path 194111" class="cls-8" d="M509.9,246.7h50.3v5.5h-51Z"/>
      <path id="Path_194112" data-name="Path 194112" class="cls-8" d="M514.5,293.9l50.8-2.1,6.3,2.1v3.6L526.5,300H514.9Z"/>
      <path id="Path_194113" data-name="Path 194113" class="cls-3" d="M527.2,296.8l44.4-2.9v3.6l-45.1,2.4Z"/>
      <path id="Path_194114" data-name="Path 194114" class="cls-3" d="M514.5,293.9l12.7,2.9-.7,3.1H514.9Z"/>
      <path id="Path_194115" data-name="Path 194115" class="cls-8" d="M519.1,345.2l56.1-5.4,6.1,1.7v3.7l-50,5.5-12.2,1.1Z"/>
      <path id="Path_194116" data-name="Path 194116" class="cls-3" d="M531,347.6l44.8-4.7,5.5-1.4v3.7l-50,5.5Z"/>
      <path id="Path_194117" data-name="Path 194117" class="cls-3" d="M518.4,348.2l12.6-.7.3,3.1-12.2,1.1Z"/>
      <path id="Path_194118" data-name="Path 194118" class="cls-8" d="M521.8,396.2l63.2-8.7,5.4,2.3V394l-54.5,8.5H523.1Z"/>
      <path id="Path_194119" data-name="Path 194119" class="cls-3" d="M535.9,399.8l54.5-10V394l-54.5,8.5Z"/>
      <path id="Path_194120" data-name="Path 194120" class="cls-3" d="M522.5,399.8h13.4v2.7H523.1Z"/>
      <path id="Path_194121" data-name="Path 194121" class="cls-8" d="M525.5,446.2l69.3-13.4,6.2,3.8v2.9l-60.9,15.3-12.5,1Z"/>
      <path id="Path_194122" data-name="Path 194122" class="cls-3" d="M540.1,451.8,601,436.6v2.9l-60.9,15.3Z"/>
      <path id="Path_194123" data-name="Path 194123" class="cls-3" d="M526.9,452.5l13.2-.7v3l-12.5,1Z"/>
      <path id="Path_194124" data-name="Path 194124" class="cls-8" d="M509.3,171.6l-5.6,1.3,20.2,334,6,2.3h4.6Z"/>
      <path id="Path_194125" data-name="Path 194125" class="cls-3" d="M506.5,172.2l23.4,337h4.6L509.3,171.6Z"/>
      <path id="Path_194714" data-name="Path 194714" class="cls-6" d="M477.6,144.8l38.2-29.9,29.9,40.9-38.1,29.9Z"/>
      <path id="Path_194715" data-name="Path 194715" class="cls-5" d="M477.6,144.8l38.2-29.9,29.9,40.9-38.1,29.9Z"/>
      <path id="Path_194126" data-name="Path 194126" class="cls-15" d="M522.9,163.8l-5.3-7.3,5.7.8.2-1.5-8.2-1.2-1.1,8.5,1.4.2.9-5.9,5.3,7.3Z"/>
      <path id="Path_194127" data-name="Path 194127" class="cls-6" d="M510.3,148.3a7.2,7.2,0,0,1-8.3.5,7.7,7.7,0,0,1-3.6-7.8.5.5,0,0,1,.2-.4c.2-.1.3-.2.5-.1a.5.5,0,0,1,.5.7,6.7,6.7,0,0,0,3,6.6,6.2,6.2,0,0,0,7-.4,6.7,6.7,0,0,0,1.3-8.8,6.1,6.1,0,0,0-8.4-1.9l1.4,1.9a.6.6,0,0,1-.9.8l-1.9-2.5a.8.8,0,0,1,.2-.9,7.3,7.3,0,0,1,10.2,1.5h.1a7.9,7.9,0,0,1-1.3,10.8Z"/>
      <path id="Path_194128" data-name="Path 194128" class="cls-6" d="M501.3,141h4.6a1.3,1.3,0,0,1,1.1.6,1.3,1.3,0,0,1,0,1.2,1.3,1.3,0,0,1-1,.6h-.4l-4.4-1.4-.2-.2c0-.1-.1-.2,0-.3A.5.5,0,0,1,501.3,141Z"/>
      <path id="Path_194129" data-name="Path 194129" class="cls-17" d="M559.6,297.4c-.5-1.8-.8-3.3-.8-3.3a6.7,6.7,0,0,0-.9-3.4v-.5h0v-3.7a15.4,15.4,0,0,1,.8-1.9c.6-1.2-.2-5.4-.2-5.4s-2.6-5.8-2.1-9.6-5.5-16.5-5.5-16.5a23.3,23.3,0,0,1,.4-3.7,1.9,1.9,0,0,0,.1-.8h0c-.2-2.5-2.3-7.1-2.3-7.1v-8.8a25.3,25.3,0,0,0-1.2-12.2,55.4,55.4,0,0,1-1.6-5.9c0-.2-.1-.3-.1-.5l7.1-1.4s-2.7-10.1-4.4-11.8-3.1-7.3-3.1-7.3-1.1-7.2.2-9.3a16.8,16.8,0,0,0,1.3-5.8s2.9-2.4,3.3-3.5a22.3,22.3,0,0,0,.8-4.5c0-1.2-.5-2.3-.4-2.9s-1-3.1-.5-4.2a5.2,5.2,0,0,0,.2-1.1h0c-.1-1-.2-2-.4-3a8.9,8.9,0,0,0-3.1-1.5v-.3l-.2-.7-.3-.2v-1.2l.4-2.4c.7-4.1-4.5-4.5-4.5-4.5a3,3,0,0,0-1.6-1.3c-1-.3.1,6.1.6,6.5a27,27,0,0,1,2.2,3.3h.1l-.3.3.3,1.4v.2a5.1,5.1,0,0,0-.7,1.5,3.6,3.6,0,0,1,.8,2.3,9,9,0,0,0,.4,2.8,1.4,1.4,0,0,0-1.4-.6l-2.5.8s-1.4.4-1.3.7-.8,1.7-.8,1.7l-3.9-3.5a.4.4,0,0,1-.1-.3,5.3,5.3,0,0,1-.4-1.6l1.2-.5a3,3,0,0,0,1-.7,4.8,4.8,0,0,0,.5-1.7c.4-1.1.8-2.2,1.3-3.3a10.4,10.4,0,0,0,.5-5.8,3.5,3.5,0,0,0-.6-1.7c-.7-.8-1.8-1.1-2.6-1.8a12.6,12.6,0,0,0-2.4-2.2,4.5,4.5,0,0,0-2.8-.1,16.5,16.5,0,0,0-5.3,2.2,2.3,2.3,0,0,1-1.7.7,2.1,2.1,0,0,1-1.3-.9h-.1a9.3,9.3,0,0,0-.5,2.9c0,.2.1.3.1.5h0v.2h0v.2a1,1,0,0,1-.4.5c-.1.2-.2.3-.2.5v-.2a2.8,2.8,0,0,0-.3,1.3,1.1,1.1,0,0,0,.3.8l.6.5a5.7,5.7,0,0,0,0,1.3,7.4,7.4,0,0,0,3.7,6.3l.2.3a8.8,8.8,0,0,1,.8,4.2v.3l-.2.2h0s-6.1.3-7.7-1-3.5,3.5-3.5,3.5-2.2.5-2.7.1-3,.1-3,.1a5.3,5.3,0,0,0-4-1.4,13.2,13.2,0,0,0-2.9-1.5h0a2.6,2.6,0,0,0-1.5-.1,36.8,36.8,0,0,1-4-3.9c-1-1.4-5.4-6.4-5.4-6.4v-1h-.4v-.2a10,10,0,0,0-1-2.1s0-1,.3-1.2a24.3,24.3,0,0,0-.3-3.8s-3-6.5-5.3-1.4c0,0-4.5,3.4-.4,6.9,0,0,1.5.8,1.8,1.4l1.1,2.2.2.3h-.1v.9c-.7.4-1.2.9-1.1,1.2a4.9,4.9,0,0,1,.6,1.7s5.6,6.8,6.4,9.7c0,0,14.8,8.4,19.6,8.8l-.6,4.5a33.4,33.4,0,0,0-.1,3.6,52.8,52.8,0,0,1-.4,5.3s-.5,6.4-1.2,7.4-.4,4.7-.4,4.7a32,32,0,0,1-.8,5.4,16.9,16.9,0,0,0,0,5.5s-2.2,5.8,3.5,1.7l6.1-.6v1.8c0,3.2.2,7.8.5,11.2.4,6,2.7,17.9,2.7,17.9l.2,6.1a9.1,9.1,0,0,0-.1,1.7,10.3,10.3,0,0,0,1.8,5.9l.6,4.1a14.8,14.8,0,0,1,1.2,4.1v.4a.6.6,0,0,0,0,.6,32.4,32.4,0,0,0,1.2,6.2s.2,4.4.9,4.6-.7,2.5-1,3.2h-.1a5,5,0,0,0-.2,1.2,1.8,1.8,0,0,0,.8,1.5c1.2.7,1.9,1.3.9,1.6l-1.1.3c0-.1-.1-.1-.1-.2a.9.9,0,0,0-.4.8,4.4,4.4,0,0,0,.5,1.5,20.2,20.2,0,0,0,1.8,3.2h.5l-.3.6a1.4,1.4,0,0,1-.7.6,2,2,0,0,1-.8.4,2.4,2.4,0,0,0-1.8.9,2,2,0,0,0,.1,2.8l.3.3,4.6,1.4s7.8.7,7.3-1.1l-.8-3.4a7.1,7.1,0,0,0-.7-3.2l-.3-.4h.2s.5-4,1.2-4.8.2-.3.2-.4a.4.4,0,0,0-.4-.4h-.8s-.4-2.1.4-2.9a1.4,1.4,0,0,0,.2-.7,3.1,3.1,0,0,0-.2-.8h0a28.6,28.6,0,0,0-2-4.8,6.3,6.3,0,0,1,.4-2.7c.5-.8-.5-10.4-.5-10.4a39.9,39.9,0,0,0-.6-6.8,7.6,7.6,0,0,1,.5-4.7h0a4.5,4.5,0,0,0-.1-.8h0c-.2-1.2-.5-3.5-.7-4.5s-.3-8.5-.3-8.5l1.1-3,2.2,5.1,2.4,6.8a5.8,5.8,0,0,1,1.2,2.8v.7a4.6,4.6,0,0,0,.8,2.5s.6,3.2,1.6,4a3.4,3.4,0,0,1,.9,2.4,48.8,48.8,0,0,0,1.8,5.4,8.7,8.7,0,0,1,.6,3.2h0v.2s.2,1.7.3,3.1v.4c-.1.4-.1.8-.2,1.1h0v-.3a15.1,15.1,0,0,0-.2,3,7.5,7.5,0,0,0,1.4,4.8c1.8,2,2.9,1.7,2.9,1.7s-.8,2.6-1.8,3.1h-.1a1,1,0,0,0-.2.9,5.5,5.5,0,0,0,1.4,3.7,1.4,1.4,0,0,0,.8.5H550l-.4.2-.5.2a2.4,2.4,0,0,0-1.8,1,2,2,0,0,0,.1,2.8l.3.2,4.6,1.4S560.1,299.2,559.6,297.4Z"/>
      <path id="Path_194130" data-name="Path 194130" class="cls-18" d="M529.9,299.2l-4.5-1.4a1.9,1.9,0,0,1-.4-2.8.3.3,0,0,1,.1-.2,2.3,2.3,0,0,1,1.7-1,3.2,3.2,0,0,0,.9-.3l.6-.7a2.8,2.8,0,0,0,.4-1.8s4.8-1.6,6.2-.2a2.4,2.4,0,0,1,.6.8,7.2,7.2,0,0,1,.8,3.2s.3,1.6.7,3.4S529.9,299.2,529.9,299.2Z"/>
      <path id="Path_194131" data-name="Path 194131" class="cls-18" d="M551.3,296.3l-4.4-1.5a2,2,0,0,1-.5-2.8c0-.1.1-.1.1-.2a2.5,2.5,0,0,1,1.8-1h.5l.3-.2a3.3,3.3,0,0,0,1.1-2.5s4.8-1.6,6.1-.2l.5.6a6.9,6.9,0,0,1,.9,3.4s.3,1.6.8,3.4S551.3,296.3,551.3,296.3Z"/>
      <path id="Path_194132" data-name="Path 194132" class="cls-3" d="M534.9,290.9a2.7,2.7,0,0,1,.7.8h0l-7.2,1.2a3.9,3.9,0,0,0,.4-1.8S533.5,289.4,534.9,290.9Z"/>
      <path id="Path_194133" data-name="Path 194133" class="cls-3" d="M556.8,288.4v1.4c-1.1,2-6.5,1.8-8.1.9l.3-.2a3.2,3.2,0,0,0,1.1-2.4s4.8-1.7,6.1-.3l.5.6Z"/>
      <path id="Path_194134" data-name="Path 194134" class="cls-19" d="M557.5,283.5a6.4,6.4,0,0,0-.8,1.9l.2,5c-1.2,2.2-7.6,1.7-8.5.6s-2-4-1-4.6,1.7-3.1,1.7-3.1-1.1.3-2.8-1.7-1.4-6.5-1.1-7.6a24.7,24.7,0,0,0-.2-4.7,9.2,9.2,0,0,0-.6-3.3c-.7-1.8-1.2-3.7-1.7-5.5a3.7,3.7,0,0,0-1-2.4c-.8-.8-1.5-4-1.5-4a4.4,4.4,0,0,1-.7-2.7,6.6,6.6,0,0,0-1.2-3.3l-2.3-6.8-2.2-5-1,3s-.1,7,.3,8.5.8,5.3.8,5.3a7.6,7.6,0,0,0-.5,4.7,39.1,39.1,0,0,1,.6,6.8s.9,9.6.5,10.4a6.3,6.3,0,0,0-.4,2.7s2.8,5.5,2,6.3-.5,2.9-.5,2.9,1.7-.1,1,.7-1.1,4.8-1.1,4.8l-7.4,1.2a20.2,20.2,0,0,1-1.8-3.2c-1-2.3.1-2.1,1.1-2.4s.3-.9-.8-1.6-.6-2.5-.6-2.5,1.6-3.2,1-3.4-.8-4.6-.8-4.6-1.5-5.2-1.2-6.6-1.2-4.7-1.2-4.7l-.5-4.1a11.5,11.5,0,0,1-1.7-7.5l-.2-6.1s-2.2-11.9-2.6-18c-.3-3.8-.5-9.1-.6-12.4v-3.1l26.4-3.9a18.7,18.7,0,0,0,.7,4c.3,1.5.8,3.5,1.5,5.9a26.6,26.6,0,0,1,1.2,12.2v8.8s2.6,5.9,2.2,7.9a15.5,15.5,0,0,0-.4,3.7s5.7,12.7,5.3,16.5,2.1,9.6,2.1,9.6S558,282.3,557.5,283.5Z"/>
      <path id="Path_194135" data-name="Path 194135" class="cls-20" d="M541,250.8l8.1-1.4S544.7,254.4,541,250.8Z"/>
      <path id="Path_194136" data-name="Path 194136" class="cls-3" d="M547.6,241.5s.4,2.9-1.3,4.1C546.3,245.6,549.4,245,547.6,241.5Z"/>
      <path id="Path_194137" data-name="Path 194137" class="cls-3" d="M546.8,232.3s-6.6,6-9,5.6S546.8,232.3,546.8,232.3Z"/>
      <path id="Path_194138" data-name="Path 194138" class="cls-3" d="M531.1,253.8s-5.1,1.4-5.1,3.6S531.1,253.8,531.1,253.8Z"/>
      <path id="Path_194139" data-name="Path 194139" class="cls-20" d="M533.2,279.6s-7.2,1.7-5.1,2.6a56.2,56.2,0,0,0,5.5,1.5S536,283.7,533.2,279.6Z"/>
      <g id="Group_10092" data-name="Group 10092" class="cls-21">
        <path id="Path_194140" data-name="Path 194140" d="M526.7,284.6a2.1,2.1,0,0,1-.7-1.1h0s-.6,1.8.5,2.5l.4.3.7-.2C528.6,285.9,527.9,285.3,526.7,284.6Z"/>
        <path id="Path_194141" data-name="Path 194141" d="M536.1,283.7a2.7,2.7,0,0,0,0-1.3,3.7,3.7,0,0,0-.4,1.8,1,1,0,0,1,.4-.5Z"/>
        <path id="Path_194142" data-name="Path 194142" d="M533.8,252.1a5.9,5.9,0,0,0-.4,2.3,4.9,4.9,0,0,1,.5-1.6A2.4,2.4,0,0,1,533.8,252.1Z"/>
        <path id="Path_194143" data-name="Path 194143" d="M550.2,248.1a2,2,0,0,0,.1-.7c-.1.5-.1.9-.2,1.3A1.3,1.3,0,0,0,550.2,248.1Z"/>
        <path id="Path_194144" data-name="Path 194144" d="M534.4,274.7a3.4,3.4,0,0,0,.2-1.4,5.7,5.7,0,0,0-.3,1.8C534.3,275,534.4,274.8,534.4,274.7Z"/>
        <path id="Path_194145" data-name="Path 194145" d="M536.4,286.6a27.9,27.9,0,0,0-.7,4l-7.4,1.2a20.2,20.2,0,0,1-1.8-3.2,1.4,1.4,0,0,1-.2-.6c-.5.3-.6.8,0,2.1a16.5,16.5,0,0,0,1.8,3.2l7.4-1.2s.4-4,1.1-4.8S536.7,286.7,536.4,286.6Z"/>
        <path id="Path_194146" data-name="Path 194146" d="M526.2,275.6s.2,4.4.8,4.6h0c.3-.7.5-1.4.2-1.5s-.9-4.6-.9-4.6-1.4-5.2-1.1-6.6-1.2-4.8-1.2-4.8l-.6-4a11.6,11.6,0,0,1-1.6-7.5l-.2-6.2s-2.2-11.9-2.7-17.9c-.3-3.9-.4-9.1-.5-12.5v-1.5h-.2v3.1c.1,3.3.2,8.5.5,12.4.5,6,2.7,17.9,2.7,17.9l.2,6.2a11.3,11.3,0,0,0,1.7,7.6l.6,4s1.4,3.4,1.1,4.8S526.2,275.6,526.2,275.6Z"/>
        <path id="Path_194147" data-name="Path 194147" d="M548.6,289.3a7.2,7.2,0,0,1-1.3-3c-.8.7.2,3.4,1.1,4.5s7.3,1.5,8.4-.6V289C555.2,290.8,549.4,290.3,548.6,289.3Z"/>
        <path id="Path_194148" data-name="Path 194148" d="M557.6,281.7a14.6,14.6,0,0,0-.7,1.9v.9a7.5,7.5,0,0,1,.6-1.3,7.8,7.8,0,0,0,.2-1.6Z"/>
        <path id="Path_194149" data-name="Path 194149" d="M548.7,283.1l.6-1.6s-1.1.3-2.8-1.7-1.4-4.2-1.3-6c-.3,1.1-.6,5.6,1.1,7.6A5.1,5.1,0,0,0,548.7,283.1Z"/>
        <path id="Path_194150" data-name="Path 194150" d="M545,269.1l.3,3.7a1.3,1.3,0,0,1,.1-.6,25,25,0,0,0-.2-4.7,9.6,9.6,0,0,0-.6-3.3,35,35,0,0,1-1.7-5.5,4.3,4.3,0,0,0-1-2.4c-.9-.8-1.5-4-1.5-4a4.3,4.3,0,0,1-.8-2.7,5.2,5.2,0,0,0-1.1-3.2l-2.4-6.8-2.1-5.1-1,3v.9l.8-2.4,2.2,5.1,2.3,6.7a6.6,6.6,0,0,1,1.2,3.3,3.7,3.7,0,0,0,.7,2.7s.6,3.2,1.5,4a3.7,3.7,0,0,1,1,2.4,50.1,50.1,0,0,0,1.7,5.5A9.7,9.7,0,0,1,545,269.1Z"/>
      </g>
      <path id="Path_194151" data-name="Path 194151" class="cls-22" d="M545.8,154.4l-.4,2.3v1.8l-2.5.4-.3-.5h0a18.5,18.5,0,0,0-2.1-3.3c-.5-.4-1.6-6.8-.6-6.5a2.8,2.8,0,0,1,1.5,1.3S546.6,150.3,545.8,154.4Z"/>
      <path id="Path_194152" data-name="Path 194152" class="cls-3" d="M545.5,158.4l-2.5.4-.3-.6h0a2.2,2.2,0,0,1,2.8-.6Z"/>
      <path id="Path_194153" data-name="Path 194153" class="cls-23" d="M546.2,159.6l-3.3.9V160l-.3-1.4a2.4,2.4,0,0,1,3.2-.6h.1l.2.7Z"/>
      <path id="Path_194154" data-name="Path 194154" class="cls-22" d="M491.3,156.9l-3.6,2.1-.3-.6-1.1-2.3c-.2-.6-1.8-1.3-1.8-1.3-3.9-3.6.5-7,.5-7,2.2-5,5.1,1.5,5.1,1.5s.5,3.5.2,3.7a3.2,3.2,0,0,0-.2,1.2,20,20,0,0,1,1,2.1A3.2,3.2,0,0,0,491.3,156.9Z"/>
      <path id="Path_194155" data-name="Path 194155" class="cls-3" d="M491.3,156.7l-3.6,2.1-.3-.6c.5-.5,2.2-2.1,2.8-2h.9Z"/>
      <path id="Path_194156" data-name="Path 194156" class="cls-23" d="M491.7,157.8l-4,2.2v-1.5s2.3-2.2,3-2.1h1v1.5Z"/>
      <path id="Path_194157" data-name="Path 194157" class="cls-22" d="M536.5,170s-17.6,2.8-14.3,1.5a4.5,4.5,0,0,0,3.2-4.1,8.8,8.8,0,0,0-.8-4.2,14.1,14.1,0,0,0-1.7-3.2s13.2-8.3,10.8-1.2a9.7,9.7,0,0,0-.6,3.4,9.3,9.3,0,0,0,.4,3.3,11.5,11.5,0,0,0,3,4.5Z"/>
      <path id="Path_194158" data-name="Path 194158" class="cls-3" d="M533.7,158.9a9.6,9.6,0,0,0-.6,3.3c-1.2,1.2-2.7,1.2-4.4,1.2s-2.9.5-4.1-.1a12.9,12.9,0,0,0-1.7-3.3S536.2,151.8,533.7,158.9Z"/>
      <ellipse id="Ellipse_755" data-name="Ellipse 755" class="cls-22" cx="528.2" cy="156.5" rx="7.3" ry="7.6"/>
      <path id="Path_194159" data-name="Path 194159" class="cls-3" d="M536.5,169.8s-17.6,2.8-14.3,1.6a4.6,4.6,0,0,0,3.2-4.2,11.7,11.7,0,0,1,3.7-2.2,5.9,5.9,0,0,1,3.2-.2,2.3,2.3,0,0,1,1.2.6,11.2,11.2,0,0,0,3,4.4Z"/>
      <path id="Path_194160" data-name="Path 194160" class="cls-3" d="M546.2,159.6l-3.3.9V160a3,3,0,0,1,3.2-1.3Z"/>
      <path id="Path_194161" data-name="Path 194161" class="cls-3" d="M491.7,157.8l-4,2.2v-.9a29.9,29.9,0,0,1,4-2Z"/>
      <path id="Path_194162" data-name="Path 194162" class="cls-3" d="M545.3,214.5c-6.8,1.4-16.5,3.2-18.1,2.8s-5.4-.2-9,.1v-3.1l26.4-3.9A19.6,19.6,0,0,0,545.3,214.5Z"/>
      <path id="Path_194163" data-name="Path 194163" class="cls-24" d="M552,213.5s-22.4,4.9-24.8,4.2-14.9.7-14.9.7c-5.5,4.1-3.3-1.7-3.3-1.7a12.8,12.8,0,0,1,0-5.5,33.3,33.3,0,0,0,.7-5.4s-.3-3.8.4-4.8,1.2-7.3,1.2-7.3.4-4.3.3-5.3a33.4,33.4,0,0,1,.1-3.6l.6-4.5c-4.6-.5-18.9-8.8-18.9-8.8-.8-3-6.3-9.8-6.3-9.8a15.4,15.4,0,0,0-.5-1.7c-.4-1,5-3.2,5-3.2s4.3,5,5.3,6.4a27.9,27.9,0,0,0,3.9,3.8,3.4,3.4,0,0,1,1.4.2h.1a15.1,15.1,0,0,1,2.8,1.5,5,5,0,0,1,3.8,1.4s2.5-.5,2.9-.1,2.6-.1,2.6-.1,2-4.8,3.4-3.5,7.5,1,7.5,1a8.8,8.8,0,0,1,3.9-2.4,5,5,0,0,1,3.2-.2,3.8,3.8,0,0,1,1.3.6l3.7,3.5s1-1.4.9-1.7,1.2-.7,1.2-.7l2.4-.8c.7-.2,1.3.5,1.4.6a9,9,0,0,1-.4-2.8,3.6,3.6,0,0,0-.8-2.3c1.9-5.6,7-1.2,7-1.2s.6,3,.2,4.2.6,3.5.5,4.2.2,1.9.4,2.9a17.1,17.1,0,0,1-.9,4.5c-.3,1.1-3.2,3.5-3.2,3.5a14.7,14.7,0,0,1-1.2,5.8c-1.3,2.1-.2,9.3-.2,9.3s1.4,5.5,3,7.3S552,213.5,552,213.5Z"/>
      <path id="Path_194164" data-name="Path 194164" class="cls-3" d="M517.6,173.1s-.8-2.1-1.4-2.2l-1.8-.8.4-.8s2.3.6,2.7,1.3A7,7,0,0,1,517.6,173.1Z"/>
      <path id="Path_194165" data-name="Path 194165" class="cls-3" d="M505.1,169c-.1.7-5.6,1.4-5.6,1.4l2.7-3h0A10.2,10.2,0,0,1,505.1,169Z"/>
      <ellipse id="Ellipse_756" data-name="Ellipse 756" class="cls-19" cx="488.9" cy="161.1" rx="0.5" ry="0.5"/>
      <ellipse id="Ellipse_757" data-name="Ellipse 757" class="cls-19" cx="489.6" cy="162.1" rx="0.5" ry="0.5"/>
      <ellipse id="Ellipse_758" data-name="Ellipse 758" class="cls-19" cx="490.2" cy="163" rx="0.5" ry="0.5"/>
      <ellipse id="Ellipse_759" data-name="Ellipse 759" class="cls-19" cx="490.9" cy="163.9" rx="0.5" ry="0.5"/>
      <ellipse id="Ellipse_760" data-name="Ellipse 760" class="cls-19" cx="548.8" cy="161.6" rx="0.4" ry="0.4"/>
      <ellipse id="Ellipse_761" data-name="Ellipse 761" class="cls-19" cx="548.9" cy="162.5" rx="0.4" ry="0.4"/>
      <ellipse id="Ellipse_762" data-name="Ellipse 762" class="cls-19" cx="549" cy="163.4" rx="0.4" ry="0.4"/>
      <path id="Path_194166" data-name="Path 194166" class="cls-3" d="M518.3,189.7c-.1,0,14.4,17.5,24.8,6.6C543.1,196.3,526.2,199.4,518.3,189.7Z"/>
      <path id="Path_194167" data-name="Path 194167" class="cls-3" d="M510.6,199.3s8.3-.1,9.3,2.3v2.6a1.4,1.4,0,0,1-1.5,0c-.9-.4-6-2.8-7.7-1.5Z"/>
      <path id="Path_194168" data-name="Path 194168" class="cls-24" d="M510.8,199.3s7.9-.1,8.9,2.2v2.4a1.6,1.6,0,0,1-1.5.1c-.8-.4-5.7-2.7-7.4-1.5Z"/>
      <path id="Path_194169" data-name="Path 194169" class="cls-3" d="M514.5,180.9a32.2,32.2,0,0,0,3.4,5.6,21.5,21.5,0,0,0,5.2,4.8S514.7,182.1,514.5,180.9Z"/>
      <path id="Path_194170" data-name="Path 194170" class="cls-3" d="M511.4,171.3s1.6,6.1,5.3,8.1Z"/>
      <path id="Path_194171" data-name="Path 194171" class="cls-3" d="M509.3,172c0-.1-1,4.9,4.9,7.5C514.2,179.5,511.7,178.7,509.3,172Z"/>
      <path id="Path_194172" data-name="Path 194172" class="cls-3" d="M545.3,166.6a32.8,32.8,0,0,1,3.8,2.7C549.2,169.3,547.1,166.4,545.3,166.6Z"/>
      <path id="Path_194173" data-name="Path 194173" class="cls-18" d="M526.4,163.5a2.1,2.1,0,0,0,.6,1h.7a14.7,14.7,0,0,0,6.6-.9,2.3,2.3,0,0,0,1-.7,3.4,3.4,0,0,0,.5-1.7c.4-1.1.8-2.2,1.3-3.3a12.5,12.5,0,0,0,.5-5.8,3.6,3.6,0,0,0-.7-1.7c-.6-.8-1.7-1.1-2.5-1.8a15.8,15.8,0,0,0-2.3-2.2,3.9,3.9,0,0,0-2.8-.1,13.2,13.2,0,0,0-5,2.2,2.7,2.7,0,0,1-1.7.6,1.8,1.8,0,0,1-1.3-.9,6.2,6.2,0,0,0-.4,3.3v.5a1,1,0,0,1-.4.5,2,2,0,0,0-.2,2.4,5,5,0,0,0,.8.7,2.9,2.9,0,0,1,.4,2,.8.8,0,0,0,.2.7.9.9,0,0,0,.9.2l.9-.2a2.2,2.2,0,0,1,.9.7A10.4,10.4,0,0,1,526.4,163.5Z"/>
      <g id="Group_10093" data-name="Group 10093" class="cls-13">
        <path id="Path_194174" data-name="Path 194174" d="M535.5,162.4a2.6,2.6,0,0,1-1,.7,14.3,14.3,0,0,1-6.5.9h-.7a1.2,1.2,0,0,1-.6-1,13.2,13.2,0,0,0-2.1-4.5,1.6,1.6,0,0,0-.8-.6,1.6,1.6,0,0,0-1,.2,1,1,0,0,1-.9-.2,1.9,1.9,0,0,1-.2-.7,3.4,3.4,0,0,0-.3-2l-.9-.7a1.6,1.6,0,0,1-.2-1.5,1.8,1.8,0,0,0,0,2c.3.3.7.4.9.7a3.4,3.4,0,0,1,.3,2,1.9,1.9,0,0,0,.2.7.7.7,0,0,0,.9.1h1a1.6,1.6,0,0,1,.8.6,13.7,13.7,0,0,1,2.1,4.4,1.1,1.1,0,0,0,.6,1l.7.2a14.9,14.9,0,0,0,6.6-.9,2.3,2.3,0,0,0,.9-.8.7.7,0,0,0,.3-.6Z"/>
        <path id="Path_194175" data-name="Path 194175" d="M520.9,151.9a.5.5,0,0,0,.2-.4V151a8.2,8.2,0,0,1,.2-2.7h0a6.3,6.3,0,0,0-.4,3.3Z"/>
      </g>
      <path id="Path_194176" data-name="Path 194176" class="cls-3" d="M525.3,167.7s9.2.9,9.9-.6"/>
      <path id="Path_194177" data-name="Path 194177" class="cls-3" d="M542.9,163.2s5.1-.2,6.3,1.7"/>
      <g>
        <rect id="Rectangle_7178" data-name="Rectangle 7178" class="cls-6" x="539.1" y="386.5" width="64" height="59.56" transform="translate(153.7 986.6) rotate(-89.9)"/>
        <rect id="Rectangle_7179" data-name="Rectangle 7179" class="cls-6" x="539.1" y="386.5" width="64" height="59.56" transform="translate(153.7 986.6) rotate(-89.9)"/>
        <path id="Path_194178" data-name="Path 194178" class="cls-15" d="M571.9,439.1V427.7L577,433l1.3-1.4-7.3-7.5-7.2,7.5,1.3,1.3,5-5.2v11.4Z"/>
        <path id="Path_194179" data-name="Path 194179" class="cls-5" d="M561.2,401.5h9.9V391.3h-.8a9.3,9.3,0,0,0-9.1,9.5h0Z"/>
        <path id="Path_194180" data-name="Path 194180" class="cls-5" d="M564.6,408a9,9,0,0,0,11,2.7,9.5,9.5,0,0,0,5.2-10.3,9.2,9.2,0,0,0-8.3-7.8v10.2h-9.9A9.1,9.1,0,0,0,564.6,408Z"/>
      </g>
      <path id="Path_194181" data-name="Path 194181" class="cls-16" d="M154.5,56.4c-4.1,9-11,19.1-18.7,15.2s-13.5-20.3-9.3-29.2,13.9-13,21.6-9.2S158.7,47.5,154.5,56.4Z"/>
      <path id="Path_194182" data-name="Path 194182" class="cls-16" d="M138,77.3s-1.5-.3-.9-1.5a.5.5,0,0,1,.2-.4,3.3,3.3,0,0,0,.5-1.2.6.6,0,0,1,.1-.4,14.8,14.8,0,0,0-.1-2.1l4.1-.3s-1.6,1.4-1.4,2.2a.2.2,0,0,0,.2.2h.6c1,.4.6,1,.6,1C141.7,76.8,138,77.3,138,77.3Z"/>
      <path id="Path_194183" data-name="Path 194183" class="cls-25" d="M140.7,73.8l-2.9.4a1.1,1.1,0,0,1,.1-.5l2.6-.2Z"/>
      <path id="Path_194184" data-name="Path 194184" class="cls-16" d="M138,77.3s-1.5-.3-.9-1.5a5.4,5.4,0,0,0,1.8,0,3.9,3.9,0,0,0,2.4-1.8c1,.4.6,1,.6,1C141.7,76.8,138,77.3,138,77.3Z"/>
      <path id="Path_194185" data-name="Path 194185" class="cls-3" d="M138,77.3s-1.5-.3-.9-1.5a5.4,5.4,0,0,0,1.8,0,3.9,3.9,0,0,0,2.4-1.8c1,.4.6,1,.6,1C141.7,76.8,138,77.3,138,77.3Z"/>
      <path id="Path_194186" data-name="Path 194186" class="cls-26" d="M140.2,34.2s-4.6-.6-5.9,2.5H136a2,2,0,0,0,1.1.3A5.5,5.5,0,0,1,140.2,34.2Z"/>
      <path id="Path_194187" data-name="Path 194187" class="cls-16" d="M131.1,98.9a9.2,9.2,0,0,1-2.6,2.2l-.8.5c-7.3,4.2-20.3,4.3-26.3-1.3S93.8,87.4,96,81.1l.3-.9a13.6,13.6,0,0,1,2.4-3.8c4.6-5.4,12.3-6.5,18.9-3.3l1.7,1,.7.5a15.6,15.6,0,0,1,2,1.6l1,.9h.1a42.7,42.7,0,0,1,5.7,6.3,13.7,13.7,0,0,1,1.5,2.1l.9,1.5a13.6,13.6,0,0,1,1.9,6.7v.7h0a7.3,7.3,0,0,1-.8,2.5A9.4,9.4,0,0,1,131.1,98.9Z"/>
      <path id="Path_194188" data-name="Path 194188" class="cls-3" d="M131.1,98.9a9.2,9.2,0,0,1-2.6,2.2l-.8.5c-7.3,4.2-20.3,4.3-26.3-1.3S93.8,87.4,96,81.1l.3-.9a13.6,13.6,0,0,1,2.4-3.8c4.6-5.4,12.3-6.5,18.9-3.3l1.7,1,.7.5a15.6,15.6,0,0,1,2,1.6l1,.9h.1a42.7,42.7,0,0,1,5.7,6.3,13.7,13.7,0,0,1,1.5,2.1l.9,1.5a13.6,13.6,0,0,1,1.9,6.7v.7h0a7.3,7.3,0,0,1-.8,2.5A9.4,9.4,0,0,1,131.1,98.9Z"/>
      <path id="Path_194189" data-name="Path 194189" class="cls-16" d="M135.3,98.7l-.3-.2a2.5,2.5,0,0,0-1-.8.5.5,0,0,0-.4-.2l-1.3-.5h-.6l.6-2.9h0l.2-1.2.6,1c.3.5.6,1,1,1h.3l.2-.3.2-.3c.6-.9,1-.3,1-.3s1.1,1.2,1.2,2.1v.4a12.1,12.1,0,0,1-.1,1.9S136.3,99.7,135.3,98.7Z"/>
      <path id="Path_194190" data-name="Path 194190" class="cls-25" d="M134,97.7l-.4-.3a13.7,13.7,0,0,0,.4-2.3h.1v-.2h.3v.6Z"/>
      <path id="Path_194191" data-name="Path 194191" class="cls-16" d="M135.3,98.7a4.8,4.8,0,0,0,.5-1.7,3.7,3.7,0,0,0-.1-1.1c0-.1-.1-.2-.1-.4a3.9,3.9,0,0,0-.8-1.4c.6-.9,1-.3,1-.3s1.1,1.2,1.2,2.1v.4a12.1,12.1,0,0,1,0,1.9S136.3,99.7,135.3,98.7Z"/>
      <path id="Path_194192" data-name="Path 194192" class="cls-3" d="M135.3,98.7a4.8,4.8,0,0,0,.5-1.7,3.7,3.7,0,0,0-.1-1.1c0-.1-.1-.2-.1-.4a3.9,3.9,0,0,0-.8-1.4c.6-.9,1-.3,1-.3s1.1,1.2,1.2,2.1v.4a12.1,12.1,0,0,1,0,1.9S136.3,99.7,135.3,98.7Z"/>
      <path id="Path_194193" data-name="Path 194193" class="cls-26" d="M97.4,84.5s-1.7,4.4.9,6.6a3.4,3.4,0,0,1,.5-1.7,3.1,3.1,0,0,0,.5-1,6.3,6.3,0,0,1-1.9-3.9Z"/>
      <path id="Path_194194" data-name="Path 194194" class="cls-16" d="M163.3,71.2A49,49,0,0,1,151.9,77a14,14,0,0,1-8.1.4,6.8,6.8,0,0,1-2.8-1.7,7.9,7.9,0,0,1-1.4-1.7c-2.7-4.4-2.6-12.2-.5-18.9,1.5-4.7,4-8.9,7.3-11.1,8.1-5.3,18.4-3.6,23,3.9S171.3,65.8,163.3,71.2Z"/>
      <path id="Path_194195" data-name="Path 194195" class="cls-3" d="M163.3,71.2A49,49,0,0,1,151.9,77a14,14,0,0,1-8.1.4,6.8,6.8,0,0,1-2.8-1.7,7.9,7.9,0,0,1-1.4-1.7c-2.7-4.4-2.6-12.2-.5-18.9,1.5-4.7,4-8.9,7.3-11.1,8.1-5.3,18.4-3.6,23,3.9S171.3,65.8,163.3,71.2Z"/>
      <path id="Path_194196" data-name="Path 194196" class="cls-16" d="M143.1,80.1c-1,1.5-4.4-.1-4.4-.1s-1.2-1,0-1.8l.3-.2,1-.7.3-.4a4.4,4.4,0,0,0,.8-1.1,6.4,6.4,0,0,1,.2-.7l3.7,2-1.2.3c-.5.2-1,.5-1.1.8a.2.2,0,0,0,0,.3v.3l.3.2C143.8,79.9,143.1,80.1,143.1,80.1Z"/>
      <path id="Path_194197" data-name="Path 194197" class="cls-25" d="M142.7,78.5,140,77.3l.3-.3,2.3,1.2a.4.4,0,0,0,.1.3Z"/>
      <path id="Path_194198" data-name="Path 194198" class="cls-16" d="M143.1,80.1c-1,1.5-4.4-.1-4.4-.1s-1.2-1,0-1.8a3.1,3.1,0,0,0,1.5,1,3.3,3.3,0,0,0,2.9-.2C143.8,79.9,143.1,80.1,143.1,80.1Z"/>
      <path id="Path_194199" data-name="Path 194199" class="cls-3" d="M143.1,80.1c-1,1.5-4.4-.1-4.4-.1s-1.2-1,0-1.8a3.1,3.1,0,0,0,1.5,1,3.3,3.3,0,0,0,2.9-.2C143.8,79.9,143.1,80.1,143.1,80.1Z"/>
      <path id="Path_194200" data-name="Path 194200" class="cls-26" d="M162.3,44.5s-3.7-3-6.4-1a2.8,2.8,0,0,1,1.4,1,2.7,2.7,0,0,0,.8.7A6.1,6.1,0,0,1,162.3,44.5Z"/>
      <g id="Group_10094" data-name="Group 10094" class="cls-13">
        <path id="Path_194201" data-name="Path 194201" d="M90.4,68.2a3,3,0,0,0-.5,1.6c-2.6-2.2-.9-6.6-.9-6.6a6.3,6.3,0,0,0,1.9,3.9A3.7,3.7,0,0,1,90.4,68.2Z"/>
        <path id="Path_194202" data-name="Path 194202" d="M123.3,75.7l.8-4.2.6,1.1a7.2,7.2,0,0,1-.8,3.2Z"/>
        <path id="Path_194203" data-name="Path 194203" d="M123.1,77.2l-.4.4a11.6,11.6,0,0,1-2.6,2.3l-.8.5c-6.3,3.5-16.7,4.1-23.3.7a14.7,14.7,0,0,1,2.7-4.7c4.6-5.4,12.3-6.5,18.9-3.3a16.7,16.7,0,0,1,4.4,3.1Z"/>
        <path id="Path_194204" data-name="Path 194204" d="M126.9,77.5l-.3-.3a3.9,3.9,0,0,0-1-.8.5.5,0,0,0-.4-.2l-1.3-.4h-.6l.8-4.2.6,1.1c.3.4.7.9,1,.9h.3c.1-.1.2-.2.2-.3l.2-.2c.6-1,1-.4,1-.4,1.7.6,1.2,4.4,1.2,4.4S127.9,78.4,126.9,77.5Z"/>
        <path id="Path_194205" data-name="Path 194205" d="M125.6,76.4a.5.5,0,0,0-.4-.2,25.6,25.6,0,0,0,.5-2.7h.3Z"/>
        <path id="Path_194206" data-name="Path 194206" d="M126.9,77.5a4.1,4.1,0,0,0,.5-1.8,4,4,0,0,0-1-2.8c.6-1,1-.4,1-.4,1.7.6,1.2,4.4,1.2,4.4S127.9,78.4,126.9,77.5Z"/>
        <path id="Path_194207" data-name="Path 194207" class="cls-3" d="M126.9,77.5a4.1,4.1,0,0,0,.5-1.8,4,4,0,0,0-1-2.8c.6-1,1-.4,1-.4,1.7.6,1.2,4.4,1.2,4.4S127.9,78.4,126.9,77.5Z"/>
        <path id="Path_194208" data-name="Path 194208" class="cls-3" d="M89.9,69.8c-2.6-2.2-.8-6.6-.8-6.6a6.2,6.2,0,0,0,1.8,3.9,2.2,2.2,0,0,1-.5,1.1A4.3,4.3,0,0,0,89.9,69.8Z"/>
      </g>
      <path id="Path_194209" data-name="Path 194209" class="cls-16" d="M123.2,76.8l-.2.3a13.7,13.7,0,0,1-2.3,1.9l-.3.2-.6.3c-6.3,3.6-16.8,4.2-23.5.7a17.3,17.3,0,0,1-2.8-1.9c-7.1-6.6-8.4-17.3-2.7-24s12.3-6.5,18.9-3.2l.6.3a14.6,14.6,0,0,1,3.8,2.7,59.6,59.6,0,0,1,6.9,7.3l1.2,1.7.2.5.6.8.3.7a13,13,0,0,1,1.9,6.7,8.8,8.8,0,0,1-.7,3.2A11.8,11.8,0,0,1,123.2,76.8Z"/>
      <path id="Path_194210" data-name="Path 194210" class="cls-16" d="M127.4,76.6l-.2-.2a3.5,3.5,0,0,0-1-.8l-.4-.3-1.3-.4h-.7l.9-4.2a3.1,3.1,0,0,0,.5,1c.3.5.7,1,1.1,1l.3-.2.2-.2V72c.7-.9,1.1-.3,1.1-.3,1.6.6,1.1,4.4,1.1,4.4S128.5,77.6,127.4,76.6Z"/>
      <path id="Path_194211" data-name="Path 194211" class="cls-25" d="M126.2,75.6l-.4-.3a23.8,23.8,0,0,1,.5-2.6l.3-.2Z"/>
      <path id="Path_194212" data-name="Path 194212" class="cls-16" d="M127.4,76.6a4.9,4.9,0,0,0,.6-1.7,4.4,4.4,0,0,0-1.1-2.9c.7-.9,1.1-.3,1.1-.3,1.6.6,1.1,4.4,1.1,4.4S128.4,77.6,127.4,76.6Z"/>
      <path id="Path_194213" data-name="Path 194213" class="cls-3" d="M127.4,76.6a4.9,4.9,0,0,0,.6-1.7,4.4,4.4,0,0,0-1.1-2.9c.7-.9,1.1-.3,1.1-.3,1.6.6,1.1,4.4,1.1,4.4S128.4,77.6,127.4,76.6Z"/>
      <path id="Path_194214" data-name="Path 194214" class="cls-26" d="M89.6,62.4s-1.8,4.4.8,6.6a4.8,4.8,0,0,1,.5-1.7,1.9,1.9,0,0,0,.5-1A6.2,6.2,0,0,1,89.6,62.4Z"/>
      <g id="Group_10095" data-name="Group 10095" class="cls-13">
        <path id="Path_194215" data-name="Path 194215" d="M116,32.5l-1.1.2a2.6,2.6,0,0,0-1.5.4c.2-3.4,4.7-4.4,4.7-4.4A6.8,6.8,0,0,0,116,32.5Z"/>
        <path id="Path_194216" data-name="Path 194216" d="M122.4,63.5a5.1,5.1,0,0,1,.9,1.6l-1.8-.9c-4.6-2.4-9.2-7.6-11.8-13.2a16.7,16.7,0,0,1,4.4,3.1,59.6,59.6,0,0,1,6.9,7.3Z"/>
        <path id="Path_194217" data-name="Path 194217" d="M130.8,64.5a6.4,6.4,0,0,1-3,1.1l-.3-.6,3.8-1.6A3.7,3.7,0,0,0,130.8,64.5Z"/>
        <path id="Path_194218" data-name="Path 194218" d="M129.5,70.2s-1.5.3-1.4-1.1a.6.6,0,0,1,.1-.4,5.3,5.3,0,0,0,.1-1.3c0-.1-.1-.3-.1-.4a5.7,5.7,0,0,0-.4-1.4l-.3-.6,3.8-1.6a3.7,3.7,0,0,0-.5,1.1,1.7,1.7,0,0,0-.2,1.4l.3.2h.6c1.2,0,.9.6.9.6C132.8,68.5,129.5,70.2,129.5,70.2Z"/>
        <path id="Path_194219" data-name="Path 194219" d="M130.9,66.1l-2.6,1.3a.9.9,0,0,0-.1-.5l2.5-1Z"/>
        <path id="Path_194220" data-name="Path 194220" d="M129.5,70.2s-1.5.3-1.4-1.1l1.7-.5a3.9,3.9,0,0,0,1.7-2.5c1.1,0,.9.6.9.6C132.8,68.5,129.5,70.2,129.5,70.2Z"/>
        <path id="Path_194221" data-name="Path 194221" class="cls-3" d="M129.5,70.2s-1.5.3-1.4-1.1l1.7-.5a3.9,3.9,0,0,0,1.7-2.5c1.1,0,.9.6.9.6C132.8,68.5,129.5,70.2,129.5,70.2Z"/>
        <path id="Path_194222" data-name="Path 194222" class="cls-3" d="M116,32.5l-1.1.2a2.6,2.6,0,0,0-1.5.4c.2-3.4,4.7-4.4,4.7-4.4A6.8,6.8,0,0,0,116,32.5Z"/>
      </g>
      <path id="Path_194223" data-name="Path 194223" class="cls-16" d="M131,64.1a6.1,6.1,0,0,1-2.9,1.1h-2.2a11.1,11.1,0,0,1-3-.8l-1.1-.5h-.1c-4.4-2.3-8.8-7.2-11.4-12.4A19.1,19.1,0,0,1,108,40.7c1.2-9.9,9-17,17.6-15.9s14.5,10,13.3,19.8a68.1,68.1,0,0,1-2,10l-.3.9C135.4,59.2,133.6,62.4,131,64.1Z"/>
      <path id="Path_194224" data-name="Path 194224" class="cls-3" d="M131,64.1a6.1,6.1,0,0,1-2.9,1.1h-2.2a11.1,11.1,0,0,1-3-.8l-1.1-.5h-.1c-4.4-2.3-8.8-7.2-11.4-12.4A19.1,19.1,0,0,1,108,40.7c1.2-9.9,9-17,17.6-15.9s14.5,10,13.3,19.8a68.1,68.1,0,0,1-2,10l-.3.9C135.4,59.2,133.6,62.4,131,64.1Z"/>
      <path id="Path_194225" data-name="Path 194225" class="cls-16" d="M129.7,69.8s-1.5.3-1.3-1.1,0-.3.1-.4a2.9,2.9,0,0,0,0-1.3v-.5a6.5,6.5,0,0,0-.4-1.3l-.3-.6,3.8-1.6a4.7,4.7,0,0,0-.5,1,1.7,1.7,0,0,0-.2,1.5h.3c.1.1.1.1.2,0h.4c1.1,0,.9.7.9.7C133.1,68.1,129.7,69.8,129.7,69.8Z"/>
      <path id="Path_194226" data-name="Path 194226" class="cls-25" d="M131.2,65.6,128.6,67c0-.2-.1-.3-.1-.5a17.5,17.5,0,0,0,2.4-1.1Z"/>
      <path id="Path_194227" data-name="Path 194227" class="cls-16" d="M129.7,69.8s-1.5.3-1.3-1.1a4.9,4.9,0,0,0,1.7-.6,4.3,4.3,0,0,0,1.7-2.4c1.1,0,.9.6.9.6C133.1,68.1,129.7,69.8,129.7,69.8Z"/>
      <path id="Path_194228" data-name="Path 194228" class="cls-3" d="M129.7,69.8s-1.5.3-1.3-1.1a4.9,4.9,0,0,0,1.7-.6,4.3,4.3,0,0,0,1.7-2.4c1.1,0,.9.6.9.6C133.1,68.1,129.7,69.8,129.7,69.8Z"/>
      <path id="Path_194229" data-name="Path 194229" class="cls-26" d="M118.4,28.3s-4.5,1-4.8,4.4a4.9,4.9,0,0,1,1.6-.5,2,2,0,0,0,1.1-.1,6.3,6.3,0,0,1,2.1-3.8Z"/>
      <path id="Path_194230" data-name="Path 194230" class="cls-16" d="M178.7,101.8c-5.7,6.7-16.1,6.9-23.3.4a43.6,43.6,0,0,1-9.3-10.8,13.7,13.7,0,0,1-2-6.7,7.6,7.6,0,0,1,.8-3.3,7.1,7.1,0,0,1,1.2-1.8,14.4,14.4,0,0,1,5.7-4c7.5-3,18.5-2.7,23.9,2.2C183,84.3,184.3,95,178.7,101.8Z"/>
      <path id="Path_194231" data-name="Path 194231" class="cls-16" d="M144.7,88.2l-.6-1.1c-.3-.4-.7-.9-1.1-.9h-.2l-.2.3-.2.3c-.6.9-1.1.3-1.1.3-1.6-.6-1.1-4.4-1.1-4.4s.6-1.5,1.7-.5.1.1.2.2a3.9,3.9,0,0,0,1,.8l.4.2,1.3.4h.7Z"/>
      <path id="Path_194232" data-name="Path 194232" class="cls-25" d="M143,86.2h-.2l.3-3,.4.2A21.6,21.6,0,0,1,143,86.2Z"/>
      <path id="Path_194233" data-name="Path 194233" class="cls-16" d="M142.4,86.9c-.7.9-1.1.3-1.1.3-1.6-.6-1.1-4.4-1.1-4.4s.6-1.5,1.7-.5a4.9,4.9,0,0,0-.6,1.7A4.4,4.4,0,0,0,142.4,86.9Z"/>
      <path id="Path_194234" data-name="Path 194234" class="cls-3" d="M142.4,86.9c-.7.9-1.1.3-1.1.3-1.6-.6-1.1-4.4-1.1-4.4s.6-1.5,1.7-.5a4.9,4.9,0,0,0-.6,1.7A4.4,4.4,0,0,0,142.4,86.9Z"/>
      <path id="Path_194235" data-name="Path 194235" class="cls-26" d="M179.8,96.1s1.7-4.4-.9-6.5a3.3,3.3,0,0,1-.5,1.6,3.1,3.1,0,0,0-.5,1,6.3,6.3,0,0,1,1.9,3.9Z"/>
      <path id="Path_194236" data-name="Path 194236" class="cls-3" d="M146.1,93.8a13.1,13.1,0,0,1-2-6.7c-.3-.5-.7-.9-1-.9h-.3l-.2.3c-.1.1-.1.2-.2.2s-1,.4-1,.4c-1.7-.6-1.2-4.4-1.2-4.4s.6-1.5,1.7-.6l.2.3,1,.8.4.2,1.3.4L146,82a15.3,15.3,0,0,1,5.8-3.9C150.9,84,149.2,90.3,146.1,93.8Z"/>
      <path id="Path_194237" data-name="Path 194237" class="cls-3" d="M137,95.9l-1.4-.4-1.3-.4h-.2l-1.1-.5-.7-.5a29.9,29.9,0,0,1-11.9-14.8,17.9,17.9,0,0,1-1.1-5.1,13.1,13.1,0,0,1,0-2.8,20,20,0,0,1,2.4-7.5,2.5,2.5,0,0,0,.4-.7c3.3-5.2,8.7-8.3,14.5-7.7-1.3,3.8-3,7-5.6,8.7a1.8,1.8,0,0,0-.1,1.4l.3.2h.6c1.1,0,.9.6.9.6.4,1.8-3,3.5-3,3.5s-1.5.3-1.3-1.2a.4.4,0,0,1,.1-.3,2.8,2.8,0,0,0,0-1.3v-.5a5,5,0,0,0-.4-1.3h-2.2a9.8,9.8,0,0,1-2.9-.9l.3.7a13,13,0,0,1,1.9,6.7c.3.5.7.9,1.1.9h.3a.3.3,0,0,0,.1-.2l.2-.3c.7-1,1.1-.4,1.1-.4,1.6.7,1.1,4.5,1.1,4.5s-.7,1.4-1.7.5l-.3-.3a3.4,3.4,0,0,0-.9-.8l-.4-.2-1.3-.4-1.2,1.9-.3.3h.1a49.2,49.2,0,0,1,5.7,6.4c.5.7,1.1,1.4,1.5,2.1l.9,1.5a13,13,0,0,1,1.9,6.7c.3.5.6.9,1,.9h.3l.2-.2.2-.3c.6-1,1-.4,1-.4A2.7,2.7,0,0,1,137,95.9Z"/>
      <g id="Group_10096" data-name="Group 10096" class="cls-13">
        <path id="Path_194238" data-name="Path 194238" d="M129.6,62.4h-1.1a3.3,3.3,0,0,0-1.6.5c.3-3.5,4.8-4.5,4.8-4.5A6.5,6.5,0,0,0,129.6,62.4Z"/>
        <path id="Path_194239" data-name="Path 194239" d="M152.2,74.8l-.3,2.1a13.2,13.2,0,0,1-8.1.5c-.5.2-1.1.4-1.2.8v.3c.1.1.1.2.2.2l.2.3c.8.9.1,1.1.1,1.1-1,1.5-4.5-.1-4.5-.1s-1.1-1,0-1.8l.4-.2,1-.7.3-.4a3.5,3.5,0,0,0,.7-1.2,7.9,7.9,0,0,1-1.4-1.7c-2.7-4.4-2.6-12.2-.5-18.9C147.5,56.3,153.4,65.1,152.2,74.8Z"/>
        <path id="Path_194240" data-name="Path 194240" d="M144.4,94.3a8.6,8.6,0,0,1-3,1.2l-.3-.6,3.8-1.7-.5,1.1Z"/>
        <path id="Path_194241" data-name="Path 194241" d="M143.1,100.1s-1.6.2-1.4-1.2a.4.4,0,0,1,.1-.3,2.8,2.8,0,0,0,0-1.3v-.5a7.4,7.4,0,0,0-.4-1.4l-.3-.6,3.8-1.6a5.4,5.4,0,0,0-.5,1.1c-.2.5-.4,1.1-.2,1.4l.3.2h.6c1.1,0,.9.7.9.7C146.4,98.4,143.1,100.1,143.1,100.1Z"/>
        <path id="Path_194242" data-name="Path 194242" d="M144.5,95.9l-2.6,1.4a.7.7,0,0,0-.1-.5l2.4-1.1Z"/>
        <path id="Path_194243" data-name="Path 194243" d="M143,100.1s-1.5.2-1.3-1.2a3.4,3.4,0,0,0,1.7-.5,4.4,4.4,0,0,0,1.7-2.5c1.1,0,.9.7.9.7C146.4,98.4,143,100.1,143,100.1Z"/>
        <path id="Path_194244" data-name="Path 194244" class="cls-3" d="M143,100.1s-1.5.2-1.3-1.2a3.4,3.4,0,0,0,1.7-.5,4.4,4.4,0,0,0,1.7-2.5c1.1,0,.9.7.9.7C146.4,98.4,143,100.1,143,100.1Z"/>
        <path id="Path_194245" data-name="Path 194245" class="cls-3" d="M129.6,62.4h-1.1a3.3,3.3,0,0,0-1.6.5c.3-3.5,4.8-4.5,4.8-4.5A6.5,6.5,0,0,0,129.6,62.4Z"/>
      </g>
      <path id="Path_194246" data-name="Path 194246" class="cls-16" d="M151.3,75.4c-1.2,9.8-4.5,21.7-13,20.7s-19.1-14.8-17.9-24.6,9-17,17.5-15.9S152.4,65.5,151.3,75.4Z"/>
      <path id="Path_194247" data-name="Path 194247" class="cls-16" d="M142.1,100.6s-1.5.3-1.3-1.1v-.4a2.8,2.8,0,0,0,.1-1.3v-.4a7,7,0,0,0-.8-2l3.8-1.6s-1,1.9-.6,2.5l.3.2h.6c1.1,0,.9.6.9.6C145.5,99,142.1,100.6,142.1,100.6Z"/>
      <path id="Path_194248" data-name="Path 194248" class="cls-25" d="M143.5,96.5l-2.6,1.3v-.5l2.4-1,.2.2Z"/>
      <path id="Path_194249" data-name="Path 194249" class="cls-16" d="M142.1,100.6s-1.5.3-1.3-1.1a5.5,5.5,0,0,0,1.7-.5,4.2,4.2,0,0,0,1.6-2.5c1.2,0,.9.6.9.6C145.5,99,142.1,100.6,142.1,100.6Z"/>
      <path id="Path_194250" data-name="Path 194250" class="cls-3" d="M142.1,100.6s-1.5.3-1.3-1.1a5.5,5.5,0,0,0,1.7-.5,4.2,4.2,0,0,0,1.6-2.5c1.2,0,.9.6.9.6C145.5,99,142.1,100.6,142.1,100.6Z"/>
      <path id="Path_194251" data-name="Path 194251" class="cls-26" d="M130.8,59.1s-4.6,1-4.8,4.4a2.9,2.9,0,0,1,1.6-.4l1.1-.2a6.3,6.3,0,0,1,2.1-3.8Z"/>
      <path id="Path_194252" data-name="Path 194252" class="cls-27" d="M141.9,94.1a2.7,2.7,0,0,0-2,1.2,3.2,3.2,0,0,0-.5,2.3c.6,2,3,2.6,4.5,3.9a8.4,8.4,0,0,1,2.4,5.5,13.6,13.6,0,0,1-3.7,10.7c-1.4,1.4-3,2.4-4.4,3.9a24.7,24.7,0,0,0-3.8,5.9,15.2,15.2,0,0,0-1.6,5.1c-.3,2.8,1.1,5.5,2.7,7.8a46.9,46.9,0,0,1,4.9,6.8,15,15,0,0,1,.8,11.2,1.4,1.4,0,0,1-.5.8c-.1,0-.2.1-.4,0l-.3-.2"/>
      <path id="Path_194253" data-name="Path 194253" class="cls-27" d="M133.9,93.9a1.3,1.3,0,0,0,0,1.7,2.2,2.2,0,0,0,1.6.7c.7,0,1.5-.2,2.1.2a2.1,2.1,0,0,1,.7,1.5,8.6,8.6,0,0,0,.1,1.6,3.5,3.5,0,0,0,.7,1.2,4.1,4.1,0,0,0,1.3,1c1.1.4,2.3,0,3.4.4s2.3,2.1,2.7,3.6a10.6,10.6,0,0,1,.3,5.6,12.8,12.8,0,0,1-1.4,3.4,8.1,8.1,0,0,0-1,3.6,3.5,3.5,0,0,0,1.8,3.1"/>
      <path id="Path_194254" data-name="Path 194254" class="cls-28" d="M190.2,159.1l-1.3.8,1.7,6.1,1.3.9a17.6,17.6,0,0,1,4.9,4.5c1.9,2.8,10.1,10.5,9.1,7.3s-1.6-2.6-1.6-2.6,1.9-4.9-2.6-7.1-8.3-6.5-10.5-8.7Z"/>
      <path id="Path_194255" data-name="Path 194255" class="cls-29" d="M214.8,175a11.4,11.4,0,0,1,1.8,2.5,3.9,3.9,0,0,1,.3,3c-.2.6-.6,1-.8,1.6-1.1,2.5,1.7,5.4,1.2,8.1s-1.8,2.9-3.1,4.1-2.6,2.6-2.2,4.4a10.7,10.7,0,0,0,1,2.2,2.6,2.6,0,0,1,.2,2.4c-.8,1.2-3,1-3.3,2.3s1.4,2.6.7,3.6a1.4,1.4,0,0,1-1.6.5l-1.7-.5a2.5,2.5,0,0,0-2,1,2.7,2.7,0,0,0-.1,2.3c.4.7,1,1.2,1,1.9a1.5,1.5,0,0,1-.8,1.1,3,3,0,0,1-4-1.3h0a6.3,6.3,0,0,1-.3-3.6,4.5,4.5,0,0,0-.9-3.5l-1.4-.9a14.1,14.1,0,0,1-4-2.9,5.8,5.8,0,0,1-1.9-3.9c.1-1.7,1.5-3.2,1.4-4.9s-1.7-2.9-3.1-4-2.9-2.6-2.4-4.3,2.8-2.4,3.9-3.9a6.6,6.6,0,0,0,.9-1.9c.3-1.3.3-2.6.6-3.8a5.6,5.6,0,0,1,1.9-3.3,6.4,6.4,0,0,1,4.3-.6,11.1,11.1,0,0,0,4.4.3c1.1-.3,2.1-1,3.2-1.2a4.1,4.1,0,0,1,3.6,1.4c.6.6.6.7,1.3.8A3,3,0,0,1,214.8,175Z"/>
      <g id="Group_10097" data-name="Group 10097" class="cls-13">
        <path id="Path_194256" data-name="Path 194256" d="M212.8,203.6a5.1,5.1,0,0,1-1.8.9Z"/>
        <path id="Path_194257" data-name="Path 194257" d="M207.1,209.3a.9.9,0,0,0-.7.1,1.8,1.8,0,0,1,1.7-.7l1.7.5h.7a1.4,1.4,0,0,1-1.6.5A6.1,6.1,0,0,0,207.1,209.3Z"/>
        <path id="Path_194258" data-name="Path 194258" d="M195,176c-.2,1.2-.3,2.5-.6,3.8a4.2,4.2,0,0,1-.9,1.9c-1.1,1.5-3.4,2.1-3.9,3.9s1,3.3,2.4,4.4,3,2.2,3.1,3.9-1.2,3.2-1.3,4.9a5.3,5.3,0,0,0,1.8,3.9,16.8,16.8,0,0,0,4,3,4.2,4.2,0,0,1,1.4.9,4.1,4.1,0,0,1,.9,3.4,7.8,7.8,0,0,0,.3,3.7,3.1,3.1,0,0,0,3.5,1.4c-.1.2-.3.3-.4.4a3,3,0,0,1-4-1.2h0a6.8,6.8,0,0,1-.4-3.7,4.1,4.1,0,0,0-.8-3.4,7.1,7.1,0,0,0-1.4-1,12.8,12.8,0,0,1-4-2.9,5.8,5.8,0,0,1-1.9-3.9c.1-1.7,1.5-3.2,1.4-4.9s-1.8-2.9-3.2-4-2.8-2.6-2.3-4.3,2.7-2.4,3.9-3.9a4.6,4.6,0,0,0,.8-1.9c.3-1.3.4-2.6.7-3.8a5.6,5.6,0,0,1,1.9-3.3l.7-.3A5.6,5.6,0,0,0,195,176Z"/>
      </g>
      <path id="Path_194259" data-name="Path 194259" class="cls-30" d="M165.3,192.2l-1.3-1.9s-2.5,3.6,1,5.8S165.3,192.2,165.3,192.2Z"/>
      <path id="Path_194260" data-name="Path 194260" class="cls-3" d="M165.3,192.2l-1.3-1.9s-2.5,3.6,1,5.8S165.3,192.2,165.3,192.2Z"/>
      <path id="Path_194261" data-name="Path 194261" class="cls-28" d="M153.8,249.7s-.2,3.6-.8,7.1-.9,4.9-1.7,6-1.3,10.7-1.3,10.7l-2.2,9.3a11.5,11.5,0,0,1-1.7,5.4l-.3.5,1.5,2.7,2.5.6s4.2-1.4,3-4.3a3.1,3.1,0,0,1-.3-1.9c0-3.7,2.4-10,2.4-10s5.8-11.5,5.2-13.8a2.2,2.2,0,0,1-.1-.8c-.2-2.6,1.2-7.1,1.2-7.1Z"/>
      <path id="Path_194262" data-name="Path 194262" class="cls-28" d="M115.7,233.3A70.5,70.5,0,0,0,103.6,245c-1.5,2.3-5.5,4.9-5.5,4.9l-2.8,1.7a4.7,4.7,0,0,0-1,1,4.3,4.3,0,0,0-.4.7l4,4.8,2.4-2a13.5,13.5,0,0,0,3-3.7c.8-1.9,5.3-4.2,5.3-4.2s8.3-5.1,9.3-6a13.7,13.7,0,0,1,2.9-2l2-1.1a42.8,42.8,0,0,0,6.2-3.8l-3.9-6-7.1,3a5.2,5.2,0,0,0-2.3,1Z"/>
      <path id="Path_194263" data-name="Path 194263" class="cls-3" d="M146.1,287.7l-.3.5,1.5,2.7,2.5.7s4.2-1.5,3-4.4a2.9,2.9,0,0,1-.3-1.8c-1.3.3-1.8,2.2-1.8,2.2s-.1.7-2.1,1.5A2,2,0,0,1,146.1,287.7Z"/>
      <path id="Path_194264" data-name="Path 194264" class="cls-25" d="M145.7,287.5c-.6.5-.8,2.7-.9,4.2v1.4c0,.3,2.2,1.1,3.5.7s6.9,1.4,6.9,1.4a15.4,15.4,0,0,0,5.6-1c1.8-.6,1.6-1.5.8-2.2a6.4,6.4,0,0,0-2-1.1,4.1,4.1,0,0,1-2-1.7,12.4,12.4,0,0,0-2.6-2.5,4.7,4.7,0,0,0-2.5-1.1c-1.4.3-1.8,2.2-1.8,2.2s-.2.8-2.2,1.5S145.8,287.4,145.7,287.5Z"/>
      <path id="Path_194265" data-name="Path 194265" class="cls-3" d="M144.8,291.6V293c0,.4,2.2,1.1,3.5.8s6.9,1.3,6.9,1.3a17.7,17.7,0,0,0,5.6-.9c1.8-.7,1.6-1.5.8-2.2a20,20,0,0,1-6,1.2C153.6,293.1,146.7,291.9,144.8,291.6Z"/>
      <path id="Path_194266" data-name="Path 194266" class="cls-3" d="M94.5,252.3h-.2l-.4.6,4,4.9,2.4-2c-.4-2.5-5.5-4-5.5-4Z"/>
      <path id="Path_194267" data-name="Path 194267" class="cls-25" d="M90.3,253.7s.4,5.3,1.5,7.3,1.6,1.3,3,.5l1.6-.8c2.6-1.3,2.6-2.6,2.6-2.6,3.8-3.9-4.4-6.3-4.4-6.3l-.4.5a6.6,6.6,0,0,0-2.7.6l-1.2.8Z"/>
      <path id="Path_194268" data-name="Path 194268" class="cls-3" d="M90.3,253.6s.4,5.4,1.5,7.4,1.6,1.3,3,.5a5,5,0,0,1-2.6-3.4,15.2,15.2,0,0,1-.7-5.2l-1.2.7Z"/>
      <path id="Path_194269" data-name="Path 194269" class="cls-28" d="M190.2,182.9l-7,5.3-1.5,1.1,1.1,3.5,1,3.7,2.9,3.2s4-.5,6.2-2.6a4.1,4.1,0,0,0,1.5-2.7,3.6,3.6,0,0,1,.2-1l.6-1,1.1-.9a10.2,10.2,0,0,1,4.9-.8s-.8-9.2-2.2-7.8-3.3.7-4.9.3l-1.5-.3Z"/>
      <ellipse id="Ellipse_763" data-name="Ellipse 763" class="cls-3" cx="202.9" cy="185.9" rx="7.4" ry="7.6"/>
      <ellipse id="Ellipse_764" data-name="Ellipse 764" class="cls-28" cx="203.1" cy="185.7" rx="7.4" ry="7.6"/>
      <path id="Path_194270" data-name="Path 194270" class="cls-25" d="M164.7,194.7a21.1,21.1,0,0,0-3.1,3.6l1.8,10.8,10,3.8h0c.6-.5,7.8-6.9,10.6-5.9s8.7-2.4,8.7-2.4l3-6.4c.7-1.1-.5-5.9-.5-5.9l-.6,1a9.1,9.1,0,0,1-1.8,2.1,3.9,3.9,0,0,1-2.5,1h-.7c-3.6.6-4.6-3-4.8-4.6a2.8,2.8,0,0,1-.1-.6l-1.5-3.3-1-2.1s-15.4,8.1-16.8,8.5Z"/>
      <path id="Path_194271" data-name="Path 194271" class="cls-29" d="M194.6,193.2h0l-.6,1,1.9,3.3a17.7,17.7,0,0,0-.1-2.3Z"/>
      <path id="Path_194272" data-name="Path 194272" class="cls-6" d="M193.5,194.7l-.7.7h-.1l2.4,4.1.5-1.1Z"/>
      <path id="Path_194273" data-name="Path 194273" class="cls-6" d="M191.2,196.2l3,5.1a5.4,5.4,0,0,1,.5-1.1l-2.5-4.4Z"/>
      <path id="Path_194274" data-name="Path 194274" class="cls-6" d="M189.3,196.4l4,6.8.5-1.1-3.3-5.8h-1.2Z"/>
      <path id="Path_194275" data-name="Path 194275" class="cls-6" d="M192.7,204.5l-.5.3h0l-5.1-8.7,1.5.4,4.3,7.5Z"/>
      <path id="Path_194276" data-name="Path 194276" class="cls-29" d="M181.5,186.5l3.3,5.7h0a2.8,2.8,0,0,1-.1-.6l-1.5-3.3-1-2.1Z"/>
      <path id="Path_194277" data-name="Path 194277" class="cls-6" d="M179.9,187.2l10.7,18.5,1-.5-10.7-18.5Z"/>
      <path id="Path_194278" data-name="Path 194278" class="cls-6" d="M178.4,188l10.7,18.4.9-.4-10.7-18.5Z"/>
      <path id="Path_194279" data-name="Path 194279" class="cls-6" d="M176.9,188.7l10.5,18.2,1-.3-10.6-18.3Z"/>
      <path id="Path_194280" data-name="Path 194280" class="cls-6" d="M175.3,189.5l10.3,17.7h1.1L176.2,189Z"/>
      <path id="Path_194281" data-name="Path 194281" class="cls-6" d="M173.8,190.3l9.6,16.6h1.4l-10.1-17.3Z"/>
      <path id="Path_194282" data-name="Path 194282" class="cls-6" d="M172.2,191.1l9.4,16.1,1-.3-9.4-16.3Z"/>
      <path id="Path_194283" data-name="Path 194283" class="cls-29" d="M170.7,191.8,180,208l1-.5-9.4-16.1Z"/>
      <path id="Path_194284" data-name="Path 194284" class="cls-29" d="M169.2,192.6l9.4,16.2.8-.5-9.3-16.2Z"/>
      <path id="Path_194285" data-name="Path 194285" class="cls-29" d="M167.6,193.3l9.5,16.5.9-.6-9.5-16.3Z"/>
      <path id="Path_194286" data-name="Path 194286" class="cls-29" d="M166,194l9.7,16.8.9-.7L167,193.6Z"/>
      <path id="Path_194287" data-name="Path 194287" class="cls-6" d="M164.7,194.6l-.2.2,9.9,17.1.8-.7-9.8-17h0Z"/>
      <path id="Path_194288" data-name="Path 194288" class="cls-6" d="M164,195.2l-.8.8,9.6,16.6.6.2h0l.4-.5Z"/>
      <path id="Path_194289" data-name="Path 194289" class="cls-6" d="M162.8,196.6l-.7.9,8.2,14,1.5.6Z"/>
      <path id="Path_194290" data-name="Path 194290" class="cls-6" d="M161.7,198.1h-.1l.5,2.8,5.6,9.7,1.5.6Z"/>
      <path id="Path_194291" data-name="Path 194291" class="cls-29" d="M162.4,202.7l.5,2.9,2.2,3.9,1.6.6Z"/>
      <path id="Path_194292" data-name="Path 194292" class="cls-29" d="M163.2,207.5l.2,1.3.7.3Z"/>
      <path id="Path_194293" data-name="Path 194293" class="cls-3" d="M164.7,194.9l1,3.1,3.7,7.9,8.1-3.7a11.4,11.4,0,0,0,.7-4.1c-.1-1.6.7-3.9,4.5-5.3l.8-.3,1.2-.5a7.4,7.4,0,0,0,4.1-4.4v-.2l5.3-4-.2-.2-1.4-.4h-2.5l-6.9,5.3-1-2.1s-15.5,8.2-16.8,8.5Z"/>
      <path id="Path_194294" data-name="Path 194294" class="cls-30" d="M177.6,178.3a7.4,7.4,0,0,1-2.7,4c-2.3,1.7-2,2.7-2,2.7l-6.6,4.2s-1.2,1.6-2.3,1.4,1.6,7.3,1.6,7.3l3.7,8,8.1-3.7a14.2,14.2,0,0,0,.7-4.2c-.2-1.7.7-4.1,5.2-5.5a7.9,7.9,0,0,0,5.4-5h0l5.4-4a3.1,3.1,0,0,0-2.1-1.6h-.8a1.6,1.6,0,0,1-1.2-1.5c0-1,0-5.3-1.8-5.4S177.6,178.3,177.6,178.3Z"/>
      <path id="Path_194295" data-name="Path 194295" class="cls-30" d="M191.2,181.6l-3.4,3.2.9,2.7v-.2l5.4-3.9a3.4,3.4,0,0,0-2.1-1.6l-.8-.2Z"/>
      <path id="Path_194296" data-name="Path 194296" class="cls-3" d="M191.2,181.6l-3.4,3.2.9,2.7v-.2l5.4-3.9a3.4,3.4,0,0,0-2.1-1.6l-.8-.2Z"/>
      <path id="Path_194297" data-name="Path 194297" class="cls-3" d="M190.2,159.2l-1.3.8,1.7,6.1,1.3.9c-.1-.7-.7-3.8-.9-5.6a2,2,0,0,1,0-1.1c.1-.1.1,0,.2.1Z"/>
      <path id="Path_194298" data-name="Path 194298" class="cls-30" d="M178.9,156.2s-2,8.7-1.1,13.2c0,0,.8,6.4-.2,9.5l10.2-1.6.4-2a5.4,5.4,0,0,1-2.1-3c-.3-1.7-.8-3.5-.8-3.5a25.4,25.4,0,0,0-.7-4.7c-.4-1.1,1.2-1.3,2.4-.5l.5.3a1.7,1.7,0,0,0,.3,2.1,4.7,4.7,0,0,0,1.5.6h0a8.5,8.5,0,0,0,2.3.4s-.8-3.7-1-5.6v-1.2c.4-.2,2.9,2.4,2.9,2.4s.1-3.2-1.2-3.9-.3.9-1,.6l-8.7-4.9S179.6,151.7,178.9,156.2Z"/>
      <path id="Path_194299" data-name="Path 194299" class="cls-3" d="M186,159.7l1,3.9.5.3a1.7,1.7,0,0,0,.3,2.1,4.7,4.7,0,0,0,1.5.6h0l1.9.4s-.7-3.8-.9-5.7Z"/>
      <path id="Path_194300" data-name="Path 194300" class="cls-30" d="M186.4,159.8l1.1,4.1a1.7,1.7,0,0,0,.3,2.1,10.2,10.2,0,0,0,3.8,1s-.8-3.7-1-5.7Z"/>
      <path id="Path_194301" data-name="Path 194301" class="cls-26" d="M186.5,159.7l1.1,4.1a1.7,1.7,0,0,0,.3,2.1,8.6,8.6,0,0,0,3.8,1s-.8-3.7-1-5.6Z"/>
      <path id="Path_194302" data-name="Path 194302" class="cls-3" d="M161.2,254.5l-7.4-4.4s-.2,3.6-.8,7.1c2.6,1.7,5,3.3,7,4.4C159.8,259,161.2,254.5,161.2,254.5Z"/>
      <path id="Path_194303" data-name="Path 194303" class="cls-3" d="M115.7,233.5a26.1,26.1,0,0,0,3.1,4.3s.7,1,2,2.5l2-1a42.8,42.8,0,0,0,6.2-3.8l-3.9-6-7.1,3A5.2,5.2,0,0,0,115.7,233.5Z"/>
      <path id="Path_194304" data-name="Path 194304" class="cls-25" d="M139.5,209.2c-1.4,2.1-7.8,9.3-7.8,9.3a45.3,45.3,0,0,0-3,4.6c-1.1,2.2-4.6,5-7.3,7.5s-2.6.8-4.2,1.7,3.1,6.1,3.1,6.1,8,11.4,17,11.9,22.1,12.8,27.6,14,2.1-2,4.4-2.8a7,7,0,0,0,3.5-3.5s-.9-6.5-.2-8,1.5-7.3,1.5-7.3,0-5.1.4-6,.2-6.9,0-8.6,1.2-4.3,1.2-4.3-.5-.9.2-3-.6-8.6-.6-8.6c-11.7-7.1-13.7-14.7-13.7-14.7l-1.4.5C151,195.6,140.8,207,139.5,209.2Z"/>
      <path id="Path_194305" data-name="Path 194305" class="cls-3" d="M160.2,198.6s.9,10.2,15.1,14.2c-11.7-7.1-13.7-14.7-13.7-14.7Z"/>
      <path id="Path_194306" data-name="Path 194306" class="cls-3" d="M161.7,215.6s-11.6,19.6-11.9,20.6S162.2,216.2,161.7,215.6Z"/>
      <path id="Path_194307" data-name="Path 194307" class="cls-3" d="M160.7,209.7s-9,13.9-10.7,14.5C150,224.2,158.6,210.8,160.7,209.7Z"/>
      <path id="Path_194308" data-name="Path 194308" class="cls-3" d="M155.2,206.6s-6.3,4.7-11.2,4.2Z"/>
      <path id="Path_194309" data-name="Path 194309" class="cls-3" d="M153.5,203.7s-6.1,2.6-7.6,2.5Z"/>
      <path id="Path_194310" data-name="Path 194310" class="cls-3" d="M167.4,221l.5,13-2.2-3.8Z"/>
      <path id="Path_194311" data-name="Path 194311" class="cls-3" d="M205,179.5a3.7,3.7,0,0,0-.3,2.1,2,2,0,0,0,.8,1.2,5.9,5.9,0,0,1,2,3.3c.2,1.8-1.3,3.5-1.1,5.4a3,3,0,0,0,.5,1.6,4.6,4.6,0,0,0,.7.7,3.2,3.2,0,0,0,2.3.5,3.9,3.9,0,0,0,2.7-2.7,8.2,8.2,0,0,0,.1-4.1,35.5,35.5,0,0,0-4-10.1,1.8,1.8,0,0,0-.5-.7,5.3,5.3,0,0,0-3.3.1C204.2,177.4,205.6,179.1,205,179.5Z"/>
      <path id="Path_194312" data-name="Path 194312" class="cls-29" d="M205.2,179.3a3.9,3.9,0,0,0-.3,2.1,3.8,3.8,0,0,0,.9,1.3,5.3,5.3,0,0,1,1.9,3.2c.2,1.9-1.3,3.6-1.1,5.4a3.8,3.8,0,0,0,.6,1.6,2.8,2.8,0,0,0,2.9,1.3,4.1,4.1,0,0,0,2.8-2.8,9.4,9.4,0,0,0,0-4.1,35.9,35.9,0,0,0-3.9-10,1.8,1.8,0,0,0-.5-.7,4.2,4.2,0,0,0-3.3.1C204.4,177.3,205.8,178.9,205.2,179.3Z"/>
      <path id="Path_194313" data-name="Path 194313" class="cls-28" d="M218.2,223.1l-3.7,2.9,1.4,1,7.4,5.5s2.6,5.5,7.2,4-2.6-6.3-3.1-6.5l-1.4-.7-6.7-5.3Z"/>
      <path id="Path_194314" data-name="Path 194314" class="cls-3" d="M218.2,223.2l-3.7,2.9,1.4,1a14.3,14.3,0,0,0,3.5-3Z"/>
      <path id="Path_194315" data-name="Path 194315" class="cls-3" d="M175.8,199.2l-8,5.4,5.6,8.2c.6-.5,7.8-6.9,10.6-5.9s8.7-2.5,8.7-2.5,2.4-5.2,3-6.3-.5-6-.5-6a4.8,4.8,0,0,1,1.1-.9h-1a3.9,3.9,0,0,0-2.5,3.9v.6a3.1,3.1,0,0,0,.1,1v.2c.4,3.3-1,4.7-1,4.7a7.7,7.7,0,0,1-4,3.3C185.1,205.9,175.8,199.2,175.8,199.2Z"/>
      <path id="Path_194316" data-name="Path 194316" class="cls-30" d="M176.1,199.5l-8,5.4,6.3,9.2a17.3,17.3,0,0,0,4.1-3c1.1-1.3,6.3-3.5,6.3-3.5,6.2,2.3,8.9-1.6,8.9-1.6s7.3,11.7,7.8,11.8l4.4,3.2s3.1,4.1,4,4.4l.9.5.3.2-2.7,1.6h.1a4.4,4.4,0,0,0,1.6,1.7c1.2.7,9.1-4.4,9-5.6a1.4,1.4,0,0,0-.2-.6,8.3,8.3,0,0,0-2.1-1.6h-.3s-4.5-4.7-6-5.4-6.5-9-6.5-9-2.6-3.6-2.2-4.4-1.4-7.2-2.4-7.3-1.5-1.6-1.5-1.6-.1-2.1-.9-2.2h-1.4c-1.7.8-2.6,2.1-2.5,4.5,0,.4.1.8.1,1.2.4,3.3-1,4.7-1,4.7a6.6,6.6,0,0,1-4,3.3C185.4,206.2,176.1,199.5,176.1,199.5Z"/>
      <path id="Path_194317" data-name="Path 194317" class="cls-3" d="M218.8,222.9a.4.4,0,0,1,.1.3c.2,1.2-7.7,6.3-8.9,5.6a6.7,6.7,0,0,1-1.5-1.4h-.1l2.7-1.6-.3-.2h.1a7.8,7.8,0,0,0,5.7-4.2Z"/>
      <path id="Path_194318" data-name="Path 194318" class="cls-30" d="M211.1,225.6l-2.7,1.6a4.2,4.2,0,0,0,1.7,1.8c1.2.7,9.1-4.4,9-5.5s-1.7-1.9-2.3-2.3A8,8,0,0,1,211.1,225.6Z"/>
      <path id="Path_194319" data-name="Path 194319" class="cls-26" d="M211.1,225.6l-2.7,1.6a4.2,4.2,0,0,0,1.7,1.8c1.2.7,9.1-4.4,9-5.5s-1.7-1.9-2.3-2.3A8,8,0,0,1,211.1,225.6Z"/>
      <path id="Path_194320" data-name="Path 194320" class="cls-30" d="M193.1,196.5l1.9.8,2-5.4h-1.5C193.8,192.7,193,194,193.1,196.5Z"/>
      <path id="Path_194321" data-name="Path 194321" class="cls-3" d="M193.2,196.4l1.9.9,2-5.4h-1.5C193.9,192.7,193.1,194,193.2,196.4Z"/>
      <path id="Path_194322" data-name="Path 194322" class="cls-3" d="M205.7,179a3.9,3.9,0,0,0-.3,2.1,3.8,3.8,0,0,0,.9,1.3,5.3,5.3,0,0,1,1.9,3.2c.2,1.9-1.3,3.6-1.1,5.5a3.3,3.3,0,0,0,.5,1.6l.7.6a2.6,2.6,0,0,0,2.2.5l.8-.2a2.6,2.6,0,0,1-1.2.5,2.7,2.7,0,0,1-2.9-1.2,2.5,2.5,0,0,1-.6-1.6c-.2-1.8,1.3-3.5,1.1-5.4a5.6,5.6,0,0,0-1.9-3.3,2.2,2.2,0,0,1-.9-1.2,3.9,3.9,0,0,1,.3-2.1c.6-.4-.8-2-.1-2.7l.4-.2C205,177.2,206.3,178.6,205.7,179Z"/>
      <path id="Path_194323" data-name="Path 194323" class="cls-3" d="M188.8,193.5s-2.6.1-2.9,1.5,2.5-2.4,2.1-3"/>
      <path id="Path_194324" data-name="Path 194324" class="cls-28" d="M231,232.8s-6.5-3.2-5.6.9S231,232.8,231,232.8Z"/>
      <path id="Path_194716" data-name="Path 194716" class="cls-16" d="M217.2,209.1l6.2-2.9,31.7,72-6.2,2.9Z"/>
      <path id="Path_194325" data-name="Path 194325" class="cls-27" d="M140.7,94.4c-1.2,2.7-4.1,5.1-3.3,8a7.1,7.1,0,0,0,3.1,3.3c3,1.9,6,3.9,8.2,6.8s3.3,6.8,2,10.2-2.7,4.1-3.7,6.3a13.3,13.3,0,0,0-.7,9,28.8,28.8,0,0,0,3.5,8.3,4.7,4.7,0,0,0,2.2,2.4,6.5,6.5,0,0,0,2.4.2,9,9,0,0,1,6.7,4.4,20.9,20.9,0,0,1,2.3,8.1,9.9,9.9,0,0,0,1,4.1c1.1,1.7,3.2,2.2,5.1,2.5a57.2,57.2,0,0,0,14.9.8"/>
      <path id="Rectangle_7181" data-name="Rectangle 7181" class="cls-25" d="M179.9,163.2h2.8a3.1,3.1,0,0,1,3.1,3.1h0a3.1,3.1,0,0,1-3.1,3h-2.8a3,3,0,0,1-3-3h0A3,3,0,0,1,179.9,163.2Z"/>
    </g>
    <path id="Path_194339" data-name="Path 194339" class="cls-16" d="M31.3,456.3s-41.7,26.1,35.2,66.2c0,0,16.9-32.6-1.8-59.2a24.8,24.8,0,0,0-32.8-7.4Z"/>
    <path id="Path_194340" data-name="Path 194340" class="cls-31" d="M31.8,455.7S67.5,484,66.5,522.5"/>
    <path id="Path_194341" data-name="Path 194341" class="cls-32" d="M67.1,523S54,477,69.5,443.1a75,75,0,0,0,5.7-45.5,122.2,122.2,0,0,0-6.3-21.4"/>
    <path id="Path_194342" data-name="Path 194342" class="cls-16" d="M78.6,359.4c0,5.7-9.8,22-9.8,22s-9.9-16.3-9.9-22a9.9,9.9,0,1,1,19.7-.7v.7Z"/>
    <path id="Path_194343" data-name="Path 194343" class="cls-16" d="M96.3,390c-2.9,4.8-19.8,12.9-19.8,12.9s.3-19.2,3.3-24a9.7,9.7,0,0,1,13.3-3.2l.3.2A10.4,10.4,0,0,1,96.3,390Z"/>
    <path id="Path_194344" data-name="Path 194344" class="cls-16" d="M94.2,442.2c-4.9,2.5-23.4.7-23.4.7s9.7-16.5,14.5-19a9.8,9.8,0,0,1,13.1,4.2l.2.3a10.4,10.4,0,0,1-4.4,13.7Z"/>
    <path id="Path_194345" data-name="Path 194345" class="cls-16" d="M86.3,479.6c-4.3,3.3-22.9,4.9-22.9,4.9s6.8-18,11.2-21.3a9.6,9.6,0,0,1,13.5,1.7l.3.4a10.5,10.5,0,0,1-2.1,14.3Z"/>
    <path id="Path_194346" data-name="Path 194346" class="cls-16" d="M55.9,403.7c3.9,4,22,8,22,8s-4.4-18.7-8.3-22.6A9.5,9.5,0,0,0,56,389l-.4.3a10.4,10.4,0,0,0,.2,14.4Z"/>
    <path id="Path_194347" data-name="Path 194347" class="cls-16" d="M44.1,449.8c4.9,2.6,23.4.8,23.4.8s-9.7-16.5-14.5-19a9.7,9.7,0,0,0-13.1,4.1.8.8,0,0,1-.2.4,10.5,10.5,0,0,0,4.4,13.7Z"/>
    <path id="Path_194348" data-name="Path 194348" class="cls-16" d="M41.6,494.5c4.3,3.4,22.9,4.9,22.9,4.9s-6.8-17.9-11.2-21.3a9.6,9.6,0,0,0-13.5,1.8l-.3.3A10.5,10.5,0,0,0,41.6,494.5Z"/>
    <path id="Path_194349" data-name="Path 194349" class="cls-33" d="M78.6,359.4c0,5.7-9.8,22-9.8,22s-9.9-16.3-9.9-22a9.9,9.9,0,1,1,19.7-.7v.7Z"/>
    <path id="Path_194350" data-name="Path 194350" class="cls-33" d="M96.3,390c-2.9,4.8-19.8,12.9-19.8,12.9s.3-19.2,3.3-24a9.7,9.7,0,0,1,13.3-3.2l.3.2A10.4,10.4,0,0,1,96.3,390Z"/>
    <path id="Path_194351" data-name="Path 194351" class="cls-33" d="M94.2,442.2c-4.9,2.5-23.4.7-23.4.7s9.7-16.5,14.5-19a9.8,9.8,0,0,1,13.1,4.2l.2.3a10.4,10.4,0,0,1-4.4,13.7Z"/>
    <path id="Path_194352" data-name="Path 194352" class="cls-33" d="M86.3,479.6c-4.3,3.3-22.9,4.9-22.9,4.9s6.8-18,11.2-21.3a9.6,9.6,0,0,1,13.5,1.7l.3.4a10.5,10.5,0,0,1-2.1,14.3Z"/>
    <path id="Path_194353" data-name="Path 194353" class="cls-33" d="M55.9,403.7c3.9,4,22,8,22,8s-4.4-18.7-8.3-22.6A9.5,9.5,0,0,0,56,389l-.4.3a10.4,10.4,0,0,0,.2,14.4Z"/>
    <path id="Path_194354" data-name="Path 194354" class="cls-33" d="M44.1,449.8c4.9,2.6,23.4.8,23.4.8s-9.7-16.5-14.5-19a9.7,9.7,0,0,0-13.1,4.1.8.8,0,0,1-.2.4,10.5,10.5,0,0,0,4.4,13.7Z"/>
    <path id="Path_194355" data-name="Path 194355" class="cls-33" d="M41.6,494.5c4.3,3.4,22.9,4.9,22.9,4.9s-6.8-17.9-11.2-21.3a9.6,9.6,0,0,0-13.5,1.8l-.3.3A10.5,10.5,0,0,0,41.6,494.5Z"/>
    <path id="Path_194356" data-name="Path 194356" class="cls-32" d="M97.3,523.9s-13-46,2.5-79.9a75.2,75.2,0,0,0,5.7-45.6,130.3,130.3,0,0,0-6.3-21.3"/>
    <path id="Path_194357" data-name="Path 194357" class="cls-16" d="M108.9,360.3c0,5.6-9.9,22-9.9,22s-9.8-16.4-9.8-22a9.9,9.9,0,1,1,19.7-.7v.7Z"/>
    <path id="Path_194358" data-name="Path 194358" class="cls-16" d="M125.2,390.9c-3,4.7-19.8,12.9-19.8,12.9s.3-19.3,3.2-24a9.7,9.7,0,0,1,13.3-3.3l.4.3a10.4,10.4,0,0,1,2.9,14.1Z"/>
    <path id="Path_194359" data-name="Path 194359" class="cls-16" d="M124.5,443c-4.9,2.6-23.4.8-23.4.8s9.6-16.5,14.5-19a9.7,9.7,0,0,1,13.1,4.1c0,.2.1.3.1.4A10.3,10.3,0,0,1,124.5,443Z"/>
    <path id="Path_194360" data-name="Path 194360" class="cls-16" d="M115.1,480.5c-4.3,3.3-22.9,4.8-22.9,4.8s6.9-17.9,11.2-21.2a9.6,9.6,0,0,1,13.5,1.7l.3.4a10.5,10.5,0,0,1-2.1,14.3Z"/>
    <path id="Path_194361" data-name="Path 194361" class="cls-16" d="M84.7,404.6c3.9,3.9,22.1,8,22.1,8s-4.5-18.7-8.4-22.6a9.6,9.6,0,0,0-13.6-.2l-.3.4a10.4,10.4,0,0,0,.2,14.4Z"/>
    <path id="Path_194362" data-name="Path 194362" class="cls-16" d="M75.8,450.7c4.9,2.5,23.4.7,23.4.7s-9.7-16.5-14.5-19a9.7,9.7,0,0,0-13.1,4.2l-.2.3a10.4,10.4,0,0,0,4.4,13.7Z"/>
    <path id="Path_194363" data-name="Path 194363" class="cls-16" d="M70.4,495.4c4.4,3.3,22.9,4.9,22.9,4.9s-6.8-18-11.2-21.3a9.6,9.6,0,0,0-13.5,1.7c-.1.2-.1.3-.2.4A10.4,10.4,0,0,0,70.4,495.4Z"/>
  </g>
  <rect id="Rectangle_7193" data-name="Rectangle 7193" class="cls-16" x="12.6" y="523" width="681.1" height="5"/>
</svg>
