<svg id="Layer_1" data-name="Layer 1" xmlns="http://www.w3.org/2000/svg" xmlns:xlink="http://www.w3.org/1999/xlink" width="706" height="528" viewBox="0 0 706 528">
  <defs>
    <style>
      .cls-1, .cls-3 {
        fill: #0d5bb9;
      }

      .cls-2, .cls-4, .cls-9 {
        fill: none;
        stroke-miterlimit: 10;
      }

      .cls-2, .cls-9 {
        stroke: #444053;
      }

      .cls-17, .cls-3 {
        opacity: 0.1;
      }

      .cls-14, .cls-17, .cls-3 {
        isolation: isolate;
      }

      .cls-4 {
        stroke: #535461;
        stroke-width: 2px;
      }

      .cls-5 {
        fill: url(#linear-gradient);
      }

      .cls-6 {
        fill: #f6f7f9;
      }

      .cls-7 {
        opacity: 0.2;
      }

      .cls-8 {
        fill: #444053;
      }

      .cls-9 {
        stroke-width: 0.75px;
      }

      .cls-10 {
        fill: #ffb9b9;
      }

      .cls-11 {
        fill: #797c9c;
      }

      .cls-12 {
        fill: url(#linear-gradient-2);
      }

      .cls-13 {
        fill: url(#linear-gradient-3);
      }

      .cls-14 {
        opacity: 0.05;
      }

      .cls-15 {
        fill: #e4e2f3;
      }

      .cls-16 {
        fill: #4c4c78;
      }

      .cls-18 {
        fill: #b36362;
      }

      .cls-19 {
        fill: #e8eaf1;
      }

      .cls-20 {
        fill: url(#linear-gradient-4);
      }

      .cls-21 {
        fill: #db8b8b;
      }

      .cls-22 {
        fill: #474463;
      }

      .cls-23 {
        fill: #cbcdda;
      }

      .cls-24 {
        fill: #472727;
      }
    </style>
    <linearGradient id="linear-gradient" x1="-141.26" y1="763.29" x2="-141.26" y2="764.29" gradientTransform="matrix(529.42, 0, 0, -329.46, 75151.84, 251861.6)" gradientUnits="userSpaceOnUse">
      <stop offset="0" stop-color="gray" stop-opacity="0.25"/>
      <stop offset="0.54" stop-color="gray" stop-opacity="0.12"/>
      <stop offset="1" stop-color="gray" stop-opacity="0.1"/>
    </linearGradient>
    <linearGradient id="linear-gradient-2" x1="-140.62" y1="762.68" x2="-140.62" y2="763.68" gradientTransform="matrix(144.34, 0, 0, -177.38, 20852.6, 135701.97)" xlink:href="#linear-gradient"/>
    <linearGradient id="linear-gradient-3" x1="-140.22" y1="763.19" x2="-140.22" y2="764.19" gradientTransform="matrix(99.08, 0, 0, -291.7, 14541.95, 223146.2)" xlink:href="#linear-gradient"/>
    <linearGradient id="linear-gradient-4" x1="-139.74" y1="763.17" x2="-139.74" y2="764.17" gradientTransform="matrix(71.2, 0, 0, -281.85, 10339.96, 215626.02)" xlink:href="#linear-gradient"/>
  </defs>
  <title>Artboard 1</title>
  <g id="Group_10172" data-name="Group 10172">
    <path id="Path_194000" data-name="Path 194000" class="cls-1" d="M28.2,174s-.7-3.4,25.4,8.6,29.4,10.5,36.2,8.7,10.5-2.3,17.8-12.3c0,0,5.1-27.7,10-32s26,2.4,26,2.4,25.2,5.8,30.1-27.9c0,0-3.5-25.4,1.2-33.2,0,0-9.4,4-24.9-2.5s-27.8,7-27.8,7-3.9,10.1-3.5,16.1-2.1,8.3-9.5,5.4c0,0-3.6-5.2,1.5-13.7s8.8-14.9,7.4-21.5-5.5-15.8-18.8-20.4-31.2-5.4-39.8-9-10.8-6-10.8-6,5.4,5.3-7.2,27.9S37,104,37,104s6.7,15.8,36,14.5c0,0,28.4,1.1,12.9,13.1,0,0-9.9-2-24.6-6.7S35.8,139.6,33.2,153,28.2,174,28.2,174Z"/>
    <path id="Path_194016" data-name="Path 194016" class="cls-2" d="M114.2,80.8s-13,28-22.5,31.5"/>
    <path id="Path_194326" data-name="Path 194326" class="cls-3" d="M30.2,337.6c-8.2,1.3-18.7,5.2-18.6,14.1.1,4.6,3.1,8.5,6.1,11.8a219.1,219.1,0,0,0,42.4,37.4c7.4,5.1,15.5,9.9,20.4,17.8s6.3,17.8,6.7,27.3a210.6,210.6,0,0,1-7.9,66.5c24.4,4.6,51.5,8.7,71.8-5.9,12.2-8.8,20.4-23.5,34-29.6,9-4.1,19.2-3.7,29.1-3.2q70.1,3.8,139.6,13.8c19.5,2.9,39.3,6.1,58.6,2.4s38.1-15.6,45.2-35c1.1-3,2.1-6.3,4.5-8.1s5.1-1.6,7.8-1.5L632.5,451c8.9.3,18.1.6,26.2-3.1s14-10.4,19.9-17c13.3-15.3,27.7-34.1,23.8-54.8-3.2-16.5-17.2-28.1-31.2-36.3s-29.3-14.7-39.5-27.7c-15.6-19.7-15-48-16-73.6a412.9,412.9,0,0,0-8.5-69.1c-4.2-19.9-10.1-39.9-21.1-56.8s-27.8-30.4-46.9-32.9c-24.8-3.2-49.8,12.3-74.1,5.7-20.5-5.5-34.7-25.2-51.7-38.8C383.2,22.4,346.5,17.4,309,16.9c-39.7-.5-83.5,3.5-118.9,22.2-8.1,4.3-16.1,9.4-21.7,17-8.6,11.6-10.7,27.1-16.3,40.6C129.4,151.2,55.5,163,31.5,216.9c-8.5,19.2-8.4,41.5-2.2,61.6C36,300.1,54.7,312,62.2,330.9,54.2,336,40,336,30.2,337.6Z"/>
    <g id="Group_10098" data-name="Group 10098">
      <path id="Path_194327" data-name="Path 194327" class="cls-4" d="M616,265.1s3.4-45.6,29.2-70.4a69.4,69.4,0,0,0,20.6-38.6,116.7,116.7,0,0,0,1.4-21.3"/>
      <path id="Path_194328" data-name="Path 194328" class="cls-1" d="M683.4,119.1c-1.9,5-16.6,16.2-16.6,16.2s-3.5-18-1.6-23a9.7,9.7,0,1,1,18.3,6.5.4.4,0,0,0-.1.3Z"/>
      <path id="Path_194329" data-name="Path 194329" class="cls-1" d="M687.9,152.7c-4.4,3.1-22.7,4.5-22.7,4.5s6.8-17,11.1-20.2a9.8,9.8,0,0,1,11.6,15.7Z"/>
      <path id="Path_194330" data-name="Path 194330" class="cls-1" d="M669.2,200c-5.3.5-21.8-7.5-21.8-7.5s14.4-11.3,19.8-11.9a9.8,9.8,0,0,1,2,19.4Z"/>
      <path id="Path_194331" data-name="Path 194331" class="cls-1" d="M647.1,232.6c-5.2,1.4-22.9-3.7-22.9-3.7s12.4-13.5,17.6-15a9.7,9.7,0,0,1,5.3,18.7Z"/>
      <path id="Path_194332" data-name="Path 194332" class="cls-1" d="M645.8,151c2.2,4.9,17.7,14.8,17.7,14.8s2.1-18.2-.1-23.1a9.8,9.8,0,0,0-13-4.5,9.7,9.7,0,0,0-4.6,12.8Z"/>
      <path id="Path_194333" data-name="Path 194333" class="cls-1" d="M620.3,189.5c3.6,3.9,21.3,8.9,21.3,8.9s-3.3-18.1-7-22.1a9.7,9.7,0,1,0-14.3,13.2Z"/>
      <path id="Path_194334" data-name="Path 194334" class="cls-1" d="M600.7,230.3c2.9,4.5,19.5,12.3,19.5,12.3s-.2-18.3-3.1-22.8a9.7,9.7,0,0,0-16.4,10.5Z"/>
    </g>
    <path id="Path_194335" data-name="Path 194335" class="cls-5" d="M100.4,62.8V392.2H629.8V62.8Z"/>
    <rect id="Rectangle_7182" data-name="Rectangle 7182" class="cls-6" x="106" y="66.2" width="518.2" height="25.16"/>
    <g id="Group_10099" data-name="Group 10099" class="cls-7">
      <rect id="Rectangle_7183" data-name="Rectangle 7183" class="cls-1" x="106" y="66.2" width="518.2" height="25.16"/>
    </g>
    <path id="Path_194003" data-name="Path 194003" class="cls-8" d="M106,132.2l-.2.3c15.8,19.8,16.9,50.4,16.9,50.7l3.4-3.8C126,179.1,121.9,152.1,106,132.2Z"/>
    <path id="Path_194004" data-name="Path 194004" class="cls-2" d="M33.5,163.3s18.7-9.7,33.3-6.3,47.3-12.3,47.3-12.3,13.9-5.6,16.7-12.1c0,0,9.5-10,10.1-15.3s9.8-18.3,15.8-18.8"/>
    <path id="Path_194005" data-name="Path 194005" class="cls-2" d="M36.3,172.6s9.4-6.3,8.3-13.7"/>
    <path id="Path_194006" data-name="Path 194006" class="cls-2" d="M50.7,180.8s13.4-4.9,14.8-24"/>
    <path id="Path_194007" data-name="Path 194007" class="cls-2" d="M72.3,185.7a29.8,29.8,0,0,0,8.6-29.2"/>
    <path id="Path_194008" data-name="Path 194008" class="cls-2" d="M98.4,180.5s8.6-17.9,1-29.6"/>
    <path id="Path_194009" data-name="Path 194009" class="cls-2" d="M33.3,151.4s9.8,3.1,7.7,8.2"/>
    <path id="Path_194010" data-name="Path 194010" class="cls-2" d="M45.1,133.8s13,4.1,13.3,22.5"/>
    <path id="Path_194011" data-name="Path 194011" class="cls-2" d="M63.2,129.5s11.8,14.6,11,27.9"/>
    <path id="Path_194012" data-name="Path 194012" class="cls-2" d="M83.9,135.3s11.8,11.2,10.3,17.5"/>
    <path id="Path_194013" data-name="Path 194013" class="cls-2" d="M91,131.3s11.1,2,12.6-1.6"/>
    <path id="Path_194014" data-name="Path 194014" class="cls-2" d="M105.4,118s-5.6,7.4-7,5.7"/>
    <path id="Path_194015" data-name="Path 194015" class="cls-2" d="M50.1,113.3s27.8,2,34.1-6.3"/>
    <path id="Path_194017" data-name="Path 194017" class="cls-2" d="M97.5,67.5s-8,25.7-17.9,33.8"/>
    <path id="Path_194018" data-name="Path 194018" class="cls-9" d="M38.5,92.1s21.1,9,33.8-.1"/>
    <path id="Path_194019" data-name="Path 194019" class="cls-9" d="M78.7,62S73.9,80.9,67.4,85.5"/>
    <path id="Path_194020" data-name="Path 194020" class="cls-9" d="M41.6,70.9s11.9,4.5,16.3,1"/>
    <path id="Path_194021" data-name="Path 194021" class="cls-2" d="M115.5,124.2s.1,16.5,4.5,17.6"/>
    <rect id="Rectangle_7184" data-name="Rectangle 7184" class="cls-6" x="106" y="91.4" width="518.2" height="297.33"/>
    <circle id="Ellipse_765" data-name="Ellipse 765" class="cls-6" cx="118.4" cy="78.7" r="5.6"/>
    <circle id="Ellipse_766" data-name="Ellipse 766" class="cls-6" cx="133.3" cy="78.7" r="5.6"/>
    <circle id="Ellipse_767" data-name="Ellipse 767" class="cls-6" cx="148.3" cy="78.7" r="5.6"/>
    <g id="Group_10100" data-name="Group 10100" class="cls-7">
      <rect id="Rectangle_7185" data-name="Rectangle 7185" class="cls-1" x="124" y="128.4" width="266.6" height="19.26"/>
    </g>
    <g id="Group_10101" data-name="Group 10101" class="cls-7">
      <rect id="Rectangle_7186" data-name="Rectangle 7186" class="cls-1" x="458.9" y="128.4" width="139.8" height="19.26"/>
    </g>
    <g id="Group_10102" data-name="Group 10102" class="cls-7">
      <rect id="Rectangle_7187" data-name="Rectangle 7187" class="cls-1" x="175.9" y="310.4" width="18.6" height="61.52"/>
      <rect id="Rectangle_7188" data-name="Rectangle 7188" class="cls-1" x="211.9" y="266.3" width="18.6" height="105.63"/>
      <rect id="Rectangle_7189" data-name="Rectangle 7189" class="cls-1" x="248" y="222.2" width="18.6" height="149.75"/>
      <rect id="Rectangle_7190" data-name="Rectangle 7190" class="cls-1" x="284" y="236.5" width="18.6" height="135.46"/>
      <rect id="Rectangle_7191" data-name="Rectangle 7191" class="cls-1" x="320.1" y="278.7" width="18.6" height="93.21"/>
    </g>
    <g id="Group_10103" data-name="Group 10103" class="cls-7">
      <rect id="Rectangle_7192" data-name="Rectangle 7192" class="cls-1" x="458.6" y="189.9" width="139.8" height="171.81"/>
    </g>
    <rect id="Rectangle_7193" data-name="Rectangle 7193" class="cls-1" x="12.6" y="523" width="681.1" height="5"/>
    <g>
      <g>
        <circle id="Ellipse_768" data-name="Ellipse 768" class="cls-10" cx="658.2" cy="260.6" r="14.4"/>
        <path id="Path_194337" data-name="Path 194337" class="cls-11" d="M622.4,248.4s-7.4,4.3-5.1,10.2c0,0,7.6,2.3,10.7,7.9s27.1,26,27.1,26l17.5-8.8s-6.1-8.1-25.3-13.8c0,0-11.4-12.1-15.3-14.4A74.4,74.4,0,0,1,622.4,248.4Z"/>
        <rect id="Rectangle_7194" data-name="Rectangle 7194" class="cls-12" x="483.1" y="243.6" width="144.3" height="177.38"/>
        <rect id="Rectangle_7195" data-name="Rectangle 7195" class="cls-1" x="485.4" y="246.4" width="139.8" height="171.81"/>
        <path id="Path_194373" data-name="Path 194373" class="cls-10" d="M650.3,269.6s5.9,16.6,0,25.4,18.9,5.9,18.9,5.9l9.6-11.6s-11.3,0-11.9-19.7S650.3,269.6,650.3,269.6Z"/>
        <path id="Path_194377" data-name="Path 194377" class="cls-10" d="M600.9,263.3s.5-10.9,12.1-9.9a2,2,0,0,1,1.7,2.2,1.9,1.9,0,0,1-.2.7l-2.3,4.4Z"/>
        <path id="Path_194336" data-name="Path 194336" class="cls-13" d="M697.2,312.2c-.9-4.6-2.6-9-2.6-13.7-.1-7.5,3.9-16.2-1.3-21.8-1.2-1.2-2.9-2.2-3.7-3.7a8.3,8.3,0,0,1-1-4.1c-.1-8.8,4.8-17.7,1.9-26a9.1,9.1,0,0,0-3.3-4.6,10.2,10.2,0,0,0-5.7-1.3l-5.7.3a11.9,11.9,0,0,1-3.2-.5c-2.2-.6-4.1-2-6.3-2.8a10.5,10.5,0,0,0-3.6-.4c-4.8-.2-9.1,3-12.6,6.1a53,53,0,0,1-5.4,3.9c.3-.2-6.6,4.6-4,4.6a9.6,9.6,0,0,1,5.2,1.8,13.8,13.8,0,0,0,.7,16.2l-3.7-3.5c-3.8-3.8-9.2-8.9-11.7-10.2a87.5,87.5,0,0,1-10.1-7.1s-7.6,4.3-5.3,10.3a16.1,16.1,0,0,1,3.3,1.2,6.9,6.9,0,0,0,.5,2.4,22.5,22.5,0,0,1,6.8,3.3l.7,1c1,1.8,4.2,5.1,8,8.7s6.4,6,10,9.1c-1.1,2.2-2.3,4.3-2.5,6.5l-.8-.4c-5.3-2.9-17.7-2.6-17.7-2.6s-10.3-5.4-12.4-17.6c0,0-2.1-7.4-1.5-9.4h.3l2.4-4.5a2,2,0,0,0-.8-2.7,1.1,1.1,0,0,0-.8-.2c-12.1-1.1-12.7,10-12.7,10h.1c1.5,7.2,2.7,6.6,2.4,12.3l4.7,12.5s.3,4.3,8.9,9.9A183,183,0,0,1,633,309.8s-5.2,2.7-3.3,15c2.4,15.1-1.2,36.7-1.2,36.7v14l.7-.2a6.1,6.1,0,0,0-.2,1.5,78.5,78.5,0,0,0-.5,21.1c1.8,14.8,8.9,35,8.9,35a73,73,0,0,1,3.3,12.8,11.4,11.4,0,0,0,.7,3.3,26.2,26.2,0,0,1,2.1,9.9,71.3,71.3,0,0,0,4.5,25c3,7.6,4.1,12,4.5,14.6-2.2,2.8-4.9,5.8-7.1,6.1-4.2.6-12.1,1.2-6.8,8l.6.6c-4,.7-8.5,2.1-4.2,7.6s36.7,3.7,36.7,3.7.2-3.8,0-7.9l3.5-.3s.9-16.5-2.9-18.5a8,8,0,0,0-2.1.5c-.4-2.3-.7-5.1-.9-7.2h1.5v-.2h.1V466s-1.8-15.4-8.3-22.2a14.6,14.6,0,0,1-2.1-2.8v-7.8h.1l.3-.5.5-.6h.1s3.6-4.3,15.7-31.3c7.3-16.5,5.4-25.8,2.7-30.5-.5-2.2-1.7-7-3.1-15.2a62.3,62.3,0,0,1-.9-10.6,21,21,0,0,0,5.6.7,19.6,19.6,0,0,0,8.6-1.9c-1.9-2.8-4-6.1-3-9.3s5.5-5.4,8-8.4S698.1,316.7,697.2,312.2Z"/>
        <path id="Path_194338" data-name="Path 194338" class="cls-14" d="M625.9,252s-7.3,4.3-5,10.2c0,0,7.6,2.2,10.7,7.9S658.7,296,658.7,296l17.5-8.7s-6.1-8.1-25.3-13.8c0,0-11.4-12.2-15.3-14.4A83.1,83.1,0,0,1,625.9,252Z"/>
        <path id="Path_194364" data-name="Path 194364" class="cls-10" d="M668.1,489s.8,12.4,2.2,13.9-12.7,2.2-12.7,2.2l2-16.1Z"/>
        <path id="Path_194365" data-name="Path 194365" class="cls-14" d="M668.1,489s.8,12.4,2.2,13.9-12.7,2.2-12.7,2.2l2-16.1Z"/>
        <path id="Path_194366" data-name="Path 194366" class="cls-15" d="M671.2,498.6s-2,0-9,3.7c0,0-4.9-.9-6.8-7.6,0,0-5.9,10.1-9.9,10.7s-11.5,1.1-6.5,7.9,35,3.7,35,3.7S674.8,500.6,671.2,498.6Z"/>
        <path id="Path_194367" data-name="Path 194367" class="cls-14" d="M671.2,498.6s-2,0-9,3.7c0,0-4.9-.9-6.8-7.6,0,0-5.9,10.1-9.9,10.7s-11.5,1.1-6.5,7.9,35,3.7,35,3.7S674.8,500.6,671.2,498.6Z"/>
        <path id="Path_194368" data-name="Path 194368" class="cls-10" d="M666.9,508.2l-1.9,5.4-13-3.7.7-5.3.2-1.3.5-3.6s11-2.8,11-1.4a18.6,18.6,0,0,0,.7,3.4c.4,1.8,1,3.7,1.4,5A11,11,0,0,1,666.9,508.2Z"/>
        <path id="Path_194369" data-name="Path 194369" class="cls-16" d="M659.9,434.6a7.5,7.5,0,0,0,0,7.9,11,11,0,0,0,2,2.8c6.2,6.8,7.9,22,7.9,22v24.5l-4.2.4-6.8.5-10.2-41.8s-5.9-30.4-3.1-35.8,5.4-38.9,5.4-38.9l2.3-2.4,5.6-5.8h16.1a12.8,12.8,0,0,1,3.1,3.5c2.7,4.5,5.1,13.8-2.3,30.9-11.5,26.8-14.9,31.1-14.9,31.1A3.1,3.1,0,0,0,659.9,434.6Z"/>
        <path id="Path_194370" data-name="Path 194370" class="cls-14" d="M659.9,434.5a8,8,0,0,0,0,7.9,14.6,14.6,0,0,0,2.1,2.8c6.2,6.8,7.9,22,7.9,22v24.5l-4.3.4-6.7.5-10.2-41.8s-5.9-30.4-3.1-35.8,5.4-38.9,5.4-38.9l2.3-2.4,5.6-5.8H675a11.7,11.7,0,0,1,3.1,3.5c2.7,4.5,5.1,13.8-2.3,30.9-11.6,26.8-14.9,31-14.9,31Z"/>
        <path id="Path_194371" data-name="Path 194371" class="cls-17" d="M665.1,501.8l-12.2,1.5.5-3.6s11-2.8,11-1.4A21.7,21.7,0,0,0,665.1,501.8Z"/>
        <path id="Path_194372" data-name="Path 194372" class="cls-16" d="M659,398.5s.7,22.2.8,36.2v7.8a10.8,10.8,0,0,1-.2,3.1c-.8,2.5.9,8.2.9,8.2a81.7,81.7,0,0,1,5,35v12.4L652,502.9s2.3-1.7-4-18.1a71.8,71.8,0,0,1-4.3-24.7,25.3,25.3,0,0,0-2-9.8,13,13,0,0,1-.7-3.3,62,62,0,0,0-3.1-12.7s-6.8-20-8.5-34.7a86,86,0,0,1,.4-20.9c.3-1.8.6-3.6,1-5.3,0,0,27.6-17.3,38-5.4a16.3,16.3,0,0,1,2.4,4,31.9,31.9,0,0,1,1.3,4.4C675.7,392.3,659,398.5,659,398.5Z"/>
        <path id="Path_194375" data-name="Path 194375" class="cls-17" d="M666.9,508.2l-1.9,5.4-13-3.7.7-5.3c2.2,4.9,6,5.6,6,5.6a44.9,44.9,0,0,1,7.8-3.4A8.3,8.3,0,0,1,666.9,508.2Z"/>
        <path id="Path_194376" data-name="Path 194376" class="cls-15" d="M667.8,506.8s-2,0-9,3.7c0,0-4.8-.9-6.8-7.6,0,0-5.9,10.1-9.9,10.7s-11.5,1.1-6.5,7.9,35,3.6,35,3.6S671.4,508.8,667.8,506.8Z"/>
        <path id="Path_194378" data-name="Path 194378" class="cls-11" d="M667.5,292.7s-13.8-2.2-17.5-5c0,0-2.8,5.3-7.9,2.5s-16.9-2.5-16.9-2.5a26,26,0,0,1-11.9-17.5s-1.9-7.4-1.4-9.3c0,0-7.3-7.6-11,2.5,1.4,7.1,2.6,6.5,2.3,12.2l4.5,12.4s.3,4.2,8.4,9.8a188.7,188.7,0,0,1,17.5,14.4s-4.9,2.7-3.1,15c2.3,15-1.1,36.4-1.1,36.4v13.8s28.2-8.2,33-4,16.4,0,16.4,0a131.1,131.1,0,0,1-3.4-16.3,67.7,67.7,0,0,1,.3-22.9s7.3-19.5,10.7-27.4-2.6-18.5-8.5-22.5-8.1-1.6-8.1-1.6S680.2,290.2,667.5,292.7Z"/>
        <path id="Path_194379" data-name="Path 194379" class="cls-14" d="M631.3,333.5s2.2-.6,13.5-2.3,31,2.3,31,2.3"/>
        <path id="Path_194380" data-name="Path 194380" class="cls-17" d="M641,251.3c6.4.1,11.2,8,8.4,13.8-1.3,2.5-3.7,4.7-3.5,7.5.3,1.2.7,2.5,1.1,3.6,1.4,5.8-5.5,11.1-3.9,16.8a13,13,0,0,0,2.4,4.1L657.4,312a16.7,16.7,0,0,1,1.8,2.8,13,13,0,0,1,.5,4.4c-.1,7.1.4,14.8,4.6,20.6a19,19,0,0,0,23.1,5.6c-1.8-2.8-3.8-6.1-2.9-9.3s5.3-5.4,7.7-8.3,2.9-8.7,2.1-13.2-2.5-8.9-2.5-13.5c-.1-7.4,3.7-16.1-1.3-21.6-1.2-1.2-2.7-2.2-3.5-3.6a7.6,7.6,0,0,1-.9-4.2c-.1-8.7,4.5-17.5,1.7-25.8a8.4,8.4,0,0,0-3.1-4.5c-3.9-2.7-9.4-.1-13.9-1.5-2.1-.6-3.9-2-6-2.7-5.6-1.9-10.9,1.9-14.8,5.6a37.5,37.5,0,0,1-5.1,3.8C645.1,246.5,638.5,251.2,641,251.3Z"/>
        <path id="Path_194381" data-name="Path 194381" class="cls-18" d="M641.7,251.3c6.5.1,11.2,8,8.4,13.8-1.3,2.5-3.7,4.7-3.5,7.5.3,1.2.7,2.5,1.1,3.6,1.4,5.8-5.5,11.1-3.9,16.8a11.6,11.6,0,0,0,2.5,4.1L658.1,312a13.4,13.4,0,0,1,1.8,2.8,10.9,10.9,0,0,1,.5,4.4c0,7.1.4,14.8,4.6,20.6a19.1,19.1,0,0,0,23.1,5.6c-1.8-2.8-3.8-6.1-2.8-9.3s5.2-5.4,7.6-8.3,2.9-8.7,2.1-13.2-2.5-8.9-2.5-13.5c-.1-7.4,3.7-16.1-1.3-21.6-1.1-1.3-2.7-2.2-3.5-3.7a7.3,7.3,0,0,1-.9-4.1c-.1-8.7,4.5-17.5,1.8-25.8a9.1,9.1,0,0,0-3.2-4.5c-3.9-2.7-9.4-.1-13.9-1.5-2.1-.6-3.9-2-6-2.7-5.6-2-10.9,1.9-14.8,5.6a37.5,37.5,0,0,1-5.1,3.8C645.9,246.5,639.2,251.2,641.7,251.3Z"/>
      </g>
      <rect id="Rectangle_7196" data-name="Rectangle 7196" class="cls-19" x="494.8" y="261.4" width="28.6" height="28.59"/>
      <rect id="Rectangle_7197" data-name="Rectangle 7197" class="cls-19" x="509" y="307.2" width="101.5" height="5.72"/>
      <rect id="Rectangle_7198" data-name="Rectangle 7198" class="cls-19" x="509" y="319.3" width="101.5" height="5.72"/>
      <rect id="Rectangle_7199" data-name="Rectangle 7199" class="cls-19" x="509" y="331.5" width="101.5" height="5.72"/>
      <rect id="Rectangle_7200" data-name="Rectangle 7200" class="cls-19" x="509" y="343.6" width="101.5" height="5.72"/>
      <rect id="Rectangle_7201" data-name="Rectangle 7201" class="cls-19" x="509" y="355.8" width="101.5" height="5.72"/>
      <rect id="Rectangle_7202" data-name="Rectangle 7202" class="cls-19" x="509" y="367.9" width="101.5" height="5.72"/>
      <rect id="Rectangle_7203" data-name="Rectangle 7203" class="cls-19" x="509" y="380.1" width="101.5" height="5.72"/>
    </g>
    <path id="Path_194382" data-name="Path 194382" class="cls-20" d="M424.8,387.3a26.6,26.6,0,0,1-4.2-5.2,18.4,18.4,0,0,0-9.5-7v-1.3h.2v-1.1h.1l-.2-3.1h0l-1-15.5s-3.6-10.4,2.8-19.9.4-18.7-5.6-22.2c0,0-2.9-15.1-.4-18.6a81.6,81.6,0,0,0-10.2-5.2c0-.2-.1-.4-.1-.6l-.3-4.2a15.5,15.5,0,0,1,.4-2.1l.3-.9a15.7,15.7,0,0,0,9.9-14.4,16.1,16.1,0,0,0-1-5.3,5.1,5.1,0,0,0,.7-1.7,6.9,6.9,0,0,0-.9-4.9c-1.6-3.6-5.7-6.9-8.6-8.1s-10.5-1.3-14.9-.7c-2.5.3-5.3,1.1-6.1,3.3a13.1,13.1,0,0,0-.6,2.7c-.9,3.4-4.9,5-7.3,7.7s-3.1,5.5-3.8,8.5a79.2,79.2,0,0,0-1.5,27c.3,2,.6,4.1,1,6.2-1.5,2-2.8,5.7-2.2,12.1l-4.9,23-2,13.5a12.1,12.1,0,0,0,3.6,10.3,91.7,91.7,0,0,1,9.2,11.4,29.1,29.1,0,0,0-1.5,9.2c.1,1.4.1,2.8.2,4.1a36.6,36.6,0,0,0,1.6,8c.5,5.6,1.7,12.6,3.9,17.2l.8,24.2s-1.2,22.1-3.7,26.5,5.3,41.2,5.3,41.2v5.2l-1.3,3.7-.3-.2c-6.1,7.5,0,10.3,0,10.3l4.2.2a5,5,0,0,0,2.6,5.4s34.3,1.5,40.4,0,4.4-7.2,1.2-6.8a12.9,12.9,0,0,1-4.8-.6c1.8-2.2.3-5.2-2.1-4.9s-10.5-2.5-10.5-2.5h0l-.7-.2a79.4,79.4,0,0,1-8-2.2c-1.5-3.4-5.1-12.3-2.5-19.3a36.9,36.9,0,0,0,1.5-11.4,134.3,134.3,0,0,1,5.3-36.2l4.9-16.6s6.8-20.2,7.2-25.7v-8.1c5.6,3.6,10.1,2.5,13,.8a3.1,3.1,0,0,0,1.2-4.2,2.7,2.7,0,0,0-.7-.8Zm-53.8-42,.3-1.9h2.9a14,14,0,0,1,1.4,7.8c-2.2-.7-5.5-2.4-4.6-5.9Z"/>
    <path id="Path_194383" data-name="Path 194383" class="cls-21" d="M374.8,504.7l-1.5,4.7,5,5,16.7,3.9,12-1.2-.7-4.2h0a5.2,5.2,0,0,0-3.9-3.8c-4.9-1.2-14.3-3.8-16.3-7.5Z"/>
    <path id="Path_194384" data-name="Path 194384" class="cls-17" d="M374.8,504.7l-1.5,4.7,5,5,16.7,3.9,12-1.2-.7-4.2h0a5.2,5.2,0,0,0-3.9-3.8c-4.9-1.2-14.3-3.8-16.3-7.5Z"/>
    <path id="Path_194385" data-name="Path 194385" class="cls-22" d="M403.2,516l-2.4-3.1,2.4-3.6s6.9,2.8,10,2.4,4.7,5.1-1.1,6.6-38.8,0-38.8,0-5.9-2.7,0-10.1l5,3.9s8.6,4.7,12.8,3.9Z"/>
    <path id="Path_194386" data-name="Path 194386" class="cls-21" d="M413.6,522.6l-12,1.1-16.7-3.9-5-5,.4-1.2.5-1.7.6-1.7,11.3-3.1a6.9,6.9,0,0,0,2.2,2.3c3.7,2.5,10.3,4.2,14.1,5.2h.5a5.3,5.3,0,0,1,3.4,3.6Z"/>
    <path id="Path_194387" data-name="Path 194387" class="cls-17" d="M413.6,522.6l-12,1.1-16.7-3.9-5-5,.4-1.2,4.6,3.6s8.6,4.6,12.8,3.9h12.1l-2.4-3.2,2.1-3.2a5.3,5.3,0,0,1,3.4,3.6Z"/>
    <path id="Path_194388" data-name="Path 194388" class="cls-22" d="M409.7,521.4l-2.3-3.1,2.3-3.6s7,2.9,10.1,2.5,4.7,5-1.1,6.6-38.9,0-38.9,0-5.8-2.8,0-10.1l5.1,3.9s8.6,4.6,12.8,3.8Z"/>
    <path id="Path_194389" data-name="Path 194389" class="cls-21" d="M400,296.2s-18.6,2-15.9-5.8a13.1,13.1,0,0,0,.6-6.8,18.5,18.5,0,0,0-3.3-7.9l17.5,2.7a18.6,18.6,0,0,0-2.4,5.6C394.4,292.2,400,296.2,400,296.2Z"/>
    <path id="Path_194390" data-name="Path 194390" class="cls-22" d="M368.2,384.8s.4,16.7,4.3,24.8l.8,23.7s-1.2,21.7-3.5,26,5,40.4,5,40.4v6.2s12.4,4.6,15.9-.8l-3.4-46.2,1.5-64Z"/>
    <path id="Path_194391" data-name="Path 194391" class="cls-17" d="M368.2,384.8s.4,16.7,4.3,24.8l.8,23.7s-1.2,21.7-3.5,26,5,40.4,5,40.4v6.2s12.4,4.6,15.9-.8l-3.4-46.2,1.5-64Z"/>
    <path id="Path_194392" data-name="Path 194392" class="cls-23" d="M360.4,331.2l-2.3,6.2-1.9,13.2a11.3,11.3,0,0,0,3.5,10.1c4.6,4.6,10.8,14.3,10.8,14.3l7.4-22.1s-7.4-1.2-6.2-6.2.8-14.4.8-14.4Z"/>
    <path id="Path_194393" data-name="Path 194393" class="cls-14" d="M360.4,330.5l-2.3,6.2-1.9,13.2a11.3,11.3,0,0,0,3.5,10.1c4.6,4.6,10.8,14.3,10.8,14.3l7.4-22.1s-7.4-1.2-6.2-6.2.8-14.4.8-14.4Z"/>
    <path id="Path_194394" data-name="Path 194394" class="cls-17" d="M394.9,509.3c-5,7.9-12.7,3.4-14.1,2.5l.6-1.6,11.3-3.2A5.4,5.4,0,0,0,394.9,509.3Z"/>
    <path id="Path_194395" data-name="Path 194395" class="cls-22" d="M410.5,399.9c-.4,5.4-7,25.2-7,25.2l-4.6,16.3a125.4,125.4,0,0,0-5.1,35.5,35,35,0,0,1-1.5,11.1c-3.1,8.6,3.1,20.2,3.1,20.2-5.4,9.7-14.8,3.1-14.8,3.1v-6.2s-7.3-33.8-5.4-40.4,2.7-24.4,2.7-24.4V408.1a36.5,36.5,0,0,1-10.6-23.2l-.3-4c-.3-8.8,5.7-19.1,8.1-22.7a11,11,0,0,1,.9-1.4l34.3,13.6h.1v29.5Z"/>
    <path id="Path_194396" data-name="Path 194396" class="cls-17" d="M398.9,278.4a18.6,18.6,0,0,0-2.4,5.6,15.6,15.6,0,0,1-11.8-.4,18.5,18.5,0,0,0-3.3-7.9Z"/>
    <circle id="Ellipse_769" data-name="Ellipse 769" class="cls-21" cx="391.1" cy="269.1" r="15.1"/>
    <path id="Path_194397" data-name="Path 194397" class="cls-17" d="M410.5,374.7h-.1C394.1,378,373.6,361,373.6,361a15.1,15.1,0,0,0,1.5-2.8,11,11,0,0,1,.9-1.4l34.3,13.6v4.3Z"/>
    <path id="Path_194398" data-name="Path 194398" class="cls-23" d="M406.3,295.8s-21.8-13.2-28.8-7.7l-9.7,12.4s-6.2,1.9-5,14.4l-4.7,22.5,14,3.5s8.1,7.7,1.5,19c0,0,20.6,17.1,36.9,13.6l-1.2-18.3a23.6,23.6,0,0,1,2.7-19.4c6.3-9.3.4-18.2-5.4-21.7C406.6,314.1,403.9,299.3,406.3,295.8Z"/>
    <path id="Path_194399" data-name="Path 194399" class="cls-21" d="M407.4,375.1s8.2,1.5,12.1,7.7a22,22,0,0,0,4,5.1,2.9,2.9,0,0,1,.2,4.3,2,2,0,0,1-.7.6c-3,1.9-8.1,3-14.4-2.2C397.7,381.6,407.4,375.1,407.4,375.1Z"/>
    <path id="Path_194400" data-name="Path 194400" class="cls-17" d="M395.4,303.2s-7.8-.8-9.7,19.4-5.1,24.9-5.1,24.9-1.9,10.5,2.7,16.7,13.6,19.4,13.6,19.4,9.7,2.7,11.7-7l-12.1-22.5s-1.9-7.8,2.8-13.2S407.4,299.3,395.4,303.2Z"/>
    <path id="Path_194401" data-name="Path 194401" class="cls-23" d="M396.2,302.1s-7.8-.8-9.7,19.4-5.1,24.8-5.1,24.8-1.9,10.5,2.7,16.7,13.6,19.4,13.6,19.4,9.7,2.7,11.7-7l-12.1-22.5s-1.9-7.7,2.7-13.2S408.2,298.2,396.2,302.1Z"/>
    <path id="Path_194402" data-name="Path 194402" class="cls-17" d="M402.6,316.6s.7,12.1-2.8,18.7-3.4,15.1,0,19.8"/>
    <path id="Path_194403" data-name="Path 194403" class="cls-17" d="M404.5,301.9s-3.1-3.1-12-3.5-12.8-3.1-12.8-3.1"/>
    <path id="Path_194404" data-name="Path 194404" class="cls-17" d="M382.9,249.5c-2.4.3-5.1,1.1-5.9,3.3l-.6,2.6c-.8,3.4-4.7,5-7,7.5s-3,5.4-3.7,8.4a78.2,78.2,0,0,0-1.3,26.4c.7,6.4,2.3,12.8,2.7,19.3s-.4,13.2-3.9,18.7c-1.5,2.3-3.5,4.3-4.6,6.9,2.2,1.8,5.3,2.1,8.2,2.2h10a11.4,11.4,0,0,0,5.1-1.1,7.3,7.3,0,0,0,2.6-2.9c2-3.2,2.4-7.1,2.4-10.9s-.7-7.5-.8-11.2a10.7,10.7,0,0,1,1.3-5.9,15.5,15.5,0,0,1,3.3-3c4.1-3.7,5.6-9.6,5.7-15.2s-.8-11.1-.3-16.6c.2-2.2,1-4.8,3.1-5.2a7.6,7.6,0,0,0,2.1-.3c1.7-.6,1.5-3,2-4.8s2.2-3.5,2.7-5.5c1.1-4.7-4.9-10.3-8.8-11.9S387.1,249,382.9,249.5Z"/>
    <path id="Path_194405" data-name="Path 194405" class="cls-24" d="M382.5,248.7c-2.3.3-5,1.1-5.9,3.3a23.8,23.8,0,0,0-.5,2.6c-.9,3.4-4.7,5-7.1,7.5a18.1,18.1,0,0,0-3.6,8.4,78.2,78.2,0,0,0-1.4,26.4c.8,6.5,2.3,12.8,2.7,19.3s-.3,13.2-3.9,18.7c-1.5,2.3-3.5,4.4-4.6,6.9,2.3,1.8,5.3,2.1,8.2,2.2s6.7.1,10,0a10,10,0,0,0,5.1-1.1,8,8,0,0,0,2.7-2.8,20.7,20.7,0,0,0,2.3-10.9c-.1-3.8-.7-7.5-.7-11.3a9.2,9.2,0,0,1,1.3-5.9,18.3,18.3,0,0,1,3.2-3c4.2-3.7,5.6-9.6,5.7-15.2s-.7-11.1-.3-16.6c.2-2.1,1-4.8,3.2-5.2l2-.2c1.7-.7,1.5-3.1,2-4.9s2.3-3.5,2.7-5.5c1.2-4.7-4.8-10.3-8.7-11.9S386.7,248.2,382.5,248.7Z"/>
    <path id="Path_194001" data-name="Path 194001" class="cls-8" d="M52.8,59h-.1c-1.2,4.6,11.8,23,22.9,37.6h.1C60.1,75.8,51.9,62.5,52.8,59Z"/>
    <path id="Path_194002" data-name="Path 194002" class="cls-8" d="M75.5,96.1v.2c8.9,11.6,20,25.6,29,35.9.8,1,1.7,2,2.5,3.1l.2-.2a37.6,37.6,0,0,0-2.5-3.1C95.7,121.7,84.3,107.8,75.5,96.1Z"/>
    <path id="Path_194027" data-name="Path 194027" class="cls-1" d="M240.8,488.8s-33-2.1-29.1,21.9c0,0-.8,4.2,2.9,6.1,0,0,.1-1.7,3.4-1.2a10.9,10.9,0,0,0,3.6.2,7.3,7.3,0,0,0,4.4-1.9h0s9.3-3.9,12.9-19.6c0,0,2.6-3.5,2.5-4.3l-5.5,2.4s1.9,4.2.4,7.6c0,0-.2-7.4-1.3-7.3s-2.9,1.5-2.9,1.5,3.3,7.2.8,12.5c0,0,.9-8.9-1.8-12l-3.9,2.4s3.8,7.5,1.2,13.6c0,0,.7-9.4-2-13l-3.6,2.8s3.6,7.4,1.4,12.5c0,0-.3-10.9-2.2-11.8,0,0-3.1,2.9-3.6,4s2.5,5.4,1,8.2c0,0-1-7.2-1.7-7.3s-3.1,4.8-3.5,8.1a18.1,18.1,0,0,1,2.7-8.5,8.7,8.7,0,0,0-4.7,2.5s.5-3.4,5.5-3.7c0,0,2.5-3.7,3.2-3.9s-5-.4-8,1c0,0,2.6-3.2,8.9-1.8l3.5-2.9s-6.6-1-9.3.1c0,0,3.2-2.9,10.3-.8l3.8-2.4s-5.6-1.2-9-.8c0,0,3.6-2,10.1.2l2.7-1.3s-4.1-.8-5.3-.9-1.2-.5-1.2-.5a12.7,12.7,0,0,1,7.7.9S240.9,489.1,240.8,488.8Z"/>
    <ellipse id="Ellipse_747" data-name="Ellipse 747" class="cls-3" cx="218.1" cy="518.9" rx="23.4" ry="4.1"/>
    <path id="Path_194028" data-name="Path 194028" class="cls-1" d="M155,503s-18.6-1.1-16.4,12.4a3.2,3.2,0,0,0,1.6,3.4s0-1,1.9-.6h2a4.4,4.4,0,0,0,2.5-1.1h0s5.2-2.2,7.3-11.1c0,0,1.5-1.9,1.4-2.4l-3.1,1.4a5.8,5.8,0,0,1,.2,4.3s-.1-4.2-.7-4.1l-1.6.8s1.8,4.1.4,7c0,0,.6-5-1-6.7l-2.2,1.3s2.1,4.2.7,7.7c0,0,.4-5.3-1.2-7.4l-2,1.7s2.1,4.1.8,7c0,0-.1-6.2-1.2-6.7a14.3,14.3,0,0,0-2,2.3s1.4,3,.5,4.6c0,0-.5-4.1-.9-4.1a13.2,13.2,0,0,0-1.9,4.6,9.7,9.7,0,0,1,1.5-4.9,4.9,4.9,0,0,0-2.7,1.5s.3-1.9,3.1-2.1a12.4,12.4,0,0,1,1.8-2.2,13.8,13.8,0,0,0-4.5.5s1.5-1.8,5.1-.9l1.9-1.7s-3.7-.5-5.3,0c0,0,1.9-1.6,5.9-.4l2.1-1.3a16.7,16.7,0,0,0-5-.5s1.9-1.1,5.6.1l1.6-.7-3-.6c-.7,0-.7-.2-.7-.2a7.2,7.2,0,0,1,4.3.5S155,503.3,155,503Z"/>
    <ellipse id="Ellipse_748" data-name="Ellipse 748" class="cls-3" cx="143.7" cy="520" rx="13.2" ry="2.3"/>
    <path id="Path_194029" data-name="Path 194029" class="cls-1" d="M191.5,499.7s-22.5-1.4-19.8,14.9a4,4,0,0,0,2,4.2s0-1.2,2.3-.8a9.7,9.7,0,0,0,2.4.1,4.8,4.8,0,0,0,3-1.3h0s6.3-2.7,8.8-13.4c0,0,1.8-2.3,1.7-2.9l-3.8,1.7s1.3,2.8.3,5.2c0,0-.1-5.1-.9-5l-1.9.9s2.2,5,.5,8.6c0,0,.7-6.1-1.2-8.2l-2.7,1.6s2.6,5.1.8,9.3c0,0,.5-6.4-1.4-8.9l-2.4,2s2.5,5,.9,8.4c0,0-.1-7.4-1.4-7.9a12.7,12.7,0,0,0-2.5,2.7s1.7,3.6.7,5.5c0,0-.7-4.9-1.2-4.9s-2.1,3.3-2.3,5.5a11.7,11.7,0,0,1,1.8-5.8,5.9,5.9,0,0,0-3.2,1.7s.3-2.3,3.7-2.5a19.9,19.9,0,0,1,2.2-2.7,14.1,14.1,0,0,0-5.4.7s1.8-2.2,6-1.2l2.4-2s-4.4-.7-6.4,0c0,0,2.2-1.9,7-.5l2.7-1.6a24.7,24.7,0,0,0-6.1-.5s2.4-1.4,6.9.1l1.8-.9a32.9,32.9,0,0,0-3.6-.6c-.8-.1-.9-.4-.9-.4a9.2,9.2,0,0,1,5.2.6S191.6,500,191.5,499.7Z"/>
    <ellipse id="Ellipse_749" data-name="Ellipse 749" class="cls-3" cx="176" cy="520.2" rx="15.9" ry="2.8"/>
  </g>
</svg>
