<svg id="Layer_1" data-name="Layer 1" xmlns="http://www.w3.org/2000/svg" xmlns:xlink="http://www.w3.org/1999/xlink" width="706" height="528" viewBox="0 0 706 528">
  <defs>
    <style>
      .cls-1, .cls-2 {
        fill: #0d5bb9;
      }

      .cls-1, .cls-7 {
        opacity: 0.1;
      }

      .cls-1, .cls-14, .cls-15, .cls-7 {
        isolation: isolate;
      }

      .cls-3 {
        fill: #444053;
      }

      .cls-10, .cls-4, .cls-5 {
        fill: none;
        stroke-miterlimit: 10;
      }

      .cls-4, .cls-5 {
        stroke: #444053;
      }

      .cls-5 {
        stroke-width: 0.75px;
      }

      .cls-6 {
        fill: #d2d4de;
      }

      .cls-8 {
        fill: #f2f2f2;
      }

      .cls-9 {
        fill: #fff;
      }

      .cls-10 {
        stroke: #3f3d56;
      }

      .cls-11 {
        fill: #57b894;
      }

      .cls-12 {
        fill: #46455b;
      }

      .cls-13 {
        fill: #a8a8a8;
      }

      .cls-14 {
        opacity: 0.2;
      }

      .cls-15 {
        opacity: 0.05;
      }

      .cls-16 {
        fill: url(#linear-gradient);
      }

      .cls-17 {
        fill: #fbbebe;
      }

      .cls-18 {
        fill: #3f3d56;
      }

      .cls-19 {
        fill: #33313f;
      }
    </style>
    <linearGradient id="linear-gradient" x1="-144.22" y1="764.03" x2="-145.27" y2="764.03" gradientTransform="matrix(114.73, 0, 0, -288.58, 16863.42, 220858.31)" gradientUnits="userSpaceOnUse">
      <stop offset="0" stop-color="gray" stop-opacity="0.25"/>
      <stop offset="0.54" stop-color="gray" stop-opacity="0.12"/>
      <stop offset="1" stop-color="gray" stop-opacity="0.1"/>
    </linearGradient>
  </defs>
  <title>Artboard 1</title>
  <g id="Group_10161" data-name="Group 10161">
    <path id="Path_193999" data-name="Path 193999" class="cls-1" d="M366.9,114.7c-42,8-84,3.7-124.4-2.3s-80.8-13.5-122.9-12c-27,.9-57,7-75.7,25.5s-20.6,42.3-20.4,64.4c.1,16.6,1.5,33.8,11.3,47.1,6.9,9.3,17.4,16,25.3,24.6,27.6,29.8,19.8,76,2.3,115.2-8.2,18.3-18.3,36.4-23.8,55.2s-6.1,39.1,4.3,54.7S73,511.4,93.5,516.2c41.6,9.7,87.8,4.7,132.5-2.3,99-15.4,196.9-40.5,294.4-65.4,36.1-9.3,72.4-18.5,107.1-32.1,19.3-7.6,39-17,51.3-32,15.7-19.1,15.8-45.3.3-61.3C653.2,296.4,595,301.4,574.8,271c-11.1-16.7-6.6-39.2,1.9-59,18.2-42.4,53.9-84.1,48.8-126.7C622,56,597.1,31.5,564,24.7c-34.7-7.1-79,4.8-98.6,33.9S403.9,107.6,366.9,114.7Z"/>
    <path id="Path_194000" data-name="Path 194000" class="cls-2" d="M671.9,152.1s-12.8-3.6-40.6,9.2-31.2,11.1-38.4,9.1-11.2-2.4-18.9-13c0,0-5.4-29.5-10.7-34s-27.6,2.6-27.6,2.6-26.8,6.1-31.9-29.7c0,0,3.6-27-1.3-35.3,0,0,9.9,4.3,26.4-2.6s29.6,7.4,29.6,7.4,4.1,10.8,3.7,17.1,2.2,8.9,10,5.8c0,0,3.9-5.5-1.6-14.6s-9.3-15.8-7.8-22.8,5.9-16.8,20-21.7,33.1-5.8,42.3-9.6,11.4-6.3,11.4-6.3-5.6,5.6,7.6,29.6,9,34.4,9,34.4-11.2,16.8-42.4,15.5c0,0-30.1,1.1-13.7,13.8a271,271,0,0,0,26.2-7.1c15.7-5,31.1,15.6,33.9,29.9S671.9,152.1,671.9,152.1Z"/>
    <path id="Path_194001" data-name="Path 194001" class="cls-3" d="M627.4,31.9h.2c1.2,4.6-12.3,23-23.8,37.6h-.1C619.9,48.7,628.3,35.4,627.4,31.9Z"/>
    <path id="Path_194002" data-name="Path 194002" class="cls-3" d="M603.9,69v.2c-9.2,11.7-20.7,25.6-30,35.9-.8,1-1.7,2-2.5,3.1l-.3-.2c.8-1.1,1.7-2.1,2.6-3.2C583,94.6,594.8,80.7,603.9,69Z"/>
    <path id="Path_194003" data-name="Path 194003" class="cls-3" d="M571.4,107.7l.2.3c-16.8,21-17.9,53.6-18,53.9l-3.5-4.1C550.1,157.5,554.5,128.8,571.4,107.7Z"/>
    <path id="Path_194004" data-name="Path 194004" class="cls-4" d="M652.4,140.7s-23.9-10.3-39.3-6.6S562.8,121,562.8,121,548,115,545,108.2c0,0-10.1-10.8-10.7-16.3s-10.4-19.5-16.9-20"/>
    <path id="Path_194005" data-name="Path 194005" class="cls-4" d="M645.5,150.6s-10-6.7-8.9-14.6"/>
    <path id="Path_194006" data-name="Path 194006" class="cls-4" d="M630.2,159.3s-14.3-5.2-15.8-25.5"/>
    <path id="Path_194007" data-name="Path 194007" class="cls-4" d="M607.1,164.6a32.2,32.2,0,0,1-9.1-31.1"/>
    <path id="Path_194008" data-name="Path 194008" class="cls-4" d="M579.4,159s-9.1-19-1-31.5"/>
    <path id="Path_194009" data-name="Path 194009" class="cls-4" d="M652.7,128.1s-14.5,3.3-12.2,8.7"/>
    <path id="Path_194010" data-name="Path 194010" class="cls-4" d="M636.1,109.4s-13.8,4.4-14.1,23.9"/>
    <path id="Path_194011" data-name="Path 194011" class="cls-4" d="M616.8,104.9s-12.5,15.5-11.6,29.6"/>
    <path id="Path_194012" data-name="Path 194012" class="cls-4" d="M594.8,111s-12.5,11.9-10.9,18.5"/>
    <path id="Path_194013" data-name="Path 194013" class="cls-4" d="M587.3,106.7s-11.7,2.1-13.4-1.7"/>
    <path id="Path_194014" data-name="Path 194014" class="cls-4" d="M572,92.6s6,7.8,7.5,6.1"/>
    <path id="Path_194015" data-name="Path 194015" class="cls-4" d="M630.7,87.6s-29.5,2.2-36.2-6.7"/>
    <path id="Path_194016" data-name="Path 194016" class="cls-4" d="M565.8,53.1s13.9,29.7,24,33.5"/>
    <path id="Path_194017" data-name="Path 194017" class="cls-4" d="M580.4,38.9s8.5,27.4,19,35.9"/>
    <path id="Path_194018" data-name="Path 194018" class="cls-5" d="M643.1,65s-22.4,9.7-35.9-.1"/>
    <path id="Path_194019" data-name="Path 194019" class="cls-5" d="M600.4,33.1s5.1,20.1,12,24.9"/>
    <path id="Path_194020" data-name="Path 194020" class="cls-5" d="M639.8,42.5s-12.7,4.8-17.4,1.1"/>
    <path id="Path_194021" data-name="Path 194021" class="cls-4" d="M561.2,99.2s0,17.5-4.7,18.7"/>
    <path id="Path_194022" data-name="Path 194022" class="cls-4" d="M522.2,121.9s19,1.6,27.7-8.2"/>
    <path id="Path_194023" data-name="Path 194023" class="cls-4" d="M556.3,78.4s-4.5,17.8-17.2,22.6"/>
    <path id="Path_194024" data-name="Path 194024" class="cls-4" d="M510.8,103.1s13.5,4.7,25-7.2"/>
    <path id="Path_194025" data-name="Path 194025" class="cls-4" d="M541.4,63.2s-1.2,15.1-9.5,22.1"/>
    <path id="Path_194026" data-name="Path 194026" class="cls-4" d="M511.4,80.1s11.1.1,13.7-3.5"/>
    <path id="Path_194030" data-name="Path 194030" class="cls-6" d="M392.2,500.3v4.9H248.7v-4a47.2,47.2,0,0,0,3.2-87.1H391.2a47.2,47.2,0,0,0-23.1,62.6,46.6,46.6,0,0,0,24.1,23.6Z"/>
    <path id="Path_194031" data-name="Path 194031" class="cls-7" d="M391.2,414.1a47.6,47.6,0,0,0-26.1,31.3H278a47.3,47.3,0,0,0-26.1-31.3Z"/>
    <path id="Path_194033" data-name="Path 194033" class="cls-7" d="M434.4,500.3v4.9H290.9v-4a42.3,42.3,0,0,0,11.1-5.9H425.6A45.3,45.3,0,0,0,434.4,500.3Z"/>
    <g id="Group_10105" data-name="Group 10105">
      <g id="undraw_domain_names_rdql" data-name="undraw domain names rdql">
        <rect id="Rectangle_7204" data-name="Rectangle 7204" class="cls-8" x="63.9" y="66.8" width="508.8" height="354.85" rx="32.7"/>
        <rect id="Rectangle_7205" data-name="Rectangle 7205" class="cls-9" x="151.2" y="142.9" width="350.2" height="29.09" rx="13.6"/>
        <rect id="Rectangle_7206" data-name="Rectangle 7206" class="cls-10" x="65.6" y="66.8" width="506.7" height="354.85" rx="32.7"/>
        <line id="Line_535" data-name="Line 535" class="cls-10" x1="65.9" y1="94.1" x2="572.6" y2="94.1"/>
        <circle id="Ellipse_770" data-name="Ellipse 770" class="cls-2" cx="100.3" cy="79.3" r="7"/>
        <circle id="Ellipse_771" data-name="Ellipse 771" class="cls-2" cx="120" cy="79.6" r="7"/>
        <circle id="Ellipse_772" data-name="Ellipse 772" class="cls-2" cx="139.8" cy="79.9" r="7"/>
        <circle id="Ellipse_773" data-name="Ellipse 773" class="cls-10" cx="99.9" cy="79.1" r="7"/>
        <circle id="Ellipse_774" data-name="Ellipse 774" class="cls-10" cx="119.7" cy="79.4" r="7"/>
        <circle id="Ellipse_775" data-name="Ellipse 775" class="cls-10" cx="139.5" cy="79.7" r="7"/>
        <rect id="Rectangle_7207" data-name="Rectangle 7207" class="cls-10" x="151.3" y="142.4" width="350.2" height="29.09" rx="13.6"/>
        <circle id="Ellipse_776" data-name="Ellipse 776" class="cls-10" cx="480.6" cy="152.6" r="4.7"/>
        <line id="Line_536" data-name="Line 536" class="cls-10" x1="484" y1="156.2" x2="492.1" y2="164.5"/>
        <path id="Rectangle_7208" data-name="Rectangle 7208" class="cls-2" d="M167.3,152h52.4a5.2,5.2,0,0,1,5.2,5.2h0a5.2,5.2,0,0,1-5.2,5.3H167.3a5.2,5.2,0,0,1-5.2-5.3h0A5.2,5.2,0,0,1,167.3,152Z"/>
        <path id="Rectangle_7209" data-name="Rectangle 7209" class="cls-10" d="M167,152.3h52.3a5.2,5.2,0,0,1,5.3,5.2h0a5.2,5.2,0,0,1-5.3,5.2H167a5.2,5.2,0,0,1-5.3-5.2h0A5.2,5.2,0,0,1,167,152.3Z"/>
        <path id="Rectangle_7210" data-name="Rectangle 7210" class="cls-2" d="M152,209h52.4a5.2,5.2,0,0,1,5.2,5.2h0a5.2,5.2,0,0,1-5.2,5.2H152a5.2,5.2,0,0,1-5.2-5.2h0A5.2,5.2,0,0,1,152,209Z"/>
        <path id="Rectangle_7211" data-name="Rectangle 7211" class="cls-9" d="M148.9,245.3h52.3a5.2,5.2,0,0,1,5.3,5.2h0a5.3,5.3,0,0,1-5.3,5.3H148.9a5.3,5.3,0,0,1-5.3-5.3h0A5.2,5.2,0,0,1,148.9,245.3Z"/>
        <path id="Rectangle_7212" data-name="Rectangle 7212" class="cls-9" d="M148.9,278.4h52.3a5.3,5.3,0,0,1,5.3,5.3h0a5.2,5.2,0,0,1-5.3,5.2H148.9a5.2,5.2,0,0,1-5.3-5.2h0A5.3,5.3,0,0,1,148.9,278.4Z"/>
        <path id="Rectangle_7213" data-name="Rectangle 7213" class="cls-9" d="M148.9,311.6h52.3a5.2,5.2,0,0,1,5.3,5.2h0a5.3,5.3,0,0,1-5.3,5.3H148.9a5.3,5.3,0,0,1-5.3-5.3h0A5.2,5.2,0,0,1,148.9,311.6Z"/>
        <path id="Rectangle_7214" data-name="Rectangle 7214" class="cls-9" d="M148.9,344.8h52.3a5.2,5.2,0,0,1,5.3,5.2h0a5.2,5.2,0,0,1-5.3,5.2H148.9a5.2,5.2,0,0,1-5.3-5.2h0A5.2,5.2,0,0,1,148.9,344.8Z"/>
        <path id="Rectangle_7215" data-name="Rectangle 7215" class="cls-10" d="M151.8,208.6h52.3a5.3,5.3,0,0,1,5.3,5.3h0a5.2,5.2,0,0,1-5.3,5.2H151.8a5.2,5.2,0,0,1-5.3-5.2h0A5.3,5.3,0,0,1,151.8,208.6Z"/>
        <path id="Rectangle_7216" data-name="Rectangle 7216" class="cls-10" d="M151.8,241.8h52.3a5.2,5.2,0,0,1,5.3,5.2h0a5.3,5.3,0,0,1-5.3,5.3H151.8a5.3,5.3,0,0,1-5.3-5.3h0A5.2,5.2,0,0,1,151.8,241.8Z"/>
        <path id="Rectangle_7217" data-name="Rectangle 7217" class="cls-10" d="M151.8,275h52.3a5.2,5.2,0,0,1,5.3,5.2h0a5.2,5.2,0,0,1-5.3,5.2H151.8a5.2,5.2,0,0,1-5.3-5.2h0A5.2,5.2,0,0,1,151.8,275Z"/>
        <path id="Rectangle_7218" data-name="Rectangle 7218" class="cls-10" d="M151.8,308.1h52.3a5.3,5.3,0,0,1,5.3,5.2h0a5.3,5.3,0,0,1-5.3,5.3H151.8a5.3,5.3,0,0,1-5.3-5.3h0A5.3,5.3,0,0,1,151.8,308.1Z"/>
        <path id="Rectangle_7219" data-name="Rectangle 7219" class="cls-10" d="M151.8,341.3h52.3a5.2,5.2,0,0,1,5.3,5.2h0a5.2,5.2,0,0,1-5.3,5.2H151.8a5.2,5.2,0,0,1-5.3-5.2h0A5.2,5.2,0,0,1,151.8,341.3Z"/>
        <rect id="Rectangle_7220" data-name="Rectangle 7220" class="cls-11" x="486.5" y="209" width="32.6" height="10.47" rx="4.2"/>
        <rect id="Rectangle_7221" data-name="Rectangle 7221" class="cls-9" x="483.4" y="245.3" width="32.6" height="10.47" rx="4.2"/>
        <rect id="Rectangle_7222" data-name="Rectangle 7222" class="cls-9" x="483.4" y="278.4" width="32.6" height="10.47" rx="4.2"/>
        <rect id="Rectangle_7223" data-name="Rectangle 7223" class="cls-9" x="483.4" y="311.6" width="32.6" height="10.47" rx="4.2"/>
        <rect id="Rectangle_7224" data-name="Rectangle 7224" class="cls-9" x="483.4" y="344.8" width="32.6" height="10.47" rx="4.2"/>
        <rect id="Rectangle_7225" data-name="Rectangle 7225" class="cls-10" x="486.3" y="208.6" width="32.6" height="10.47" rx="4.2"/>
        <rect id="Rectangle_7226" data-name="Rectangle 7226" class="cls-10" x="486.3" y="241.8" width="32.6" height="10.47" rx="4.2"/>
        <rect id="Rectangle_7227" data-name="Rectangle 7227" class="cls-10" x="486.3" y="275" width="32.6" height="10.47" rx="4.2"/>
        <rect id="Rectangle_7228" data-name="Rectangle 7228" class="cls-10" x="486.3" y="308.1" width="32.6" height="10.47" rx="4.2"/>
        <rect id="Rectangle_7229" data-name="Rectangle 7229" class="cls-10" x="486.3" y="341.3" width="32.6" height="10.47" rx="4.2"/>
        <path id="Path_194426" data-name="Path 194426" class="cls-12" d="M515.7,439.3c0,39.7,24.9,71.8,55.6,71.8"/>
        <path id="Path_194427" data-name="Path 194427" class="cls-2" d="M571.3,511.1c0-40.1,27.8-72.6,62.2-72.6"/>
        <path id="Path_194428" data-name="Path 194428" class="cls-2" d="M535.8,442.9c0,37.7,15.9,68.2,35.5,68.2"/>
        <path id="Path_194429" data-name="Path 194429" class="cls-12" d="M571.3,511.1c0-51.3,32.1-92.8,71.8-92.8"/>
        <path id="Path_194430" data-name="Path 194430" class="cls-13" d="M559.6,511.6s7.9-.2,10.3-1.9,12.1-3.7,12.7-1,11.9,13.5,3,13.6-20.7-1.4-23.1-2.9S559.6,511.6,559.6,511.6Z"/>
        <path id="Path_194431" data-name="Path 194431" class="cls-14" d="M585.7,521.3c-8.9.1-20.7-1.4-23-2.8s-2.6-5.1-2.8-6.9h-.3s.5,6.4,2.9,7.8,14.2,2.9,23.1,2.9c2.6,0,3.4-1,3.4-2.3C588.6,520.8,587.7,521.3,585.7,521.3Z"/>
        <line id="Line_538" data-name="Line 538" class="cls-10" x1="515.3" y1="522.4" x2="633.7" y2="522.4"/>
      </g>
      <path id="Path_194505" data-name="Path 194505" class="cls-2" d="M360.6,208a39.1,39.1,0,1,1-39,39.1,39.1,39.1,0,0,1,39-39.1Zm-7,40v18.5h13.8V248a11.4,11.4,0,1,0-13.8,0Z"/>
      <path id="Path_194506" data-name="Path 194506" class="cls-15" d="M360.6,208a39.1,39.1,0,1,1-39,39.1,39.1,39.1,0,0,1,39-39.1Zm-7,40v18.5h13.8V248a11.4,11.4,0,1,0-13.8,0Z"/>
      <path id="Path_194507" data-name="Path 194507" class="cls-2" d="M360.6,196.9a50.2,50.2,0,1,1-50.2,50.2h0A50.2,50.2,0,0,1,360.6,196.9Zm-9,51.4V272h17.7V248.3a14.7,14.7,0,1,0-20.6-2.9A19.9,19.9,0,0,0,351.6,248.3Z"/>
      <rect id="Rectangle_7241" data-name="Rectangle 7241" class="cls-9" x="251.7" y="307.9" width="188.7" height="27.47"/>
      <rect id="Rectangle_7242" data-name="Rectangle 7242" class="cls-2" x="257.7" y="312.8" width="37" height="18.25"/>
      <path id="Path_194508" data-name="Path 194508" class="cls-2" d="M409.5,321.4h3.1l-2.7-2.7a.3.3,0,0,1,0-.4c.1-.1.2-.1.4,0h0L413,321v-3a.3.3,0,0,1,.3-.3c.1,0,.2.1.2.3v3l2.7-2.7c.2-.1.3-.1.4,0h0a.3.3,0,0,1,0,.4l-2.7,2.7H417c.1,0,.2.1.2.3a.2.2,0,0,1-.2.2h-3.1l2.7,2.8a.2.2,0,0,1,0,.3c-.1.1-.2.1-.4,0l-2.7-2.7v3.1c0,.1-.1.2-.3.2a.2.2,0,0,1-.2-.2v-3.1l-2.7,2.7a.3.3,0,0,1-.4,0,.2.2,0,0,1,0-.3l2.7-2.8h-3.1a.2.2,0,0,1-.2-.2c0-.2.1-.3.2-.3Z"/>
      <path id="Path_194509" data-name="Path 194509" class="cls-2" d="M398.4,321.4h3.1l-2.8-2.7a.3.3,0,1,1,.4-.4h0l2.7,2.7v-3a.3.3,0,0,1,.3-.3.3.3,0,0,1,.3.3v3l2.7-2.7a.3.3,0,0,1,.4,0h0a.3.3,0,0,1,0,.4l-2.8,2.7h3.1a.3.3,0,0,1,.3.3c0,.1-.1.2-.3.2h-3.1l2.8,2.8a.2.2,0,0,1,0,.3.3.3,0,0,1-.4,0l-2.7-2.7v3.1c0,.1-.2.2-.3.2l-.3-.2v-3.1l-2.7,2.7a.3.3,0,0,1-.4,0,.2.2,0,0,1,0-.3l2.8-2.8h-3.1c-.1,0-.3-.1-.3-.2a.3.3,0,0,1,.3-.3Z"/>
      <path id="Path_194510" data-name="Path 194510" class="cls-2" d="M387.2,321.4h3.1l-2.7-2.7a.3.3,0,0,1,.4-.4h0l2.7,2.7v-3a.3.3,0,0,1,.3-.3c.1,0,.2.1.2.3v3l2.8-2.7a.2.2,0,0,1,.3,0h0a.3.3,0,0,1,0,.4l-2.7,2.7h3.1c.1,0,.2.1.2.3a.2.2,0,0,1-.2.2h-3.1l2.7,2.8a.2.2,0,0,1-.3.3l-2.8-2.7v3.1c0,.1-.1.2-.2.3a.3.3,0,0,1-.3-.3h0v-3.1L388,325a.3.3,0,0,1-.4,0,.2.2,0,0,1,0-.3l2.7-2.8h-3.1a.2.2,0,0,1-.2-.2c0-.2.1-.3.2-.3Z"/>
      <path id="Path_194511" data-name="Path 194511" class="cls-2" d="M376.1,321.4h3.1l-2.8-2.7a.3.3,0,0,1,.4-.4h0l2.7,2.7v-3a.3.3,0,0,1,.3-.3.3.3,0,0,1,.3.3v3l2.7-2.7a.3.3,0,0,1,.4,0h0a.3.3,0,0,1,0,.4l-2.7,2.7h3a.3.3,0,0,1,.3.3c0,.1-.1.2-.3.2h-3l2.7,2.8a.2.2,0,0,1,0,.3.3.3,0,0,1-.4,0l-2.7-2.7v3.1c0,.1-.2.2-.3.2a.2.2,0,0,1-.2-.2v-3.1l-2.8,2.7a.3.3,0,0,1-.4,0,.2.2,0,0,1,0-.3l2.8-2.8h-3.1c-.1,0-.3-.1-.3-.2a.3.3,0,0,1,.3-.3Z"/>
      <path id="Path_194512" data-name="Path 194512" class="cls-2" d="M365,321.4h3l-2.7-2.7a.3.3,0,0,1,.4-.4h0l2.7,2.7v-3a.3.3,0,0,1,.3-.3c.1,0,.2.1.2.3v3l2.8-2.7a.2.2,0,0,1,.3,0h0a.3.3,0,0,1,0,.4l-2.7,2.7h3.1c.1,0,.2.1.2.3a.2.2,0,0,1-.2.2h-3.1l2.7,2.8a.2.2,0,1,1-.3.3l-2.8-2.7v3.1c0,.1-.1.2-.2.3a.3.3,0,0,1-.3-.3h0v-3.1l-2.7,2.7a.3.3,0,0,1-.4,0,.2.2,0,0,1,0-.3l2.7-2.8h-3c-.2,0-.3-.1-.3-.2s.1-.3.2-.3Z"/>
      <path id="Path_194513" data-name="Path 194513" class="cls-2" d="M353.8,321.4h3.1l-2.8-2.7a.3.3,0,0,1,.4-.4h0l2.8,2.7v-3c0-.2.1-.3.2-.3a.3.3,0,0,1,.3.3v3l2.7-2.7a.3.3,0,0,1,.4,0h0a.3.3,0,0,1,0,.4l-2.7,2.7h3a.3.3,0,0,1,.3.3c0,.1-.1.2-.3.2h-3l2.7,2.8a.2.2,0,0,1,0,.3.3.3,0,0,1-.4,0l-2.7-2.7v3.1q0,.2-.3.3c-.1,0-.2-.1-.2-.3h0v-3.1l-2.8,2.7c-.1.1-.2.1-.4,0a.2.2,0,0,1,0-.3l2.8-2.8h-3.1c-.1,0-.3-.1-.3-.2a.3.3,0,0,1,.3-.3Z"/>
      <path id="Path_194514" data-name="Path 194514" class="cls-2" d="M342.7,321.4h3l-2.7-2.7a.3.3,0,0,1,.4-.4h0l2.7,2.7v-3a.3.3,0,0,1,.3-.3c.1,0,.2.1.2.3v3l2.8-2.7a.2.2,0,0,1,.3,0h0a.3.3,0,0,1,0,.4l-2.7,2.7h3.1a.3.3,0,0,1,.3.3c0,.1-.2.2-.3.2H347l2.7,2.8a.2.2,0,0,1-.3.3l-2.8-2.7v3.1c.1.1-.1.2-.2.3a.3.3,0,0,1-.3-.3h0v-3.1l-2.7,2.7a.3.3,0,0,1-.4,0,.2.2,0,0,1,0-.3l2.7-2.8h-3c-.2,0-.3-.1-.3-.2s.1-.3.2-.3Z"/>
      <path id="Path_194515" data-name="Path 194515" class="cls-2" d="M331.5,321.4h3.1l-2.8-2.7a.3.3,0,0,1,0-.4c.2-.1.3-.1.4,0h0L335,321v-3c0-.2.1-.3.2-.3a.3.3,0,0,1,.3.3v3l2.7-2.7a.3.3,0,0,1,.4,0h0a.3.3,0,0,1,0,.4l-2.7,2.7h3a.3.3,0,0,1,.3.3c0,.1-.1.2-.3.2h-3l2.7,2.8a.2.2,0,0,1,0,.3.3.3,0,0,1-.4,0l-2.7-2.7v3.1q0,.2-.3.3c-.1,0-.2-.1-.2-.3h0v-3.1l-2.8,2.7a.2.2,0,0,1-.3,0q-.3-.2,0-.3l2.7-2.8h-3.1c-.1,0-.3-.1-.3-.2a.3.3,0,0,1,.3-.3Z"/>
      <path id="Path_194516" data-name="Path 194516" class="cls-2" d="M320.4,321.4h3l-2.7-2.7a.3.3,0,1,1,.4-.4h0l2.7,2.7v-3a.3.3,0,0,1,.3-.3c.1,0,.2.1.2.3v3l2.8-2.7a.2.2,0,0,1,.3,0h.1a.3.3,0,0,1,0,.4l-2.8,2.7h3.1a.3.3,0,0,1,.3.3c0,.1-.2.2-.3.2h-3.1l2.8,2.8a.2.2,0,0,1,0,.3c-.2.1-.3.1-.4,0l-2.8-2.7v3.1c.1.1,0,.2-.2.3a.3.3,0,0,1-.3-.3h0v-3.1l-2.7,2.7a.3.3,0,0,1-.4,0,.2.2,0,0,1,0-.3l2.7-2.8h-3c-.2,0-.3-.1-.3-.2s.1-.3.2-.3Z"/>
      <path id="Path_194517" data-name="Path 194517" class="cls-2" d="M309.2,321.4h3.1l-2.7-2.7a.3.3,0,0,1,0-.4.2.2,0,0,1,.3,0h0l2.8,2.7v-3c0-.2.1-.3.2-.3a.3.3,0,0,1,.3.3v3l2.7-2.7a.3.3,0,0,1,.4,0h0a.3.3,0,0,1,0,.4l-2.7,2.7h3a.3.3,0,0,1,.3.3c0,.1-.1.2-.3.2h-3l2.7,2.8a.2.2,0,0,1,0,.3.3.3,0,0,1-.4,0l-2.7-2.7v3.1c0,.1-.1.2-.3.2a.2.2,0,0,1-.2-.2v-3.1l-2.8,2.7a.2.2,0,1,1-.3-.3l2.7-2.8h-3.1l-.3-.2a.3.3,0,0,1,.3-.3Z"/>
      <path id="Path_194518" data-name="Path 194518" class="cls-2" d="M298.1,321.4h3l-2.7-2.7a.3.3,0,0,1,.4-.4h0l2.7,2.7v-3a.3.3,0,0,1,.3-.3c.1,0,.2.1.2.3v3l2.8-2.7c.1-.1.2-.1.4,0h0a.3.3,0,0,1,0,.4l-2.8,2.7h3.1a.3.3,0,0,1,.3.3c0,.1-.2.2-.3.2h-3.1l2.8,2.8a.2.2,0,0,1,0,.3c-.2.1-.3.1-.4,0l-2.8-2.7v3.1c.1.1,0,.2-.2.3a.3.3,0,0,1-.3-.3h0v-3.1l-2.7,2.7a.3.3,0,0,1-.4,0,.2.2,0,0,1,0-.3l2.7-2.8h-3c-.2,0-.3-.1-.3-.2s.1-.3.2-.3Z"/>
    </g>
    <rect id="Rectangle_7154" data-name="Rectangle 7154" class="cls-6" x="201.2" y="496.8" width="238.4" height="14.38" rx="7.2"/>
    <circle id="Ellipse_751" data-name="Ellipse 751" class="cls-9" cx="320" cy="396.6" r="14"/>
    <g id="Group_10104" data-name="Group 10104">
      <path id="Path_194519" data-name="Path 194519" class="cls-16" d="M196.8,287.6a14.3,14.3,0,0,1,.3-2.9c.8-2.6,2.4-5.9,5-6.7a38.9,38.9,0,0,0,7.9-3.3c.5-8.5-1.5-17.2.6-25.4.8-3,2.1-5.9,2.5-9s-.6-7.9.9-11.4a11,11,0,0,1,6.7-5.8,38.7,38.7,0,0,1,8.9-1.6c3.8-.3,16.1-1.7,20.4,1.7h0a2.7,2.7,0,0,1,.8.7h0c.1.2.2.3.2.5h.1c.1.2.1.4.2.5h0c0,.2.1.4.1.6V227c0,.7-.1,1.4-.1,2.1a3.4,3.4,0,0,0,.1,1,6.4,6.4,0,0,0,1.3,2.6h0v.2l.3.4.2.3.2.3.2.4v.2a1.9,1.9,0,0,1,.2.7,5,5,0,0,1,.1,2.1,8,8,0,0,1-1.1,2.5l-.7.9-.5.8a15.7,15.7,0,0,1-6.1,15.1,47.8,47.8,0,0,0,.1,10l.3,2.1c.1.7.1,1.2.2,1.8a10.2,10.2,0,0,0,3.5-.3l1.6-.6c2.3-.6,4.6,1.7,6.9,1v.3a2.9,2.9,0,0,1,1.6-.4,6.2,6.2,0,0,0,3.4-2l3-2.8.6-.6a3.8,3.8,0,0,0,.3-1,12.5,12.5,0,0,1,3-4.2,1.6,1.6,0,0,1,.8-.6h.4l.3-.3.6-.7c1.5-1.3,1.6-2.5,2.9-4a41.7,41.7,0,0,0,2.9-4.4c.1-.9.3-1.7.4-2.6a29.9,29.9,0,0,1,1.8-5.8L282,238v.2c1.2-1.7,2.4-2.6,3.5-2.4s2.8,3.9,2.5,8.6l-.6,4.8a.4.4,0,0,0-.1.3,10.3,10.3,0,0,1,.1,1.7c0,.7-.6,1.2-.9,1.8a5,5,0,0,0-.8,2.7,3.6,3.6,0,0,0,.2,1,4.2,4.2,0,0,1-.8,2.1l-3.9,6.6-.8,1.4h-.1a2.9,2.9,0,0,1-1,1.2,16.3,16.3,0,0,1-1.3,4.8l-.5.9a28,28,0,0,1-3.7,4.8l-1.9,2.1c-1.9,2.1-3.7,4.2-5.7,6.1a7.6,7.6,0,0,1-2.6,1.8,3,3,0,0,1-2.9-.4v2.9a1.7,1.7,0,0,0-1.5,1.8,1.1,1.1,0,0,0,.3.8,63.6,63.6,0,0,0,5.8,12.4,25.7,25.7,0,0,0-4.9,3.8,21.3,21.3,0,0,0-2.5,3.4,11,11,0,0,0-.2,1.8c-.6,9.4,3.1,18.8,6.3,27.8,1,2.5,2,5.2,1.9,7.8l1.8,1.3a12,12,0,0,0-.3,5,8.7,8.7,0,0,0,.6,3.2l1.2,2c2,3.6,2.5,7.9,2.9,12.1.2,2.5-.7,5.5.4,7.7,2,3.9,3.7,8,4,12.2a14.3,14.3,0,0,0,.3,2.9,20.4,20.4,0,0,1,.9,2.2,8.5,8.5,0,0,1,.2,3.2,29.6,29.6,0,0,0,1.6,11.1c1,2.9,2.1,5.9,1.4,8.8a12.6,12.6,0,0,1,3.3,7.4,7.6,7.6,0,0,0,.3,2.1,8.8,8.8,0,0,0,.9,2,18.5,18.5,0,0,1,2.2,9.5,25.9,25.9,0,0,1,4.2,11.1c.7,4,1,8,1.9,11.9s3.4,10.4,3.8,15.7c2.6,1.6,3.7,4.8,4.2,7.8s.6,6.1,1.8,8.9,1.6,2.7,2.2,4.2a16.1,16.1,0,0,1,1,3.6,13.5,13.5,0,0,1,.2,6,8.1,8.1,0,0,0,2.4,1.7,8.3,8.3,0,0,1-.4-1.5c2.1,1.9,5.8,1.2,7.4,3.5a3.3,3.3,0,0,1-.8,4.6l-1.6.7c-4,1.2-3.9,2.5-8,1.8a3.3,3.3,0,0,1-1.4-.4c-.5-.4-5-.9-5.4-1.5l-1.8-2.9a31.5,31.5,0,0,1-4.4,1.1c-.2,1.2,3.8,2.5,3.8,3.8s-1.9.2-2.3-.6-4.2-.5-4.2-.8-.1-1.3-.1-2.1H290a14.3,14.3,0,0,1-7-1.5c.9-7-1.9-13.8-4.4-20.5s-4.7-14-6.9-21.2c-1.6-5-3.4-9.8-4.9-14.8s-3.9-12.7-5.9-19c-.8-2.8-1.7-5.6-2.7-8.3a141.2,141.2,0,0,0-7.3-16.4c-.8-1.5-1.6-2.9-2.3-4.5s-1.3-3.9-1.9-5.8a100.3,100.3,0,0,0-5-11.7l-.2-.3c-.6,2.6-1.2,5.3-1.7,7.9a29.3,29.3,0,0,0-.1,9.8c.4,2.2,1.1,4.4,1,6.6s-1.8,5.9-2.6,8.9a39.6,39.6,0,0,0-.9,6.8c-.2,3.6-2.1,7.6-.8,10.9,4.3,10.4,2.2,22.3,4.6,33.2,1.3,5.7,5.1,11,4.8,16.7-.2,4.1-.6,8.2-1.1,12.3a9.7,9.7,0,0,1-1,3.7,17.4,17.4,0,0,1-1.1,1.8q.6.1.9,1.2a4.8,4.8,0,0,1-1.7,5.5,6.3,6.3,0,0,1-2.3.8,12.6,12.6,0,0,1-3.3.5h-1.1c-1.2.5,1.7.9.4,1.3s-.1.7-.1,1a1.5,1.5,0,0,1-.4.9h-5v-1.1a3.4,3.4,0,0,1-2.7-.9c-.4-.5-4.7-1-4.9-1.6-1.1-4-2.3-8-3.5-12a41.3,41.3,0,0,1-1.7-13.6c1.6-14.6-1.8-29.2-.7-43.8a105.1,105.1,0,0,0-1.3-26.3c-.4-2-.8-4-1-6-.3-3.6.1-7.4-.2-11-.1-1.3-.2-2.6-.4-3.9a173.2,173.2,0,0,1-1.7-23.8,71.6,71.6,0,0,1,.5-8,4.8,4.8,0,0,1-2.2-1.2c-.7-.9-.5-2.2-.5-3.4,0-2.8-1.2-5.5-2.1-8.1a107,107,0,0,1-3-11.1,37.2,37.2,0,0,1-1.3-9.3v-1a1.9,1.9,0,0,1-.7-.8,3.3,3.3,0,0,1-.4-1.4l-.9-6.1-.6-4.3-2.5-17.6c-.2-1.5-.4-3.1-.7-4.6l-.6-4.5a10,10,0,0,1-.2-1.6C194.7,295.6,196.6,291.3,196.8,287.6Zm21,65.8a15.2,15.2,0,0,0,1.6-6.9h.1a3.6,3.6,0,0,1,.1-2.3c.2-.5.6-1,.9-1.6a5.7,5.7,0,0,0,.4-2.2,63.2,63.2,0,0,0-1.1-14.4l-.3-1.6a2.4,2.4,0,0,1-.9-.8,4.9,4.9,0,0,1-1-1.5c-.9-1.8-1.8-3.7-2.5-5.5s-.6-1.3-1.2-1.5c.1,4.7-.4,9.4,1.5,13.6a7.6,7.6,0,0,1,.8,2.1c.2,1.2-.3,2.4-.1,3.5s.3,1.2.4,1.8a1.7,1.7,0,0,1-.4,1.7l-.4.2a2.8,2.8,0,0,1,.1.9c.1.7.1,1.3.2,1.7a55.2,55.2,0,0,1,.2,5.8c0,2.1-.1,4.2-.1,6.3a5.2,5.2,0,0,0,.3,1.8l.6.8C217.3,354.7,217.5,354,217.8,353.4Z"/>
      <ellipse id="Ellipse_784" data-name="Ellipse 784" class="cls-17" cx="282.8" cy="249.1" rx="12.6" ry="4.5" transform="translate(-18 476.1) rotate(-78.4)"/>
      <path id="Path_194520" data-name="Path 194520" class="cls-18" d="M243.4,516a4.6,4.6,0,0,1-1.8,5.4,5.8,5.8,0,0,1-2.2.8,12.6,12.6,0,0,1-3.3.5c-1.4-.1-2.7-.6-4.1-.8h-.5a.4.4,0,0,0-.1.5c0,.8,4,1.6,3.9,2.3a1.3,1.3,0,0,1-.4.9.8.8,0,0,1-.7.1H230c-.1-3.7-3.8-7.5-2.9-11.2a4.1,4.1,0,0,1,.3-.8,2.7,2.7,0,0,1,1.4-.7,6.3,6.3,0,0,1,3.3-.6,8.5,8.5,0,0,1,3.7,1.8,5.3,5.3,0,0,0,4.2,1C241.5,514.9,242.7,513.8,243.4,516Z"/>
      <path id="Path_194521" data-name="Path 194521" class="cls-17" d="M306.4,512.5a11.3,11.3,0,0,0,4.3,2.9l.8.4c.1,0,.1.1.2.2a.4.4,0,0,1-.1.3,4.9,4.9,0,0,1-5.8,2.1,3.1,3.1,0,0,1-1.3-.6,3.9,3.9,0,0,1-.9-2.6,4.8,4.8,0,0,1,.1-2.9C304.8,509.8,305.2,510.9,306.4,512.5Z"/>
      <path id="Path_194522" data-name="Path 194522" class="cls-18" d="M289.9,522.2c0,.3,4.2.6,4.3.9s1.4.7,2.2.5c.1-2.6-3.7-5.3-3.1-8,1.5,0,2.6,1.4,3.4,2.7l2.2,3.4c.3.6,4.8,1.1,5.3,1.5a3.3,3.3,0,0,0,1.4.4c4,.7,4-.6,8-1.9a5.6,5.6,0,0,0,1.6-.7,3.3,3.3,0,0,0,.8-4.5c-1.6-2.3-5.3-1.6-7.4-3.5a16.6,16.6,0,0,0,1.1,3.8c-2.8-.4-4.6-2.9-6.8-4.6a5.6,5.6,0,0,0-1.9-.9,4.1,4.1,0,0,0-1.6.2,18.3,18.3,0,0,0-7,3.4,8.8,8.8,0,0,0-2.5,2.6C289.5,518.7,289.9,520.9,289.9,522.2Z"/>
      <circle id="Ellipse_785" data-name="Ellipse 785" class="cls-17" cx="235.5" cy="244.7" r="16.4"/>
      <path id="Path_194523" data-name="Path 194523" class="cls-18" d="M203.3,341.2a36,36,0,0,0,1.3,9.3,107,107,0,0,0,3,11.1c.9,2.6,2.1,5.3,2.1,8.1,0,1.1-.2,2.4.5,3.3a6.2,6.2,0,0,0,2.3,1.4,2.8,2.8,0,0,1,2,1.7,12.8,12.8,0,0,0,1.6-3.6c1.4-4.4,2.8-8.8,4-13.2a1.6,1.6,0,0,0-.1-1.5,1.3,1.3,0,0,0-.7-.4,8.3,8.3,0,0,1-2.2-1.4,2.3,2.3,0,0,1-.7-1,2.9,2.9,0,0,1-.3-1.8v-6.3a57.2,57.2,0,0,0-.2-5.8c0-.3-.1-1-.1-1.6s-.4-2.7-1.1-3.2-4,.3-5.1.4l-5.9,1A13.4,13.4,0,0,0,203.3,341.2Z"/>
      <path id="Path_194524" data-name="Path 194524" class="cls-18" d="M269.3,263c.6,1.3,2.2,1.9,3.3,2.7l4,2.7a2.6,2.6,0,0,0,2,.7,2.3,2.3,0,0,0,1.5-1.4h0l.8-1.4,4-6.7a3.7,3.7,0,0,0,.7-2c0-.4-.1-.7-.1-1a5,5,0,0,1,.8-2.7c.3-.6.9-1.1.9-1.8a7.3,7.3,0,0,0-.4-2.5,4.7,4.7,0,0,0-1.8-1.9l-1.1-.8-.7-.3c-.7-.1-1.3.4-2,.5-2.8,1.9-3.9,5.5-6.2,8.1s-1.4,2.6-2.8,4l-.7.6-.7,1.1C270.6,261.5,269,262.3,269.3,263Z"/>
      <path id="Path_194525" data-name="Path 194525" class="cls-17" d="M241.2,261a14.9,14.9,0,0,0-1.7,8,3.8,3.8,0,0,0,.7,2.1c1.1,1.8,3.5,2.1,5.6,2.2a3.1,3.1,0,0,1,2.4.8,2.3,2.3,0,0,1-.1,2.7,7.2,7.2,0,0,1-2.5,1.6c-3.2,1.4-6.8,2.6-10.4,2.3l-4.9-.9a48.9,48.9,0,0,0-5.4-.3l-6.5-.5-5.7-.6a1.1,1.1,0,0,1-.8-.3c-.4-.5.1-1.2.6-1.6,3-2.2,6.9-3.7,8.6-7.1a31.3,31.3,0,0,0,1.6-5.2,30.2,30.2,0,0,0,1.9-5,34.4,34.4,0,0,0,.3-4.6,6,6,0,0,1,1.5-4.2,7.7,7.7,0,0,1,4.4-1.4c3.7-.1,7.8.8,10.5,3.4.7.7,1.3,1.6,2,2.3s1.8.8,1.3,1.6-1.5,1.4-2,2.2Z"/>
      <path id="Path_194526" data-name="Path 194526" class="cls-18" d="M209,284.1a91.8,91.8,0,0,0,4.8,17.8,58.9,58.9,0,0,1,2.9,8c.6,2.5.5,5.1,1,7.5s1.4,6.2,2,9.3a62.3,62.3,0,0,1,1.1,14.3,5.4,5.4,0,0,1-.4,2.2,14,14,0,0,0-.9,1.7,3.7,3.7,0,0,0,.2,3.1,10.7,10.7,0,0,0,1.6,2.5c7.4,2.2,15.3,1.5,23,1.9s14.2,1.9,21.2.7c.8-3.2-.5-6.5-1.6-9.6-3.3-8.9-7-18.3-6.4-27.7a31.1,31.1,0,0,1,.4-3.2c1.1-6.7-.1-13.6-2.1-20-1.3-4.1-1.2-8.3-.9-12.5a28,28,0,0,0,0-4.1,7.7,7.7,0,0,0-1.4-3.9h-.2a.6.6,0,0,0-.6,0H252c-.1.1-.3.5-.6.6l-1.8.2a7.6,7.6,0,0,0-2.1.3h-.1a8.2,8.2,0,0,1-3.1-.3l-1.9-.7c-.1-.2-1.2-.4-1.5-.5s-.5-2.5-.7-3.4a10.5,10.5,0,0,0-.6-2.4,4.2,4.2,0,0,0-3.4-2,18.1,18.1,0,0,0-4,.4c-3,.4-6,.3-8.9,1s-3,.9-4.4.2-.4.4-.4.8a4.3,4.3,0,0,0,.2,1.1c.5,2.2-1.2,4.2-2.8,5.8a8.4,8.4,0,0,1-2.3,1.8l-2.4.9a5.7,5.7,0,0,0-1.6,1.5,9.2,9.2,0,0,0-.9,2.3A17.8,17.8,0,0,0,209,284.1Z"/>
      <path id="Path_194527" data-name="Path 194527" class="cls-7" d="M209,284.1a91.8,91.8,0,0,0,4.8,17.8,58.9,58.9,0,0,1,2.9,8c.6,2.5.5,5.1,1,7.5s1.4,6.2,2,9.3l.5.2a11.2,11.2,0,0,0,3.1,1,16.1,16.1,0,0,0,5.8-.2l11.3-1.5c4.5-.6,9.3-1.3,12.7-4.4a29,29,0,0,0,4.4-6c.1-1.1.2-2.2.4-3.3,1.1-6.6-.1-13.5-2.1-20-1.3-4-1.2-8.3-.9-12.5a28,28,0,0,0,0-4.1,6.7,6.7,0,0,0-1.5-3.8l-.7-.2h-1.5l-1.6.6h-.1a6.6,6.6,0,0,1-2.1.3l-3.1-.3a6.3,6.3,0,0,0-3.8.7l-2.1,1.9a9.7,9.7,0,0,1-2.6,1.5,28,28,0,0,1-21.1-.5,5,5,0,0,0-2.1-.5,3.9,3.9,0,0,0-1.5.6l-1.4.8a5,5,0,0,0-.9,2.3A14.9,14.9,0,0,0,209,284.1Z"/>
      <path id="Path_194528" data-name="Path 194528" class="cls-2" d="M202.1,278.8a42.3,42.3,0,0,0,9-3.9,5.1,5.1,0,0,1,1.5-.7,4.3,4.3,0,0,1,2.2.6,28.2,28.2,0,0,0,21,.4,8.7,8.7,0,0,0,2.7-1.4,12.9,12.9,0,0,1,2.1-1.9c2.6-1.7,6.2.3,9.1-.8a4.4,4.4,0,0,1,1.6-.6c2.3-.6,4.6,1.7,6.9,1a42.3,42.3,0,0,1,1.8,7,59.2,59.2,0,0,1,.5,8.4c0,1.6.1,3.3,0,5a1.5,1.5,0,0,0-1.5,1.7,1.6,1.6,0,0,0,.3.9,69.1,69.1,0,0,0,5.8,12.3,29.3,29.3,0,0,0-4.9,3.8c-2.7,2.9-4.1,7-7.1,9.7s-8.2,3.8-12.6,4.4l-11.3,1.5a16.3,16.3,0,0,1-5.8.2,10.3,10.3,0,0,1-3.1-1,5.4,5.4,0,0,1-1.8-1.1,8.6,8.6,0,0,1-1-1.6,53.8,53.8,0,0,1-2.4-5.5c-.3-.6-.7-1.4-1.4-1.5-4.2-3.7-8.2-7.6-12.4-11.4a25.6,25.6,0,0,1-4.5-4.8c-2.1-3-.2-7.4,0-11.1a12.6,12.6,0,0,1,.4-2.8C197.9,282.9,199.5,279.6,202.1,278.8Z"/>
      <path id="Path_194529" data-name="Path 194529" class="cls-7" d="M269.3,263c.6,1.3,2.2,1.9,3.3,2.7l4,2.7a2.6,2.6,0,0,0,2,.7,2.3,2.3,0,0,0,1.5-1.4v-.6a5.5,5.5,0,0,0-.2-1.8,5.8,5.8,0,0,0-1.8-2.3,15.6,15.6,0,0,0-5.2-3.2h-1l-.3.2a3.6,3.6,0,0,0-.7,1C270.6,261.5,269,262.3,269.3,263Z"/>
      <path id="Path_194530" data-name="Path 194530" class="cls-2" d="M259.9,271.3a5.8,5.8,0,0,0,3.4-1.9l3-2.8.5-.6a3,3,0,0,0,.4-1,11,11,0,0,1,2.9-4.2,2.4,2.4,0,0,1,.8-.6h1a15.6,15.6,0,0,1,5.2,3.2,5.8,5.8,0,0,1,1.8,2.3,4,4,0,0,1,.2,1.9,15.4,15.4,0,0,1-1.3,6l-.5.9a28,28,0,0,1-3.7,4.8l-1.9,2.1a82.2,82.2,0,0,1-5.7,6.1,8.1,8.1,0,0,1-2.6,1.8,2.8,2.8,0,0,1-2.9-.5,4.6,4.6,0,0,1-.9-1.5,30.6,30.6,0,0,1-2.4-9.9,28.2,28.2,0,0,1,.2-4.1C257.5,272,258.5,271.4,259.9,271.3Z"/>
      <path id="Path_194531" data-name="Path 194531" class="cls-19" d="M211.9,382.2a173.2,173.2,0,0,0,1.7,23.8c.1,1.2.3,2.5.4,3.8.3,3.7-.2,7.4.2,11.1.2,2,.6,3.9.9,5.9a104.4,104.4,0,0,1,1.4,26.2c-1.1,14.6,2.2,29.2.7,43.8a33.9,33.9,0,0,0,.5,8.4,38.1,38.1,0,0,0,1.2,5.1c1.2,4,2.3,8,3.5,11.9.1.6,4.5,1.2,4.9,1.7a3.4,3.4,0,0,0,2.9.8c4.6-.1,4.8-2.1,9-4l1.3-.8c.8-.9.8-2.3,1.1-3.5a39.7,39.7,0,0,1,2-3.5,10.6,10.6,0,0,0,.9-3.6c.5-4,.9-8.1,1.1-12.2.3-5.7-3.5-11-4.8-16.6-2.4-11-.3-22.8-4.6-33.2-1.3-3.3.6-7.3.8-10.8a38.4,38.4,0,0,1,.9-6.8c.8-3,2.5-5.8,2.6-8.9s-.6-4.4-1-6.6a29.3,29.3,0,0,1,.1-9.8c.4-2.6,1.1-5.3,1.7-7.9l.2.3a85.2,85.2,0,0,1,4.9,11.7c.7,1.9,1.2,3.9,2,5.8s1.5,3,2.2,4.5a125.5,125.5,0,0,1,7.4,16.3l2.7,8.3,5.8,19c1.6,5,3.3,9.8,4.9,14.8,2.2,7.1,4.4,14.2,6.9,21.1s5.2,13.5,4.4,20.5a15.4,15.4,0,0,0,7,1.4,40.7,40.7,0,0,0,11.9-2.9,10.1,10.1,0,0,0,4.1-2.4c1.7-2.2,1.3-5.3.7-8.1a23.7,23.7,0,0,0-.9-3.6c-.6-1.4-1.6-2.7-2.2-4.2s-1.3-5.8-1.8-8.8-1.6-6.2-4.2-7.8c-.4-5.3-2.6-10.5-3.8-15.7s-1.2-7.9-1.9-11.8a26.8,26.8,0,0,0-4.2-11.2,17.5,17.5,0,0,0-2.2-9.5,7.2,7.2,0,0,1-.9-2,7.6,7.6,0,0,1-.3-2.1,12,12,0,0,0-3.3-7.3c.8-2.9-.3-5.9-1.3-8.7a30.5,30.5,0,0,1-1.7-11.2,10.8,10.8,0,0,0-.1-3.1c-.3-.8-.7-1.5-1-2.3a12.7,12.7,0,0,1-.3-2.8c-.3-4.3-2-8.3-4-12.1s-.1-5.3-.4-7.8c-.4-4.1-.8-8.4-2.9-12a19.8,19.8,0,0,1-1.1-2,8.8,8.8,0,0,1-.7-3.2,12,12,0,0,1,.3-5c-4.2-3.5-10-4.5-15.5-4.8s-11.1.3-16.5-.9l-4.8-1.1c-3.8-.5-7.6.4-11.4,1.2a12.8,12.8,0,0,1-1.6,6.9,71.9,71.9,0,0,0-5.8,28.2Z"/>
      <path id="Path_194532" data-name="Path 194532" class="cls-7" d="M230.5,384l9.1,20.4c.4-2.6,1.1-5.3,1.7-7.9l.2.3v-.4l-5-10.9Z"/>
      <path id="Path_194533" data-name="Path 194533" class="cls-7" d="M203.3,341.2a2.9,2.9,0,0,0,1.8.7,7,7,0,0,0,2.9-.4l7.2-1.8.6-.2c-.1-1.2-.3-2.7-1-3.2s-4,.3-5.2.4l-5.8,1A13.4,13.4,0,0,0,203.3,341.2Z"/>
      <path id="Path_194534" data-name="Path 194534" class="cls-2" d="M197.2,294.1c-.1.7-.3,1.3-.4,2a13.5,13.5,0,0,0,.1,4.9l.7,4.5.6,4.6,2.5,17.5.6,4.4.9,6a8.3,8.3,0,0,0,.4,1.5,3.1,3.1,0,0,0,2.5,1.4,7,7,0,0,0,2.9-.4l7.2-1.8a1.1,1.1,0,0,0,.8-.3,1.8,1.8,0,0,0,.5-1.7c-.1-.6-.4-1.1-.5-1.8s.4-2.3.2-3.5a18,18,0,0,0-.8-2.1c-2.4-5.3-1-11.4-1.8-17.1a25.2,25.2,0,0,0-5.5-12.2,38.5,38.5,0,0,0-6.1-6c-.9-.7-2.3-2.1-3.4-2.3S197.5,293.1,197.2,294.1Z"/>
      <path id="Path_194535" data-name="Path 194535" class="cls-19" d="M251.2,225.9c.5,1.7-.3,3.5,0,5.2s2.2,3.2,2.7,5.1-1.6,5.4-3.4,7.8c-6.6,8.8-5.7,21-3.5,31.8a170.9,170.9,0,0,0,7.5,25.3,19.4,19.4,0,0,0,4.1,7.1c-3.7-1-7.6-2.1-11.2-1.1s-8.6,5.8-13.3,4.8c-2.8-.7-4.8-3.2-7.3-4.5-4.8-2.6-10.5-1-15.8-.2a6.9,6.9,0,0,1-3.5-.1,6.4,6.4,0,0,1-2-2,19.3,19.3,0,0,1-4.1-10.5,13.1,13.1,0,0,1,3.9-10.4,19.9,19.9,0,0,0,3.3-3.2,9.8,9.8,0,0,0,1.3-4.8c.6-8.7-1.5-17.6.7-26,.8-3,2.1-5.9,2.4-8.9s-.6-7.9.9-11.4a11.3,11.3,0,0,1,6.7-5.8,38.7,38.7,0,0,1,8.9-1.6C233.9,222.1,249.4,220.3,251.2,225.9Z"/>
      <path id="Path_194536" data-name="Path 194536" d="M247,275.8a158.5,158.5,0,0,0,7.5,25.2c-.6-1.1-1-2.2-1.5-3.3a171.8,171.8,0,0,1-7.4-25.4c-2.3-10.7-3.2-22.9,3.4-31.7,1.6-2.2,3.6-4.4,3.6-6.9a9.9,9.9,0,0,1,1.3,2.5c.8,2.8-1.6,5.4-3.4,7.8C243.9,252.8,244.8,265,247,275.8Z"/>
      <path id="Path_194537" data-name="Path 194537" d="M251.1,230.3a7.1,7.1,0,0,1-1.3-2.6,14.5,14.5,0,0,1,0-3.6,4,4,0,0,1,1.4,1.8C251.6,227.3,251.1,228.9,251.1,230.3Z"/>
      <path id="Path_194538" data-name="Path 194538" d="M204,301.6a5.8,5.8,0,0,0,2.1,2,5.6,5.6,0,0,0,3.4.1c5.3-.8,11.1-2.4,15.8.2,2.5,1.3,4.5,3.8,7.3,4.5,4.7,1,8.7-3.5,13.3-4.8s6.7-.1,10,.8a14.6,14.6,0,0,0,2.7,3.8c-3.7-1-7.6-2.1-11.2-1.1s-8.6,5.8-13.3,4.8c-2.8-.7-4.8-3.2-7.3-4.5-4.8-2.6-10.5-1-15.8-.2a6.5,6.5,0,0,1-3.4-.1,5.8,5.8,0,0,1-2.1-2,19.6,19.6,0,0,1-3.3-6.2A15.9,15.9,0,0,0,204,301.6Z"/>
    </g>
  </g>
  <rect id="Rectangle_7193" data-name="Rectangle 7193" class="cls-2" x="12.6" y="523" width="681.1" height="5"/>
</svg>
