<svg xmlns="http://www.w3.org/2000/svg" xmlns:xlink="http://www.w3.org/1999/xlink" width="552.716" height="407" viewBox="0 0 552.716 407">
  <defs>
    <clipPath id="clip-path">
      <path id="Path_195042" data-name="Path 195042" d="M381.817,314.461s-5.375,17.2-5.734,21.856-5.321,35.132-5.931,37.931c-3.005,13.8-6.252,44.187-6.252,44.187l2.151,2.8-2.151,4.177v5.363a29.181,29.181,0,0,1,5.107-.942c1.612,0,6.046,1.882,6.046,1.882s4.791-13.168,4.791-15.138,2.151-2.866,1.972-4.3-.7-5.194.01-6.806,3.841-15.946,4.109-19.708,4.569-15.585,4.569-15.585,5.106-15.048,5.911-17.2S398.5,339.54,403.5,339.54s13.065,16.124,14.41,22.035,9.943,34.934,11.286,37.083,6.45,9.406,6.45,9.406l-1.99,7.819,1.36,10.7s.878,5.546,1.012,6.755,4.6,0,4.6,0,8.315-1.765,9.658-2.436,1.478-3.627,1.209-4.569a19.8,19.8,0,0,1-1.075-3.761c0-.94-5.783-39.119-6.32-42.074s-5.014-13.321-6-17.631a120.513,120.513,0,0,1-1.919-17.687c0-3.224-.539-6.717-.539-8.06s-7.525-24.992-7.525-24.992Z" transform="translate(-363.901 -312.131)" fill="none"/>
    </clipPath>
    <clipPath id="clip-path-2">
      <path id="Path_195046" data-name="Path 195046" d="M391.2,239.346c-1.963.515-2.2,1.364-4.747,2.777-1.564.868-1.853.759-6.941,2.6a46.877,46.877,0,0,0-5.241,2.015c-2.862,2.558-1.074,6.784-2.508,13.48-.747,3.49-3.482,6.785-3.225,8.241s4.726,1.292,8.241,1.254c3.9-.041,4.523-.948,5.554-.358,4.13,2.361-3.839,17.994-3.227,34.217.059,1.539.322,6.436,0,13.167-.144,3.071-.367,5.589-.536,7.256a136.761,136.761,0,0,0,25.26,4.3c10.564.782,15.362-.133,19.617-2.418a25.222,25.222,0,0,0,7.254-5.912,17,17,0,0,1-1.612-6.718c-.05-2.233.419-3.073.269-5.91a30.556,30.556,0,0,0-.806-5.108c-.867-4.05-1.416-5.5-1.882-7.524-.564-2.443-2.625-11.379,1.882-17.736a13.631,13.631,0,0,1,1.343-1.612c.777.479,1.433,1.926,2.329,1.433s2.12-9.809,3.313-12.629a20.029,20.029,0,0,0,2.15-7.346,10.053,10.053,0,0,0-4.3-9.852c-.706-.552-2.141-1.649-8.063-4.3-2.02-.905-3.031-1.357-4.029-1.7a32.4,32.4,0,0,0-6.718-1.522,36.625,36.625,0,0,0-10.079.055,22.92,22.92,0,0,1-8.509-.055,12.59,12.59,0,0,0-2.712-.356,8.145,8.145,0,0,0-2.08.266" transform="translate(-368.524 -239.08)" fill="none"/>
    </clipPath>
    <clipPath id="clip-path-3">
      <path id="Path_195049" data-name="Path 195049" d="M400.688,226.846q-1.166,7.524-2.329,15.048h13.437q-1.077-7.7-2.152-15.407Z" transform="translate(-398.358 -226.487)" fill="none"/>
    </clipPath>
    <clipPath id="clip-path-4">
      <rect id="Rectangle_7334" data-name="Rectangle 7334" width="18.675" height="8.244" fill="none"/>
    </clipPath>
    <clipPath id="clip-path-5">
      <rect id="Rectangle_7335" data-name="Rectangle 7335" width="9.899" height="27.973" fill="none"/>
    </clipPath>
    <clipPath id="clip-path-6">
      <path id="Path_195055" data-name="Path 195055" d="M369.813,266.317c-.539,3.683.754,13.048.964,19.84a7.109,7.109,0,0,0,5.911,7.7c4.315,1.155,17.057,2.3,34.218,2.867q6-2.868,12-5.733c3.828-4.036,5.761-8.463,4.363-10.64-1.794-2.8-8.869-1.538-13.321,1.144a17.4,17.4,0,0,0-6.628,7.525c-4.024-.822-8.347-1.874-12.9-3.225-3.985-1.182-7.691-2.458-11.107-3.762a41.9,41.9,0,0,0,.516-8.049,30.752,30.752,0,0,0-.788-6.845,36.8,36.8,0,0,0-9.292-1.219,15.64,15.64,0,0,0-3.939.395" transform="translate(-369.683 -265.922)" fill="none"/>
    </clipPath>
    <clipPath id="clip-path-7">
      <rect id="Rectangle_7338" data-name="Rectangle 7338" width="17.601" height="6.18" fill="none"/>
    </clipPath>
    <clipPath id="clip-path-8">
      <rect id="Rectangle_7339" data-name="Rectangle 7339" width="20.728" height="9.236" fill="none"/>
    </clipPath>
    <clipPath id="clip-path-9">
      <rect id="Rectangle_7340" data-name="Rectangle 7340" width="11.788" height="23.67" fill="none"/>
    </clipPath>
    <clipPath id="clip-path-10">
      <path id="Path_195077" data-name="Path 195077" d="M521.85,356.141c-14.246,1.287-28.494,2.563-42.76,3.605a.833.833,0,0,1-.138,0q-.049,0-.1,0a.353.353,0,0,1-.033.3.359.359,0,0,1-.3.164h-.047l.046-.359c-1.3,0-2.6-.018-3.9,0-3.476.05-7.606.038-10.53,2.223a8.45,8.45,0,0,0-3.109,5.86,54,54,0,0,0-.242,7.363c0,2.8.011,5.6.06,8.4.1,5.593.535,11.114,1.03,16.681.439,4.942-.491,9.624-1.232,14.488-.162,1.072-.726,2.946-.174,4.012a1.7,1.7,0,0,0,.934.73,8.305,8.305,0,0,0,1.305.348,29.214,29.214,0,0,0,7.308.533,19.23,19.23,0,0,0,3.277-.314c.318-.069.827-.144,1-.468a2.212,2.212,0,0,0-.033-1.332c-.07-.309-.149-.6-.177-.793a23.97,23.97,0,0,1-.263-3.1,37.615,37.615,0,0,1,.824-7.078c.955-5.262,2.193-10.522,2.6-15.866a60.513,60.513,0,0,0-.767-14.632s.786.3,1.193.421a47.225,47.225,0,0,0,7.55,1.263c2.658.306,5.329.514,8,.656,5.787.306,11.583.512,17.377.649,5.532.132,11.093.268,16.622-.076,3.062-.191,7.105-.242,9.539-2.442,2.221-2.005,2.42-5.993,2.185-8.743l-.274.036a4.487,4.487,0,0,1,.222-.764c.138-.354.289-.693.365-.979.1-.373.195-.752.28-1.13a80.5,80.5,0,0,0-14.588-11.7,3.522,3.522,0,0,1-3.047,2.048" transform="translate(-460.185 -354.093)" fill="none"/>
    </clipPath>
    <clipPath id="clip-path-11">
      <path id="Path_195080" data-name="Path 195080" d="M505.885,272.564c-.284.2-.27.6-.272,1.089a7.391,7.391,0,0,0,.063.861l-.022.172c-.233.609-.453,1.21-.621,1.823a31.338,31.338,0,0,0-.841,4.949c-.161,1.525-.548,3.017-.64,4.457a7.169,7.169,0,0,1-.258,2.4c-.382.906-1.081,1.465-1.378,2.137a1.884,1.884,0,0,0-.177.746.82.82,0,0,0,.086.4.515.515,0,0,0,.27.236,3.267,3.267,0,0,0,.839.209,1.615,1.615,0,0,1,.989.582c1.939,4.092,2.556,5.726,2.635,6.293a4.343,4.343,0,0,0,.443,1.368,3.258,3.258,0,0,0,.3.463,2.041,2.041,0,0,0,.843.761,2.622,2.622,0,0,0,1.846-.118c.8-.252.77-.461,1.229-.493a2.523,2.523,0,0,1,1.833.906,3.364,3.364,0,0,1,.863,1.7l.007.122a.863.863,0,0,1-.319.668c-.158.137-.306.225-.432.338a4.562,4.562,0,0,0-.629.675,6.146,6.146,0,0,0-.891,2.192c-.412,1.671-.853,3.37-1.2,5.036a3.637,3.637,0,0,0-.1.661.46.46,0,0,0,.043.2.354.354,0,0,1,.231.173.35.35,0,0,1,.028.286l-.006.017c3.594-2.327,7.185-4.97,11.017-6.816A34.792,34.792,0,0,1,525.5,305.4a14.2,14.2,0,0,1,3.2-1.272c0-.042-.012-.084-.012-.127,0-.078.007-.158.016-.247.025-.239.079-.422.084-.569.005-.094.007-.195.007-.3a7.855,7.855,0,0,0-.236-1.868,3.634,3.634,0,0,0-.732-1.536.943.943,0,0,0-.737-.289h-.037c-.085,0-.133.01-.239.012a.558.558,0,0,1-.309-.091.747.747,0,0,1-.211-.225,1.17,1.17,0,0,1-.158-.583c-.015-.178-.018-.354-.028-.425a13.447,13.447,0,0,1-.1-1.559.356.356,0,0,1,.149-.291.352.352,0,0,1,.32-.049l.074-.064a1.844,1.844,0,0,0,.353-.919,6.888,6.888,0,0,1,.262-1.273c7.49-18.591-2.635-23.412-11.535-23.412-4.167,0-8.064,1.058-9.759,2.254" transform="translate(-501.738 -270.31)" fill="none"/>
    </clipPath>
    <clipPath id="clip-path-12">
      <path id="Path_195084" data-name="Path 195084" d="M522.708,321.526c.013-.015.026-.03.039-.043a1.359,1.359,0,0,1,.228.345,1.6,1.6,0,0,1-.267-.3m1.818-20a39.935,39.935,0,0,0-4.2,1.412c-3.831,1.846-6.35,6.087-9.944,8.415-1.537,4.691-6.956,8.357-4.823,19.279a103.486,103.486,0,0,1,1.921,11.26c.085,1.019.162,2.06.162,3.1,0,.532-.021,1.063-.069,1.592a29.747,29.747,0,0,1-.71,3.188c-.163.8-.279,1.606-.379,2.421-.036.283-.4,3.577-.427,3.861a4.271,4.271,0,0,0,2.666-.961c.953-.582,1.9-1.163,2.754-.94,9.311,2.432,17.445,9.192,24.36,15.938a13.311,13.311,0,0,0,.332-2.293l0-.221c.008-1.6-.776-3.007-1.144-4.747-.684-3.314,1.534,4.361-.155-23.743v-.027c.011-5.323,4.846-9.24-.347-24.276a67.615,67.615,0,0,0-3.563-8.511c-.679-1.342-1.416-2.658-2.2-3.946-.1-.173-.011-.674-.072-.806-.023-.045-.08,0-.134.041s-.109.091-.117.035a4.621,4.621,0,0,1-1.769-.1,7.68,7.68,0,0,0-1.286-.155,1.814,1.814,0,0,0-.857.178" transform="translate(-505.063 -301.344)" fill="none"/>
    </clipPath>
    <clipPath id="clip-path-13">
      <path id="Path_195089" data-name="Path 195089" d="M519.8,352.55l-12.02,10.761c4.111-.23,2.209,6.174,10.589,6.183,11.834.01,15.568,7.34,17.117,2.479a14.96,14.96,0,0,0,.823-4.628c-.03-2.269-1.656-4.187-.979-6.445a19.053,19.053,0,0,0,.6-5.059,63.779,63.779,0,0,0-.214-6.65c-.181-2.177-.451-4.34-.556-6.521a25.214,25.214,0,0,1-.037-5.266c.33-2.017,1.121-3.94,1.518-5.947A23.985,23.985,0,0,0,537.1,326a41.726,41.726,0,0,0-3.006-12.862,54.721,54.721,0,0,0-5.627-11.631Z" transform="translate(-507.776 -301.509)" fill="none"/>
    </clipPath>
    <clipPath id="clip-path-14">
      <path id="Path_195099" data-name="Path 195099" d="M587.134,427.033c-1.323,1.487-9.742,4.953-9.742,4.953l-2.642,6.771h10.9s16.016-2.642,16.016-5.447-1.487-4.46-1.653-5.947-.66-7.594-.66-7.594l-9.97-1.322s-.928,7.1-2.248,8.586" transform="translate(-574.75 -418.447)" fill="none"/>
    </clipPath>
    <clipPath id="clip-path-15">
      <path id="Path_195105" data-name="Path 195105" d="M584.514,311.114c-3.138.241-11.38,13-11.38,13l-.277,2.857s-.892,2.971,0,8.915.345,2.723.114,4.7,3.7,22.291,4.938,23.281,3.716,18.575,3.716,21.052,3.218,4.458,3.467,6.688,2.477,9.659,3.22,12.878,0,24.272,0,24.272,8.669,2.479,10.9,2.479,7.47-1.487,7.47-1.487-.782-21.549-1.525-33.188-5.449-17.75-5.449-17.75-.5-10.9-.5-13.044,3.138-14.2,3.469-21.3,3.467-13.209,3.962-17.006-3.962-13.705-3.962-13.705-13.844-2.656-17.729-2.656c-.162,0-.308,0-.434.014" transform="translate(-572.46 -311.1)" fill="none"/>
    </clipPath>
    <clipPath id="clip-path-16">
      <path id="Path_195111" data-name="Path 195111" d="M579.549,235.49a7.417,7.417,0,0,1,.9,9.52c-.99,1.559-1.541,2.741-1.986,3.243a8.664,8.664,0,0,1-.874.879c-.532.452-1.748.874-4.791,2.121,2.333-.956,5.183,1.443,6.348,3.987,1.2,2.618-.091,4.82.838,5.629,1.092.951,4.794-.414,15.369-9.141-.979-1.109-1.894-2.189-2.755-3.233a7.858,7.858,0,0,1-1.537-2.415,6.539,6.539,0,0,1-.387-2.008,5.307,5.307,0,0,1-.96-1.075,5.711,5.711,0,0,1-.838-2.156c-.2-.93-.945-2.223-3.383-3.762.052-.381.509-4.117-1.745-6.038a5.174,5.174,0,0,0-2.022-1.011,4.291,4.291,0,0,0-1.061-.143c-2.776,0-3.472,3.3-1.118,5.6" transform="translate(-572.801 -229.886)" fill="none"/>
    </clipPath>
    <clipPath id="clip-path-17">
      <path id="Path_195115" data-name="Path 195115" d="M588.024,271.148s5.449,15.6,6.441,17.831,3.466,3.468,3.961,5.45-15.355,27.408-16.18,28.069-6.11.329-7.1.329-2.559,1.9-2.146,3.137c.234.7,1.182.609,2.005.516.63-.07,1.19-.142,1.3.145.247.662-.5,2.807-.413,3.55s4.871,6.6,6.026,6.192,5.037-3.386,5.284-4.459.248-6.192,1.569-7.183,16.593-17.172,16.593-17.172,6.191-7.553,6.935-9.287-1.486-5.324-1.486-5.324l-7.183-23.281Z" transform="translate(-572.931 -269.661)" fill="none"/>
    </clipPath>
    <clipPath id="clip-path-18">
      <rect id="Rectangle_7353" data-name="Rectangle 7353" width="3.987" height="2.941" fill="none"/>
    </clipPath>
    <clipPath id="clip-path-19">
      <path id="Path_195126" data-name="Path 195126" d="M165.134,294.156a20.2,20.2,0,0,0-2.111,4.266c-.75,1.817-1.427,3.665-2.058,5.528a89.145,89.145,0,0,0-3.1,11.5c-1.631,8.37-1.957,16.908-2.482,25.4-.248,4-.534,8-.81,12a18.869,18.869,0,0,0,1.229,9.039c.413.92,1.2,2.405,2.439,1.993a4.34,4.34,0,0,0,1.575-1.251,24.066,24.066,0,0,1,3.3-3.252c2.865-2.059,6.621-2.951,9.976-3.861,3.9-1.057,7.886-1.62,11.8-2.569a22.052,22.052,0,0,0,2.448-.748c.683-6.475,1.345-12.95,2.2-19.391a47.976,47.976,0,0,0-1.272-19.856,37.444,37.444,0,0,0-4.223-9.373c-1.923-3.026-4.611-5.748-6.823-8.6l-10.613-2.287Z" transform="translate(-154.498 -292.694)" fill="none"/>
    </clipPath>
    <clipPath id="clip-path-20">
      <path id="Path_195129" data-name="Path 195129" d="M173.709,335.526a27.524,27.524,0,0,0,2.271,7.7,9.709,9.709,0,0,0,2.16,3.249,20.185,20.185,0,0,0,5.773,3.416c7.037,3.15,4.54,2.232,9.068,3.742a214.569,214.569,0,0,0,22.605,5.821c3.246,3.415,5.869,4.141,6.885,4.342a22.3,22.3,0,0,0,3.623.447c.32.011.641.011.964.011a12.551,12.551,0,0,1,2.133.119c1.558.27,2.922,1.156,4.444,1.552,1.362.354,3.007-.063,3.236-1.682a2.352,2.352,0,0,0-.833-1.927,17.22,17.22,0,0,0-5.666-3.782c-3.681-1.227-7.816-2.543-12.441-3.858a143.973,143.973,0,0,0-19.293-11.2c-2.425-1.124-7.367-3.136-10.748-8.223a24.58,24.58,0,0,1-1.806-3.135Z" transform="translate(-173.709 -332.126)" fill="none"/>
    </clipPath>
    <clipPath id="clip-path-21">
      <path id="Path_195132" data-name="Path 195132" d="M186.675,269.852c-.984.018-1.246.914-1.53,1.726a8.21,8.21,0,0,1-1.984,3.55,5.587,5.587,0,0,0-2.036,2.968c-.084.438.3,5.19-1.446,4.02-.865-.581-.793-2.585-.944-3.408a4.446,4.446,0,0,0-1.622-2.52c-1.044-1.021-1.244-2.966-3.187-2.447-2.567.687-1.329,3.741-.9,5.384a6.44,6.44,0,0,0,1.482,3.134,1.871,1.871,0,0,0,2.112.113,2.085,2.085,0,0,0-.131.214c-.486.928.081,1.818.1,2.616.037,1.328-1.433,2.381-2.12,2.873a6.423,6.423,0,0,1-4.389,1.085,5.836,5.836,0,0,1-4.59,2.442l14.024,6.519a7.905,7.905,0,0,1,2.087-2.953,10.687,10.687,0,0,1,4.165-1.8c.959-.3,1.855-.589,1.926-1.7.005-.1,1.3-7.435,1.379-7.533.37-.444,1.221-.37,1.714-.544,2.78-.985-.875-4.957-1.536-6-.583-.918-.14-1.474-.155-2.492a5.205,5.205,0,0,0-.559-1.737,6.214,6.214,0,0,1-.323-2.028c-.022-.471-.081-.931-.142-1.4-.507.268-.586.156-.8.041a1.11,1.11,0,0,0-.561-.123h-.04" transform="translate(-165.494 -269.852)" fill="none"/>
    </clipPath>
    <clipPath id="clip-path-22">
      <path id="Path_195163" data-name="Path 195163" d="M292.431,343.651s-10.578,4.938-14.457,10.4-5.288,4.937-7.052,7.231-2.116,4.053-.881,6.874,1.939,51.835,1.939,51.835v6.7s4.1-1.235,6.039-1.059,7.185,1.059,9.123,1.411,1.236-5.995,1.236-5.995l1.586-5.113s1.41-33.323,2.467-36.143,9.875-7.757,9.875-7.757,0-1.411,9.52,0a38.664,38.664,0,0,0,12.249-.587c4.207-.726,7.411-1.452,8.555-.119,2.116,2.469,2.468,14.809,2.468,21.51s.706,11.283,0,15.162,1.411,14.1,1.764,15.515a11.264,11.264,0,0,1,.235,3.053,10.13,10.13,0,0,1,5.407-1.29c3.527,0,9.521-.352,9.521-.352s-2.468-8.11,0-13.4,3.527-25.036,3.527-30.677,2.467-16.572,0-20.8-26.094-16.4-26.094-16.4Z" transform="translate(-269.31 -343.651)" fill="none"/>
    </clipPath>
    <clipPath id="clip-path-23">
      <path id="Path_195168" data-name="Path 195168" d="M302.262,286.183c-10.492,4.248-23.237,7.276-26.342,19.469-.762,2.993-1.154,6.072-1.962,9.054-.555,2.048-2.709,5.342-1.7,7.468,1.364,2.866,8.5,3.733,11.225,3.943l18.776,30.5,24.331-5.819L340.7,324l4.408-1.322s2.644.264,2.644-1.146c0-3.437-1.515-7.329-2.287-10.646-1.134-4.869-1.606-11.061-3.8-15.51-2.532-5.147-9.106-5.337-14.079-6.542q-5.6-1.358-11.221-2.653Z" transform="translate(-271.995 -286.183)" fill="none"/>
    </clipPath>
    <clipPath id="clip-path-24">
      <path id="Path_195171" data-name="Path 195171" d="M298.363,286.951c-.267.064,0,6.69,0,7.276a5.275,5.275,0,0,0,.346,2.675,7.52,7.52,0,0,0,5.712,4.142,12.429,12.429,0,0,0,13.692-6.16V282.19s-19.723,4.753-19.75,4.761" transform="translate(-298.244 -282.19)" fill="none"/>
    </clipPath>
    <clipPath id="clip-path-25">
      <path id="Path_195176" data-name="Path 195176" d="M335.056,318.754c-3.174.264-5.752,4.187-5.752,4.187l-.529,14.017-1.85,2.454c-1.851,2.454-16.133,11.3-16.133,11.3l-3.04-1.983-4.1,2.512v7.67H306.3l2.249-3.042,2.908.53,1.059,2.512h1.85l21.554-12.562s3.967-1.455,4.761-2.644-.265-3.57-.265-3.57l3.372-21.091s-3.613-.358-6.676-.358c-.734,0-1.437.021-2.052.071" transform="translate(-303.651 -318.683)" fill="none"/>
    </clipPath>
    <clipPath id="clip-path-26">
      <path id="Path_195179" data-name="Path 195179" d="M274.592,320.025a137.834,137.834,0,0,0,3.922,17.764c.908,3.24,1.265,4.932,1.983,5.817,1.718,2.114,19.834,9.52,20.1,10.71s0,9.124,0,9.124l6.479,4.365s7.4.925,8.462.661,3.174-7.009,2.91-7.933-3.571-1.72-3.571-1.72l-1.059-2.512-2.908-.53-2.249,3.042h-2.644v-7.67L290.15,336.6l-.528-14.149c-2.228-.835-5.155-2.69-9.389-2.494-.735.036-1.541,0-2.332-.036-.564-.026-1.121-.052-1.642-.052a6.927,6.927,0,0,0-1.668.158" transform="translate(-274.592 -319.867)" fill="none"/>
    </clipPath>
    <clipPath id="clip-path-27">
      <rect id="Rectangle_7370" data-name="Rectangle 7370" width="17.983" height="5.728" fill="none"/>
    </clipPath>
    <clipPath id="clip-path-28">
      <rect id="Rectangle_7371" data-name="Rectangle 7371" width="295.635" height="6.154" fill="none"/>
    </clipPath>
  </defs>
  <g id="Group_10704" data-name="Group 10704" transform="translate(14079.421 -9347.046)">
    <path id="Path_196021" data-name="Path 196021" d="M-13852.54,13693.744c77.37-121.447,168.983-76.68,245.178-86.268s103.226-43.886,175.409-21.33,129.089,209.775,58.1,320.615-166.445,47.609-262.8,59.7-135.858,36.222-189.425,0S-13929.912,13815.19-13852.54,13693.744Z" transform="translate(-187.12 -4231.557)" fill="#0d5bb9" opacity="0.18"/>
    <g id="Group_10701" data-name="Group 10701" transform="translate(-14074.913 9469.964)">
      <g id="Group_10296" data-name="Group 10296" transform="translate(119.54 115.178)">
        <g id="Group_10699" data-name="Group 10699" transform="translate(0 0)">
          <path id="Path_195031" data-name="Path 195031" d="M234.924,430c-.5.107-.685.658-.824,1.084a24.946,24.946,0,0,0-.931,6.069,15.949,15.949,0,0,0-.027,2.726,1.436,1.436,0,0,0,.208.687c.433.614,1.548.712,2.2.8a38.153,38.153,0,0,0,5.107.209q4.45,0,8.9-.005a111.33,111.33,0,0,0,12.5-.313,16.606,16.606,0,0,0,5.494-1.42c.6-.3,1.157-.662,1.216-1.381.131-1.619-.366-3.279-1.955-3.931-1.339-.549-2.874-.342-4.281-.439a14.755,14.755,0,0,1-5.546-1.618,33.955,33.955,0,0,1-5.141-3.282,23.441,23.441,0,0,1-2.333-1.929,1.941,1.941,0,0,0-.88-.632c-2.193-.513-2.989,1.991-4.27,3.122a5.435,5.435,0,0,1-2.94,1.191,9.036,9.036,0,0,1-2.773-.114c-.958-.179-1.862-.543-2.811-.757a2.155,2.155,0,0,0-.908-.066" transform="translate(-233.092 -302.813)" fill="#282e5b"/>
          <path id="Path_195036" data-name="Path 195036" d="M432.648,427.592c0,1.612,3.046,11.287,3.046,11.287h14.87s1.253-3.226.9-4.479-5.148-4.837-5.44-5.554-3.933-10.031-3.933-10.031-9.439,7.166-9.439,8.778" transform="translate(-216.84 -303.443)" fill="#282e5b"/>
          <path id="Path_195037" data-name="Path 195037" d="M366.542,418.73s-2.283,7.256-3.358,9-7.255,6.181-7.525,6.718-1.076,5.508-1.076,5.508h20.558s.939-7.524.939-9.136-.671-6.046-.671-6.046l-.537-5.239Z" transform="translate(-223.198 -303.45)" fill="#282e5b"/>
          <path id="Path_195038" data-name="Path 195038" d="M381.817,314.461s-5.375,17.2-5.734,21.856-5.321,35.132-5.93,37.931c-3.005,13.8-6.252,44.189-6.252,44.189l2.15,2.8-2.15,4.177v5.363a29.192,29.192,0,0,1,5.105-.941c1.613,0,6.046,1.881,6.046,1.881s4.792-13.168,4.792-15.138,2.15-2.866,1.972-4.3-.7-5.193.01-6.807,3.841-15.945,4.109-19.706,4.569-15.585,4.569-15.585,5.106-15.048,5.911-17.2,2.083-13.435,7.088-13.435,13.066,16.123,14.41,22.035,9.943,34.933,11.286,37.083,6.45,9.405,6.45,9.405l-1.99,7.818,1.36,10.705s.878,5.547,1.013,6.755,4.6,0,4.6,0,8.315-1.765,9.658-2.436,1.478-3.628,1.209-4.569a19.8,19.8,0,0,1-1.075-3.761c0-.939-5.785-39.119-6.321-42.074s-5.012-13.321-6-17.631a120.388,120.388,0,0,1-1.921-17.687c0-3.224-.537-6.718-.537-8.061s-7.525-24.991-7.525-24.991Z" transform="translate(-222.439 -312.131)" fill="#4485f4"/>
        </g>
      </g>
      <g id="Group_10298" data-name="Group 10298" transform="translate(261.002 115.179)">
        <g id="Group_10297" data-name="Group 10297" clip-path="url(#clip-path)">
          <path id="Path_195039" data-name="Path 195039" d="M392.228,334.867c2.9,1.85,6.653,2.559,10.454,3.229-5.339,8.125-7.051.8-10.454-3.229" transform="translate(-361.594 -310.279)" fill="#282e5b"/>
          <path id="Path_195040" data-name="Path 195040" d="M382.829,406.555l-7.166,1.433,4.479,4.479Z" transform="translate(-362.943 -304.441)" fill="#282e5b"/>
          <path id="Path_195041" data-name="Path 195041" d="M425.4,396.988l8.33,5.778-6.987-1.613Z" transform="translate(-358.892 -305.22)" fill="#282e5b"/>
        </g>
      </g>
      <g id="Group_10300" data-name="Group 10300" transform="translate(266.001 36.177)">
        <g id="Group_10696" data-name="Group 10696" transform="translate(0 0)">
          <path id="Path_195043" data-name="Path 195043" d="M386.455,242.122c-1.564.869-1.853.759-6.942,2.6a47.047,47.047,0,0,0-5.241,2.016c-2.86,2.556-1.073,6.784-2.508,13.48-.746,3.491-3.482,6.785-3.224,8.241s4.727,1.292,8.241,1.254c3.9-.041,4.523-.948,5.554-.358,4.129,2.361-3.839,17.994-3.226,34.217.059,1.539.321,6.436,0,13.168-.145,3.07-.368,5.589-.537,7.255a136.773,136.773,0,0,0,25.26,4.3c10.562.782,15.362-.133,19.616-2.418a25.214,25.214,0,0,0,7.255-5.912,17,17,0,0,1-1.612-6.718c-.05-2.233.42-3.073.269-5.911a30.729,30.729,0,0,0-.806-5.105c-.867-4.049-1.415-5.5-1.882-7.524-.564-2.444-2.625-11.381,1.882-17.737a13.741,13.741,0,0,1,1.343-1.612c.777.479,1.433,1.926,2.329,1.433s2.12-9.809,3.314-12.629a20.029,20.029,0,0,0,2.15-7.345,10.057,10.057,0,0,0-4.3-9.853c-.706-.552-2.141-1.649-8.062-4.3-2.021-.905-3.032-1.357-4.032-1.7a32.453,32.453,0,0,0-6.718-1.523c-9.531-1.191-11.741,1.414-18.586,0a9.806,9.806,0,0,0-4.793-.089c-1.962.515-2.2,1.363-4.747,2.776" transform="translate(-368.524 -239.08)" fill="#034c8a"/>
        </g>
      </g>
      <g id="Group_10302" data-name="Group 10302" transform="translate(266.004 36.178)">
        <g id="Group_10301" data-name="Group 10301" clip-path="url(#clip-path-2)">
          <path id="Path_195044" data-name="Path 195044" d="M383.083,254.981s.672,7.306.672,12.293c0,1.97-1.853.107-2.017.97-.585,3.058-1.283,4.95-2.594,6.263,4.262,2.6,10.491-7.337,3.94-19.525" transform="translate(-367.659 -237.785)" fill="#282e5b"/>
          <path id="Path_195045" data-name="Path 195045" d="M416.343,266.488s4.5-10.382,5.041-11.994-8.779,10.57-8.779,10.57Z" transform="translate(-364.934 -237.837)" fill="#282e5b"/>
        </g>
      </g>
      <path id="Path_195047" data-name="Path 195047" d="M400.688,226.845q-1.165,7.527-2.329,15.049h13.436q-1.076-7.7-2.15-15.407Z" transform="translate(-100.094 -203.927)" fill="#bc6c56"/>
      <g id="Group_10309" data-name="Group 10309" transform="translate(298.266 22.558)">
        <g id="Group_10308" data-name="Group 10308" clip-path="url(#clip-path-3)">
          <g id="Group_10307" data-name="Group 10307" transform="translate(-2.194 5.375)" opacity="0.5" style="mix-blend-mode: multiply;isolation: isolate">
            <g id="Group_10306" data-name="Group 10306">
              <g id="Group_10305" data-name="Group 10305" clip-path="url(#clip-path-4)">
                <path id="Path_195048" data-name="Path 195048" d="M396.329,231.457l18.676,1.389s-2.2,6.855-9.338,6.855-9.338-7.527-9.338-7.527" transform="translate(-396.329 -231.457)" fill="#bc6c56"/>
              </g>
            </g>
          </g>
        </g>
      </g>
      <g id="Group_10314" data-name="Group 10314" transform="translate(267.254 0)">
        <g id="Group_10693" data-name="Group 10693" transform="translate(0 0)">
          <path id="Path_195050" data-name="Path 195050" d="M389.5,239.464a15.558,15.558,0,0,0,30.1,1.612,45.308,45.308,0,0,0-30.1-1.612" transform="translate(-368.069 -203.02)" fill="#bc6c56"/>
          <path id="Path_195051" data-name="Path 195051" d="M396.256,224.335q-.337-5.913-.673-11.824a12.111,12.111,0,0,1,22.035.4q-.4,6.114-.806,12.227l-20.557-.806" transform="translate(-367.573 -205.627)" fill="#282e5b"/>
          <g id="Group_10312" data-name="Group 10312" transform="translate(26.577 32.963)" opacity="0.5" style="mix-blend-mode: multiply;isolation: isolate">
            <g id="Group_10311" data-name="Group 10311">
              <g id="Group_10310" data-name="Group 10310" clip-path="url(#clip-path-5)">
                <path id="Path_195052" data-name="Path 195052" d="M394.445,238.367l-.187,5.15,4.435,3.561,1.675,4.461,3.788,12.542-3.123-18.49-4.337-3.448-1.778-6.036Z" transform="translate(-394.258 -236.107)" fill="#bc6c56"/>
              </g>
            </g>
          </g>
          <path id="Path_195053" data-name="Path 195053" d="M369.813,266.317c-.539,3.682.753,13.048.964,19.84a7.106,7.106,0,0,0,5.911,7.7c4.315,1.154,17.057,2.3,34.218,2.866q6-2.866,12-5.732c3.829-4.036,5.762-8.463,4.365-10.641-1.8-2.8-8.87-1.537-13.323,1.145a17.392,17.392,0,0,0-6.627,7.525c-4.023-.822-8.345-1.874-12.9-3.225-3.985-1.182-7.691-2.458-11.107-3.762a42.062,42.062,0,0,0,.517-8.049,30.777,30.777,0,0,0-.79-6.844c-4.437-1.25-10.61-1.565-13.23-.825" transform="translate(-369.683 -200.716)" fill="#bc6c56"/>
        </g>
      </g>
      <g id="Group_10322" data-name="Group 10322" transform="translate(267.254 65.206)">
        <g id="Group_10321" data-name="Group 10321" clip-path="url(#clip-path-6)">
          <g id="Group_10317" data-name="Group 10317" transform="translate(-1.817 -2.966)" opacity="0.5" style="mix-blend-mode: multiply;isolation: isolate">
            <g id="Group_10316" data-name="Group 10316">
              <g id="Group_10315" data-name="Group 10315" clip-path="url(#clip-path-7)">
                <rect id="Rectangle_7337" data-name="Rectangle 7337" width="17.601" height="6.182" fill="#bc6c56"/>
              </g>
            </g>
          </g>
          <g id="Group_10320" data-name="Group 10320" transform="translate(39.445 12.118)" opacity="0.5" style="mix-blend-mode: multiply;isolation: isolate">
            <g id="Group_10319" data-name="Group 10319">
              <g id="Group_10318" data-name="Group 10318" clip-path="url(#clip-path-8)">
                <path id="Path_195054" data-name="Path 195054" d="M406.157,282.264s4.326,4.6,9.1,4.055,11.625-7.84,11.625-7.84l-7.3-1.352Z" transform="translate(-406.157 -277.127)" fill="#bc6c56"/>
              </g>
            </g>
          </g>
        </g>
      </g>
      <g id="Group_10327" data-name="Group 10327" transform="translate(293.831 5.046)">
        <g id="Group_10692" data-name="Group 10692" transform="translate(0 0)">
          <path id="Path_195056" data-name="Path 195056" d="M415.223,214.415q.179,3.785.357,7.571a2.165,2.165,0,0,1,1.7.222c.943.659.77,2.147.672,3a2.7,2.7,0,0,1-.761,1.927,2.257,2.257,0,0,1-1.478.491A15.041,15.041,0,0,1,412.8,234.7c-1.22,1.59-3.621,4.724-6.852,4.567-2.946-.143-4.9-2.939-6.316-4.97a16.967,16.967,0,0,1-2.822-7.121,1.541,1.541,0,0,1-1.209-.268c-.234-.211-.367-.532-.268-2.286.128-2.252.4-2.6.571-2.77a2.261,2.261,0,0,1,1.444-.589q.672-4.1,1.343-8.2a11.994,11.994,0,0,1,7.156-2.772,12.486,12.486,0,0,1,9.372,4.116" transform="translate(-394.173 -210.293)" fill="#bc6c56"/>
          <g id="Group_10325" data-name="Group 10325" transform="translate(4.873 20.725)" opacity="0.5" style="mix-blend-mode: multiply;isolation: isolate">
            <g id="Group_10324" data-name="Group 10324">
              <g id="Group_10323" data-name="Group 10323" clip-path="url(#clip-path-9)">
                <path id="Path_195057" data-name="Path 195057" d="M401.556,246.745c.435,3.064.911,3.653,1.328,6.384,2.326-1.147,5.035-.5,7.667-1.969-1.571-3.558-1.863-4.078-2.308-5.42.266-2.347.587-4.229.837-5.534s.42-2,.627-3.314a43.447,43.447,0,0,0,.469-4.434l-1.612.335q-.905,1.377-1.814,2.754c-.863-1.031-1.846-2.116-2.956-3.224-1.077-1.074-2.133-2.027-3.135-2.867l-1.9,1.9c.224,1.926,3.355,4.438,3.578,6.364,1.97,1.94-2.759,7.087-.787,9.028" transform="translate(-398.764 -229.457)" fill="#bc6c56"/>
              </g>
            </g>
          </g>
          <path id="Path_195058" data-name="Path 195058" d="M420.01,269.615c1.763,1.142,3.13,1.386,5.733,3.046a27.417,27.417,0,0,1,3.135,2.328c-1.108,6.251-5.025,11.211-10.216,12.68a13.038,13.038,0,0,1-7.227-.138,7.651,7.651,0,0,1-1.914-1.064,9.844,9.844,0,0,1-3.3-5.745c-.9-3.721-3.057-15.661-5.374-31.977l-5.912-5.822-.672-5.778,5.688-5.687c1,.84,2.058,1.793,3.135,2.866,1.109,1.108,2.093,2.194,2.956,3.225q.907-1.377,1.814-2.754l1.612-.335a43.144,43.144,0,0,1-.47,4.433c-.207,1.31-.378,2.013-.626,3.315s-.571,3.187-.837,5.533c.816,2.463,3.73,10.936,8,17.04a15.8,15.8,0,0,0,4.478,4.836" transform="translate(-394.258 -208.569)" fill="#bc6c56"/>
          <path id="Path_195059" data-name="Path 195059" d="M485.477,381.948c.181.032.363.05.547.068l-.594.235-.037-.294a.267.267,0,0,1,.083-.009" transform="translate(-386.836 -196.313)" fill="#363a68"/>
          <path id="Path_195060" data-name="Path 195060" d="M477.907,440.257a.894.894,0,0,1,.2-.261,6.387,6.387,0,0,1,.672-.509,43.074,43.074,0,0,0,3.918-3.668c.141-.142.42-.258.658-.487a1.525,1.525,0,0,0,.375-.717c.071-.257.115-.522.151-.734a14.9,14.9,0,0,0-.1-4.157c-.264-2.355-1.054-8.753-1.128-9.6-.015-.166-.009-.432-.008-.709a3.838,3.838,0,0,0-.069-.83l-.053-.158a6.823,6.823,0,0,0,1.132.035,23.755,23.755,0,0,0,6.055-1,15.692,15.692,0,0,0,2.6-.913c.243-.12.642-.285.714-.59a1.98,1.98,0,0,0-.3-1.113,5.555,5.555,0,0,0,.5.3c.426.22.872.4,1.173.562a6.035,6.035,0,0,1,1.28.85,5,5,0,0,1,1.181,1.74,8.735,8.735,0,0,1,.466,1.391c.584,2.378.154,4.848.425,7.472.219,2.087.552,4.169.932,6.229.1.535.323,1.649.323,1.649.051.206.206.671.3,1.048.025.1.043.19.054.263l0,.014c-.024.008-.038.014-.067.023-.138.045-.324.1-.5.14-.109.026-.215.05-.3.065l-.02,0-.016-.051c-.032-.131-.062-.3-.084-.45s-.04-.274-.062-.363c-.585-2.381-1.786-7.143-1.786-7.143-.042-.165-.1-.7-.216-1.178a3.091,3.091,0,0,0-.2-.582.987.987,0,0,0-.387-.459.608.608,0,0,0-.444-.058,2.841,2.841,0,0,0-1.208.832,10.007,10.007,0,0,0-.88,1.065,6.64,6.64,0,0,0-.955,2.011,39.212,39.212,0,0,0-.861,5.714,3.605,3.605,0,0,1-.661,1.932,5.333,5.333,0,0,1-2.441,1.154c-.641.188-1.288.358-1.941.517-1.468.358-2.96.661-4.438,1l-.047.01c-.3.074-.754.218-1.268.344a7.1,7.1,0,0,1-1.322.212,1.91,1.91,0,0,1-1.03-.182.765.765,0,0,1-.341-.41l-.013-.042a.309.309,0,0,1,.024-.209" transform="translate(-387.448 -193.634)" fill="#363a68"/>
          <path id="Path_195061" data-name="Path 195061" d="M481.406,419.412c-.392-4.232-.595-8.348-1.962-12.413-1.541-4.578-3.027-9.128-4.25-13.807-.612-2.341-1.194-4.691-1.767-7.041a48.05,48.05,0,0,1-1.31-6.233,7.382,7.382,0,0,1,1.331-5.538c1.932-2.417,5.293-3.225,8.111-3.954,1.052-.273,2.113-.517,3.17-.772l.037.309c.013,0,.026,0,.039-.009a.3.3,0,0,0,.211-.2.314.314,0,0,0-.036-.263c.065-.017.126-.019.192-.042,11.392-3.7,22.719-7.6,34.045-11.5a2.951,2.951,0,0,0,2.059-2.322,67.664,67.664,0,0,1,14.259,6.939q.013.5,0,1.006c0,.255-.056.571-.1.894a4.127,4.127,0,0,0-.025.686l.216-.085c.754,2.263,1.408,5.653.012,7.778-1.531,2.328-4.808,3.173-7.261,3.94-4.425,1.384-8.977,2.373-13.5,3.358-4.741,1.032-9.5,2.007-14.267,2.9-2.2.41-4.416.763-6.642,1.034a38.3,38.3,0,0,1-6.4.435c-2.906-.142.278-1.652,2.561,12.021a138.113,138.113,0,0,1,1.132,13.84,33.523,33.523,0,0,0,.777,6.108,21.6,21.6,0,0,0,.849,2.553c.062.158.185.384.306.631a1.979,1.979,0,0,1,.3,1.113c-.071.305-.47.47-.714.59a15.69,15.69,0,0,1-2.6.913,23.8,23.8,0,0,1-6.054,1,6.812,6.812,0,0,1-1.133-.035,1.438,1.438,0,0,1-.909-.427c-.666-.786-.591-2.472-.678-3.405" transform="translate(-387.922 -198.456)" fill="#363a68"/>
          <path id="Path_195062" data-name="Path 195062" d="M488.744,384.022h43.523a2.194,2.194,0,0,0,2.194-2.194v-4.762a2.194,2.194,0,0,0-2.194-2.194H488.744a2.194,2.194,0,0,0-2.194,2.194v4.762a2.194,2.194,0,0,0,2.194,2.194" transform="translate(-386.742 -196.889)" fill="#346ec1"/>
          <path id="Path_195063" data-name="Path 195063" d="M542.083,351.784c0-7.786-.2-15.473.1-23.225a83.782,83.782,0,0,0-.592-15.385c-.33-2.237-1.829-12.457-6.267-10.531-.855.372-1.239,1.585-1.385,2.156q.294,23.492.591,46.984c0,2.044,1.368,3.7,3.055,3.7h1.446c1.687,0,3.055-1.656,3.055-3.7" transform="translate(-382.883 -202.791)" fill="#346ec1"/>
          <path id="Path_195064" data-name="Path 195064" d="M545.546,323.69v49.164a14.932,14.932,0,0,1-14.931,14.932H493.831" transform="translate(-386.149 -201.058)" fill="none" stroke="#034c8a" stroke-linecap="round" stroke-linejoin="round" stroke-width="3.443"/>
          <rect id="Rectangle_7341" data-name="Rectangle 7341" width="3.727" height="53.396" transform="translate(124.915 187.133)" fill="#034c8a"/>
          <rect id="Rectangle_7342" data-name="Rectangle 7342" width="3.727" height="53.396" transform="translate(124.915 187.133)" stroke-width="0.973" stroke="#034c8a" stroke-linecap="round" stroke-linejoin="round" fill="none"/>
          <rect id="Rectangle_7343" data-name="Rectangle 7343" width="9.69" height="18.261" transform="translate(121.933 211.532)" fill="#034c8a"/>
          <rect id="Rectangle_7344" data-name="Rectangle 7344" width="9.69" height="18.261" transform="translate(121.933 211.532)" stroke-width="0.973" stroke="#034c8a" stroke-linecap="round" stroke-linejoin="round" fill="none"/>
          <path id="Path_195065" data-name="Path 195065" d="M481.326,435.309a58.836,58.836,0,0,1,65.238,0v-3.027a60.72,60.72,0,0,0-65.238,0Z" transform="translate(-387.167 -192.988)" fill="#034c8a"/>
          <path id="Path_195066" data-name="Path 195066" d="M481.326,435.309a58.836,58.836,0,0,1,65.238,0v-3.027a60.72,60.72,0,0,0-65.238,0Z" transform="translate(-387.167 -192.988)" fill="none" stroke="#034c8a" stroke-linecap="round" stroke-linejoin="round" stroke-width="0.973"/>
          <path id="Path_195067" data-name="Path 195067" d="M537.794,434.679a4.172,4.172,0,1,1,4.17,4.172,4.17,4.17,0,0,1-4.17-4.172" transform="translate(-382.568 -192.359)" fill="#034c8a"/>
          <path id="Path_195068" data-name="Path 195068" d="M537.794,434.679a4.172,4.172,0,1,1,4.17,4.172A4.17,4.17,0,0,1,537.794,434.679Z" transform="translate(-382.568 -192.359)" fill="none" stroke="#034c8a" stroke-linecap="round" stroke-linejoin="round" stroke-width="0.973"/>
          <path id="Path_195069" data-name="Path 195069" d="M477.469,434.679a4.172,4.172,0,1,1,4.171,4.172,4.17,4.17,0,0,1-4.171-4.172" transform="translate(-387.481 -192.359)" fill="#034c8a"/>
          <path id="Path_195070" data-name="Path 195070" d="M477.469,434.679a4.172,4.172,0,1,1,4.171,4.172A4.17,4.17,0,0,1,477.469,434.679Z" transform="translate(-387.481 -192.359)" fill="none" stroke="#034c8a" stroke-linecap="round" stroke-linejoin="round" stroke-width="0.973"/>
          <path id="Path_195071" data-name="Path 195071" d="M507.846,434.662a3.94,3.94,0,1,1,3.94,3.94,3.94,3.94,0,0,1-3.94-3.94" transform="translate(-385.007 -192.341)" fill="#034c8a"/>
          <path id="Path_195072" data-name="Path 195072" d="M507.846,434.662a3.94,3.94,0,1,1,3.94,3.94A3.94,3.94,0,0,1,507.846,434.662Z" transform="translate(-385.007 -192.341)" fill="none" stroke="#034c8a" stroke-linecap="round" stroke-linejoin="round" stroke-width="0.973"/>
          <path id="Path_195073" data-name="Path 195073" d="M498.388,438.65" transform="translate(-385.778 -191.695)" fill="#363a68"/>
          <path id="Path_195074" data-name="Path 195074" d="M450.617,438.042a1.1,1.1,0,0,1,.306-.238,7.436,7.436,0,0,1,.924-.389,51.78,51.78,0,0,0,5.583-3.05c.2-.12.56-.176.9-.367a1.785,1.785,0,0,0,.638-.7,8.55,8.55,0,0,0,.383-.784,16.727,16.727,0,0,0,1.057-4.7c.358-2.719,1.25-10.126,1.407-11.1.027-.188.11-.486.189-.8a4.053,4.053,0,0,0,.154-.952l-.015-.192a8.313,8.313,0,0,0,1.305.348,29.218,29.218,0,0,0,7.308.533,19.379,19.379,0,0,0,3.278-.314c.317-.068.826-.144,1-.468a2.2,2.2,0,0,0-.032-1.332,6.162,6.162,0,0,0,.5.476c.433.364.9.689,1.2.952a7.276,7.276,0,0,1,1.248,1.306,5.694,5.694,0,0,1,.876,2.281,9.456,9.456,0,0,1,.148,1.69c.009,2.831-1.192,5.491-1.619,8.513-.335,2.406-.538,4.836-.678,7.255-.036.63-.091,1.941-.091,1.941,0,.247.05.811.049,1.261,0,.119,0,.225-.011.308l0,.016c-.03,0-.049.007-.084.009-.173.014-.4.022-.617.022-.134,0-.262,0-.364-.01h-.026l0-.064c0-.154.013-.354.028-.528s.03-.317.031-.425c-.006-2.836-.055-8.517-.055-8.517,0-.2.082-.81.082-1.382a3.438,3.438,0,0,0-.062-.706,1.129,1.129,0,0,0-.321-.622.735.735,0,0,0-.5-.187,3.449,3.449,0,0,0-1.637.6,12.067,12.067,0,0,0-1.322.956,7.749,7.749,0,0,0-1.678,2,44.551,44.551,0,0,0-2.614,6.187,4.14,4.14,0,0,1-1.313,1.99,6.55,6.55,0,0,1-3.16.629c-.8.037-1.6.05-2.4.05-1.8,0-3.621-.067-5.435-.09h-.056c-.366,0-.936.039-1.568.039a8.749,8.749,0,0,1-1.594-.123,2.336,2.336,0,0,1-1.143-.484.869.869,0,0,1-.28-.555l0-.052a.351.351,0,0,1,.087-.228" transform="translate(-389.675 -193.741)" fill="#d08b73"/>
          <path id="Path_195075" data-name="Path 195075" d="M460.6,414.865c.741-4.864,1.671-9.546,1.232-14.488-.494-5.567-.931-11.088-1.03-16.68-.049-2.8-.06-5.6-.06-8.4a54,54,0,0,1,.241-7.362,8.454,8.454,0,0,1,3.109-5.861c2.925-2.187,7.055-2.174,10.531-2.223,1.3-.018,2.6,0,3.9,0l-.044.359h.047a.363.363,0,0,0,.3-.163.358.358,0,0,0,.033-.306c.08,0,.154.013.236.007,14.266-1.042,28.514-2.319,42.76-3.607a3.519,3.519,0,0,0,3.047-2.047,80.508,80.508,0,0,1,14.588,11.7c-.085.38-.177.757-.281,1.131a10.028,10.028,0,0,1-.364.979,4.487,4.487,0,0,0-.222.764l.273-.036c.237,2.75.038,6.738-2.183,8.743-2.434,2.2-6.478,2.25-9.539,2.442-5.527.343-11.09.208-16.622.076-5.793-.137-11.59-.343-17.377-.649-2.67-.142-5.341-.351-8-.656a47.081,47.081,0,0,1-7.55-1.263c-.407-.117-1.193-.42-1.193-.42a60.559,60.559,0,0,1,.767,14.631c-.405,5.343-1.643,10.6-2.6,15.866a37.617,37.617,0,0,0-.824,7.08,24.156,24.156,0,0,0,.263,3.1c.028.195.107.483.177.793a2.22,2.22,0,0,1,.033,1.332c-.17.324-.679.4-1,.468a19.37,19.37,0,0,1-3.278.314,29.214,29.214,0,0,1-7.308-.533,8.274,8.274,0,0,1-1.305-.348,1.7,1.7,0,0,1-.934-.73c-.551-1.065.012-2.94.174-4.012" transform="translate(-388.889 -198.582)" fill="#38aae3"/>
        </g>
      </g>
      <g id="Group_10329" data-name="Group 10329" transform="translate(365.128 160.556)">
        <g id="Group_10328" data-name="Group 10328" clip-path="url(#clip-path-10)">
          <path id="Path_195076" data-name="Path 195076" d="M469.851,371.2l8.843,6.44v4.809s-8.157-6.355-8.843-11.249" transform="translate(-459.398 -352.7)" fill="#034c8a"/>
        </g>
      </g>
      <path id="Path_195078" data-name="Path 195078" d="M521.665,307.061c-3.832,1.846-7.423,4.489-11.017,6.816l.006-.017a.35.35,0,0,0-.028-.287.355.355,0,0,0-.231-.173.445.445,0,0,1-.043-.2,3.608,3.608,0,0,1,.1-.662c.343-1.666.785-3.364,1.2-5.035a6.143,6.143,0,0,1,.892-2.192,4.424,4.424,0,0,1,.628-.675c.126-.114.275-.2.432-.339a.866.866,0,0,0,.32-.668l-.008-.122a3.358,3.358,0,0,0-.863-1.7,2.519,2.519,0,0,0-1.833-.907c-.459.033-.434.24-1.229.493a2.621,2.621,0,0,1-1.846.118,2.041,2.041,0,0,1-.843-.761,3.415,3.415,0,0,1-.3-.464,4.347,4.347,0,0,1-.442-1.367c-.079-.567-.694-2.2-2.635-6.294a1.626,1.626,0,0,0-.988-.582,3.259,3.259,0,0,1-.841-.208.523.523,0,0,1-.27-.236.858.858,0,0,1-.085-.4,1.875,1.875,0,0,1,.177-.745c.3-.674,1-1.232,1.379-2.138a7.221,7.221,0,0,0,.257-2.4c.092-1.439.478-2.932.64-4.457a31.317,31.317,0,0,1,.841-4.949c.167-.612.388-1.214.621-1.823l.022-.172a7.375,7.375,0,0,1-.063-.862c0-.491-.011-.888.272-1.088,5.312-3.749,32.293-6.137,21.295,21.158a6.785,6.785,0,0,0-.262,1.273,1.827,1.827,0,0,1-.355.918l-.073.065a.352.352,0,0,0-.32.049.356.356,0,0,0-.149.291,13.664,13.664,0,0,0,.1,1.559c.01.07.013.247.028.425a1.17,1.17,0,0,0,.158.583.758.758,0,0,0,.21.225.552.552,0,0,0,.31.09c.106,0,.154-.012.239-.011h.036a.942.942,0,0,1,.739.289,3.633,3.633,0,0,1,.732,1.536,7.856,7.856,0,0,1,.238,1.868c0,.106,0,.208-.01.3-.005.148-.06.33-.084.569-.01.089-.015.169-.016.247,0,.042.009.084.013.127A14.167,14.167,0,0,0,525.5,305.4a34.7,34.7,0,0,0-3.839,1.663" transform="translate(-91.674 -200.358)" fill="#d08b73"/>
      <g id="Group_10333" data-name="Group 10333" transform="translate(410.064 69.953)">
        <g id="Group_10332" data-name="Group 10332" clip-path="url(#clip-path-11)">
          <path id="Path_195079" data-name="Path 195079" d="M510.191,299.385s4.7-2.676,6.368-5.367l1.667-2.69-5.781,10.016Z" transform="translate(-501.05 -268.598)" fill="#bc6c56"/>
        </g>
      </g>
      <path id="Path_195081" data-name="Path 195081" d="M521.418,319.966a1.4,1.4,0,0,1,.229.345,1.612,1.612,0,0,1-.268-.3l.039-.043" transform="translate(-90.075 -196.315)" fill="#d08b73"/>
      <path id="Path_195082" data-name="Path 195082" d="M535.83,370.091a13.079,13.079,0,0,0,.33-2.292l.005-.221c.009-1.606-.775-3.007-1.144-4.749-.685-3.312,1.535,4.364-.155-23.742v-.027c.011-5.322,4.845-9.24-.346-24.276a67.723,67.723,0,0,0-3.564-8.511c-.679-1.342-1.416-2.658-2.194-3.946-.1-.172-.012-.674-.075-.806-.045-.093-.236.186-.249.076-1.114.277-2.882-.62-3.912-.076a40.6,40.6,0,0,0-4.206,1.411c-3.831,1.846-6.35,6.089-9.944,8.416-1.537,4.691-6.956,8.357-4.822,19.279a104.045,104.045,0,0,1,1.92,11.26c.085,1.019.162,2.059.162,3.1,0,.531-.019,1.063-.069,1.592a29.962,29.962,0,0,1-.711,3.188c-.163.8-.279,1.606-.379,2.421-.036.283-.4,3.577-.426,3.861,1.714.309,3.745-2.338,5.419-1.9,9.311,2.432,17.445,9.192,24.359,15.937m-13.122-48.565.039-.043a1.405,1.405,0,0,1,.229.345,1.592,1.592,0,0,1-.268-.3" transform="translate(-91.403 -197.832)" fill="#faae26"/>
      <g id="Group_10337" data-name="Group 10337" transform="translate(413.662 103.513)">
        <g id="Group_10336" data-name="Group 10336" clip-path="url(#clip-path-12)">
          <path id="Path_195083" data-name="Path 195083" d="M518.127,320.123s-5.381,14.883-6.183,22.439-.457,9.273-.457,9.273l8.472-3.892Z" transform="translate(-504.546 -299.815)" fill="#d38309"/>
        </g>
      </g>
      <path id="Path_195085" data-name="Path 195085" d="M475.166,438.08" transform="translate(-93.837 -186.695)" fill="#ff6b6b"/>
      <path id="Path_195086" data-name="Path 195086" d="M513,301.005" transform="translate(-90.757 -197.859)" fill="#ff6b6b"/>
      <path id="Path_195087" data-name="Path 195087" d="M528.466,301.509a54.707,54.707,0,0,1,5.628,11.632A41.722,41.722,0,0,1,537.1,326a24.05,24.05,0,0,1-.462,5.456c-.4,2.008-1.188,3.93-1.519,5.946a25.359,25.359,0,0,0,.037,5.266c.106,2.182.376,4.345.557,6.522a63.779,63.779,0,0,1,.214,6.65,19.094,19.094,0,0,1-.6,5.059c-.677,2.258.948,4.176.979,6.446a14.927,14.927,0,0,1-.824,4.626c-1.548,4.861-5.281-2.468-17.116-2.479-8.38-.01-6.479-6.413-10.589-6.183L519.8,352.55Z" transform="translate(-91.182 -197.818)" fill="#faae26"/>
      <g id="Group_10341" data-name="Group 10341" transform="translate(416.594 103.69)">
        <g id="Group_10340" data-name="Group 10340" clip-path="url(#clip-path-13)">
          <path id="Path_195088" data-name="Path 195088" d="M531.326,322.452s-.688,31.026-1.376,33.316-21.761,5.976-21.761,5.976l18.1-12.96Z" transform="translate(-507.742 -299.803)" fill="#d38309"/>
        </g>
      </g>
      <g id="Group_10343" data-name="Group 10343" transform="translate(354.316 64.533)">
        <g id="Group_10697" data-name="Group 10697" transform="translate(0 0)">
          <path id="Path_195090" data-name="Path 195090" d="M474.2,415.357a19.509,19.509,0,0,1-.842,2.632,46.635,46.635,0,0,1-4.093,6.735c-1.539,2.349-2.958,4.782-4.522,7.113a4.533,4.533,0,0,1-3.172,2.322,6.8,6.8,0,0,1-2.047-.039c-.415-.073-.837-.347-1.24-.379a1.882,1.882,0,0,0-.973.344c-1.112.606-2.133,1.368-3.24,1.984-.966.539-2.006.871-3,1.344-.31.148-.75.334-.857.7-.16.538.4,1.1.82,1.324,1.259.693,3.151.406,4.523.423a65.932,65.932,0,0,0,8.844-.07,3.7,3.7,0,0,0,2.563-1.1c1.182-1.438,1.583-3.6,2.259-5.284a11.662,11.662,0,0,1,2.351-3.987,7.912,7.912,0,0,1,2.856-1.769c.371-.134.545-.242.719.138a6.721,6.721,0,0,1,.049,2.366c.02,1.365.055,8.24.056,8.73,0,.2-.1.7,0,.875.13.227-.04.092.333.161a3.655,3.655,0,0,0,1.247,0c.242-.17.119-1.56.132-1.945q.071-2.042.243-4.079a44.277,44.277,0,0,1,1.052-7.837,18.8,18.8,0,0,0,1.1-6.052,7.916,7.916,0,0,0-.81-3.431c-.821-1.49-2.445-2.619-3.7-3.717Z" transform="translate(-450.188 -253.283)" fill="#282e5b"/>
          <path id="Path_195091" data-name="Path 195091" d="M524.61,296.982a44.947,44.947,0,0,0-8.152,2.8,12.809,12.809,0,0,0-4.686,2.991c-1.172,1.42-1.287,3.527-1.7,5.236-.11.459-1.354,3.409-.29,3.605.936.174,2.284-1.416,2.8-1.9a31.5,31.5,0,0,1,6.908-5.271,15.454,15.454,0,0,1,6.145-1.963c.85-.049,2.394.262,2.789-.787.406-1.079-.079-2.673-.461-3.687a1.655,1.655,0,0,0-1.956-1.29,13.219,13.219,0,0,0-1.4.269" transform="translate(-445.37 -262.744)" fill="#d38309"/>
          <path id="Path_195092" data-name="Path 195092" d="M520.911,289.682a31.834,31.834,0,0,1,.985,4.852c.784,6.41-1,8.229.457,10.82,1.945,3.452,6.1,1.974,8.013,5.608,1.4,2.658-.45,4.167.917,7.213,1.32,2.951,4.888,5.627,8.042,5.067,4.2-.745,7-7.1,5.81-11.477-1.3-4.809-6.781-4.859-8.015-10.3-.712-3.145,1-3.648.115-7.213-1.024-4.133-3.577-4.488-4.455-8.563-.639-2.972.634-3.182.333-7.007-.142-1.808-.568-7.246-4.672-10.067a10.335,10.335,0,0,0-6.826-1.617,11.847,11.847,0,0,0-9.853-1.024,11.381,11.381,0,0,0-6.346,6.482c-.563,1.325-1.375,3.956-.61,4.464.192.129.335.023.673.069,1.233.168,1.745,1.922,2.591,3.2a8.97,8.97,0,0,0,3.412,2.747c2.843,1.363,6,.309,7.288-.215Z" transform="translate(-445.765 -265.3)" fill="#282e5b"/>
          <path id="Path_195093" data-name="Path 195093" d="M516.08,288.449a1.727,1.727,0,0,0,2.121,1.382c1.167-.266,1.923-1.559,2.412-2.546a7.663,7.663,0,0,0,.958-4.229c-.263-1.953-2.215-2.933-3.741-1.608Z" transform="translate(-444.822 -264.035)" fill="#d08b73"/>
          <path id="Path_195094" data-name="Path 195094" d="M518.213,282.934c-.247.936,1,.8.835,1.625s-1.112.318-1.3,1.017,1.78,1.255,2.256-1.133-1.578-2.306-1.787-1.509" transform="translate(-444.688 -263.905)" fill="#bc6c56"/>
          <path id="Path_195095" data-name="Path 195095" d="M518.947,320.415c-.279,1.121-.636,2.687-.959,4.576a73.7,73.7,0,0,0-.916,10.532c-.1,3.25-.093,7.44.229,12.365-3.257,1.949-6.106,3.417-8.285,4.47a74.8,74.8,0,0,1-8.021,3.415,54.938,54.938,0,0,1-8.089,2.069c-.92.185-.962.756-.788,1.6.4,1.943,1.438,3.717,1.569,5.72.058.881-.037,1.8,1.057,1.887,1.88.151,4.01-.886,5.751-1.446q4.526-1.458,9.013-3.033c2.824-1,5.626-2.058,8.411-3.155s5.64-2.092,8.323-3.4c2.948-1.435,3.693-4.4,4.242-7.439.434-2.405.652-4.837.876-7.267q.6-6.387,1.186-12.771c.223-2.407.494-4.821.521-7.24a38.208,38.208,0,0,0-1.07-8.921Z" transform="translate(-446.78 -261.466)" fill="#faae26"/>
          <path id="Path_195096" data-name="Path 195096" d="M493.252,355.192c-8.622-.462-3.354-4.821-13.582,1.311-.4.238-4.949,4.027-.979,3.306,6.7-1.22,8.028.749,12.139,1.493a11.519,11.519,0,0,0,4.011-.092Z" transform="translate(-447.998 -258.137)" fill="#d08b73"/>
          <path id="Path_195097" data-name="Path 195097" d="M599.352,419.769s.5,6.108.66,7.593,1.653,3.139,1.653,5.947-16.016,5.448-16.016,5.448h-10.9l2.641-6.77s8.42-3.467,9.743-4.953,2.248-8.587,2.248-8.587Z" transform="translate(-440.044 -252.828)" fill="#d08b73"/>
        </g>
      </g>
      <g id="Group_10345" data-name="Group 10345" transform="translate(489.023 230.155)">
        <g id="Group_10344" data-name="Group 10344" clip-path="url(#clip-path-14)">
          <path id="Path_195098" data-name="Path 195098" d="M585.753,422.649s7.792,1.856,9.677,1.767,8.419,0,8.419,0l-2.549-7-22.082-.88Z" transform="translate(-574.386 -418.603)" fill="#bc6c56"/>
        </g>
      </g>
      <g id="Group_10347" data-name="Group 10347" transform="translate(479.407 114.063)">
        <g id="Group_10695" data-name="Group 10695" transform="translate(0 0)">
          <path id="Path_195100" data-name="Path 195100" d="M602.652,428.721a2.154,2.154,0,0,0-3.4-1.195,43.907,43.907,0,0,1-4.673,3.261c-1.735.867-8.992.332-11.841.332s-4.623.164-4.623.164-8.462,3.137-10.32,3.261a2,2,0,0,0-1.238,3.509c1.363,1.2,35.294,1.073,35.294,1.073s2.849-1.981,2.228-4.582c-.326-1.375-.93-3.822-1.428-5.822" transform="translate(-565.858 -301.654)" fill="#282e5b"/>
          <path id="Path_195101" data-name="Path 195101" d="M602.676,313.756s4.458,9.907,3.962,13.705-3.633,9.907-3.962,17.006-3.468,19.153-3.468,21.3.5,13.044.5,13.044,4.706,6.109,5.449,17.75,1.525,33.188,1.525,33.188-5.241,1.486-7.47,1.486-10.9-2.478-10.9-2.478.743-21.051,0-24.272-2.973-10.649-3.22-12.878-3.467-4.211-3.467-6.688-2.477-20.061-3.716-21.051-5.172-21.3-4.938-23.281.779,1.238-.114-4.705,0-8.916,0-8.916l.277-2.856s8.242-12.754,11.379-13,18.163,2.642,18.163,2.642" transform="translate(-565.321 -311.1)" fill="#434e84"/>
        </g>
      </g>
      <g id="Group_10349" data-name="Group 10349" transform="translate(486.548 114.065)">
        <g id="Group_10348" data-name="Group 10348" clip-path="url(#clip-path-15)">
          <path id="Path_195102" data-name="Path 195102" d="M575.164,325.358s6.017,10.041,14.829,10.871" transform="translate(-572.24 -309.939)" fill="none" stroke="#282e5b" stroke-linecap="round" stroke-linejoin="round" stroke-width="0.93"/>
          <path id="Path_195103" data-name="Path 195103" d="M589.67,322.4s-1.847,31.757-1.384,38.668,7.166,31.029,7.5,33.213,4.78,37.8,4.78,37.8" transform="translate(-571.178 -310.18)" fill="none" stroke="#282e5b" stroke-linecap="round" stroke-linejoin="round" stroke-width="0.93"/>
          <path id="Path_195104" data-name="Path 195104" d="M608.7,318.993l-5.949,1.759L587.5,322.679l-21.03,5.781" transform="translate(-572.948 -310.457)" fill="none" stroke="#282e5b" stroke-linecap="round" stroke-linejoin="round" stroke-width="0.93"/>
        </g>
      </g>
      <g id="Group_10351" data-name="Group 10351" transform="translate(476.218 10.909)">
        <g id="Group_10698" data-name="Group 10698" transform="translate(0 0)">
          <path id="Path_195106" data-name="Path 195106" d="M593.743,248.36s-16.029,9.579-18.177,14.2-3.467,13.871-2.311,16.512.33,19.483.33,19.483l-.5,31.537s11.889-4.293,18.989-5.615,13.539-2.641,13.539-2.641-4.458-11.888-4.787-21.465,2.311-27.079.66-34.344-7.746-17.669-7.746-17.669" transform="translate(-562.102 -213.056)" fill="#13b5a0"/>
          <path id="Path_195107" data-name="Path 195107" d="M590.02,247.6c11.314-12.4-.277-25.075-5.188-30.776-3.532-4.1-20.3,4.432-20.967,5.213-1.071,1.247-1.464,3.714.005,4.493s3.042,1.02,4.491,1.789c1.859,1.518,3.8,2.973,5.711,4.434-.4,1.381,2.05,3.084,2.993,5.509.923,2.374,5.142,1.282,5.142-2.637,0-1.161,6.572,12.507,7.811,11.975" transform="translate(-562.91 -215.714)" fill="#282e5b"/>
          <path id="Path_195108" data-name="Path 195108" d="M565.785,226.423a29.2,29.2,0,0,0-1.087,5.272c-.1,1.657.586,1.661,1.085,3.258s-1.553,3.916-1.419,5.446a1.063,1.063,0,0,0,.188.5c.653,1.016,2.561.784,3,.724,1.229,2.708,2.476,5.406,3.683,8.123a3.02,3.02,0,0,0,1.274,1.493c1.868,1,4.451-.858,5.288-1.461a11.561,11.561,0,0,0,4.2-6.205,12.589,12.589,0,0,0-.429-7.847q-1.715.723-3.428,1.45a31.848,31.848,0,0,0-2.3-5.1,2.356,2.356,0,0,0-.89-.958c-.905-.487-1.849.091-2.5-1.05-.872-1.526-1.578-4.251-3.212-4.187s-2.018.492-3.447.551" transform="translate(-562.792 -214.887)" fill="#d08b73"/>
          <path id="Path_195109" data-name="Path 195109" d="M595.357,251.728q-1.467-1.661-2.755-3.234a7.876,7.876,0,0,1-1.537-2.415,6.5,6.5,0,0,1-.387-2.008,5.257,5.257,0,0,1-.96-1.076,5.677,5.677,0,0,1-.837-2.155c-.2-.93-.946-2.223-3.384-3.762.052-.381.509-4.117-1.744-6.038a5.206,5.206,0,0,0-2.022-1.011c-3.633-.931-4.811,2.883-2.18,5.461a7.415,7.415,0,0,1,.9,9.52c-.99,1.559-1.541,2.741-1.986,3.244a8.82,8.82,0,0,1-.874.879c-.532.451-1.748.872-4.79,2.12,2.332-.956,5.182,1.444,6.347,3.987,1.2,2.618-.091,4.819.838,5.629,1.092.951,4.8-.414,15.369-9.141" transform="translate(-562.104 -214.56)" fill="#d08b73"/>
        </g>
      </g>
      <g id="Group_10353" data-name="Group 10353" transform="translate(486.915 26.236)">
        <g id="Group_10352" data-name="Group 10352" clip-path="url(#clip-path-16)">
          <path id="Path_195110" data-name="Path 195110" d="M573.438,249.491l8.428-9.435-4.214,13.582-6.162-3.645Z" transform="translate(-572.908 -229.058)" fill="#bc6c56"/>
        </g>
      </g>
      <path id="Path_195112" data-name="Path 195112" d="M584.222,265.38l11.886,26.039c-2.615.369-13.033-14.793-11.886-17.764,1.006-2.608,0-8.275,0-8.275" transform="translate(-84.964 -200.761)" fill="#148a77"/>
      <path id="Path_195113" data-name="Path 195113" d="M603.628,269.661l7.183,23.281s2.229,3.591,1.486,5.324-6.935,9.287-6.935,9.287-15.272,16.182-16.593,17.172-1.322,6.11-1.569,7.183-4.127,4.046-5.284,4.459-5.944-5.449-6.026-6.192.66-2.89.412-3.55-2.888.577-3.3-.661,1.155-3.137,2.146-3.137,6.274.331,7.1-.329,16.677-26.089,16.18-28.07-2.971-3.22-3.961-5.449-6.44-17.832-6.44-17.832Z" transform="translate(-85.875 -200.411)" fill="#d08b73"/>
      <g id="Group_10357" data-name="Group 10357" transform="translate(487.056 69.251)">
        <g id="Group_10356" data-name="Group 10356" clip-path="url(#clip-path-17)">
          <path id="Path_195114" data-name="Path 195114" d="M589.722,279.406s5.5-4.394,7.131-4.9,7.53,1.541,7.53,1.541l-1.749-5.439s-5.908-1.257-8.044,0a62.741,62.741,0,0,0-6.6,5.336Z" transform="translate(-571.705 -269.629)" fill="#bc6c56"/>
        </g>
      </g>
      <g id="Group_10362" data-name="Group 10362" transform="translate(34.544 27.882)">
        <g id="Group_10677" data-name="Group 10677" transform="translate(0 0)">
          <path id="Path_195116" data-name="Path 195116" d="M593.343,247.9s8.585,7.265,10.237,12.879,1.651,15.19,1.651,15.19-3.715-2.806-5.449-2.311a36.5,36.5,0,0,0-7.925,4.087,7.472,7.472,0,0,1-1.981,1.363L582.2,269.08s-5.366-6.976-4.542-8.462,3.8-7.429,15.687-12.713" transform="translate(-120.042 -230.066)" fill="#13b5a0"/>
          <g id="Group_10360" data-name="Group 10360" transform="translate(459.663)" opacity="0.5" style="mix-blend-mode: multiply;isolation: isolate">
            <g id="Group_10359" data-name="Group 10359">
              <g id="Group_10358" data-name="Group 10358" clip-path="url(#clip-path-18)">
                <path id="Path_195117" data-name="Path 195117" d="M582.576,234.3c-.063-.107.306-.315.324-.677a1.614,1.614,0,0,0-.93-1.273,1.594,1.594,0,0,0-1.606.107c-.371.341-.756.571-.812.451-.041-.1.074-.332.392-.846a1.969,1.969,0,0,1,2.378-.447,1.912,1.912,0,0,1,1.134,2.157.9.9,0,0,1-.586.558c-.179.036-.277.021-.3-.031" transform="translate(-579.544 -231.409)" fill="#ee5f43"/>
              </g>
            </g>
          </g>
          <path id="Path_195118" data-name="Path 195118" d="M217.693,440.819c-.109-1.477-1.274-2.582-2.05-3.712a21.616,21.616,0,0,1-3.371-6.888,28.553,28.553,0,0,1-.929-6.09c-.052-1.233.13-2.459.082-3.685a2.654,2.654,0,0,0-.181-1.106c-.164-.286-.662-.263-.774-.418-.083-.118-.013-.032-.013-.032.987-1.1,1.9-2.252,2.861-3.372.438.2.8.393,1.259.574a7.842,7.842,0,0,0,3.213.816c2.072-.108,3.555-2.423,4.663-3.7a94.018,94.018,0,0,0,14.89-22.24c2.02-4.349,2.817-8.444,3.918-12.969.5-2.06,1.1-3.938,1.672-5.939a13.116,13.116,0,0,0,.577-3.148,10.792,10.792,0,0,0-.827-3.916c-14.912-10.852-29.823-18.446-48-22.877-7.533.413-20.259,2.72-25.632,6.438s-4.86,6.846-5.777,10.972-.059,6.15.92,9.526a12.921,12.921,0,0,0,4.09,6.333c1.612,1.345,3.664,1.5,5.646,1.571a51.95,51.95,0,0,0,11.273-1.311,229.346,229.346,0,0,1,23.994-3.659c1.912-.15,3.686.074,5.478-.035s3.327-.395,5.048-.55a6.879,6.879,0,0,1,3.74.277,1.716,1.716,0,0,1,.909.949,1.61,1.61,0,0,1-.028.781,8.276,8.276,0,0,1-.841,2.327c-.725,1.7-1.244,3.252-2.094,4.96a49.792,49.792,0,0,1-5.917,9.349,68.424,68.424,0,0,1-7.691,8.5c-2.579,2.288-5.627,4.746-7.706,7.58-.531.722.018,1.537-.366,2.288-.008.015-.016,0-.016,0q-1.027,1.03-2.048,2.063c-.066-.092-.094-.207-.167-.3a1.577,1.577,0,0,0-1.789-.744,17.25,17.25,0,0,0-5.189,2.172c-1.71.968-3.808,1.977-5.01,3.637a1.97,1.97,0,0,0-.3,2.117A12.485,12.485,0,0,0,188,420.7c2.549,2.586,5.048,5.021,7.584,7.62,3.859,3.956,7.63,8.017,11.855,11.648a24.09,24.09,0,0,0,5.309,3.6,4.068,4.068,0,0,0,2.773.508,3.043,3.043,0,0,0,2.176-3.259" transform="translate(-153.814 -222.393)" fill="#282e5b"/>
          <path id="Path_195119" data-name="Path 195119" d="M169.858,318.645a27.558,27.558,0,0,0,2.973,7.459,9.732,9.732,0,0,0,2.452,3.036,20.164,20.164,0,0,0,6.064,2.868c3.094,1.054,6.246,1.947,9.376,2.886,5.029,1.512,7.6,2.067,8.329,2.208a42.931,42.931,0,0,0,13.787.33,13.066,13.066,0,0,0,3.53,3.137,12.854,12.854,0,0,0,4.657,1.717,15.778,15.778,0,0,0,3.649.109,22.622,22.622,0,0,1,3.1-.155c1.577.123,3.015.88,4.567,1.132,1.39.227,2.99-.34,3.066-1.971.014-.3-.065-.591-1-1.843-.74-.983-1.4-1.759-1.871-2.3-2.061-.464-3.7-.9-4.722-1.187-5.652-1.575-8.892-2.6-14.513-3.819-.364-.066-.918-.17-1.583-.317-6.653-1.476-8.859-3.835-17.041-8.061-5.494-2.838-7.936-3.55-10.715-6.808a20.058,20.058,0,0,1-2.089-2.957Z" transform="translate(-153.246 -224.674)" fill="#bc6c56"/>
          <path id="Path_195120" data-name="Path 195120" d="M171.644,295.431c-.859-.074-.632-.266-3.282-1.077-2.38-.728-3.569-1.135-4.012-1.548a4.049,4.049,0,0,1-1.158-2.184,5.357,5.357,0,0,1-4.695-8.687,10.071,10.071,0,0,1-.726-7.069,10.212,10.212,0,0,1,5.12-6.215,7.658,7.658,0,0,1,2.4-6.591,7.273,7.273,0,0,1,7.79-1,6.966,6.966,0,0,1,6.992-3.4,7.189,7.189,0,0,1,4.993,3.8,8.763,8.763,0,0,1,4.925,4.019c1.8,3.483.7,8.324-2.976,11.646a50.263,50.263,0,0,1-2.9,5.943,42.935,42.935,0,0,1-4.711,6.775c-2.794,3.216-5.059,5.819-7.753,5.588" transform="translate(-154.26 -229.278)" fill="#282e5b"/>
          <path id="Path_195121" data-name="Path 195121" d="M238.045,422.362c-.313-1.417-.58-2.839-.824-4.27l-10.386-1.9-4.445,5.563,1.015,7.922,16.65-.235Z" transform="translate(-148.968 -216.36)" fill="#d08b73"/>
          <path id="Path_195122" data-name="Path 195122" d="M155.485,360.28a15.445,15.445,0,0,0,.718,9.069c.915,2.289,2.157,4.848,4.115,6.431a12.343,12.343,0,0,0,5.89,2.1,69.607,69.607,0,0,0,11.681.7c8.517-.066,16.957-.689,25.477-.195a43.989,43.989,0,0,0,6.052.125c1.9-.15,3.772-.537,5.667-.736a16.656,16.656,0,0,1,4.388-.051,1.56,1.56,0,0,1,1.3.714,2.576,2.576,0,0,1,.15.84c.1,1.014.162,2.033.252,3.049.2,2.226.424,4.449.655,6.671.448,4.292,1.049,8.561,1.65,12.836.584,4.159,1.2,8.32,1.544,12.51.293,3.632.161,7.613,1.194,11.148.283.966.73,1.977,1.87,1.98a18.329,18.329,0,0,0,3.984-.927c2.183-.51,4.369-1.009,6.541-1.568a48,48,0,0,0,5.363-1.634,8.155,8.155,0,0,0,2.73-1.47c1.344-1.29.548-3.908.344-5.479-1.119-8.555-2.225-17.105-3.649-25.616-.755-4.512-1.6-9.02-2.187-13.557-.267-2.067-.364-4.126-.506-6.2a10.781,10.781,0,0,0-.614-3.157,15.693,15.693,0,0,0-2.2-3.7L187.55,346.1s-20.754,0-26.031,3.869a16.348,16.348,0,0,0-6.033,10.316" transform="translate(-154.446 -222.069)" fill="#0254a9"/>
          <path id="Path_195123" data-name="Path 195123" d="M222.707,424.23a1.355,1.355,0,0,0-1.744.708,14.948,14.948,0,0,0-1.509,5.367,21.547,21.547,0,0,0-.343,6.375,2.133,2.133,0,0,0,1.213,1.866,12.142,12.142,0,0,0,4.41.4q5.4.031,10.808.056c5.484.029,11.064.313,16.532-.169a22.146,22.146,0,0,0,6.2-1.248,4.59,4.59,0,0,0,2.318-1.682,3.574,3.574,0,0,0-.657-4.17c-1.034-.992-2.663-1.032-3.986-1.245a30.434,30.434,0,0,1-7.472-2.282,22.611,22.611,0,0,1-5.463-3.323c-.968-.82-1.824-1.764-2.806-2.565a3.037,3.037,0,0,0-1.008-.644c-1.059-.3-1.463,1.286-1.857,1.955a4.9,4.9,0,0,1-1.936,1.851c-3.015,1.641-6.114,1.065-9.189-.041-1.159-.416-2.319-.892-3.511-1.211" transform="translate(-149.245 -215.917)" fill="#282e5b"/>
          <path id="Path_195124" data-name="Path 195124" d="M165.134,294.156a20.271,20.271,0,0,0-2.111,4.265c-.75,1.818-1.426,3.666-2.057,5.529a89.015,89.015,0,0,0-3.1,11.5c-1.63,8.371-1.956,16.908-2.481,25.4-.248,4-.534,8-.811,12a18.883,18.883,0,0,0,1.23,9.039c.413.92,1.2,2.405,2.439,1.993a4.34,4.34,0,0,0,1.575-1.251,24.005,24.005,0,0,1,3.3-3.252c2.865-2.059,6.621-2.951,9.976-3.861,3.9-1.057,7.886-1.62,11.8-2.569a22.192,22.192,0,0,0,2.447-.748c.685-6.475,1.346-12.95,2.205-19.391a47.969,47.969,0,0,0-1.272-19.855,37.393,37.393,0,0,0-4.223-9.373c-1.923-3.027-4.61-5.749-6.823-8.6l-10.613-2.287Z" transform="translate(-154.497 -226.418)" fill="#12a189"/>
        </g>
      </g>
      <g id="Group_10364" data-name="Group 10364" transform="translate(34.544 94.16)">
        <g id="Group_10363" data-name="Group 10363" clip-path="url(#clip-path-19)">
          <path id="Path_195125" data-name="Path 195125" d="M163.479,311.023c.04,3.931.118,3.933.3,7.862.2,4.225.082,8.563,1.262,12.667,1.094,3.8,3.642,8.246,8.092,8.276,1.1.009,5.312-.425,5.53-1.564.068-.354-.58-1.346-.72-1.675-.862-2.007-6.024-14.027-7.744-18.03a6.292,6.292,0,0,0-.328-.766Z" transform="translate(-153.766 -291.201)" fill="#148a77"/>
        </g>
      </g>
      <path id="Path_195127" data-name="Path 195127" d="M173.709,335.527a27.517,27.517,0,0,0,2.271,7.7,9.725,9.725,0,0,0,2.16,3.249,20.185,20.185,0,0,0,5.773,3.416c7.036,3.15,4.54,2.232,9.068,3.742a214.234,214.234,0,0,0,22.605,5.82c3.246,3.416,5.869,4.143,6.885,4.343a22.347,22.347,0,0,0,3.622.445,22.785,22.785,0,0,1,3.1.131c1.558.27,2.922,1.156,4.444,1.552,1.362.354,3.007-.063,3.235-1.682a2.351,2.351,0,0,0-.832-1.927,17.212,17.212,0,0,0-5.665-3.782c-3.683-1.227-7.817-2.543-12.441-3.859a144.013,144.013,0,0,0-19.294-11.194c-2.425-1.124-7.368-3.136-10.748-8.223a24.645,24.645,0,0,1-1.807-3.135Z" transform="translate(-118.389 -195.324)" fill="#d08b73"/>
      <g id="Group_10368" data-name="Group 10368" transform="translate(55.322 136.802)">
        <g id="Group_10367" data-name="Group 10367" clip-path="url(#clip-path-20)">
          <path id="Path_195128" data-name="Path 195128" d="M172.26,339.108s6.156-2.99,8.267-3.108,9.908-.821,9.908-.821l-4.046-5.511-13.778,4.719Z" transform="translate(-173.827 -332.326)" fill="#bc6c56"/>
        </g>
      </g>
      <path id="Path_195130" data-name="Path 195130" d="M179.518,298.122a7.9,7.9,0,0,1,2.088-2.953,10.651,10.651,0,0,1,4.164-1.8c.959-.3,1.855-.589,1.926-1.705.005-.1,1.3-7.436,1.379-7.533.37-.444,1.221-.369,1.714-.543,2.78-.986-.875-4.957-1.536-6-.582-.918-.14-1.473-.156-2.492a5.167,5.167,0,0,0-.558-1.736,6.228,6.228,0,0,1-.323-2.028c-.022-.472-.081-.932-.142-1.4-.8.418-.535-.1-1.4-.084-.984.018-1.246.914-1.53,1.725a8.206,8.206,0,0,1-1.984,3.551,5.6,5.6,0,0,0-2.036,2.967c-.085.438.3,5.189-1.446,4.02-.864-.582-.793-2.585-.944-3.408a4.452,4.452,0,0,0-1.622-2.52c-1.042-1.021-1.244-2.966-3.187-2.447-2.567.687-1.328,3.741-.9,5.384a6.45,6.45,0,0,0,1.482,3.134,1.873,1.873,0,0,0,2.112.115,2.028,2.028,0,0,0-.131.213c-.486.928.08,1.818.1,2.616.037,1.328-1.433,2.381-2.12,2.873a6.417,6.417,0,0,1-4.389,1.085,5.836,5.836,0,0,1-4.59,2.442Z" transform="translate(-119.058 -200.396)" fill="#d08b73"/>
      <g id="Group_10372" data-name="Group 10372" transform="translate(46.437 69.456)">
        <g id="Group_10371" data-name="Group 10371" clip-path="url(#clip-path-21)">
          <path id="Path_195131" data-name="Path 195131" d="M185.9,291.65c.411.574-6.657.451-9.874-3.781,1.13,3.166,7.036,8.384,7.036,8.384Z" transform="translate(-164.636 -268.385)" fill="#bc6c56"/>
        </g>
      </g>
      <g id="Group_10374" data-name="Group 10374" transform="translate(22.81 75.117)">
        <g id="Group_10694" data-name="Group 10694" transform="translate(0 0)">
          <path id="Path_195133" data-name="Path 195133" d="M162.278,295.115c-1.021-.289.893-2.965,1.137-3.3a4.322,4.322,0,0,1,3.126-1.971,9.71,9.71,0,0,1,4.939,1,42.7,42.7,0,0,1,7.578,5.07,20.365,20.365,0,0,1,5.145,5.015,5.883,5.883,0,0,1,.674,1.562,8.575,8.575,0,0,1,.208,1.182,5.22,5.22,0,0,1,.161,1.686c-.139.526-.4.161-.7-.157-1.014-1.106-1.832-2.4-2.752-3.58a21.191,21.191,0,0,0-6.241-5.314,13.761,13.761,0,0,0-5.85-2c-2.354-.171-4.531.683-6.846.827a2.069,2.069,0,0,1-.584-.02" transform="translate(-142.154 -273.888)" fill="#148a77"/>
          <path id="Path_195134" data-name="Path 195134" d="M163.443,310.6c1.8,6.462,3.324,13.01,5.191,19.452a18.423,18.423,0,0,0,2.714,6.361,5.682,5.682,0,0,0,2.411,1.636,4.953,4.953,0,0,0,1.153.45c1.247.261,2.138-.422,3.518-1.055,2.438-1.119,2.6-.343,5.276-1.539,1.453-.649,1.741-1.027,2.884-1.222.62-.106,1.17-.1,1.425-.493.351-.536-.12-1.412-.239-1.648-.208-.408.377.138-1.377-8.374-1.316-6.389-2.165-12.946-4.44-19.093-.29-.783-.608-1.554-.939-2.321Z" transform="translate(-142.035 -272.833)" fill="#12a189"/>
          <path id="Path_195135" data-name="Path 195135" d="M175.462,278.607c-.225-1.127-1.143-.455-1.383-1.431s.731-.809.572-1.655-1.961-.632-1.269,2.179,2.271,1.864,2.08.906" transform="translate(-141.238 -275.087)" fill="#bc6c56"/>
          <path id="Path_195136" data-name="Path 195136" d="M204.02,384.022H160.5a2.194,2.194,0,0,1-2.194-2.194v-4.762a2.194,2.194,0,0,1,2.194-2.194H204.02a2.194,2.194,0,0,1,2.194,2.194v4.762a2.194,2.194,0,0,1-2.194,2.194" transform="translate(-142.453 -266.96)" fill="#346ec1"/>
          <path id="Path_195137" data-name="Path 195137" d="M147.7,351.784c0-7.786.2-15.473-.1-23.225a83.789,83.789,0,0,1,.589-15.385c.331-2.237,1.829-12.457,6.267-10.531.857.372,1.239,1.585,1.385,2.156q-.294,23.492-.59,46.984c0,2.044-1.366,3.7-3.053,3.7h-1.447c-1.686,0-3.055-1.656-3.055-3.7" transform="translate(-143.333 -272.862)" fill="#346ec1"/>
          <path id="Path_195138" data-name="Path 195138" d="M147.505,323.69v49.164a14.931,14.931,0,0,0,14.933,14.932h36.782" transform="translate(-143.333 -271.129)" fill="none" stroke="#034c8a" stroke-linecap="round" stroke-linejoin="round" stroke-width="3.443"/>
          <rect id="Rectangle_7357" data-name="Rectangle 7357" width="3.726" height="53.396" transform="translate(34.929 117.062)" fill="#034c8a"/>
          <rect id="Rectangle_7358" data-name="Rectangle 7358" width="3.726" height="53.396" transform="translate(34.929 117.062)" stroke-width="0.973" stroke="#034c8a" stroke-linecap="round" stroke-linejoin="round" fill="none"/>
          <rect id="Rectangle_7359" data-name="Rectangle 7359" width="9.689" height="18.261" transform="translate(31.947 141.461)" fill="#034c8a"/>
          <rect id="Rectangle_7360" data-name="Rectangle 7360" width="9.689" height="18.261" transform="translate(31.947 141.461)" stroke-width="0.973" stroke="#034c8a" stroke-linecap="round" stroke-linejoin="round" fill="none"/>
          <path id="Path_195139" data-name="Path 195139" d="M212.744,435.309a58.837,58.837,0,0,0-65.239,0v-3.027a60.722,60.722,0,0,1,65.239,0Z" transform="translate(-143.333 -263.059)" fill="#034c8a"/>
          <path id="Path_195140" data-name="Path 195140" d="M212.744,435.309a58.837,58.837,0,0,0-65.239,0v-3.027a60.722,60.722,0,0,1,65.239,0Z" transform="translate(-143.333 -263.059)" fill="none" stroke="#034c8a" stroke-linecap="round" stroke-linejoin="round" stroke-width="0.973"/>
          <path id="Path_195141" data-name="Path 195141" d="M151.99,434.679a4.172,4.172,0,1,0-4.171,4.172,4.171,4.171,0,0,0,4.171-4.172" transform="translate(-143.647 -262.429)" fill="#034c8a"/>
          <path id="Path_195142" data-name="Path 195142" d="M151.99,434.679a4.172,4.172,0,1,0-4.171,4.172A4.171,4.171,0,0,0,151.99,434.679Z" transform="translate(-143.647 -262.429)" fill="none" stroke="#034c8a" stroke-linecap="round" stroke-linejoin="round" stroke-width="0.973"/>
          <path id="Path_195143" data-name="Path 195143" d="M212.316,434.679a4.171,4.171,0,1,0-4.171,4.172,4.171,4.171,0,0,0,4.171-4.172" transform="translate(-138.734 -262.429)" fill="#034c8a"/>
          <path id="Path_195144" data-name="Path 195144" d="M212.316,434.679a4.171,4.171,0,1,0-4.171,4.172A4.171,4.171,0,0,0,212.316,434.679Z" transform="translate(-138.734 -262.429)" fill="none" stroke="#034c8a" stroke-linecap="round" stroke-linejoin="round" stroke-width="0.973"/>
          <path id="Path_195145" data-name="Path 195145" d="M181.9,434.662a3.939,3.939,0,1,0-3.94,3.94,3.939,3.939,0,0,0,3.94-3.94" transform="translate(-141.173 -262.412)" fill="#034c8a"/>
          <path id="Path_195146" data-name="Path 195146" d="M181.9,434.662a3.939,3.939,0,1,0-3.94,3.94A3.939,3.939,0,0,0,181.9,434.662Z" transform="translate(-141.173 -262.412)" fill="none" stroke="#034c8a" stroke-linecap="round" stroke-linejoin="round" stroke-width="0.973"/>
          <path id="Path_195147" data-name="Path 195147" d="M288.392,377.787h43.523a2.2,2.2,0,0,0,2.194-2.2V370.83a2.194,2.194,0,0,0-2.194-2.194H288.392a2.194,2.194,0,0,0-2.194,2.194v4.762a2.195,2.195,0,0,0,2.194,2.2" transform="translate(-132.038 -267.468)" fill="#346ec1"/>
          <line id="Line_578" data-name="Line 578" x1="47.912" transform="translate(154.161 109.653)" fill="none" stroke="#034c8a" stroke-linecap="round" stroke-linejoin="round" stroke-width="3.053"/>
          <rect id="Rectangle_7361" data-name="Rectangle 7361" width="3.727" height="60.139" transform="translate(176.253 110.319)" fill="#034c8a"/>
          <rect id="Rectangle_7362" data-name="Rectangle 7362" width="3.727" height="60.139" transform="translate(176.253 110.319)" stroke-width="1.033" stroke="#034c8a" stroke-linecap="round" stroke-linejoin="round" fill="none"/>
          <rect id="Rectangle_7363" data-name="Rectangle 7363" width="9.689" height="18.261" transform="translate(173.272 141.461)" fill="#034c8a"/>
          <rect id="Rectangle_7364" data-name="Rectangle 7364" width="9.689" height="18.261" transform="translate(173.272 141.461)" stroke-width="0.973" stroke="#034c8a" stroke-linecap="round" stroke-linejoin="round" fill="none"/>
          <path id="Path_195148" data-name="Path 195148" d="M278.186,435.309a58.839,58.839,0,0,1,65.24,0v-3.027a60.724,60.724,0,0,0-65.24,0Z" transform="translate(-132.69 -263.059)" fill="#034c8a"/>
          <path id="Path_195149" data-name="Path 195149" d="M278.186,435.309a58.839,58.839,0,0,1,65.24,0v-3.027a60.724,60.724,0,0,0-65.24,0Z" transform="translate(-132.69 -263.059)" fill="none" stroke="#034c8a" stroke-linecap="round" stroke-linejoin="round" stroke-width="0.973"/>
          <path id="Path_195150" data-name="Path 195150" d="M334.655,434.679a4.172,4.172,0,1,1,4.171,4.172,4.171,4.171,0,0,1-4.171-4.172" transform="translate(-128.091 -262.429)" fill="#034c8a"/>
          <path id="Path_195151" data-name="Path 195151" d="M334.655,434.679a4.172,4.172,0,1,1,4.171,4.172A4.171,4.171,0,0,1,334.655,434.679Z" transform="translate(-128.091 -262.429)" fill="none" stroke="#034c8a" stroke-linecap="round" stroke-linejoin="round" stroke-width="0.973"/>
          <path id="Path_195152" data-name="Path 195152" d="M274.329,434.679a4.172,4.172,0,1,1,4.171,4.172,4.171,4.171,0,0,1-4.171-4.172" transform="translate(-133.004 -262.429)" fill="#034c8a"/>
          <path id="Path_195153" data-name="Path 195153" d="M274.329,434.679a4.172,4.172,0,1,1,4.171,4.172A4.171,4.171,0,0,1,274.329,434.679Z" transform="translate(-133.004 -262.429)" fill="none" stroke="#034c8a" stroke-linecap="round" stroke-linejoin="round" stroke-width="0.973"/>
          <path id="Path_195154" data-name="Path 195154" d="M304.707,434.662a3.939,3.939,0,1,1,3.94,3.94,3.94,3.94,0,0,1-3.94-3.94" transform="translate(-130.53 -262.412)" fill="#034c8a"/>
          <path id="Path_195155" data-name="Path 195155" d="M304.707,434.662a3.939,3.939,0,1,1,3.94,3.94A3.94,3.94,0,0,1,304.707,434.662Z" transform="translate(-130.53 -262.412)" fill="none" stroke="#034c8a" stroke-linecap="round" stroke-linejoin="round" stroke-width="0.973"/>
          <path id="Path_195156" data-name="Path 195156" d="M333.419,417.015s-3.878,11.283-4.407,16.22.705,7.4,2.2,7.4,16.132-1.179,16.132-1.179,2.468-3.933,2.468-4.639-3-7.932-3-10.225-2.115-7.581-2.115-7.581Z" transform="translate(-128.561 -263.528)" fill="#282e5b"/>
          <path id="Path_195157" data-name="Path 195157" d="M274.169,417.015v8.99s-7.933,7.407-7.933,9.875,3.252,4.423,5.545,4.071,13.9.323,14.96-.735S288.1,425.3,288.1,425.3l-1.764-8.286Z" transform="translate(-133.663 -263.528)" fill="#282e5b"/>
          <path id="Path_195158" data-name="Path 195158" d="M292.431,343.651s-10.578,4.938-14.457,10.4-5.288,4.936-7.053,7.228-2.115,4.054-.88,6.876,1.939,51.834,1.939,51.834v6.7s4.1-1.234,6.039-1.059,7.184,1.059,9.123,1.411,1.235-5.995,1.235-5.995l1.586-5.113s1.41-33.323,2.468-36.144,9.874-7.757,9.874-7.757,0-1.41,9.521,0,18.688-3.173,20.8-.705,2.469,14.809,2.469,21.51.7,11.283,0,15.162,1.41,14.1,1.763,15.515a11.255,11.255,0,0,1,.235,3.052,10.132,10.132,0,0,1,5.407-1.289c3.527,0,9.52-.351,9.52-.351s-2.468-8.111,0-13.4,3.527-25.035,3.527-30.677,2.468-16.572,0-20.8-26.094-16.4-26.094-16.4Z" transform="translate(-133.413 -269.503)" fill="#434e84"/>
        </g>
      </g>
      <g id="Group_10376" data-name="Group 10376" transform="translate(158.708 149.265)">
        <g id="Group_10375" data-name="Group 10375" clip-path="url(#clip-path-22)">
          <path id="Path_195159" data-name="Path 195159" d="M301.076,369.9s-11.989,7.317-15.692,7.317,4.232.793,4.927,8.048c.39,4.081,10.765-15.365,10.765-15.365" transform="translate(-268.081 -341.513)" fill="#282e5b"/>
          <path id="Path_195160" data-name="Path 195160" d="M299.206,411.755s-11.989,2.775-15.692,2.775,4.232.3,4.927,3.055c.39,1.548,10.765-5.83,10.765-5.83" transform="translate(-268.233 -338.105)" fill="#282e5b"/>
          <path id="Path_195161" data-name="Path 195161" d="M326.435,368.644s6.99,4.179,10.692,4.179-7.048,2.487-7.048,6.587-3.644-10.766-3.644-10.766" transform="translate(-264.658 -341.616)" fill="#282e5b"/>
          <path id="Path_195162" data-name="Path 195162" d="M326.435,406.4s6.99,4.181,10.692,4.181-7.048,2.487-7.048,6.585-3.644-10.766-3.644-10.766" transform="translate(-264.658 -338.541)" fill="#282e5b"/>
        </g>
      </g>
      <path id="Path_195164" data-name="Path 195164" d="M302.263,286.184c-10.492,4.247-23.236,7.275-26.342,19.469-.762,2.993-1.154,6.071-1.963,9.053-.555,2.048-2.709,5.342-1.7,7.468,1.364,2.866,8.5,3.733,11.227,3.943l18.775,30.5,24.33-5.818L340.7,324l4.409-1.322s2.644.264,2.644-1.145c0-3.438-1.515-7.33-2.288-10.647-1.134-4.87-1.6-11.061-3.795-15.51-2.531-5.145-9.106-5.337-14.08-6.542q-5.6-1.358-11.22-2.652Z" transform="translate(-110.384 -199.066)" fill="#4485f4"/>
      <g id="Group_10380" data-name="Group 10380" transform="translate(161.61 87.117)">
        <g id="Group_10379" data-name="Group 10379" clip-path="url(#clip-path-23)">
          <path id="Path_195165" data-name="Path 195165" d="M288.537,323.474s1.125.424,1.521-1.058a78.624,78.624,0,0,0,1.917-14.766c-.176-3,1.246,12.87.006,17.631a17.964,17.964,0,0,1-4.062,7.582Z" transform="translate(-270.698 -284.465)" fill="#034c8a"/>
          <path id="Path_195166" data-name="Path 195166" d="M326.9,323.706a1.242,1.242,0,0,1-.927-.995c-.5-2.911-2.17-12.931-2.021-15.485.176-3-1.247,12.871-.005,17.632A17.942,17.942,0,0,0,328,332.439l-.31-8.534Z" transform="translate(-267.806 -284.5)" fill="#034c8a"/>
          <path id="Path_195167" data-name="Path 195167" d="M320.858,292.2c0,6.427-5.836,11.636-13.037,11.636s-13.036-5.209-13.036-11.636,5.837-11.635,13.036-11.635S320.858,285.769,320.858,292.2Z" transform="translate(-270.139 -286.641)" fill="none" stroke="#034c8a" stroke-miterlimit="10" stroke-width="0.903"/>
        </g>
      </g>
      <path id="Path_195169" data-name="Path 195169" d="M298.362,286.951c-.266.064,0,6.689,0,7.276a5.286,5.286,0,0,0,.346,2.675,7.524,7.524,0,0,0,5.713,4.142,12.425,12.425,0,0,0,13.693-6.16V282.19s-19.725,4.753-19.753,4.761" transform="translate(-108.246 -199.391)" fill="#d08b73"/>
      <g id="Group_10384" data-name="Group 10384" transform="translate(189.998 82.799)">
        <g id="Group_10383" data-name="Group 10383" clip-path="url(#clip-path-24)">
          <path id="Path_195170" data-name="Path 195170" d="M296.8,293.121c3.967,2.644,7.248,3.7,11.491,3.306s12.491-8.41,12.491-8.41l-1.635-5.827L296.8,285.319Z" transform="translate(-298.361 -282.19)" fill="#bc6c56"/>
        </g>
      </g>
      <g id="Group_10386" data-name="Group 10386" transform="translate(185.022 54.061)">
        <g id="Group_10700" data-name="Group 10700" transform="translate(0 0)">
          <path id="Path_195172" data-name="Path 195172" d="M293.8,263.549s-.352,16.044,0,20.8,5.642,10.226,8.991,10.755,7.229,2.292,9.168,0,6.876-5.281,7.758-9.164-.353-14.815,0-16.049-.882-10.226-2.822-11.989-7.59-2.292-10.053-2.292-11.456,1.234-13.043,7.933" transform="translate(-293.643 -255.616)" fill="#363a68"/>
          <path id="Path_195173" data-name="Path 195173" d="M297.332,268.065s-1.763,7.758-1.587,10.226.175,7.228,2.292,7.053,4.408-5.29,8.463-5.29,5.817,4.232,8.462,4.055,3.173-3.174,3.349-8.11-3.879-13.048-6.347-13.048-1.593,2.468-4.939,2.468-3.523-2.468-5.815-2.468-3.879,5.113-3.879,5.113" transform="translate(-293.473 -255.019)" fill="#d08b73"/>
          <path id="Path_195174" data-name="Path 195174" d="M329.3,322.942s2.579-3.923,5.752-4.187a64.064,64.064,0,0,1,8.727.287l-3.372,21.092s1.058,2.378.265,3.568-4.761,2.645-4.761,2.645l-21.553,12.562h-1.851l-1.059-2.512-2.908-.53-2.248,3.042h-2.645v-7.67l4.1-2.512,3.041,1.983s14.282-8.845,16.133-11.3l1.85-2.453Z" transform="translate(-292.828 -250.48)" fill="#d08b73"/>
        </g>
      </g>
      <g id="Group_10388" data-name="Group 10388" transform="translate(195.846 122.264)">
        <g id="Group_10387" data-name="Group 10387" clip-path="url(#clip-path-25)">
          <path id="Path_195175" data-name="Path 195175" d="M324.442,328.318s4.584-5.113,9.169-5.466,11.813-.176,11.813-.176l.705-5.467-14.634-1.763-9.289,8.64Z" transform="translate(-302.14 -318.947)" fill="#bc6c56"/>
        </g>
      </g>
      <path id="Path_195177" data-name="Path 195177" d="M289.622,322.448l.528,14.149,15.868,14.545v7.67h2.644l2.249-3.042,2.908.53,1.059,2.512s3.3.793,3.57,1.72-1.851,7.67-2.909,7.933-8.462-.662-8.462-.662l-6.48-4.364s.265-7.933,0-9.123-18.38-8.6-20.1-10.712c-.718-.884-1.074-2.576-1.982-5.817a137.783,137.783,0,0,1-3.922-17.763c1.392-.358,3.747.018,5.641-.07,4.234-.2,7.161,1.659,9.389,2.494" transform="translate(-110.173 -196.323)" fill="#bc6c56"/>
      <g id="Group_10395" data-name="Group 10395" transform="translate(164.42 123.545)">
        <g id="Group_10394" data-name="Group 10394" clip-path="url(#clip-path-26)">
          <g id="Group_10393" data-name="Group 10393" transform="translate(-0.397 -0.722)" opacity="0.5" style="mix-blend-mode: multiply;isolation: isolate">
            <g id="Group_10392" data-name="Group 10392">
              <g id="Group_10391" data-name="Group 10391" clip-path="url(#clip-path-27)">
                <path id="Path_195178" data-name="Path 195178" d="M274.225,319.285v3.879s6.787-.882,8.286-.705,8.111,2.469,8.111,2.469l1.585-3.527s-16.156-2.713-17.982-2.116" transform="translate(-274.225 -319.199)" fill="#bc6c56"/>
              </g>
            </g>
          </g>
        </g>
      </g>
      <g id="Group_10400" data-name="Group 10400" transform="translate(0 104.553)">
        <path id="Path_195180" data-name="Path 195180" d="M504.365,340.384H216.52a3.9,3.9,0,0,0-3.9,3.894v2.559a3.9,3.9,0,0,0,3.9,3.894H504.365a3.894,3.894,0,0,0,3.9-3.894v-2.559a3.894,3.894,0,0,0-3.9-3.894" transform="translate(-115.219 -299.205)" fill="#c4422b"/>
        <g id="Group_10398" data-name="Group 10398" transform="translate(97.407 45.373)" opacity="0.5" style="mix-blend-mode: multiply;isolation: isolate">
          <g id="Group_10397" data-name="Group 10397">
            <g id="Group_10396" data-name="Group 10396" clip-path="url(#clip-path-28)">
              <path id="Path_195181" data-name="Path 195181" d="M504.365,348.156H216.52a3.9,3.9,0,0,1-3.9-3.894v2.259a3.9,3.9,0,0,0,3.9,3.894H504.365a3.894,3.894,0,0,0,3.9-3.894v-2.259a3.894,3.894,0,0,1-3.9,3.894" transform="translate(-212.626 -344.262)" fill="#c4422b"/>
            </g>
          </g>
        </g>
        <path id="Path_195182" data-name="Path 195182" d="M439.812,349.952l1.2,2.07a6.946,6.946,0,0,0,6.009,3.461h13.584l-.557-5.531Z" transform="translate(-96.717 -298.425)" fill="#434e84"/>
        <path id="Path_195183" data-name="Path 195183" d="M459.082,355.483l9.069,90.077h4.01V349.952H458.525Z" transform="translate(-95.193 -298.425)" fill="#282e5b"/>
        <path id="Path_195184" data-name="Path 195184" d="M239.582,355.483h13.585a6.944,6.944,0,0,0,6.007-3.461l1.2-2.07H240.139Z" transform="translate(-113.024 -298.425)" fill="#434e84"/>
        <path id="Path_195185" data-name="Path 195185" d="M227.488,349.952V445.56H231.5l9.624-95.608Z" transform="translate(-114.009 -298.425)" fill="#282e5b"/>
        <path id="Path_195186" data-name="Path 195186" d="M287.607,340.581H255.843l11.765-38.274h31.764Z" transform="translate(-111.7 -302.306)" fill="#434e84"/>
        <path id="Path_195187" data-name="Path 195187" d="M290.055,340.581H258.29l11.765-38.274h31.764Z" transform="translate(-111.5 -302.306)" fill="#282e5b"/>
        <rect id="Rectangle_7372" data-name="Rectangle 7372" width="58.311" height="4.048" transform="translate(113.479 37.131)" fill="#434e84"/>
        <rect id="Rectangle_7373" data-name="Rectangle 7373" width="33.537" height="4.048" transform="translate(142.635 37.131)" fill="#282e5b"/>
        <path id="Path_195188" data-name="Path 195188" d="M282.072,321.027c.464-2.115-.157-4.157-1.38-4.56s-2.6.985-3.058,3.1.155,4.157,1.38,4.56,2.594-.985,3.058-3.1" transform="translate(-109.937 -301.158)" fill="#bec6c4"/>
        <rect id="Rectangle_7374" data-name="Rectangle 7374" width="48.394" height="38.275" transform="translate(215.749 0)" fill="#434e84"/>
        <rect id="Rectangle_7375" data-name="Rectangle 7375" width="50.881" height="38.275" transform="translate(217.295 0)" fill="#282e5b"/>
        <rect id="Rectangle_7376" data-name="Rectangle 7376" width="49.109" height="2.904" transform="translate(217.487 38.275)" fill="#282e5b"/>
        <path id="Path_195189" data-name="Path 195189" d="M350.483,320.291a3.827,3.827,0,1,0-3.827,3.826,3.827,3.827,0,0,0,3.827-3.826" transform="translate(-104.615 -301.153)" fill="#bec6c4"/>
        <path id="Path_195190" data-name="Path 195190" d="M423.751,340.581h31.765l-11.765-38.274H411.987Z" transform="translate(-98.983 -302.306)" fill="#434e84"/>
        <path id="Path_195191" data-name="Path 195191" d="M421.3,340.581h31.764L441.3,302.307H409.539Z" transform="translate(-99.182 -302.306)" fill="#282e5b"/>
        <rect id="Rectangle_7377" data-name="Rectangle 7377" width="58.31" height="4.048" transform="translate(328.886 37.131)" fill="#434e84"/>
        <rect id="Rectangle_7378" data-name="Rectangle 7378" width="33.538" height="4.048" transform="translate(324.503 37.131)" fill="#282e5b"/>
        <path id="Path_195192" data-name="Path 195192" d="M426.366,321.027c-.462-2.115.156-4.157,1.382-4.56s2.594.985,3.056,3.1-.155,4.157-1.379,4.56-2.6-.985-3.059-3.1" transform="translate(-97.825 -301.158)" fill="#bec6c4"/>
        <line id="Line_579" data-name="Line 579" x2="546.065" transform="translate(0 148.132)" fill="none" stroke="#434e84" stroke-linecap="round" stroke-linejoin="round" stroke-width="4.287"/>
      </g>
    </g>
    <g id="Group_10703" data-name="Group 10703" transform="translate(-13996.409 9421.505)">
      <path id="Path_196012" data-name="Path 196012" d="M549.067,296.614H415.491a9.076,9.076,0,0,1-9.076-9.076v-91.2a9.076,9.076,0,0,1,9.076-9.076H549.067a9.074,9.074,0,0,1,9.075,9.076v91.2a9.075,9.075,0,0,1-9.075,9.076" transform="translate(-406.415 -187.26)" fill="#fefefe"/>
      <g id="Group_10652" data-name="Group 10652" transform="translate(55.236 12.28)">
        <line id="Line_573" data-name="Line 573" x2="69.41" transform="translate(0 0)" fill="none" stroke="#baccc6" stroke-linecap="round" stroke-linejoin="round" stroke-width="1.04"/>
        <line id="Line_574" data-name="Line 574" x2="69.41" transform="translate(0 4.828)" fill="none" stroke="#baccc6" stroke-linecap="round" stroke-linejoin="round" stroke-width="1.04"/>
        <line id="Line_575" data-name="Line 575" x2="69.41" transform="translate(0 9.656)" fill="none" stroke="#baccc6" stroke-linecap="round" stroke-linejoin="round" stroke-width="1.04"/>
        <line id="Line_576" data-name="Line 576" x2="69.41" transform="translate(0 14.484)" fill="none" stroke="#baccc6" stroke-linecap="round" stroke-linejoin="round" stroke-width="1.04"/>
        <line id="Line_577" data-name="Line 577" x2="16.639" transform="translate(0 19.311)" fill="none" stroke="#baccc6" stroke-linecap="round" stroke-linejoin="round" stroke-width="1.04"/>
      </g>
      <g id="Group_10656" data-name="Group 10656" transform="translate(55.236 75.915)">
        <line id="Line_573-2" data-name="Line 573" x2="69.41" transform="translate(0 0)" fill="none" stroke="#baccc6" stroke-linecap="round" stroke-linejoin="round" stroke-width="1.04"/>
        <line id="Line_574-2" data-name="Line 574" x2="69.41" transform="translate(0 4.828)" fill="none" stroke="#baccc6" stroke-linecap="round" stroke-linejoin="round" stroke-width="1.04"/>
        <line id="Line_575-2" data-name="Line 575" x2="69.41" transform="translate(0 9.656)" fill="none" stroke="#baccc6" stroke-linecap="round" stroke-linejoin="round" stroke-width="1.04"/>
        <line id="Line_576-2" data-name="Line 576" x2="69.41" transform="translate(0 14.484)" fill="none" stroke="#baccc6" stroke-linecap="round" stroke-linejoin="round" stroke-width="1.04"/>
        <line id="Line_577-2" data-name="Line 577" x2="16.639" transform="translate(0 19.311)" fill="none" stroke="#baccc6" stroke-linecap="round" stroke-linejoin="round" stroke-width="1.04"/>
      </g>
      <g id="Group_10657" data-name="Group 10657" transform="translate(55.236 44.098)">
        <line id="Line_573-3" data-name="Line 573" x2="69.41" transform="translate(0 0)" fill="none" stroke="#baccc6" stroke-linecap="round" stroke-linejoin="round" stroke-width="1.04"/>
        <line id="Line_574-3" data-name="Line 574" x2="69.41" transform="translate(0 4.828)" fill="none" stroke="#baccc6" stroke-linecap="round" stroke-linejoin="round" stroke-width="1.04"/>
        <line id="Line_575-3" data-name="Line 575" x2="69.41" transform="translate(0 9.656)" fill="none" stroke="#baccc6" stroke-linecap="round" stroke-linejoin="round" stroke-width="1.04"/>
        <line id="Line_576-3" data-name="Line 576" x2="69.41" transform="translate(0 14.484)" fill="none" stroke="#baccc6" stroke-linecap="round" stroke-linejoin="round" stroke-width="1.04"/>
        <line id="Line_577-3" data-name="Line 577" x2="16.639" transform="translate(0 19.311)" fill="none" stroke="#baccc6" stroke-linecap="round" stroke-linejoin="round" stroke-width="1.04"/>
      </g>
      <g id="Group_10653" data-name="Group 10653" transform="translate(23.813 9.5)">
        <path id="Path_195009" data-name="Path 195009" d="M520.747,212.069l7.13.636c.143-.667,1.4.074,1.4-.636v-16.15H511.323l-.049,25.188s8.716.055,9.473-.139Z" transform="translate(-511.273 -195.919)" fill="#fabb49"/>
        <path id="Path_195010" data-name="Path 195010" d="M523.735,224.667a11.811,11.811,0,0,0,8.618-8.9h-8.618Z" transform="translate(-514.282 -199.59)" fill="#d38309"/>
      </g>
      <g id="Group_10655" data-name="Group 10655" transform="translate(23.813 73.135)">
        <path id="Path_195009-2" data-name="Path 195009" d="M520.747,212.069l7.13.636c.143-.667,1.4.074,1.4-.636v-16.15H511.323l-.049,25.188s8.716.055,9.473-.139Z" transform="translate(-511.273 -195.919)" fill="#fabb49"/>
        <path id="Path_195010-2" data-name="Path 195010" d="M523.735,224.667a11.811,11.811,0,0,0,8.618-8.9h-8.618Z" transform="translate(-514.282 -199.59)" fill="#d38309"/>
      </g>
      <g id="Group_10654" data-name="Group 10654" transform="translate(23.813 41.318)">
        <path id="Path_195009-3" data-name="Path 195009" d="M520.747,212.069l7.13.636c.143-.667,1.4.074,1.4-.636v-16.15H511.323l-.049,25.188s8.716.055,9.473-.139Z" transform="translate(-511.273 -195.919)" fill="#fabb49"/>
        <path id="Path_195010-3" data-name="Path 195010" d="M523.735,224.667a11.811,11.811,0,0,0,8.618-8.9h-8.618Z" transform="translate(-514.282 -199.59)" fill="#d38309"/>
      </g>
      <path id="Path_196011" data-name="Path 196011" d="M327.914,179.587l2.668,5.406,5.966.867-4.317,4.208,1.019,5.942-5.337-2.806-5.336,2.806,1.019-5.942-4.318-4.208,5.966-.867Z" transform="translate(-190.002 -168.776)" fill="#faae26"/>
      <path id="Path_196010" data-name="Path 196010" d="M327.914,179.587l2.668,5.406,5.966.867-4.317,4.208,1.019,5.942-5.337-2.806-5.336,2.806,1.019-5.942-4.318-4.208,5.966-.867Z" transform="translate(-190.002 -106.238)" fill="#faae26"/>
    </g>
    <g id="Group_10705" data-name="Group 10705" transform="translate(-13748.545 9373.842)">
      <path id="Path_195004" data-name="Path 195004" d="M549.067,296.614H415.491a9.076,9.076,0,0,1-9.076-9.076v-91.2a9.076,9.076,0,0,1,9.076-9.076H549.067a9.074,9.074,0,0,1,9.075,9.076v91.2a9.075,9.075,0,0,1-9.075,9.076" transform="translate(-406.415 -187.26)" fill="#fefefe"/>
      <g id="Group_10646" data-name="Group 10646" transform="translate(55.236 12.28)">
        <line id="Line_573-4" data-name="Line 573" x2="69.41" transform="translate(0 0)" fill="none" stroke="#baccc6" stroke-linecap="round" stroke-linejoin="round" stroke-width="1.04"/>
        <line id="Line_574-4" data-name="Line 574" x2="69.41" transform="translate(0 4.828)" fill="none" stroke="#baccc6" stroke-linecap="round" stroke-linejoin="round" stroke-width="1.04"/>
        <line id="Line_575-4" data-name="Line 575" x2="69.41" transform="translate(0 9.656)" fill="none" stroke="#baccc6" stroke-linecap="round" stroke-linejoin="round" stroke-width="1.04"/>
        <line id="Line_576-4" data-name="Line 576" x2="69.41" transform="translate(0 14.484)" fill="none" stroke="#baccc6" stroke-linecap="round" stroke-linejoin="round" stroke-width="1.04"/>
        <line id="Line_577-4" data-name="Line 577" x2="16.639" transform="translate(0 19.311)" fill="none" stroke="#baccc6" stroke-linecap="round" stroke-linejoin="round" stroke-width="1.04"/>
      </g>
      <g id="Group_10649" data-name="Group 10649" transform="translate(55.236 75.915)">
        <line id="Line_573-5" data-name="Line 573" x2="69.41" transform="translate(0 0)" fill="none" stroke="#baccc6" stroke-linecap="round" stroke-linejoin="round" stroke-width="1.04"/>
        <line id="Line_574-5" data-name="Line 574" x2="69.41" transform="translate(0 4.828)" fill="none" stroke="#baccc6" stroke-linecap="round" stroke-linejoin="round" stroke-width="1.04"/>
        <line id="Line_575-5" data-name="Line 575" x2="69.41" transform="translate(0 9.656)" fill="none" stroke="#baccc6" stroke-linecap="round" stroke-linejoin="round" stroke-width="1.04"/>
        <line id="Line_576-5" data-name="Line 576" x2="69.41" transform="translate(0 14.484)" fill="none" stroke="#baccc6" stroke-linecap="round" stroke-linejoin="round" stroke-width="1.04"/>
        <line id="Line_577-5" data-name="Line 577" x2="16.639" transform="translate(0 19.311)" fill="none" stroke="#baccc6" stroke-linecap="round" stroke-linejoin="round" stroke-width="1.04"/>
      </g>
      <g id="Group_10651" data-name="Group 10651" transform="translate(55.236 44.098)">
        <line id="Line_573-6" data-name="Line 573" x2="69.41" transform="translate(0 0)" fill="none" stroke="#baccc6" stroke-linecap="round" stroke-linejoin="round" stroke-width="1.04"/>
        <line id="Line_574-6" data-name="Line 574" x2="69.41" transform="translate(0 4.828)" fill="none" stroke="#baccc6" stroke-linecap="round" stroke-linejoin="round" stroke-width="1.04"/>
        <line id="Line_575-6" data-name="Line 575" x2="69.41" transform="translate(0 9.656)" fill="none" stroke="#baccc6" stroke-linecap="round" stroke-linejoin="round" stroke-width="1.04"/>
        <line id="Line_576-6" data-name="Line 576" x2="69.41" transform="translate(0 14.484)" fill="none" stroke="#baccc6" stroke-linecap="round" stroke-linejoin="round" stroke-width="1.04"/>
        <line id="Line_577-6" data-name="Line 577" x2="16.639" transform="translate(0 19.311)" fill="none" stroke="#baccc6" stroke-linecap="round" stroke-linejoin="round" stroke-width="1.04"/>
      </g>
      <g id="Group_10647" data-name="Group 10647" transform="translate(23.813 9.5)">
        <path id="Path_195009-4" data-name="Path 195009" d="M520.747,212.069l7.13.636c.143-.667,1.4.074,1.4-.636v-16.15H511.323l-.049,25.188s8.716.055,9.473-.139Z" transform="translate(-511.273 -195.919)" fill="#fabb49"/>
        <path id="Path_195010-4" data-name="Path 195010" d="M523.735,224.667a11.811,11.811,0,0,0,8.618-8.9h-8.618Z" transform="translate(-514.282 -199.59)" fill="#d38309"/>
      </g>
      <g id="Group_10648" data-name="Group 10648" transform="translate(23.813 73.135)">
        <path id="Path_195009-5" data-name="Path 195009" d="M520.747,212.069l7.13.636c.143-.667,1.4.074,1.4-.636v-16.15H511.323l-.049,25.188s8.716.055,9.473-.139Z" transform="translate(-511.273 -195.919)" fill="#fabb49"/>
        <path id="Path_195010-5" data-name="Path 195010" d="M523.735,224.667a11.811,11.811,0,0,0,8.618-8.9h-8.618Z" transform="translate(-514.282 -199.59)" fill="#d38309"/>
      </g>
      <g id="Group_10650" data-name="Group 10650" transform="translate(23.813 41.318)">
        <path id="Path_195009-6" data-name="Path 195009" d="M520.747,212.069l7.13.636c.143-.667,1.4.074,1.4-.636v-16.15H511.323l-.049,25.188s8.716.055,9.473-.139Z" transform="translate(-511.273 -195.919)" fill="#fabb49"/>
        <path id="Path_195010-6" data-name="Path 195010" d="M523.735,224.667a11.811,11.811,0,0,0,8.618-8.9h-8.618Z" transform="translate(-514.282 -199.59)" fill="#d38309"/>
      </g>
      <path id="Path_195021" data-name="Path 195021" d="M327.914,179.587l2.668,5.406,5.966.867-4.317,4.208,1.019,5.942-5.337-2.806-5.336,2.806,1.019-5.942-4.318-4.208,5.966-.867Z" transform="translate(-190.002 -168.776)" fill="#faae26"/>
      <path id="Path_196009" data-name="Path 196009" d="M327.914,179.587l2.668,5.406,5.966.867-4.317,4.208,1.019,5.942-5.337-2.806-5.336,2.806,1.019-5.942-4.318-4.208,5.966-.867Z" transform="translate(-190.002 -136.959)" fill="#faae26"/>
    </g>
  </g>
</svg>
