<svg xmlns="http://www.w3.org/2000/svg" xmlns:xlink="http://www.w3.org/1999/xlink" width="495" height="495" viewBox="0 0 495 495">
  <defs>
    <clipPath id="clip-path">
      <rect id="Rectangle_7282" data-name="Rectangle 7282" width="318" height="450" transform="translate(0.494 0.015)" fill="none"/>
    </clipPath>
  </defs>
  <g id="Group_10167" data-name="Group 10167" transform="translate(-830 -117)">
    <circle id="Ellipse_786" data-name="Ellipse 786" cx="247.5" cy="247.5" r="247.5" transform="translate(830 117)" fill="#fff"/>
    <g id="Group_10159" data-name="Group 10159" transform="translate(830 117)">
      <rect id="Rectangle_7273" data-name="Rectangle 7273" width="495" height="495" rx="247.5" fill="#afb6ba"/>
      <g id="Group_10158" data-name="Group 10158" transform="translate(53.506 23.985)">
        <g id="Group_10157" data-name="Group 10157" transform="translate(0 0)" clip-path="url(#clip-path)">
          <g id="Group_10156" data-name="Group 10156" transform="translate(12.25 8.046)">
            <path id="Path_194677" data-name="Path 194677" d="M493.162,538.214l-.2-.307c-5.433-8.4-1.8-20.411,8.118-26.825l118.392-76.567c9.917-6.414,22.361-4.8,27.794,3.6l.2.307c5.433,8.4,1.8,20.411-8.119,26.825L520.956,541.813C511.039,548.227,498.595,546.615,493.162,538.214Z" transform="translate(-354.674 -365.799)" fill="#ecba99"/>
            <g id="Group_10138" data-name="Group 10138" transform="translate(233.265 126.886)">
              <path id="Path_194678" data-name="Path 194678" d="M753.932,641.948l-.253-.255a17.678,17.678,0,0,1-.119-25l19.134-18.782a17.676,17.676,0,0,1,25,.191l.254.254a17.678,17.678,0,0,1,.119,25l-19.133,18.781A17.677,17.677,0,0,1,753.932,641.948Z" transform="translate(-747.193 -592.831)" fill="#e0a582"/>
              <path id="Path_194679" data-name="Path 194679" d="M749.67,744.034l-.234-.283a17.988,17.988,0,0,1,2.089-25.349l21.036-17.17a17.986,17.986,0,0,1,25.3,2.631l.234.283A17.988,17.988,0,0,1,796,729.494l-21.036,17.171A17.986,17.986,0,0,1,749.67,744.034Z" transform="translate(-745.179 -657.254)" fill="#e0a582"/>
              <path id="Path_194680" data-name="Path 194680" d="M766.862,839.177l-.152-.281a15.648,15.648,0,0,1,6.067-21.279l20.854-11.1a15.647,15.647,0,0,1,21.143,6.521l.152.281a15.648,15.648,0,0,1-6.067,21.279l-20.854,11.1A15.647,15.647,0,0,1,766.862,839.177Z" transform="translate(-757.264 -723.597)" fill="#e0a582"/>
            </g>
            <path id="Path_194681" data-name="Path 194681" d="M379.433,750.683l-1.356-.863c-16.661-10.611-28.179-20.657-38.279-27.882-15.463-11.061-21.347-32.134-9.242-66.209L397.866,583.1c32.281-28.694,41.508-16.768,73.978,12.554l7.174,5.829c34.075,26.453,36.141,58.908,38.11,70.392a173.109,173.109,0,0,1,1.793,17.934c0,5.828-.687,21.135-10.76,29.143-26.229,20.849-43.221,53.515-65.908,58.286C425.5,780.756,405.508,767.291,379.433,750.683Z" transform="translate(-251.987 -449.799)" fill="#ecba99"/>
            <rect id="Rectangle_7274" data-name="Rectangle 7274" width="138.599" height="112.313" transform="matrix(0.537, -0.843, 0.843, 0.537, 21.698, 360.346)" fill="#ecba99"/>
            <g id="Group_10148" data-name="Group 10148" transform="translate(121.577)">
              <g id="Group_10139" data-name="Group 10139">
                <path id="Path_194682" data-name="Path 194682" d="M577.938,261.312H475.684a22.347,22.347,0,0,0-22.318,22.326V549.952a22.344,22.344,0,0,0,22.318,22.319H577.938a22.343,22.343,0,0,0,22.317-22.319V283.638A22.347,22.347,0,0,0,577.938,261.312Z" transform="translate(-453.366 -261.312)" fill="#2f363d"/>
              </g>
              <g id="Group_10140" data-name="Group 10140" transform="translate(9.165 42.481)">
                <rect id="Rectangle_7275" data-name="Rectangle 7275" width="128.077" height="227.337" fill="#e7ecee"/>
              </g>
              <g id="Group_10142" data-name="Group 10142" transform="translate(60.357 21.476)">
                <g id="Group_10141" data-name="Group 10141">
                  <path id="Path_194683" data-name="Path 194683" d="M633.63,317.422H614.19a3.115,3.115,0,1,0,0,6.23h19.44a3.115,3.115,0,1,0,0-6.23Z" transform="translate(-611.064 -317.422)" fill="#4c565e"/>
                </g>
              </g>
              <g id="Group_10144" data-name="Group 10144" transform="translate(56.801 286.215)">
                <g id="Group_10143" data-name="Group 10143">
                  <path id="Path_194684" data-name="Path 194684" d="M630.585,1009.116H605.763c-2.191,0-3.992,2.062-3.992,4.586s1.8,4.6,3.992,4.6h24.822c2.192,0,3.991-2.077,3.991-4.6S632.777,1009.116,630.585,1009.116Z" transform="translate(-601.771 -1009.116)" fill="#4c565e"/>
                </g>
              </g>
              <g id="Group_10146" data-name="Group 10146" transform="translate(21.774 148.883)">
                <rect id="Rectangle_7276" data-name="Rectangle 7276" width="103.34" height="65.156" rx="7.918" fill="#3a5d71"/>
                <rect id="Rectangle_7277" data-name="Rectangle 7277" width="103.34" height="14.678" transform="translate(0 6.364)" fill="#2f363d"/>
                <rect id="Rectangle_7278" data-name="Rectangle 7278" width="69.853" height="8.77" transform="translate(3.334 28.333)" fill="#f3f4f4"/>
                <rect id="Rectangle_7279" data-name="Rectangle 7279" width="17.122" height="8.77" transform="translate(82.316 28.333)" fill="#f3f4f4"/>
                <rect id="Rectangle_7280" data-name="Rectangle 7280" width="25.608" height="3.267" transform="translate(3.334 40.794)" fill="#2f363d"/>
                <rect id="Rectangle_7281" data-name="Rectangle 7281" width="25.608" height="3.267" transform="translate(31.871 40.794)" fill="#2f363d"/>
                <path id="Path_194685" data-name="Path 194685" d="M588.233,800.327h-68.68c-.324,0-.586-.138-.586-.307v-4.3c0-.17.262-.307.586-.307h68.68c.324,0,.586.137.586.307v4.3C588.82,800.189,588.557,800.327,588.233,800.327Z" transform="translate(-515.633 -739.873)" fill="#3a5d71" style="mix-blend-mode: screen;isolation: isolate"/>
                <g id="Group_10145" data-name="Group 10145" transform="translate(8.528 29.833)">
                  <path id="Path_194686" data-name="Path 194686" d="M536.164,734.068l-.742-1.286c-.3-.492-.492-.812-.674-1.148h-.017c-.164.336-.328.647-.63,1.156l-.7,1.278h-.863l1.779-2.944-1.709-2.875h.872l.768,1.364c.216.38.38.674.535.984h.026c.164-.345.311-.613.527-.984l.794-1.364h.863l-1.77,2.832,1.813,2.987Z" transform="translate(-532.538 -728.249)" fill="#2f363d"/>
                  <path id="Path_194687" data-name="Path 194687" d="M548.713,734.068l-.742-1.286c-.3-.492-.492-.812-.673-1.148h-.017c-.164.336-.328.647-.63,1.156l-.7,1.278h-.863l1.779-2.944-1.709-2.875h.871l.769,1.364c.216.38.38.674.535.984h.026c.164-.345.31-.613.526-.984l.795-1.364h.863l-1.77,2.832,1.813,2.987Z" transform="translate(-540.284 -728.249)" fill="#2f363d"/>
                  <path id="Path_194688" data-name="Path 194688" d="M561.262,734.068l-.742-1.286c-.3-.492-.492-.812-.673-1.148h-.017c-.164.336-.328.647-.63,1.156l-.7,1.278h-.863l1.779-2.944-1.709-2.875h.872l.769,1.364c.216.38.38.674.535.984h.026c.164-.345.31-.613.526-.984l.794-1.364h.863l-1.77,2.832,1.813,2.987Z" transform="translate(-548.03 -728.249)" fill="#2f363d"/>
                  <path id="Path_194689" data-name="Path 194689" d="M573.811,734.068l-.742-1.286c-.3-.492-.492-.812-.674-1.148h-.017c-.164.336-.328.647-.63,1.156l-.7,1.278h-.863l1.779-2.944-1.71-2.875h.872l.769,1.364c.216.38.38.674.535.984h.026c.164-.345.311-.613.527-.984l.794-1.364h.863l-1.77,2.832,1.813,2.987Z" transform="translate(-555.776 -728.249)" fill="#2f363d"/>
                  <path id="Path_194690" data-name="Path 194690" d="M586.36,734.068l-.742-1.286c-.3-.492-.492-.812-.674-1.148h-.017c-.164.336-.328.647-.63,1.156l-.7,1.278h-.863l1.779-2.944-1.709-2.875h.872l.768,1.364c.216.38.38.674.535.984H585c.164-.345.311-.613.527-.984l.794-1.364h.864l-1.77,2.832,1.813,2.987Z" transform="translate(-563.522 -728.249)" fill="#2f363d"/>
                  <path id="Path_194691" data-name="Path 194691" d="M598.909,734.068l-.742-1.286c-.3-.492-.492-.812-.674-1.148h-.017c-.164.336-.328.647-.631,1.156l-.7,1.278h-.863l1.778-2.944-1.709-2.875h.872l.768,1.364c.216.38.38.674.536.984h.026c.164-.345.311-.613.527-.984l.794-1.364h.864l-1.77,2.832,1.813,2.987Z" transform="translate(-571.268 -728.249)" fill="#2f363d"/>
                  <path id="Path_194692" data-name="Path 194692" d="M616.582,734.068l-.743-1.286c-.3-.492-.492-.812-.673-1.148h-.017c-.164.336-.328.647-.63,1.156l-.7,1.278h-.863l1.778-2.944-1.709-2.875h.871l.768,1.364c.216.38.38.674.536.984h.026c.164-.345.311-.613.527-.984l.795-1.364h.863l-1.77,2.832,1.813,2.987Z" transform="translate(-582.177 -728.249)" fill="#2f363d"/>
                  <path id="Path_194693" data-name="Path 194693" d="M629.131,734.068l-.743-1.286c-.3-.492-.492-.812-.674-1.148H627.7c-.164.336-.328.647-.63,1.156l-.7,1.278h-.863l1.778-2.944-1.71-2.875h.872l.768,1.364c.216.38.38.674.535.984h.026c.164-.345.311-.613.527-.984l.795-1.364h.863l-1.77,2.832L630,734.068Z" transform="translate(-589.923 -728.249)" fill="#2f363d"/>
                  <path id="Path_194694" data-name="Path 194694" d="M641.68,734.068l-.742-1.286c-.3-.492-.492-.812-.674-1.148h-.017c-.164.336-.328.647-.63,1.156l-.7,1.278h-.864l1.779-2.944-1.71-2.875h.872l.769,1.364c.216.38.38.674.535.984h.026c.164-.345.311-.613.527-.984l.795-1.364h.863l-1.77,2.832,1.813,2.987Z" transform="translate(-597.668 -728.249)" fill="#2f363d"/>
                  <path id="Path_194695" data-name="Path 194695" d="M654.229,734.068l-.742-1.286c-.3-.492-.492-.812-.674-1.148H652.8c-.164.336-.328.647-.63,1.156l-.7,1.278H650.6l1.778-2.944-1.709-2.875h.872l.768,1.364c.216.38.38.674.536.984h.026c.164-.345.311-.613.527-.984l.794-1.364h.864l-1.77,2.832,1.813,2.987Z" transform="translate(-605.415 -728.249)" fill="#2f363d"/>
                  <path id="Path_194696" data-name="Path 194696" d="M666.778,734.068l-.743-1.286c-.3-.492-.492-.812-.673-1.148h-.017c-.164.336-.328.647-.63,1.156l-.7,1.278h-.863l1.779-2.944-1.709-2.875h.872l.768,1.364c.216.38.38.674.535.984h.026c.164-.345.311-.613.527-.984l.794-1.364h.863l-1.77,2.832,1.813,2.987Z" transform="translate(-613.161 -728.249)" fill="#2f363d"/>
                </g>
              </g>
              <g id="Group_10147" data-name="Group 10147" transform="translate(32.469 81.66)">
                <path id="Path_194697" data-name="Path 194697" d="M623.77,526.515a38.988,38.988,0,0,0-42.963,0c-1.223.807-3.14.315-4.336-1.21l-.043-.056a3.181,3.181,0,0,1,.48-4.65,46.066,46.066,0,0,1,50.762,0,3.18,3.18,0,0,1,.48,4.65l-.043.056C626.911,526.83,624.993,527.322,623.77,526.515Z" transform="translate(-561.313 -498.314)" fill="#2f363d"/>
                <path id="Path_194698" data-name="Path 194698" d="M633.942,551.64a29.208,29.208,0,0,0-22.828,0c-.686.291-1.713-.419-2.306-1.626l-.022-.044c-.594-1.206-.42-2.506.4-2.857a34.13,34.13,0,0,1,26.675,0c.825.351,1,1.652.4,2.857l-.021.044C635.654,551.221,634.627,551.932,633.942,551.64Z" transform="translate(-581.552 -517.71)" fill="#2f363d"/>
                <path id="Path_194699" data-name="Path 194699" d="M612.826,495.4a52.22,52.22,0,0,0-67.3,0,4.675,4.675,0,0,1-6.215.043l-.06-.06c-1.654-1.605-1.341-4.605.844-6.448a60.648,60.648,0,0,1,78.162,0c2.185,1.843,2.5,4.843.844,6.448l-.06.06A4.675,4.675,0,0,1,612.826,495.4Z" transform="translate(-538.199 -474.668)" fill="#2f363d"/>
                <path id="Path_194700" data-name="Path 194700" d="M639.18,575.528a20.3,20.3,0,0,0-11.988,0c-.367.113-.935-.552-1.272-1.5l-.012-.035c-.338-.949-.252-1.845.195-1.984a23.992,23.992,0,0,1,14.168,0c.447.138.532,1.035.195,1.984l-.012.035C640.115,574.976,639.547,575.641,639.18,575.528Z" transform="translate(-592.21 -534.092)" fill="#2f363d"/>
              </g>
            </g>
            <g id="Group_10150" data-name="Group 10150" transform="translate(0 295.099)">
              <g id="Group_10149" data-name="Group 10149" transform="translate(32.779)">
                <path id="Path_194701" data-name="Path 194701" d="M331.664,1131.69l-109.637-71.005a1.456,1.456,0,0,1-.431-2.015l16.629-25.677a1.457,1.457,0,0,1,2.015-.431l109.638,71.005a1.456,1.456,0,0,1,.431,2.014l-16.63,25.677A1.457,1.457,0,0,1,331.664,1131.69Z" transform="translate(-221.361 -1032.328)" fill="#faf8f7"/>
                <path id="Path_194702" data-name="Path 194702" d="M272.2,1074.63a5.278,5.278,0,1,1-1.561-7.3A5.278,5.278,0,0,1,272.2,1074.63Z" transform="translate(-246.751 -1053.41)" fill="#3a5d71"/>
              </g>
              <path id="Path_194703" data-name="Path 194703" d="M255.3,1208.765l-118.339-76.64a2.741,2.741,0,0,1-.795-3.794l28.925-44.662a2.74,2.74,0,0,1,3.786-.826l118.339,76.64a2.741,2.741,0,0,1,.795,3.793l-28.925,44.662A2.741,2.741,0,0,1,255.3,1208.765Z" transform="translate(-135.718 -1063.24)" fill="#3a5d71"/>
            </g>
            <g id="Group_10151" data-name="Group 10151" transform="translate(72.539 107.961)">
              <path id="Path_194704" data-name="Path 194704" d="M353.193,686.2l-1.141,0c-10.2-1.063-16.558-10.725-15.261-20.3L350.833,562.2c2.8-15.343,11.316-15.819,21.52-14.756l.373.039c11.54,2.391,13.391,16.035,13.438,29.253a29.39,29.39,0,0,1-.242,3.781l-10.981,87.2C373.644,677.294,363.4,687.265,353.193,686.2Z" transform="translate(-332.267 -545.676)" fill="#e0a582"/>
              <path id="Path_194705" data-name="Path 194705" d="M341.476,684.992l-.375-.048c-10.248-1.313-17.244-10.334-15.626-20.149,0,0,18.856-90.357,17.521-106.311-1.233-14.736,11.917-16.018,22.164-14.705l.375.048c12.1,2.837,15.007,21.807,13.048,32.726L362.96,669.6C361.343,679.412,351.724,686.3,341.476,684.992Z" transform="translate(-325.242 -543.384)" fill="#ecba99"/>
              <path id="Path_194706" data-name="Path 194706" d="M379.94,545.017a8.61,8.61,0,0,0-4.26.79,9.514,9.514,0,0,0-5.633,7.9c-.809,7.437-1.81,18.974-.933,20.233s4.622,2.5,9.208.818,5.544-2.466,6.661-6.107.642-17.416.3-18.758C384.961,548.667,384.365,545.38,379.94,545.017Z" transform="translate(-352.112 -544.376)" fill="#e9ded1"/>
            </g>
            <g id="Group_10155" data-name="Group 10155" transform="translate(232.294 126.121)">
              <g id="Group_10152" data-name="Group 10152" transform="translate(0.379)">
                <path id="Path_194707" data-name="Path 194707" d="M745.108,624.484l-.132-.32c-3.615-8.745.3-18.741,8.754-22.326l23.428-9.721a16.7,16.7,0,0,1,21.847,9.343l.132.32c3.616,8.746-.3,18.741-8.753,22.327l-23.429,9.721A16.7,16.7,0,0,1,745.108,624.484Z" transform="translate(-743.63 -590.834)" fill="#ecba99"/>
                <path id="Path_194708" data-name="Path 194708" d="M771.367,637.539l-.088-.221c-2.4-6.024-6.316-10.091-13.409-7.155l-6.128,2.536c-7.093,2.936-7.99,8.993-5.591,15.017l.088.221c2.4,6.024,7.186,9.735,14.279,6.8l6.127-2.536C773.737,649.263,773.765,643.563,771.367,637.539Z" transform="translate(-744.448 -614.508)" fill="#e9ded1"/>
              </g>
              <g id="Group_10153" data-name="Group 10153" transform="translate(0 40.762)">
                <path id="Path_194709" data-name="Path 194709" d="M744.142,731.155l-.134-.322a17.091,17.091,0,0,1,8.891-22.44l23.8-9.769a17.021,17.021,0,0,1,22.191,9.39l.134.322a17.09,17.09,0,0,1-8.891,22.44l-23.8,9.77A17.02,17.02,0,0,1,744.142,731.155Z" transform="translate(-742.641 -697.334)" fill="#ecba99"/>
                <path id="Path_194710" data-name="Path 194710" d="M769.887,744.979l-.086-.215c-2.363-5.873-6.224-9.838-13.213-6.976l-6.037,2.473c-6.989,2.862-7.873,8.767-5.51,14.64l.086.215c2.364,5.874,7.08,9.491,14.069,6.629l6.038-2.472C772.223,756.41,772.251,750.852,769.887,744.979Z" transform="translate(-743.395 -721.717)" fill="#e9ded1"/>
              </g>
              <g id="Group_10154" data-name="Group 10154" transform="translate(2.313 81.396)">
                <path id="Path_194711" data-name="Path 194711" d="M749.99,836.139l-.125-.3c-3.422-8.09.846-17.568,9.532-21.17l24.079-9.782c8.687-3.6,18.5.035,21.925,8.125l.125.3c3.422,8.09-.846,17.568-9.533,21.171l-24.078,9.782C763.228,847.867,753.412,844.229,749.99,836.139Z" transform="translate(-748.684 -803.5)" fill="#ecba99"/>
                <path id="Path_194712" data-name="Path 194712" d="M774.138,852.669l-.078-.193c-2.149-5.275-5.659-8.836-12.013-6.265l-5.489,2.22C750.2,851,749.4,856.3,751.548,861.579l.079.193c2.149,5.275,6.437,8.524,12.792,5.954l5.489-2.221C776.261,862.935,776.287,857.944,774.138,852.669Z" transform="translate(-749.791 -829.336)" fill="#e9ded1"/>
              </g>
            </g>
          </g>
        </g>
      </g>
    </g>
  </g>
</svg>
