<svg xmlns="http://www.w3.org/2000/svg" xmlns:xlink="http://www.w3.org/1999/xlink" width="716.739" height="487.086" viewBox="0 0 716.739 487.086">
  <defs>
    <linearGradient id="linear-gradient" x1="1" y1="0.5" x2="0" y2="0.5" gradientUnits="objectBoundingBox">
      <stop offset="0" stop-color="gray" stop-opacity="0.251"/>
      <stop offset="0.54" stop-color="gray" stop-opacity="0.122"/>
      <stop offset="1" stop-color="gray" stop-opacity="0.102"/>
    </linearGradient>
  </defs>
  <g id="Group_10161" data-name="Group 10161" transform="translate(-368.245 -628.001)">
    <path id="Path_193999" data-name="Path 193999" d="M375.563,137.7c-41.948,7-83.961,3.231-124.406-1.986s-80.795-11.879-122.831-10.587c-27.026.84-57.089,6.151-75.789,22.449-17.99,15.687-20.563,37.125-20.393,56.507.129,14.588,1.5,29.693,11.374,41.414,6.856,8.143,17.337,14.047,25.263,21.573,27.613,26.191,19.782,66.765,2.3,101.128-8.225,16.115-18.277,31.943-23.794,48.464s-6.063,34.34,4.336,48.047c10.3,13.56,30.016,21.38,50.526,25.563,41.649,8.5,87.874,4.113,132.584-1.986,98.955-13.589,196.834-35.568,294.361-57.482,36.114-8.113,72.387-16.268,107.133-28.2,19.294-6.615,38.923-14.94,51.278-28.1,15.681-16.715,15.822-39.786.329-53.787-25.962-23.448-84.126-19.065-104.319-45.773-11.128-14.688-6.6-34.434,1.9-51.8,18.213-37.248,53.9-73.821,48.764-111.251-3.525-25.71-28.424-47.23-61.5-53.182-34.663-6.239-78.967,4.177-98.573,29.734C453.89,114.755,412.6,131.523,375.563,137.7Z" transform="translate(385.626 591.855)" fill="#0d5bb9" opacity="0.1"/>
    <path id="Path_194000" data-name="Path 194000" d="M966.912,152.543s-8.266-3.361-34.552,8.7-29.57,10.528-36.379,8.683-10.575-2.28-17.9-12.338c0,0-5.141-27.9-10.123-32.213s-26.144,2.462-26.144,2.462-25.375,5.816-30.21-28.095c0,0,3.431-25.557-1.24-33.4,0,0,9.4,4.066,24.993-2.5s28.018,7.05,28.018,7.05,3.925,10.158,3.525,16.215,2.074,8.337,9.5,5.411c0,0,3.643-5.188-1.516-13.765s-8.848-14.958-7.409-21.615,5.582-15.863,18.9-20.51,31.4-5.5,40.08-9.118,10.781-5.969,10.781-5.969-5.34,5.352,7.238,28.042,4.565,32.536,4.565,32.536-6.7,15.951-36.25,14.658c0,0-28.477,1.04-12.955,13.113,0,0,9.946-2.021,24.811-6.751s25.6,14.782,28.259,28.353S966.912,152.543,966.912,152.543Z" transform="translate(64.615 606.461)" fill="#0d5bb9"/>
    <path id="Path_194001" data-name="Path 194001" d="M995.907,50.831l.159-.041c1.14,4.33-11.586,21.738-22.466,35.556l-.129-.1C988.822,66.735,996.788,54.156,995.907,50.831Z" transform="translate(-2.662 594.396)" fill="#444053"/>
    <path id="Path_194002" data-name="Path 194002" d="M952.085,110.66l.065.176c-8.689,11.045-19.623,24.235-28.371,34-.834.928-1.663,1.909-2.456,2.9l-.253-.2c.8-1,1.633-1.98,2.468-2.938C932.286,134.86,943.4,121.7,952.085,110.66Z" transform="translate(18.952 569.7)" fill="#444053"/>
    <path id="Path_194003" data-name="Path 194003" d="M907.236,173l.176.3c-15.922,19.876-16.973,50.738-17.038,51l-3.355-3.878C887.079,220.142,891.209,193,907.236,173Z" transform="translate(32.997 543.986)" fill="#444053"/>
    <path id="Path_194004" data-name="Path 194004" d="M958.4,180.433s-18.8-9.759-33.406-6.257S877.408,161.8,877.408,161.8s-13.983-5.681-16.8-12.156c0,0-9.594-10.146-10.14-15.4s-9.888-18.442-15.98-18.953" transform="translate(54.665 567.791)" fill="none" stroke="#444053" stroke-miterlimit="10" stroke-width="1"/>
    <path id="Path_194005" data-name="Path 194005" d="M1034.842,232.475s-9.453-6.369-8.354-13.795" transform="translate(-24.495 525.143)" fill="none" stroke="#444053" stroke-miterlimit="10" stroke-width="1"/>
    <path id="Path_194006" data-name="Path 194006" d="M1005.636,239.2S992.123,234.3,990.76,215.05" transform="translate(-9.794 526.641)" fill="none" stroke="#444053" stroke-miterlimit="10" stroke-width="1"/>
    <path id="Path_194007" data-name="Path 194007" d="M972.327,243.966A30.235,30.235,0,0,1,963.7,214.52" transform="translate(1.73 526.859)" fill="none" stroke="#444053" stroke-miterlimit="10" stroke-width="1"/>
    <path id="Path_194008" data-name="Path 194008" d="M931.436,234.8s-8.607-18.054-.946-29.8" transform="translate(16.377 530.786)" fill="none" stroke="#444053" stroke-miterlimit="10" stroke-width="1"/>
    <path id="Path_194009" data-name="Path 194009" d="M1040.172,205.92s-9.776,3.1-7.679,8.225" transform="translate(-26.887 530.407)" fill="none" stroke="#444053" stroke-miterlimit="10" stroke-width="1"/>
    <path id="Path_194010" data-name="Path 194010" d="M1016.289,175.71s-13.078,4.154-13.389,22.66" transform="translate(-14.802 542.868)" fill="none" stroke="#444053" stroke-miterlimit="10" stroke-width="1"/>
    <path id="Path_194011" data-name="Path 194011" d="M986.851,168.44s-11.909,14.688-11.033,28.06" transform="translate(-3.612 545.867)" fill="none" stroke="#444053" stroke-miterlimit="10" stroke-width="1"/>
    <path id="Path_194012" data-name="Path 194012" d="M951.8,178.26s-11.832,11.3-10.323,17.59" transform="translate(10.59 541.816)" fill="none" stroke="#444053" stroke-miterlimit="10" stroke-width="1"/>
    <path id="Path_194013" data-name="Path 194013" d="M938.123,170.3s-11.092,1.986-12.643-1.651" transform="translate(17.133 545.78)" fill="none" stroke="#444053" stroke-miterlimit="10" stroke-width="1"/>
    <path id="Path_194014" data-name="Path 194014" d="M922.46,148.67s5.6,7.42,7.05,5.758" transform="translate(18.379 554.022)" fill="none" stroke="#444053" stroke-miterlimit="10" stroke-width="1"/>
    <path id="Path_194015" data-name="Path 194015" d="M992.931,136.188s-27.954,2.027-34.281-6.4" transform="translate(3.451 561.809)" fill="none" stroke="#444053" stroke-miterlimit="10" stroke-width="1"/>
    <path id="Path_194016" data-name="Path 194016" d="M912.45,85s13.119,28.159,22.649,31.726" transform="translate(22.508 580.285)" fill="none" stroke="#444053" stroke-miterlimit="10" stroke-width="1"/>
    <path id="Path_194017" data-name="Path 194017" d="M935.88,62.19s8.055,25.9,18.037,33.982" transform="translate(12.843 589.694)" fill="none" stroke="#444053" stroke-miterlimit="10" stroke-width="1"/>
    <path id="Path_194018" data-name="Path 194018" d="M1013.109,104.216s-21.262,9.13-34.029-.106" transform="translate(-4.976 572.402)" fill="none" stroke="#444053" stroke-miterlimit="10" stroke-width="0.75"/>
    <path id="Path_194019" data-name="Path 194019" d="M968.11,52.79s4.859,19.041,11.4,23.624" transform="translate(-0.451 593.571)" fill="none" stroke="#444053" stroke-miterlimit="10" stroke-width="0.75"/>
    <path id="Path_194020" data-name="Path 194020" d="M1020.059,68s-11.95,4.524-16.409,1.058" transform="translate(-15.111 587.297)" fill="none" stroke="#444053" stroke-miterlimit="10" stroke-width="0.75"/>
    <path id="Path_194021" data-name="Path 194021" d="M901.874,159.26s-.035,16.6-4.524,17.772" transform="translate(28.737 549.653)" fill="none" stroke="#444053" stroke-miterlimit="10" stroke-width="1"/>
    <path id="Path_194022" data-name="Path 194022" d="M842.17,190.436s17.943,1.533,26.221-7.726" transform="translate(51.497 539.981)" fill="none" stroke="#444053" stroke-miterlimit="10" stroke-width="1"/>
    <path id="Path_194023" data-name="Path 194023" d="M885.705,125.88s-4.342,16.838-16.315,21.368" transform="translate(40.27 563.422)" fill="none" stroke="#444053" stroke-miterlimit="10" stroke-width="1"/>
    <path id="Path_194024" data-name="Path 194024" d="M823.85,160.883s12.7,4.412,23.624-6.833" transform="translate(59.054 551.802)" fill="none" stroke="#444053" stroke-miterlimit="10" stroke-width="1"/>
    <path id="Path_194025" data-name="Path 194025" d="M866.821,101.25s-1.175,14.3-8.971,20.986" transform="translate(45.03 573.582)" fill="none" stroke="#444053" stroke-miterlimit="10" stroke-width="1"/>
    <path id="Path_194026" data-name="Path 194026" d="M824.67,126.236s10.54.07,13.014-3.366" transform="translate(58.716 564.664)" fill="none" stroke="#444053" stroke-miterlimit="10" stroke-width="1"/>
    <path id="Path_194030" data-name="Path 194030" d="M605.348,748.331v4.594H469.48v-3.737a44.651,44.651,0,0,0,3.073-82.469H604.425a44.7,44.7,0,0,0,.922,81.611Z" transform="translate(165.228 340.332)" fill="#d2d4de"/>
    <path id="Path_194031" data-name="Path 194031" d="M606.591,666.72a44.728,44.728,0,0,0-24.675,29.611h-82.51A44.727,44.727,0,0,0,474.73,666.72Z" transform="translate(163.062 340.332)" opacity="0.1"/>
    <path id="Path_194033" data-name="Path 194033" d="M605.348,802.314v4.594H469.48v-3.736a44.5,44.5,0,0,0,10.481-5.582H597.017A44.719,44.719,0,0,0,605.348,802.314Z" transform="translate(205.228 286.35)" opacity="0.1"/>
    <g id="Group_10105" data-name="Group 10105" transform="translate(459.839 671.294)">
      <g id="undraw_domain_names_rdql" transform="translate(0 0)">
        <rect id="Rectangle_7204" data-name="Rectangle 7204" width="481.649" height="335.919" rx="30.995" transform="translate(0 6.985)" fill="#f2f2f2"/>
        <rect id="Rectangle_7205" data-name="Rectangle 7205" width="331.514" height="27.534" rx="12.89" transform="translate(82.603 79.024)" fill="#fff"/>
        <rect id="Rectangle_7206" data-name="Rectangle 7206" width="479.649" height="335.919" rx="30.995" transform="translate(1.568 6.967)" fill="none" stroke="#3f3d56" stroke-miterlimit="10" stroke-width="1"/>
        <line id="Line_535" data-name="Line 535" x2="479.649" transform="translate(1.844 32.85)" fill="none" stroke="#3f3d56" stroke-miterlimit="10" stroke-width="1"/>
        <circle id="Ellipse_770" data-name="Ellipse 770" cx="6.608" cy="6.608" r="6.608" transform="translate(27.781 12.203)" fill="#0d5bb9"/>
        <circle id="Ellipse_771" data-name="Ellipse 771" cx="6.608" cy="6.608" r="6.608" transform="translate(46.504 12.478)" fill="#0d5bb9"/>
        <circle id="Ellipse_772" data-name="Ellipse 772" cx="6.608" cy="6.608" r="6.608" transform="translate(65.228 12.753)" fill="#0d5bb9"/>
        <circle id="Ellipse_773" data-name="Ellipse 773" cx="6.608" cy="6.608" r="6.608" transform="translate(27.433 12)" fill="none" stroke="#3f3d56" stroke-miterlimit="10" stroke-width="1"/>
        <circle id="Ellipse_774" data-name="Ellipse 774" cx="6.608" cy="6.608" r="6.608" transform="translate(46.157 12.275)" fill="none" stroke="#3f3d56" stroke-miterlimit="10" stroke-width="1"/>
        <circle id="Ellipse_775" data-name="Ellipse 775" cx="6.608" cy="6.608" r="6.608" transform="translate(64.88 12.551)" fill="none" stroke="#3f3d56" stroke-miterlimit="10" stroke-width="1"/>
        <rect id="Rectangle_7207" data-name="Rectangle 7207" width="331.514" height="27.534" rx="12.89" transform="translate(82.661 78.517)" fill="none" stroke="#3f3d56" stroke-miterlimit="10" stroke-width="1"/>
        <circle id="Ellipse_776" data-name="Ellipse 776" cx="4.406" cy="4.406" r="4.406" transform="translate(390.016 83.818)" fill="none" stroke="#3f3d56" stroke-miterlimit="10" stroke-width="1"/>
        <line id="Line_536" data-name="Line 536" x2="7.65" y2="7.923" transform="translate(397.673 91.591)" fill="none" stroke="#3f3d56" stroke-miterlimit="10" stroke-width="1"/>
        <rect id="Rectangle_7208" data-name="Rectangle 7208" width="59.474" height="9.912" rx="4.956" transform="translate(92.921 87.632)" fill="#0d5bb9"/>
        <rect id="Rectangle_7209" data-name="Rectangle 7209" width="59.474" height="9.912" rx="4.956" transform="translate(92.573 87.878)" fill="none" stroke="#3f3d56" stroke-miterlimit="10" stroke-width="1"/>
        <rect id="Rectangle_7210" data-name="Rectangle 7210" width="59.474" height="9.912" rx="4.956" transform="translate(78.444 141.556)" fill="#0d5bb9"/>
        <rect id="Rectangle_7211" data-name="Rectangle 7211" width="59.474" height="9.912" rx="4.956" transform="translate(75.444 175.945)" fill="#fff"/>
        <rect id="Rectangle_7212" data-name="Rectangle 7212" width="59.474" height="9.912" rx="4.956" transform="translate(75.444 207.334)" fill="#fff"/>
        <rect id="Rectangle_7213" data-name="Rectangle 7213" width="59.474" height="9.912" rx="4.956" transform="translate(75.444 238.723)" fill="#fff"/>
        <rect id="Rectangle_7214" data-name="Rectangle 7214" width="59.474" height="9.912" rx="4.956" transform="translate(75.444 270.113)" fill="#fff"/>
        <rect id="Rectangle_7215" data-name="Rectangle 7215" width="59.474" height="9.912" rx="4.956" transform="translate(78.198 141.251)" fill="none" stroke="#3f3d56" stroke-miterlimit="10" stroke-width="1"/>
        <rect id="Rectangle_7216" data-name="Rectangle 7216" width="59.474" height="9.912" rx="4.956" transform="translate(78.198 172.641)" fill="none" stroke="#3f3d56" stroke-miterlimit="10" stroke-width="1"/>
        <rect id="Rectangle_7217" data-name="Rectangle 7217" width="59.474" height="9.912" rx="4.956" transform="translate(78.198 204.03)" fill="none" stroke="#3f3d56" stroke-miterlimit="10" stroke-width="1"/>
        <rect id="Rectangle_7218" data-name="Rectangle 7218" width="59.474" height="9.912" rx="4.956" transform="translate(78.198 235.419)" fill="none" stroke="#3f3d56" stroke-miterlimit="10" stroke-width="1"/>
        <rect id="Rectangle_7219" data-name="Rectangle 7219" width="59.474" height="9.912" rx="4.956" transform="translate(78.198 266.808)" fill="none" stroke="#3f3d56" stroke-miterlimit="10" stroke-width="1"/>
        <rect id="Rectangle_7220" data-name="Rectangle 7220" width="30.839" height="9.912" rx="4.012" transform="translate(400.046 141.556)" fill="#57b894"/>
        <rect id="Rectangle_7221" data-name="Rectangle 7221" width="30.839" height="9.912" rx="4.012" transform="translate(397.046 175.945)" fill="#fff"/>
        <rect id="Rectangle_7222" data-name="Rectangle 7222" width="30.839" height="9.912" rx="4.012" transform="translate(397.046 207.334)" fill="#fff"/>
        <rect id="Rectangle_7223" data-name="Rectangle 7223" width="30.839" height="9.912" rx="4.012" transform="translate(397.046 238.723)" fill="#fff"/>
        <rect id="Rectangle_7224" data-name="Rectangle 7224" width="30.839" height="9.912" rx="4.012" transform="translate(397.046 270.113)" fill="#fff"/>
        <rect id="Rectangle_7225" data-name="Rectangle 7225" width="30.839" height="9.912" rx="4.012" transform="translate(399.799 141.251)" fill="none" stroke="#3f3d56" stroke-miterlimit="10" stroke-width="1"/>
        <rect id="Rectangle_7226" data-name="Rectangle 7226" width="30.839" height="9.912" rx="4.012" transform="translate(399.799 172.641)" fill="none" stroke="#3f3d56" stroke-miterlimit="10" stroke-width="1"/>
        <rect id="Rectangle_7227" data-name="Rectangle 7227" width="30.839" height="9.912" rx="4.012" transform="translate(399.799 204.03)" fill="none" stroke="#3f3d56" stroke-miterlimit="10" stroke-width="1"/>
        <rect id="Rectangle_7228" data-name="Rectangle 7228" width="30.839" height="9.912" rx="4.012" transform="translate(399.799 235.419)" fill="none" stroke="#3f3d56" stroke-miterlimit="10" stroke-width="1"/>
        <rect id="Rectangle_7229" data-name="Rectangle 7229" width="30.839" height="9.912" rx="4.012" transform="translate(399.799 266.808)" fill="none" stroke="#3f3d56" stroke-miterlimit="10" stroke-width="1"/>
        <path id="Path_194426" data-name="Path 194426" d="M906.362,598.774c0,37.57,23.569,67.971,52.7,67.971" transform="translate(-478.735 -239.149)" fill="#46455b"/>
        <path id="Path_194427" data-name="Path 194427" d="M989.061,666.31c0-37.992,26.3-68.735,58.806-68.735" transform="translate(-508.738 -238.714)" fill="#0d5bb9"/>
        <path id="Path_194428" data-name="Path 194428" d="M936.326,604.118c0,35.688,15.03,64.565,33.6,64.565" transform="translate(-489.606 -241.088)" fill="#0d5bb9"/>
        <path id="Path_194429" data-name="Path 194429" d="M989.061,655.44c0-48.545,30.4-87.828,67.971-87.828" transform="translate(-508.738 -227.844)" fill="#46455b"/>
        <path id="Path_194430" data-name="Path 194430" d="M971.664,703.9s7.473-.23,9.725-1.834,11.5-3.519,12.055-.947,11.231,12.793,2.794,12.861-19.6-1.314-21.852-2.684S971.664,703.9,971.664,703.9Z" transform="translate(-502.426 -275.822)" fill="#a8a8a8"/>
        <path id="Path_194431" data-name="Path 194431" d="M996.383,715.375c-8.437.068-19.6-1.314-21.852-2.684-1.712-1.043-2.394-4.785-2.622-6.511l-.25.01s.473,6.027,2.721,7.4,13.415,2.752,21.852,2.684c2.436-.02,3.277-.886,3.231-2.17C999.13,714.876,998.2,715.361,996.383,715.375Z" transform="translate(-502.424 -278.116)" opacity="0.2"/>
        <line id="Line_538" data-name="Line 538" x2="112.149" transform="translate(427.249 438.299)" fill="none" stroke="#3f3d56" stroke-miterlimit="10" stroke-width="1"/>
      </g>
      <path id="Path_194505" data-name="Path 194505" d="M354.707,349.38a36.927,36.927,0,1,1-36.927,36.927A36.927,36.927,0,0,1,354.707,349.38Zm-6.623,37.814V404.68h13.054V387.194a10.814,10.814,0,1,0-13.054,0Z" transform="translate(-73.889 -208.684)" fill="#0d5bb9"/>
      <path id="Path_194506" data-name="Path 194506" d="M354.707,349.38a36.927,36.927,0,1,1-36.927,36.927A36.927,36.927,0,0,1,354.707,349.38Zm-6.623,37.814V404.68h13.054V387.194a10.814,10.814,0,1,0-13.054,0Z" transform="translate(-73.889 -208.684)" opacity="0.05"/>
      <path id="Path_194507" data-name="Path 194507" d="M343.257,327.38a47.478,47.478,0,1,1-47.477,47.478,47.478,47.478,0,0,1,47.477-47.478ZM334.745,376v22.478H351.53V376a13.908,13.908,0,1,0-16.785,0Z" transform="translate(-62.44 -197.236)" fill="#0d5bb9"/>
      <rect id="Rectangle_7241" data-name="Rectangle 7241" width="178.638" height="26.005" transform="translate(177.736 235.254)" fill="#fff"/>
      <rect id="Rectangle_7242" data-name="Rectangle 7242" width="35.06" height="17.276" transform="translate(183.38 239.842)" fill="#0d5bb9"/>
      <path id="Path_194508" data-name="Path 194508" d="M552.031,426.4h2.909l-2.588-2.583a.256.256,0,0,1,0-.357.251.251,0,0,1,.357,0l2.588,2.588v-2.914a.251.251,0,0,1,.251-.251.256.256,0,0,1,.251.251v2.914l2.583-2.6a.251.251,0,0,1,.357,0,.256.256,0,0,1,0,.357l-2.588,2.583h2.915a.256.256,0,0,1,.251.251.251.251,0,0,1-.251.251h-2.915l2.588,2.588a.256.256,0,0,1,0,.357.261.261,0,0,1-.357,0l-2.583-2.588v2.909a.251.251,0,0,1-.5,0v-2.909l-2.588,2.588a.261.261,0,0,1-.357,0,.256.256,0,0,1,0-.357l2.588-2.588h-2.909a.244.244,0,1,1,0-.487Z" transform="translate(-224.869 -178.397)" fill="#0d5bb9"/>
      <path id="Path_194509" data-name="Path 194509" d="M573.031,426.4h2.909l-2.588-2.583a.256.256,0,0,1,0-.357.252.252,0,0,1,.357,0l2.588,2.588v-2.914a.251.251,0,0,1,.251-.251.256.256,0,0,1,.251.251v2.914l2.583-2.6a.251.251,0,0,1,.357,0,.256.256,0,0,1,0,.357l-2.588,2.583h2.914a.256.256,0,0,1,.251.251.251.251,0,0,1-.251.251h-2.914l2.588,2.588a.256.256,0,0,1,0,.357.261.261,0,0,1-.357,0l-2.583-2.588v2.909a.251.251,0,0,1-.5,0v-2.909l-2.588,2.588a.261.261,0,0,1-.357,0,.256.256,0,0,1,0-.357l2.588-2.588h-2.909a.244.244,0,1,1,0-.487Z" transform="translate(-256.419 -178.397)" fill="#0d5bb9"/>
      <path id="Path_194510" data-name="Path 194510" d="M594.031,426.4h2.909l-2.588-2.583a.256.256,0,0,1,0-.357.251.251,0,0,1,.357,0l2.588,2.588v-2.914a.251.251,0,0,1,.251-.251.256.256,0,0,1,.251.251v2.914l2.583-2.6a.251.251,0,0,1,.357,0,.256.256,0,0,1,0,.357l-2.588,2.583h2.914a.256.256,0,0,1,.251.251.251.251,0,0,1-.251.251h-2.914l2.588,2.588a.256.256,0,0,1,0,.357.261.261,0,0,1-.357,0l-2.583-2.588v2.909a.251.251,0,1,1-.5,0v-2.909l-2.588,2.588a.261.261,0,0,1-.357,0,.256.256,0,0,1,0-.357l2.588-2.588h-2.909a.244.244,0,1,1,0-.487Z" transform="translate(-287.972 -178.397)" fill="#0d5bb9"/>
      <path id="Path_194511" data-name="Path 194511" d="M615.031,426.4h2.91l-2.588-2.583a.256.256,0,0,1,0-.357.252.252,0,0,1,.357,0l2.588,2.588v-2.914a.251.251,0,0,1,.251-.251.256.256,0,0,1,.251.251v2.914l2.583-2.6a.251.251,0,0,1,.357,0,.256.256,0,0,1,0,.357l-2.588,2.583h2.914a.256.256,0,0,1,.251.251.251.251,0,0,1-.251.251h-2.914l2.588,2.588a.256.256,0,0,1,0,.357.261.261,0,0,1-.357,0l-2.583-2.588v2.909a.251.251,0,0,1-.5,0v-2.909l-2.588,2.588a.261.261,0,0,1-.357,0,.256.256,0,0,1,0-.357l2.588-2.588h-2.91a.244.244,0,1,1,0-.487Z" transform="translate(-319.525 -178.397)" fill="#0d5bb9"/>
      <path id="Path_194512" data-name="Path 194512" d="M636.031,426.4h2.909l-2.588-2.583a.256.256,0,0,1,0-.357.251.251,0,0,1,.357,0l2.588,2.588v-2.914a.251.251,0,0,1,.251-.251.256.256,0,0,1,.251.251v2.914l2.583-2.6a.251.251,0,0,1,.357,0,.256.256,0,0,1,0,.357l-2.588,2.583h2.914a.256.256,0,0,1,.251.251.251.251,0,0,1-.251.251h-2.914l2.588,2.588a.256.256,0,0,1,0,.357.261.261,0,0,1-.357,0l-2.583-2.588v2.909a.251.251,0,1,1-.5,0v-2.909l-2.588,2.588a.261.261,0,0,1-.357,0,.256.256,0,0,1,0-.357l2.588-2.588h-2.909a.244.244,0,1,1,0-.487Z" transform="translate(-351.078 -178.397)" fill="#0d5bb9"/>
      <path id="Path_194513" data-name="Path 194513" d="M657.031,426.4h2.909l-2.588-2.583a.257.257,0,0,1,0-.357.252.252,0,0,1,.357,0l2.588,2.588v-2.914a.251.251,0,0,1,.251-.251.256.256,0,0,1,.252.251v2.914l2.583-2.6a.251.251,0,0,1,.357,0,.256.256,0,0,1,0,.357l-2.588,2.583h2.914a.256.256,0,0,1,.251.251.251.251,0,0,1-.251.251h-2.914l2.588,2.588a.256.256,0,0,1,0,.357.261.261,0,0,1-.357,0l-2.583-2.588v2.909a.251.251,0,1,1-.5,0v-2.909l-2.588,2.588a.261.261,0,0,1-.357,0,.257.257,0,0,1,0-.357l2.588-2.588h-2.909a.244.244,0,1,1,0-.487Z" transform="translate(-382.629 -178.397)" fill="#0d5bb9"/>
      <path id="Path_194514" data-name="Path 194514" d="M678.031,426.4h2.909l-2.588-2.583a.256.256,0,0,1,0-.357.251.251,0,0,1,.357,0l2.588,2.588v-2.914a.251.251,0,0,1,.251-.251.256.256,0,0,1,.251.251v2.914l2.583-2.6a.251.251,0,0,1,.357,0,.256.256,0,0,1,0,.357l-2.588,2.583h2.914a.256.256,0,0,1,.251.251.251.251,0,0,1-.251.251h-2.914l2.588,2.588a.256.256,0,0,1,0,.357.261.261,0,0,1-.357,0l-2.583-2.588v2.909a.251.251,0,1,1-.5,0v-2.909l-2.588,2.588a.261.261,0,0,1-.357,0,.256.256,0,0,1,0-.357l2.588-2.588h-2.909a.244.244,0,1,1,0-.487Z" transform="translate(-414.181 -178.397)" fill="#0d5bb9"/>
      <path id="Path_194515" data-name="Path 194515" d="M699.031,426.4h2.909l-2.588-2.583a.256.256,0,0,1,0-.357.251.251,0,0,1,.357,0l2.588,2.588v-2.914a.251.251,0,0,1,.251-.251.256.256,0,0,1,.251.251v2.914l2.583-2.6a.251.251,0,0,1,.357,0,.256.256,0,0,1,0,.357l-2.588,2.583h2.915a.256.256,0,0,1,.251.251.251.251,0,0,1-.251.251h-2.915l2.588,2.588a.256.256,0,0,1,0,.357.261.261,0,0,1-.357,0l-2.583-2.588v2.909a.251.251,0,1,1-.5,0v-2.909l-2.588,2.588a.261.261,0,0,1-.357,0,.256.256,0,0,1,0-.357l2.588-2.588h-2.909a.244.244,0,1,1,0-.487Z" transform="translate(-445.734 -178.397)" fill="#0d5bb9"/>
      <path id="Path_194516" data-name="Path 194516" d="M720.031,426.4h2.909l-2.588-2.583a.257.257,0,0,1,0-.357.252.252,0,0,1,.357,0l2.588,2.588v-2.914a.251.251,0,0,1,.251-.251.256.256,0,0,1,.251.251v2.914l2.583-2.6a.251.251,0,0,1,.357,0,.256.256,0,0,1,0,.357l-2.588,2.583h2.915a.256.256,0,0,1,.251.251.251.251,0,0,1-.251.251h-2.915l2.588,2.588a.256.256,0,0,1,0,.357.261.261,0,0,1-.357,0l-2.583-2.588v2.909a.251.251,0,1,1-.5,0v-2.909l-2.588,2.588a.262.262,0,0,1-.357,0,.257.257,0,0,1,0-.357l2.588-2.588h-2.909a.244.244,0,1,1,0-.487Z" transform="translate(-477.285 -178.397)" fill="#0d5bb9"/>
      <path id="Path_194517" data-name="Path 194517" d="M741.031,426.4h2.91l-2.588-2.583a.256.256,0,0,1,0-.357.252.252,0,0,1,.357,0l2.588,2.588v-2.914a.251.251,0,0,1,.251-.251.256.256,0,0,1,.251.251v2.914l2.583-2.6a.251.251,0,0,1,.357,0,.256.256,0,0,1,0,.357l-2.588,2.583h2.914a.256.256,0,0,1,.251.251.251.251,0,0,1-.251.251h-2.914l2.588,2.588a.256.256,0,0,1,0,.357.261.261,0,0,1-.357,0l-2.583-2.588v2.909a.251.251,0,0,1-.5,0v-2.909l-2.588,2.588a.261.261,0,0,1-.357,0,.256.256,0,0,1,0-.357l2.588-2.588h-2.91a.244.244,0,1,1,0-.487Z" transform="translate(-508.838 -178.397)" fill="#0d5bb9"/>
      <path id="Path_194518" data-name="Path 194518" d="M762.031,426.4h2.909l-2.588-2.583a.256.256,0,0,1,0-.357.251.251,0,0,1,.357,0l2.588,2.588v-2.914a.251.251,0,0,1,.251-.251.256.256,0,0,1,.251.251v2.914l2.583-2.6a.251.251,0,0,1,.357,0,.256.256,0,0,1,0,.357l-2.588,2.583h2.915a.256.256,0,0,1,.251.251.251.251,0,0,1-.251.251h-2.915l2.588,2.588a.256.256,0,0,1,0,.357.261.261,0,0,1-.357,0l-2.583-2.588v2.909a.251.251,0,1,1-.5,0v-2.909l-2.588,2.588a.261.261,0,0,1-.357,0,.256.256,0,0,1,0-.357l2.588-2.588h-2.909a.244.244,0,1,1,0-.487Z" transform="translate(-540.391 -178.397)" fill="#0d5bb9"/>
    </g>
    <rect id="Rectangle_7154" data-name="Rectangle 7154" width="225.657" height="13.613" rx="6.806" transform="translate(589.81 1085.374)" fill="#d2d4de"/>
    <circle id="Ellipse_751" data-name="Ellipse 751" cx="13.254" cy="13.254" r="13.254" transform="translate(689.029 977.258)" fill="#fff"/>
    <g id="Group_10104" data-name="Group 10104" transform="translate(584.668 824.202)">
      <path id="Path_194519" data-name="Path 194519" d="M786.384,530.437a13.438,13.438,0,0,1,.337-2.69c.675-2.533,2.2-5.6,4.7-6.362a39.457,39.457,0,0,0,7.449-3.148c.45-8.034-1.394-16.255.615-24.041.75-2.848,1.986-5.576,2.316-8.491.412-3.627-.577-7.494.869-10.837A10.7,10.7,0,0,1,809,469.4a33.751,33.751,0,0,1,8.446-1.5c3.6-.292,15.243-1.671,19.3,1.544h0a4.234,4.234,0,0,1,.749.749h0a2.984,2.984,0,0,1,.24.39l.037.06a3.062,3.062,0,0,1,.2.487h0a3.786,3.786,0,0,1,.127.562v1.349c-.052.674-.15,1.349-.15,2.016a4.338,4.338,0,0,0,.09.989,6.923,6.923,0,0,0,1.244,2.428h0l.135.195c.082.12.165.232.24.352s.135.21.195.315.12.172.172.27a3.649,3.649,0,0,1,.195.382c0,.075.083.142.113.217a3.7,3.7,0,0,1,.225.629,4.182,4.182,0,0,1,.045,1.993,7.427,7.427,0,0,1-1.027,2.361c-.187.307-.39.607-.6.907l-.525.712a16.169,16.169,0,0,1,.157,2.1,15.5,15.5,0,0,1-5.918,12.184,45.9,45.9,0,0,0,.1,9.512c.067.659.15,1.326.24,1.986s.157,1.094.247,1.641a7.609,7.609,0,0,0,3.275-.247,15.4,15.4,0,0,1,1.5-.577c2.181-.547,4.406,1.626,6.565.967a.881.881,0,0,0,.1.3,2.938,2.938,0,0,1,1.5-.442,5.466,5.466,0,0,0,3.252-1.866l2.855-2.69a3.148,3.148,0,0,0,.495-.555,3.887,3.887,0,0,0,.345-.922,10.623,10.623,0,0,1,2.765-3.964,1.875,1.875,0,0,1,.817-.592,1.262,1.262,0,0,1,.375,0,3.285,3.285,0,0,1,.247-.3,7.057,7.057,0,0,1,.622-.629c1.364-1.259,1.5-2.338,2.683-3.747a36,36,0,0,0,2.8-4.234c.1-.787.232-1.6.4-2.413a31.038,31.038,0,0,1,1.641-5.471l1.5-3.32.172.172c1.087-1.619,2.248-2.5,3.29-2.293,1.746.36,2.608,3.747,2.331,8.176l-.6,4.5a1.386,1.386,0,0,1-.083.337,8.292,8.292,0,0,1,.165,1.619c0,.63-.584,1.094-.892,1.656a4.683,4.683,0,0,0-.749,2.556c.037.322.135.63.15.944a3.635,3.635,0,0,1-.7,1.948l-3.747,6.3-.75,1.319-.045.06a3.2,3.2,0,0,1-1,1.154,13.728,13.728,0,0,1-1.237,4.549c-.128.285-.27.554-.42.824a26.509,26.509,0,0,1-3.537,4.594l-1.784,2c-1.761,1.964-3.522,3.934-5.433,5.748a7.279,7.279,0,0,1-2.428,1.7,2.75,2.75,0,0,1-2.728-.4v2.788a1.566,1.566,0,0,0-1.184,2.466,61.808,61.808,0,0,0,5.546,11.736,24.978,24.978,0,0,0-4.646,3.545,20.879,20.879,0,0,0-2.421,3.275c-.067.555-.12,1.1-.15,1.649-.555,8.933,2.9,17.8,6,26.312.892,2.413,1.866,4.939,1.791,7.449a14.627,14.627,0,0,1,1.679,1.207c-.615,1.6-.375,3.035-.307,4.751a8.42,8.42,0,0,0,.622,3,21.089,21.089,0,0,0,1.079,1.926c1.941,3.425,2.368,7.494,2.758,11.406.232,2.361-.682,5.246.39,7.359,1.851,3.627,3.492,7.494,3.747,11.526a11.556,11.556,0,0,0,.345,2.69c.232.749.644,1.386.854,2.121a9.074,9.074,0,0,1,.15,3,28.687,28.687,0,0,0,1.574,10.574c.937,2.675,1.971,5.538,1.237,8.289a11.682,11.682,0,0,1,3.17,6.962,10.972,10.972,0,0,0,.24,1.986,9.648,9.648,0,0,0,.9,1.911,16.728,16.728,0,0,1,2.038,8.993,25.015,25.015,0,0,1,4.039,10.552c.667,3.74.959,7.547,1.813,11.241,1.139,4.886,3.2,9.825,3.6,14.831,2.428,1.551,3.477,4.557,3.942,7.4s.54,5.823,1.731,8.446c.615,1.364,1.5,2.586,2.084,3.979a18.26,18.26,0,0,1,.9,3.425,13.363,13.363,0,0,1,.232,5.621,8.471,8.471,0,0,0,2.2,1.671c-.12-.465-.217-.929-.3-1.4,1.934,1.754,5.441,1.139,6.984,3.245a3.162,3.162,0,0,1-.749,4.339,6,6,0,0,1-1.551.667c-3.747,1.2-7.6,2.406-11.451,1.769a3.419,3.419,0,0,1-1.3-.412,4.172,4.172,0,0,1-1.207-1.394c-.577-.914-1.154-1.829-1.724-2.743a35.569,35.569,0,0,1-4.2.982c-.142,1.2-.247,2.4-.3,3.6-.749.15-1.754.195-2.106-.5a1.82,1.82,0,0,1-.127-.832c0-.532-.075-1.237-.12-1.956h-.15A14.238,14.238,0,0,1,868,749.078c.8-6.64-1.844-13.13-4.137-19.41-2.421-6.61-4.5-13.34-6.587-20.069-1.5-4.736-3.155-9.323-4.624-14.066q-2.773-8.993-5.568-17.986c-.809-2.638-1.626-5.246-2.555-7.869a122.6,122.6,0,0,0-6.947-15.461c-.749-1.416-1.5-2.818-2.113-4.286-.749-1.791-1.282-3.665-1.881-5.516a85.41,85.41,0,0,0-4.706-11.077c-.052-.1-.09-.187-.142-.277-.607,2.48-1.214,5-1.619,7.494a28.471,28.471,0,0,0-.127,9.263c.36,2.091,1.042,4.159.959,6.28-.112,2.93-1.679,5.591-2.451,8.416a32.022,32.022,0,0,0-.839,6.445c-.21,3.372-2.038,7.157-.749,10.282,4.009,9.9,2.068,21.081,4.354,31.475,1.177,5.336,4.781,10.349,4.5,15.805q-.3,5.808-1.019,11.586a11.02,11.02,0,0,1-.937,3.515,12.879,12.879,0,0,1-1.027,1.679c.33.127.607.465.847,1.177a4.624,4.624,0,0,1-1.664,5.246,7.28,7.28,0,0,1-2.166.75,11.4,11.4,0,0,1-3.133.435,7.32,7.32,0,0,1-.982-.12,35.684,35.684,0,0,1-3.545,1.274,7.664,7.664,0,0,1-.1.922,1.146,1.146,0,0,1-.39.847,1.171,1.171,0,0,1-.6.1h-4.069v-1.019a3.349,3.349,0,0,1-2.585-.839,4,4,0,0,1-.75-1.559q-1.663-5.643-3.3-11.294a36.108,36.108,0,0,1-1.611-12.89c1.446-13.812-1.731-27.668-.7-41.518a99.458,99.458,0,0,0-1.274-24.911c-.337-1.858-.75-3.747-.9-5.6-.33-3.492.075-7.022-.172-10.492-.082-1.214-.247-2.421-.4-3.627a174.176,174.176,0,0,1-1.611-22.595,71.169,71.169,0,0,1,.465-7.494,4.28,4.28,0,0,1-2.046-1.2c-.667-.869-.494-2.091-.487-3.2,0-2.653-1.117-5.156-2.016-7.659a91.031,91.031,0,0,1-2.833-10.537A36.789,36.789,0,0,1,792.5,580.7q0-.45.045-.9a2.319,2.319,0,0,1-.69-.749,4.358,4.358,0,0,1-.36-1.387c-.27-1.911-.547-3.829-.817-5.748q-.3-2.061-.592-4.114l-2.383-16.63c-.2-1.446-.412-2.885-.615-4.324l-.622-4.3c-.067-.51-.143-1.019-.195-1.5C784.443,537.991,786.189,533.914,786.384,530.437ZM806.266,592.7a13.7,13.7,0,0,0,1.5-6.512h.082a3.343,3.343,0,0,1,.1-2.113c.232-.547.637-1.012.884-1.559a5.715,5.715,0,0,0,.4-2.1,57.2,57.2,0,0,0-1.072-13.594c-.1-.525-.2-1.057-.3-1.581a3.92,3.92,0,0,1-.854-.667,6.085,6.085,0,0,1-.967-1.5c-.847-1.7-1.619-3.432-2.331-5.194-.232-.569-.57-1.229-1.147-1.371.12,4.384-.33,8.858,1.454,12.815a8.106,8.106,0,0,1,.75,2.023c.165,1.117-.3,2.248-.135,3.357.082.577.33,1.109.427,1.679a1.641,1.641,0,0,1-.435,1.589,1.314,1.314,0,0,1-.322.165c.045.3.082.607.112.9.06.615.09,1.192.127,1.551a48.358,48.358,0,0,1,.2,5.516c0,1.986-.075,3.972-.045,6a4.07,4.07,0,0,0,.285,1.7,2.959,2.959,0,0,0,.57.749A19.474,19.474,0,0,1,806.266,592.7Z" transform="translate(-785.445 -467.354)" fill="url(#linear-gradient)"/>
      <ellipse id="Ellipse_784" data-name="Ellipse 784" cx="4.227" cy="11.968" rx="4.227" ry="11.968" transform="matrix(-0.98, -0.201, 0.201, -0.98, 84.114, 39.238)" fill="#fbbebe"/>
      <path id="Path_194520" data-name="Path 194520" d="M894.7,838.9a4.538,4.538,0,0,1-1.664,5.193,7.4,7.4,0,0,1-2.151.749,11.342,11.342,0,0,1-3.125.427c-1.3-.06-2.541-.57-3.837-.75a.6.6,0,0,0-.442.06.637.637,0,0,0-.165.525,19.824,19.824,0,0,1-.165,2.2,1.131,1.131,0,0,1-.39.847,1.17,1.17,0,0,1-.6.105H878.1a39.612,39.612,0,0,1,1.161-10.6,2.366,2.366,0,0,1,.3-.749,2.483,2.483,0,0,1,1.3-.75,7.246,7.246,0,0,1,3.14-.547,9.2,9.2,0,0,1,3.522,1.724,5.366,5.366,0,0,0,3.994.967C892.873,837.948,894,836.816,894.7,838.9Z" transform="translate(-849.643 -559.633)" fill="#3f3d56"/>
      <path id="Path_194521" data-name="Path 194521" d="M794.943,835.095a11.24,11.24,0,0,0,4.1,2.788l.689.33a.478.478,0,0,1,.232.187.405.405,0,0,1-.075.337,4.849,4.849,0,0,1-5.5,2,2.916,2.916,0,0,1-1.207-.63,3.956,3.956,0,0,1-.929-2.413,4.939,4.939,0,0,1,.113-2.766C793.406,832.584,793.789,833.649,794.943,835.095Z" transform="translate(-690.248 -559.119)" fill="#fbbebe"/>
      <path id="Path_194522" data-name="Path 194522" d="M786.163,844.472a1.824,1.824,0,0,0,.127.832c.352.689,1.334.652,2.1.5a50.439,50.439,0,0,1,.922-7.569c1.454-.067,2.5,1.312,3.282,2.548l2.008,3.185a4.154,4.154,0,0,0,1.2,1.394,3.552,3.552,0,0,0,1.3.412c3.837.637,7.711-.57,11.414-1.769a6.037,6.037,0,0,0,1.551-.659,3.17,3.17,0,0,0,.75-4.332c-1.551-2.1-5.036-1.5-6.97-3.238a17.445,17.445,0,0,0,.989,3.575c-2.586-.39-4.324-2.758-6.407-4.339a3.944,3.944,0,0,0-1.829-.869,4.026,4.026,0,0,0-1.5.157,17.584,17.584,0,0,0-6.595,3.245,7.11,7.11,0,0,0-2.361,2.458C785.774,841.152,786.163,843.251,786.163,844.472Z" transform="translate(-697.041 -559.263)" fill="#3f3d56"/>
      <ellipse id="Ellipse_785" data-name="Ellipse 785" cx="15.483" cy="15.483" rx="15.483" ry="15.483" transform="translate(22.088 6.982)" fill="#fbbebe"/>
      <path id="Path_194523" data-name="Path 194523" d="M907.667,617.678a36.72,36.72,0,0,0,1.252,8.761,90.444,90.444,0,0,0,2.833,10.492c.892,2.5,2.009,5,2,7.644,0,1.1-.18,2.323.495,3.192a4.665,4.665,0,0,0,2.188,1.252,2.735,2.735,0,0,1,1.844,1.641,11.582,11.582,0,0,0,1.559-3.432q2.016-6.175,3.747-12.418a1.611,1.611,0,0,0-.1-1.5,1.862,1.862,0,0,0-.652-.367,6.743,6.743,0,0,1-2.076-1.334,3.038,3.038,0,0,1-.69-.892,4.039,4.039,0,0,1-.292-1.694c0-1.986,0-3.964.052-5.95a49.74,49.74,0,0,0-.21-5.493c0-.36-.068-.937-.127-1.551-.112-1.177-.337-2.54-.974-3-.952-.637-3.8.217-4.879.367-1.858.255-3.747.555-5.561.907A14.849,14.849,0,0,0,907.667,617.678Z" transform="translate(-900.599 -503.8)" fill="#3f3d56"/>
      <path id="Path_194524" data-name="Path 194524" d="M823.087,515.274c.6,1.2,2.038,1.776,3.148,2.533l3.8,2.608a2.534,2.534,0,0,0,1.881.644,2.473,2.473,0,0,0,1.4-1.311.266.266,0,0,1,0-.06l.787-1.319,3.747-6.28a3.574,3.574,0,0,0,.7-1.933c0-.322-.112-.622-.142-.944a4.534,4.534,0,0,1,.749-2.548c.3-.562.9-1.027.884-1.656a6,6,0,0,0-.42-2.421,4.9,4.9,0,0,0-1.641-1.754c-.352-.255-.712-.495-1.087-.749a2.139,2.139,0,0,0-.652-.3c-.622-.127-1.237.39-1.866.412-2.705,1.814-3.747,5.246-5.875,7.719-1.2,1.409-1.319,2.488-2.675,3.747-.217.195-.427.4-.629.622a4.353,4.353,0,0,0-.675.974C824.271,513.9,822.779,514.659,823.087,515.274Z" transform="translate(-753.5 -475.475)" fill="#3f3d56"/>
      <path id="Path_194525" data-name="Path 194525" d="M899.747,514.19a13.951,13.951,0,0,0-1.664,7.547,4.716,4.716,0,0,0,.652,1.986c1.079,1.656,3.343,1.956,5.314,2.053a3.133,3.133,0,0,1,2.308.749,2.1,2.1,0,0,1-.142,2.563,5.785,5.785,0,0,1-2.293,1.5c-3.118,1.372-6.482,2.5-9.87,2.188-1.574-.15-3.1-.607-4.669-.839a49.035,49.035,0,0,0-5.141-.285c-2.038-.075-4.069-.277-6.1-.48l-5.381-.532a1.2,1.2,0,0,1-.8-.292c-.4-.465.112-1.147.607-1.5,2.855-2.113,6.49-3.567,8.116-6.745a39.662,39.662,0,0,0,1.536-4.9A41.217,41.217,0,0,0,884,512.474a31.325,31.325,0,0,0,.247-4.362,5.853,5.853,0,0,1,1.5-3.987,6.248,6.248,0,0,1,4.077-1.311c3.582-.157,7.4.7,9.937,3.222.682.682,1.266,1.5,1.971,2.113s1.664.794,1.2,1.6-1.379,1.311-1.874,2.023A17.238,17.238,0,0,0,899.747,514.19Z" transform="translate(-856.735 -476.236)" fill="#fbbebe"/>
      <path id="Path_194526" data-name="Path 194526" d="M850.493,540.648a85.144,85.144,0,0,0,4.586,16.884,63.616,63.616,0,0,1,2.7,7.569c.577,2.323.465,4.811,1,7.142.659,2.9,1.319,5.808,1.851,8.731a57.248,57.248,0,0,1,1.064,13.564,5.675,5.675,0,0,1-.4,2.091c-.247.54-.644,1-.877,1.559a3.747,3.747,0,0,0,.21,3,8.68,8.68,0,0,0,1.544,2.338c6.984,2.083,14.456,1.4,21.733,1.844,6.707.4,13.49,1.784,20.1.637.749-3-.5-6.138-1.574-9.06-3.11-8.491-6.55-17.334-6-26.23a27.166,27.166,0,0,1,.352-3.1c1.087-6.3-.1-12.83-1.993-18.938-1.177-3.807-1.124-7.861-.854-11.826a21.6,21.6,0,0,0,.052-3.874,6.813,6.813,0,0,0-1.409-3.62c0-.052-.067-.1-.105-.157a1.029,1.029,0,0,0-.562,0h0a.48.48,0,0,1-.375,0l-.082-.052a.187.187,0,0,0-.217,0c-.172.1-.27.465-.645.532a14.886,14.886,0,0,1-1.671.157,9.007,9.007,0,0,0-1.994.285h-.09a5.853,5.853,0,0,1-2.908-.247,7.728,7.728,0,0,1-1.784-.69c-.165-.18-1.2-.345-1.409-.472-.682-.412-.532-2.346-.675-3.14a8.63,8.63,0,0,0-.562-2.323,3.957,3.957,0,0,0-3.208-1.866,17.07,17.07,0,0,0-3.844.345c-2.8.4-5.658.33-8.4.974-1.379.322-2.885.809-4.152.18-.345.082-.4.382-.4.749a4.808,4.808,0,0,0,.21,1.027c.48,2.068-1.147,3.972-2.645,5.471a8.479,8.479,0,0,1-2.211,1.761c-.749.345-1.5.487-2.248.862a4.091,4.091,0,0,0-1.5,1.371,5.726,5.726,0,0,0-.854,2.181A13.043,13.043,0,0,0,850.493,540.648Z" transform="translate(-838.005 -480.892)" fill="#3f3d56"/>
      <path id="Path_194527" data-name="Path 194527" d="M859.9,543.233a85.143,85.143,0,0,0,4.586,16.885,63.578,63.578,0,0,1,2.7,7.569c.577,2.323.465,4.811,1,7.142.659,2.9,1.319,5.808,1.851,8.731.157.09.322.172.487.247a11.5,11.5,0,0,0,2.938.944,17.983,17.983,0,0,0,5.486-.18l10.694-1.431c4.272-.577,8.821-1.274,11.991-4.167a25.586,25.586,0,0,0,4.182-5.711,27.152,27.152,0,0,1,.352-3.1c1.087-6.3-.1-12.83-1.993-18.938-1.177-3.807-1.124-7.861-.854-11.826a21.592,21.592,0,0,0,.052-3.875,6.811,6.811,0,0,0-1.409-3.62,5.328,5.328,0,0,0-.667-.15h0a3.344,3.344,0,0,0-.457-.06h-.217a3.263,3.263,0,0,0-.749.09,13.585,13.585,0,0,0-1.5.577h-.09a5.74,5.74,0,0,1-1.993.285c-.989,0-2.008-.157-3-.225a5.53,5.53,0,0,0-3.552.637,21.3,21.3,0,0,0-1.979,1.806,8.494,8.494,0,0,1-2.5,1.356,26.521,26.521,0,0,1-19.949-.42,3.9,3.9,0,0,0-2-.51,3.746,3.746,0,0,0-1.439.615c-.45.262-.892.517-1.349.749a5.723,5.723,0,0,0-.854,2.181A13.037,13.037,0,0,0,859.9,543.233Z" transform="translate(-847.409 -483.478)" opacity="0.1"/>
      <path id="Path_194528" data-name="Path 194528" d="M856.848,537.791a40,40,0,0,0,8.543-3.747,3.827,3.827,0,0,1,1.439-.615,4.024,4.024,0,0,1,2.008.509,26.506,26.506,0,0,0,19.942.42,8.676,8.676,0,0,0,2.5-1.357,22.382,22.382,0,0,1,1.978-1.806c2.466-1.6,5.875.277,8.633-.749a15.337,15.337,0,0,1,1.5-.577c2.181-.547,4.4,1.626,6.542.967a36.453,36.453,0,0,1,1.761,6.685,72.848,72.848,0,0,1,.487,7.884c0,1.581.075,3.163,0,4.744a1.556,1.556,0,0,0-1.184,2.458,61.447,61.447,0,0,0,5.531,11.7,25.418,25.418,0,0,0-4.631,3.537c-2.623,2.773-3.912,6.662-6.745,9.225-3.192,2.885-7.741,3.59-11.991,4.159l-10.694,1.431a18.279,18.279,0,0,1-5.493.187,11.56,11.56,0,0,1-2.93-.952,5.249,5.249,0,0,1-1.634-1.079,5.992,5.992,0,0,1-.967-1.5c-.847-1.694-1.619-3.425-2.331-5.178-.247-.622-.622-1.349-1.3-1.4-3.972-3.582-7.719-7.254-11.691-10.836a25.9,25.9,0,0,1-4.264-4.5c-1.971-2.915-.18-7.045,0-10.567a13.342,13.342,0,0,1,.337-2.675C852.839,541.606,854.353,538.548,856.848,537.791Z" transform="translate(-850.888 -482.997)" fill="#0d5bb9"/>
      <path id="Path_194529" data-name="Path 194529" d="M832.054,519.414c.6,1.2,2.038,1.776,3.148,2.533l3.8,2.608a2.534,2.534,0,0,0,1.881.644,2.473,2.473,0,0,0,1.4-1.311v-.54a5.027,5.027,0,0,0-.24-1.791,5.583,5.583,0,0,0-1.679-2.158,13.744,13.744,0,0,0-4.924-3,1.685,1.685,0,0,0-.9-.09,1.187,1.187,0,0,0-.33.142,4.349,4.349,0,0,0-.675.974C833.238,518.043,831.747,518.8,832.054,519.414Z" transform="translate(-762.468 -479.617)" opacity="0.1"/>
      <path id="Path_194530" data-name="Path 194530" d="M835.773,527.475a5.458,5.458,0,0,0,3.245-1.859l2.84-2.638a2.648,2.648,0,0,0,.495-.555,3.886,3.886,0,0,0,.345-.922,10.574,10.574,0,0,1,2.758-3.957,1.8,1.8,0,0,1,.817-.585,1.642,1.642,0,0,1,.907.09,13.7,13.7,0,0,1,4.924,3,5.6,5.6,0,0,1,1.679,2.158,4.985,4.985,0,0,1,.24,1.791,13.762,13.762,0,0,1-1.3,5.726c-.127.277-.27.554-.42.824a25.955,25.955,0,0,1-3.523,4.579l-1.783,1.993c-1.754,1.964-3.507,3.927-5.411,5.733a7.148,7.148,0,0,1-2.428,1.694,2.713,2.713,0,0,1-2.788-.45,4.028,4.028,0,0,1-.794-1.424,28.029,28.029,0,0,1-2.316-9.345,35.287,35.287,0,0,1,.165-3.874C833.532,528.09,834.5,527.558,835.773,527.475Z" transform="translate(-775.136 -479.778)" fill="#0d5bb9"/>
      <path id="Path_194531" data-name="Path 194531" d="M798.17,659.453a173.19,173.19,0,0,0,1.6,22.535c.15,1.207.315,2.413.4,3.62.247,3.5-.157,7.015.172,10.492.172,1.881.562,3.747.892,5.583a99.288,99.288,0,0,1,1.274,24.843c-1.034,13.812,2.136,27.631.7,41.405a33.462,33.462,0,0,0,.442,8.011,33.966,33.966,0,0,0,1.161,4.841q1.641,5.628,3.3,11.241a3.9,3.9,0,0,0,.75,1.559,3.553,3.553,0,0,0,2.81.832c4.324-.135,8.393-2,12.32-3.822a4.293,4.293,0,0,0,1.237-.749c.817-.847.749-2.181,1.109-3.3a31.406,31.406,0,0,1,1.888-3.312,10.812,10.812,0,0,0,.817-3.41q.75-5.755,1.019-11.556c.285-5.441-3.312-10.447-4.5-15.738-2.248-10.4-.345-21.553-4.339-31.423-1.259-3.118.57-6.895.749-10.252a32.5,32.5,0,0,1,.84-6.43c.749-2.818,2.331-5.471,2.443-8.393.082-2.113-.6-4.174-.952-6.258a28.121,28.121,0,0,1,.127-9.24c.4-2.518,1-5.036,1.611-7.494l.135.277a84.653,84.653,0,0,1,4.7,11.054c.6,1.836,1.124,3.71,1.873,5.493.615,1.5,1.371,2.87,2.113,4.279a122.9,122.9,0,0,1,6.932,15.4c.929,2.593,1.746,5.246,2.555,7.846l5.553,17.986c1.5,4.729,3.14,9.3,4.609,14.022,2.076,6.745,4.152,13.43,6.565,20.024,2.248,6.258,4.924,12.74,4.122,19.35a14.238,14.238,0,0,0,6.618,1.341,38.744,38.744,0,0,0,11.241-2.728,8.739,8.739,0,0,0,3.882-2.308c1.664-2.031,1.251-5.006.749-7.592a18.34,18.34,0,0,0-.9-3.417c-.57-1.379-1.5-2.6-2.084-3.964-1.177-2.615-1.252-5.576-1.716-8.416s-1.5-5.838-3.927-7.382c-.412-4.991-2.465-9.915-3.6-14.794-.855-3.695-1.139-7.494-1.814-11.241a24.692,24.692,0,0,0-4.024-10.529,16.692,16.692,0,0,0-2.038-8.993,9.813,9.813,0,0,1-.892-1.911,11,11,0,0,1-.24-1.978,11.7,11.7,0,0,0-3.163-6.947c.75-2.735-.292-5.591-1.229-8.244a28.632,28.632,0,0,1-1.574-10.544,9.243,9.243,0,0,0-.143-3c-.21-.75-.622-1.387-.862-2.106a12,12,0,0,1-.337-2.69c-.292-4.054-1.933-7.876-3.747-11.5-1.079-2.113-.165-4.984-.39-7.337-.39-3.912-.817-7.959-2.758-11.369-.36-.644-.749-1.259-1.072-1.926a8.337,8.337,0,0,1-.622-3c-.067-1.716-.307-3.14.307-4.736-4.009-3.335-9.48-4.272-14.7-4.5s-10.492.247-15.6-.862c-1.5-.337-3-.8-4.579-1.027-3.59-.525-7.232.292-10.777,1.1a12.836,12.836,0,0,1-1.5,6.5,69.752,69.752,0,0,0-5.553,26.769Z" transform="translate(-782.947 -506.837)" fill="#33313f"/>
      <path id="Path_194532" data-name="Path 194532" d="M880.84,673.29l8.611,19.365c.4-2.518,1-5.036,1.611-7.494l.135.277v-.4l-4.691-10.32Z" transform="translate(-847.969 -518.958)" opacity="0.1"/>
      <path id="Path_194533" data-name="Path 194533" d="M913.25,617.678a3.237,3.237,0,0,0,1.709.637,8.311,8.311,0,0,0,2.8-.382l6.745-1.686a3.3,3.3,0,0,0,.615-.217c-.112-1.177-.337-2.541-.974-3-.952-.637-3.8.217-4.879.367-1.858.255-3.747.555-5.561.907A14.842,14.842,0,0,0,913.25,617.678Z" transform="translate(-906.18 -503.8)" opacity="0.1"/>
      <path id="Path_194534" data-name="Path 194534" d="M912.9,559.01c-.143.622-.345,1.237-.465,1.866a14.232,14.232,0,0,0,.157,4.639l.615,4.287.614,4.309L916.2,590.7l.585,4.107.824,5.733a4.123,4.123,0,0,0,.36,1.379,2.871,2.871,0,0,0,2.346,1.386,8.5,8.5,0,0,0,2.8-.382l6.745-1.694a2.112,2.112,0,0,0,.824-.337,1.626,1.626,0,0,0,.435-1.581c-.1-.57-.345-1.1-.427-1.671-.165-1.109.3-2.248.135-3.35a8.324,8.324,0,0,0-.749-2.016c-2.248-4.969-.944-10.769-1.709-16.165a24.5,24.5,0,0,0-5.2-11.571,33.208,33.208,0,0,0-5.74-5.636c-.839-.652-2.173-1.993-3.23-2.248C912.841,556.365,913.126,558.066,912.9,559.01Z" transform="translate(-911.535 -489.722)" fill="#0d5bb9"/>
      <path id="Path_194535" data-name="Path 194535" d="M906.411,472.4c.495,1.574-.277,3.3.075,4.909.382,1.769,2.046,3,2.518,4.774.749,2.705-1.544,5.171-3.223,7.419-6.22,8.348-5.4,19.9-3.275,30.089a155.372,155.372,0,0,0,7.082,23.981,18.376,18.376,0,0,0,3.815,6.692c-3.447-.989-7.112-1.986-10.567-1.027-4.377,1.214-8.154,5.463-12.59,4.5-2.668-.592-4.542-2.96-6.94-4.272-4.5-2.421-9.915-.9-14.928-.12a5.859,5.859,0,0,1-3.26-.165,5.416,5.416,0,0,1-1.978-1.821,18.479,18.479,0,0,1-3.852-9.967,12.785,12.785,0,0,1,3.68-9.84,21.052,21.052,0,0,0,3.155-3,9.307,9.307,0,0,0,1.237-4.541c.592-8.244-1.416-16.66.652-24.633.749-2.84,1.971-5.561,2.3-8.468.412-3.62-.57-7.494.869-10.807a10.6,10.6,0,0,1,6.318-5.456,34.606,34.606,0,0,1,8.423-1.5C890.029,468.8,904.695,467.04,906.411,472.4Z" transform="translate(-854.001 -467.664)" fill="#33313f"/>
      <path id="Path_194536" data-name="Path 194536" d="M867.371,523.314a155.051,155.051,0,0,0,7.044,23.884c-.517-1.027-.952-2.106-1.364-3.178a154.538,154.538,0,0,1-7.082-23.981c-2.136-10.192-2.953-21.733,3.267-30.089,1.5-1.993,3.425-4.152,3.357-6.49a7.988,7.988,0,0,1,1.274,2.353c.749,2.705-1.544,5.171-3.222,7.419C864.426,501.573,865.243,513.129,867.371,523.314Z" transform="translate(-818.867 -471.391)"/>
      <path id="Path_194537" data-name="Path 194537" d="M869.735,477.248a7.294,7.294,0,0,1-1.319-2.526,12.841,12.841,0,0,1,.09-3.342,3.607,3.607,0,0,1,1.244,1.716C870.192,474.423,869.683,475.862,869.735,477.248Z" transform="translate(-817.342 -468.363)"/>
      <path id="Path_194538" data-name="Path 194538" d="M860.954,568.41a5.4,5.4,0,0,0,1.978,1.814,5.727,5.727,0,0,0,3.26.165c5.014-.749,10.492-2.293,14.929.127,2.406,1.3,4.272,3.672,6.947,4.272,4.429.989,8.206-3.26,12.583-4.5,3.1-.862,6.37-.15,9.5.749a13.094,13.094,0,0,0,2.481,3.582c-3.447-.989-7.112-1.986-10.567-1.027-4.377,1.214-8.154,5.463-12.59,4.5-2.668-.592-4.541-2.96-6.94-4.272-4.5-2.421-9.915-.9-14.928-.12a5.861,5.861,0,0,1-3.26-.165,5.417,5.417,0,0,1-1.978-1.821,20.142,20.142,0,0,1-3.1-5.935A21.784,21.784,0,0,0,860.954,568.41Z" transform="translate(-853.225 -492.017)"/>
    </g>
    <rect id="Rectangle_7193" data-name="Rectangle 7193" width="685.022" height="5.032" transform="translate(368.245 1110.056)" fill="#0d5bb9"/>
  </g>
</svg>
