<svg xmlns="http://www.w3.org/2000/svg" xmlns:xlink="http://www.w3.org/1999/xlink" width="714.716" height="528" viewBox="0 0 714.716 528">
  <defs>
    <linearGradient id="linear-gradient" x1="0.5" y1="1" x2="0.5" gradientUnits="objectBoundingBox">
      <stop offset="0" stop-color="gray" stop-opacity="0.251"/>
      <stop offset="0.54" stop-color="gray" stop-opacity="0.122"/>
      <stop offset="1" stop-color="gray" stop-opacity="0.102"/>
    </linearGradient>
    <linearGradient id="linear-gradient-2" y2="0" xlink:href="#linear-gradient"/>
    <linearGradient id="linear-gradient-4" x1="16.117" x2="16.117" y2="0" xlink:href="#linear-gradient"/>
  </defs>
  <g id="Group_10172" data-name="Group 10172" transform="translate(-222.531 -371)">
    <path id="Path_194000" data-name="Path 194000" d="M810.37,151.787s8.219-3.341,34.352,8.651,29.4,10.467,36.169,8.633,10.514-2.266,17.792-12.267c0,0,5.111-27.734,10.064-32.027s25.993,2.447,25.993,2.447,25.228,5.783,30.035-27.933c0,0-3.411-25.409,1.233-33.207,0,0-9.346,4.042-24.848-2.488S913.3,70.606,913.3,70.606s-3.9,10.1-3.5,16.122-2.062,8.289-9.445,5.38c0,0-3.622-5.158,1.507-13.686s8.8-14.872,7.366-21.49-5.549-15.771-18.791-20.392-31.215-5.473-39.849-9.066-10.719-5.935-10.719-5.935,5.31,5.321-7.2,27.88-4.539,32.349-4.539,32.349,6.659,15.859,36.04,14.574c0,0,28.312,1.034,12.88,13.038,0,0-9.889-2.009-24.667-6.712s-25.45,14.7-28.1,28.19S810.37,151.787,810.37,151.787Z" transform="translate(-552.235 393.187)" fill="#0d5bb9"/>
    <path id="Path_194016" data-name="Path 194016" d="M934.968,85s-13.043,28-22.518,31.543" transform="translate(-584.871 366.795)" fill="none" stroke="#444053" stroke-miterlimit="10" stroke-width="1"/>
    <path id="Path_194326" data-name="Path 194326" d="M119.581,412.114c-8.576,1.394-19.331,5.381-19.231,14.65.05,4.7,3.173,8.712,6.21,12.149a230.836,230.836,0,0,0,43.83,38.713c7.733,5.238,16.044,10.248,21.182,18.345s6.432,18.4,6.839,28.207a216.811,216.811,0,0,1-8.1,68.786c25.177,4.8,53.256,9,74.238-6.146,12.564-9.069,21.061-24.263,35.061-30.552,9.348-4.2,19.932-3.831,30.123-3.295q72.359,3.809,144.36,14.293c20.1,2.93,40.592,6.246,60.481,2.458s39.456-16.144,46.788-36.176c1.129-3.087,2.144-6.532,4.674-8.39,2.287-1.658,5.281-1.622,8.061-1.522l168,5.774c9.2.314,18.731.572,27.157-3.216,8.169-3.666,14.45-10.72,20.5-17.631,13.829-15.765,28.7-35.161,24.634-56.558-3.252-17.152-17.788-29.137-32.2-37.527s-30.316-15.258-40.907-28.672c-16.115-20.418-15.479-49.64-16.48-76.132a422.906,422.906,0,0,0-8.826-71.344c-4.367-20.646-10.448-41.321-21.818-58.759s-28.758-31.4-48.425-33.96c-25.685-3.345-51.505,12.678-76.632,5.874-21.225-5.717-35.833-26.035-53.42-40.114-31.238-25.013-72.23-30.251-110.986-30.73-41.093-.522-83.272,3.638-119.9,22.933-8.39,4.417-16.594,9.762-22.4,17.566-8.9,11.97-11.063,28.05-16.887,42.043-23.476,56.343-99.83,68.493-124.614,124.236-8.8,19.775-8.712,42.836-2.3,63.6,6.9,22.347,26.306,34.689,34,54.171C144.3,410.528,129.622,410.478,119.581,412.114Z" transform="translate(122.182 290.398)" fill="#0d5bb9" opacity="0.1"/>
    <g id="Group_10098" data-name="Group 10098" transform="translate(838.048 476.958)">
      <path id="Path_194327" data-name="Path 194327" d="M985.15,399.509s3.43-45.573,29.186-70.336a69.25,69.25,0,0,0,20.6-38.656,116.5,116.5,0,0,0,1.429-21.247" transform="translate(-968.34 -240.395)" fill="none" stroke="#535461" stroke-miterlimit="10" stroke-width="2"/>
      <path id="Path_194328" data-name="Path 194328" d="M1071.955,242.04c-1.9,5-16.508,16.158-16.508,16.158s-3.573-18.016-1.687-23.04a9.73,9.73,0,1,1,18.2,6.882Z" transform="translate(-987.76 -228.866)" fill="#0d5bb9"/>
      <path id="Path_194329" data-name="Path 194329" d="M1076.72,287.2c-4.324,3.187-22.64,4.588-22.64,4.588s6.782-17.073,11.106-20.26a9.727,9.727,0,0,1,11.535,15.665Z" transform="translate(-988.009 -240.498)" fill="#0d5bb9"/>
      <path id="Path_194330" data-name="Path 194330" d="M1050.941,352.681c-5.346.565-21.861-7.468-21.861-7.468s14.471-11.313,19.81-11.885a9.731,9.731,0,0,1,2.051,19.353Z" transform="translate(-980.875 -258.658)" fill="#0d5bb9"/>
      <path id="Path_194331" data-name="Path 194331" d="M1019.542,398.467c-5.174,1.429-22.812-3.666-22.812-3.666s12.349-13.578,17.523-15.058a9.728,9.728,0,0,1,5.288,18.724Z" transform="translate(-971.644 -271.813)" fill="#0d5bb9"/>
      <path id="Path_194332" data-name="Path 194332" d="M1026.461,286.355c2.28,4.867,17.7,14.843,17.7,14.843s2.194-18.238-.086-23.1a9.729,9.729,0,0,0-17.616,8.261Z" transform="translate(-979.864 -241.315)" fill="#0d5bb9"/>
      <path id="Path_194333" data-name="Path 194333" d="M990.2,339.24c3.63,3.959,21.332,8.869,21.332,8.869s-3.366-18.059-7-22.018a9.729,9.729,0,0,0-14.343,13.15Z" transform="translate(-969.048 -255.709)" fill="#0d5bb9"/>
      <path id="Path_194334" data-name="Path 194334" d="M963.18,396.856c2.909,4.517,19.532,12.342,19.532,12.342s-.264-18.367-3.173-22.869A9.73,9.73,0,1,0,963.18,396.87Z" transform="translate(-961.628 -272.525)" fill="#0d5bb9"/>
    </g>
    <path id="Path_194335" data-name="Path 194335" d="M164.14,87.83V417.286H693.556V87.83Z" transform="translate(175.159 345.93)" fill="url(#linear-gradient)"/>
    <rect id="Rectangle_7182" data-name="Rectangle 7182" width="518.232" height="25.163" transform="translate(344.895 437.24)" fill="#f6f7f9"/>
    <g id="Group_10099" data-name="Group 10099" transform="translate(344.895 437.24)" opacity="0.2">
      <rect id="Rectangle_7183" data-name="Rectangle 7183" width="518.232" height="25.163" fill="#0d5bb9"/>
    </g>
    <path id="Path_194003" data-name="Path 194003" d="M887.2,173l-.175.3c15.829,19.761,16.875,50.445,16.939,50.708l3.335-3.855C907.236,219.87,903.13,192.889,887.2,173Z" transform="translate(-542.343 330.199)" fill="#444053"/>
    <path id="Path_194004" data-name="Path 194004" d="M834.49,180.057s18.692-9.7,33.213-6.221,47.314-12.307,47.314-12.307,13.9-5.648,16.7-12.085c0,0,9.539-10.088,10.082-15.31s9.831-18.336,15.888-18.844" transform="translate(-562.051 354.199)" fill="none" stroke="#444053" stroke-miterlimit="10" stroke-width="1"/>
    <path id="Path_194005" data-name="Path 194005" d="M1026.4,232.4s9.4-6.332,8.306-13.715" transform="translate(-751.255 311.201)" fill="none" stroke="#444053" stroke-miterlimit="10" stroke-width="1"/>
    <path id="Path_194006" data-name="Path 194006" d="M990.76,239.063s13.435-4.877,14.79-24.013" transform="translate(-701.194 312.711)" fill="none" stroke="#444053" stroke-miterlimit="10" stroke-width="1"/>
    <path id="Path_194007" data-name="Path 194007" d="M962.822,243.8A30.06,30.06,0,0,0,971.4,214.52" transform="translate(-651.598 312.931)" fill="none" stroke="#444053" stroke-miterlimit="10" stroke-width="1"/>
    <path id="Path_194008" data-name="Path 194008" d="M927.314,234.633s8.557-17.95.94-29.633" transform="translate(-589.997 316.891)" fill="none" stroke="#444053" stroke-miterlimit="10" stroke-width="1"/>
    <path id="Path_194009" data-name="Path 194009" d="M1032.2,205.92s9.72,3.084,7.635,8.178" transform="translate(-759.974 316.508)" fill="none" stroke="#444053" stroke-miterlimit="10" stroke-width="1"/>
    <path id="Path_194010" data-name="Path 194010" d="M1002.9,175.71s13,4.13,13.312,22.53" transform="translate(-718.947 329.072)" fill="none" stroke="#444053" stroke-miterlimit="10" stroke-width="1"/>
    <path id="Path_194011" data-name="Path 194011" d="M975.772,168.44s11.84,14.6,10.97,27.9" transform="translate(-673.677 332.094)" fill="none" stroke="#444053" stroke-miterlimit="10" stroke-width="1"/>
    <path id="Path_194012" data-name="Path 194012" d="M941.344,178.26s11.764,11.239,10.263,17.489" transform="translate(-618.518 328.011)" fill="none" stroke="#444053" stroke-miterlimit="10" stroke-width="1"/>
    <path id="Path_194013" data-name="Path 194013" d="M925.48,170.291s11.028,1.974,12.57-1.641" transform="translate(-595.564 332.007)" fill="none" stroke="#444053" stroke-miterlimit="10" stroke-width="1"/>
    <path id="Path_194014" data-name="Path 194014" d="M929.469,148.67s-5.573,7.377-7.01,5.724" transform="translate(-585.218 340.317)" fill="none" stroke="#444053" stroke-miterlimit="10" stroke-width="1"/>
    <path id="Path_194015" data-name="Path 194015" d="M958.65,136.151s27.792,2.015,34.083-6.361" transform="translate(-669.623 348.169)" fill="none" stroke="#444053" stroke-miterlimit="10" stroke-width="1"/>
    <path id="Path_194017" data-name="Path 194017" d="M953.812,62.19S945.8,87.938,935.88,95.976" transform="translate(-617.401 376.282)" fill="none" stroke="#444053" stroke-miterlimit="10" stroke-width="1"/>
    <path id="Path_194018" data-name="Path 194018" d="M979.08,104.215s21.139,9.077,33.832-.105" transform="translate(-701.734 358.848)" fill="none" stroke="#444053" stroke-miterlimit="10" stroke-width="0.75"/>
    <path id="Path_194019" data-name="Path 194019" d="M979.448,52.79s-4.831,18.931-11.338,23.488" transform="translate(-661.862 380.191)" fill="none" stroke="#444053" stroke-miterlimit="10" stroke-width="0.75"/>
    <path id="Path_194020" data-name="Path 194020" d="M1003.65,68s11.881,4.5,16.314,1.051" transform="translate(-723.138 373.865)" fill="none" stroke="#444053" stroke-miterlimit="10" stroke-width="0.75"/>
    <path id="Path_194021" data-name="Path 194021" d="M897.35,159.26s.035,16.5,4.5,17.67" transform="translate(-542.93 335.913)" fill="none" stroke="#444053" stroke-miterlimit="10" stroke-width="1"/>
    <rect id="Rectangle_7184" data-name="Rectangle 7184" width="518.232" height="297.332" transform="translate(344.895 462.403)" fill="#f6f7f9"/>
    <circle id="Ellipse_765" data-name="Ellipse 765" cx="5.596" cy="5.596" r="5.596" transform="translate(351.727 444.072)" fill="#f6f7f9"/>
    <circle id="Ellipse_766" data-name="Ellipse 766" cx="5.596" cy="5.596" r="5.596" transform="translate(366.635 444.072)" fill="#f6f7f9"/>
    <circle id="Ellipse_767" data-name="Ellipse 767" cx="5.596" cy="5.596" r="5.596" transform="translate(381.55 444.072)" fill="#f6f7f9"/>
    <g id="Group_10100" data-name="Group 10100" transform="translate(362.911 499.379)" opacity="0.2">
      <rect id="Rectangle_7185" data-name="Rectangle 7185" width="266.573" height="19.26" fill="#0d5bb9"/>
    </g>
    <g id="Group_10101" data-name="Group 10101" transform="translate(697.834 499.379)" opacity="0.2">
      <rect id="Rectangle_7186" data-name="Rectangle 7186" width="139.808" height="19.26" fill="#0d5bb9"/>
    </g>
    <g id="Group_10102" data-name="Group 10102" transform="translate(414.795 593.206)" opacity="0.2">
      <rect id="Rectangle_7187" data-name="Rectangle 7187" width="18.638" height="61.517" transform="translate(0 88.238)" fill="#0d5bb9"/>
      <rect id="Rectangle_7188" data-name="Rectangle 7188" width="18.638" height="105.633" transform="translate(36.04 44.116)" fill="#0d5bb9"/>
      <rect id="Rectangle_7189" data-name="Rectangle 7189" width="18.638" height="149.749" transform="translate(72.08)" fill="#0d5bb9"/>
      <rect id="Rectangle_7190" data-name="Rectangle 7190" width="18.638" height="135.463" transform="translate(108.12 14.293)" fill="#0d5bb9"/>
      <rect id="Rectangle_7191" data-name="Rectangle 7191" width="18.638" height="93.205" transform="translate(144.16 56.543)" fill="#0d5bb9"/>
    </g>
    <g id="Group_10103" data-name="Group 10103" transform="translate(697.527 560.897)" opacity="0.2">
      <rect id="Rectangle_7192" data-name="Rectangle 7192" width="139.808" height="171.81" fill="#0d5bb9"/>
    </g>
    <path id="Path_194336" data-name="Path 194336" d="M1058.087,486c-.894-4.545-2.608-8.99-2.651-13.621-.064-7.518,3.938-16.251-1.322-21.8-1.2-1.265-2.809-2.208-3.7-3.688a8.116,8.116,0,0,1-.929-4.159c-.086-8.769,4.745-17.673,1.851-25.985a8.832,8.832,0,0,0-3.316-4.624,9.62,9.62,0,0,0-5.624-1.258c-1.851,0-3.8.207-5.717.243a12.355,12.355,0,0,1-3.209-.422c-2.215-.629-4.1-2.08-6.289-2.794a10.276,10.276,0,0,0-3.573-.493c-4.8-.157-9.19,3.037-12.607,6.132a47.067,47.067,0,0,1-5.4,3.923c.286-.2-6.668,4.574-4.052,4.624a9.105,9.105,0,0,1,5.174,1.8,13.979,13.979,0,0,0,.714,16.208c-1.136-1.115-2.394-2.337-3.68-3.573-3.83-3.766-9.183-8.819-11.7-10.2a82.792,82.792,0,0,1-10.048-7.054s-7.683,4.288-5.317,10.241a23.916,23.916,0,0,1,3.295,1.294,6.167,6.167,0,0,0,.45,2.308,25.442,25.442,0,0,1,6.825,3.345,11.628,11.628,0,0,1,.658,1.022c1.022,1.787,4.2,5.038,8.09,8.655,2.73,2.737,6.325,6.01,9.905,9.162-1.079,2.144-2.215,4.288-2.416,6.432a7.926,7.926,0,0,1-.808-.372c-5.317-2.859-17.723-2.558-17.723-2.558s-10.341-5.4-12.406-17.631c0,0-2.065-7.4-1.479-9.383h-.036l.264-.057,2.48-4.5a1.987,1.987,0,0,0-1.629-2.916c-12.092-1.086-12.664,10.005-12.664,10.005h.107l-.036.093c1.479,7.111,2.658,6.539,2.365,12.228l4.724,12.514s.293,4.288,8.862,9.955a185.17,185.17,0,0,1,18.317,14.507s-5.167,2.7-3.252,15.072c2.344,15.122-1.179,36.69-1.179,36.69v13.936l.657-.179c-.086.465-.164.958-.25,1.494a78.48,78.48,0,0,0-.408,21.161c1.772,14.793,8.862,35.018,8.862,35.018a63.312,63.312,0,0,1,3.252,12.8,11.8,11.8,0,0,0,.757,3.287,25.85,25.85,0,0,1,2.073,9.869A69.494,69.494,0,0,0,1008.9,657.7c2.994,7.6,4.109,12.063,4.438,14.665-2.144,2.773-4.9,5.8-7.1,6.1-4.138.572-12.113,1.136-6.8,7.961a4.854,4.854,0,0,0,.615.65c-4.038.643-8.476,2.058-4.159,7.6,5.317,6.825,36.626,3.695,36.626,3.695s.2-3.795,0-7.961c2.194-.15,3.573-.286,3.573-.286s.886-16.494-2.951-18.488a8.288,8.288,0,0,0-2.073.5c-.414-2.28-.714-5.117-.929-7.211l1.522-.114v-.114h.093V639.838s-1.772-15.358-8.269-22.154a13.8,13.8,0,0,1-2.144-2.859l-.086-.179c.043-1.944.043-4.567,0-7.575l.093-.164c.114-.186.229-.35.336-.5a6.212,6.212,0,0,1,.486-.572l.093-.122h0s3.573-4.288,15.658-31.287c7.382-16.48,5.431-25.728,2.787-30.494-.558-2.144-1.723-6.946-3.18-15.172a59.488,59.488,0,0,1-.85-10.57,21.249,21.249,0,0,0,5.6.629,19.023,19.023,0,0,0,8.576-1.83c-1.93-2.816-3.945-6.117-2.973-9.355,1.1-3.688,5.46-5.381,7.976-8.354C1058.9,495.685,1058.98,490.554,1058.087,486Z" transform="translate(-122.972 197.151)" fill="url(#linear-gradient-2)"/>
    <path id="Path_194337" data-name="Path 194337" d="M990.512,428.25s-7.332,4.231-5.074,10.155c0,0,7.618,2.258,10.72,7.9s27.078,25.949,27.078,25.949l17.509-8.74s-6.082-8.118-25.32-13.793c0,0-11.342-12.149-15.294-14.415A85.571,85.571,0,0,1,990.512,428.25Z" transform="translate(-130.25 191.198)" fill="#797c9c"/>
    <path id="Path_194338" data-name="Path 194338" d="M995.512,433.25s-7.332,4.231-5.074,10.155c0,0,7.618,2.258,10.72,7.9s27.078,25.949,27.078,25.949l17.509-8.74s-6.082-8.118-25.32-13.793c0,0-11.342-12.149-15.294-14.415A85.558,85.558,0,0,1,995.512,433.25Z" transform="translate(-131.677 189.772)" opacity="0.05"/>
    <rect id="Rectangle_7193" data-name="Rectangle 7193" width="681.066" height="5.003" transform="translate(239.533 893.997)" fill="#0d5bb9"/>
    <rect id="Rectangle_7194" data-name="Rectangle 7194" width="144.339" height="177.377" transform="translate(720.989 614.567)" fill="url(#linear-gradient)"/>
    <rect id="Rectangle_7195" data-name="Rectangle 7195" width="139.808" height="171.81" transform="translate(723.255 617.354)" fill="#0d5bb9"/>
    <rect id="Rectangle_7196" data-name="Rectangle 7196" width="28.586" height="28.586" transform="translate(732.645 632.434)" fill="#e8eaf1"/>
    <rect id="Rectangle_7197" data-name="Rectangle 7197" width="101.481" height="5.717" transform="translate(746.938 678.172)" fill="#e8eaf1"/>
    <rect id="Rectangle_7198" data-name="Rectangle 7198" width="101.481" height="5.717" transform="translate(746.938 690.321)" fill="#e8eaf1"/>
    <rect id="Rectangle_7199" data-name="Rectangle 7199" width="101.481" height="5.717" transform="translate(746.938 702.47)" fill="#e8eaf1"/>
    <rect id="Rectangle_7200" data-name="Rectangle 7200" width="101.481" height="5.717" transform="translate(746.938 714.619)" fill="#e8eaf1"/>
    <rect id="Rectangle_7201" data-name="Rectangle 7201" width="101.481" height="5.717" transform="translate(746.938 726.768)" fill="#e8eaf1"/>
    <rect id="Rectangle_7202" data-name="Rectangle 7202" width="101.481" height="5.717" transform="translate(746.938 738.917)" fill="#e8eaf1"/>
    <rect id="Rectangle_7203" data-name="Rectangle 7203" width="101.481" height="5.717" transform="translate(746.938 751.066)" fill="#e8eaf1"/>
    <path id="Path_194364" data-name="Path 194364" d="M1052.484,764.89s.843,12.406,2.258,13.821-12.692,2.258-12.692,2.258l1.972-16.08Z" transform="translate(-146.528 95.14)" fill="#ffb9b9"/>
    <path id="Path_194365" data-name="Path 194365" d="M1052.484,764.89s.843,12.406,2.258,13.821-12.692,2.258-12.692,2.258l1.972-16.08Z" transform="translate(-146.528 95.14)" opacity="0.05"/>
    <path id="Path_194366" data-name="Path 194366" d="M1047.489,776.732s-1.972,0-9.026,3.666c0,0-4.8-.843-6.768-7.618,0,0-5.924,10.155-9.869,10.72s-11.563,1.129-6.489,7.9,34.975,3.666,34.975,3.666S1051.148,778.7,1047.489,776.732Z" transform="translate(-138.424 92.888)" fill="#e4e2f3"/>
    <path id="Path_194367" data-name="Path 194367" d="M1047.489,776.732s-1.972,0-9.026,3.666c0,0-4.8-.843-6.768-7.618,0,0-5.924,10.155-9.869,10.72s-11.563,1.129-6.489,7.9,34.975,3.666,34.975,3.666S1051.148,778.7,1047.489,776.732Z" transform="translate(-138.424 92.888)" opacity="0.05"/>
    <path id="Path_194368" data-name="Path 194368" d="M1049.1,787.618l-1.972,5.36-12.971-3.666.714-5.317.179-1.286.493-3.573s11-2.823,11-1.429a21.861,21.861,0,0,0,.715,3.438c.45,1.737,1.015,3.709,1.429,5C1048.932,787.053,1049.1,787.618,1049.1,787.618Z" transform="translate(-144.276 91.593)" fill="#ffb9b9"/>
    <path id="Path_194369" data-name="Path 194369" d="M1039.135,662.2a7.711,7.711,0,0,0,0,7.861,13.648,13.648,0,0,0,2.03,2.809c6.2,6.768,7.9,22,7.9,22V719.4l-4.231.322-6.768.522L1027.907,678.5s-5.925-30.459-3.1-35.818,5.36-38.92,5.36-38.92l2.344-2.423,5.553-5.753h16.08a10.815,10.815,0,0,1,3.13,3.495c2.7,4.467,5.124,13.757-2.28,30.909-11.563,26.792-14.951,31.023-14.951,31.023A6.508,6.508,0,0,0,1039.135,662.2Z" transform="translate(-141.39 143.449)" fill="#4c4c78"/>
    <path id="Path_194370" data-name="Path 194370" d="M1039.264,662.033a7.711,7.711,0,0,0,0,7.861,13.663,13.663,0,0,0,2.029,2.809c6.2,6.768,7.9,22,7.9,22v24.534l-4.231.322-6.768.522-10.155-41.743s-5.924-30.459-3.1-35.818,5.36-38.92,5.36-38.92l2.344-2.423,5.553-5.753h16.08a10.812,10.812,0,0,1,3.13,3.495c2.7,4.466,5.124,13.757-2.28,30.909-11.563,26.792-14.951,31.023-14.951,31.023A6.488,6.488,0,0,0,1039.264,662.033Z" transform="translate(-141.427 143.497)" opacity="0.05"/>
    <path id="Path_194371" data-name="Path 194371" d="M1047.653,781.179l-12.213,1.529.493-3.573s11-2.823,11-1.429A21.853,21.853,0,0,0,1047.653,781.179Z" transform="translate(-144.642 91.593)" opacity="0.1"/>
    <path id="Path_194372" data-name="Path 194372" d="M1031.983,624.365s.715,22.2.815,36.155v7.861a17.4,17.4,0,0,1-.229,3.094c-.843,2.537.843,8.176.843,8.176a81.407,81.407,0,0,1,5.074,34.975v12.407l-13.535,1.694s2.258-1.694-3.952-18.052a71.294,71.294,0,0,1-4.352-24.741,26.471,26.471,0,0,0-1.98-9.791,12.082,12.082,0,0,1-.715-3.259,64.723,64.723,0,0,0-3.1-12.692s-6.768-20.01-8.462-34.689a80.755,80.755,0,0,1,.393-20.982,52.42,52.42,0,0,1,1.015-5.246s27.571-17.352,37.984-5.36a13.58,13.58,0,0,1,2.351,3.952,26.05,26.05,0,0,1,1.329,4.4C1048.7,618.162,1031.983,624.365,1031.983,624.365Z" transform="translate(-135.067 145.132)" fill="#4c4c78"/>
    <circle id="Ellipse_768" data-name="Ellipse 768" cx="14.386" cy="14.386" r="14.386" transform="translate(881.694 617.197)" fill="#ffb9b9"/>
    <path id="Path_194373" data-name="Path 194373" d="M1031.415,454.346s5.925,16.637,0,25.385,18.9,5.924,18.9,5.924l9.59-11.563s-11.284,0-11.849-19.746S1031.415,454.346,1031.415,454.346Z" transform="translate(-143.232 186.256)" fill="#ffb9b9"/>
    <path id="Path_194374" data-name="Path 194374" d="M1052.088,600.671a37.009,37.009,0,0,1-6.282,1.572c-3.509.543-7.654.565-10.077-1.572-1.429-1.265-5-1.429-9.226-1.015-8.955.858-21.068,4.195-23.383,4.852a52.339,52.339,0,0,1,1.015-5.246s27.571-17.352,37.984-5.36h6.017a10.811,10.811,0,0,1,3.13,3.495C1051.788,599.642,1052.088,600.671,1052.088,600.671Z" transform="translate(-135.419 145.135)" opacity="0.1"/>
    <path id="Path_194375" data-name="Path 194375" d="M1049.1,790.283l-1.972,5.36-12.971-3.666.714-5.317c2.23,4.931,6.032,5.6,6.032,5.6a46,46,0,0,1,7.761-3.4C1048.932,789.719,1049.1,790.283,1049.1,790.283Z" transform="translate(-144.276 88.928)" opacity="0.1"/>
    <path id="Path_194376" data-name="Path 194376" d="M1042.739,788.182s-1.972,0-9.026,3.666c0,0-4.8-.843-6.768-7.618,0,0-5.925,10.155-9.87,10.72s-11.563,1.129-6.489,7.9,34.975,3.666,34.975,3.666S1046.405,790.155,1042.739,788.182Z" transform="translate(-137.068 89.621)" fill="#e4e2f3"/>
    <path id="Path_194377" data-name="Path 194377" d="M962.62,445.093s.55-10.984,12.092-9.912a1.972,1.972,0,0,1,1.558,2.859l-2.365,4.452Z" transform="translate(-123.863 189.242)" fill="#ffb9b9"/>
    <path id="Path_194378" data-name="Path 194378" d="M1029.274,476.4s-13.821-2.258-17.488-5.074c0,0-2.823,5.36-7.9,2.537s-16.923-2.537-16.923-2.537a25.577,25.577,0,0,1-11.849-17.488s-1.973-7.332-1.429-9.291c0,0-7.332-7.618-11,2.537,1.429,7.054,2.537,6.489,2.258,12.149l4.509,12.406s.279,4.231,8.462,9.869a180.93,180.93,0,0,1,17.488,14.386s-4.938,2.68-3.1,14.951c2.244,15.008-1.129,36.383-1.129,36.383v13.821s28.208-8.176,33-3.952,16.358,0,16.358,0a157.638,157.638,0,0,1-3.387-16.358,71.7,71.7,0,0,1,.279-22.869s7.332-19.46,10.72-27.357-2.537-18.581-8.461-22.562-8.125-1.579-8.125-1.579S1041.967,473.86,1029.274,476.4Z" transform="translate(-123.883 187.331)" fill="#797c9c"/>
    <path id="Path_194379" data-name="Path 194379" d="M1005.15,546.158s2.251-.543,13.528-2.237,31.023,2.258,31.023,2.258" transform="translate(-135.998 158.313)" opacity="0.05"/>
    <path id="Path_194380" data-name="Path 194380" d="M1018.565,426.352c6.432.136,11.191,8.068,8.34,13.793-1.251,2.516-3.673,4.731-3.423,7.525a27.205,27.205,0,0,0,1.086,3.666c1.351,5.717-5.489,11.07-3.923,16.716a12.068,12.068,0,0,0,2.444,4.1l11.878,14.965a11.248,11.248,0,0,1,1.772,2.744,11.565,11.565,0,0,1,.514,4.4c-.057,7.147.407,14.815,4.624,20.611a18.939,18.939,0,0,0,23.076,5.582c-1.844-2.794-3.766-6.068-2.859-9.291,1.051-3.652,5.21-5.338,7.611-8.283,2.9-3.573,2.973-8.647,2.144-13.157s-2.494-8.919-2.53-13.507c-.057-7.454,3.759-16.115-1.265-21.618-1.151-1.258-2.68-2.187-3.537-3.659a8.311,8.311,0,0,1-.886-4.131c-.078-8.69,4.531-17.53,1.765-25.77a8.754,8.754,0,0,0-3.166-4.588c-3.916-2.637-9.348-.079-13.878-1.429-2.144-.622-3.909-2.065-6-2.773-5.646-1.908-10.87,1.922-14.772,5.6a45,45,0,0,1-5.152,3.888C1022.7,421.571,1016.063,426.3,1018.565,426.352Z" transform="translate(-139.665 195.912)" opacity="0.1"/>
    <path id="Path_194381" data-name="Path 194381" d="M1019.565,426.352c6.432.136,11.191,8.068,8.34,13.793-1.251,2.516-3.673,4.731-3.423,7.525a27.205,27.205,0,0,0,1.086,3.666c1.351,5.717-5.489,11.07-3.923,16.716a12.069,12.069,0,0,0,2.444,4.095l11.877,14.965a11.248,11.248,0,0,1,1.772,2.744,11.575,11.575,0,0,1,.515,4.4c-.057,7.147.407,14.815,4.624,20.611a18.939,18.939,0,0,0,23.076,5.582c-1.844-2.794-3.766-6.068-2.859-9.291,1.051-3.652,5.21-5.338,7.611-8.283,2.9-3.573,2.973-8.647,2.144-13.157s-2.494-8.919-2.53-13.507c-.057-7.454,3.759-16.115-1.265-21.618-1.151-1.258-2.68-2.187-3.537-3.659a8.312,8.312,0,0,1-.886-4.131c-.078-8.69,4.531-17.53,1.765-25.77a8.756,8.756,0,0,0-3.166-4.588c-3.916-2.637-9.348-.079-13.879-1.429-2.144-.622-3.909-2.065-6-2.773-5.646-1.908-10.87,1.922-14.772,5.6a45.01,45.01,0,0,1-5.152,3.888C1023.7,421.571,1017.063,426.3,1019.565,426.352Z" transform="translate(-139.95 195.912)" fill="#b36362"/>
    <path id="Path_194382" data-name="Path 194382" d="M689.676,565.647a24.781,24.781,0,0,1-4.224-5.181c-2.473-3.888-6.611-5.982-9.448-7.025v-1.265h.172L676.1,551h.079l-.2-3.1h0l-1.008-15.494s-3.645-10.384,2.787-19.889.4-18.624-5.646-22.19c0,0-2.859-15.058-.4-18.624a103.812,103.812,0,0,0-10.148-5.167q-.079-.279-.15-.572c-.064-1.429-.15-2.809-.229-4.209a15.414,15.414,0,0,1,.4-2.144q.118-.439.257-.9a15.458,15.458,0,0,0,9.869-14.336,15.18,15.18,0,0,0-.958-5.317,6.773,6.773,0,0,0,.715-1.687,6.882,6.882,0,0,0-.958-4.945c-1.6-3.573-5.639-6.839-8.576-8.033-4.2-1.715-10.513-1.308-14.879-.786-2.451.293-5.253,1.122-6.139,3.388a23.487,23.487,0,0,0-.558,2.608c-.915,3.459-4.881,5.074-7.332,7.718-2.144,2.337-3.116,5.5-3.816,8.576a79.177,79.177,0,0,0-1.429,26.921c.25,2.072.579,4.131.929,6.189-1.472,2.073-2.8,5.717-2.194,12.149l-4.838,22.983-2.015,13.471a11.777,11.777,0,0,0,3.63,10.305,90.741,90.741,0,0,1,9.14,11.477,27.331,27.331,0,0,0-1.472,9.133c.05,1.429.129,2.78.229,4.081a36.329,36.329,0,0,0,1.544,8.076c.565,5.532,1.687,12.607,3.873,17.152l.808,24.17s-1.208,22.19-3.63,26.549,5.246,41.214,5.246,41.214v5.153l-1.294,3.773-.322-.243c-6.053,7.532,0,10.305,0,10.305s1.644.079,4.288.179a4.867,4.867,0,0,0,2.58,5.367s34.3,1.587,40.349,0,4.438-7.146,1.208-6.739a14.761,14.761,0,0,1-4.831-.636c1.887-2.208.379-5.2-2.023-4.91-3.23.393-10.491-2.48-10.491-2.48v.05a5.457,5.457,0,0,0-.715-.214,80.921,80.921,0,0,1-7.983-2.251c-1.558-3.337-5.145-12.314-2.573-19.3a34.649,34.649,0,0,0,1.544-11.392,130.129,130.129,0,0,1,5.31-36.147l4.838-16.63s6.861-20.21,7.261-25.728l-.057-8.09c5.674,3.652,10.177,2.544,13.057.85a3.109,3.109,0,0,0,.5-5.045Zm-53.849-42.036c.136-.579.25-1.215.35-1.88h2.859a14.724,14.724,0,0,1,1.429,7.8C638.278,528.814,635.005,527.113,635.827,523.611Z" transform="translate(-25.966 192.652)" fill="url(#linear-gradient-4)"/>
    <path id="Path_194383" data-name="Path 194383" d="M647.081,785.6l-1.551,4.66,5.045,5.045,16.694,3.881,12.035-1.165-.779-4.288h0a5.153,5.153,0,0,0-3.823-3.759c-4.945-1.165-14.379-3.809-16.366-7.5Z" transform="translate(-33.383 90.121)" fill="#db8b8b"/>
    <path id="Path_194384" data-name="Path 194384" d="M647.081,785.6l-1.551,4.66,5.045,5.045,16.694,3.881,12.035-1.165-.779-4.288h0a5.153,5.153,0,0,0-3.823-3.759c-4.945-1.165-14.379-3.809-16.366-7.5Z" transform="translate(-33.383 90.121)" opacity="0.1"/>
    <path id="Path_194385" data-name="Path 194385" d="M674.387,799.52l-2.33-3.109,2.33-3.573s6.989,2.823,10.091,2.43,4.66,5.046-1.165,6.6-38.827,0-38.827,0-5.824-2.716,0-10.091l5.045,3.881s8.576,4.66,12.814,3.88Z" transform="translate(-32.346 87.467)" fill="#474463"/>
    <path id="Path_194386" data-name="Path 194386" d="M688.52,805.645l-12.035,1.165-16.68-3.909-5.045-5,.414-1.236.579-1.729.565-1.694,11.256-3.109a6.975,6.975,0,0,0,2.28,2.287c3.659,2.5,10.227,4.288,14.079,5.21a4.035,4.035,0,0,1,.479.143,5.132,5.132,0,0,1,3.345,3.616Z" transform="translate(-36.016 87.938)" fill="#db8b8b"/>
    <path id="Path_194387" data-name="Path 194387" d="M688.52,808.253l-12.035,1.165-16.68-3.909-5.045-5,.414-1.236,4.638,3.573s8.576,4.66,12.814,3.881h12.035l-2.33-3.109,2.094-3.23A5.132,5.132,0,0,1,687.77,804Z" transform="translate(-36.016 85.33)" opacity="0.1"/>
    <path id="Path_194388" data-name="Path 194388" d="M683.618,807.12l-2.33-3.109,2.33-3.573s6.989,2.823,10.091,2.43,4.66,5.046-1.165,6.6-38.827,0-38.827,0-5.824-2.716,0-10.091l5.046,3.881s8.576,4.66,12.814,3.88Z" transform="translate(-34.98 85.298)" fill="#474463"/>
    <path id="Path_194389" data-name="Path 194389" d="M675.558,486.9s-18.638,1.944-15.915-5.824a13.977,13.977,0,0,0,.572-6.854,19,19,0,0,0-3.295-7.9l17.473,2.716a21.887,21.887,0,0,0-2.365,5.61C669.948,482.9,675.558,486.9,675.558,486.9Z" transform="translate(-36.633 180.332)" fill="#db8b8b"/>
    <path id="Path_194390" data-name="Path 194390" d="M638.46,619s.386,16.694,4.288,24.849l.779,23.684s-1.165,21.74-3.495,26.013,5.045,40.378,5.045,40.378v6.21s12.406,4.645,15.923-.786l-3.495-46.2,1.551-64.062Z" transform="translate(-31.365 136.769)" fill="#474463"/>
    <path id="Path_194391" data-name="Path 194391" d="M638.46,619s.386,16.694,4.288,24.849l.779,23.684s-1.165,21.74-3.495,26.013,5.045,40.378,5.045,40.378v6.21s12.406,4.645,15.923-.786l-3.495-46.2,1.551-64.062Z" transform="translate(-31.365 136.769)" opacity="0.1"/>
    <path id="Path_194392" data-name="Path 194392" d="M625.847,544l-2.33,6.21-1.944,13.2a11.677,11.677,0,0,0,3.495,10.091c4.66,4.66,10.87,14.365,10.87,14.365l7.375-22.154s-7.375-1.165-6.21-6.21.779-14.365.779-14.365Z" transform="translate(-26.513 158.17)" fill="#cbcdda"/>
    <path id="Path_194393" data-name="Path 194393" d="M625.847,543l-2.33,6.21-1.944,13.2a11.678,11.678,0,0,0,3.495,10.091c4.66,4.659,10.87,14.365,10.87,14.365l7.375-22.154s-7.375-1.165-6.21-6.21.779-14.364.779-14.364Z" transform="translate(-26.513 158.455)" opacity="0.05"/>
    <path id="Path_194394" data-name="Path 194394" d="M670.247,792.394c-5,7.861-12.728,3.395-14.107,2.508l.564-1.694L667.96,790.1A6.976,6.976,0,0,0,670.247,792.394Z" transform="translate(-36.41 87.946)" opacity="0.1"/>
    <path id="Path_194395" data-name="Path 194395" d="M680.315,622.964c-.386,5.438-6.989,25.234-6.989,25.234l-4.653,16.294a129.644,129.644,0,0,0-5.117,35.447,34.471,34.471,0,0,1-1.487,11.156c-3.109,8.576,3.109,20.189,3.109,20.189-5.438,9.705-14.75,3.109-14.75,3.109v-6.21s-7.375-33.775-5.439-40.378,2.716-24.463,2.716-24.463V631.118a36.568,36.568,0,0,1-10.656-23.183c-.093-1.272-.164-2.609-.214-3.995-.315-8.762,5.674-19.031,8.011-22.69.564-.886.915-1.379.915-1.379l34.3,13.578h.079v4.266Z" transform="translate(-30.898 147.934)" fill="#474463"/>
    <path id="Path_194396" data-name="Path 194396" d="M674.4,469.046a21.88,21.88,0,0,0-2.365,5.61,15.194,15.194,0,0,1-11.813-.429,19,19,0,0,0-3.295-7.9Z" transform="translate(-36.635 180.333)" opacity="0.1"/>
    <circle id="Ellipse_769" data-name="Ellipse 769" cx="15.144" cy="15.144" r="15.144" transform="translate(614.856 624.916)" fill="#db8b8b"/>
    <path id="Path_194397" data-name="Path 194397" d="M682.953,597.729h-.164c-16.28,3.344-36.719-13.621-36.719-13.621a20.116,20.116,0,0,0,1.429-2.859c.565-.886.915-1.379.915-1.379l34.3,13.578.086,1.358Z" transform="translate(-33.537 147.934)" opacity="0.1"/>
    <path id="Path_194398" data-name="Path 194398" d="M672.479,490.945s-21.74-13.2-28.729-7.768L634.045,495.6s-6.21,1.944-5.045,14.365l-4.66,22.519,13.979,3.495s8.154,7.768,1.551,19.024c0,0,20.575,17.08,36.883,13.578l-1.2-18.231s-3.495-10.091,2.716-19.41.386-18.245-5.438-21.74C672.872,509.2,670.149,494.439,672.479,490.945Z" transform="translate(-27.336 175.9)" fill="#cbcdda"/>
    <path id="Path_194399" data-name="Path 194399" d="M691.738,605.4s8.154,1.551,12.035,7.768a24.2,24.2,0,0,0,4.066,5.074,3.08,3.08,0,0,1-.479,4.91c-3.08,1.851-8.1,2.994-14.45-2.223C682.033,612,691.738,605.4,691.738,605.4Z" transform="translate(-45.431 140.65)" fill="#db8b8b"/>
    <path id="Path_194400" data-name="Path 194400" d="M670.44,504.783s-7.768-.779-9.705,19.41-5.045,24.849-5.045,24.849-1.944,10.484,2.716,16.694,13.578,19.41,13.578,19.41,9.7,2.716,11.649-6.989L671.6,555.638s-1.944-7.768,2.716-13.2S682.475,500.9,670.44,504.783Z" transform="translate(-36.167 169.443)" opacity="0.1"/>
    <path id="Path_194401" data-name="Path 194401" d="M671.53,503.154s-7.768-.779-9.705,19.41-5.046,24.849-5.046,24.849-1.944,10.484,2.716,16.694,13.578,19.41,13.578,19.41,9.705,2.716,11.649-6.989l-12.035-22.519s-1.937-7.761,2.716-13.171S683.565,499.266,671.53,503.154Z" transform="translate(-36.478 169.908)" fill="#cbcdda"/>
    <path id="Path_194402" data-name="Path 194402" d="M684.409,523.64s.779,12.035-2.716,18.638-3.495,15.143,0,19.8" transform="translate(-42.954 163.979)" opacity="0.1"/>
    <path id="Path_194403" data-name="Path 194403" d="M679.339,500.363s-3.109-3.109-12.035-3.495-12.814-3.109-12.814-3.109" transform="translate(-35.939 172.505)" opacity="0.1"/>
    <path id="Path_194404" data-name="Path 194404" d="M649.3,429.533c-2.358.293-5.053,1.1-5.9,3.316a23.371,23.371,0,0,0-.536,2.558c-.879,3.395-4.7,5-7.054,7.561-2.08,2.287-2.994,5.381-3.673,8.4a78.955,78.955,0,0,0-1.365,26.378c.757,6.432,2.308,12.778,2.737,19.246s-.357,13.271-3.895,18.7c-1.522,2.337-3.523,4.388-4.6,6.961,2.23,1.808,5.3,2.065,8.168,2.144q5,.171,10.005,0a10.681,10.681,0,0,0,5.1-1.058,7.861,7.861,0,0,0,2.673-2.859c1.908-3.245,2.394-7.147,2.308-10.9s-.679-7.5-.715-11.263c-.036-2.051.122-4.224,1.3-5.9a18.876,18.876,0,0,1,3.252-3.009c4.159-3.68,5.581-9.591,5.717-15.144s-.779-11.113-.307-16.644c.186-2.144.993-4.767,3.123-5.188a12.006,12.006,0,0,0,2.03-.257c1.708-.658,1.544-3.066,2.03-4.831.55-1.98,2.237-3.509,2.716-5.51,1.115-4.7-4.86-10.305-8.776-11.942C659.606,428.618,653.532,429.026,649.3,429.533Z" transform="translate(-27.527 190.959)" opacity="0.1"/>
    <path id="Path_194405" data-name="Path 194405" d="M648.8,428.442c-2.358.293-5.053,1.1-5.9,3.316a23.379,23.379,0,0,0-.536,2.558c-.879,3.395-4.7,5-7.054,7.561-2.08,2.287-2.994,5.381-3.673,8.4a78.959,78.959,0,0,0-1.365,26.378c.757,6.432,2.308,12.778,2.737,19.246s-.357,13.271-3.895,18.7c-1.522,2.337-3.523,4.388-4.6,6.961,2.23,1.808,5.3,2.065,8.168,2.144q5,.171,10.005,0a10.679,10.679,0,0,0,5.1-1.058,7.86,7.86,0,0,0,2.673-2.859c1.908-3.245,2.394-7.147,2.308-10.9s-.679-7.5-.715-11.263c-.036-2.051.122-4.224,1.3-5.9a18.868,18.868,0,0,1,3.252-3.009c4.159-3.68,5.581-9.591,5.717-15.144s-.779-11.113-.307-16.644c.186-2.144.993-4.767,3.123-5.188a12.014,12.014,0,0,0,2.03-.257c1.708-.657,1.544-3.066,2.03-4.831.55-1.98,2.237-3.509,2.716-5.51,1.115-4.7-4.86-10.305-8.776-11.942C659.078,427.527,653,427.927,648.8,428.442Z" transform="translate(-27.385 191.271)" fill="#472727"/>
    <path id="Path_194001" data-name="Path 194001" d="M973.7,50.833l-.162-.043c-1.163,4.576,11.82,22.971,22.921,37.573l.132-.106C980.933,67.64,972.805,54.347,973.7,50.833Z" transform="translate(-681.99 379.131)" fill="#444053"/>
    <path id="Path_194002" data-name="Path 194002" d="M921.135,110.66l-.066.186c8.865,11.672,20.019,25.61,28.944,35.928.851.981,1.7,2.018,2.505,3.067l.258-.211c-.815-1.055-1.667-2.092-2.518-3.1C941.335,136.232,930,122.326,921.135,110.66Z" transform="translate(-606.763 356.431)" fill="#444053"/>
    <path id="Path_194027" data-name="Path 194027" d="M214.007,842.278s-33.023-2.065-29.127,21.9c0,0-.768,4.234,2.936,6.157,0,0,.055-1.771,3.384-1.175a14.348,14.348,0,0,0,3.585.18,7.331,7.331,0,0,0,4.39-1.894h0s9.282-3.969,12.886-19.683c0,0,2.67-3.42,2.57-4.3l-5.579,2.463s1.911,4.159.412,7.625c0,0-.183-7.474-1.253-7.3-.22,0-2.9,1.449-2.9,1.449s3.283,7.246.8,12.522c0,0,.915-8.942-1.829-12l-3.923,2.368s3.8,7.53,1.244,13.621c0,0,.659-9.368-2.058-13.024l-3.557,2.842s3.594,7.379,1.408,12.446c0,0-.293-10.912-2.177-11.736,0,0-3.109,2.842-3.585,4.007,0,0,2.46,5.361.914,8.184,0,0-.914-7.265-1.7-7.3,0,0-3.1,4.821-3.42,8.118a17.9,17.9,0,0,1,2.67-8.582,9.193,9.193,0,0,0-4.746,2.548s.485-3.41,5.487-3.7c0,0,2.561-3.656,3.247-3.874,0,0-5-.436-8.029.947,0,0,2.67-3.211,8.944-1.752l3.512-2.964s-6.584-.947-9.374.094c0,0,3.21-2.841,10.316-.767l3.823-2.368s-5.606-1.25-8.953-.805c0,0,3.53-1.97,10.06.17l2.744-1.269s-4.106-.843-5.313-.947-1.271-.483-1.271-.483a13.814,13.814,0,0,1,7.728.89S214.1,842.657,214.007,842.278Z" transform="translate(265.704 17.488)" fill="#0d5bb9"/>
    <ellipse id="Ellipse_747" data-name="Ellipse 747" cx="23.366" cy="4.092" rx="23.366" ry="4.092" transform="translate(433.603 885.815)" fill="#0d5bb9" opacity="0.1"/>
    <path id="Path_194028" data-name="Path 194028" d="M151.949,843.629s-18.61-1.165-16.416,12.314a3.333,3.333,0,0,0,1.655,3.476s0-1,1.911-.663a8.343,8.343,0,0,0,2.021.1,4.124,4.124,0,0,0,2.469-1.061h0s5.231-2.235,7.27-11.092c0,0,1.5-1.895,1.445-2.435l-3.146,1.392a6,6,0,0,1,.229,4.3s-.1-4.215-.7-4.111c-.119,0-1.628.805-1.628.805s1.829,4.092.448,7.066c0,0,.53-5.039-1.024-6.763l-2.213,1.336s2.158,4.224.7,7.663c0,0,.375-5.286-1.161-7.341l-2,1.62s2.03,4.158.8,7.019c0,0-.165-6.147-1.225-6.63a12.321,12.321,0,0,0-2.021,2.264s1.381,3.022.521,4.613c0,0-.521-4.1-.914-4.111a13.806,13.806,0,0,0-1.93,4.575,10.184,10.184,0,0,1,1.509-4.84,5.251,5.251,0,0,0-2.68,1.43s.274-1.895,3.109-2.084a12.848,12.848,0,0,1,1.829-2.188,11.247,11.247,0,0,0-4.527.54s1.5-1.809,5.048-.947l1.975-1.667s-3.713-.53-5.286,0c0,0,1.829-1.6,5.816-.436l2.158-1.326a18.763,18.763,0,0,0-5.048-.455s1.984-1.108,5.679.095l1.536-.72s-2.314-.474-3-.54-.713-.275-.713-.275a7.833,7.833,0,0,1,4.353.5S152.013,843.837,151.949,843.629Z" transform="translate(241.911 30.415)" fill="#0d5bb9"/>
    <ellipse id="Ellipse_748" data-name="Ellipse 748" cx="13.178" cy="2.311" rx="13.178" ry="2.311" transform="translate(369.414 888.726)" fill="#0d5bb9" opacity="0.1"/>
    <path id="Path_194029" data-name="Path 194029" d="M190.376,813.388s-22.47-1.4-19.827,14.91a4.021,4.021,0,0,0,2,4.187s0-1.2,2.3-.8a9.991,9.991,0,0,0,2.442.123,4.993,4.993,0,0,0,2.981-1.279h0s6.319-2.7,8.779-13.394c0,0,1.829-2.33,1.738-2.936l-3.786,1.658s1.289,2.842.274,5.191c0,0-.119-5.086-.85-4.963-.146,0-1.975.947-1.975.947s2.231,4.935.549,8.525c0,0,.64-6.081-1.244-8.165l-2.67,1.62s2.606,5.1.841,9.254c0,0,.457-6.375-1.4-8.866l-2.414,1.961s2.442,5.02.915,8.468c0,0-.192-7.426-1.481-7.985a15.3,15.3,0,0,0-2.442,2.728s1.683,3.647.64,5.57c0,0-.64-4.944-1.161-4.973,0,0-2.1,3.278-2.323,5.532a12.28,12.28,0,0,1,1.829-5.844,6.25,6.25,0,0,0-3.228,1.733s.329-2.321,3.75-2.519a15.154,15.154,0,0,1,2.213-2.643,13.536,13.536,0,0,0-5.487.653s1.829-2.188,6.091-1.193l2.387-2.018s-4.481-.634-6.4.067c0,0,2.186-1.895,7.014-.521l2.67-1.611a23.1,23.1,0,0,0-6.1-.54s2.405-1.345,6.859.114l1.829-.862s-2.8-.578-3.612-.663-.915-.322-.915-.322a9.385,9.385,0,0,1,5.258.606S190.45,813.644,190.376,813.388Z" transform="translate(240.005 57.307)" fill="#0d5bb9"/>
    <ellipse id="Ellipse_749" data-name="Ellipse 749" cx="15.903" cy="2.785" rx="15.903" ry="2.785" transform="translate(399.004 888.425)" fill="#0d5bb9" opacity="0.1"/>
  </g>
</svg>
