<?xml version="1.0" encoding="UTF-8"?>
<svg width="22px" height="20px" viewBox="0 0 22 20" version="1.1" xmlns="http://www.w3.org/2000/svg" xmlns:xlink="http://www.w3.org/1999/xlink">
    <!-- Generator: Sketch 52.6 (67491) - http://www.bohemiancoding.com/sketch -->
    <title>Logo Gutenberg Bootstrap EXPORT WHITE</title>
    <desc>Created with Sketch.</desc>
    <g id="Page-1" stroke="none" stroke-width="1" fill="none" fill-rule="evenodd">
        <g id="Logo-Gutenberg-Bootstrap-EXPORT-WHITE" transform="translate(1.000000, 0.000000)">
            <path d="M19.142335,11.2216759 L19.3449913,11.3514135 C20.0110865,11.7778379 20.2003944,12.6558261 19.7678225,13.312455 C19.6614236,13.4739648 19.5227589,13.6124111 19.3602891,13.7193465 L12.1294478,18.4785894 C10.8402913,19.327095 9.15972678,19.3270938 7.87057147,18.4785864 L0.639692162,13.7193035 C-0.0208387714,13.2845495 -0.198786265,12.4042554 0.242235309,11.7531117 C0.350712615,11.5929509 0.491155042,11.4562571 0.654993469,11.3513704 L0.857647949,11.2216344 L7.87057147,15.8374613 C9.15972678,16.6859687 10.8402913,16.6859699 12.1294478,15.8374643 L19.142335,11.2216759 Z" id="Combined-Shape" stroke="#FFFFFF" stroke-width="0.769230769"></path>
            <path d="M19.142335,8.59776917 L19.3449913,8.72750681 C20.0110865,9.15393121 20.2003944,10.0319194 19.7678225,10.6885483 C19.6614236,10.8500581 19.5227589,10.9885044 19.3602891,11.0954398 L12.1294478,15.8546827 C10.8402913,16.7031883 9.15972678,16.7031871 7.87057147,15.8546797 L0.639692162,11.0953968 C-0.0208387714,10.6606428 -0.198786265,9.78034873 0.242235309,9.12920495 C0.350712615,8.96904421 0.491155042,8.83235036 0.654993469,8.72746373 L0.857647949,8.59772771 L7.87057147,13.2135546 C9.15972678,14.062062 10.8402913,14.0620632 12.1294478,13.2135576 L19.142335,8.59776917 Z" id="Combined-Shape" stroke="#FFFFFF" stroke-width="0.769230769"></path>
            <path d="M12.0886127,1.47906383 L19.3449913,6.12251295 C20.0110865,6.5487557 20.2003944,7.42636983 19.7678225,8.082719 C19.6614236,8.24416004 19.5227589,8.38254735 19.3602891,8.48943724 L12.1294478,13.2466527 C10.8402913,14.0947968 9.15972678,14.0947956 7.87057147,13.2466497 L0.639692162,8.4893942 C-0.0208387714,8.05482543 -0.198786265,7.17490636 0.242235309,6.52403996 C0.350712615,6.36394746 0.491155042,6.22731183 0.654993469,6.12246988 L7.91133376,1.47906071 C9.18158395,0.666214148 10.8183638,0.666215348 12.0886127,1.47906383 Z" id="Top-shape" stroke="#FFFFFF" stroke-width="0.769230769"></path>
            <path d="M12.4594976,4.26326565 C12.2542586,4.28875555 12.1219321,4.41808069 12.1605064,4.55034344 C12.402107,5.33108624 11.413067,6.01912437 11.3591688,6.05387909 L11.3346919,6.06966234 C10.0668368,6.88720293 10.6593013,7.89425351 10.6835839,7.93516463 C10.7613054,8.06104074 10.9809066,8.12057151 11.1715674,8.07305469 C11.2204565,8.06038631 11.2693671,8.04141858 11.3035858,8.01935359 C11.4064378,7.95303239 11.44586,7.85218671 11.3875199,7.75781119 C11.3827167,7.74833751 10.9747867,7.05599112 11.7827408,6.47215024 L13.1620231,7.36154151 C13.4250077,7.57537589 13.5170324,7.81773797 13.4427753,8.09189674 C13.3636992,8.37544842 13.108729,8.65928231 12.6828307,8.93391079 C12.173662,9.26223388 11.5820981,9.41741098 10.9276989,9.39311479 C10.2683553,9.37200687 9.61945038,9.15560436 8.98585779,8.74705007 L7.47013094,7.76336311 C6.93412211,7.38616645 6.64236414,7.00232232 6.61439542,6.61180288 C6.58166089,6.18664381 6.81736766,5.80837874 7.32653641,5.48005565 C7.7524347,5.20542715 8.19260886,5.04101683 8.63234539,4.99002683 C9.07213086,4.93900525 9.46755561,5.00458477 9.81370259,5.19622139 L9.84781913,5.21822048 C10.0330231,5.33764405 10.3359164,5.33718083 10.5219409,5.21722816 C10.7079165,5.09730704 10.7086349,4.90199488 10.5234309,4.78257131 L10.4893144,4.76057224 C9.95785539,4.48100891 9.35740763,4.37792555 8.6732791,4.44822491 C7.98924851,4.51846115 7.35342603,4.74617525 6.7562383,5.13125491 C6.04640782,5.58896904 5.70754097,6.10917938 5.73486187,6.68868008 C5.75746593,7.23350962 6.11230243,7.74010106 6.78965115,8.20843674 C6.83838905,8.23986399 6.88223155,8.27444791 6.93096945,8.30587517 L8.30539961,9.18582434 L8.30050422,9.18898098 C9.0754367,9.68867431 9.91470014,9.94575122 10.8133502,9.96339991 C11.7120493,9.98101703 12.5187999,9.76250831 13.2286304,9.30479415 C13.8258181,8.91971452 14.1789608,8.50972234 14.2878843,8.06864453 C14.3870069,7.66531373 14.2563158,7.30331925 13.9008531,6.97940968 L12.3852184,5.9830924 C12.7234748,5.62669736 13.0868128,5.07813659 12.8935455,4.46107635 C12.8696085,4.31937523 12.6696319,4.23461909 12.4594976,4.26326565 Z" id="Path" fill="#FFFFFF"></path>
        </g>
    </g>
</svg>