<svg xmlns="http://www.w3.org/2000/svg" width="24.009" height="24.009" viewBox="0 0 24.009 24.009">
  <g id="icons8-google" transform="translate(-4 -4)">
    <path id="Path_193401" data-name="Path 193401" d="M27.776,13.653h-.967V13.6H16v4.8h6.784a7.208,7.208,0,1,1-2.006-7.78l3.4-3.4A11.992,11.992,0,1,0,28.009,16,12.086,12.086,0,0,0,27.776,13.653Z" fill="#ffc107"/>
    <path id="Path_193402" data-name="Path 193402" d="M6.306,10.417,10.25,13.31A7.188,7.188,0,0,1,21.7,10.626l3.4-3.4A11.981,11.981,0,0,0,6.306,10.417Z" transform="translate(-0.922)" fill="#ff3d00"/>
    <path id="Path_193403" data-name="Path 193403" d="M16.882,37.625a11.948,11.948,0,0,0,8.048-3.116l-3.715-3.144A7.184,7.184,0,0,1,10.11,28.054L6.2,31.07A12,12,0,0,0,16.882,37.625Z" transform="translate(-0.878 -9.616)" fill="#4caf50"/>
    <path id="Path_193404" data-name="Path 193404" d="M35.771,20.05H34.8V20H24v4.8h6.784a7.227,7.227,0,0,1-2.453,3.344h0l3.715,3.144A11.612,11.612,0,0,0,36,22.4,12.087,12.087,0,0,0,35.771,20.05Z" transform="translate(-7.995 -6.396)" fill="#1976d2"/>
  </g>
</svg>
