<svg xmlns="http://www.w3.org/2000/svg" width="103.229" height="95.807" viewBox="0 0 103.229 95.807">
  <g id="earth_3.1" data-name="earth 3.1" transform="translate(1.18 -2.667)">
    <path id="Path_6384" data-name="Path 6384" d="M132.2,112.264a30.342,30.342,0,1,1-30.342-30.342A30.343,30.343,0,0,1,132.2,112.264Zm0,0" transform="translate(-53.952 -61.693)" fill="#94c1ff" fill-rule="evenodd"/>
    <path id="Path_6385" data-name="Path 6385" d="M96.716,139.151a32.028,32.028,0,1,1,32.028-32.028A32.065,32.065,0,0,1,96.716,139.151Zm0-60.686a28.657,28.657,0,1,0,28.657,28.657A28.69,28.69,0,0,0,96.716,78.465Zm0,0" transform="translate(-48.81 -56.551)" fill="#0e65e5"/>
    <path id="Path_6386" data-name="Path 6386" d="M158.756,107.012a1.686,1.686,0,0,1-.537-3.284,25.556,25.556,0,0,1,13.486-.733,1.686,1.686,0,1,1-.72,3.294,22.162,22.162,0,0,0-11.692.635,1.686,1.686,0,0,1-.537.089Zm0,0" transform="translate(-118.381 -77.127)" fill="#fff"/>
    <path id="Path_6387" data-name="Path 6387" d="M76.391,117.549c2.613.554,5.062,1.4,5.709,2.7,1.537,3.072,4.61,3.072,7.682,0s7.682-6.145,3.073-10.755c-2.3-2.3-3.057-6.1-3.237-9.32A30.4,30.4,0,0,0,76.391,117.549Zm0,0" transform="translate(-57.623 -75.437)" fill="#d7e9ff" fill-rule="evenodd"/>
    <path id="Path_6388" data-name="Path 6388" d="M80.212,119.094a4.991,4.991,0,0,1-.8-.064,5.47,5.47,0,0,1-3.966-3.172c0-.009-.516-.948-4.55-1.8a1.686,1.686,0,0,1-1.27-2.119A31.994,31.994,0,0,1,83.589,93.6a1.686,1.686,0,0,1,2.569,1.341c.148,2.646.745,6.22,2.745,8.223a7.121,7.121,0,0,1,2.443,5.091c-.043,2.872-2.335,5.03-4.358,6.935-.4.372-.788.742-1.157,1.111a8.27,8.27,0,0,1-5.619,2.8Zm-6.8-7.895c2.752.776,4.376,1.794,5.055,3.151a2.17,2.17,0,0,0,1.489,1.352c.925.154,2.2-.5,3.493-1.79.393-.393.81-.786,1.231-1.183,1.611-1.517,3.277-3.085,3.3-4.531a4,4,0,0,0-1.456-2.657A13.476,13.476,0,0,1,83.1,98.01,28.585,28.585,0,0,0,73.409,111.2Zm0,0" transform="translate(-52.48 -70.295)" fill="#0e65e5"/>
    <path id="Path_6389" data-name="Path 6389" d="M136.545,227.711s3.072-9.218,0-10.755-6.145,0-7.682-4.609,0-6.145,4.609-7.682,10.754,0,12.291,6.145-1.537,9.217-3.072,15.364c-1.118,4.472-6.145,1.537-6.145,1.537Zm0,0" transform="translate(-96.705 -153.71)" fill="#d7e9ff" fill-rule="evenodd"/>
    <path id="Path_6390" data-name="Path 6390" d="M134.62,225.2a8.964,8.964,0,0,1-4.079-1.172,1.687,1.687,0,0,1-.749-1.989c1.378-4.146,1.62-8.327.845-8.715a8.793,8.793,0,0,0-2.471-.687c-2.093-.368-4.7-.828-6.056-4.9-.638-1.914-1.192-4.378.2-6.461,1.151-1.726,3.313-2.63,5.48-3.353a12.1,12.1,0,0,1,9.49.722,10.1,10.1,0,0,1,4.968,6.613c1.175,4.7-.071,7.868-1.391,11.224a38.588,38.588,0,0,0-1.681,4.958,4.649,4.649,0,0,1-2.672,3.4,4.8,4.8,0,0,1-1.88.359Zm-3.229-2.628h.016Zm2.054-.946a2.846,2.846,0,0,0,1.75.108c.119-.05.481-.205.706-1.107a42.328,42.328,0,0,1,1.815-5.374c1.26-3.2,2.17-5.52,1.258-9.172a6.718,6.718,0,0,0-3.319-4.476,8.672,8.672,0,0,0-6.8-.479c-2.125.708-3.279,1.333-3.74,2.025-.28.42-.564,1.241.2,3.525.721,2.164,1.573,2.314,3.442,2.643a11.709,11.709,0,0,1,3.4.992c3.451,1.726,2.248,7.954,1.3,11.316Zm0,0" transform="translate(-91.55 -148.57)" fill="#0e65e5"/>
    <path id="Path_6391" data-name="Path 6391" d="M208.924,99.633c-4.586,4.484-9.569,10.088-6.867,10.989a64.541,64.541,0,0,1,7.682,3.073s-1.537,4.609-6.145,4.609-10.754,0-10.754,1.537,9.217,7.682,9.217,9.218,1.987,8.131,3.073,9.217c1.537,1.537,6.145,3.073,7.682-3.072s0-10.755,3.072-12.291c1.718-.858,3.915-5.039,5.519-8.56a30.445,30.445,0,0,0-12.48-14.72Zm0,0" transform="translate(-145.318 -75.031)" fill="#d7e9ff" fill-rule="evenodd"/>
    <path id="Path_6392" data-name="Path 6392" d="M203.341,136.194a6.715,6.715,0,0,1-4.548-1.867c-1.424-1.425-3.348-7.883-3.549-10.082a36.364,36.364,0,0,0-4.02-3.643c-3.864-3.219-5.216-4.474-5.216-5.9,0-3.072,4.495-3.222,12.441-3.222a4.606,4.606,0,0,0,3.84-2.129c-1.311-.575-3.378-1.425-5.909-2.269a2.7,2.7,0,0,1-1.843-1.959c-.367-1.593.3-4.247,8.064-11.834a1.686,1.686,0,0,1,2.053-.236,32.293,32.293,0,0,1,13.172,15.536,1.691,1.691,0,0,1-.033,1.325c-3.29,7.22-5.171,8.8-6.3,9.369-.945.471-1.107,1.639-1.3,4.608a35.685,35.685,0,0,1-.891,6.584c-.949,3.8-2.973,5.1-4.5,5.527a5.4,5.4,0,0,1-1.458.2Zm-13.217-21c.879.84,2.245,1.977,3.257,2.823,3.864,3.219,5.216,4.473,5.216,5.9,0,1.209,1.828,7.128,2.6,8.046a3.158,3.158,0,0,0,2.7.787c1.206-.335,1.825-1.868,2.133-3.1a32.444,32.444,0,0,0,.8-5.985c.2-3.1.393-6.022,3.156-7.4.154-.078,1.553-.917,4.434-7.089a28.927,28.927,0,0,0-10.412-12.539c-4.526,4.537-5.733,6.624-6.057,7.416a64.721,64.721,0,0,1,7.4,2.994,1.685,1.685,0,0,1,.846,2.04c-.078.235-1.986,5.762-7.745,5.762a66.974,66.974,0,0,0-8.324.341Zm0,0" transform="translate(-140.173 -69.889)" fill="#0e65e5"/>
    <path id="Path_6393" data-name="Path 6393" d="M8.124,106.613a7.716,7.716,0,0,1-5.694-2.04c-7.89-7.889,9.243-31.359,14.683-38.365a1.686,1.686,0,0,1,2.663,2.067C5.1,87.18,1.731,99.106,4.814,102.189c4.329,4.333,26.09-4.876,54.087-32.87S96.107,19.568,91.772,15.231c-3.077-3.073-14.974.275-33.831,14.9a1.685,1.685,0,1,1-2.065-2.663c6.989-5.42,30.408-22.488,38.281-14.618,8.438,8.438-10.638,36.621-32.871,58.855C42.731,90.256,20.033,106.613,8.124,106.613Zm0,0" transform="translate(-0.388 -8.139)" fill="#fff"/>
    <path id="Path_6394" data-name="Path 6394" d="M88.473,106.606c-11.907,0-34.6-16.355-53.16-34.911C13.078,49.462-6,21.279,2.441,12.841c7.873-7.875,31.292,9.2,38.281,14.618a1.685,1.685,0,0,1-2.066,2.663C19.8,15.5,7.9,12.151,4.825,15.224.49,19.561,9.7,41.316,37.7,69.312s49.752,37.2,54.087,32.87c3.083-3.082-.285-15.01-14.961-33.914A1.686,1.686,0,1,1,79.485,66.2c5.438,7.006,22.572,30.475,14.683,38.365a7.73,7.73,0,0,1-5.695,2.04Zm0,0" transform="translate(-0.399 -8.133)" fill="#fff"/>
    <path id="Path_6395" data-name="Path 6395" d="M351.239,68.184a6.743,6.743,0,1,1-6.742-6.742A6.743,6.743,0,0,1,351.239,68.184Zm0,0" transform="translate(-316.448 19.73)" fill="#94c1ff" fill-rule="evenodd"/>
    <path id="Path_6396" data-name="Path 6396" d="M339.356,71.47a8.428,8.428,0,1,1,8.428-8.428A8.439,8.439,0,0,1,339.356,71.47Zm0-13.486a5.057,5.057,0,1,0,5.056,5.057A5.063,5.063,0,0,0,339.356,57.985Zm0,0" transform="translate(-311.307 24.872)" fill="#fff"/>
    <path id="Path_6397" data-name="Path 6397" d="M119.134,218.369a6.743,6.743,0,1,1-6.743-6.743A6.743,6.743,0,0,1,119.134,218.369Zm0,0" transform="translate(-85.657 -206.369)" fill="#d7e9ff" fill-rule="evenodd"/>
    <g id="Group_433" data-name="Group 433" transform="translate(10.82 0)">
      <path id="Path_6398" data-name="Path 6398" d="M107.249,221.657a8.428,8.428,0,1,1,8.428-8.428A8.439,8.439,0,0,1,107.249,221.657Zm0-13.486a5.057,5.057,0,1,0,5.057,5.057A5.063,5.063,0,0,0,107.249,208.172Zm0,0" transform="translate(-91.335 -201.229)" fill="#fff"/>
      <path id="Path_6399" data-name="Path 6399" d="M78.173,20.4a6.743,6.743,0,1,1-6.742-6.743A6.742,6.742,0,0,1,78.173,20.4Zm0,0" transform="translate(11.37 64.719)" fill="#fff" fill-rule="evenodd"/>
      <path id="Path_6400" data-name="Path 6400" d="M66.289,23.685a8.428,8.428,0,1,1,8.428-8.428A8.439,8.439,0,0,1,66.289,23.685Zm0-13.486a5.057,5.057,0,1,0,5.056,5.057A5.063,5.063,0,0,0,66.289,10.2Zm0,0" transform="translate(16.512 69.858)" fill="#fff"/>
      <path id="Path_6401" data-name="Path 6401" d="M282.974,348.076a6.743,6.743,0,1,1-6.743-6.743A6.743,6.743,0,0,1,282.974,348.076Zm0,0" transform="translate(-265.86 -303.048)" fill="#fff" fill-rule="evenodd"/>
      <path id="Path_6402" data-name="Path 6402" d="M271.089,351.364a8.428,8.428,0,1,1,8.428-8.428A8.439,8.439,0,0,1,271.089,351.364Zm0-13.486a5.057,5.057,0,1,0,5.057,5.057A5.063,5.063,0,0,0,271.089,337.879Zm0,0" transform="translate(-260.718 -297.908)" fill="#fff"/>
      <path id="Path_6403" data-name="Path 6403" d="M223.385,10.114A1.687,1.687,0,0,1,221.7,8.428V1.686a1.686,1.686,0,0,1,3.372,0V8.428A1.687,1.687,0,0,1,223.385,10.114Zm0,0" transform="translate(-153.871 13)" fill="#fff"/>
      <path id="Path_6404" data-name="Path 6404" d="M216.476,17.024h-6.742a1.686,1.686,0,1,1,0-3.372h6.742a1.686,1.686,0,1,1,0,3.372Zm0,0" transform="translate(-143.59 2.719)" fill="#fff"/>
      <path id="Path_6405" data-name="Path 6405" d="M59.545,330.966a1.686,1.686,0,0,1-1.686-1.685v-6.743a1.686,1.686,0,1,1,3.372,0v6.743A1.686,1.686,0,0,1,59.545,330.966Zm0,0" transform="translate(-66.488 -277.624)" fill="#fff"/>
      <path id="Path_6406" data-name="Path 6406" d="M52.635,337.879H45.893a1.686,1.686,0,1,1,0-3.371h6.742a1.686,1.686,0,1,1,0,3.371Zm0,0" transform="translate(-56.207 -287.908)" fill="#fff"/>
    </g>
  </g>
</svg>
