<svg xmlns="http://www.w3.org/2000/svg" width="99.082" height="99.549" viewBox="0 0 99.082 99.549"><defs><style>.a{fill:#0e65e5;}.b{fill:#94c1ff;}.b,.d{fill-rule:evenodd;}.c{fill:#fff;}.d{fill:#d7e9ff;}</style></defs><path class="a" d="M121.861,151.76a31.271,31.271,0,1,1,31.271-31.271A31.306,31.306,0,0,1,121.861,151.76Zm0-59.25a27.979,27.979,0,1,0,27.978,27.979A28.011,28.011,0,0,0,121.861,92.51Zm0,0" transform="translate(-72.275 -67.709)"/><path class="b" d="M143.011,125.671a29.625,29.625,0,1,1-29.625-29.624A29.625,29.625,0,0,1,143.011,125.671Zm0,0" transform="translate(-63.678 -72.891)"/><path class="a" d="M108.208,151.76a31.271,31.271,0,1,1,31.271-31.271A31.306,31.306,0,0,1,108.208,151.76Zm0-59.25a27.979,27.979,0,1,0,27.979,27.979A28.01,28.01,0,0,0,108.208,92.51Zm0,0" transform="translate(-58.5 -67.709)"/><path class="c" d="M164.666,114.649a1.646,1.646,0,0,1-.591-3.182,26.589,26.589,0,0,1,16.417-.823,1.646,1.646,0,0,1-.867,3.176,23.311,23.311,0,0,0-14.366.719,1.671,1.671,0,0,1-.591.109Zm0,0" transform="translate(-123.829 -83.269)"/><path class="d" d="M88.637,131.262c2.552.541,4.942,1.369,5.575,2.634,1.5,3,4.5,3,7.5,0s7.5-6,3-10.5c-2.246-2.246-2.983-5.951-3.16-9.1a29.688,29.688,0,0,0-12.915,16.966Zm0,0" transform="translate(-67.378 -86.741)"/><path class="a" d="M92.2,132.619a4.86,4.86,0,0,1-.778-.063,5.336,5.336,0,0,1-3.872-3.1c0-.008-.5-.925-4.444-1.758a1.648,1.648,0,0,1-1.241-2.069A31.247,31.247,0,0,1,95.5,107.725a1.645,1.645,0,0,1,2.508,1.308c.146,2.584.728,6.074,2.682,8.026a6.954,6.954,0,0,1,2.385,4.973c-.043,2.8-2.282,4.913-4.258,6.772-.386.362-.768.722-1.128,1.082a8.07,8.07,0,0,1-5.486,2.732Zm-6.643-7.707c2.69.756,4.275,1.751,4.938,3.075a2.124,2.124,0,0,0,1.455,1.321c.9.134,2.152-.49,3.409-1.749.382-.382.789-.766,1.2-1.151,1.573-1.481,3.2-3.013,3.223-4.428a3.909,3.909,0,0,0-1.421-2.594,13.168,13.168,0,0,1-3.339-7.353,27.917,27.917,0,0,0-9.464,12.878Zm0,0" transform="translate(-62.193 -81.568)"/><path class="d" d="M148.6,241.278s3-9,0-10.5-6,0-7.5-4.5,0-6,4.5-7.5,10.5,0,12,6-1.5,9-3,15c-1.091,4.366-6,1.5-6,1.5Zm0,0" transform="translate(-106.767 -165.622)"/><path class="a" d="M146.6,238.661a8.723,8.723,0,0,1-3.983-1.146,1.646,1.646,0,0,1-.733-1.94c1.347-4.049,1.583-8.131.826-8.509a8.513,8.513,0,0,0-2.413-.671c-2.045-.36-4.588-.808-5.911-4.779-1.932-5.8.688-7.964,5.54-9.583a11.8,11.8,0,0,1,9.271.706,9.855,9.855,0,0,1,4.846,6.456c1.147,4.589-.07,7.683-1.359,10.96a38.346,38.346,0,0,0-1.642,4.84,4.534,4.534,0,0,1-2.607,3.316,4.7,4.7,0,0,1-1.835.35Zm-3.153-2.567h.016Zm2-.924a2.778,2.778,0,0,0,1.71.106c.116-.05.47-.2.689-1.08a41.048,41.048,0,0,1,1.771-5.245c1.231-3.13,2.12-5.392,1.23-8.959a6.56,6.56,0,0,0-3.239-4.368,8.482,8.482,0,0,0-6.644-.47c-4.03,1.346-4.548,2.156-3.461,5.42.7,2.112,1.537,2.258,3.361,2.58a11.4,11.4,0,0,1,3.314.967c3.37,1.686,2.2,7.766,1.268,11.048Zm0,0" transform="translate(-101.611 -160.439)"/><path class="d" d="M220.791,113.758c-4.477,4.378-9.343,9.851-6.7,10.73a63.206,63.206,0,0,1,7.5,3s-1.5,4.5-6,4.5-10.5,0-10.5,1.5,9,7.5,9,9,1.939,7.94,3,9c1.5,1.5,6,3,7.5-3s0-10.5,3-12c1.677-.839,3.822-4.921,5.389-8.357a29.728,29.728,0,0,0-12.184-14.373Zm0,0" transform="translate(-155.754 -86.332)"/><path class="a" d="M215.183,149.3a6.551,6.551,0,0,1-4.439-1.824c-1.39-1.387-3.271-7.695-3.467-9.841a35.233,35.233,0,0,0-3.921-3.555c-3.775-3.145-5.094-4.371-5.094-5.767,0-3,4.389-3.145,12.147-3.145a4.5,4.5,0,0,0,3.749-2.078c-1.281-.56-3.3-1.39-5.771-2.215a2.63,2.63,0,0,1-1.8-1.912c-.358-1.558.3-4.147,7.874-11.555a1.653,1.653,0,0,1,2-.231,31.519,31.519,0,0,1,12.859,15.169,1.645,1.645,0,0,1-.031,1.293c-3.209,7.047-5.047,8.6-6.149,9.148-.923.461-1.082,1.6-1.271,4.5A34.863,34.863,0,0,1,221,143.71c-.928,3.712-2.9,4.986-4.4,5.4a5.3,5.3,0,0,1-1.423.189Zm-12.9-20.507c.858.821,2.192,1.933,3.182,2.759,3.771,3.143,5.09,4.367,5.09,5.762,0,1.18,1.786,6.958,2.538,7.855a3.065,3.065,0,0,0,2.637.769c1.178-.326,1.783-1.824,2.083-3.023a31.834,31.834,0,0,0,.778-5.843c.2-3.025.383-5.882,3.083-7.231.151-.075,1.518-.9,4.328-6.921a28.242,28.242,0,0,0-10.164-12.242c-4.42,4.431-5.6,6.467-5.915,7.24a63.343,63.343,0,0,1,7.223,2.922,1.646,1.646,0,0,1,.825,1.994c-.076.23-1.94,5.625-7.56,5.625a65.221,65.221,0,0,0-8.128.332Zm0,0" transform="translate(-150.574 -81.156)"/><path class="a" d="M20.191,118.465a7.542,7.542,0,0,1-5.559-1.991c-7.7-7.7,9.025-30.618,14.335-37.457a1.646,1.646,0,1,1,2.6,2.018c-14.331,18.456-17.618,30.1-14.608,33.112,4.237,4.233,25.475-4.761,52.807-32.094s36.327-48.574,32.094-52.808c-3.007-3.005-14.624.268-33.029,14.544a1.646,1.646,0,1,1-2.018-2.6C73.637,35.9,96.5,19.23,104.188,26.918c8.238,8.239-10.387,35.755-32.094,57.462-18.115,18.115-40.277,34.085-51.9,34.085Zm0,0" transform="translate(-9.702 -18.916)"/><path class="b" d="M363.17,82.149a6.583,6.583,0,1,1-6.584-6.583A6.584,6.584,0,0,1,363.17,82.149Zm0,0" transform="translate(-265.733 -57.348)"/><path class="a" d="M351.405,85.2a8.229,8.229,0,1,1,8.229-8.229A8.238,8.238,0,0,1,351.405,85.2Zm0-13.167a4.938,4.938,0,1,0,4.938,4.938A4.943,4.943,0,0,0,351.405,72.03Zm0,0" transform="translate(-260.552 -52.166)"/><path class="d" d="M28.844,24.695A12.87,12.87,0,0,1,14.253,6.824,12.879,12.879,0,1,0,31.9,23.564a12.841,12.841,0,0,1-3.055,1.131Zm0,0" transform="translate(-5.635 -5.179)"/><g transform="translate(0 0)"><path class="a" d="M14.991,27.613A14.525,14.525,0,0,1,8.322.182a1.647,1.647,0,0,1,2.255,2.142,11.133,11.133,0,0,0-.733,7.121,11.19,11.19,0,0,0,16.122,7.477,1.646,1.646,0,0,1,2.255,2.142,14.52,14.52,0,0,1-13.232,8.55ZM6.307,5.956A11.238,11.238,0,0,0,22.578,21.377a14.54,14.54,0,0,1-15.942-11.2,14.363,14.363,0,0,1-.33-4.219Zm17.362,13.56h.016Zm0,0" transform="translate(-0.459 0.001)"/><path class="a" d="M160.5,10.348A1.645,1.645,0,0,1,158.856,8.7V2.119a1.646,1.646,0,1,1,3.291,0V8.7A1.645,1.645,0,0,1,160.5,10.348Zm0,0" transform="translate(-120.669 -0.359)"/><path class="a" d="M153.432,17.416h-6.584a1.646,1.646,0,0,1,0-3.291h6.584a1.646,1.646,0,1,1,0,3.291Zm0,0" transform="translate(-110.307 -10.719)"/><path class="a" d="M30.795,153.707a1.645,1.645,0,0,1-1.646-1.646v-6.583a1.646,1.646,0,1,1,3.291,0v6.583A1.645,1.645,0,0,1,30.795,153.707Zm0,0" transform="translate(-22.232 -109.156)"/><path class="a" d="M23.725,160.777H17.142a1.646,1.646,0,1,1,0-3.292h6.583a1.646,1.646,0,1,1,0,3.292Zm0,0" transform="translate(-11.871 -119.517)"/><path class="a" d="M365.3,283.414a1.645,1.645,0,0,1-1.645-1.646v-6.583a1.646,1.646,0,1,1,3.291,0v6.583A1.645,1.645,0,0,1,365.3,283.414Zm0,0" transform="translate(-276.094 -207.592)"/><path class="a" d="M358.233,290.484h-6.584a1.646,1.646,0,0,1,0-3.292h6.584a1.646,1.646,0,0,1,0,3.292Zm0,0" transform="translate(-265.734 -217.954)"/></g><path class="a" d="M283.381,290.241a1.645,1.645,0,0,1-1.646-1.645v-6.584a1.646,1.646,0,0,1,3.292,0V288.6A1.645,1.645,0,0,1,283.381,290.241Zm0,0" transform="translate(-217.923 -194.774)"/><path class="a" d="M276.311,297.311h-6.583a1.646,1.646,0,1,1,0-3.291h6.583a1.646,1.646,0,1,1,0,3.291Zm0,0" transform="translate(-207.562 -205.135)"/></svg>