<svg id="earth_1.1" data-name="earth 1.1" xmlns="http://www.w3.org/2000/svg" width="99.55" height="99.757" viewBox="0 0 99.55 99.757">
  <path id="Path_6323" data-name="Path 6323" d="M160.47,127.575a31.528,31.528,0,1,1-31.528-31.528A31.528,31.528,0,0,1,160.47,127.575Zm0,0" transform="translate(-79.297 -77.799)" fill="#0e65e5" fill-rule="evenodd"/>
  <path id="Path_6325" data-name="Path 6325" d="M146.817,127.575a31.528,31.528,0,1,1-31.529-31.528A31.528,31.528,0,0,1,146.817,127.575Zm0,0" transform="translate(-65.513 -77.799)" fill="#94c1ff" fill-rule="evenodd"/>
  <path id="Path_6326" data-name="Path 6326" d="M110.216,155.778A33.279,33.279,0,1,1,143.5,122.5,33.317,33.317,0,0,1,110.216,155.778Zm0-63.056A29.777,29.777,0,1,0,139.993,122.5,29.81,29.81,0,0,0,110.216,92.722Zm0,0" transform="translate(-60.44 -72.723)" fill="#0e65e5"/>
  <path id="Path_6327" data-name="Path 6327" d="M164.772,114.965a1.752,1.752,0,0,1-.629-3.387,28.3,28.3,0,0,1,17.471-.876,1.752,1.752,0,1,1-.923,3.381,24.808,24.808,0,0,0-15.289.766,1.778,1.778,0,0,1-.629.116Zm0,0" transform="translate(-124.436 -87.965)" fill="#fff"/>
  <path id="Path_6328" data-name="Path 6328" d="M88.637,132.352c2.716.575,5.26,1.457,5.933,2.8,1.6,3.193,4.789,3.193,7.982,0s7.981-6.385,3.192-11.174c-2.39-2.39-3.175-6.333-3.363-9.685A31.6,31.6,0,0,0,88.637,132.352Zm0,0" transform="translate(-69.137 -91.366)" fill="#d7e9ff" fill-rule="evenodd"/>
  <path id="Path_6329" data-name="Path 6329" d="M92.872,134.234a5.173,5.173,0,0,1-.828-.067,5.679,5.679,0,0,1-4.12-3.3c-.005-.009-.536-.984-4.73-1.871a1.754,1.754,0,0,1-1.321-2.2A33.254,33.254,0,0,1,96.38,107.74a1.751,1.751,0,0,1,2.669,1.392c.155,2.75.775,6.464,2.854,8.542a7.4,7.4,0,0,1,2.539,5.293c-.046,2.984-2.428,5.229-4.531,7.207-.411.385-.818.769-1.2,1.152a8.589,8.589,0,0,1-5.838,2.908Zm-7.07-8.2c2.862.8,4.549,1.863,5.255,3.272a2.26,2.26,0,0,0,1.548,1.406c.959.142,2.29-.521,3.628-1.861.407-.407.84-.815,1.276-1.225,1.674-1.577,3.407-3.206,3.43-4.713a4.16,4.16,0,0,0-1.512-2.76,14.014,14.014,0,0,1-3.553-7.826A29.71,29.71,0,0,0,85.8,126.031Zm0,0" transform="translate(-64.058 -86.298)" fill="#0e65e5"/>
  <path id="Path_6330" data-name="Path 6330" d="M149.118,242.758s3.193-9.578,0-11.175-6.384,0-7.981-4.789,0-6.385,4.789-7.982,11.174,0,12.771,6.385-1.6,9.577-3.192,15.964c-1.162,4.646-6.386,1.6-6.386,1.6Zm0,0" transform="translate(-107.722 -168.638)" fill="#d7e9ff" fill-rule="evenodd"/>
  <path id="Path_6331" data-name="Path 6331" d="M147.423,240.411a9.284,9.284,0,0,1-4.238-1.22,1.752,1.752,0,0,1-.78-2.065c1.433-4.309,1.685-8.653.879-9.055a9.06,9.06,0,0,0-2.568-.714c-2.176-.383-4.883-.86-6.291-5.086-2.056-6.17.733-8.476,5.9-10.2a12.563,12.563,0,0,1,9.866.752,10.488,10.488,0,0,1,5.158,6.87c1.221,4.884-.074,8.176-1.446,11.664a40.811,40.811,0,0,0-1.748,5.15,4.825,4.825,0,0,1-2.774,3.529,5.006,5.006,0,0,1-1.953.373Zm-3.355-2.732h.017Zm2.133-.983a2.956,2.956,0,0,0,1.82.113c.123-.053.5-.212.734-1.15a43.686,43.686,0,0,1,1.885-5.582c1.31-3.331,2.256-5.739,1.309-9.534A6.982,6.982,0,0,0,148.5,215.9a9.027,9.027,0,0,0-7.071-.5c-4.289,1.432-4.84,2.294-3.683,5.768.75,2.248,1.636,2.4,3.577,2.746a12.138,12.138,0,0,1,3.527,1.029c3.586,1.794,2.336,8.264,1.349,11.757Zm0,0" transform="translate(-102.672 -163.56)" fill="#0e65e5"/>
  <path id="Path_6332" data-name="Path 6332" d="M221.8,113.758c-4.765,4.659-9.943,10.483-7.135,11.42a67.268,67.268,0,0,1,7.982,3.192s-1.6,4.79-6.385,4.79-11.175,0-11.175,1.6,9.578,7.981,9.578,9.577,2.064,8.45,3.192,9.577c1.6,1.6,6.385,3.193,7.982-3.192s0-11.174,3.193-12.771c1.785-.893,4.067-5.237,5.735-8.894a31.637,31.637,0,0,0-12.967-15.3Zm0,0" transform="translate(-155.709 -90.966)" fill="#d7e9ff" fill-rule="evenodd"/>
  <path id="Path_6333" data-name="Path 6333" d="M216.27,152.019a6.971,6.971,0,0,1-4.725-1.941c-1.479-1.476-3.481-8.189-3.689-10.473a37.5,37.5,0,0,0-4.173-3.783c-4.017-3.347-5.421-4.651-5.421-6.138,0-3.191,4.671-3.347,12.927-3.347a4.788,4.788,0,0,0,3.99-2.212c-1.363-.6-3.512-1.479-6.142-2.357a2.8,2.8,0,0,1-1.914-2.035c-.381-1.658.317-4.414,8.38-12.3a1.759,1.759,0,0,1,2.133-.246,33.544,33.544,0,0,1,13.685,16.143,1.75,1.75,0,0,1-.033,1.376c-3.416,7.5-5.371,9.147-6.544,9.736-.982.491-1.152,1.7-1.353,4.79a37.1,37.1,0,0,1-.925,6.838c-.987,3.951-3.09,5.306-4.68,5.746a5.641,5.641,0,0,1-1.514.2Zm-13.732-21.825c.913.874,2.333,2.058,3.387,2.937,4.013,3.344,5.417,4.647,5.417,6.132,0,1.256,1.9,7.4,2.7,8.36a3.262,3.262,0,0,0,2.806.819c1.254-.347,1.9-1.941,2.217-3.217a33.878,33.878,0,0,0,.828-6.218c.209-3.219.408-6.26,3.281-7.7.16-.08,1.616-.954,4.606-7.365a30.056,30.056,0,0,0-10.817-13.028c-4.7,4.716-5.959,6.882-6.3,7.705a67.408,67.408,0,0,1,7.687,3.11,1.751,1.751,0,0,1,.878,2.122c-.081.245-2.065,5.986-8.046,5.986a69.412,69.412,0,0,0-8.65.354Zm0,0" transform="translate(-150.635 -85.895)" fill="#0e65e5"/>
  <path id="Path_6334" data-name="Path 6334" d="M20.676,124.474a8.027,8.027,0,0,1-5.916-2.119c-8.2-8.2,9.6-32.585,15.256-39.863a1.751,1.751,0,0,1,2.767,2.148c-15.251,19.642-18.75,32.035-15.547,35.239,4.509,4.505,27.112-5.066,56.2-34.155s38.661-51.695,34.155-56.2c-3.2-3.2-15.564.286-35.151,15.479a1.751,1.751,0,0,1-2.148-2.767c7.262-5.633,31.6-23.37,39.776-15.188C118.837,35.815,99.016,65.1,75.914,88.2c-19.279,19.279-42.864,36.274-55.238,36.274Zm0,0" transform="translate(-12.638 -24.925)" fill="#fff"/>
  <path id="Path_6335" data-name="Path 6335" d="M364.016,82.572a7.006,7.006,0,1,1-7.007-7.006A7.007,7.007,0,0,1,364.016,82.572Zm0,0" transform="translate(-333.444 8.427)" fill="#69a3f3" fill-rule="evenodd"/>
  <path id="Path_6336" data-name="Path 6336" d="M351.934,86.254a8.758,8.758,0,1,1,8.758-8.758A8.768,8.768,0,0,1,351.934,86.254Zm0-14.012a5.255,5.255,0,1,0,5.255,5.255A5.261,5.261,0,0,0,351.934,72.241Zm0,0" transform="translate(-328.368 13.503)" fill="#fff"/>
</svg>
