<svg xmlns="http://www.w3.org/2000/svg" xmlns:xlink="http://www.w3.org/1999/xlink" width="539.731" height="330" viewBox="0 0 539.731 330">
  <defs>
    <clipPath id="clip-path">
      <path id="Path_208585" data-name="Path 208585" d="M494.574,412.682H149.589A3.988,3.988,0,0,1,145.6,408.7V183.681a3.988,3.988,0,0,1,3.989-3.981H494.574a3.988,3.988,0,0,1,3.989,3.981V408.7A3.988,3.988,0,0,1,494.574,412.682Z" transform="translate(-145.6 -179.7)"/>
    </clipPath>
    <clipPath id="clip-path-11">
      <path id="Path_208571" data-name="Path 208571" d="M535.584,421.927H29.59a9.457,9.457,0,0,1-9.59-9.2V114.7a9.457,9.457,0,0,1,9.59-9.2H535.584a9.457,9.457,0,0,1,9.59,9.2V412.73A9.457,9.457,0,0,1,535.584,421.927Z" transform="translate(-20 -105.5)"/>
    </clipPath>
    <linearGradient id="linear-gradient" x1="0.5" y1="1" x2="0.5" gradientUnits="objectBoundingBox">
      <stop offset="0" stop-color="gray" stop-opacity="0.251"/>
      <stop offset="0.54" stop-color="gray" stop-opacity="0.122"/>
      <stop offset="1" stop-color="gray" stop-opacity="0.102"/>
    </linearGradient>
    <linearGradient id="linear-gradient-2" x1="0.5" y1="1" x2="0.5" y2="0" xlink:href="#linear-gradient"/>
    <linearGradient id="linear-gradient-3" x1="0.5" y1="1" x2="0.5" y2="0" xlink:href="#linear-gradient"/>
  </defs>
  <g id="Group_21070" data-name="Group 21070" transform="translate(-10696.088 -519.944)">
    <g id="Group_21997" data-name="Group 21997" transform="translate(0 22.656)">
      <g id="Group_20487" data-name="Group 20487" transform="translate(10885.432 635.38) rotate(-180)">
        <g id="Group_19883" data-name="Group 19883" transform="matrix(0.695, 0.719, -0.719, 0.695, 68.219, 0.711)">
          <path id="Path_201478" data-name="Path 201478" d="M0,0S17.729,31.4,44.445,40.445a54.654,54.654,0,0,1,27.676,20.7,92.1,92.1,0,0,1,8.169,14.7" transform="translate(0 0)" fill="none" stroke="#535461" stroke-miterlimit="10" stroke-width="2"/>
          <path id="Path_201486" data-name="Path 201486" d="M17.213,6C14.169,3.053,0,0,0,0S3.48,14.067,6.52,17.022A7.677,7.677,0,1,0,17.213,6Z" transform="translate(79.845 75.646)" fill="#7b7806"/>
          <path id="Path_201487" data-name="Path 201487" d="M17.711.089C13.551-.733,0,4.4,0,4.4s10.565,9.92,14.72,10.747A7.679,7.679,0,1,0,17.712.087Z" transform="translate(71.334 56.098)" fill="#7b7806"/>
          <path id="Path_201488" data-name="Path 201488" d="M13.111.485C9.111,1.871,0,13.147,0,13.147S14.129,16.383,18.133,15A7.68,7.68,0,1,0,13.111.485Z" transform="translate(46.734 28.151)" fill="#7b7806"/>
          <path id="Path_201489" data-name="Path 201489" d="M15.062.09C10.88.779,0,10.361,0,10.361s13.378,5.573,17.56,4.889A7.676,7.676,0,0,0,15.062.1Z" transform="translate(18.022 12.675)" fill="#7b7806"/>
          <path id="Path_201490" data-name="Path 201490" d="M0,16.538C0,12.3,7.671,0,7.671,0s7.68,12.293,7.685,16.534A7.68,7.68,0,0,1,0,16.534Z" transform="translate(59.516 54.943)" fill="#7b7806"/>
          <path id="Path_201491" data-name="Path 201491" d="M.37,13.485C1.637,9.44,12.633,0,12.633,0s3.653,14.027,2.387,18.071A7.684,7.684,0,1,1,.352,13.485Z" transform="translate(28.07 39.049)" fill="#7b7806"/>
        </g>
        <g id="Group_19884" data-name="Group 19884" transform="translate(66.023 0) rotate(19)">
          <path id="Path_201478-2" data-name="Path 201478" d="M0,0S17.729,31.4,44.445,40.445a54.653,54.653,0,0,1,27.676,20.7,92.093,92.093,0,0,1,8.169,14.7" transform="translate(0 0)" fill="none" stroke="#535461" stroke-miterlimit="10" stroke-width="2"/>
          <path id="Path_201486-2" data-name="Path 201486" d="M17.213,6C14.169,3.053,0,0,0,0S3.48,14.067,6.52,17.022A7.677,7.677,0,1,0,17.213,6Z" transform="translate(79.845 75.646)" fill="#5a5700"/>
          <path id="Path_201487-2" data-name="Path 201487" d="M17.711.089C13.551-.733,0,4.4,0,4.4s10.565,9.92,14.72,10.747A7.679,7.679,0,1,0,17.712.087Z" transform="translate(71.334 56.098)" fill="#5a5700"/>
          <path id="Path_201488-2" data-name="Path 201488" d="M13.111.485C9.111,1.871,0,13.147,0,13.147S14.129,16.383,18.133,15A7.68,7.68,0,1,0,13.111.485Z" transform="translate(46.734 28.151)" fill="#5a5700"/>
          <path id="Path_201489-2" data-name="Path 201489" d="M15.062.09C10.88.779,0,10.361,0,10.361s13.378,5.573,17.56,4.889A7.676,7.676,0,0,0,15.062.1Z" transform="translate(18.022 12.675)" fill="#5a5700"/>
          <path id="Path_201490-2" data-name="Path 201490" d="M0,16.538C0,12.3,7.671,0,7.671,0s7.68,12.294,7.685,16.534A7.68,7.68,0,0,1,0,16.534Z" transform="translate(59.516 54.943)" fill="#5a5700"/>
          <path id="Path_210290" data-name="Path 210290" d="M0,16.538C0,12.3,7.671,0,7.671,0s7.68,12.294,7.685,16.534A7.68,7.68,0,0,1,0,16.534Z" transform="translate(30.052 37.114)" fill="#5a5700"/>
        </g>
      </g>
      <g id="Group_21445" data-name="Group 21445" transform="matrix(1, -0.017, 0.017, 1, 11086.603, 543.686)">
        <g id="Group_19883-2" data-name="Group 19883" transform="translate(0 37.232) rotate(-22)">
          <path id="Path_201478-3" data-name="Path 201478" d="M0,75.846S17.729,44.441,44.445,35.4A54.654,54.654,0,0,0,72.121,14.7,92.1,92.1,0,0,0,80.29,0" transform="translate(0 18.991)" fill="none" stroke="#535461" stroke-miterlimit="10" stroke-width="2"/>
          <path id="Path_201486-3" data-name="Path 201486" d="M17.213,13.186c-3.044,2.951-17.213,6-17.213,6S3.48,5.124,6.52,2.168A7.677,7.677,0,1,1,17.213,13.186Z" transform="translate(79.845)" fill="#7b7806"/>
          <path id="Path_201487-3" data-name="Path 201487" d="M17.711,15.212C13.551,16.034,0,10.9,0,10.9S10.565.976,14.72.149a7.679,7.679,0,1,1,2.992,15.064Z" transform="translate(71.334 23.437)" fill="#7b7806"/>
          <path id="Path_201488-3" data-name="Path 201488" d="M13.111,14.857C9.111,13.47,0,2.194,0,2.194S14.129-1.041,18.133.345a7.68,7.68,0,1,1-5.022,14.511Z" transform="translate(46.734 51.343)" fill="#7b7806"/>
          <path id="Path_201489-3" data-name="Path 201489" d="M15.062,15.218C10.88,14.53,0,4.947,0,4.947S13.378-.626,17.56.058a7.676,7.676,0,0,1-2.5,15.147Z" transform="translate(18.022 66.853)" fill="#7b7806"/>
          <path id="Path_201490-3" data-name="Path 201490" d="M0,7.491c0,4.24,7.671,16.538,7.671,16.538S15.351,11.735,15.356,7.5A7.68,7.68,0,0,0,0,7.5Z" transform="translate(59.516 15.864)" fill="#7b7806"/>
          <path id="Path_201491-2" data-name="Path 201491" d="M.37,9.979c1.267,4.044,12.263,13.485,12.263,13.485S16.286,9.437,15.019,5.392A7.684,7.684,0,1,0,.352,9.979Z" transform="translate(28.07 32.323)" fill="#7b7806"/>
        </g>
        <g id="Group_19884-2" data-name="Group 19884" transform="translate(21.834 72.165) rotate(-19)">
          <path id="Path_201478-4" data-name="Path 201478" d="M0,75.846S17.729,44.441,44.445,35.4A54.653,54.653,0,0,0,72.121,14.7,92.093,92.093,0,0,0,80.29,0" transform="translate(0 18.99)" fill="none" stroke="#535461" stroke-miterlimit="10" stroke-width="2"/>
          <path id="Path_201486-4" data-name="Path 201486" d="M17.213,13.186c-3.044,2.951-17.213,6-17.213,6S3.48,5.124,6.52,2.168A7.677,7.677,0,1,1,17.213,13.186Z" transform="translate(79.845 0)" fill="#5a5700"/>
          <path id="Path_201487-4" data-name="Path 201487" d="M17.711,15.212C13.551,16.034,0,10.9,0,10.9S10.565.976,14.72.149a7.679,7.679,0,1,1,2.992,15.064Z" transform="translate(71.334 23.437)" fill="#5a5700"/>
          <path id="Path_201488-4" data-name="Path 201488" d="M13.111,14.857C9.111,13.47,0,2.194,0,2.194S14.129-1.041,18.133.345a7.68,7.68,0,1,1-5.022,14.511Z" transform="translate(46.734 51.343)" fill="#5a5700"/>
          <path id="Path_201489-4" data-name="Path 201489" d="M15.062,15.218C10.88,14.53,0,4.947,0,4.947S13.378-.626,17.56.058a7.676,7.676,0,0,1-2.5,15.147Z" transform="translate(18.022 66.853)" fill="#5a5700"/>
          <path id="Path_201490-4" data-name="Path 201490" d="M0,7.491c0,4.24,7.671,16.538,7.671,16.538S15.351,11.735,15.356,7.5A7.68,7.68,0,0,0,0,7.5Z" transform="translate(59.516 15.864)" fill="#5a5700"/>
          <path id="Path_210290-2" data-name="Path 210290" d="M0,7.491c0,4.24,7.671,16.538,7.671,16.538S15.351,11.735,15.356,7.5A7.68,7.68,0,0,0,0,7.5Z" transform="translate(30.052 33.693)" fill="#5a5700"/>
        </g>
      </g>
      <path id="Path_211764" data-name="Path 211764" d="M275.793,4.206c43.055,0,68.729-8.506,130.969-8.506S536.032-7.688,537.443,9.584s-49.12,36.729-154.254,33.477-126.649,10.89-222.3,5.553S11.215,30.954.606,21.716C-14.231,8.8,30.562,2.132,88.64-1.1,136.665-3.768,206.489,4.206,275.793,4.206Z" transform="translate(10698.347 777.456)" opacity="0.12"/>
      <g id="Group_20473" data-name="Group 20473" transform="translate(10799.999 546.522)">
        <g id="Group_19000" data-name="Group 19000">
          <g id="Group_18999" data-name="Group 18999">
            <g id="Group_18998" data-name="Group 18998">
              <g id="Group_18986" data-name="Group 18986" clip-path="url(#clip-path)">
                <path id="Path_208584" data-name="Path 208584" d="M490.111,178.3l-336.732.824c-4.952,0-8.116.961-7.978,6.453,0,0,.138,5.9.275,7.688,5.089-.137,353.514,0,353.514,0v-7.826C499.19,181.595,495.2,178.3,490.111,178.3Z" transform="translate(-145.676 -180.222)" fill="#056671"/>
              </g>
              <g id="Group_18987" data-name="Group 18987" transform="translate(1)" clip-path="url(#clip-path)">
                <ellipse id="Ellipse_961" data-name="Ellipse 961" cx="1.926" cy="1.922" rx="1.926" ry="1.922" transform="translate(12.93 3.432)" fill="#fff"/>
              </g>
              <g id="Group_18988" data-name="Group 18988" transform="translate(1)" clip-path="url(#clip-path)">
                <ellipse id="Ellipse_962" data-name="Ellipse 962" cx="1.926" cy="1.922" rx="1.926" ry="1.922" transform="translate(22.009 3.432)" fill="#fff"/>
              </g>
              <g id="Group_18989" data-name="Group 18989" transform="translate(1)" clip-path="url(#clip-path)">
                <ellipse id="Ellipse_963" data-name="Ellipse 963" cx="1.926" cy="1.922" rx="1.926" ry="1.922" transform="translate(31.087 3.432)" fill="#fff"/>
              </g>
              <g id="Group_18990" data-name="Group 18990" clip-path="url(#clip-path)">
                <rect id="Rectangle_21493" data-name="Rectangle 21493" width="353.376" height="14.004" transform="translate(-0.413 13.043)" fill="#dde2e8"/>
                <rect id="Rectangle_22316" data-name="Rectangle 22316" width="353" height="206.603" transform="translate(-0.092 26.876)" fill="#fff"/>
              </g>
              <g id="Group_18993" data-name="Group 18993" transform="translate(1)" clip-path="url(#clip-path)">
                <rect id="Rectangle_21494" data-name="Rectangle 21494" width="23.522" height="20.868" rx="5" transform="translate(98.203 38.572)" fill="#dde2e8"/>
                <rect id="Rectangle_21496" data-name="Rectangle 21496" width="23.522" height="20.868" rx="5" transform="translate(98.203 62.598)" fill="#dde2e8"/>
                <rect id="Rectangle_21498" data-name="Rectangle 21498" width="23.522" height="20.868" rx="5" transform="translate(98.065 86.212)" fill="#dde2e8"/>
                <rect id="Rectangle_22311" data-name="Rectangle 22311" width="23.522" height="20.868" rx="5" transform="translate(98.065 110.166)" fill="#dde2e8"/>
                <rect id="Rectangle_21500" data-name="Rectangle 21500" width="46.493" height="6.178" transform="translate(134.697 52.713)" fill="#f8c487"/>
                <rect id="Rectangle_21501" data-name="Rectangle 21501" width="73.454" height="6.178" transform="translate(134.697 42.279)" fill="#f8c487"/>
                <rect id="Rectangle_21502" data-name="Rectangle 21502" width="116.233" height="4.182" transform="translate(134.697 71.11)" fill="#dde2e8"/>
                <rect id="Rectangle_22313" data-name="Rectangle 22313" width="116.233" height="4.182" transform="translate(134.697 87.079)" fill="#dde2e8"/>
                <rect id="Rectangle_22315" data-name="Rectangle 22315" width="116.233" height="4.182" transform="translate(134.697 103.049)" fill="#dde2e8"/>
                <g id="Group_18992" data-name="Group 18992" transform="translate(14.845 38.572)">
                  <rect id="Rectangle_21503" data-name="Rectangle 21503" width="77.305" height="92.637" rx="5" fill="#dde2e8"/>
                  <g id="Group_18991" data-name="Group 18991" transform="translate(28.749 98.403)">
                    <rect id="Rectangle_21504" data-name="Rectangle 21504" width="3.301" height="3.295" fill="#dde2e8"/>
                    <rect id="Rectangle_21505" data-name="Rectangle 21505" width="3.301" height="3.295" transform="translate(8.253)" fill="#dde2e8"/>
                    <rect id="Rectangle_21506" data-name="Rectangle 21506" width="3.301" height="3.295" transform="translate(16.369)" fill="#dde2e8"/>
                  </g>
                </g>
                <path id="Path_208590" data-name="Path 208590" d="M329.336,270.927H276.928a7.39,7.39,0,0,1-7.428-7.414h0a7.39,7.39,0,0,1,7.428-7.414h52.408a7.39,7.39,0,0,1,7.428,7.414h0A7.39,7.39,0,0,1,329.336,270.927Z" transform="translate(-128.877 -140.231)" fill="#9ed2d8"/>
              </g>
              <g id="Group_18994" data-name="Group 18994" transform="translate(1)" clip-path="url(#clip-path)">
                <rect id="Rectangle_21507" data-name="Rectangle 21507" width="41.541" height="36.794" rx="5" transform="translate(14.856 154.589)" fill="#dde2e8"/>
                <rect id="Rectangle_21508" data-name="Rectangle 21508" width="108.668" height="3.295" transform="translate(61.074 173.535)" fill="#dde2e8"/>
                <rect id="Rectangle_21509" data-name="Rectangle 21509" width="25.035" height="3.295" transform="translate(61.074 163.101)" fill="#f8c487"/>
                <rect id="Rectangle_21510" data-name="Rectangle 21510" width="39.478" height="3.295" transform="translate(61.074 157.472)" fill="#f8c487"/>
                <rect id="Rectangle_21511" data-name="Rectangle 21511" width="108.668" height="3.295" transform="translate(61.074 180.811)" fill="#dde2e8"/>
                <rect id="Rectangle_21512" data-name="Rectangle 21512" width="62.45" height="3.295" transform="translate(61.074 188.088)" fill="#dde2e8"/>
              </g>
              <g id="Group_18995" data-name="Group 18995" transform="translate(1)" clip-path="url(#clip-path)">
                <rect id="Rectangle_21513" data-name="Rectangle 21513" width="41.541" height="36.794" rx="5" transform="translate(180.196 154.589)" fill="#dde2e8"/>
                <rect id="Rectangle_21514" data-name="Rectangle 21514" width="108.668" height="3.295" transform="translate(226.414 173.535)" fill="#dde2e8"/>
                <rect id="Rectangle_21515" data-name="Rectangle 21515" width="25.035" height="3.295" transform="translate(226.414 163.101)" fill="#f8c487"/>
                <rect id="Rectangle_21516" data-name="Rectangle 21516" width="39.478" height="3.295" transform="translate(226.414 157.472)" fill="#f8c487"/>
                <rect id="Rectangle_21517" data-name="Rectangle 21517" width="108.668" height="3.295" transform="translate(226.414 180.811)" fill="#dde2e8"/>
                <rect id="Rectangle_21518" data-name="Rectangle 21518" width="62.45" height="3.295" transform="translate(226.414 188.088)" fill="#dde2e8"/>
                <g id="shopping-cart-of-checkered-design" transform="translate(270.019 58.156)" opacity="0.27">
                  <path id="Path_211765" data-name="Path 211765" d="M55,23.025a1.777,1.777,0,0,0-1.435-.728H13.613a1.727,1.727,0,0,0-.229.015L11.74,17.582a1.776,1.776,0,0,0-1.028-1.069L2.426,13.264a1.773,1.773,0,1,0-1.3,3.3l7.526,2.951,9.212,26.5a1.469,1.469,0,0,0-.908.888l-2.663,7.384a1.477,1.477,0,0,0,1.392,1.977h1.368a5.327,5.327,0,1,0,7.918,0H36.585a5.327,5.327,0,1,0,7.918,0h1.664a1.477,1.477,0,1,0,0-2.954H17.79l1.65-4.573a1.762,1.762,0,0,0,.684.142H46.166a1.774,1.774,0,0,0,1.691-1.231l7.4-23.039A1.769,1.769,0,0,0,55,23.025ZM21.012,62.173a2.363,2.363,0,1,1,2.367-2.363A2.368,2.368,0,0,1,21.012,62.173Zm19.532,0a2.363,2.363,0,1,1,2.367-2.363A2.368,2.368,0,0,1,40.544,62.173ZM49.851,29.83H40.79V25.842H51.132Zm-2.609,8.123H40.79V33.374h7.922Zm-18.191,0V33.374h8.188v4.578ZM37.239,41.5v3.84H29.051V41.5Zm-20.01-8.123H25.5v4.578h-6.68ZM29.051,29.83V25.842h8.188V29.83ZM25.5,25.842V29.83H16l-1.386-3.988ZM20.053,41.5H25.5v3.84H21.387Zm20.738,3.84V41.5H46.1l-1.233,3.84Z" transform="translate(0 -13.141)" fill="#0192a2"/>
                </g>
              </g>
              <g id="Group_18996" data-name="Group 18996" transform="translate(1)" clip-path="url(#clip-path)">
                <rect id="Rectangle_21519" data-name="Rectangle 21519" width="41.541" height="36.794" rx="5" transform="translate(14.856 207.171)" fill="#dde2e8"/>
                <rect id="Rectangle_21520" data-name="Rectangle 21520" width="108.668" height="3.295" transform="translate(61.074 226.117)" fill="#dde2e8"/>
                <rect id="Rectangle_21521" data-name="Rectangle 21521" width="25.035" height="3.295" transform="translate(61.074 215.683)" fill="#f8c487"/>
                <rect id="Rectangle_21522" data-name="Rectangle 21522" width="39.478" height="3.295" transform="translate(61.074 210.054)" fill="#f8c487"/>
                <rect id="Rectangle_21523" data-name="Rectangle 21523" width="108.668" height="3.295" transform="translate(61.074 233.394)" fill="#dde2e8"/>
                <rect id="Rectangle_21524" data-name="Rectangle 21524" width="62.45" height="3.295" transform="translate(61.074 240.67)" fill="#dde2e8"/>
              </g>
              <g id="Group_18997" data-name="Group 18997" transform="translate(1)" clip-path="url(#clip-path)">
                <rect id="Rectangle_21525" data-name="Rectangle 21525" width="41.541" height="36.794" rx="5" transform="translate(180.196 207.171)" fill="#dde2e8"/>
                <rect id="Rectangle_21526" data-name="Rectangle 21526" width="108.668" height="3.295" transform="translate(226.414 226.117)" fill="#dde2e8"/>
                <rect id="Rectangle_21527" data-name="Rectangle 21527" width="25.035" height="3.295" transform="translate(226.414 215.683)" fill="#f8c487"/>
                <rect id="Rectangle_21528" data-name="Rectangle 21528" width="39.478" height="3.295" transform="translate(226.414 210.054)" fill="#f8c487"/>
                <rect id="Rectangle_21529" data-name="Rectangle 21529" width="108.668" height="3.295" transform="translate(226.414 233.394)" fill="#dde2e8"/>
                <rect id="Rectangle_21530" data-name="Rectangle 21530" width="62.45" height="3.295" transform="translate(226.414 240.67)" fill="#dde2e8"/>
              </g>
            </g>
            <rect id="Rectangle_21531" data-name="Rectangle 21531" width="2" height="195.43" rx="1" transform="translate(347.509 34.526)" fill="#f6f6f6"/>
            <rect id="Rectangle_22317" data-name="Rectangle 22317" width="2" height="75" rx="1" transform="translate(347.51 34.526)" fill="#dde2e8"/>
          </g>
        </g>
        <text id="_000_" data-name="000 $" transform="translate(224.946 127.893)" fill="#dde2e8" font-size="10" font-family="SegoeUI-Bold, Segoe UI" font-weight="700"><tspan x="0" y="0">000 $</tspan></text>
      </g>
      <g id="Group_20479" data-name="Group 20479" transform="translate(10771.492 715.996) rotate(20)">
        <g id="Group_5762" data-name="Group 5762" transform="translate(0 25.765)">
          <path id="Path_186836" data-name="Path 186836" d="M41.49,27.438c-2.349-7.639-5.081-14.226-7.6-14.026-1.984.164-2.681,4.458-4.355,4.377-2.973-.171-3.112-13.862-6.566-14.376-1.824-.274-2.615,5.975-5.224,6.106-2.156.109-2.641-3.976-6.982-6.967C8.259.8,3.78-1.018,1.591.674-.842,2.531-.39,8.488,2.3,12.347c4.151,5.964,12.9,5.91,12.767,8.226-.1,1.981-6.548,2.553-6.7,5.151-.08,1.324,1.5,2.415,1.919,2.7,5.4,3.706,14.916-1.627,15.343-.627.1.237-.365.73-3.4,2.882-4.939,3.506-6.241,4.013-6.139,4.669.2,1.357,6.121,2.4,11.6,1.208C34.64,35.051,39.2,30.309,41.49,27.438Z" fill="#7b7806"/>
          <path id="Path_186837" data-name="Path 186837" d="M30.051,18.062S17.783,16.839,0,0" transform="translate(9.59 9.536)" fill="none" stroke="#5a5700" stroke-linecap="round" stroke-miterlimit="10" stroke-width="1"/>
        </g>
        <g id="Group_5766" data-name="Group 5766" transform="translate(13.123 0)">
          <path id="Path_186844" data-name="Path 186844" d="M45.048,52.323c.266-10.943-.412-20.7-3.776-21.522-2.648-.646-5.421,4.629-7.555,3.775-3.786-1.514,1.984-19.366-2.265-21.522-2.262-1.145-6,6.628-9.44,5.665-2.845-.8-1.7-6.311-6.044-12.082C13.454,3.289,8.442-1.022,4.827.218.869,1.564-1.141,9.5.672,15.692c2.8,9.554,14.19,13.289,13.03,16.24-.992,2.528-9.608.452-10.943,3.775-.682,1.689.9,3.794,1.324,4.345,5.4,7.164,20.081,4.377,20.2,5.837.029.365-.77.784-5.665,2.265-7.941,2.411-9.849,2.491-10.006,3.4-.325,1.857,6.909,5.774,14.54,6.61C32.835,59.236,40.824,55.059,45.048,52.323Z" transform="translate(0 0)" fill="#5a5700"/>
          <path id="Path_186845" data-name="Path 186845" d="M32.522,37.2S16.188,30.362,0,0" transform="translate(10.053 14.527)" fill="none" stroke="#8e8a00" stroke-linecap="round" stroke-miterlimit="10" stroke-width="1"/>
        </g>
      </g>
      <g id="undraw_working_late_pukg" transform="translate(11144.356 705.792)">
        <rect id="Rectangle_22253" data-name="Rectangle 22253" width="4.819" height="3.252" transform="translate(55.339 71.713)" opacity="0.4"/>
        <rect id="Rectangle_22254" data-name="Rectangle 22254" width="4.819" height="3.252" transform="translate(68.348 71.713)" opacity="0.4"/>
        <rect id="Rectangle_22273" data-name="Rectangle 22273" width="24.092" height="2.907" transform="translate(13.06 50.385)" opacity="0.4"/>
        <rect id="Rectangle_22274" data-name="Rectangle 22274" width="24.092" height="2.907" transform="translate(13.06 59.659)" fill="#9ed2d8" opacity="0.4"/>
        <path id="Path_211496" data-name="Path 211496" d="M441.243,289.935s-5.781,1.4-8.069,4.015a7.786,7.786,0,0,1-3.078,1.955v-3.948c1.323-2.221,2.655-4.691,2.655-4.691.061-.121.543-1.825.543-1.825,1.085-.853-.061-3.832-.061-3.832s.664-1.885.3-2.251-.061-1.338.241-1.764a2.2,2.2,0,0,0,.241-1.338c0-.364-.482-.913-1.265-1.217s.061-.79.543-.913.6-1.277.061-1.885.061-.972.361-1.641-.969-.548-.969-.548V263.9h0s-.362-2.007-.723-5.535-1.747-3.892-1.747-3.892a15.878,15.878,0,0,1-2.169-.853,14.851,14.851,0,0,0-2.288-.851,11.778,11.778,0,0,1-2.952-.408,9.02,9.02,0,0,0-2.014-.436l-.217-.108a7.891,7.891,0,0,1-3.655-3.875c-.037-.084-.071-.168-.1-.249a8.509,8.509,0,0,0,.962-1.277v.7h0v.015c.96-1.7,3.747-2.084,4.012-4.022a2.029,2.029,0,0,0,.018-.266v-.207c-.035-.541-.221-1.08-.256-1.626a3.128,3.128,0,0,1,0-.47v.01c.125-1.5,1.259-2.814,1.778-4.275a5.125,5.125,0,0,0,.271-1.217v-.012c.014-.125.022-.251.025-.377v-.355a5.692,5.692,0,0,0-1.879-4.111c-.96-.834-2.229-1.358-2.895-2.448-.31-.505-.462-1.105-.8-1.594a4,4,0,0,0-2.913-1.432,16.968,16.968,0,0,1-3.3-.436c-.751-.246-1.432-.682-2.19-.9a4.191,4.191,0,0,0-4.5,1.623,7.932,7.932,0,0,1-1.2,1.736c-1.1.933-2.976.529-3.943,1.6a2.86,2.86,0,0,0-.527,2.219v.03a1.864,1.864,0,0,0,.018.19v.089a.278.278,0,0,0,.012.1c.034.295.076.588.113.871a1.137,1.137,0,0,0,.015.13l.03.265a1.847,1.847,0,0,0,.017.192c.007.064.012.168.017.239a1.674,1.674,0,0,0,.012.189,13,13,0,0,1-1.382,6.487c-.912,1.788-2.266,3.436-2.5,5.432a5.85,5.85,0,0,0-.027.986v.116c0,.039.01.118.015.177s.013.136.022.2a.917.917,0,0,0,.015.116c.012.089.025.179.04.27l.01.057c.239,1.361.782,2.7,1.07,4.071a11,11,0,0,1,.216,1.538.023.023,0,0,0,0,.01c.01.168.019.329.024.494v.674a10.69,10.69,0,0,1-1.4.431c-.842.121-3.314,2.312-3.134,2.864s-1.105,4.381-1.141,4.5h0l-2.022,13.985s-1.073,1.035-.738,1.7a2.947,2.947,0,0,1-.066,1.825s-1.813.79-1.41,1.277a2.111,2.111,0,0,1-.057,2.007c-.276.608-.73,1.7,0,1.885s.125,2.556.125,2.556,2.543-.293,2.359,1.217c-.061.48,1.778,1.8,2.544,2.33v7.269a22.22,22.22,0,0,1-3.011-1.023c-1.565-.73-10.359-2.128-12.287,2.069s2.65,9.793,3.795,10.4a7.808,7.808,0,0,1,1.326,1.277c.241.426,1.626.548,1.626.548a10.573,10.573,0,0,1,1.806,1.033,20.75,20.75,0,0,0,5.078,1.517h0s-2.108,4.853,1.331,4.453,5.114-2.093,7.539-2.093c.969,0,2.768-.136,4.58-.3a12.165,12.165,0,0,1,1.348.318,17.32,17.32,0,0,0,3.131.674s2.711,1.459,4.157,1.094a.918.918,0,0,0,.327-.169h.034a1.9,1.9,0,0,0,.871-.746,25.852,25.852,0,0,1,4.644.748c1.5.578,12.213-.222,12.213-.222s6.922.137,8.905.736,1.279-6.125-2.381-6.881a15.016,15.016,0,0,0-2.967-.293,6.649,6.649,0,0,0,.693-.842c1.318-.12,2.19-.194,2.19-.194s3.493-1.7,5.481-2.738a12.509,12.509,0,0,0,3.37-2.676s1.746-1.1,2.468-1.516,1.083-1.825,1.083-1.825C455.156,288.291,441.243,289.935,441.243,289.935ZM425.56,274.369v-.613c.2.138.167.356,0,.612Zm.057,4.3c.147.192.288.367.389.505.389.505-.315.741-.265,1.579.012.187.029.448.045.738h0c-.074-1.208-.135-2.2-.17-2.824Z" transform="translate(-376.563 -223.253)" fill="url(#linear-gradient)"/>
        <path id="Path_211497" data-name="Path 211497" d="M394.317,654.619a35.729,35.729,0,0,1-4.939-1.506c-1.569-.723-10.359-2.108-12.287,2.049s2.65,9.7,3.795,10.3,12.287-7.651,12.287-7.651l8.789,3.707,1.685-5.752Z" transform="translate(-376.613 -580.005)" fill="#65617d"/>
        <rect id="Rectangle_22276" data-name="Rectangle 22276" width="38.261" height="13.31" rx="6.655" transform="translate(21.422 75.757)" fill="#65617d"/>
        <path id="Path_211498" data-name="Path 211498" d="M541.961,679.514a6.641,6.641,0,0,1-1.109,3.68,6.736,6.736,0,0,1-.843,1.028,6.634,6.634,0,0,1-4.706,1.95H510.356a6.656,6.656,0,0,1,0-13.311H535.3A6.656,6.656,0,0,1,541.961,679.514Z" transform="translate(-482.278 -597.103)" opacity="0.1"/>
        <path id="Path_211499" data-name="Path 211499" d="M481.887,714.66a31.822,31.822,0,0,1-6.967.942c-3.131-.044-17.775,6.041-17.775,6.041s-2.108,4.806,1.331,4.408,5.114-2.066,7.539-2.066,10.053-.843,10.053-.843l7.34-5.422Z" transform="translate(-443.036 -631.86)" fill="#fbbebe"/>
        <path id="Path_211500" data-name="Path 211500" d="M532.228,360.7l-6.882,1.356-.446.089s-5.441-1.446-5.621-1.567-5.119-6.775-5.119-6.775a9.963,9.963,0,0,0,4.458-1.1c.071-.04.14-.084.209-.126a4.348,4.348,0,0,0,1.854-2.273c.035-.1.066-.2.094-.31a6.114,6.114,0,0,0-.057-2.962c-.674-2.809.876-3.582,2.93-3.515a23.069,23.069,0,0,1,7.006,1.949,8.233,8.233,0,0,0,.635,2.746c.032.081.067.168.1.246a7.842,7.842,0,0,0,3.655,3.833l.217.108c.219.1.45.2.689.293C541.2,354.675,532.228,360.7,532.228,360.7Z" transform="translate(-490.975 -323.244)" fill="#fbbebe"/>
        <path id="Path_211501" data-name="Path 211501" d="M563.023,348.457A8.679,8.679,0,0,1,552.31,350.3a5.838,5.838,0,0,0,.037-3.272c-1.626-6.866,9.941-1.565,9.941-1.565A8.348,8.348,0,0,0,563.023,348.457Z" transform="translate(-522.598 -323.248)" opacity="0.1"/>
        <path id="Path_211502" data-name="Path 211502" d="M543.767,293.838a8.613,8.613,0,0,1-1.314,4.588,8.484,8.484,0,0,1-.962,1.265,8.624,8.624,0,0,1-5.874,2.8c-.169.012-.349.017-.524.017a8.673,8.673,0,1,1,8.673-8.673Z" transform="translate(-501.17 -274.729)" fill="#fbbebe"/>
        <path id="Path_211503" data-name="Path 211503" d="M532.228,404.1l-6.882,1.356-.446.089s-5.441-1.446-5.621-1.567-5.119-6.775-5.119-6.775a9.963,9.963,0,0,0,4.458-1.1c.071-.04.14-.084.209-.126a8.077,8.077,0,0,0,5.87,2.566,8.487,8.487,0,0,0,1.23-.089c.967-.148,1.943-.244,2.917-.337,1.865-.2,4.718-.762,6.216-2.409l.217.108c.219.1.45.2.689.293C541.2,398.074,532.228,404.1,532.228,404.1Z" transform="translate(-490.975 -366.643)" opacity="0.1"/>
        <path id="Path_211504" data-name="Path 211504" d="M499.869,422.148c.059,1.326,1.024,16.262,1.024,16.262H470.839l.2-9.4.168-7.522.054-2.468.241-8.551-.871-.768-4.735-4.172h0c.035-.111,1.319-3.918,1.141-4.453s2.29-2.709,3.134-2.831a10.968,10.968,0,0,0,1.412-.43,18.852,18.852,0,0,1,3.525-1.119,21.447,21.447,0,0,0,3.37-.128h0a8.061,8.061,0,0,0,6.076,2.8,8.254,8.254,0,0,0,1.225-.1c.967-.148,1.943-.244,2.917-.345,1.96-.2,5.006-.819,6.433-2.662a9.119,9.119,0,0,1,2.014.431,11.954,11.954,0,0,0,2.952.4,14.974,14.974,0,0,1,2.288.842,16.016,16.016,0,0,0,2.169.842s1.385.361,1.747,3.854.728,5.481.728,5.481l-7.161,6.2S499.81,420.817,499.869,422.148Z" transform="translate(-450.847 -367.109)" fill="#9ed2d8"/>
        <path id="Path_211505" data-name="Path 211505" d="M415.453,510.649l1.053,1.687,3.945,1.39,2.711-4.944-2.5-1.687-4.005-1.565-2.288,1.324Z" transform="translate(-400.399 -445.19)" fill="#fbbebe"/>
        <path id="Path_211506" data-name="Path 211506" d="M663.057,626.234s5.6-.421,7.891-3.011,8.069-3.975,8.069-3.975,13.913-1.626,8.425,10.661c0,0-.361,1.385-1.083,1.806s-2.469,1.506-2.469,1.506l-21.37-1.867Z" transform="translate(-614.337 -552.465)" fill="#65617d"/>
        <path id="Path_211507" data-name="Path 211507" d="M620.253,687.862a6.639,6.639,0,0,1-1.109,3.68c-3.6.319-11.559,1.067-13.225,1.532-2.047.568-6.19-.421-6.644-.532l-.042-.01s-.8-2.423-1.179-3.973c-.169-.7-.258-1.228-.147-1.267.362-.12,3.675-1.024,3.614-.505s9.941-3.885,9.941-3.885l.307,3.855C612.785,687.918,620.253,686.189,620.253,687.862Z" transform="translate(-560.57 -605.451)" opacity="0.1"/>
        <path id="Path_211508" data-name="Path 211508" d="M632.349,685.522l-.421,1.567a12.479,12.479,0,0,1-3.37,2.649c-1.988,1.024-5.481,2.711-5.481,2.711s-12.828,1.083-15,1.685-6.686-.543-6.686-.543-1.685-5.119-1.324-5.24,3.673-1.023,3.614-.505,9.941-3.886,9.941-3.886Z" transform="translate(-562.368 -606.333)" fill="#65617d"/>
        <path id="Path_211509" data-name="Path 211509" d="M579.92,744.672s6.305.44,7.8,1.011,12.213-.219,12.213-.219,6.922.135,8.905.728,1.279-6.066-2.381-6.812-8.817.352-8.817.352-5.82-.75-6.526-.843-5.355.042-5.355.042Z" transform="translate(-545.655 -651.979)" fill="#fbbebe"/>
        <path id="Path_211510" data-name="Path 211510" d="M432.87,674.72s8.334.75,10.625,2.116Z" transform="translate(-423.383 -598.649)" opacity="0.1"/>
        <path id="Path_211511" data-name="Path 211511" d="M696.544,642.28s-6.526,1.587-9.084,3.923Z" transform="translate(-635.075 -571.675)" opacity="0.1"/>
        <path id="Path_211512" data-name="Path 211512" d="M435.75,663.47c.133.044,3.837.529,3.747.881S435.75,663.47,435.75,663.47Z" transform="translate(-425.777 -589.295)" opacity="0.1"/>
        <path id="Path_211513" data-name="Path 211513" d="M401.21,700.192l.482,1.808a7.8,7.8,0,0,1,1.324,1.264c.241.421,1.626.542,1.626.542a10.307,10.307,0,0,1,1.808,1.023c.362.361,4.275,1.506,7.95,1.988s10.479,1.385,11.925,1.867a17.357,17.357,0,0,0,3.132.662s2.709,1.446,4.155,1.085,3.914-6.927,3.914-6.927-9.515-2.227-9.817-2.95-9.456-4.094-9.456-4.094l-5.421.128Z" transform="translate(-397.057 -616.726)" opacity="0.1"/>
        <path id="Path_211514" data-name="Path 211514" d="M399.06,686.087l.482,1.808a7.8,7.8,0,0,1,1.326,1.264c.241.421,1.626.542,1.626.542a10.171,10.171,0,0,1,1.806,1.024c.361.362,4.276,1.5,7.95,1.987s10.48,1.385,11.926,1.867a17.4,17.4,0,0,0,3.131.66s2.711,1.444,4.157,1.083,3.914-6.927,3.914-6.927-9.517-2.228-9.817-2.95-13.732-6.2-13.732-6.2l-4.212-.964Z" transform="translate(-395.269 -602.441)" fill="#65617d"/>
        <path id="Path_211515" data-name="Path 211515" d="M443.818,447.67l-1.053.6-2.022,13.852s-1.073,1.024-.738,1.685a2.892,2.892,0,0,1-.066,1.806s-1.813.783-1.41,1.265a2.072,2.072,0,0,1-.057,1.987c-.276.6-.73,1.685,0,1.867s.125,2.527.125,2.527,2.543-.29,2.359,1.2c-.076.6,2.875,2.527,2.875,2.527s-3.353-6.083,4.158-5.24l.645-3.429s.645-1.931,0-2.527.145-3.463.145-3.463l.142-12.437Z" transform="translate(-427.712 -409.857)" fill="#9ed2d8"/>
        <path id="Path_211516" data-name="Path 211516" d="M462.44,553.84c.133.221,4.189.674,4.453,1.393S462.44,553.84,462.44,553.84Z" transform="translate(-447.97 -498.137)" opacity="0.1"/>
        <path id="Path_211517" data-name="Path 211517" d="M454.85,567.1s.551-1.72,1.853-1.412S454.85,567.1,454.85,567.1Z" transform="translate(-441.659 -507.958)" opacity="0.1"/>
        <path id="Path_211518" data-name="Path 211518" d="M450.67,578.668s.969-2.293,2.292-2.116S450.67,578.668,450.67,578.668Z" transform="translate(-438.183 -517.014)" opacity="0.1"/>
        <path id="Path_211519" data-name="Path 211519" d="M654.6,574.882l-.423,2.528s-4.335,7.951-5.119,8.071-5.055-5.3-5.055-5.3l-1.144-5.3,4.5-.854,2-1.976S654.419,572.534,654.6,574.882Z" transform="translate(-597.99 -513.279)" fill="#fbbebe"/>
        <path id="Path_211520" data-name="Path 211520" d="M668.9,454.648l1.626,1.144v6.083s1.265-.121.964.543-.9,1.023-.361,1.626.421,1.746-.061,1.867-1.324.6-.543.9,1.265.842,1.265,1.2a2.157,2.157,0,0,1-.241,1.324c-.3.421-.6,1.385-.241,1.747s-.3,2.228-.3,2.228,1.146,2.952.061,3.794c0,0-.482,1.685-.543,1.806,0,0,.76-5.862-6.817-3.383,0,0-.14-2.234-.192-3.062s.654-1.07.265-1.564-1.363-1.628-.9-1.928.3-.842.12-1.265-.817-.421-.241-.933.918-.992.58-1.233-.927-1.026-.458-1.387.482-5.6.482-5.6S665.284,450.853,668.9,454.648Z" transform="translate(-614.334 -414.785)" fill="#9ed2d8"/>
        <path id="Path_211521" data-name="Path 211521" d="M695.84,519.952s2.315-.628,2.391,0S695.84,519.952,695.84,519.952Z" transform="translate(-642.043 -469.727)" opacity="0.1"/>
        <path id="Path_211522" data-name="Path 211522" d="M680.4,529.569s3.174-.794,3.57-.177S680.4,529.569,680.4,529.569Z" transform="translate(-629.204 -477.613)" opacity="0.1"/>
        <path id="Path_211523" data-name="Path 211523" d="M676.21,540.452s4.762-.662,5.07.308S676.21,540.452,676.21,540.452Z" transform="translate(-625.721 -486.822)" opacity="0.1"/>
        <path id="Path_211524" data-name="Path 211524" d="M680.4,553.84c.177.044,4.585.352,4.672,1.19S680.4,553.84,680.4,553.84Z" transform="translate(-629.204 -498.137)" opacity="0.1"/>
        <rect id="Rectangle_22277" data-name="Rectangle 22277" width="37.757" height="21.445" rx="2" transform="translate(15.777 58.417)" fill="#3f3d56"/>
        <circle id="Ellipse_1006" data-name="Ellipse 1006" cx="1.392" cy="1.392" r="1.392" transform="translate(33.264 67.749)" fill="#e7effd"/>
        <path id="Path_211525" data-name="Path 211525" d="M507.72,491.94s3.619,2.767,6.418.659C514.138,492.6,509.407,493.029,507.72,491.94Z" transform="translate(-485.621 -446.667)" opacity="0.1"/>
        <path id="Path_211526" data-name="Path 211526" d="M616.48,496.36s3.618,2.765,6.416.657C622.9,497.017,618.167,497.448,616.48,496.36Z" transform="translate(-576.055 -450.342)" opacity="0.1"/>
        <path id="Path_211527" data-name="Path 211527" d="M505.736,293.911a8.613,8.613,0,0,1-1.314,4.588,13.213,13.213,0,0,0-1.955-6.848c-1.2-1.854-4.861-5.087-7.375-4.185a1.781,1.781,0,0,0-1.1,1.179c-.249.947.48,1.348.949,2.094a6.422,6.422,0,0,1,.876,4.327,6.053,6.053,0,0,1-.126.6c-.4,1.486-1.3,3.186-.367,4.4.652.842,2.054,1.142,2.244,2.19a1.282,1.282,0,0,1,.017.3c-.044.709-.649,1.334-.913,2.03a3.339,3.339,0,0,0,.187,2.46,15.92,15.92,0,0,1,1.247,3.3,6.456,6.456,0,0,1-.6,3.257,14.537,14.537,0,0,0-.994,3.067c-.292,2,.443,4.317-.817,5.9a.883.883,0,0,1-.551.372c-.807.084-.674-1.366-1.319-1.853a5.7,5.7,0,0,1-.169,2.511,1.929,1.929,0,0,1-1.938,1.326l-.288-1.892a5.464,5.464,0,0,1-2.005,1.255,14.615,14.615,0,0,1,2.093-5.661c-2.121,1.021-3.358,3.232-4.462,5.311a6.847,6.847,0,0,0-1.159,4.169c.1.591.352,1.154.408,1.749a1.453,1.453,0,0,1-.714,1.516,1.292,1.292,0,0,1-1.4-.433l-.061-.072c-.034-.044-.066-.089-.1-.135a2.261,2.261,0,0,1-.16-.286,5.544,5.544,0,0,1-.337-1.107l-.037-.168a19.6,19.6,0,0,1-.655-7.491,13.981,13.981,0,0,0,.394-2.757,5.058,5.058,0,0,0-.317-1.533c-.492-1.378-1.439-2.644-1.978-4.032a.12.12,0,0,1-.013-.03,2.217,2.217,0,0,1,.1-2.243,4.428,4.428,0,0,1,1.011-.674,4.545,4.545,0,0,0,1.71-3.215,10.926,10.926,0,0,0,.131-1.685,18.85,18.85,0,0,1,3.525-1.119,21.459,21.459,0,0,0,3.37-.128,4.427,4.427,0,0,0,2.069-2.4c.035-.1.066-.2.094-.31a8.673,8.673,0,1,1,12.791-7.635Z" transform="translate(-463.139 -274.802)" opacity="0.1"/>
        <path id="Path_211528" data-name="Path 211528" d="M495.689,247.511c-.4,1.486-1.3,3.186-.366,4.406.652.842,2.054,1.141,2.241,2.19.15.842-.593,1.537-.893,2.329-.714,1.892,1.149,3.752,1.432,5.756.308,2.174-1.276,4.153-1.591,6.325-.291,2,.443,4.315-.817,5.9a.873.873,0,0,1-.551.372c-.807.086-.674-1.365-1.319-1.853a5.7,5.7,0,0,1-.169,2.511,1.932,1.932,0,0,1-1.938,1.326l-.288-1.894a5.458,5.458,0,0,1-2.005,1.255,14.626,14.626,0,0,1,2.091-5.66c-2.121,1.021-3.356,3.232-4.46,5.309a6.853,6.853,0,0,0-1.161,4.17c.1.591.352,1.153.408,1.749a1.453,1.453,0,0,1-.714,1.516,1.316,1.316,0,0,1-1.457-.505,3.8,3.8,0,0,1-.595-1.53,19.978,19.978,0,0,1-.694-7.653,14.014,14.014,0,0,0,.394-2.757c-.072-2.034-1.574-3.707-2.305-5.6a2.213,2.213,0,0,1,.1-2.243,4.43,4.43,0,0,1,1.011-.674,4.547,4.547,0,0,0,1.708-3.215,11.14,11.14,0,0,0-.113-4.024c-.423-1.98-1.393-3.914-1.153-5.924.236-1.978,1.591-3.609,2.5-5.38a12.728,12.728,0,0,0,1.291-7.439c-.157-1.188-.431-2.563.374-3.451.967-1.065,2.839-.664,3.943-1.587a7.866,7.866,0,0,0,1.2-1.719,4.212,4.212,0,0,1,4.5-1.607c.758.217,1.439.649,2.19.893a17.716,17.716,0,0,0,3.3.433,4.022,4.022,0,0,1,2.913,1.417c.337.485.49,1.077.8,1.579.665,1.078,1.934,1.6,2.895,2.425a5.617,5.617,0,0,1,1.58,6c-.573,1.6-1.9,3.008-1.786,4.7a10.755,10.755,0,0,1,.246,2.067c-.266,1.919-3.052,2.3-4.014,3.983a13.763,13.763,0,0,0-1.956-7.906c-1.2-1.854-4.861-5.089-7.375-4.187a1.788,1.788,0,0,0-1.1,1.179c-.249.945.48,1.348.949,2.094A6.369,6.369,0,0,1,495.689,247.511Z" transform="translate(-463.136 -227.007)" fill="#3f3d56"/>
        <g id="Group_20470" data-name="Group 20470" transform="translate(17.548 7.277)" opacity="0.2">
          <path id="Path_211529" data-name="Path 211529" d="M492.6,364.094a11.055,11.055,0,0,0-.241-2.578c-.359-1.685-1.11-3.335-1.18-5.026-.1,1.884.784,3.707,1.18,5.56A11.073,11.073,0,0,1,492.6,364.094Z" transform="translate(-489.412 -341.317)"/>
          <path id="Path_211530" data-name="Path 211530" d="M516.567,478.854c.147-.268.3-.534.462-.794-2.12,1.021-3.356,3.232-4.46,5.311a7.412,7.412,0,0,0-1.2,3.847,8.694,8.694,0,0,1,1.2-3.306C513.589,481.989,514.725,479.957,516.567,478.854Z" transform="translate(-506.197 -442.403)"/>
          <path id="Path_211531" data-name="Path 211531" d="M496.226,515.627a1.279,1.279,0,0,1-.7,1.057,1.316,1.316,0,0,1-1.456-.506,3.816,3.816,0,0,1-.6-1.53,27.514,27.514,0,0,1-.842-5.468,24.87,24.87,0,0,0,.842,6.01,3.792,3.792,0,0,0,.6,1.53,1.316,1.316,0,0,0,1.456.505,1.454,1.454,0,0,0,.716-1.516A.205.205,0,0,1,496.226,515.627Z" transform="translate(-490.617 -468.279)"/>
          <path id="Path_211532" data-name="Path 211532" d="M566.129,334.2a6.114,6.114,0,0,1-.2,1.281,10.672,10.672,0,0,0-.763,3.37,18.259,18.259,0,0,1,.763-2.832A6.1,6.1,0,0,0,566.129,334.2Z" transform="translate(-550.928 -322.783)"/>
          <path id="Path_211533" data-name="Path 211533" d="M513.126,269.817a12.637,12.637,0,0,0-.1-1.923c-.062-.468-.141-.967-.169-1.454a10.532,10.532,0,0,0,.169,2A12.622,12.622,0,0,1,513.126,269.817Z" transform="translate(-507.43 -266.44)"/>
          <path id="Path_211534" data-name="Path 211534" d="M575.687,383.982a.058.058,0,0,0-.012-.042,14.148,14.148,0,0,1-.881,1.83,2.567,2.567,0,0,0-.148,1.18,2.42,2.42,0,0,1,.148-.637C575.092,385.519,575.835,384.818,575.687,383.982Z" transform="translate(-558.805 -364.142)"/>
          <path id="Path_211535" data-name="Path 211535" d="M483.262,447.646c-.074-2.034-1.574-3.707-2.307-5.6a3.84,3.84,0,0,1-.236-.927,3.131,3.131,0,0,0,.236,1.469c.721,1.867,2.18,3.51,2.3,5.5C483.262,447.941,483.267,447.792,483.262,447.646Z" transform="translate(-480.709 -411.687)"/>
          <path id="Path_211536" data-name="Path 211536" d="M567.93,296.57c-1.2-1.853-4.861-5.089-7.375-4.187a1.789,1.789,0,0,0-1.1,1.179,1.275,1.275,0,0,0-.019.634.35.35,0,0,1,.019-.091,1.786,1.786,0,0,1,1.1-1.179c2.514-.9,6.17,2.339,7.375,4.187a13.384,13.384,0,0,1,1.96,7.124A13.689,13.689,0,0,0,567.93,296.57Z" transform="translate(-546.145 -287.883)"/>
          <path id="Path_211537" data-name="Path 211537" d="M625.635,341.117c-.265,1.914-3.033,2.3-4.005,3.971v.553c.961-1.685,3.747-2.064,4.012-3.983a2.273,2.273,0,0,0,0-.568A.132.132,0,0,1,625.635,341.117Z" transform="translate(-597.885 -328.512)"/>
          <path id="Path_211538" data-name="Path 211538" d="M645.693,293.58c-.573,1.6-1.9,3.008-1.786,4.7v.074c.125-1.491,1.259-2.785,1.778-4.233a5.306,5.306,0,0,0,.295-2.062A5.15,5.15,0,0,1,645.693,293.58Z" transform="translate(-616.403 -287.743)"/>
          <path id="Path_211539" data-name="Path 211539" d="M560.57,488.236a.877.877,0,0,1-.551.374c-.807.086-.674-1.365-1.319-1.853.017.192.032.386.042.58.6.519.489,1.9,1.277,1.815a.868.868,0,0,0,.551-.372,4.834,4.834,0,0,0,.77-3.228A4.245,4.245,0,0,1,560.57,488.236Z" transform="translate(-545.559 -448.631)"/>
          <path id="Path_211540" data-name="Path 211540" d="M536.8,501.831a1.931,1.931,0,0,1-1.939,1.326l-.286-1.894a5.5,5.5,0,0,1-1.906,1.218c-.037.192-.072.386-.1.58a5.463,5.463,0,0,0,2.007-1.255l.286,1.894a1.929,1.929,0,0,0,1.939-1.326,4.318,4.318,0,0,0,.221-1.714A3.649,3.649,0,0,1,536.8,501.831Z" transform="translate(-523.832 -461.195)"/>
          <path id="Path_211541" data-name="Path 211541" d="M574.267,439.458a9.629,9.629,0,0,0-.072,1.535,7.69,7.69,0,0,1,.072-.992c.3-2.071,1.752-3.966,1.621-6.02C575.772,435.837,574.542,437.571,574.267,439.458Z" transform="translate(-558.438 -405.75)"/>
        </g>
      </g>
      <g id="undraw_successful_purchase_uyin" transform="translate(10696.088 584.849)">
        <path id="Path_211721" data-name="Path 211721" d="M539.31,136.039l-11.185-32.47-4.021.61-3.6.461c.092-1.22.25-5.6-1.983-7.9a6,6,0,0,0-1.886-2.688c-5.352-4.906-6.465,5.129-6.465,5.129s-1.22,2.117-2.9,5.077l-.882-.168-.25,2.185c-3.722,6.581-8.668,15.487-8.668,16.323a11.03,11.03,0,0,1-.668,3.121s-3.789,6.243-5.129,9.367a14.978,14.978,0,0,1-3.356,4.906s-.323.247-.854.61a7.637,7.637,0,0,1,.305-1.742c.488-1.6,1.623-2.963,1.925-4.6a5.378,5.378,0,0,0,.079-1.193c.07-1.925-.866-3.82-1.257-5.745-.455-2.23-.21-4.686-1.4-6.624a6.836,6.836,0,0,0-4.226-2.825,32.46,32.46,0,0,0-4.638-.415c-1.434-.153-2.8-.787-4.238-1.022a5.47,5.47,0,0,0-2.325,0c-2.426.668-3.185,3.725-5.059,5.407-.674.61-1.5,1.031-2.111,1.7a5.107,5.107,0,0,0-1.15,3.661,7.807,7.807,0,0,0,.079,1.333c.232,1.6.848,3.106,1.22,4.671a16.175,16.175,0,0,1,.455,3.536c0,.268,0,.537-.024.8a2.818,2.818,0,0,1-.412,1.526,4.31,4.31,0,0,1-1.394.992,10.816,10.816,0,0,1-3.515-4.986s-.083.1-.223.305v-.305s-3.051-4.479-3.515-8.137l1.062.11,2.441-34.34-6.233-.915a14.225,14.225,0,0,0-1.9-6.221c1.047-2.063,1.574-4.854-3.015-5.132-5.37-.326-5.04,3.857-4.47,6.145a15.4,15.4,0,0,0-.305,3.8l-5.492-.8-.031.445h-1.306l-4,35.033,3.405-.171,12.479,1.3c1,9.071,2.566,20.281,4.427,22.923a2.252,2.252,0,0,0,.2.253v16.052s-.223,20.747-4.015,24.082a19.833,19.833,0,0,1,7.256-1.138q-.064.206-.128.439a38.915,38.915,0,0,0-1.156,6.249q-.079.7-.143,1.458a78.674,78.674,0,0,0,.192,13.953c1.562,16.5,4.015,28.32,4.015,28.32l.684,9.593s-.668,16.278,1.114,21.629a8.077,8.077,0,0,0,2.282,1.48c.015.152.034.305.049.467s.04.412.061.625c-.8.363-2.291,1.8-2.615,7.46,0,0,.445,4.238-.668,6.243s-.445,7.8,2.9,8.473a17.868,17.868,0,0,0,6.465,0s1.562,0,.446-5.574l-.2-1.428c-.024-2.761.092-5.718.641-6.6,1.114-1.785-.445-3.567-.445-3.567s-.11.061-.29.143a26.378,26.378,0,0,1-.528-5.953,4.267,4.267,0,0,1,.046-.473,9.388,9.388,0,0,0,1.889-1.3V248.82s-.223-32.555,2.231-33.227c0,0,1.114,11.817.668,17.617a55.338,55.338,0,0,0,.668,12.043l.445,23.637s.427.2,1.117.445l-.046.43c-.272,2.627-.708,6.593-1.1,9.022a1.794,1.794,0,0,0-1.083,1.251c-.668,2.23-.223,7.8-1.562,9.367-.79.915-1.736,2.78-1.272,4.1-.29,1.156-.162,2.963,3.28,3.262,5.129.445,7.359-2.23,7.359-2.23a3.927,3.927,0,0,0,0-3.121c-.668-2.008.223-5.574.223-5.574s.479-3.027-.305-3.423c-.067-.36-.128-.589-.128-.589a2.684,2.684,0,0,0-.7-1.855,38.57,38.57,0,0,1,.9-9.495c.049-.162.1-.305.15-.473a6.024,6.024,0,0,0,1.885-.662s-.223-5.129,1.34-8.7.668-17.84.668-17.84a16.814,16.814,0,0,1,.275-6.789,66.613,66.613,0,0,0,2.423-10.313l1.315-9.211a37.693,37.693,0,0,0-1.1-22.722q-.279-.714-.61-1.428c-.378-.827-.8-1.657-1.269-2.481-.073-.128-.153-.259-.229-.387.479-.119.751-.189.751-.189s-6.02-14.035-2.23-21.184a9.292,9.292,0,0,0,2.441-4.482c.378-3.1.79-6.2,1.468-9.254l.119-.537s.018-.1.049-.29c.085-.055.168-.113.25-.174,6.426-4.693,11.966-24.287,11.966-24.287l1.785-3.356.848-1.794L502.395,139.1l13.6,3.356,8.7-.668-.024-1.87,6.627-.516ZM453.086,91.8l-2.417-.354c-.424-2.182-.711-3.613-.711-3.613a13.261,13.261,0,0,0,1.339-2,13.9,13.9,0,0,1,1.788,5.959Zm-9.025-4.683c.168.574.32.943.32.943l.305,2.517-.824-.119a16.531,16.531,0,0,1,.2-3.353Zm76.217,17.577-3.271.421a12.263,12.263,0,0,0,.7-5.587,2.8,2.8,0,0,0,.9-2.334c1.943,2.322,1.76,6.423,1.675,7.49Zm-5.431-3.481a8.1,8.1,0,0,0,2.664-1.5,12.4,12.4,0,0,1-.751,5.431l-3.051.391-.842-.162Z" transform="translate(-432.79 -80.421)" fill="url(#linear-gradient-2)"/>
        <path id="Path_211722" data-name="Path 211722" d="M677.808,110.956l-7.96,3.323L660.6,82.031l2.169-2.575,3.976-.616Z" transform="translate(-571.871 -54.761)" fill="#6c63ff"/>
        <path id="Path_211723" data-name="Path 211723" d="M677.808,110.956l-7.96,3.323L660.6,82.031l2.169-2.575,3.976-.616Z" transform="translate(-571.871 -54.761)" fill="#fff" opacity="0.2"/>
        <path id="Path_211724" data-name="Path 211724" d="M636.245,80.86,622.43,82.633l7.082,34.123,13.812-1.074Z" transform="translate(-545.347 -56.165)" fill="#6c63ff"/>
        <path id="Path_211725" data-name="Path 211725" d="M636.245,80.86,622.43,82.633l7.082,34.123,13.812-1.074Z" transform="translate(-545.347 -56.165)" fill="#fff" opacity="0.07"/>
        <path id="Path_211726" data-name="Path 211726" d="M709.01,142.477l-.22-.027c0-.082.915-8.137-4.14-9.153l.043-.217C709.965,134.139,709.028,142.4,709.01,142.477Z" transform="translate(-621.703 -117.013)" fill="#535461"/>
        <rect id="Rectangle_22309" data-name="Rectangle 22309" width="15.219" height="22.276" transform="translate(36.201 48.976)" fill="#774e55"/>
        <rect id="Rectangle_22310" data-name="Rectangle 22310" width="15.219" height="22.276" transform="translate(36.201 48.976)" opacity="0.2"/>
        <path id="Path_211727" data-name="Path 211727" d="M649.921,123.864l-8.6.662L642.644,91l2.865-1.764,3.97.662Z" transform="translate(-558.473 -61.988)" fill="#6c63ff"/>
        <path id="Path_211728" data-name="Path 211728" d="M649.921,123.864l-8.6.662L642.644,91l2.865-1.764,3.97.662Z" transform="translate(-558.473 -61.988)" opacity="0.2"/>
        <path id="Path_211729" data-name="Path 211729" d="M614.871,83.208,601.2,80.56l-3.969,34.627,13.452,3.307Z" transform="translate(-527.836 -55.956)" fill="#6c63ff"/>
        <path id="Path_211730" data-name="Path 211730" d="M377.656,35.03H375.67L371.7,69.654l8.821-.439Z" transform="translate(-371.117 -24.318)" fill="#6c63ff"/>
        <path id="Path_211731" data-name="Path 211731" d="M377.656,35.03H375.67L371.7,69.654l8.821-.439Z" transform="translate(-371.117 -24.318)" opacity="0.2"/>
        <path id="Path_211732" data-name="Path 211732" d="M383.526,33.58,381.1,68.427l21.172,2.206L404.7,36.668Z" transform="translate(-377.649 -23.31)" fill="#6c63ff"/>
        <path id="Path_211733" data-name="Path 211733" d="M526.235,706.809s-2.645-.22-3.088,7.5c0,0,.442,4.189-.662,6.176s-.442,7.719,2.868,8.381a17.673,17.673,0,0,0,6.407,0s1.544,0,.442-5.513L530,707.251Z" transform="translate(-494.776 -515.691)" fill="#5c3d53"/>
        <path id="Path_211734" data-name="Path 211734" d="M526.235,706.809s-2.645-.22-3.088,7.5c0,0,.442,4.189-.662,6.176s-.442,7.719,2.868,8.381a17.673,17.673,0,0,0,6.407,0s1.544,0,.442-5.513L530,707.251Z" transform="translate(-494.776 -515.691)" fill="#3f3d56" opacity="0.05"/>
        <path id="Path_211735" data-name="Path 211735" d="M554.3,261.167a14.762,14.762,0,0,0,.467,5.187l-5.733,1.544s-9.483,1.324-5.733-2.441c1.3-1.3,1.935-3.521,2.212-5.87a32.53,32.53,0,0,0,.162-4.833,43.071,43.071,0,0,0-.391-4.516s13.895-4.851,10.807,3.088a28.229,28.229,0,0,0-1.327,4.424A23.35,23.35,0,0,0,554.3,261.167Z" transform="translate(-508.974 -197.405)" fill="#f8bdc5"/>
        <path id="Path_211736" data-name="Path 211736" d="M562.607,253.336a28.235,28.235,0,0,0-1.327,4.424,9.5,9.5,0,0,1-9.089-3,43.071,43.071,0,0,0-.391-4.516S565.695,245.4,562.607,253.336Z" transform="translate(-515.489 -197.412)" opacity="0.1"/>
        <circle id="Ellipse_1032" data-name="Ellipse 1032" cx="9.483" cy="9.483" r="9.483" transform="translate(34.328 41.147)" fill="#f8bdc5"/>
        <path id="Path_211737" data-name="Path 211737" d="M485.577,138.422v2.868l-4.851,12.571-1.324-1.324a2.227,2.227,0,0,1-.2-.25c-3.2-4.552-5.535-34.816-5.535-34.816l-3.085-25.59s-3.307-7.933,3.966-7.5,1.544,7.277,1.544,7.277,4.851,24.259,4.189,25.141,0,3.53,0,3.53,1.986,5.074,1.763,8.821S485.577,138.422,485.577,138.422Z" transform="translate(-458.529 -83.161)" fill="#f8bdc5"/>
        <path id="Path_211738" data-name="Path 211738" d="M637.91,132.528l-11.469,24.259-1.763,3.3s-5.492,19.381-11.835,24.021a5.8,5.8,0,0,1-1.178.68L610.34,174.2l1.221-3.076.091-.235a14.812,14.812,0,0,0,3.307-4.851c1.324-3.088,5.074-9.263,5.074-9.263a10.907,10.907,0,0,0,.662-3.088c0-1.324,12.571-23.158,12.571-23.158s1.1-9.925,6.407-5.074S637.91,132.528,637.91,132.528Z" transform="translate(-556.168 -110.789)" fill="#f8bdc5"/>
        <path id="Path_211739" data-name="Path 211739" d="M539.831,706.413s-7.5,3.088-6.618.22c.537-1.739.339-5.025.1-7.323-.153-1.5-.323-2.591-.323-2.591l6.407.662a5.189,5.189,0,0,0-.369,1.754A30.88,30.88,0,0,0,539.831,706.413Z" transform="translate(-502.418 -508.681)" fill="#f8bdc5"/>
        <path id="Path_211740" data-name="Path 211740" d="M577.517,692.8c-1.156,4.015-.854,11.008-.854,11.008s-6.838.882-6.175-.882c.461-1.22,1.135-7.268,1.5-10.822.162-1.553.262-2.63.262-2.63l6.175,1.324A6.17,6.17,0,0,0,577.517,692.8Z" transform="translate(-528.443 -503.643)" fill="#f8bdc5"/>
        <path id="Path_211741" data-name="Path 211741" d="M533,696.69l6.407.662a5.186,5.186,0,0,0-.369,1.754,6.539,6.539,0,0,1-5.706.174C533.171,697.779,533,696.69,533,696.69Z" transform="translate(-502.425 -508.66)" opacity="0.1"/>
        <path id="Path_211742" data-name="Path 211742" d="M581.951,690.791a6.172,6.172,0,0,0-.915,2,11.861,11.861,0,0,1-5.526-.7c.162-1.553.262-2.63.262-2.63Z" transform="translate(-531.965 -503.643)" opacity="0.1"/>
        <path id="Path_211743" data-name="Path 211743" d="M540.964,458.584l-1.3,9.111a65.855,65.855,0,0,1-2.4,10.2,16.6,16.6,0,0,0-.271,6.712s.882,14.114-.662,17.644-1.324,8.6-1.324,8.6c-3.53,1.986-8.6-.443-8.6-.443l-.442-23.378a54.728,54.728,0,0,1-.662-11.9c.439-5.724-.662-17.422-.662-17.422-2.441.662-2.206,32.86-2.206,32.86v20.952a7.107,7.107,0,0,1-9.925,0c-1.764-5.294-1.1-21.394-1.1-21.394l-.662-9.483a278.533,278.533,0,0,1-3.966-28.009,77.807,77.807,0,0,1-.189-13.8q.064-.75.14-1.443a38.5,38.5,0,0,1,1.141-6.178,13.9,13.9,0,0,1,.671-1.956l23.7,1.1,1.4.064,3.356.156c.366.552.711,1.114,1.031,1.675.464.815.882,1.635,1.254,2.441.214.47.415.943.61,1.413A37.277,37.277,0,0,1,540.964,458.584Z" transform="translate(-483.921 -322.826)" fill="#3f3d56"/>
        <path id="Path_211744" data-name="Path 211744" d="M515.431,436.463s-1.037,10.374-8.351,7.371q.064-.751.14-1.443c1.721.467,6.484,1.111,6.664-5.931Z" transform="translate(-484.413 -327.829)" opacity="0.1"/>
        <path id="Path_211745" data-name="Path 211745" d="M598.818,438.607c-5.065,1.809-6.975-3.008-7.628-5.757l1.4.064c.76,4.323,3.793,4.577,5.638,4.272Q598.537,437.909,598.818,438.607Z" transform="translate(-542.861 -325.32)" opacity="0.1"/>
        <path id="Path_211746" data-name="Path 211746" d="M531.028,717.876c-1.126-.177-2.847-.8-2.307-2.96,0,0-2.084-.72-1.864,7.881,0,0-.22,4.189-.662,5.074s0,6.175,4.632,5.733c0,0,3.307,1.1,4.189-.662,0,0-.662-10.145.442-11.9s-.442-3.53-.442-3.53a4.772,4.772,0,0,1-2.685.61A11.776,11.776,0,0,0,531.028,717.876Z" transform="translate(-497.604 -521.315)" fill="#3f3d56"/>
        <path id="Path_211747" data-name="Path 211747" d="M559.383,748.977s-2.206,3.75,2.868,4.189,7.277-2.206,7.277-2.206a3.88,3.88,0,0,0,0-3.088c-.662-1.986.22-5.513.22-5.513s.662-4.189-.882-3.307S559.383,748.977,559.383,748.977Z" transform="translate(-520.427 -538.012)" fill="#5c3d53"/>
        <path id="Path_211748" data-name="Path 211748" d="M559.383,748.977s-2.206,3.75,2.868,4.189,7.277-2.206,7.277-2.206a3.88,3.88,0,0,0,0-3.088c-.662-1.986.22-5.513.22-5.513s.662-4.189-.882-3.307S559.383,748.977,559.383,748.977Z" transform="translate(-520.427 -538.012)" fill="#3f3d56" opacity="0.05"/>
        <path id="Path_211749" data-name="Path 211749" d="M565.075,727.143s-2.645-1.1-3.307,1.1-.22,7.719-1.544,9.263-3.088,5.733,2.206,5.513,6.407-1.986,6.407-1.986-.22-5.513.442-7.057a7.392,7.392,0,0,0,0-3.966S569.484,726.908,565.075,727.143Z" transform="translate(-520.382 -529.63)" fill="#3f3d56"/>
        <circle id="Ellipse_1033" data-name="Ellipse 1033" cx="0.442" cy="0.442" r="0.442" transform="translate(11.167 12.915)" opacity="0.2"/>
        <circle id="Ellipse_1034" data-name="Ellipse 1034" cx="0.442" cy="0.442" r="0.442" transform="translate(20.43 14.016)" opacity="0.2"/>
        <path id="Path_211750" data-name="Path 211750" d="M479.535,103.838h-.22c0-.095.156-9.4-5.187-10.255a2.81,2.81,0,0,0-2.557.708c-2.206,2.188-1.294,8.366-1.284,8.427l-.217.034c-.04-.259-.937-6.352,1.349-8.616a3.012,3.012,0,0,1,2.746-.772C479.693,94.249,479.538,103.744,479.535,103.838Z" transform="translate(-458.552 -89.376)" fill="#535461"/>
        <path id="Path_211751" data-name="Path 211751" d="M703.227,145.018l-.2-.095c.034-.073,3.432-7.436-1.059-10l.11-.192C706.745,137.4,703.264,144.942,703.227,145.018Z" transform="translate(-619.841 -118.16)" fill="#535461"/>
        <path id="Path_211752" data-name="Path 211752" d="M554.768,290.947l-5.733,1.544s-9.483,1.324-5.733-2.441c1.3-1.3,1.935-3.521,2.212-5.87,1.5,2.349,3.3,1.681,3.3,1.681l5.468-.107h.021A14.685,14.685,0,0,0,554.768,290.947Z" transform="translate(-508.974 -222.011)" opacity="0.1"/>
        <path id="Path_211753" data-name="Path 211753" d="M612.852,290.647a5.8,5.8,0,0,1-1.178.68L610.35,280.74l1.22-3.076.305-.235C614.631,278.214,613.209,288.356,612.852,290.647Z" transform="translate(-556.175 -217.321)" opacity="0.1"/>
        <path id="Path_211754" data-name="Path 211754" d="M506.917,261.54v2.868l-4.851,12.57-1.324-1.324a2.232,2.232,0,0,1-.2-.25C501.114,268.85,506.917,261.54,506.917,261.54Z" transform="translate(-479.869 -206.279)" opacity="0.1"/>
        <path id="Path_211755" data-name="Path 211755" d="M541.441,432.236c-3.085.772-19.188,4.555-23.966.973a10.889,10.889,0,0,0-6.185-2.014,13.909,13.909,0,0,1,.671-1.956l23.7,1.1,1.4.064,3.356.156Q540.962,431.394,541.441,432.236Z" transform="translate(-487.339 -322.812)" opacity="0.1"/>
        <path id="Path_211756" data-name="Path 211756" d="M474.1,90.59s3.307,5.513,5.513,0" transform="translate(-461.496 -87.487)" fill="#f8bdc5"/>
        <path id="Path_211757" data-name="Path 211757" d="M696.754,127.81s-1.324,6.618,3.966,3.53" transform="translate(-616.114 -113.351)" fill="#f8bdc5"/>
        <g id="Group_20472" data-name="Group 20472" transform="translate(24.479 106.437)" opacity="0.1">
          <path id="Path_211758" data-name="Path 211758" d="M547.47,524.672c-.107-1.342-.186-2.182-.186-2.182-2.441.662-2.206,32.86-2.206,32.86V576.3a7.671,7.671,0,0,1-4.378,2.035,7.283,7.283,0,0,0,5.492-2.035V555.35S546.021,532.019,547.47,524.672Z" transform="translate(-532.255 -494.048)"/>
          <path id="Path_211759" data-name="Path 211759" d="M544.388,436.12c-.186-.47-.384-.943-.61-1.413-.372-.818-.79-1.638-1.254-2.441-.305-.561-.665-1.12-1.031-1.675l-3.356-.156-1.4-.064-23.7-1.1-.021.049,22.618,1.053,1.4.064,3.356.156c.366.552.711,1.114,1.031,1.675.464.815.882,1.635,1.254,2.441.214.47.415.943.61,1.413a37.293,37.293,0,0,1,1.086,22.471l-1.3,9.111a65.858,65.858,0,0,1-2.4,10.2,16.6,16.6,0,0,0-.271,6.712s.882,14.114-.662,17.645-1.324,8.6-1.324,8.6a6.407,6.407,0,0,1-2.764.763,7.018,7.018,0,0,0,3.866-.763s-.22-5.074,1.324-8.6.662-17.645.662-17.645a16.6,16.6,0,0,1,.272-6.712,65.891,65.891,0,0,0,2.4-10.2l1.3-9.111A37.3,37.3,0,0,0,544.388,436.12Z" transform="translate(-513.02 -429.27)"/>
        </g>
        <path id="Path_211760" data-name="Path 211760" d="M516.6,270.508c3.051,1.437,10.191-4.082,10.191-4.082,3.088.882.882,13.675.882,13.675l-.119.531c-.671,3.018-1.077,6.084-1.452,9.153a9.1,9.1,0,0,1-2.4,4.433c-3.75,7.057,2.206,20.952,2.206,20.952s-19.188,5.074-24.479,1.1-13.233-.882-13.233-.882c3.75-3.307,3.966-23.82,3.966-23.82V275.7c.442-6.618,6.407-14.114,6.407-14.114a11.083,11.083,0,0,0,9.223,7.289c1.5,2.441,3.356,1.754,3.356,1.754Z" transform="translate(-471.294 -206.313)" fill="#f8c487"/>
        <path id="Path_211761" data-name="Path 211761" d="M535.328,202.279a5.409,5.409,0,0,0-2.3,0c-2.4.662-3.152,3.686-5,5.346-.665.61-1.486,1.019-2.09,1.681a5.5,5.5,0,0,0-1.062,4.5c.229,1.577.839,3.072,1.221,4.619a15.986,15.986,0,0,1,.424,4.735,2.786,2.786,0,0,1-.409,1.5c-.442.61-1.257.8-1.831,1.291-1.751,1.507-.305,4.635-1.59,6.56-.552.833-1.587,1.382-1.8,2.359a3.228,3.228,0,0,0,.479,2.029,14.689,14.689,0,0,0,3.051,4.653,14.308,14.308,0,0,0,4.8,2.517c.516.192,1.163.36,1.556-.021.485-.476.119-1.281-.217-1.87a3.976,3.976,0,0,1-.635-3.051c.311-1.031,1.309-1.715,1.98-2.575,1.73-2.227,1.162-5.425.305-8.11a6.3,6.3,0,0,1-.464-3.487c.131-.494.391-.943.555-1.428.732-2.16-.5-4.531-.137-6.783a9.735,9.735,0,0,1,.915-2.523l1.937-4.165a4.114,4.114,0,0,1,.857-1.349,3.051,3.051,0,0,1,2.136-.665,5.8,5.8,0,0,1,4.159,1.895c2.075,2.307,1.943,5.8,1.693,8.873l-.18,2.221a8.128,8.128,0,0,1-1.312,4.549c-.784.964-2.05,1.62-2.374,2.822-.281,1.034.247,2.157-.031,3.191-.415,1.547-2.325,2.105-3.335,3.356a3.433,3.433,0,0,0-.25,3.86c.384.61,1,1.22.915,1.937-.07.577-.589,1.043-.586,1.623a1.29,1.29,0,0,0,.937,1.12,3.782,3.782,0,0,0,1.547.073l5.471-.494a1.926,1.926,0,0,0,.973-.268,1.713,1.713,0,0,0,.558-1.248c.22-1.947-.305-4.073.668-5.776.305-.546.754-1,1.092-1.526,1.867-2.929-.015-6.9,1-10.224.482-1.577,1.6-2.932,1.9-4.552.4-2.16-.729-4.272-1.166-6.407-.448-2.206-.208-4.635-1.385-6.554a6.741,6.741,0,0,0-4.177-2.795,32.21,32.21,0,0,0-4.577-.412C538.1,203.136,536.747,202.508,535.328,202.279Z" transform="translate(-493.985 -165.013)" opacity="0.1"/>
        <path id="Path_211762" data-name="Path 211762" d="M535.328,200.829a5.41,5.41,0,0,0-2.3,0c-2.4.662-3.152,3.686-5,5.346-.665.61-1.486,1.019-2.09,1.681a5.5,5.5,0,0,0-1.062,4.5c.229,1.577.839,3.072,1.221,4.619a15.986,15.986,0,0,1,.424,4.735,2.786,2.786,0,0,1-.409,1.5c-.442.61-1.257.8-1.831,1.291-1.751,1.507-.305,4.635-1.59,6.56-.552.833-1.587,1.382-1.8,2.359a3.228,3.228,0,0,0,.479,2.029,14.689,14.689,0,0,0,3.051,4.653,14.308,14.308,0,0,0,4.8,2.517c.516.192,1.163.36,1.556-.021.485-.476.119-1.281-.217-1.87a3.976,3.976,0,0,1-.635-3.051c.311-1.031,1.309-1.715,1.98-2.575,1.73-2.227,1.162-5.425.305-8.11a6.3,6.3,0,0,1-.464-3.487c.131-.494.391-.943.555-1.428.732-2.16-.5-4.531-.137-6.783a9.735,9.735,0,0,1,.915-2.523l1.937-4.165a4.114,4.114,0,0,1,.857-1.349,3.051,3.051,0,0,1,2.136-.665,5.8,5.8,0,0,1,4.159,1.895c2.075,2.307,1.943,5.8,1.693,8.873l-.18,2.221a8.128,8.128,0,0,1-1.312,4.549c-.784.964-2.05,1.62-2.374,2.822-.281,1.034.247,2.157-.031,3.191-.415,1.547-2.325,2.105-3.335,3.356a3.433,3.433,0,0,0-.25,3.86c.384.61,1,1.22.915,1.937-.07.577-.589,1.043-.586,1.623a1.29,1.29,0,0,0,.937,1.12,3.784,3.784,0,0,0,1.547.073l5.471-.494a1.926,1.926,0,0,0,.973-.268,1.713,1.713,0,0,0,.558-1.248c.22-1.947-.305-4.073.668-5.776.305-.546.754-1,1.092-1.526,1.867-2.929-.015-6.9,1-10.224.482-1.577,1.6-2.932,1.9-4.552.4-2.16-.729-4.272-1.166-6.407-.448-2.206-.208-4.635-1.385-6.554a6.741,6.741,0,0,0-4.177-2.795,32.212,32.212,0,0,0-4.577-.412C538.1,201.689,536.747,201.061,535.328,200.829Z" transform="translate(-493.985 -164.006)" fill="#3f3d56"/>
        <path id="Path_211763" data-name="Path 211763" d="M529.75,363.194s4.412,1.324,10.807-1.544h3.3s.22,3.088,8.821,1.763" transform="translate(-500.167 -275.844)" opacity="0.1"/>
      </g>
      <g id="woman" transform="translate(10927.447 630.487)">
        <path id="Path_211670" data-name="Path 211670" d="M433.334,286.361s-7.985-14.6-6.639-16.97a32.348,32.348,0,0,0,2.338-5.812s2.949-2.017,2.949-2.841,2.335-2.73,3.565-3.559.614-4.747,0-5.221a10.821,10.821,0,0,1-1.588-2.136s.852-2.372,0-3.085.125-1.42,0-2.136a28.676,28.676,0,0,1,0-3.321,5.353,5.353,0,0,0-3.142-2.273l-.091-.375-.526-2.213s2.557-4.9-1.591-7.465a6.934,6.934,0,0,0-.918-.483,3.187,3.187,0,0,0-.023-.321,20.078,20.078,0,0,0-.6-3.753c-.216-.687-.5-1.15-.852-1.045a.568.568,0,0,0-.233.134,2.591,2.591,0,0,0-.44.52h0a.116.116,0,0,1-.02.031,8.91,8.91,0,0,0-.977,2.713,15.687,15.687,0,0,0-.284,1.7h0a9.37,9.37,0,0,0-.474,1.054c-.5,1.3-1.091,3.562-.02,5.233.909,1.42,2.133,3.372,3.022,4.792l.028.045.054.088-.094.06v.219l.082,1.2.688,10.334a4.4,4.4,0,0,0-.631-.134,5.729,5.729,0,0,0-.918-.06c-.6-2.355-2.244-4.545-2.557-7.005a6.51,6.51,0,0,1-.048-.741c.026-1.548.412-3.1.381-4.647,0-.284,0-.568-.028-.852h0a2.272,2.272,0,0,0-.023-.236,6.985,6.985,0,0,0-3.8-5.292c-.713-.355-1.486-.591-2.179-.98-1.6-.9-2.628-2.517-4.082-3.628a4.518,4.518,0,0,0-3.906-.852,18.037,18.037,0,0,0-1.9.392h0a17.147,17.147,0,0,0-4.349,1.807c-.185.111-.369.224-.545.355a2.4,2.4,0,0,0-.878,1.025,2.688,2.688,0,0,0-.136,1.105c0,.27,0,.545.017.815-.079,4.545-4.977,8.062-5.38,12.5,0,.105-.017.21-.023.315v.486h0v.355c.071,1.946,1.082,3.758,1.267,5.7.017.173.026.344.028.517a8.588,8.588,0,0,1-.5,2.608,7.633,7.633,0,0,0-1.764.716c-1.489.957-4.176,2.611-5.156,5.772a8.453,8.453,0,0,0-.372,2.534,52.907,52.907,0,0,1-.83,9.048,16.915,16.915,0,0,1-.523,2.224.522.522,0,0,0-.017.219l-.591,7.67L388,284.555l-.148,1.92s.043.116.105.312a9.046,9.046,0,0,1,.233.886,4.767,4.767,0,0,1,.077,1.988,1.37,1.37,0,0,1-.415.73.308.308,0,0,0-.048.054,5.9,5.9,0,0,0-.449,1.954c-.051.4-.1.852-.148,1.324-.284,3.025-.46,7.553-.568,11.3-.1,3.693-.139,6.61-.139,6.61a7.539,7.539,0,0,0,1.525.756c-.04.1-.082.2-.122.31a14.924,14.924,0,0,0-.926,3.9c-.239,2.792.543,5.894,4.437,7.491a6.263,6.263,0,0,0,.764.261,2.424,2.424,0,0,0,1.943-.119c0,.168.02.329.028.491.04.693.074,1.327.091,1.858.122,3.324.946,9.136.946,9.136a12.1,12.1,0,0,1,.037,3.085,16.75,16.75,0,0,0,0,3.559s.852,1.42,0,2.136-1.105,4.261-.852,4.747a.16.16,0,0,1,.014.054c.188,1.179-.872,18.694-.872,18.694s-1,2.682-1.8,5.465c-.778,2.71-1.364,5.517-.642,6.042a6.03,6.03,0,0,0,2.247.608c0,.116-.017.233-.028.352a10.118,10.118,0,0,1-.5,2.943c-.338.483-.693,4.227-.866,6.249l-.017.224a20.942,20.942,0,0,0-.915,2.653s-2.719,6.818-1.8,8.587a1.452,1.452,0,0,0,.338.418h0a.774.774,0,0,0,.088.08c1.31,1.048,4.591,1.267,5.781,1.315l-.045,1.687v.063h1.548v-.043c0-.213.034-1.19.085-2.5,0-.233.017-.477.028-.727,0-.2.02-.395.028-.6a10.511,10.511,0,0,0,.673-3.792,16.644,16.644,0,0,1,.6-4.4,12.218,12.218,0,0,1,.787-2.145,9.792,9.792,0,0,0-.19-4.366,3.154,3.154,0,0,0-.568-.983v-.568a16.385,16.385,0,0,1,.364-3.642.411.411,0,0,1,0-.057c.023-.1.048-.193.074-.284l.017-.062.5.017c1.542.043,2.676.043,2.676.043s1.23-6.289,1.108-9.016v-.369a35.114,35.114,0,0,1,.744-6.394l.991-9.616a5.057,5.057,0,0,1,0-2.841c.3-.733.932-2.094,1.369-3.031.2-.435.366-.775.435-.923l.04-.08a1.839,1.839,0,0,1-.437-.219h0c-.4-.267-.758-.79.44-1.56,1.844-1.187,1.23-4.153,1.23-4.153a2.132,2.132,0,0,1,.1-2.017c.639-.949,0-4.508,0-4.508a14.905,14.905,0,0,0,1.261-2.968c.457-1.42,1.613-8.366,2.159-11.715.179-1.1.284-1.81.284-1.81l.017.173.017.188h0l.153,1.582.02.21.284,2.991s.568,7.863.213,10.945v.057a3.64,3.64,0,0,1-.207.935c-.653,1.477-.534,7.346-.5,8.644v.261a5.227,5.227,0,0,0-.347,2.006h0a1.287,1.287,0,0,0,.224.6,1.511,1.511,0,0,1,.219.923v.028a3.351,3.351,0,0,1-.034.409,7.8,7.8,0,0,1-.432,1.608,5.884,5.884,0,0,0-.409,2.639h0a.835.835,0,0,0,.162.321.759.759,0,0,1,.094.341.121.121,0,0,0,0,.031c.23,1.912-.364,10.351-.716,14.97-.142,1.824-.244,3.051-.244,3.051l-.974,10.084.1.068c.111.08.318.216.6.381v.023l-.043.3c-.139.971-.327,2.1-.531,2.966-.017.065-.031.128-.048.187a2.717,2.717,0,0,0-1.043.418c-2.068,3.673-1.153,6.585,0,7.431a2.985,2.985,0,0,1,.7,1.736l.284,3.662v.42a1.09,1.09,0,0,0,.054.335l.088,1.111.119,1.545h.943v-1.872h.051c1.489.051,3.889.114,4.934.031h.028a1.839,1.839,0,0,0,.284-.031.713.713,0,0,0,.165-.045c.554-.267,1.935-4.181.69-5.071s-1.52-3.409-1.52-3.409c-.108-.33-.216-.642-.327-.94v-.193a15.623,15.623,0,0,1,.148-3.255,24.768,24.768,0,0,0,.324-3.889V383.9a4.851,4.851,0,0,0,.633-.207l.045-.02a4.463,4.463,0,0,0,1.06-.628l3.477-15.408.366-1.792,2.088-10.2s-.736-3.559,0-4.15c.27-.216.344-1.136.327-2.2-.028-1.863-.327-4.207-.327-4.207s.983-1.542,1.477-2.491,0-3.44,0-3.44l.969-5.7A53.907,53.907,0,0,1,429.156,321c1.988-4.19.721-15.5-.568-21.527-.034-.156-.068-.31-.1-.457v-.023c.608-.3,1.352-.665,2.147-1.045l.3-.142c1.008-.474,2.077-.963,3.034-1.369l.062-.026a21.186,21.186,0,0,1,2.111-.79,3.536,3.536,0,0,1,.648-.134C438.5,295.378,433.334,286.361,433.334,286.361Zm-38.437,19.3h.511c-.06.111-.116.224-.173.338-.034.068-.068.133-.1.2-.187.389-.361.787-.5,1.176.057-.42.128-.878.207-1.366C394.86,305.905,394.88,305.777,394.9,305.664Zm-1.381,7.406a.211.211,0,0,0,0-.04l-.043-.133c-.031-.091-.06-.182-.088-.284q.264-.08.537-.179h.037v.094c-.014.134-.031.267-.048.4h0a.28.28,0,0,1,0,.051,2.751,2.751,0,0,1-.037.312c-.026.2-.051.4-.074.594-.054-.179-.108-.355-.165-.528a1.348,1.348,0,0,1-.119-.284Z" transform="translate(-386.5 -223.338)" fill="url(#linear-gradient-3)"/>
        <path id="Path_211671" data-name="Path 211671" d="M521.676,242.277l-3.068,1.085-1.114-1.846c-.852-1.42-2.034-3.363-2.906-4.775-1.54-2.483.474-6.267.474-6.267s.364-3.8,1.659-4.968,1.656,4.968,1.656,4.968c5.2,2.363,2.415,7.923,2.415,7.923l.506,2.2Z" transform="translate(-477.788 -224.784)" fill="#efb7b9"/>
        <path id="Path_211672" data-name="Path 211672" d="M530.461,280.438l-3.068,1.085-1.114-1.846v-.162a5.343,5.343,0,0,1,3.809-.753Z" transform="translate(-486.573 -262.945)" opacity="0.1"/>
        <path id="Path_211673" data-name="Path 211673" d="M523.56,293.771l1.537-1.3-.77-11.709a4.865,4.865,0,0,1,6.92,1.537,29.879,29.879,0,0,0,0,3.312c.119.71-.827,1.42,0,2.128s0,3.076,0,3.076a10.68,10.68,0,0,0,1.525,2.128c.591.472,1.185,4.377,0,5.2s-3.406,2.721-3.406,3.548-2.841,2.841-2.841,2.841l-2.494-3.3Z" transform="translate(-484.626 -263.836)" fill="#bf0080"/>
        <path id="Path_211674" data-name="Path 211674" d="M395.7,540.917c-5.732-2.432-4.46-8.371-3.38-11.363a15.48,15.48,0,0,1,.759-1.773l3.216-1.952s.656,1.673,1.358,3.917C399.278,534.968,401.15,543.232,395.7,540.917Z" transform="translate(-390 -439.902)" fill="#efb7b9"/>
        <path id="Path_211675" data-name="Path 211675" d="M415.385,765.858a9.659,9.659,0,0,0-.852,2.392,17.277,17.277,0,0,0-.369,4.071c.023.946.1,1.565.1,1.565l-6.386,4.392s.037-.514.1-1.27c.165-2.011.508-5.744.832-6.227a10.367,10.367,0,0,0,.48-2.932c.1-1.25.139-2.346.139-2.346S417.115,762.623,415.385,765.858Z" transform="translate(-401.807 -610.646)" fill="#efb7b9"/>
        <path id="Path_211676" data-name="Path 211676" d="M471.62,779.367s0,1.221-.046,2.642a27.059,27.059,0,0,1-.31,3.878,15.959,15.959,0,0,0-.145,3.244c.043,1.42.145,2.7.145,2.7s-6.519-6.164-5.855-6.653a3.021,3.021,0,0,0,.517-1.355c.2-.852.378-1.988.511-2.954.159-1.151.258-2.077.258-2.077Z" transform="translate(-442.96 -621.005)" fill="#efb7b9"/>
        <path id="Path_211677" data-name="Path 211677" d="M418.979,765.858a9.659,9.659,0,0,0-.852,2.392,52.208,52.208,0,0,1-5.227-.4c.1-1.221.139-2.346.139-2.346S420.709,762.623,418.979,765.858Z" transform="translate(-405.401 -610.646)" opacity="0.1"/>
        <path id="Path_211678" data-name="Path 211678" d="M474.331,779.381s0,1.221-.045,2.642a7.107,7.107,0,0,1-5.136-1.136c.159-1.15.258-2.076.258-2.076Z" transform="translate(-445.672 -621.019)" opacity="0.1"/>
        <path id="Path_211679" data-name="Path 211679" d="M441.239,504.171a55.17,55.17,0,0,0-3.667,12.419l-.946,5.681s.474,2.483,0,3.429-1.42,2.486-1.42,2.486.71,5.795,0,6.386,0,4.139,0,4.139l-2.366,11.931-3.312,15.374c-3.193,2.6-7.443-.707-7.443-.707l.937-10.053s1.42-17.612.829-18.333.236-2.957.236-2.957.829-2.13.239-2.957.116-2.6.116-2.6-.236-7.215.474-8.871,0-11.9,0-11.9l-.284-3.19-.165-1.767-.014-.173s-.108.707-.284,1.8c-.523,3.338-1.636,10.255-2.077,11.678a15.208,15.208,0,0,1-1.213,2.957s.614,3.548,0,4.494a2.2,2.2,0,0,0-.094,2.011s.591,2.957-1.185,4.139,0,1.775,0,1.775-1.3,2.841-1.773,4.02a5.259,5.259,0,0,0,0,2.841l-.946,9.579a34.646,34.646,0,0,0-.71,6.741c.119,2.721-1.065,8.988-1.065,8.988s-9.107,0-10.51-1.065,2.344-11.457,2.344-11.457,1.065-18.214.827-18.686,0-4.022.829-4.73,0-2.13,0-2.13a17.447,17.447,0,0,1,0-3.548,12.587,12.587,0,0,0-.037-3.076s-.793-5.795-.909-9.107-.71-10.76-.71-10.76.619-4.608.713-6.8a7.723,7.723,0,0,1,.852-2.764,24.652,24.652,0,0,1,1.761-3.091s28.023-8.283,29.2-7.46c.313.219.767,1.7,1.216,3.855C441.932,488.718,443.154,500,441.239,504.171Z" transform="translate(-399.231 -406.23)" fill="#3f3d56"/>
        <circle id="Ellipse_1031" data-name="Ellipse 1031" cx="8.161" cy="8.161" r="8.161" transform="translate(16.581 9.332)" fill="#a1616a"/>
        <path id="Path_211680" data-name="Path 211680" d="M451.319,482.715c-.94.483-1.571.815-1.571.815s-13.246,6.269-17.013,5.914c-2.915-.284-10.354-.122-13.6-.043a24.674,24.674,0,0,1,1.761-3.091s28.026-8.28,29.2-7.457C450.416,479.079,450.87,480.559,451.319,482.715Z" transform="translate(-409.868 -406.23)" opacity="0.1"/>
        <path id="Path_211681" data-name="Path 211681" d="M413.33,325.544s-7.559,1.193-9.343,2.363-5.318,3.432-5.318,8.281a46.983,46.983,0,0,1-1.3,11.235c-.474,1.418,7.451,12.891,7.451,12.891L401.979,377.7s11.363-.355,15.146,0,17.024-5.914,17.024-5.914,7.806-4.139,9.462-4.261-3.312-9.107-3.312-9.107-7.69-14.544-6.389-16.91a32.684,32.684,0,0,0,2.256-5.795l-1.42-12.061a4.64,4.64,0,0,0-3.9.591c-1.775,1.3-7.806.591-7.806.591Z" transform="translate(-394.266 -295.018)" fill="#bf0080"/>
        <path id="Path_211682" data-name="Path 211682" d="M395.618,390.153l-2.966.827-.821,11.13s1.065,2.957,0,3.9-1.3,21.172-1.3,21.172a7.734,7.734,0,0,0,7.451.591s-.591-2.247,1.185-10.408a65.03,65.03,0,0,0,1.773-12.3s0-10.172.829-11.829,0-5.795,0-5.795-1.656-2.247-1.54-3.074S395.618,390.153,395.618,390.153Z" transform="translate(-389.385 -338.575)" opacity="0.1"/>
        <path id="Path_211683" data-name="Path 211683" d="M399.992,529.777a7.553,7.553,0,0,1-5.332-.193,15.471,15.471,0,0,1,.758-1.773l3.216-1.952S399.3,527.533,399.992,529.777Z" transform="translate(-392.342 -439.924)" opacity="0.1"/>
        <path id="Path_211684" data-name="Path 211684" d="M394.995,390.125l-2.957.827-.827,11.13s1.065,2.957,0,3.9-1.3,21.171-1.3,21.171a7.725,7.725,0,0,0,7.451.58s-.591-2.247,1.182-10.408a65.555,65.555,0,0,0,1.775-12.3s0-10.172.827-11.829,0-5.795,0-5.795-1.656-2.247-1.537-3.074S394.995,390.125,394.995,390.125Z" transform="translate(-388.941 -338.546)" fill="#bf0080"/>
        <path id="Path_211685" data-name="Path 211685" d="M499.194,411.15s-1.537,13.246-6.034,15.732C493.16,426.882,503.213,424.044,499.194,411.15Z" transform="translate(-462.862 -357.799)" opacity="0.1"/>
        <path id="Path_211686" data-name="Path 211686" d="M434.88,415.32s5.556,2.719,4.261,4.61S434.88,415.32,434.88,415.32Z" transform="translate(-421.137 -360.784)" opacity="0.1"/>
        <path id="Path_211687" data-name="Path 211687" d="M434.88,434.47s3.548,3.667,2.841,4.968S434.88,434.47,434.88,434.47Z" transform="translate(-421.137 -374.494)" opacity="0.1"/>
        <path id="Path_211688" data-name="Path 211688" d="M535.63,327.47a12.571,12.571,0,0,1,1.525,3.9C537.289,332.913,535.63,327.47,535.63,327.47Z" transform="translate(-493.267 -297.889)" opacity="0.1"/>
        <path id="Path_211689" data-name="Path 211689" d="M535.63,315.565s.7-.594,2.483,0S535.63,315.565,535.63,315.565Z" transform="translate(-493.267 -289.177)" opacity="0.1"/>
        <path id="Path_211690" data-name="Path 211690" d="M485.616,553.208a16.448,16.448,0,0,1-8.65-1.108l-1.491,3.818-.165-1.767c.244-1.483.719-3.071,1.656-3.471A14.355,14.355,0,0,0,485.616,553.208Z" transform="translate(-450.082 -457.693)" opacity="0.1"/>
        <path id="Path_211691" data-name="Path 211691" d="M426.18,577.07s7.275,1.508,9.315,1.241Z" transform="translate(-414.908 -476.587)" opacity="0.1"/>
        <path id="Path_211692" data-name="Path 211692" d="M428.84,583.75a15.029,15.029,0,0,1,4.656.489Z" transform="translate(-416.813 -481.36)" opacity="0.1"/>
        <path id="Path_211693" data-name="Path 211693" d="M430.09,588.31a27.852,27.852,0,0,0,4.3.568Z" transform="translate(-417.708 -484.634)" opacity="0.1"/>
        <path id="Path_211694" data-name="Path 211694" d="M429.46,643.454c.134-.088,6.21-1.508,6.965-.489Z" transform="translate(-417.257 -523.5)" opacity="0.1"/>
        <path id="Path_211695" data-name="Path 211695" d="M429.46,651.473s5.278-.622,5.411,0S429.46,651.473,429.46,651.473Z" transform="translate(-417.257 -529.656)" opacity="0.1"/>
        <path id="Path_211696" data-name="Path 211696" d="M429.46,655.768s5.633-1.165,6.3-.881S429.46,655.768,429.46,655.768Z" transform="translate(-417.257 -532.267)" opacity="0.1"/>
        <path id="Path_211697" data-name="Path 211697" d="M414.306,792.028l-6.386,4.392s.037-.514.1-1.27a17.215,17.215,0,0,1,3.27-5.338,2.617,2.617,0,0,1,2.915.651C414.226,791.406,414.306,792.028,414.306,792.028Z" transform="translate(-401.835 -628.786)" opacity="0.1"/>
        <path id="Path_211698" data-name="Path 211698" d="M408.078,796.414a15.849,15.849,0,0,0-1.332,6.534,10.133,10.133,0,0,1-1.352,5.258,5.176,5.176,0,0,1-.449.642s-4.437-.037-5.991-1.324a1.536,1.536,0,0,1-.418-.511c-.889-1.773,1.73-8.559,1.73-8.559a18.847,18.847,0,0,1,4.167-8.028C409.407,789.139,408.078,796.414,408.078,796.414Z" transform="translate(-394.985 -629.226)" fill="#444053"/>
        <path id="Path_211699" data-name="Path 211699" d="M406.91,828.887a5.2,5.2,0,0,1-.449.642s-4.437-.037-5.991-1.324c.764-2.528,3.2-10.178,4.343-8.877C405.887,820.549,406.634,826.427,406.91,828.887Z" transform="translate(-396.502 -649.921)" opacity="0.1"/>
        <path id="Path_211700" data-name="Path 211700" d="M420.22,819.795l-.31,11.459H421.4s.241-10.053.906-11.459S420.22,819.795,420.22,819.795Z" transform="translate(-410.419 -649.914)" fill="#444053"/>
        <path id="Path_211701" data-name="Path 211701" d="M471.265,804.406s-6.519-6.164-5.855-6.653a3.021,3.021,0,0,0,.517-1.355c1.253-.219,3.409.3,5.193,5.309C471.162,803.128,471.265,804.406,471.265,804.406Z" transform="translate(-442.96 -633.582)" opacity="0.1"/>
        <path id="Path_211702" data-name="Path 211702" d="M468.035,811.736a.666.666,0,0,1-.156.045,46.316,46.316,0,0,1-5.176,0,1.119,1.119,0,0,1-1.082-1.116c0-.426,0-.946-.034-1.5-.074-1.75-.284-3.832-.912-4.3-1.111-.852-1.988-3.744,0-7.406,0,0,3.812-2.912,6.562,5.84,0,0,.267,2.5,1.463,3.383S468.569,811.483,468.035,811.736Z" transform="translate(-438.756 -634.037)" fill="#444053"/>
        <path id="Path_211703" data-name="Path 211703" d="M473.142,830.359a46.332,46.332,0,0,1-5.176,0,1.119,1.119,0,0,1-1.082-1.116c0-.426,0-.946-.034-1.5.48-2.119,1.17-4.3,2.06-4.8C468.915,822.942,471.605,822.638,473.142,830.359Z" transform="translate(-444.025 -652.615)" opacity="0.1"/>
        <path id="Path_211704" data-name="Path 211704" d="M423.46,798.532l.716,9.536h.909V797.72Z" transform="translate(-401.059 -628.461)" fill="#444053"/>
        <path id="Path_211705" data-name="Path 211705" d="M432.386,239.086a16.311,16.311,0,0,0-7.278,2.338,3.024,3.024,0,0,0-1.372,1.378,4.566,4.566,0,0,0-.111,1.7c.077,4.892-5.377,8.593-5.207,13.482.068,1.94,1.043,3.747,1.221,5.681.3,3.227-1.611,6.2-3.44,8.869a7.346,7.346,0,0,0,5.184-1.719,39.312,39.312,0,0,1,.724,19.814h2.616a1.988,1.988,0,0,1,.764.094,1.92,1.92,0,0,1,.605.452c2.446,2.434,4.085,6.034,3.15,9.357l5.568-2.088a16.539,16.539,0,0,0,3.843-1.832,5.551,5.551,0,0,0,2.375-3.423c.151-.852.1-1.869.8-2.363a4.374,4.374,0,0,1,1.1-.406c1.528-.54,2.2-2.307,2.517-3.9a22.444,22.444,0,0,0,.355-5.928c-.247-3.324-1.23-6.7-.42-9.942.457-1.821,1.474-3.517,1.557-5.4.134-3.1-2.29-5.769-2.65-8.852-.253-2.148.523-4.321.27-6.468a6.948,6.948,0,0,0-3.656-5.275c-.685-.352-1.42-.588-2.1-.977-1.543-.895-2.528-2.505-3.929-3.613s-3.733-1.525-4.787-.085Z" transform="translate(-407.763 -234.597)" opacity="0.1"/>
        <path id="Path_211706" data-name="Path 211706" d="M432.386,237.821a16.311,16.311,0,0,0-7.278,2.338,3.024,3.024,0,0,0-1.372,1.378,4.566,4.566,0,0,0-.111,1.7c.077,4.892-5.377,8.593-5.207,13.485.068,1.937,1.043,3.744,1.221,5.681.3,3.227-1.611,6.2-3.44,8.871a7.386,7.386,0,0,0,5.184-1.719,39.3,39.3,0,0,1,.724,19.808h2.616a1.99,1.99,0,0,1,.764.1,1.87,1.87,0,0,1,.605.449c2.446,2.437,4.085,6.034,3.15,9.357l5.568-2.088a16.542,16.542,0,0,0,3.843-1.832,5.55,5.55,0,0,0,2.375-3.423c.151-.852.1-1.869.8-2.363a4.376,4.376,0,0,1,1.1-.406c1.528-.54,2.2-2.307,2.517-3.9a22.442,22.442,0,0,0,.364-5.934c-.247-3.324-1.23-6.7-.42-9.942.457-1.821,1.474-3.517,1.557-5.4.134-3.1-2.29-5.769-2.65-8.851-.253-2.148.523-4.318.27-6.468a6.954,6.954,0,0,0-3.656-5.275c-.685-.352-1.42-.588-2.1-.974-1.542-.9-2.528-2.508-3.929-3.616s-3.733-1.525-4.787-.085Z" transform="translate(-407.763 -233.687)" fill="#3f3d56"/>
        <g id="Group_20471" data-name="Group 20471" transform="translate(8.437 8.372)" opacity="0.1">
          <path id="Path_211707" data-name="Path 211707" d="M442.277,252.81a3.17,3.17,0,0,0-.017.33C442.269,253.032,442.274,252.921,442.277,252.81Z" transform="translate(-434.857 -252.81)"/>
          <path id="Path_211708" data-name="Path 211708" d="M514.939,281.457a30.219,30.219,0,0,0,.313-4.517A32.682,32.682,0,0,0,514.939,281.457Z" transform="translate(-486.873 -270.085)"/>
          <path id="Path_211709" data-name="Path 211709" d="M425.223,306.167c-.165-1.761-.986-3.409-1.179-5.167a6.482,6.482,0,0,0-.043.971c.068,1.917,1.02,3.71,1.213,5.619A7.661,7.661,0,0,0,425.223,306.167Z" transform="translate(-421.783 -287.311)"/>
          <path id="Path_211710" data-name="Path 211710" d="M518.218,331.427a12.18,12.18,0,0,0-.284,3.528,10.693,10.693,0,0,1,.284-2.048c.457-1.821,1.474-3.517,1.557-5.4a5.857,5.857,0,0,0-.045-1C519.508,328.2,518.625,329.774,518.218,331.427Z" transform="translate(-489.016 -305.574)"/>
          <path id="Path_211711" data-name="Path 211711" d="M421.384,344.36a7.385,7.385,0,0,1-4.193,1.7c-.324.506-.659,1-.991,1.488a7.385,7.385,0,0,0,5.184-1.719,39.2,39.2,0,0,1,1.653,10.638A39.289,39.289,0,0,0,421.384,344.36Z" transform="translate(-416.2 -318.354)"/>
          <path id="Path_211712" data-name="Path 211712" d="M478.353,390.672c-.312,1.591-.989,3.358-2.517,3.895a4.26,4.26,0,0,0-1.1.409c-.7.494-.653,1.517-.8,2.363a5.479,5.479,0,0,1-2.375,3.409,17.08,17.08,0,0,1-3.843,1.835l-5.312,1.988a7.332,7.332,0,0,1-.256,1.577l5.568-2.088a16.539,16.539,0,0,0,3.843-1.832,5.55,5.55,0,0,0,2.375-3.423c.151-.852.1-1.869.8-2.363a4.372,4.372,0,0,1,1.1-.406c1.528-.54,2.2-2.307,2.517-3.9a22.279,22.279,0,0,0,.4-5.028A22.245,22.245,0,0,1,478.353,390.672Z" transform="translate(-449.097 -348.96)"/>
          <path id="Path_211713" data-name="Path 211713" d="M441.044,414.607a1.877,1.877,0,0,0-.6-.452,2.031,2.031,0,0,0-.764-.1h-2.321c-.091.494-.187.989-.284,1.48h2.616a1.988,1.988,0,0,1,.764.1,1.87,1.87,0,0,1,.605.449,11.254,11.254,0,0,1,3.378,6.653C444.72,419.789,443.192,416.755,441.044,414.607Z" transform="translate(-431.142 -368.251)"/>
        </g>
        <path id="Path_211714" data-name="Path 211714" d="M405.37,449.087s2.113-.886,2.585,0S405.37,449.087,405.37,449.087Z" transform="translate(-400.01 -384.677)" opacity="0.1"/>
        <path id="Path_211715" data-name="Path 211715" d="M408,454.437s2.113-.886,2.588,0S408,454.437,408,454.437Z" transform="translate(-401.893 -388.508)" opacity="0.1"/>
      </g>
    </g>
  </g>
</svg>
