<svg xmlns="http://www.w3.org/2000/svg" width="541.145" height="330.52" viewBox="0 0 541.145 330.52">
  <g id="Group_21075" data-name="Group 21075" transform="translate(-947.354 -235)">
    <g id="Group_21995" data-name="Group 21995" transform="translate(-1.584 -13.255)">
      <path id="Path_214837" data-name="Path 214837" d="M9914.713,1617.689c19.613-19.067,216.312,47.528,296.892,1.56s202.049-12.168,202.049-12.168,47.834,36.005,19.244,67.6-128.586,23.078-166.743,17.27-81.99-10.565-173.627,0c-61.216,7.058-140.775,11.825-169.062,4.265a31.847,31.847,0,0,1-19.421-15.6S9895.1,1636.756,9914.713,1617.689Z" transform="translate(-8952.567 -1121.802)" stroke="#707070" stroke-width="1" opacity="0.16"/>
      <g id="Group_16304" data-name="Group 16304" transform="translate(952.211 298.059)">
        <rect id="Rectangle_9625" data-name="Rectangle 9625" width="152.724" height="106.429" transform="translate(48.549 104.565)" fill="#c4c2bd"/>
        <rect id="Rectangle_9626" data-name="Rectangle 9626" width="152.724" height="19.671" transform="translate(48.549 210.994)" fill="#728ba8"/>
        <path id="Path_201675" data-name="Path 201675" d="M122.323,270.433H100.975V242.047a10.674,10.674,0,1,1,21.348,0Z" transform="translate(-6.854 -117.428)" fill="#424c58"/>
        <path id="Path_201676" data-name="Path 201676" d="M90.051,270.433H68.7V242.047a10.674,10.674,0,1,1,21.348,0Z" transform="translate(-7.738 -117.428)" fill="#424c58"/>
        <path id="Path_201677" data-name="Path 201677" d="M133.246,270.433h21.348V242.047a10.674,10.674,0,1,0-21.348,0Z" transform="translate(-5.724 -117.428)" fill="#424c58"/>
        <path id="Path_201678" data-name="Path 201678" d="M165.517,270.433h21.348V242.047a10.674,10.674,0,1,0-21.348,0Z" transform="translate(-4.594 -117.428)" fill="#424c58"/>
        <path id="Path_201679" data-name="Path 201679" d="M122.323,319.231H100.975V290.846a10.674,10.674,0,1,1,21.348,0Z" transform="translate(-6.854 -115.512)" fill="#424c58"/>
        <path id="Path_201680" data-name="Path 201680" d="M90.051,319.231H68.7V290.846a10.674,10.674,0,1,1,21.348,0Z" transform="translate(-7.738 -115.512)" fill="#424c58"/>
        <path id="Path_201681" data-name="Path 201681" d="M133.246,319.231h21.348V290.846a10.674,10.674,0,1,0-21.348,0Z" transform="translate(-5.724 -115.512)" fill="#424c58"/>
        <path id="Path_201682" data-name="Path 201682" d="M165.517,319.231h21.348V290.846a10.674,10.674,0,1,0-21.348,0Z" transform="translate(-4.594 -115.512)" fill="#424c58"/>
        <path id="Path_201683" data-name="Path 201683" d="M61.288,199.819h140.9v23.412H50.333Z" transform="translate(-8.458 -118.666)" fill="#373f4a"/>
        <rect id="Rectangle_9627" data-name="Rectangle 9627" width="152.725" height="106.429" transform="translate(317.951 104.565)" fill="#c4c2bd"/>
        <rect id="Rectangle_9628" data-name="Rectangle 9628" width="152.725" height="19.671" transform="translate(317.951 210.994)" fill="#728ba8"/>
        <path id="Path_201684" data-name="Path 201684" d="M400.1,270.433h21.348V242.047a10.674,10.674,0,1,0-21.348,0Z" transform="translate(3.624 -117.428)" fill="#424c58"/>
        <path id="Path_201685" data-name="Path 201685" d="M432.371,270.433h21.348V242.047a10.674,10.674,0,1,0-21.348,0Z" transform="translate(4.541 -117.428)" fill="#424c58"/>
        <path id="Path_201686" data-name="Path 201686" d="M389.177,270.433H367.828V242.047a10.675,10.675,0,0,1,21.349,0Z" transform="translate(2.493 -117.428)" fill="#424c58"/>
        <path id="Path_201687" data-name="Path 201687" d="M356.906,270.433H335.558V242.047a10.674,10.674,0,1,1,21.348,0Z" transform="translate(1.363 -117.428)" fill="#424c58"/>
        <path id="Path_201688" data-name="Path 201688" d="M400.1,319.231h21.348V290.846a10.674,10.674,0,1,0-21.348,0Z" transform="translate(3.624 -115.512)" fill="#424c58"/>
        <path id="Path_201689" data-name="Path 201689" d="M432.371,319.231h21.348V290.846a10.674,10.674,0,1,0-21.348,0Z" transform="translate(4.541 -115.512)" fill="#424c58"/>
        <path id="Path_201690" data-name="Path 201690" d="M389.177,319.231H367.828V290.846a10.675,10.675,0,1,1,21.349,0Z" transform="translate(2.493 -115.512)" fill="#424c58"/>
        <path id="Path_201691" data-name="Path 201691" d="M356.906,319.231H335.558V290.846a10.674,10.674,0,1,1,21.348,0Z" transform="translate(1.363 -115.512)" fill="#424c58"/>
        <path id="Path_201692" data-name="Path 201692" d="M466.063,199.819h-140.9v23.412H477.017Z" transform="translate(0.334 -118.666)" fill="#373f4a"/>
        <path id="Path_201693" data-name="Path 201693" d="M338.349,187.712v-2.463l-74.72-63.519L188.91,185.249v2.463Z" transform="translate(-4.04 -121.73)" fill="#424c58"/>
        <path id="Path_201694" data-name="Path 201694" d="M330.21,185.246l-66.877-56.852-66.877,56.852v86.489H330.21Z" transform="translate(-3.743 -121.469)" fill="#dbd8d3"/>
        <rect id="Rectangle_9629" data-name="Rectangle 9629" width="110.898" height="72.93" transform="translate(204.143 157.735)" fill="#dbd8d3"/>
        <path id="Path_201695" data-name="Path 201695" d="M261.783,285.557h0a25.819,25.819,0,0,0-25.82,25.819v34.59H287.6v-34.59a25.819,25.819,0,0,0-25.819-25.819" transform="translate(-2.188 -115.301)" fill="#424c58"/>
        <rect id="Rectangle_9630" data-name="Rectangle 9630" width="22.857" height="16.255" transform="translate(192.944 214.409)" fill="#424c58"/>
        <rect id="Rectangle_9631" data-name="Rectangle 9631" width="17.777" height="52.281" transform="translate(195.481 162.128)" fill="#728ba8"/>
        <rect id="Rectangle_9632" data-name="Rectangle 9632" width="22.856" height="16.255" transform="translate(303.39 214.409)" fill="#424c58"/>
        <path id="Path_201696" data-name="Path 201696" d="M263.445,266.321H193.606v7.47h139.68v-7.47Z" transform="translate(-3.855 -116.056)" fill="#728ba8"/>
        <rect id="Rectangle_9633" data-name="Rectangle 9633" width="17.777" height="52.281" transform="translate(305.932 162.128)" fill="#728ba8"/>
        <rect id="Rectangle_9634" data-name="Rectangle 9634" width="2.714" height="47.221" transform="translate(203.007 164.657)" fill="#424c58"/>
        <rect id="Rectangle_9635" data-name="Rectangle 9635" width="2.715" height="47.221" transform="translate(197.782 164.657)" fill="#424c58"/>
        <rect id="Rectangle_9636" data-name="Rectangle 9636" width="2.715" height="47.221" transform="translate(208.23 164.657)" fill="#424c58"/>
        <rect id="Rectangle_9637" data-name="Rectangle 9637" width="2.714" height="47.221" transform="translate(313.472 164.657)" fill="#424c58"/>
        <rect id="Rectangle_9638" data-name="Rectangle 9638" width="2.715" height="47.221" transform="translate(308.247 164.657)" fill="#424c58"/>
        <rect id="Rectangle_9639" data-name="Rectangle 9639" width="2.715" height="47.221" transform="translate(318.694 164.657)" fill="#424c58"/>
        <rect id="Rectangle_9640" data-name="Rectangle 9640" width="126.311" height="33.581" transform="translate(196.435 116.685)" fill="#fbffff"/>
        <path id="Path_201697" data-name="Path 201697" d="M322.163,263.405H204.223V238.194h117.94Zm4.185-29.4H200.037v33.58H326.348Z" transform="translate(-3.602 -117.324)" fill="#424c58"/>
        <g id="Group_16305" data-name="Group 16305" transform="translate(192.713 33.672)">
          <text id="UNIVERSITY" transform="translate(30.767 103.531)" fill="#424c58" font-size="11" font-family="Montserrat-Bold, Montserrat" font-weight="700"><tspan x="0" y="0">UNIVERSITY</tspan></text>
          <g id="Group_15798" data-name="Group 15798" transform="translate(0)">
            <g id="Group_16305-2" data-name="Group 16305">
              <path id="Path_201698" data-name="Path 201698" d="M257.766,229.13H236.418V200.745a10.674,10.674,0,0,1,21.348,0Z" transform="translate(-194.888 -150.695)" fill="#424c58"/>
              <path id="Path_201699" data-name="Path 201699" d="M229.527,229.13H208.179V200.745a10.674,10.674,0,1,1,21.348,0Z" transform="translate(-195.996 -150.695)" fill="#424c58"/>
              <path id="Path_201700" data-name="Path 201700" d="M264.656,229.13H286V200.745a10.674,10.674,0,1,0-21.348,0Z" transform="translate(-193.78 -150.695)" fill="#424c58"/>
              <path id="Path_201701" data-name="Path 201701" d="M292.894,229.13h21.349V200.745a10.675,10.675,0,0,0-21.349,0Z" transform="translate(-192.671 -150.695)" fill="#424c58"/>
              <path id="Path_201702" data-name="Path 201702" d="M275.61,166.987a14.274,14.274,0,1,1-14.264-14.805,14.543,14.543,0,0,1,14.264,14.805" transform="translate(-194.469 -152.182)" fill="#728ba8"/>
              <path id="Path_201703" data-name="Path 201703" d="M273.155,166.894a11.906,11.906,0,1,1-11.9-12.349,12.129,12.129,0,0,1,11.9,12.349" transform="translate(-194.38 -152.089)" fill="#fbffff"/>
              <path id="Path_201704" data-name="Path 201704" d="M260.861,168.264a1.4,1.4,0,0,1-1.4-1.395V156.617a1.4,1.4,0,1,1,2.79,0v10.252a1.4,1.4,0,0,1-1.395,1.395" transform="translate(-193.983 -152.063)" fill="#728ba8"/>
              <path id="Path_201705" data-name="Path 201705" d="M257.269,171.752a1.4,1.4,0,0,1-1.006-2.363L260,165.513a1.395,1.395,0,0,1,2.009,1.935l-3.732,3.875a1.4,1.4,0,0,1-1,.428" transform="translate(-194.124 -151.676)" fill="#728ba8"/>
              <rect id="Rectangle_9642" data-name="Rectangle 9642" width="22.857" height="6.737" transform="translate(0 124.183)" fill="#424c58"/>
              <rect id="Rectangle_9643" data-name="Rectangle 9643" width="22.856" height="6.737" transform="translate(110.898 124.183)" fill="#424c58"/>
            </g>
          </g>
        </g>
        <g id="Group_17465" data-name="Group 17465" transform="translate(365.99 28.485)">
          <path id="Path_204215" data-name="Path 204215" d="M3177.051,763.1h-.455a21.336,21.336,0,0,0-1.51-5.063,16.14,16.14,0,0,0-3.264-4.846,10.963,10.963,0,0,0-4.376-2.708,8.923,8.923,0,0,0-4.81-.152,10.76,10.76,0,0,0-4.521,2.434c-.339.318-.665.664-1,1-.311.361-.614.751-.917,1.134-.282.412-.557.845-.824,1.271l-.721,1.387c-.419.9-1.048,2.759-1.048,2.759h-1.12a32.471,32.471,0,0,0-2.433-5.251l-.9-1.17c-.325-.347-.651-.693-.983-1.033-.346-.3-.7-.592-1.054-.874-.369-.238-.737-.5-1.113-.715a9.229,9.229,0,0,0-9.469.217,13.316,13.316,0,0,0-3.936,3.813,19.061,19.061,0,0,0-2.557,5.619c-.173.636-.324,1.286-.439,1.943h-.629l-7.778,6.392a66.2,66.2,0,0,1,8.023-2.008c.058-.014.5-.043.657-.043,2.1,0,8.1,2.051,8.1,2.051l-7.88-6.392h-.246c.131-.607.289-1.206.47-1.784a17.775,17.775,0,0,1,2.629-5.287,12.186,12.186,0,0,1,3.828-3.474,8.459,8.459,0,0,1,8.848.217,13.4,13.4,0,0,1,3.719,3.5,18.565,18.565,0,0,1,2.621,5.15c.21.628.39,1.278.542,1.936l-.9,172.731h2.745l-.743-171.966a21.207,21.207,0,0,1,1.848-5.568,16.314,16.314,0,0,1,3.185-4.42,10.063,10.063,0,0,1,4.132-2.492,8.314,8.314,0,0,1,4.528-.051,10.2,10.2,0,0,1,4.225,2.4,15.16,15.16,0,0,1,3.293,4.5,20.472,20.472,0,0,1,1.625,4.832h-.528l-7.778,6.392s6.579-2.051,8.681-2.051,8.1,2.051,8.1,2.051Z" transform="translate(-3121.2 -750.069)" fill="#3a2523"/>
          <path id="Path_204216" data-name="Path 204216" d="M3520.869,3007.58h-4.832l-.838-27.38h6.486Z" transform="translate(-3486.743 -2819.13)" fill="#222438"/>
          <path id="Path_204217" data-name="Path 204217" d="M3501.324,3162l-1.25,27.835h-7.4L3491.4,3162Z" transform="translate(-3464.663 -2987.8)" fill="#514168"/>
          <path id="Path_204218" data-name="Path 204218" d="M3499.714,3189.836h-7.129L3491.3,3162h7.568c-1,9.114-2.224,21.8-1.553,24.13A6.457,6.457,0,0,0,3499.714,3189.836Z" transform="translate(-3464.57 -2987.8)" fill="#2d2835"/>
        </g>
        <g id="Group_17468" data-name="Group 17468" transform="translate(90.167 28.485)">
          <path id="Path_204215-2" data-name="Path 204215" d="M3177.051,763.1h-.455a21.336,21.336,0,0,0-1.51-5.063,16.14,16.14,0,0,0-3.264-4.846,10.963,10.963,0,0,0-4.376-2.708,8.923,8.923,0,0,0-4.81-.152,10.76,10.76,0,0,0-4.521,2.434c-.339.318-.665.664-1,1-.311.361-.614.751-.917,1.134-.282.412-.557.845-.824,1.271l-.721,1.387c-.419.9-1.048,2.759-1.048,2.759h-1.12a32.471,32.471,0,0,0-2.433-5.251l-.9-1.17c-.325-.347-.651-.693-.983-1.033-.346-.3-.7-.592-1.054-.874-.369-.238-.737-.5-1.113-.715a9.229,9.229,0,0,0-9.469.217,13.316,13.316,0,0,0-3.936,3.813,19.061,19.061,0,0,0-2.557,5.619c-.173.636-.324,1.286-.439,1.943h-.629l-7.778,6.392a66.2,66.2,0,0,1,8.023-2.008c.058-.014.5-.043.657-.043,2.1,0,8.1,2.051,8.1,2.051l-7.88-6.392h-.246c.131-.607.289-1.206.47-1.784a17.775,17.775,0,0,1,2.629-5.287,12.186,12.186,0,0,1,3.828-3.474,8.459,8.459,0,0,1,8.848.217,13.4,13.4,0,0,1,3.719,3.5,18.565,18.565,0,0,1,2.621,5.15c.21.628.39,1.278.542,1.936l-.9,172.731h2.745l-.743-171.966a21.207,21.207,0,0,1,1.848-5.568,16.314,16.314,0,0,1,3.185-4.42,10.063,10.063,0,0,1,4.132-2.492,8.314,8.314,0,0,1,4.528-.051,10.2,10.2,0,0,1,4.225,2.4,15.16,15.16,0,0,1,3.293,4.5,20.472,20.472,0,0,1,1.625,4.832h-.528l-7.778,6.392s6.579-2.051,8.681-2.051,8.1,2.051,8.1,2.051Z" transform="translate(-3121.2 -750.069)" fill="#3a2523"/>
          <path id="Path_204216-2" data-name="Path 204216" d="M3520.869,3007.58h-4.832l-.838-27.38h6.486Z" transform="translate(-3486.743 -2819.13)" fill="#222438"/>
          <path id="Path_204217-2" data-name="Path 204217" d="M3501.324,3162l-1.25,27.835h-7.4L3491.4,3162Z" transform="translate(-3464.663 -2987.8)" fill="#514168"/>
          <path id="Path_204218-2" data-name="Path 204218" d="M3499.714,3189.836h-7.129L3491.3,3162h7.568c-1,9.114-2.224,21.8-1.553,24.13A6.457,6.457,0,0,0,3499.714,3189.836Z" transform="translate(-3464.57 -2987.8)" fill="#2d2835"/>
        </g>
        <g id="Group_17481" data-name="Group 17481" transform="translate(460.982 185.269)">
          <g id="Group_5765" data-name="Group 5765" transform="translate(37.088 53.391) rotate(-158)">
            <path id="Path_186842" data-name="Path 186842" d="M19.6.939c1.759,5.593,2.853,10.718,1.244,11.64-1.269.732-3.475-1.58-4.448-.823-1.723,1.342,3.892,9.675,2.023,11.413-.995.925-4.068-2.52-5.7-1.514-1.346.83.059,3.5-1.321,7.115-.8,2.1-2.74,5.055-4.785,4.957-2.242-.11-4.448-3.9-4.43-7.356.026-5.333,5.333-8.94,4.3-10.29-.885-1.152-5.015,1.189-6.2-.322-.6-.768-.1-2.085.037-2.429C2.046,8.84,10.016,8.1,9.859,7.319c-.037-.183-.512-.285-3.252-.326-4.444-.062-5.439.176-5.655-.267-.443-.907,2.7-3.995,6.5-5.556A18.232,18.232,0,0,1,19.6.939Z" transform="translate(0 0)" fill="#728ba8"/>
            <path id="Path_186843" data-name="Path 186843" d="M11.837,0S3.771,6.95,0,28.492" transform="translate(6.574 1.616)" fill="none" stroke="#999" stroke-miterlimit="10" stroke-width="1"/>
          </g>
          <g id="Group_5763" data-name="Group 5763" transform="translate(0)">
            <path id="Path_186838" data-name="Path 186838" d="M246.122,331.417c-5.681-5.681-10.242-11.212-8.885-13.352,1.079-1.683,5.224-.282,5.926-1.829,1.244-2.725-10.857-9.291-9.69-12.587.622-1.752,6.54.486,7.887-1.771,1.1-1.858-2.29-4.214-2.9-9.478-.366-3.051.124-7.876,2.67-9.05,2.795-1.288,7.872,1.917,10.045,6.127,3.343,6.493-.819,14.241,1.291,15.225,1.807.841,5.337-4.624,7.729-3.537,1.218.552,1.438,2.476,1.5,2.978.754,6.544-8.461,12.485-7.773,13.333.161.2.8.026,4.155-1.661,5.439-2.736,6.5-3.658,7.038-3.256,1.1.819-.732,6.562-4.39,10.868C256.108,328.911,249.747,330.733,246.122,331.417Z" transform="translate(-233.393 -283.063)" fill="#424c58"/>
            <path id="Path_186839" data-name="Path 186839" d="M264.658,337.991s5.407-13.535-3.658-42.111" transform="translate(-250.901 -291.191)" fill="none" stroke="#999" stroke-miterlimit="10" stroke-width="1"/>
          </g>
        </g>
        <g id="Group_21999" data-name="Group 21999" transform="translate(0 177.648)">
          <g id="Group_5765-2" data-name="Group 5765" transform="matrix(0.927, -0.375, 0.375, 0.927, 0, 22.119)">
            <path id="Path_186842-2" data-name="Path 186842" d="M19.6,32.789c1.759-5.593,2.853-10.718,1.244-11.64-1.269-.732-3.475,1.58-4.448.823-1.723-1.342,3.892-9.675,2.023-11.413-.995-.925-4.068,2.52-5.7,1.514-1.346-.83.059-3.5-1.321-7.115C10.6,2.863,8.659-.1,6.615,0c-2.242.11-4.448,3.9-4.43,7.356.026,5.333,5.333,8.94,4.3,10.29C5.6,18.8,1.471,16.46.29,17.97c-.6.768-.1,2.085.037,2.429,1.719,4.488,9.69,5.227,9.533,6.01-.037.183-.512.285-3.252.326C2.163,26.8,1.168,26.559.952,27c-.443.907,2.7,3.995,6.5,5.556A18.232,18.232,0,0,0,19.6,32.789Z" fill="#728ba8"/>
            <path id="Path_186843-2" data-name="Path 186843" d="M11.837,28.492S3.771,21.542,0,0" transform="translate(6.574 3.62)" fill="none" stroke="#999" stroke-miterlimit="10" stroke-width="1"/>
          </g>
          <g id="Group_5763-2" data-name="Group 5763" transform="translate(17.693)">
            <path id="Path_186838-2" data-name="Path 186838" d="M252.694,331.417c5.681-5.681,10.242-11.212,8.885-13.352-1.079-1.683-5.224-.282-5.926-1.829-1.244-2.725,10.857-9.291,9.69-12.587-.622-1.752-6.54.486-7.887-1.771-1.1-1.858,2.29-4.214,2.9-9.478.366-3.051-.124-7.876-2.67-9.05-2.795-1.288-7.872,1.917-10.045,6.127-3.343,6.493.819,14.241-1.291,15.225-1.807.841-5.337-4.624-7.729-3.537-1.218.552-1.438,2.476-1.5,2.978-.754,6.544,8.461,12.485,7.773,13.333-.161.2-.8.026-4.155-1.661-5.439-2.736-6.5-3.658-7.038-3.256-1.1.819.732,6.562,4.39,10.868C242.708,328.911,249.069,330.733,252.694,331.417Z" transform="translate(-233.393 -283.063)" fill="#424c58"/>
            <path id="Path_186839-2" data-name="Path 186839" d="M262.6,337.991s-5.407-13.535,3.658-42.111" transform="translate(-244.326 -291.191)" fill="none" stroke="#999" stroke-miterlimit="10" stroke-width="1"/>
          </g>
        </g>
      </g>
      <g id="Group_10629" data-name="Group 10629" transform="translate(1017.979 366.41)">
        <path id="Path_195445" data-name="Path 195445" d="M865.6,1128.33a16.693,16.693,0,0,1-1.67-8.956c.651-4.558,4.9-11.917,13.018-10.064,0,0,5.809,1.4,6.356,10.132,0,0,1.136,10.142.875,15.663-.343,7.245-3.968,11.326-5.97,17.636s-5.326.206-5.326.206l-5.692-.275,2.95-23.283Z" transform="translate(-832.007 -1103.236)" fill="#2e334d"/>
        <path id="Path_195446" data-name="Path 195446" d="M810.4,1275.546c.359-1.746,2.034-4.22,2.231-6.743s3.554-12.361,3.613-13.844a42.135,42.135,0,0,1,3.343-11.156c1.634-2.984,6.936-4.787,6.936-4.787s-2.742,14.632-2.711,17.672a24.705,24.705,0,0,1-.705,4.494c0,.015-.007.03-.01.046a3.333,3.333,0,0,0-.052,1.111c.135,1.093.757,1.825.375,3.26l.008.766c-.038.144-.076.287-.114.432-.539,2.07-1.038,4.276-1.271,5.266-.048.205-.086.359-.109.447-.357,1.339.079.626-.555,3.978C821.374,1276.488,809.706,1278.914,810.4,1275.546Z" transform="translate(-791.331 -1202.159)" fill="#292c47"/>
        <path id="Path_195447" data-name="Path 195447" d="M916.086,1425.351a33.648,33.648,0,0,1,5.764,12.889c1.23,6.994-.726,30.466-.673,33.921s3.269,12.058,2.626,18.569-6.007,39.291-6.007,39.291l-4.222-.778s.5-34.011.1-36.744-1.209-12.7-1.37-13.821S902.1,1448,902.1,1442.959,905.154,1417.125,916.086,1425.351Z" transform="translate(-861.136 -1342.502)" fill="#eea886"/>
        <path id="Path_195448" data-name="Path 195448" d="M801.294,1436.352s-7.449,28.429-8.333,32.367-2.165,7.187-2.165,8.86a80.493,80.493,0,0,1-1.5,11.355l-8.115,45.83h4.651s11.507-29.959,12.8-36.75c1-5.226,1.186-11.79,1.99-14.041s14.447-26.827,14.447-26.827S824.257,1428.1,801.294,1436.352Z" transform="translate(-769.12 -1351.199)" fill="#eea886"/>
        <path id="Path_195449" data-name="Path 195449" d="M821.415,1486.689s17.229,7.4,42.882,7.4c0,0-1.125-33.421-4.855-41.791s-28.123-4.6-28.123-4.6S821.415,1479.675,821.415,1486.689Z" transform="translate(-799.739 -1360.307)" fill="#292c47"/>
        <g id="Group_10622" data-name="Group 10622" transform="translate(27.204 34.479)">
          <path id="Path_195450" data-name="Path 195450" d="M857.944,1229.276a41.577,41.577,0,0,1-5.359,2.155c-1.381.276-6.741,7.238-7.68,9.78s0,6.354,1.934,10.829.111,5.967.995,10.443.884,16.676.717,19.162,24.235,8.7,29.373,4.168c0,0-3.424-11.986-6.226-18.057-.54-1.17-.825-6.379-.217-7.926s7.458-13.095,7.458-13.095,1.416-11.52-1.573-13.841c-2.6-2.016-10.587-2.928-11.857-3.371A21.684,21.684,0,0,0,857.944,1229.276Z" transform="translate(-844.538 -1229.067)" fill="#eddad3"/>
        </g>
        <g id="Group_10623" data-name="Group 10623" transform="translate(27.118 34.48)">
          <path id="Path_195451" data-name="Path 195451" d="M846.568,1252.042c1.932,4.475.11,5.968.993,10.443s.884,16.676.719,19.163,23.348,9.463,28.486,4.933a50.409,50.409,0,0,0-2.137-10.439c-.209-.617-.423-1.239-.641-1.857-.837-2.385-1.728-4.716-2.562-6.525-.54-1.171-.825-6.379-.215-7.927.234-.6,1.4-2.684,2.739-5.022.561-.974,1.151-1.994,1.718-2.964,1.595-2.737,3-5.107,3-5.107s1.418-11.521-1.571-13.841a14.381,14.381,0,0,0-4.829-1.906c-.732-.183-1.482-.347-2.2-.5-2.245-.465-4.243-.765-4.829-.968a21.7,21.7,0,0,0-7.564-.249,41.577,41.577,0,0,1-5.358,2.155c-1.381.276-6.843,7-7.782,9.538S844.634,1247.567,846.568,1252.042Z" transform="translate(-844.181 -1229.072)" fill="#292c47"/>
        </g>
        <g id="Group_10624" data-name="Group 10624" transform="translate(38.711 24.653)">
          <path id="Path_195452" data-name="Path 195452" d="M892.675,1193.408s.1.915.22,2.206c.056.587.116,1.255.176,1.946a48.281,48.281,0,0,1,.232,5.522s4.136,4.14,8.834-4.835a12.321,12.321,0,0,1-.487-8.742C903.14,1184.461,892.675,1193.408,892.675,1193.408Z" transform="translate(-892.675 -1187.963)" fill="#eea886"/>
        </g>
        <path id="Path_195453" data-name="Path 195453" d="M899.861,1231.286s-13.243,7.831-13.243,7.791c0-.564-1.109-7.1-1.109-7.1a17.19,17.19,0,0,1,2.493-1.221c.548-.1,8.632-.208,8.632-.208Z" transform="translate(-848.51 -1195.714)" fill="#ead8cf"/>
        <path id="Path_195454" data-name="Path 195454" d="M746.749,1845.246a9,9,0,0,0-2.434-1.615,2.116,2.116,0,0,0-1.92.256c-.342.384-1.326,1.92-1.858,2.389s-4.329,4.138-5.225,4.394-4.778.043-4.566,2.3,1.563,2.319,7.2,1.807a43.194,43.194,0,0,0,8.669-1.433c3.158-.683,3.025-2.644,2.47-4.564s-1.407-3.053-1.286-3.62C747.912,1844.617,746.749,1845.246,746.749,1845.246Z" transform="translate(-730.738 -1662.169)" fill="#fccca2"/>
        <path id="Path_195455" data-name="Path 195455" d="M927.813,1864.636a8.712,8.712,0,0,0-3-.773c-1.2.043-1.07.777-1.369,1.223s-3.123,4.724-3.893,5.495-3.509,1.583-3.123,3.509,3.851,2.7,8.129,2.139,4.434-4.231,5.119-5.13.315-6.978-.37-7.384S927.813,1864.636,927.813,1864.636Z" transform="translate(-872.013 -1677.464)" fill="#fccca2"/>
        <g id="Group_10625" data-name="Group 10625" transform="translate(38.045 69.854)">
          <path id="Path_195456" data-name="Path 195456" d="M957.939,1381.38s1.963,1.04,1.407,1.789-1.386,1.651-1.386,1.651Z" transform="translate(-941.672 -1380.345)" fill="#eea886"/>
          <path id="Path_195457" data-name="Path 195457" d="M890.013,1379.747l9.33-.982c-.852-.393-2.236-1.111-1.984-1.522.359-.588,3.119.362,4.2.368a7.653,7.653,0,0,1,2.513.656l2.295-.241-.191,3.5s-4.894,1.047-6.313,1.285c-2.309.387-9.688-1.7-9.846-2.107C889.734,1379.967,890.013,1379.747,890.013,1379.747Z" transform="translate(-889.891 -1377.051)" fill="#eea886"/>
        </g>
        <path id="Path_195458" data-name="Path 195458" d="M824.919,1385.042s-2.589-.038-2.352-.971,2.051-.422,2.051-.422Z" transform="translate(-800.604 -1312.112)" fill="#eea886"/>
        <path id="Path_195459" data-name="Path 195459" d="M893.507,1212.811c.056.588.137,1.479.2,2.17a11.361,11.361,0,0,0,5.622-4.124C898.3,1211.692,893.507,1212.811,893.507,1212.811Z" transform="translate(-854.598 -1180.731)" fill="#c48a6f"/>
        <path id="Path_195460" data-name="Path 195460" d="M828.638,1291.976s.1,15.619,2.422,41.262c1.876,20.749,5.4,58.365,5.4,58.365s-33.161,2.265-55.284-2.882c0,0,14.595-57.224,15.146-67.856s-.753-24.342.139-32.577S828.638,1291.976,828.638,1291.976Z" transform="translate(-769.12 -1237.445)" fill="#292c47"/>
        <g id="Group_10626" data-name="Group 10626" transform="translate(7.147 61.228)">
          <path id="Path_195461" data-name="Path 195461" d="M771.006,1342.458s-2.992-1.263-3.455-1.442a7.825,7.825,0,0,0-3.333.616,9.067,9.067,0,0,0-3.43,2.092,1.393,1.393,0,0,0-.042,1.165,2.681,2.681,0,0,0,.794,1.1,1.632,1.632,0,0,0,.632,1.443,1.421,1.421,0,0,0,.869,1.321s-.029.885.667,1.13a10.785,10.785,0,0,1,1.889-.274,28.288,28.288,0,0,0,5.728-2.265S774.293,1346.4,771.006,1342.458Z" transform="translate(-760.637 -1340.965)" fill="#db9c7c"/>
        </g>
        <path id="Path_195462" data-name="Path 195462" d="M770.657,1314.466l2.271,28.6,18.353-1.458-1.554-28.652Z" transform="translate(-761.115 -1258.42)" fill="#eddad3"/>
        <path id="Path_195463" data-name="Path 195463" d="M857.7,1381.637a2.207,2.207,0,0,1-1.317-.048c-.988-.449-1.638-2.03-3.11-1.512s-1.142,5.654-.574,6.492,2.746.755,5.686-.705S857.7,1381.637,857.7,1381.637Z" transform="translate(-823.181 -1309.421)" fill="#eea886"/>
        <path id="Path_195464" data-name="Path 195464" d="M823.652,1379.553a45.016,45.016,0,0,0-4.915-.111c-2.283.081-5.106.5-5.092,1.075.02.873,2.295.264,4.563.337,2.089.068,1.665.408,1.665.408s.115-.1-2.175.27c-2.463.4-5.092.937-5.092,1.408,0,.584.052.657.97.658-.528.114-.572.276-.546.5.134,1.174,3.844,1.153,5.318,1.144-1.132.014-1.96.146-1.415.813.625.761,5.87.492,7.758.578C826.748,1386.73,823.652,1379.553,823.652,1379.553Z" transform="translate(-793.036 -1308.999)" fill="#eea886"/>
        <path id="Path_195465" data-name="Path 195465" d="M895.834,1239.718c-1.658-.137-5.632,1.789-5.684,6.392-.038,3.444-.055,6.411.06,7.774s.13,10.483-.679,11.332c-1.024,1.076-6.786,3.877-7.311,4.215-1.811,1.166-10.738,4.917-10.738,4.917l4.2,16.89s20.369-13.786,22.406-15.311c1.343-1,2.47-4.95,3.015-9.259.554-4.38.248-14.831.185-15.709S901.885,1240.22,895.834,1239.718Z" transform="translate(-837.837 -1202.688)" fill="#3c3f66"/>
        <g id="Group_10627" data-name="Group 10627" transform="translate(7.105 63.14)">
          <path id="Path_195466" data-name="Path 195466" d="M761.047,1349.67s3.825-1.114,4.144-.539c.442.8-.008.982-.008.982l1.811.255a1.051,1.051,0,0,1-.14,1.8s1.113.683-.2,1.462c0,0,.533.778-.01,1.247a13.5,13.5,0,0,1-3.072,1.1s-.594-.107-.667-1.13a1.4,1.4,0,0,1-.869-1.321,1.536,1.536,0,0,1-.632-1.443s-1.458-.991-.751-2.271C760.654,1349.813,760.883,1349.715,761.047,1349.67Z" transform="translate(-760.46 -1348.966)" fill="#eea886"/>
        </g>
        <g id="Group_10628" data-name="Group 10628" transform="translate(55.778 11.317)">
          <rect id="Rectangle_7356" data-name="Rectangle 7356" width="0.375" height="9.318" fill="#292929"/>
        </g>
        <path id="Path_195467" data-name="Path 195467" d="M962.335,1169.914v0h.012v0c.884.042.781,4.587.781,4.587h-1.574S961.451,1169.954,962.335,1169.914Z" transform="translate(-906.375 -1149.574)" fill="#292929"/>
        <path id="Path_195468" data-name="Path 195468" d="M787.78,1417.636a1.827,1.827,0,1,0,1.826-1.826,1.827,1.827,0,0,0-1.826,1.826Z" transform="translate(-774.144 -1336.69)" fill="#d14747"/>
        <path id="Path_195469" data-name="Path 195469" d="M784.662,1420.25a54.936,54.936,0,0,1-2.162,5.869l2.025.686a33.544,33.544,0,0,0,1.063-6.039Z" transform="translate(-770.126 -1340.069)" fill="#d14747"/>
        <path id="Path_195470" data-name="Path 195470" d="M796.351,1421.17a54.941,54.941,0,0,0,2.162,5.867l-2.024.686a33.536,33.536,0,0,1-1.064-6.039Z" transform="translate(-779.962 -1340.769)" fill="#d14747"/>
        <path id="Path_195471" data-name="Path 195471" d="M900.168,1230.55l-10.016,8.531,19.889-6.334S906.615,1230.7,900.168,1230.55Z" transform="translate(-852.044 -1195.717)" fill="#f08d29"/>
        <path id="Path_195472" data-name="Path 195472" d="M871.915,1240.064l1.068-8.22a25.9,25.9,0,0,0-6.8,2.964Z" transform="translate(-833.807 -1196.701)" fill="#f08d29"/>
        <path id="Path_195473" data-name="Path 195473" d="M903.039,1226.44l-8.6.717.044.574s7.267.258,8.948-.311Z" transform="translate(-855.304 -1192.589)" fill="#ead8cf"/>
        <path id="Path_195474" data-name="Path 195474" d="M875.4,1118.93a13.92,13.92,0,0,0-6.591,14.9c1.984,10.324,7.2,8.819,8.238,8.538.983-.266,6.366-2.1,7.19-9.736S883.261,1116.384,875.4,1118.93Z" transform="translate(-835.574 -1110.433)" fill="#eea886"/>
        <path id="Path_195475" data-name="Path 195475" d="M869.56,1124.27s1.9,5.992,10.036,7.19,3.154-11.434,3.154-11.434-2.6-4.544-6.6-3.844c-5.847,1.023-9,7.14-9.32,9.986a35.907,35.907,0,0,1-.517,3.661S867.762,1125.319,869.56,1124.27Z" transform="translate(-833.906 -1108.632)" fill="#2e334d"/>
        <path id="Path_195476" data-name="Path 195476" d="M838.185,1096.1l-9.248-3.741,17.073-7.524,21.829,11.265-10.412,3.875Z" transform="translate(-805.463 -1084.834)" fill="#272a45"/>
        <path id="Path_195477" data-name="Path 195477" d="M867.283,1130.545a38.351,38.351,0,0,1,18.513,3.622L887.03,1131s-11.261-4.231-19.977-3.182Z" transform="translate(-834.467 -1117.412)" fill="#51578f"/>
      </g>
      <path id="Path_206481" data-name="Path 206481" d="M164.26,141.03a7.6,7.6,0,0,0-5.406,2.252,11.805,11.805,0,0,0-19.154-8.018,13.063,13.063,0,0,0-10.423-5.188c-.123,0-.243.015-.365.018a7.587,7.587,0,0,0-13.189-4.953,21.98,21.98,0,0,0-39.569,8.988,11.81,11.81,0,1,0-5.715,22.144H164.26a7.621,7.621,0,1,0,0-15.243" transform="translate(934 165)" fill="#fff" opacity="0.84"/>
      <path id="Path_206482" data-name="Path 206482" d="M250.553,74.221a4.825,4.825,0,0,0-3.435,1.431,7.5,7.5,0,0,0-12.169-5.094,8.3,8.3,0,0,0-6.623-3.3c-.078,0-.153.01-.231.012a4.82,4.82,0,0,0-8.38-3.147,13.966,13.966,0,0,0-25.141,5.71,7.5,7.5,0,1,0-3.631,14.07h59.61a4.842,4.842,0,0,0,0-9.685" transform="translate(1062.736 190)" fill="#fff" opacity="0.84"/>
      <path id="Path_206483" data-name="Path 206483" d="M457.641,141.03a7.6,7.6,0,0,0-5.407,2.252,11.805,11.805,0,0,0-19.154-8.018,13.059,13.059,0,0,0-10.422-5.188c-.123,0-.242.015-.365.018a7.587,7.587,0,0,0-13.189-4.953,21.98,21.98,0,0,0-39.569,8.988,11.81,11.81,0,1,0-5.717,22.144h93.823a7.621,7.621,0,1,0,0-15.243" transform="translate(1014.007 157)" fill="#fff" opacity="0.84"/>
      <g id="Group_10523" data-name="Group 10523" transform="translate(1356.261 388.275)">
        <g id="Group_10512" data-name="Group 10512" transform="translate(11.963 6.821)">
          <path id="Path_195297" data-name="Path 195297" d="M664.722,1136.665s-2.033-4.448-6.143-2.5-3.432,7.851-1.907,10.345,6.98,6.179,5.206,10.67a50.671,50.671,0,0,1-4.02,7.965s11.015-.5,12.244-6.35S664.722,1136.665,664.722,1136.665Z" transform="translate(-655.487 -1133.672)" fill="#223247"/>
        </g>
        <path id="Path_195298" data-name="Path 195298" d="M755.968,1258.782a18.365,18.365,0,0,1-.779-3.933c-.184-2.357-.42-13.615-.475-15s-.321-7.91-1.816-10.638c-1.527-2.786-6.478-4.471-6.478-4.471s2.561,13.666,2.532,16.5a23.081,23.081,0,0,0,.659,4.2c0,.014.006.028.009.042a3.123,3.123,0,0,1,.048,1.038c-.125,1.021-.707,1.7-.35,3.044l-.007.715.107.4c.5,1.933.969,3.994,1.187,4.918.046.192.08.335.1.418.334,1.25-.074.585.518,3.715C751.226,1259.738,756.611,1261.928,755.968,1258.782Z" transform="translate(-712.783 -1196.213)" fill="#f08d29"/>
        <path id="Path_195299" data-name="Path 195299" d="M645.7,1399.277a31.43,31.43,0,0,0-5.383,12.037c-1.149,6.531.679,28.454.628,31.682s-3.053,11.261-2.453,17.342,5.611,36.7,5.611,36.7l3.944-.727s-.47-31.765-.1-34.317,1.129-11.857,1.279-12.908,9.532-28.65,9.532-33.359S655.912,1391.593,645.7,1399.277Z" transform="translate(-630.521 -1327.794)" fill="#8e4f3a"/>
        <path id="Path_195300" data-name="Path 195300" d="M711.7,1409.584s6.957,26.553,7.782,30.23,2.022,6.713,2.022,8.275a75.213,75.213,0,0,0,1.4,10.605l7.58,42.8h-4.345s-10.746-27.981-11.956-34.323c-.93-4.881-1.108-11.012-1.859-13.114S698.839,1429,698.839,1429,690.256,1401.876,711.7,1409.584Z" transform="translate(-675.251 -1335.948)" fill="#8e4f3a"/>
        <path id="Path_195301" data-name="Path 195301" d="M671.388,1456.622s-16.091,6.909-40.05,6.909c0,0,1.051-31.214,4.534-39.031s26.267-4.3,26.267-4.3S671.388,1450.072,671.388,1456.622Z" transform="translate(-625.131 -1344.482)" fill="#292c47"/>
        <g id="Group_10513" data-name="Group 10513" transform="translate(8.651 26.307)">
          <path id="Path_195302" data-name="Path 195302" d="M661.515,1215.619a38.8,38.8,0,0,0,5.005,2.012c1.29.258,6.3,6.76,7.173,9.134s0,5.935-1.806,10.114-.1,5.573-.93,9.753-.825,15.574-.67,17.9-22.634,8.125-27.433,3.893c0,0,3.2-11.194,5.816-16.864.5-1.093.77-5.959.2-7.4s-6.967-12.23-6.967-12.23-1.322-10.759,1.47-12.927c2.425-1.883,9.888-2.734,11.075-3.146A20.269,20.269,0,0,1,661.515,1215.619Z" transform="translate(-641.593 -1215.425)" fill="#eddad3"/>
        </g>
        <g id="Group_10514" data-name="Group 10514" transform="translate(8.652 26.305)">
          <path id="Path_195303" data-name="Path 195303" d="M671.888,1236.873c-1.805,4.18-.1,5.574-.928,9.753s-.825,15.575-.671,17.9-22.634,8.124-27.433,3.893c0,0,1.249-4.371,2.824-9.035.2-.576.4-1.157.6-1.734.782-2.227,1.613-4.405,2.393-6.094.5-1.094.77-5.959.2-7.4-.219-.558-1.307-2.508-2.558-4.691-.524-.909-1.075-1.862-1.6-2.769-1.49-2.555-2.8-4.77-2.8-4.77s-1.324-10.759,1.467-12.926a13.42,13.42,0,0,1,4.509-1.78c.684-.171,1.384-.324,2.058-.462,2.1-.434,3.963-.715,4.509-.906a20.273,20.273,0,0,1,7.065-.232,38.834,38.834,0,0,0,5,2.012c1.29.258,6.3,6.761,7.173,9.133S673.694,1232.695,671.888,1236.873Z" transform="translate(-641.594 -1215.419)" fill="#f08d29"/>
        </g>
        <g id="Group_10515" data-name="Group 10515" transform="translate(21.51 17.13)">
          <path id="Path_195304" data-name="Path 195304" d="M704.379,1182.011s-.093.854-.205,2.06c-.052.548-.108,1.172-.164,1.818a44.788,44.788,0,0,0-.216,5.157s-3.863,3.866-8.251-4.515a11.508,11.508,0,0,0,.455-8.165C694.6,1173.656,704.379,1182.011,704.379,1182.011Z" transform="translate(-695.542 -1176.926)" fill="#8e4f3a"/>
        </g>
        <path id="Path_195305" data-name="Path 195305" d="M683.09,1217.5s4.672,7.586,9.947,7.267c7.3-.442,3.456-6.623,3.456-6.623a16.077,16.077,0,0,0-2.329-1.14c-.511-.1-8.062-.194-8.062-.194Z" transform="translate(-664.548 -1190.174)" fill="#8e4f3a"/>
        <g id="Group_10516" data-name="Group 10516" transform="translate(0 28.688)">
          <path id="Path_195306" data-name="Path 195306" d="M620.975,1225.479a7.661,7.661,0,0,0-7.527,3.49,21.375,21.375,0,0,0-3.461,9.739,66.428,66.428,0,0,1-2.082,6.828c-.184.664-3.716,7.423-2.253,10.286,1.471,2.878,15.372,4.992,15.536,5.6.1.386,1.645-4.882,1.645-4.882s-2.043-.434-4.016-1.086c-2.4-.792-4.806-2.308-4.476-3.539a85.827,85.827,0,0,1,3.854-10.2C618.869,1240.429,624.845,1227.329,620.975,1225.479Z" transform="translate(-605.297 -1225.414)" fill="#f08d29"/>
        </g>
        <path id="Path_195307" data-name="Path 195307" d="M809.143,1792.586a8.4,8.4,0,0,1,2.273-1.508,1.981,1.981,0,0,1,1.793.238c.319.358,1.238,1.794,1.735,2.232s4.043,3.865,4.88,4.1,4.463.04,4.264,2.152-3.148,3.027-8.408,2.55-4.622-1.713-7.571-2.351-3.148-2.112-2.63-3.905,2.607-3.577,2.391-4.055S809.143,1792.586,809.143,1792.586Z" transform="translate(-757.594 -1627.493)" fill="#51578c"/>
        <path id="Path_195308" data-name="Path 195308" d="M653.919,1810.745a8.127,8.127,0,0,1,2.8-.722c1.119.041,1,.726,1.279,1.142s2.917,4.413,3.637,5.132,3.277,1.478,2.917,3.277-3.6,2.518-7.592,2-5.954-4.235-6.594-5.075,1.518-6.234,2.158-6.614S653.919,1810.745,653.919,1810.745Z" transform="translate(-639.533 -1641.828)" fill="#51578c"/>
        <path id="Path_195309" data-name="Path 195309" d="M766.766,1282.87a51.781,51.781,0,0,1-1.937,5.7,12.277,12.277,0,0,0-.654,5.634,21.975,21.975,0,0,1-.42,5.449s.065,2.01.461,1.993C764.216,1301.648,766.062,1296.59,766.766,1282.87Z" transform="translate(-725.986 -1240.487)" fill="#c9b9b3"/>
        <g id="Group_10517" data-name="Group 10517" transform="translate(15.896 7.585)">
          <path id="Path_195310" data-name="Path 195310" d="M674.153,1136.88a4.665,4.665,0,0,0-2.16,4.491c.128,3.347,3.409,5.931,4.829,5.249S674.153,1136.88,674.153,1136.88Z" transform="translate(-671.987 -1136.88)" fill="#51578c"/>
        </g>
        <g id="Group_10518" data-name="Group 10518" transform="translate(18.948 1.338)">
          <path id="Path_195311" data-name="Path 195311" d="M698.393,1111.833a10.332,10.332,0,0,1,4.067,9.109c-.381,6.186-2.457,12.371-3.728,12.922s-6.681-1.467-7.754-2.035a15.15,15.15,0,0,1-3.742-3.7c-.425-.72-4.9-10.535-.579-14.263S693.225,1109.969,698.393,1111.833Z" transform="translate(-684.79 -1110.67)" fill="#8e4f3a"/>
        </g>
        <g id="Group_10519" data-name="Group 10519" transform="translate(17.604 0)">
          <path id="Path_195312" data-name="Path 195312" d="M690.543,1114.928a20.159,20.159,0,0,0,7.648,1.061s1.248-10.932-9.7-10.932-9.342,10.93-9.129,12.413,2.219,6.808,4.564,8.042c0,0-.836-5.627.732-6.644S689.738,1116.623,690.543,1114.928Z" transform="translate(-679.155 -1105.057)" fill="#223247"/>
        </g>
        <g id="Group_10520" data-name="Group 10520" transform="translate(22.176 10.934)">
          <path id="Path_195313" data-name="Path 195313" d="M701.509,1152.621c-.223-1.244-1.4-2.415-2.754-1.144s.932,4.448,1.907,4.279S701.805,1154.273,701.509,1152.621Z" transform="translate(-698.336 -1150.929)" fill="#8e4f3a"/>
        </g>
        <g id="Group_10521" data-name="Group 10521" transform="translate(11.963 42.285)">
          <path id="Rectangle_7297" data-name="Rectangle 7297" d="M.866,0H21.412V4.874H.866A.866.866,0,0,1,0,4.008V.866A.866.866,0,0,1,.866,0Z" transform="translate(2.78 4.875)" fill="#c44747"/>
          <path id="Rectangle_7298" data-name="Rectangle 7298" d="M.866,0H21.412V4.874H.866A.866.866,0,0,1,0,4.008V.866A.866.866,0,0,1,.866,0Z" transform="translate(0 9.749)" fill="#e68e35"/>
          <path id="Rectangle_7299" data-name="Rectangle 7299" d="M.866,0H21.412V4.874H.866A.866.866,0,0,1,0,4.008V.866A.866.866,0,0,1,.866,0Z" transform="translate(2.78 14.623)" fill="#58a668"/>
          <path id="Rectangle_7300" data-name="Rectangle 7300" d="M.866,0H21.412V4.874H.866A.866.866,0,0,1,0,4.008V.866A.866.866,0,0,1,.866,0Z" transform="translate(12.048 4.875)" fill="#e55353"/>
          <path id="Rectangle_7301" data-name="Rectangle 7301" d="M.866,0h19.96V3.809H.866A.866.866,0,0,1,0,2.943V.866A.866.866,0,0,1,.866,0Z" transform="translate(12.634 5.407)" fill="#fae6de"/>
          <path id="Rectangle_7302" data-name="Rectangle 7302" d="M1,0h27.69V4.875H1a1,1,0,0,1-1-1V1A1,1,0,0,1,1,0Z" transform="translate(3.527 0)" fill="#5084c7"/>
          <path id="Rectangle_7303" data-name="Rectangle 7303" d="M.652,0H12.143V4.875H.652A.652.652,0,0,1,0,4.222V.652A.652.652,0,0,1,.652,0Z" transform="translate(20.076 0)" fill="#5e9beb"/>
          <path id="Rectangle_7304" data-name="Rectangle 7304" d="M.652,0H11.811V3.809H.652A.652.652,0,0,1,0,3.156V.652A.652.652,0,0,1,.652,0Z" transform="translate(20.408 0.533)" fill="#fae6de"/>
          <path id="Rectangle_7305" data-name="Rectangle 7305" d="M.866,0H21.412V4.874H.866A.866.866,0,0,1,0,4.008V.866A.866.866,0,0,1,.866,0Z" transform="translate(9.268 9.749)" fill="#faa146"/>
          <path id="Rectangle_7306" data-name="Rectangle 7306" d="M.866,0H21.412V4.874H.866A.866.866,0,0,1,0,4.008V.866A.866.866,0,0,1,.866,0Z" transform="translate(12.048 14.623)" fill="#6dbd7d"/>
          <path id="Rectangle_7307" data-name="Rectangle 7307" d="M.866,0h19.96V3.871H.866A.866.866,0,0,1,0,3V.866A.866.866,0,0,1,.866,0Z" transform="translate(9.854 10.251)" fill="#fae6de"/>
          <path id="Rectangle_7308" data-name="Rectangle 7308" d="M.866,0h19.96V3.728H.866A.866.866,0,0,1,0,2.862v-2A.866.866,0,0,1,.866,0Z" transform="translate(12.634 15.197)" fill="#fae6de"/>
        </g>
        <g id="Group_10522" data-name="Group 10522" transform="translate(14.369 59.346)">
          <path id="Path_195314" data-name="Path 195314" d="M666.99,1358.09s-1.833.972-1.314,1.671,1.294,1.542,1.294,1.542Z" transform="translate(-665.583 -1357.124)" fill="#8e4f3a"/>
          <path id="Path_195315" data-name="Path 195315" d="M685.923,1356.554l-8.714-.917c.8-.367,2.088-1.038,1.853-1.422-.335-.548-2.913.338-3.927.344a7.158,7.158,0,0,0-2.347.613l-2.143-.225.18,3.268s4.57.978,5.9,1.2c2.156.362,9.048-1.587,9.2-1.968C686.185,1356.759,685.923,1356.554,685.923,1356.554Z" transform="translate(-669.438 -1354.036)" fill="#8e4f3a"/>
        </g>
        <path id="Path_195316" data-name="Path 195316" d="M639.029,1347.435s-.766,4-2.043,5.69c0,0-8.348-3.012-10.421-3.787l5.206-4.58A26.906,26.906,0,0,0,639.029,1347.435Z" transform="translate(-621.495 -1287.624)" fill="#f08d29"/>
        <path id="Path_195317" data-name="Path 195317" d="M761.549,1355.49s.149,3.108-1.719,3.795a7.531,7.531,0,0,1-4.946-.029c-.935-.4-3.306-1.589-2.563-2.51C754.7,1353.786,761.549,1355.49,761.549,1355.49Z" transform="translate(-717.169 -1295.426)" fill="#8e4f3a"/>
        <path id="Path_195318" data-name="Path 195318" d="M789.023,1361.52s2.418-.036,2.2-.906-1.915-.395-1.915-.395Z" transform="translate(-745.231 -1299.301)" fill="#8e4f3a"/>
        <path id="Path_195319" data-name="Path 195319" d="M714.452,1200.4c-.053.548-.108,1.172-.164,1.818a10.615,10.615,0,0,1-5.251-3.851C709.993,1199.148,714.452,1200.4,714.452,1200.4Z" transform="translate(-684.31 -1176.127)" fill="#613628"/>
      </g>
      <g id="Group_10569" data-name="Group 10569" transform="translate(1410.377 383.328)">
        <g id="Group_10524" data-name="Group 10524" transform="translate(50.105 25.109)">
          <path id="Path_195320" data-name="Path 195320" d="M1077.55,1190.014l3.3,26.815,2.572,20.9s13.385,3.56,12.922-6.533a85.4,85.4,0,0,0-2-14.362c-2.639-11.934-7.116-22.236-9.236-24.831C1082.157,1188.388,1077.55,1190.014,1077.55,1190.014Z" transform="translate(-1077.55 -1189.649)" fill="#323657"/>
        </g>
        <g id="Group_10525" data-name="Group 10525" transform="translate(53.404 52.287)">
          <path id="Path_195321" data-name="Path 195321" d="M1091.39,1303.67l2.572,20.9s13.889,3.6,13.425-6.491a78.89,78.89,0,0,0-2.5-14.4Z" transform="translate(-1091.39 -1303.67)" fill="#dbdff0"/>
        </g>
        <g id="Group_10529" data-name="Group 10529" transform="translate(6.902 173.109)">
          <g id="Group_10528" data-name="Group 10528">
            <g id="Group_10527" data-name="Group 10527">
              <g id="Group_10526" data-name="Group 10526">
                <path id="Path_195322" data-name="Path 195322" d="M910.516,1811.281s-3.575,2.377-5.2,3.276-8.107,1.475-8.716,2.118-.272,2.571.815,2.713,9.014.437,11.614-.318,7.578.021,8.649-.407.057-6.269-.435-7.566S910.516,1811.281,910.516,1811.281Z" transform="translate(-896.297 -1810.565)" fill="#273852"/>
              </g>
            </g>
          </g>
        </g>
        <g id="Group_10530" data-name="Group 10530" transform="translate(21.121 171.675)">
          <path id="Path_195323" data-name="Path 195323" d="M962.158,1804.95l.516,1.565-6.725.184.219-2.149Z" transform="translate(-955.949 -1804.55)" fill="#50558a"/>
        </g>
        <g id="Group_10534" data-name="Group 10534" transform="translate(47.938 168.224)">
          <g id="Group_10533" data-name="Group 10533">
            <g id="Group_10532" data-name="Group 10532">
              <g id="Group_10531" data-name="Group 10531">
                <path id="Path_195324" data-name="Path 195324" d="M1080.335,1792.414s-2.741,3.3-4.041,4.633-7.341,3.744-7.739,4.535.479,2.541,1.56,2.364,8.759-2.173,11.033-3.643,7.264-2.159,8.167-2.877-1.748-6.021-2.592-7.122S1080.335,1792.414,1080.335,1792.414Z" transform="translate(-1068.457 -1790.074)" fill="#273852"/>
              </g>
            </g>
          </g>
        </g>
        <g id="Group_10535" data-name="Group 10535" transform="translate(59.41 167.103)">
          <path id="Path_195325" data-name="Path 195325" d="M1122.438,1785.37l.944,1.351-6.388,2.11-.408-2.121Z" transform="translate(-1116.586 -1785.37)" fill="#50558a"/>
        </g>
        <g id="Group_10537" data-name="Group 10537" transform="translate(0 33.216)">
          <g id="Group_10536" data-name="Group 10536">
            <path id="Path_195326" data-name="Path 195326" d="M876.8,1226.754s-5.916-3.223-6.47-3.09-.691.481-.149.806,5.635,3.288,5.635,3.288-7.572-2.574-8.051-2.573c-.281,0-.583.657-.307.86s7.655,3.209,7.655,3.209-7.074-2.391-7.471-2.261a.555.555,0,0,0,.033,1.009c.514.215,6.971,2.827,6.971,2.827s-5.244-1.4-5.513-1.075c-.165.2-.453.75.911,1.066s4.512,1.419,4.512,1.419Z" transform="translate(-867.338 -1223.66)" fill="#eea886"/>
          </g>
        </g>
        <g id="Group_10540" data-name="Group 10540" transform="translate(6.68 32.949)">
          <g id="Group_10539" data-name="Group 10539">
            <g id="Group_10538" data-name="Group 10538">
              <path id="Path_195327" data-name="Path 195327" d="M904.43,1230.723s-1.887-1.191-1.792-2.5a7.949,7.949,0,0,0-.775-3.112c-.268-.629-.426-2.867-1.164-2.534s.094,3.7.137,4.439-2.457-1.287-3.178-1.28-3.528,4.53-1.666,5.713,4.553,1.154,4.842,1.43a13.511,13.511,0,0,0,1.324.917Z" transform="translate(-895.364 -1222.541)" fill="#eea886"/>
            </g>
          </g>
        </g>
        <g id="Group_10542" data-name="Group 10542" transform="translate(12.717 30.891)">
          <g id="Group_10541" data-name="Group 10541">
            <path id="Path_195328" data-name="Path 195328" d="M943.918,1239.052c-1.452,3.131-1.842,2.895-3.526,3.309-3.643.9-19.7-15.638-19.7-15.638l2.358-3.093s4.219,3.146,7.757,5.527c2.19,1.474,7.622,5.482,8.011,5.237s5.067-8.78,5.6-9.947,4.31-9.543,5.668-10.544C950.086,1213.9,953.3,1218.811,943.918,1239.052Z" transform="translate(-920.69 -1213.904)" fill="#eea886"/>
          </g>
        </g>
        <g id="Group_10544" data-name="Group 10544" transform="translate(39.932 89.531)">
          <g id="Group_10543" data-name="Group 10543">
            <path id="Path_195329" data-name="Path 195329" d="M1034.87,1467.639s1.281,9.455,2.589,18.535h0c.249,1.728.5,3.441.739,5.073h0c.847,5.706,1.6,10.418,1.885,11.253.82,2.375,12.293,37.926,12.293,37.926s8.924-1.645,9.223-2.616c0,0-9.716-37.226-9.606-38.573s-1.209-39.318-1.209-39.318S1035.32,1465.456,1034.87,1467.639Z" transform="translate(-1034.87 -1459.922)" fill="#2c405c"/>
          </g>
        </g>
        <g id="Group_10546" data-name="Group 10546" transform="translate(19.401 82.213)">
          <g id="Group_10545" data-name="Group 10545">
            <path id="Path_195330" data-name="Path 195330" d="M961.994,1432.483s-8.055,38.613-8.728,41.456-4.53,46.179-4.53,46.179a92.2,92.2,0,0,0,10.065,0s6.962-43.843,7.68-45.205c2.789-5.286,13.525-31.872,14.872-35.537a34.9,34.9,0,0,1,3.688-6.995S975.735,1425.209,961.994,1432.483Z" transform="translate(-948.735 -1429.223)" fill="#2c405c"/>
          </g>
        </g>
        <g id="Group_10548" data-name="Group 10548" transform="translate(31.372 23.782)">
          <g id="Group_10547" data-name="Group 10547">
            <path id="Path_195331" data-name="Path 195331" d="M1017.956,1184.08s-8.232,6.237-10.559,8.706-7.411,12.347-7.012,15.484a159.694,159.694,0,0,1,.523,30.825c-.389,6.28-2.306,9.881-1.893,9.961,1.6.31,22.222,5.169,25.289,6.142,0,0-.082-23.08-1.055-26S1026.632,1195.9,1017.956,1184.08Z" transform="translate(-998.956 -1184.08)" fill="#d44040"/>
          </g>
        </g>
        <g id="Group_10551" data-name="Group 10551" transform="translate(36.014 14.212)">
          <g id="Group_10550" data-name="Group 10550">
            <g id="Group_10549" data-name="Group 10549">
              <path id="Path_195332" data-name="Path 195332" d="M1032.791,1153.5s-15.18,16.515-14.323,14.653c2.706-5.877,5.673-7.769,5.647-8.984-.02-.929-.334-3.644-.38-4.552-.087-1.727-.191-3.132-.191-3.132s7.672-10.381,7.278-6.805S1032.791,1153.5,1032.791,1153.5Z" transform="translate(-1018.433 -1143.931)" fill="#eea886"/>
            </g>
          </g>
        </g>
        <g id="Group_10554" data-name="Group 10554" transform="translate(32.893 1.223)">
          <g id="Group_10553" data-name="Group 10553">
            <g id="Group_10552" data-name="Group 10552">
              <path id="Path_195333" data-name="Path 195333" d="M1008.8,1092.356s-2.159,4.829-2.209,5.967a24.365,24.365,0,0,1,.024,3.326c-.207,1.353-1.4,4.186-1.27,4.978.152.956,2.169.5,2.417,2.07s1.655,4.55,2.38,4.624c1.863.186,9.063-2.6,9.544-4.09s3.218-9.779,4.052-11.35-12.41-10.5-13.674-8.011Z" transform="translate(-1005.339 -1089.435)" fill="#eea886"/>
            </g>
          </g>
        </g>
        <g id="Group_10555" data-name="Group 10555" transform="translate(33.879)">
          <path id="Path_195334" data-name="Path 195334" d="M1030.1,1092.381c1.02-4.112-3.718-4.7-3.718-4.7s-3.027-3.652-10.428-3.356-6.444,9.967-6.444,9.967,5.129-.675,7.344-.073a34.978,34.978,0,0,1-.061,5.144l2.794-.2s-.247-3.663,1.095-3.814,1.652,7.775,4.114,9.564a2.735,2.735,0,0,1,.358-1.1h0a31.8,31.8,0,0,0,2.01-4A45.511,45.511,0,0,0,1030.1,1092.381Z" transform="translate(-1009.474 -1084.304)" fill="#e8734d"/>
        </g>
        <g id="Group_10558" data-name="Group 10558" transform="translate(42.893 10.335)">
          <g id="Group_10557" data-name="Group 10557">
            <g id="Group_10556" data-name="Group 10556">
              <path id="Path_195335" data-name="Path 195335" d="M1047.619,1129.223a2.118,2.118,0,0,1,3.506-.919c1.76,1.349-.157,6.03-1.893,5.976S1046.837,1131.649,1047.619,1129.223Z" transform="translate(-1047.294 -1127.665)" fill="#eea886"/>
            </g>
          </g>
        </g>
        <g id="Group_10559" data-name="Group 10559" transform="translate(41.286 19.721)">
          <path id="Path_195336" data-name="Path 195336" d="M1046.934,1167.04a5.436,5.436,0,0,1-.8,1.815,16.036,16.036,0,0,1-5.587,2.8l.238,2.928S1047.167,1172.246,1046.934,1167.04Z" transform="translate(-1040.551 -1167.04)" fill="#c48a6f"/>
        </g>
        <g id="Group_10561" data-name="Group 10561" transform="translate(35.577 88.76)">
          <g id="Group_10560" data-name="Group 10560">
            <path id="Path_195337" data-name="Path 195337" d="M1018.441,1456.69a15.243,15.243,0,0,1-1.766,2.735c-.721.725,4.083,5.417,4.083,5.417a42.718,42.718,0,0,0,2.09-4.915C1022.8,1459.472,1018.441,1456.69,1018.441,1456.69Z" transform="translate(-1016.601 -1456.69)" fill="#eea987"/>
          </g>
        </g>
        <g id="Group_10562" data-name="Group 10562" transform="translate(31.599 90.648)">
          <path id="Path_195338" data-name="Path 195338" d="M1001.944,1464.61s-2.1,9.575-2.034,12.52,11.171-4.435,10.667-7.373Z" transform="translate(-999.908 -1464.61)" fill="#2c405c"/>
        </g>
        <g id="Group_10563" data-name="Group 10563" transform="translate(42.003 48.14)">
          <path id="Path_195339" data-name="Path 195339" d="M1048.568,1286.27l4.345,14.732-9.352,17.3s6.381-14.735,6.194-18.468S1048.568,1286.27,1048.568,1286.27Z" transform="translate(-1043.56 -1286.27)" fill="#942d2d"/>
        </g>
        <g id="Group_10564" data-name="Group 10564" transform="translate(42.521 99.793)">
          <path id="Path_195340" data-name="Path 195340" d="M1045.73,1518.968h0c.249,1.728.5,3.44.739,5.073,1.353-3.115,5.751-20.753,5.828-21.063Z" transform="translate(-1045.73 -1502.978)" fill="#172230"/>
        </g>
        <g id="Group_10565" data-name="Group 10565" transform="translate(39.948 25.898)">
          <path id="Path_195341" data-name="Path 195341" d="M1051.286,1228.616c.315,0,.508-.01.552-.013l-.262-4.318c-.045,0-5.33.244-8.891-3.1-2.23-2.094-3.381-5.231-3.421-9.322-.128-13.2,9.007-14.559,9.4-14.611l-.519-4.3a14.422,14.422,0,0,0-6.8,3.056c-2.969,2.366-6.49,7.044-6.4,15.891.052,5.339,1.675,9.534,4.824,12.47C1043.955,1228.284,1049.522,1228.616,1051.286,1228.616Z" transform="translate(-1034.937 -1192.957)" fill="#323657"/>
        </g>
        <g id="Group_10567" data-name="Group 10567" transform="translate(36.527 32.023)">
          <g id="Group_10566" data-name="Group 10566">
            <path id="Path_195342" data-name="Path 195342" d="M1037.212,1221.166s6.164,27.489,6.6,30.391c.412,2.748-18.282,28.148-18.282,28.148l-4.944-2.656s14.3-26.524,14.3-27.721-6.5-24.1-6.5-24.1-.511-4.038,2.689-5.719C1036.086,1216.876,1037.212,1221.166,1037.212,1221.166Z" transform="translate(-1020.585 -1218.655)" fill="#eea886"/>
          </g>
        </g>
        <g id="Group_10568" data-name="Group 10568" transform="translate(43.852 30.591)">
          <path id="Path_195343" data-name="Path 195343" d="M1054.917,1213.078s-6.815,2.2-1.7,15.133l10.027-2.515S1062.518,1209.855,1054.917,1213.078Z" transform="translate(-1051.314 -1212.645)" fill="#eb4747"/>
        </g>
      </g>
      <g id="Group_10621" data-name="Group 10621" transform="translate(965.584 363.99)">
        <path id="Path_195415" data-name="Path 195415" d="M456.315,1080.4l-21.439,9.708-23.07-4.65,21.322-10.752Z" transform="translate(-406.385 -1074.71)" fill="#272a45"/>
        <path id="Path_195416" data-name="Path 195416" d="M598.264,1331.149a2.035,2.035,0,0,0,1.215-.043c.912-.415,1.512-1.873,2.87-1.4s1.054,5.217.529,5.99-2.534.7-5.247-.651S598.264,1331.149,598.264,1331.149Z" transform="translate(-546.982 -1268.68)" fill="#d99979"/>
        <path id="Path_195417" data-name="Path 195417" d="M613.614,1329.226a41.567,41.567,0,0,1,4.536-.1c2.107.075,4.712.461,4.7.992-.019.806-2.118.244-4.212.311-1.927.062-1.536.376-1.536.376s-.106-.1,2.008.249c2.274.371,4.7.865,4.7,1.3,0,.539-.048.606-.895.607.487.1.528.254.5.464-.124,1.083-3.548,1.064-4.908,1.056,1.045.013,1.81.135,1.306.749-.577.7-5.417.454-7.159.534C610.757,1335.848,613.614,1329.226,613.614,1329.226Z" transform="translate(-558.727 -1268.29)" fill="#d99979"/>
        <g id="Group_10600" data-name="Group 10600" transform="translate(17.837 36.931)">
          <path id="Path_195418" data-name="Path 195418" d="M474.189,1229.2l-.648,20.978s-.908,2.6,5.036,3.562c6.068.978,20.3-.422,20.3-.422s.8,13.471,0,13.513c-2.312.123-25.239-5.771-32.058-7.2-5.41-1.135-2.02-29.855-2.02-29.855Z" transform="translate(-463.747 -1229.2)" fill="#282b45"/>
        </g>
        <g id="Group_10603" data-name="Group 10603" transform="translate(4.974 185.339)">
          <g id="Group_10602" data-name="Group 10602">
            <g id="Group_10601" data-name="Group 10601">
              <path id="Path_195419" data-name="Path 195419" d="M418.4,1850.618s4.193,2.528,6.093,3.472,9.326,1.3,10.052,2,.43,2.9-.8,3.112-10.273.913-13.277.178-8.654.375-9.9-.061-.357-7.1.143-8.594S418.4,1850.618,418.4,1850.618Z" transform="translate(-409.939 -1850.03)" fill="#292c47"/>
            </g>
          </g>
        </g>
        <g id="Group_10606" data-name="Group 10606" transform="translate(6.081 183.193)">
          <g id="Group_10605" data-name="Group 10605">
            <g id="Group_10604" data-name="Group 10604">
              <path id="Path_195420" data-name="Path 195420" d="M422.312,1841.063l-.384,2.725s-5.658.98-7.358.1l.458-2.831Z" transform="translate(-414.569 -1841.054)" fill="#3d416b"/>
            </g>
          </g>
        </g>
        <path id="Path_195421" data-name="Path 195421" d="M426.347,1410.214c.159,1.885.285,6,.38,10.324.021.962.04,1.933.056,2.892.108,5.823.161,11.211.161,11.211-.277,7.322-1.444,23.169-3.642,26.73-2.964,4.8-6.4,44.779-6.4,44.779l-10.888,1.16s-.675-26.726.952-33.7c1.815-7.795,5.3-18.42,3.311-25.51-1.251-4.449-3.859-18.77-3.859-18.77s-2.788-16.106.106-28.468C407.243,1397.771,426.347,1410.214,426.347,1410.214Z" transform="translate(-401.363 -1322.519)" fill="#62626b"/>
        <g id="Group_10609" data-name="Group 10609" transform="translate(23.677 185.339)">
          <g id="Group_10608" data-name="Group 10608">
            <g id="Group_10607" data-name="Group 10607">
              <path id="Path_195422" data-name="Path 195422" d="M496.644,1850.618s4.193,2.528,6.093,3.472,9.326,1.3,10.052,2,.43,2.9-.8,3.112-10.273.913-13.277.178-8.654.375-9.9-.061-.357-7.1.143-8.594S496.644,1850.618,496.644,1850.618Z" transform="translate(-488.179 -1850.03)" fill="#292c47"/>
            </g>
          </g>
        </g>
        <g id="Group_10612" data-name="Group 10612" transform="translate(24.785 183.193)">
          <g id="Group_10611" data-name="Group 10611">
            <g id="Group_10610" data-name="Group 10610">
              <path id="Path_195423" data-name="Path 195423" d="M500.554,1841.063l-.384,2.725s-5.658.98-7.358.1l.458-2.831Z" transform="translate(-492.811 -1841.054)" fill="#3d416b"/>
            </g>
          </g>
        </g>
        <path id="Path_195424" data-name="Path 195424" d="M450.668,1508.463H439.5s-3.748-21.427-4.056-30.868h0a23.694,23.694,0,0,1,.03-2.61c.163-2,.4-4.2.623-6.467a.43.43,0,0,1,.006-.048c.656-6.757,1.141-14.177-1.114-19.2-1.894-4.219-6.584-18.008-6.584-18.008s-5.132-15.527-4.092-28.177c.261-3.159,20.1,4.783,20.1,4.783a115.756,115.756,0,0,1,2.231,11.938c2.686,24.563,1.681,40.564,1.681,40.564C446.792,1465.79,450.668,1508.463,450.668,1508.463Z" transform="translate(-415.8 -1324.02)" fill="#62626b"/>
        <g id="Group_10613" data-name="Group 10613" transform="translate(5.354 28.265)">
          <path id="Path_195425" data-name="Path 195425" d="M433.054,1196.161s2.441,9.066,3.238,13.96-1.035,18.365-1.183,21.134c-.459,8.591-.669,18.092-.669,18.092l-18.9,8.361a170.039,170.039,0,0,1-3.355-16.974,75.412,75.412,0,0,1,.493-22.785c2.632-16.848,13.256-25,13.256-25Z" transform="translate(-411.526 -1192.95)" fill="#cfbeb6"/>
        </g>
        <g id="Group_10614" data-name="Group 10614" transform="translate(20.868 7.926)">
          <path id="Path_195426" data-name="Path 195426" d="M492.552,1113.109s2.1,4.154.98,4.762c-.927.5.93,4.573,1.169,5.235s-1.684,1.09-2.1,1.5-1.777,5.579-3.353,5.694-8.584-2.52-10.453-4.563-3.179-11.08-1.778-14.839S488.843,1105.851,492.552,1113.109Z" transform="translate(-476.428 -1107.865)" fill="#eea886"/>
        </g>
        <g id="Group_10615" data-name="Group 10615" transform="translate(20.796 11.292)">
          <path id="Path_195427" data-name="Path 195427" d="M485.884,1138.083s-.136.493-.331,1.256c-.082.319-.175.686-.273,1.084-.074.3-.153.625-.23.956-.029.12-.057.239-.085.36-.128.558-.257,1.14-.374,1.714a18.394,18.394,0,0,0-.489,3.735c.1,2.247-7.974-8.374-7.974-8.374a107.7,107.7,0,0,0,2.708-15.11C479.658,1115.615,485.884,1138.083,485.884,1138.083Z" transform="translate(-476.127 -1121.947)" fill="#eea886"/>
        </g>
        <g id="Group_10616" data-name="Group 10616" transform="translate(19.056 5.228)">
          <path id="Path_195428" data-name="Path 195428" d="M487.2,1105.422a8.613,8.613,0,0,0-3.2-7.745c-4.023-3.39-10.217,2.159-11.081,2.356s-5.648.377-3.536,8.943c1.879,7.625,2.007,7.173,2.007,7.173s1.867-3.7,2.778-4.317c1.423-.967,4.468-.645,4.468-.645s-1.339-3.874.951-4.357S484.926,1104.513,487.2,1105.422Z" transform="translate(-468.847 -1096.582)" fill="#323657"/>
        </g>
        <g id="Group_10617" data-name="Group 10617" transform="translate(23.055 15.656)">
          <path id="Path_195429" data-name="Path 195429" d="M489.007,1142.119c-.185-.531-.765-2.81-2.758-1.534s1.048,5.622,1.386,5.686S490.561,1146.591,489.007,1142.119Z" transform="translate(-485.577 -1140.202)" fill="#eea886"/>
        </g>
        <path id="Path_195430" data-name="Path 195430" d="M427.951,1426.814s-.867-4.049-1.035-4.655l-25.5,4.211.261,3.272S420.048,1428.551,427.951,1426.814Z" transform="translate(-398.476 -1339.102)" fill="#23263d"/>
        <g id="Group_10618" data-name="Group 10618" transform="translate(2.569 28.266)">
          <path id="Path_195431" data-name="Path 195431" d="M426.443,1216.487c-.335,1.943-.623,3.906-.871,5.869h0c-.5,3.913-.835,7.838-1.055,11.668-.024.4-.044.8-.065,1.194q-.05.965-.09,1.921-.052,1.273-.089,2.524a86.58,86.58,0,0,1-7,31.138s-12.893.876-16.212-.915a267.372,267.372,0,0,1-.869-37.563c.081-1.5.254-3.956.378-5.44h0c1.309-15.7,8.981-21.864,16.548-33.932C417.341,1193.163,428.2,1206.272,426.443,1216.487Z" transform="translate(-399.877 -1192.953)" fill="#323657"/>
        </g>
        <path id="Path_195432" data-name="Path 195432" d="M495.582,1188.884c-.128.557-.4,1.294-.52,1.868-2.777-1.632-5.586-4.3-5.586-4.741C490.443,1187.4,495.511,1188.834,495.582,1188.884Z" transform="translate(-465.488 -1159.405)" fill="#a77860"/>
        <path id="Path_195433" data-name="Path 195433" d="M468.535,1311.8c-.024.39-.044.778-.065,1.166q-.05.942-.09,1.875c-2.894-.586-8.389-2.05-10.043-4.957-2.254-3.964,3.368-13.225,3.49-13.424-.052.247-2.4,11.65,0,12.783C463.387,1309.972,466.624,1310.976,468.535,1311.8Z" transform="translate(-441.388 -1243.447)" fill="#282b45"/>
        <path id="Path_195434" data-name="Path 195434" d="M639.5,1283.182l-2.1,26.39-16.938-1.345,1.434-26.442Z" transform="translate(-565.169 -1232.284)" fill="#bf2e2e"/>
        <path id="Path_195435" data-name="Path 195435" d="M598.264,1345.167a2.034,2.034,0,0,0,1.215-.043c.912-.415,1.512-1.874,2.87-1.4s1.054,5.218.529,5.991-2.534.7-5.247-.651S598.264,1345.167,598.264,1345.167Z" transform="translate(-546.982 -1279.347)" fill="#eea886"/>
        <path id="Path_195436" data-name="Path 195436" d="M613.614,1343.246a41.537,41.537,0,0,1,4.536-.1c2.107.075,4.712.461,4.7.992-.019.806-2.118.244-4.212.311-1.927.062-1.536.376-1.536.376s-.106-.1,2.008.25c2.274.371,4.7.865,4.7,1.3,0,.539-.048.605-.895.607.487.1.528.254.5.464-.124,1.084-3.548,1.064-4.908,1.056,1.045.013,1.81.135,1.306.75-.577.7-5.417.454-7.159.533C610.757,1349.868,613.614,1343.246,613.614,1343.246Z" transform="translate(-558.727 -1278.959)" fill="#eea886"/>
        <path id="Path_195437" data-name="Path 195437" d="M425.309,1313.39c-14,1.454-35.128,0-35.128,0-.557-9.931-1.919-28.934-.24-69.109s18.952-51.331,18.952-51.331l9.438,12.068c2.9,12.239-.641,34.828-.4,37.27.02.2.089.871.2,1.922C419.316,1255.726,425.309,1313.39,425.309,1313.39Z" transform="translate(-389.13 -1164.685)" fill="#323657"/>
        <g id="Group_10619" data-name="Group 10619" transform="translate(19.762 27.046)">
          <path id="Path_195438" data-name="Path 195438" d="M473.115,1187.85s4.979,6.287,8.25,8l-.128,5.291-9.436-12.069Z" transform="translate(-471.8 -1187.85)" fill="#eddad3"/>
        </g>
        <g id="Group_10620" data-name="Group 10620" transform="translate(15.502 9.82)">
          <rect id="Rectangle_7355" data-name="Rectangle 7355" width="0.421" height="10.465" transform="translate(0 0.048) rotate(-6.492)" fill="#f08d29"/>
        </g>
        <path id="Path_195439" data-name="Path 195439" d="M456.822,1156.273v0l-.007,0h-.007v0c-1.1.177-.324,5.83-.324,5.83l.974-.111.015,0,.974-.111S457.93,1156.2,456.822,1156.273Z" transform="translate(-440.182 -1136.774)" fill="#f08d29"/>
        <path id="Path_195440" data-name="Path 195440" d="M478.456,1092.372l1.217-2.8-10.838-3.517-10.869,7.392,2.4,1.624Z" transform="translate(-441.51 -1083.345)" fill="#272a45"/>
        <path id="Path_195441" data-name="Path 195441" d="M484.619,1111.892l.092,3.2h0s-6.117-1.383-18.276,3.078l-.9-3.466S476.488,1110.412,484.619,1111.892Z" transform="translate(-447.27 -1102.768)" fill="#51578f"/>
        <path id="Path_195442" data-name="Path 195442" d="M474.74,1346.274s-7.368.574-8.2-2.236-3.013-16.963-3.013-16.963l11.016,17.277C474.562,1344.555,474.631,1345.222,474.74,1346.274Z" transform="translate(-445.743 -1266.747)" fill="#282b45"/>
        <path id="Path_195443" data-name="Path 195443" d="M453.479,1232.292c-.629-2.353-2.216-12.839,3.712-13.839s7.264,6.019,8.241,11.322c1.022,5.549,2.076,19.582,3.171,20s8.481.438,10.026.3,11.27-1.26,12.052-1.273c.765-.013.319,17.562.319,17.562s-24.892-4.991-29.535-5.707S453.479,1232.292,453.479,1232.292Z" transform="translate(-437.584 -1184.019)" fill="#323657"/>
        <path id="Path_195444" data-name="Path 195444" d="M424.219,1205.017l-9.437-12.067a13.349,13.349,0,0,0-5.561,3.154c-2.686,2.507-12.654,13.223-12.344,36.158,0,0,6.579-32.184,15.925-35.265C412.8,1197,416.412,1196.715,424.219,1205.017Z" transform="translate(-395.02 -1164.685)" fill="#f08d29"/>
      </g>
    </g>
  </g>
</svg>
