<svg xmlns="http://www.w3.org/2000/svg" xmlns:xlink="http://www.w3.org/1999/xlink" width="540" height="329.999" viewBox="0 0 540 329.999">
  <defs>
    <filter id="Path_199186" x="160.497" y="52.244" width="172.886" height="213.598" filterUnits="userSpaceOnUse">
      <feOffset dy="3" input="SourceAlpha"/>
      <feGaussianBlur stdDeviation="3" result="blur"/>
      <feFlood flood-opacity="0.161"/>
      <feComposite operator="in" in2="blur"/>
      <feComposite in="SourceGraphic"/>
    </filter>
  </defs>
  <g id="industryHealth_Lifescience" data-name="industryHealth &amp; Lifescience" transform="translate(-72.5 -24)">
    <g id="Group_22000" data-name="Group 22000" transform="translate(4.291 -16.03)">
      <path id="Path_214838" data-name="Path 214838" d="M179.518,37.366c28.147,0,44.931,7.818,85.621,7.818s84.51,3.114,85.433-12.761S318.459-1.336,249.728,1.653s-82.8-10.009-145.326-5.1S6.549,12.781-.386,21.272c-9.7,11.876,19.584,18,57.552,20.969C88.562,44.7,134.21,37.366,179.518,37.366Z" transform="translate(99.902 324.599)" fill="#fff" opacity="0.35"/>
      <g id="Building" transform="translate(68.209 40.03)">
        <path id="Path_199181" data-name="Path 199181" d="M250.219,265.914a6.911,6.911,0,0,1-6.94,6.868H75.53a6.911,6.911,0,0,1-6.94-6.868V138.993a6.9,6.9,0,0,1,6.94-6.853H243.279a6.9,6.9,0,0,1,6.94,6.853Z" transform="translate(-56.601 -18.94)" fill="#e4e4e4"/>
        <path id="Path_199182" data-name="Path 199182" d="M448.767,265.914a6.9,6.9,0,0,1-6.94,6.868H274.166a6.9,6.9,0,0,1-6.926-6.868V138.993a6.9,6.9,0,0,1,6.926-6.853h167.69a6.9,6.9,0,0,1,6.94,6.853Z" transform="translate(36.443 -18.94)" fill="#e4e4e4"/>
        <path id="Path_199183" data-name="Path 199183" d="M243.565,135.21a6.911,6.911,0,0,1-6.94,6.868H67.29a6.911,6.911,0,0,1-6.94-6.868v-1.717a6.9,6.9,0,0,1,6.94-6.853H236.625a6.9,6.9,0,0,1,6.94,6.853Z" transform="translate(-60.35 -21.442)" fill="#004651"/>
        <path id="Path_199184" data-name="Path 199184" d="M458.055,135.21a6.911,6.911,0,0,1-6.94,6.868H281.78a6.911,6.911,0,0,1-6.94-6.868v-1.717a6.9,6.9,0,0,1,6.94-6.853H451.129a6.9,6.9,0,0,1,6.94,6.853Z" transform="translate(39.902 -21.442)" fill="#004651"/>
        <path id="Path_199185" data-name="Path 199185" d="M268.617,61.208a6.9,6.9,0,0,0-6.94-6.868H215.45a6.9,6.9,0,0,0-6.94,6.868V107.23a6.9,6.9,0,0,0,6.94,6.853h46.226a6.9,6.9,0,0,0,6.94-6.853Z" transform="translate(8.38 -54.34)" fill="#dadada"/>
        <g transform="matrix(1, 0, 0, 1, 0, 0)" filter="url(#Path_199186)">
          <path id="Path_199186-2" data-name="Path 199186" d="M330.826,283.1a6.9,6.9,0,0,1-6.94,6.868H182.88a6.9,6.9,0,0,1-6.94-6.868V101.223a6.9,6.9,0,0,1,6.94-6.853H323.886a6.9,6.9,0,0,1,6.94,6.853Z" transform="translate(-6.44 -36.13)" fill="#f3f3f3"/>
        </g>
        <path id="Path_199187" data-name="Path 199187" d="M338.4,96.953a6.926,6.926,0,0,0-7-6.853H178.955A6.926,6.926,0,0,0,172,96.953v1.731a6.94,6.94,0,0,0,7,6.868H331.4a6.941,6.941,0,0,0,7-6.868Z" transform="translate(-8.236 -38.069)" fill="#004651"/>
        <ellipse id="Ellipse_657" data-name="Ellipse 657" cx="19.657" cy="19.439" rx="19.657" ry="19.439" transform="translate(227.294 8.003)" fill="#f6f6f6"/>
        <path id="Path_199188" data-name="Path 199188" d="M246.3,71.852h-6.533v-6.46a2.226,2.226,0,0,0-2.241-2.212h-7.464a2.226,2.226,0,0,0-2.241,2.212v6.46h-6.533A2.226,2.226,0,0,0,219,74.064v7.391a2.226,2.226,0,0,0,2.226,2.212h6.533v6.46A2.226,2.226,0,0,0,230,92.339h7.464a2.226,2.226,0,0,0,2.241-2.212v-6.46h6.533a2.212,2.212,0,0,0,2.226-2.212V74.064a2.212,2.212,0,0,0-2.168-2.212Z" transform="translate(13.154 -50.318)" fill="#be1622"/>
        <g id="Door" transform="translate(199.04 175.562)">
          <rect id="Rectangle_8812" data-name="Rectangle 8812" width="81.684" height="70.321" transform="translate(7.45 7.959)" fill="#b2b2b2"/>
          <rect id="Rectangle_8813" data-name="Rectangle 8813" width="52.017" height="70.321" transform="translate(22.189 7.959)" fill="#dadada"/>
          <rect id="Rectangle_8814" data-name="Rectangle 8814" width="4.816" height="71.47" transform="translate(45.6 6.81)" fill="#b2b2b2"/>
          <path id="Path_199189" data-name="Path 199189" d="M293.275,181.81a6.911,6.911,0,0,1-6.94,6.868H203.166a6.9,6.9,0,0,1-6.926-6.868h0A6.9,6.9,0,0,1,203.166,175h83.227a6.9,6.9,0,0,1,6.94,6.853Z" transform="translate(-196.24 -175)" fill="#004651"/>
          <path id="Path_199190" data-name="Path 199190" d="M229.076,206.26a1.63,1.63,0,0,1-1.644,1.615h-6.548a1.63,1.63,0,0,1-1.644-1.615h0a1.644,1.644,0,0,1,1.644-1.63h6.548a1.644,1.644,0,0,1,1.644,1.63Z" transform="translate(-185.775 -161.518)" fill="#004651"/>
          <path id="Path_199191" data-name="Path 199191" d="M242.176,206.26a1.63,1.63,0,0,1-1.644,1.615h-6.548a1.63,1.63,0,0,1-1.644-1.615h0a1.644,1.644,0,0,1,1.644-1.63h6.591a1.644,1.644,0,0,1,1.644,1.63Z" transform="translate(-179.814 -161.518)" fill="#004651"/>
        </g>
      </g>
      <g id="Window" transform="translate(97.979 130.001)" opacity="0.5">
        <path id="Path_199192" data-name="Path 199192" d="M141.059,151.57H118.521a6.46,6.46,0,0,0-6.431,6.489V180.8a6.475,6.475,0,0,0,6.431,6.5h22.538a6.475,6.475,0,0,0,6.431-6.5V158.016A6.46,6.46,0,0,0,141.059,151.57Z" transform="translate(-66.577 -91.085)" fill="#006e35"/>
        <path id="Path_199193" data-name="Path 199193" d="M174.57,157.215a6.431,6.431,0,0,0-6.358-5.645H145.717a6.446,6.446,0,0,0-6.417,6.446v23.295a6.431,6.431,0,0,0,6.388,5.951h22.494a6.475,6.475,0,0,0,6.431-6.5V158.016a5.351,5.351,0,0,0-.044-.8Z" transform="translate(-53.633 -91.085)" fill="#006e35"/>
        <path id="Path_199194" data-name="Path 199194" d="M168.211,181.34H145.717a6.446,6.446,0,0,0-6.417,6.489v22.742a6.489,6.489,0,0,0,6.417,6.5h22.495a6.475,6.475,0,0,0,6.431-6.5V187.829a6.46,6.46,0,0,0-6.431-6.489Z" transform="translate(-53.633 -77.539)" fill="#006e35"/>
        <path id="Path_199195" data-name="Path 199195" d="M110.769,151.657a6.114,6.114,0,0,0-1.048-.087H87.241a6.46,6.46,0,0,0-6.431,6.446v22.742a6.475,6.475,0,0,0,6.431,6.5h22.48a6.475,6.475,0,0,0,6.431-6.5V158.016A6.475,6.475,0,0,0,110.769,151.657Z" transform="translate(-80.81 -91.085)" fill="#006e35"/>
        <path id="Path_199196" data-name="Path 199196" d="M110.58,181.383a8.514,8.514,0,0,0-.858,0H87.241a6.46,6.46,0,0,0-6.431,6.489v22.742a6.707,6.707,0,0,0,.48,2.488,6.446,6.446,0,0,0,5.951,4.016h22.48a6.475,6.475,0,0,0,6.431-6.5v-22.8a6.475,6.475,0,0,0-5.573-6.431Z" transform="translate(-80.81 -77.524)" fill="#006e35"/>
        <path id="Path_199197" data-name="Path 199197" d="M143.969,182.053a6.344,6.344,0,0,0-2.91-.713H118.521a6.46,6.46,0,0,0-6.431,6.489v22.742a6.475,6.475,0,0,0,6.431,6.5h22.538a6.475,6.475,0,0,0,6.431-6.5V187.829A6.5,6.5,0,0,0,143.969,182.053Z" transform="translate(-66.577 -77.539)" fill="#006e35"/>
        <path id="Path_199198" data-name="Path 199198" d="M245.259,110H222.066a6.62,6.62,0,0,0-6.606,6.635v23.426a6.62,6.62,0,0,0,6.606,6.446H245.23a6.635,6.635,0,0,0,6.62-6.635v-23.28A6.635,6.635,0,0,0,245.259,110Z" transform="translate(-18.242 -110)" fill="#b1cdbe"/>
        <path id="Path_199199" data-name="Path 199199" d="M277.08,110H253.916a6.62,6.62,0,0,0-6.606,6.635v23.28a6.606,6.606,0,0,0,6.606,6.635H277.08a4.362,4.362,0,0,0,.611,0,6.606,6.606,0,0,0,5.995-6.446v-23.44A6.635,6.635,0,0,0,277.08,110Z" transform="translate(-3.443 -110)" fill="#b1cdbe"/>
        <path id="Path_199200" data-name="Path 199200" d="M216.2,141.25a6.562,6.562,0,0,0-3.157-.8H189.876a6.62,6.62,0,0,0-6.606,6.635v23.28A6.649,6.649,0,0,0,189.876,177H213.04a6.606,6.606,0,0,0,4.918-2.212,5.921,5.921,0,0,1,1.033-1.557h0a6.722,6.722,0,0,0,.655-2.91V147.07A6.649,6.649,0,0,0,216.2,141.25Z" transform="translate(-33.2 -96.145)" fill="#b1cdbe"/>
        <path id="Path_199201" data-name="Path 199201" d="M277.08,140.44H253.916a6.62,6.62,0,0,0-6.606,6.635v23.28a6.62,6.62,0,0,0,6.606,6.635H277.08a6.635,6.635,0,0,0,6.62-6.635v-23.28A6.635,6.635,0,0,0,277.08,140.44Z" transform="translate(-3.443 -96.149)" fill="#b1cdbe"/>
        <path id="Path_199202" data-name="Path 199202" d="M213.04,110H189.876a6.62,6.62,0,0,0-6.606,6.635v23.28a6.62,6.62,0,0,0,6.606,6.635H213.04a6.635,6.635,0,0,0,6.62-6.635v-23.28A6.635,6.635,0,0,0,213.04,110Z" transform="translate(-33.2 -110)" fill="#b1cdbe"/>
        <path id="Path_199203" data-name="Path 199203" d="M245.259,140.44H222.066a6.62,6.62,0,0,0-6.606,6.635v23.28a6.62,6.62,0,0,0,2.91,5.529,6.533,6.533,0,0,0,3.638,1.106h23.164a6.635,6.635,0,0,0,6.62-6.635v-23.28a6.635,6.635,0,0,0-6.62-6.635Z" transform="translate(-18.243 -96.149)" fill="#b1cdbe"/>
        <path id="Path_199204" data-name="Path 199204" d="M357.808,152.428a6.358,6.358,0,0,0-3.186-.858h-22.48a6.46,6.46,0,0,0-6.431,6.489V180.8a6.475,6.475,0,0,0,2.619,5.223,6.329,6.329,0,0,0,3.812,1.28h22.48a6.475,6.475,0,0,0,6.431-6.5V158.016A6.489,6.489,0,0,0,357.808,152.428Z" transform="translate(33.279 -91.085)" fill="#006e35"/>
        <path id="Path_199205" data-name="Path 199205" d="M391.966,157.754a6.46,6.46,0,0,0-6.4-6.184H363.011a6.46,6.46,0,0,0-6.431,6.489V180.8a6.475,6.475,0,0,0,6.431,6.5h22.553a6.46,6.46,0,0,0,6.417-6.5V158.016S391.966,157.856,391.966,157.754Z" transform="translate(47.325 -91.085)" fill="#006e35"/>
        <path id="Path_199206" data-name="Path 199206" d="M321.411,148.53H297.17a6.9,6.9,0,0,0-6.94,6.853v24.022a6.9,6.9,0,0,0,6.94,6.853h24.27a6.9,6.9,0,0,0,6.94-6.853V155.383a6.9,6.9,0,0,0-6.969-6.853Z" transform="translate(16.51 -88.22)" fill="#006e35"/>
        <path id="Path_199207" data-name="Path 199207" d="M321.411,180H297.17a6.911,6.911,0,0,0-6.94,6.868v24.008a6.911,6.911,0,0,0,6.94,6.809h24.27a6.911,6.911,0,0,0,6.94-6.868V186.81a7.272,7.272,0,0,0-.145-1.455A6.926,6.926,0,0,0,321.411,180Z" transform="translate(16.51 -73.901)" fill="#006e35"/>
        <path id="Path_199208" data-name="Path 199208" d="M356.687,181.66a6.431,6.431,0,0,0-1.993-.32H332.141a6.46,6.46,0,0,0-6.431,6.489v22.742a6.475,6.475,0,0,0,6.431,6.5h22.48a6.475,6.475,0,0,0,6.431-6.5V187.829A6.489,6.489,0,0,0,356.687,181.66Z" transform="translate(33.279 -77.539)" fill="#006e35"/>
        <path id="Path_199209" data-name="Path 199209" d="M207.6,155.635a5.819,5.819,0,0,0-1.091,1.615,7,7,0,0,0,1.106-1.63Z" transform="translate(-22.5 -89.242)" fill="#a3e4e1"/>
      </g>
      <g id="Group_14898" data-name="Group 14898" transform="translate(141.81 256.07)">
        <g id="Group_14897" data-name="Group 14897" transform="translate(0 0)">
          <g id="Group_14870" data-name="Group 14870" transform="translate(11.515 40.916)">
            <g id="Group_14856" data-name="Group 14856" transform="translate(24.636 1.666)">
              <rect id="Rectangle_9183" data-name="Rectangle 9183" width="1.105" height="47.044" fill="#4e4f4f"/>
            </g>
            <g id="Group_14857" data-name="Group 14857" transform="translate(18.473 2.334)">
              <path id="Path_200237" data-name="Path 200237" d="M81.7,202.215l1.068-.291L70.594,156.483l-1.076.286Z" transform="translate(-69.518 -156.483)" fill="#4e4f4f"/>
            </g>
            <g id="Group_14858" data-name="Group 14858" transform="translate(12.779 4.582)">
              <path id="Path_200238" data-name="Path 200238" d="M90.046,198.964l.962-.553L67.483,157.665l-.959.556Z" transform="translate(-66.524 -157.665)" fill="#4e4f4f"/>
            </g>
            <g id="Group_14859" data-name="Group 14859" transform="translate(7.932 8.253)">
              <rect id="Rectangle_9184" data-name="Rectangle 9184" width="1.109" height="47.047" transform="matrix(0.707, -0.707, 0.707, 0.707, 0, 0.783)" fill="#4e4f4f"/>
            </g>
            <g id="Group_14860" data-name="Group 14860" transform="translate(4.246 13.114)">
              <path id="Path_200239" data-name="Path 200239" d="M102.787,186.635l.549-.961L62.594,162.151l-.556.96Z" transform="translate(-62.038 -162.151)" fill="#4e4f4f"/>
            </g>
            <g id="Group_14861" data-name="Group 14861" transform="translate(2 18.81)">
              <path id="Path_200240" data-name="Path 200240" d="M106.3,178.393l.291-1.069L61.14,165.145l-.283,1.074Z" transform="translate(-60.856 -165.145)" fill="#4e4f4f"/>
            </g>
            <g id="Group_14862" data-name="Group 14862" transform="translate(1.329 24.967)">
              <rect id="Rectangle_9185" data-name="Rectangle 9185" width="47.043" height="1.109" fill="#4e4f4f"/>
            </g>
            <g id="Group_14863" data-name="Group 14863" transform="translate(2 18.982)">
              <path id="Path_200241" data-name="Path 200241" d="M61.14,178.487l45.448-12.179-.291-1.072L60.856,177.413Z" transform="translate(-60.856 -165.236)" fill="#4e4f4f"/>
            </g>
            <g id="Group_14864" data-name="Group 14864" transform="translate(4.248 13.443)">
              <rect id="Rectangle_9186" data-name="Rectangle 9186" width="47.05" height="1.11" transform="translate(0 23.529) rotate(-30.005)" fill="#4e4f4f"/>
            </g>
            <g id="Group_14865" data-name="Group 14865" transform="translate(7.925 8.73)">
              <rect id="Rectangle_9187" data-name="Rectangle 9187" width="47.047" height="1.11" transform="translate(0 33.271) rotate(-45.006)" fill="#4e4f4f"/>
            </g>
            <g id="Group_14866" data-name="Group 14866" transform="translate(12.779 5.162)">
              <path id="Path_200242" data-name="Path 200242" d="M67.483,199.269l23.525-40.746-.962-.553L66.524,198.711Z" transform="translate(-66.524 -157.97)" fill="#4e4f4f"/>
            </g>
            <g id="Group_14867" data-name="Group 14867" transform="translate(18.477 2.977)">
              <rect id="Rectangle_9188" data-name="Rectangle 9188" width="47.048" height="1.11" transform="translate(0 45.446) rotate(-75.005)" fill="#4e4f4f"/>
            </g>
            <g id="Group_14868" data-name="Group 14868">
              <path id="Path_200243" data-name="Path 200243" d="M59.805,180.448a25.187,25.187,0,1,1,25.188,25.184A25.218,25.218,0,0,1,59.805,180.448Zm3.325,0a21.859,21.859,0,1,0,21.863-21.861A21.887,21.887,0,0,0,63.13,180.448Z" transform="translate(-59.805 -155.256)" fill="#58697d"/>
            </g>
            <g id="Group_14869" data-name="Group 14869" transform="translate(21.352 21.354)">
              <path id="Path_200244" data-name="Path 200244" d="M71.031,170.321a3.832,3.832,0,1,0,3.836-3.838A3.837,3.837,0,0,0,71.031,170.321Z" transform="translate(-71.031 -166.483)" fill="#333"/>
            </g>
          </g>
          <path id="Path_200245" data-name="Path 200245" d="M106.77,164.718a3.144,3.144,0,0,1-3.254,3H61.672a3.141,3.141,0,0,1-3.25-3v-2.5a3.139,3.139,0,0,1,3.25-2.994h41.844a3.142,3.142,0,0,1,3.254,2.994Z" transform="translate(-49.537 -110.76)" fill="#38324d"/>
          <path id="Path_200246" data-name="Path 200246" d="M61.273,164.216h41.844a3.144,3.144,0,0,0,3.254-3v-1.156a2.754,2.754,0,0,1,.4,1.4v2.5a3.144,3.144,0,0,1-3.254,3H61.672a3.141,3.141,0,0,1-3.25-3v-1.339A3.291,3.291,0,0,0,61.273,164.216Z" transform="translate(-49.537 -110.005)" fill="#2d2642"/>
          <g id="Group_14878" data-name="Group 14878">
            <path id="Path_200260" data-name="Path 200260" d="M120.914,222.668a1.382,1.382,0,0,0,.306-.03l12.409-2.393a1.62,1.62,0,1,0-.611-3.182l-11.011,2.123-9.485-28.745a1.624,1.624,0,0,0-1.539-1.113H64.245c.021-7.612.1-34.688,0-43.5-.135-11.448-8.688-12.074-8.776-12.079a1.621,1.621,0,0,0-.2,3.235c.592.049,5.639.694,5.734,8.882.12,9.947,0,44.677,0,45.079a1.62,1.62,0,0,0,1.62,1.624h47.194l9.563,28.988A1.624,1.624,0,0,0,120.914,222.668Z" transform="translate(-53.751 -133.744)" fill="#313236"/>
          </g>
          <g id="Group_14879" data-name="Group 14879" transform="translate(7.257 28.049)">
            <path id="Path_200261" data-name="Path 200261" d="M103.558,179.267a1.624,1.624,0,0,0,1.622-1.607c.194-23.214-19.6-29.053-19.8-29.108a1.647,1.647,0,0,0-.441-.061H59.186a1.62,1.62,0,1,0,0,3.241H84.7c2.054.65,17.4,6.178,17.238,25.9a1.619,1.619,0,0,0,1.609,1.632Z" transform="translate(-57.566 -148.491)" fill="#6a6b6b"/>
          </g>
          <g id="Group_14894" data-name="Group 14894" transform="translate(4.415 40.916)">
            <g id="Group_15552" data-name="Group 15552" transform="translate(1.398 1.748)">
              <g id="Group_14880" data-name="Group 14880" transform="translate(24.429)">
                <rect id="Rectangle_9189" data-name="Rectangle 9189" width="1.166" height="49.326" fill="#08a7b8"/>
              </g>
              <g id="Group_14881" data-name="Group 14881" transform="translate(17.962 0.702)">
                <rect id="Rectangle_9190" data-name="Rectangle 9190" width="1.167" height="49.329" transform="translate(0 0.303) rotate(-15.032)" fill="#08a7b8"/>
              </g>
              <g id="Group_14882" data-name="Group 14882" transform="translate(11.96 3.081)">
                <rect id="Rectangle_9191" data-name="Rectangle 9191" width="1.161" height="49.332" transform="translate(0 0.582) rotate(-30.115)" fill="#08a7b8"/>
              </g>
              <g id="Group_14883" data-name="Group 14883" transform="translate(6.913 6.915)">
                <rect id="Rectangle_9192" data-name="Rectangle 9192" width="1.163" height="49.328" transform="translate(0 0.822) rotate(-45)" fill="#08a7b8"/>
              </g>
              <g id="Group_14884" data-name="Group 14884" transform="translate(3.055 12.002)">
                <path id="Path_200262" data-name="Path 200262" d="M101.14,188.157l.578-1L59,162.485l-.583,1.007Z" transform="translate(-58.413 -162.485)" fill="#08a7b8"/>
              </g>
              <g id="Group_14885" data-name="Group 14885" transform="translate(0.712 17.927)">
                <rect id="Rectangle_9193" data-name="Rectangle 9193" width="1.164" height="49.33" transform="translate(0 1.123) rotate(-74.883)" fill="#08a7b8"/>
              </g>
              <g id="Group_14886" data-name="Group 14886" transform="translate(0 24.431)">
                <rect id="Rectangle_9194" data-name="Rectangle 9194" width="49.326" height="1.163" fill="#08a7b8"/>
              </g>
              <g id="Group_14887" data-name="Group 14887" transform="translate(0.7 18.157)">
                <path id="Path_200263" data-name="Path 200263" d="M57.475,179.616l47.651-12.77-.3-1.125L57.175,178.489Z" transform="translate(-57.175 -165.721)" fill="#08a7b8"/>
              </g>
              <g id="Group_14888" data-name="Group 14888" transform="translate(3.055 12.349)">
                <path id="Path_200264" data-name="Path 200264" d="M59,188.342l42.721-24.665-.578-1.009L58.413,187.336Z" transform="translate(-58.413 -162.667)" fill="#08a7b8"/>
              </g>
              <g id="Group_14889" data-name="Group 14889" transform="translate(6.914 7.406)">
                <rect id="Rectangle_9195" data-name="Rectangle 9195" width="49.329" height="1.163" transform="matrix(0.707, -0.707, 0.707, 0.707, 0, 34.883)" fill="#08a7b8"/>
              </g>
              <g id="Group_14890" data-name="Group 14890" transform="translate(12.003 3.663)">
                <path id="Path_200265" data-name="Path 200265" d="M64.123,201.4l24.665-42.721-1-.581L63.118,200.826Z" transform="translate(-63.118 -158.101)" fill="#08a7b8"/>
              </g>
              <g id="Group_14891" data-name="Group 14891" transform="translate(17.975 1.374)">
                <path id="Path_200266" data-name="Path 200266" d="M67.385,204.85,80.153,157.2l-1.127-.3L66.258,204.546Z" transform="translate(-66.258 -156.897)" fill="#08a7b8"/>
              </g>
            </g>
            <g id="Group_14892" data-name="Group 14892">
              <path id="Path_200267" data-name="Path 200267" d="M56.072,181.667A26.409,26.409,0,1,1,82.481,208.08,26.441,26.441,0,0,1,56.072,181.667Zm3.486,0a22.923,22.923,0,1,0,22.923-22.921A22.949,22.949,0,0,0,59.558,181.667Z" transform="translate(-56.072 -155.256)" fill="#037477"/>
            </g>
            <g id="Group_14893" data-name="Group 14893" transform="translate(22.386 22.39)">
              <path id="Path_200268" data-name="Path 200268" d="M67.842,171.049a4.023,4.023,0,1,0,4.023-4.021A4.022,4.022,0,0,0,67.842,171.049Z" transform="translate(-67.842 -167.028)" fill="#313236"/>
            </g>
          </g>
          <path id="Path_200270" data-name="Path 200270" d="M98.708,151.978a2.306,2.306,0,0,1-2.378,2.208H61.719a2.3,2.3,0,0,1-2.374-2.208v-1.847a2.306,2.306,0,0,1,2.374-2.208H96.331a2.307,2.307,0,0,1,2.378,2.208Z" transform="translate(-48.705 -120.954)" fill="#313236"/>
        </g>
      </g>
      <g id="Ambulance" transform="translate(427.154 238.288)">
        <path id="Path_199210" data-name="Path 199210" d="M506.158,183h-120.9c-3.7,0-4.284,2.242-6.693,5.74l-15.947,26.773H340.313c-3.7,0-6.693,2.477-6.693,5.522v35.056c0,3.062,3,5.539,6.693,5.539H506.158a5.74,5.74,0,0,0,5.438-3.865h0V257.6a4.639,4.639,0,0,0,.234-1.439v-67.4A5.74,5.74,0,0,0,506.158,183Z" transform="translate(-332.716 -176.876)" fill="#00a9b8"/>
        <path id="Path_199211" data-name="Path 199211" d="M396.2,245.46H363.437c-4.133,0-7.5-4.367-7.5-9.739v-29.8c0-5.371,3.347-9.739,7.5-9.739H396.2c4.133,0,7.5,4.367,7.5,9.739v29.735C403.613,241.059,400.25,245.46,396.2,245.46Zm-32.68-46.7c-2.661,0-4.9,3.347-4.9,7.229v29.735c0,3.916,2.242,7.229,4.9,7.229H396.2c2.661,0,4.9-3.347,4.9-7.229v-29.8c0-3.916-2.242-7.229-4.9-7.229Z" transform="translate(-317.688 -168.001)" fill="#037477"/>
        <path id="Path_199212" data-name="Path 199212" d="M373.851,185.35c-2.594,0-3,1.573-4.7,4.033,0,0-11.881,18.507-12.282,20.616s2.108,4.033,4.7,4.033H403.1V185.35Z" transform="translate(-317.092 -175.293)" fill="#193b53"/>
        <path id="Path_199213" data-name="Path 199213" d="M383.6,190.21a2.125,2.125,0,0,0-2.979.184L362,211.11h5.639l16.114-18.005a2.092,2.092,0,0,0-.151-2.895Z" transform="translate(-313.607 -172.373)" fill="#50777f"/>
        <path id="Path_199214" data-name="Path 199214" d="M390.22,185.35,370.742,207.1a2.075,2.075,0,0,0,.184,2.945,2.108,2.108,0,0,0,2.979-.184l20.08-22.423V185.35Z" transform="translate(-308.076 -175.293)" fill="#50777f"/>
        <path id="Path_199215" data-name="Path 199215" d="M403.433,215.369H361.8a6.174,6.174,0,0,1-4.685-2.075,3.731,3.731,0,0,1-.853-3.079c.4-2.175,10.207-17.838,12.165-20.95.318-.469.569-.887.8-1.272,1.121-1.79,2.008-3.213,4.6-3.213h29.6Zm-29.6-28.681c-1.556,0-1.958.636-3,2.309-.251.4-.519.837-.837,1.305-5.555,8.835-11.63,18.959-11.9,20.264a1.874,1.874,0,0,0,.452,1.506,4.3,4.3,0,0,0,3.246,1.389h39.758V186.688Z" transform="translate(-317.508 -175.677)" fill="#037477"/>
        <path id="Path_199216" data-name="Path 199216" d="M387.933,208.019a1.506,1.506,0,0,1-1.506,1.489h-7.681a1.506,1.506,0,0,1-1.506-1.489h0a1.506,1.506,0,0,1,1.506-1.489h7.681a1.506,1.506,0,0,1,1.506,1.489Z" transform="translate(-303.346 -161.032)" fill="#f6f6f6"/>
        <path id="Path_199217" data-name="Path 199217" d="M334.486,207.464a2.125,2.125,0,0,1,.084-.569,1.422,1.422,0,0,0-.385,0,1.021,1.021,0,0,0-1.1.9v9.839a1.021,1.021,0,0,0,1.1.887,1.423,1.423,0,0,0,.385,0,2.643,2.643,0,0,1-.084-.636Z" transform="translate(-333.08 -160.795)" fill="#c6c6c6"/>
        <path id="Path_199218" data-name="Path 199218" d="M335.978,205.84a2.41,2.41,0,0,0-2.058,2.326v10.308a2.647,2.647,0,0,0,.084.636,2.125,2.125,0,0,0,1.975,1.673,2.192,2.192,0,0,0,2.042-2.326V208.149a2.192,2.192,0,0,0-2.041-2.309Z" transform="translate(-332.514 -161.497)" fill="#f6f6f6"/>
        <path id="Path_199219" data-name="Path 199219" d="M436.437,218.2h-4.284a3.079,3.079,0,0,0-2.861,3.246,47.208,47.208,0,0,0,2.226,4.284c.887,1.472,1.824,2.627,3.347,2.627h12.6V218.2Z" transform="translate(-268.301 -153.174)" fill="#dadada"/>
        <path id="Path_199220" data-name="Path 199220" d="M514.135,229.5a2.8,2.8,0,0,1-2.811,2.728H335.891a2.8,2.8,0,0,1-2.811-2.778h0a2.794,2.794,0,0,1,2.811-2.761H511.324a2.794,2.794,0,0,1,2.811,2.761Z" transform="translate(-333.08 -147.458)" fill="#273438"/>
        <rect id="Rectangle_8815" data-name="Rectangle 8815" width="10.007" height="8.032" transform="translate(169.208 66.047)" fill="#de2d32"/>
        <path id="Path_199221" data-name="Path 199221" d="M432.92,218.823a2.594,2.594,0,0,0-2.61,2.577,38.872,38.872,0,0,0,2.008,3.347,3.782,3.782,0,0,0,3.1,2.075h1.406V218.79Z" transform="translate(-267.612 -152.777)" fill="#ff9409"/>
        <path id="Path_199222" data-name="Path 199222" d="M361.6,218.52a19.361,19.361,0,0,0-19.461,19.21h38.922A19.344,19.344,0,0,0,361.6,218.52Z" transform="translate(-326.98 -152.959)" fill="#037477"/>
        <path id="Path_199223" data-name="Path 199223" d="M377.722,236.734A17.051,17.051,0,1,1,360.6,220a17.051,17.051,0,0,1,17.118,16.733Z" transform="translate(-325.982 -151.963)" fill="#273438"/>
        <path id="Path_199224" data-name="Path 199224" d="M425.921,218.52a19.36,19.36,0,0,0-19.461,19.21h38.922A19.361,19.361,0,0,0,425.921,218.52Z" transform="translate(-283.671 -152.959)" fill="#037477"/>
        <path id="Path_199225" data-name="Path 199225" d="M441.978,236.733A17.035,17.035,0,1,1,424.944,220a17.035,17.035,0,0,1,17.034,16.733Z" transform="translate(-282.694 -151.962)" fill="#273438"/>
        <path id="Path_199226" data-name="Path 199226" d="M371.548,235.05a12.6,12.6,0,1,1-3.738-8.907,12.684,12.684,0,0,1,3.738,8.907Z" transform="translate(-324.259 -150.279)" fill="#00a9b8"/>
        <path id="Path_199227" data-name="Path 199227" d="M369.117,234.357a10.877,10.877,0,1,1-3.227-7.682,10.944,10.944,0,0,1,3.227,7.682Z" transform="translate(-323.552 -149.585)" fill="#ededed"/>
        <path id="Path_199228" data-name="Path 199228" d="M358.007,231.205a3.029,3.029,0,1,1-3.029-3,3.029,3.029,0,0,1,3.029,3Z" transform="translate(-320.374 -146.434)" fill="#273438"/>
        <path id="Path_199229" data-name="Path 199229" d="M435.908,235.05a12.684,12.684,0,1,1-12.684-12.55A12.684,12.684,0,0,1,435.908,235.05Z" transform="translate(-280.923 -150.279)" fill="#00a9b8"/>
        <path id="Path_199230" data-name="Path 199230" d="M433.454,234.357a10.86,10.86,0,1,1-3.216-7.681,10.927,10.927,0,0,1,3.216,7.681Z" transform="translate(-280.21 -149.585)" fill="#ededed"/>
        <path id="Path_199231" data-name="Path 199231" d="M422.367,231.205a3.029,3.029,0,1,1-3.029-3,3.029,3.029,0,0,1,3.029,3Z" transform="translate(-277.038 -146.434)" fill="#273438"/>
        <path id="Path_199232" data-name="Path 199232" d="M436.177,201.6H424.965V190.525a2.125,2.125,0,0,0-2.142-2.125H415.7a2.125,2.125,0,0,0-2.142,2.125V201.6H402.342a2.142,2.142,0,0,0-2.142,2.125v7.045a2.142,2.142,0,0,0,2.142,2.125h11.211v11.077A2.125,2.125,0,0,0,415.7,226.1h7.128a2.125,2.125,0,0,0,2.142-2.125V212.831H436.16a2.125,2.125,0,0,0,2.142-2.125v-7.045A2.125,2.125,0,0,0,436.177,201.6Z" transform="translate(-287.886 -173.24)" fill="#ededed"/>
        <path id="Path_199233" data-name="Path 199233" d="M374.882,179.37a3.062,3.062,0,0,0,0,6.124h2.962l4.836-6.124Z" transform="translate(-306.995 -179.32)" fill="#1d15b7"/>
        <path id="Path_199234" data-name="Path 199234" d="M396.307,179.39H381.749l-4.819,6.074h19.377a3.062,3.062,0,0,0,0-6.124Z" transform="translate(-303.554 -179.34)" fill="#e50e28"/>
        <path id="Path_199235" data-name="Path 199235" d="M380.249,179.37l-4.819,6.124h2.51l4.819-6.124Z" transform="translate(-304.564 -179.32)" fill="#9d9d9c"/>
      </g>
      <g id="Group_14336" data-name="Group 14336" transform="translate(327.372 154.721)">
        <path id="Path_198483" data-name="Path 198483" d="M279.72,154.984s-.849-2.1.329-2.384l.438,1.891Z" transform="translate(-257.497 -101.152)" fill="#eea886"/>
        <g id="Group_14298" data-name="Group 14298" transform="translate(20.962 170.385)">
          <g id="Group_14292" data-name="Group 14292" transform="translate(0 6.83)">
            <g id="Group_14291" data-name="Group 14291">
              <path id="Path_198484" data-name="Path 198484" d="M283.214,252.634s-4.521,2.124-4.494,2.822.685,1.685,1.206,1.658,7.8.137,8.467-.37,3.357-5.6,5.055-5.932a3.809,3.809,0,0,0,2.658-4.658,3.7,3.7,0,0,0-.6-1.233C293.53,242.016,286.255,252.209,283.214,252.634Z" transform="translate(-278.72 -244.401)" fill="#222b70"/>
            </g>
          </g>
          <g id="Group_14294" data-name="Group 14294" transform="translate(3.805 6.049)">
            <g id="Group_14293" data-name="Group 14293">
              <path id="Path_198485" data-name="Path 198485" d="M291.091,243.83a18.1,18.1,0,0,0-4.329,4.631c-1.1,2.151-5.412,4.713-5.261,5.1s4.11.616,5.4-.973a43.5,43.5,0,0,1,6.918-6.645c1.274-.671.219-.712.219-.712Z" transform="translate(-281.497 -243.83)" fill="#eea886"/>
            </g>
          </g>
          <g id="Group_14295" data-name="Group 14295" transform="translate(13.412)">
            <path id="Path_198486" data-name="Path 198486" d="M288.51,245.45a32.743,32.743,0,0,0,2.219-5.7c.164-1.37,4.11,1.521,1.082,7.412Z" transform="translate(-288.51 -239.415)" fill="#eea886"/>
          </g>
          <g id="Group_14297" data-name="Group 14297" transform="translate(14.714 12.042)">
            <g id="Group_14296" data-name="Group 14296">
              <path id="Path_198487" data-name="Path 198487" d="M291.282,248.253l-1.041,6.727h-.712l-.068-5.617S290.953,247.924,291.282,248.253Z" transform="translate(-289.46 -248.204)" fill="#222b70"/>
            </g>
          </g>
        </g>
        <g id="Group_14299" data-name="Group 14299" transform="translate(29.327 71.355)">
          <path id="Path_198488" data-name="Path 198488" d="M294.107,185.378s-4.713,22.838-6.206,28.469a112.437,112.437,0,0,0-3.055,17.3c-.178,3.3.9,6.617.986,8.357s2.48,32.88,2.48,32.88,5.357.726,6.028.219,4.329-25.537,3.082-35.387,1.151-12.672,4.466-17.3,8.85-22.18,8.686-24.249-2.74-25.5-2.74-25.5S297.655,157.033,294.107,185.378Z" transform="translate(-284.826 -167.131)" fill="#353a3d"/>
        </g>
        <g id="Group_14301" data-name="Group 14301" transform="translate(57.677 177.212)">
          <g id="Group_14300" data-name="Group 14300">
            <path id="Path_198489" data-name="Path 198489" d="M311.658,247.469s-3.562,6.014-5.055,7c-2.028,1.37-.767,2.74.206,2.74s5.9.356,6.987-.877,1.63-4.932,2.644-5.9,1.932-4.535-.493-5.754C313.275,243.3,311.658,247.469,311.658,247.469Z" transform="translate(-305.519 -244.398)" fill="#222b70"/>
          </g>
        </g>
        <g id="Group_14303" data-name="Group 14303" transform="translate(60.483 177.132)">
          <g id="Group_14302" data-name="Group 14302">
            <path id="Path_198490" data-name="Path 198490" d="M312.27,244.34s-3.863,7.549-4.562,8.59,1.37,1.041,2.576.548,4.494-5.48,4.85-6.466a5.479,5.479,0,0,0,.1-2.356Z" transform="translate(-307.567 -244.34)" fill="#eea886"/>
          </g>
        </g>
        <g id="Group_14305" data-name="Group 14305" transform="translate(68.022 181.434)">
          <g id="Group_14304" data-name="Group 14304">
            <path id="Path_198491" data-name="Path 198491" d="M314.508,247.48l-.945,7.22h-.493l.151-5.206Z" transform="translate(-313.07 -247.48)" fill="#222b70"/>
          </g>
        </g>
        <g id="Group_14306" data-name="Group 14306" transform="translate(64.952 170.096)">
          <path id="Path_198492" data-name="Path 198492" d="M311.063,246.24a17.906,17.906,0,0,0-.178-5.672c-.63-2.576,4.22-.712,4.22-.712a16.961,16.961,0,0,1-1.082,6.7C312.694,249.227,311.063,246.24,311.063,246.24Z" transform="translate(-310.829 -239.204)" fill="#eea886"/>
        </g>
        <g id="Group_14307" data-name="Group 14307" transform="translate(51.682 74.684)">
          <path id="Path_198493" data-name="Path 198493" d="M322.045,176.04s.534,20.029-.863,27.14-3.644,19.947-3.4,23.18a27.155,27.155,0,0,0,1.37,8.357c.6,1.562,2.959,13.577-.795,36.565l-4.836.219s-3.315-23.715-3.973-30.332-2.151-10.96-2.151-12.988-5.631-19.7-5.384-27.4-2.082-23.7,0-27.729C306.852,163.723,322.045,176.04,322.045,176.04Z" transform="translate(-301.143 -169.561)" fill="#353a3d"/>
        </g>
        <g id="Group_14308" data-name="Group 14308" transform="translate(39.554 34.707)">
          <path id="Path_198494" data-name="Path 198494" d="M310.4,140.38l5.918,45.964-24.03-.452,1.37-40.442,6.37-4.384.082,5.644,2.493-5.48,4.22,5.836Z" transform="translate(-292.29 -140.38)" fill="#ead8cf"/>
        </g>
        <g id="Group_14309" data-name="Group 14309" transform="translate(34.909 29.556)">
          <path id="Path_198495" data-name="Path 198495" d="M288.9,136.62s3.9.562,5.343,1.795,6.384,2.548,6.384,2.548l-8,4.288Z" transform="translate(-288.9 -136.62)" fill="#7782e5"/>
        </g>
        <g id="Group_14310" data-name="Group 14310" transform="translate(55.022 13.883)">
          <path id="Path_198496" data-name="Path 198496" d="M311.293,125.18s6.494.137,4.576,6.165-9,8.33-11.8,4.85S311.293,125.18,311.293,125.18Z" transform="translate(-303.581 -125.18)" fill="#3d3e52"/>
        </g>
        <g id="Group_14311" data-name="Group 14311" transform="translate(39.896 80.259)">
          <path id="Path_198497" data-name="Path 198497" d="M292.54,176.562s20.714.932,23.126.685-3.3-3.206-3.3-3.206l-18.358-.411Z" transform="translate(-292.54 -173.63)" fill="#4b5257"/>
        </g>
        <g id="Group_14312" data-name="Group 14312" transform="translate(43.577 1.072)">
          <path id="Path_198498" data-name="Path 198498" d="M301.012,116.707s-5.96,4.11-5.781,13.577,4.466,10.344,10.96,8.028,9.111-15.3,7.7-17.81S309.219,114.063,301.012,116.707Z" transform="translate(-295.227 -115.829)" fill="#eea886"/>
        </g>
        <g id="Group_14313" data-name="Group 14313" transform="translate(47.883 28.103)">
          <path id="Path_198499" data-name="Path 198499" d="M307.549,135.56a22.4,22.4,0,0,0,4.891,3.069c1.562.411,7.439,2.891,7.864,4.22s7.85,22.756,7.768,24-25.318,20-25.893,20-3.809-4.548-3.809-4.548l8.6-7.371s-2.069-11.344-2.48-15.892-.247-15.892.74-18.454C305.919,138.9,306.7,137.2,307.549,135.56Z" transform="translate(-298.37 -135.56)" fill="#ffa320"/>
        </g>
        <g id="Group_14314" data-name="Group 14314" transform="translate(57.391 65.285)">
          <path id="Path_198500" data-name="Path 198500" d="M318.667,162.7s-.274,6.686.384,8.919,4.11,21.03,4.384,21.687-10.179-.658-13.4-8.22a70.939,70.939,0,0,1-4.726-19.18C305.474,165,318.667,162.7,318.667,162.7Z" transform="translate(-305.31 -162.7)" fill="#ffa320"/>
        </g>
        <g id="Group_14315" data-name="Group 14315" transform="translate(31.895 29.008)">
          <path id="Path_198501" data-name="Path 198501" d="M302.688,136.22s-6.288,10.6-6.288,18.207,2.137,13,1.973,15.81-2.3,22.1-4.548,26.825a17.084,17.084,0,0,1-7.124,7.124s4.384-10.686,5.3-19.536-1.658-31.948-1.658-31.948.164-8.028,1.822-9.179,5.22-2.9,6.713-4.11S302.688,136.22,302.688,136.22Z" transform="translate(-286.7 -136.22)" fill="#ffa320"/>
        </g>
        <g id="Group_14316" data-name="Group 14316" transform="translate(57.391 54.38)">
          <path id="Path_198502" data-name="Path 198502" d="M305.31,167.344s9.727-8.932,10.111-9.247-.753-3.357-.753-3.357Z" transform="translate(-305.31 -154.74)" fill="#e56500"/>
        </g>
        <g id="Group_14317" data-name="Group 14317" transform="translate(42.554 29.008)">
          <path id="Path_198503" data-name="Path 198503" d="M299.809,136.22l-.562,6.384-4.768,5.206,2.74-9.371Z" transform="translate(-294.48 -136.22)" fill="#fff"/>
        </g>
        <g id="Group_14318" data-name="Group 14318" transform="translate(47.267 20.016)">
          <path id="Path_198504" data-name="Path 198504" d="M300.578,145.087l-2.548,5.59-.11-5.576.548-6.37s.493-.411.726-2.069a16.288,16.288,0,0,0,.206-2.425c-.082-4.535,0-1.137-.1-1.781-.438-5.151,8.439-1.617,8.439-1.617a19.262,19.262,0,0,0,0,6.85C308.469,140.621,300.578,145.087,300.578,145.087Z" transform="translate(-297.92 -129.657)" fill="#eea886"/>
        </g>
        <g id="Group_14319" data-name="Group 14319" transform="translate(37.704 59.106)">
          <path id="Path_198505" data-name="Path 198505" d="M295.283,158.19s5.37,6.124,5.713,6.85-10.056-4.754-10.056-4.754Z" transform="translate(-290.94 -158.19)" fill="#4d6ea3"/>
        </g>
        <g id="Group_14320" data-name="Group 14320" transform="translate(45.612 41.036)">
          <path id="Path_198506" data-name="Path 198506" d="M298.477,145c-.11.164-2.74,3.767-1.37,10.96,1.178,5.946,1.589,17.55,1.767,22.509,0,1.041.068,1.781.082,2.151h.48c0-.356,0-1.1-.082-2.137-.178-4.973-.6-16.618-1.781-22.591C296.285,148.822,298.477,145,298.477,145Z" transform="translate(-296.712 -145)" fill="#bdaea7"/>
        </g>
        <g id="Group_14321" data-name="Group 14321" transform="translate(26.073 61.148)">
          <path id="Path_198507" data-name="Path 198507" d="M282.45,160.118s.425,11.056,5.836,12.659,13.056,3.233,14.728,3.178,1.918.74,1.918.74a55.633,55.633,0,0,1-.37,7.083c-.37,1.671-2.822,5.644-2.288,7.439s6.425,4.11,7.508,2.74-1.808-3.781-2.3-4.466,3.6-11.316,4.11-14.125,1.466-7.85-3.713-9.96-13.083-5.727-13.083-5.727Z" transform="translate(-282.45 -159.68)" fill="#5b83c2"/>
        </g>
        <g id="Group_14322" data-name="Group 14322" transform="translate(20.438 12.771)">
          <path id="Path_198508" data-name="Path 198508" d="M283.013,124.453s-4.836,3-4.672,8.138,3.4,10.056,9.152,9.015,5-9.261,5.316-10.343S292.617,123.549,283.013,124.453Z" transform="translate(-278.337 -124.368)" fill="#eea886"/>
        </g>
        <g id="Group_14323" data-name="Group 14323" transform="translate(26.391 26.262)">
          <path id="Path_198509" data-name="Path 198509" d="M291.2,137.509c-2.672,8.439-8.809,1.754-8.508,1.74.068,0,.11-.1.151-.219a5.626,5.626,0,0,0,.1-1.069v-.493s6.918-4.795,6.946-2.74a2.959,2.959,0,0,0,1.315,2.781Z" transform="translate(-282.682 -134.216)" fill="#eea886"/>
        </g>
        <g id="Group_14325" data-name="Group 14325" transform="translate(44.479)">
          <path id="Path_198511" data-name="Path 198511" d="M310.208,135.094a13.7,13.7,0,0,0-1.219-5.3c-1.082-1.617-.192-1.055-2.425-2.74s-9.974-.849-10.617-3.041,3.754-11.659,13.015-8.22S315.551,129.655,310.208,135.094Z" transform="translate(-295.885 -115.047)" fill="#3d3e52"/>
        </g>
        <g id="Group_14326" data-name="Group 14326" transform="translate(56.333 10.824)">
          <path id="Path_198512" data-name="Path 198512" d="M305.322,123.882c.48-.918,2.658-1.685,2.9.37s-1.795,3.891-3.082,3.644S304.966,124.554,305.322,123.882Z" transform="translate(-304.537 -122.948)" fill="#eea886"/>
        </g>
        <g id="Group_14327" data-name="Group 14327" transform="translate(30.569 19.322)">
          <path id="Path_198513" data-name="Path 198513" d="M285.99,129.876c.123-.466,1.534-1.37,2.11,0s-.795,3.466-1.822,2.562S285.99,129.876,285.99,129.876Z" transform="translate(-285.732 -129.15)" fill="#eea886"/>
        </g>
        <g id="Group_14328" data-name="Group 14328" transform="translate(20.078 29.488)">
          <path id="Path_198514" data-name="Path 198514" d="M292.906,136.638c.137-.288,1.754.315,3.206,2.48a16.55,16.55,0,0,1,2.247,6.576c.192,1.178-2.123,8.069-.466,11.988s2.576,5.275,2.151,8.494-15.33,3.48-16.262,2.37-3.973-9.59-3.795-16.084-2.288-7.823-1.863-8.384,5.658-6.206,6.275-5.7S290.042,142.639,292.906,136.638Z" transform="translate(-278.074 -136.571)" fill="#92a7f4"/>
        </g>
        <g id="Group_14329" data-name="Group 14329" transform="translate(0 36.957)">
          <path id="Path_198515" data-name="Path 198515" d="M283.053,152.308c-4.357,1.795-9.987,3.3-12.029,4.411a2.479,2.479,0,0,0-.63.438c-1.055,1.11-2.863,3.9-5.028,4.028s-2.74-2.74-.617-5.206-1.439-1.74.425-2.74,3.11.534,4.59-.137a2.289,2.289,0,0,0,.315-.164c1.617-1.055,6.96-4.658,9.316-5.781s2.233-4.11,4.11-5.083c0,0,4.028-.685,4.274,2.973S288.026,150.212,283.053,152.308Z" transform="translate(-263.419 -142.023)" fill="#ff9f7a"/>
        </g>
        <g id="Group_14331" data-name="Group 14331" transform="translate(33.18 73.269)">
          <path id="Path_198517" data-name="Path 198517" d="M302.615,170.545a1.959,1.959,0,0,1-1.85.507c-1.288-.205-3.274-2.439-4.466-2.521s.863,1.37.9,2.028.452,1.069-.534,1.069-6.206-2.356-7.288-2.192-.37.644-.37.644-1.233-.356-1.37.48,4.891,3.85,5.48,3.973a18.357,18.357,0,0,0,7.864.37l5.055-1.37Z" transform="translate(-287.638 -168.528)" fill="#eea886"/>
        </g>
        <g id="Group_14332" data-name="Group 14332" transform="translate(47.883 66.984)">
          <path id="Path_198518" data-name="Path 198518" d="M298.37,171.831s3.178,4.672,3.809,4.548,13.947-10.193,13.947-10.193l-8.22-2.247-.9.521Z" transform="translate(-298.37 -163.94)" fill="#ffa320"/>
        </g>
        <g id="Group_14333" data-name="Group 14333" transform="translate(48.596 22.829)">
          <path id="Path_198519" data-name="Path 198519" d="M306.411,131.71s-1.959,3.22-7.521,4.11h0a16.781,16.781,0,0,0,.151-2.343,14.522,14.522,0,0,0,7.371-1.767Z" transform="translate(-298.89 -131.71)" fill="#a77860"/>
        </g>
        <g id="Group_14334" data-name="Group 14334" transform="translate(26.552 27.994)">
          <path id="Path_198520" data-name="Path 198520" d="M289.143,135.48s-.548,3.6-6.343,3.083a5.626,5.626,0,0,0,.1-1.069S287.033,138.384,289.143,135.48Z" transform="translate(-282.8 -135.48)" fill="#a77860"/>
        </g>
        <path id="Path_198521" data-name="Path 198521" d="M280.257,153.21a6.535,6.535,0,0,0-.685,5.247c.932,2.85,3.863,4.37,3.85,3.959S280.778,155.662,280.257,153.21Z" transform="translate(-257.541 -100.926)" fill="#eea886"/>
        <g id="Group_14335" data-name="Group 14335" transform="translate(49.924 28.103)">
          <path id="Path_198522" data-name="Path 198522" d="M307,135.56l-7.138,7.357,4.22,5.822,5.891-11.056Z" transform="translate(-299.86 -135.56)" fill="#fff"/>
        </g>
        <path id="Path_187885" data-name="Path 187885" d="M304.663,127.239a1.247,1.247,0,1,0,1.1-1.548,1.26,1.26,0,0,0-1.137,1.37Z" transform="translate(-248.176 -111.11)" fill="#fff"/>
        <path id="Path_186869-2" data-name="Path 186869-2" d="M295.66,125.46a11.864,11.864,0,0,1-1.37,4.7,4.028,4.028,0,0,0,2.863.753Z" transform="translate(-251.996 -111.194)" fill="#eea886"/>
        <path id="Path_186869-3" data-name="Path 186869-3" d="M278.58,132.24a13.7,13.7,0,0,1,0,3.507,3.356,3.356,0,0,0,2.343-.069Z" transform="translate(-257.809 -108.685)" fill="#eea886"/>
        <path id="Path_186830" data-name="Path 186830" d="M292.228,134.184s-1.37-3.247-6.85-2.973-6.014.315-7.467-1.918,1.082-4.658,1.082-4.658a27.975,27.975,0,0,1,12.864.466C296.557,126.566,299.585,133.759,292.228,134.184Z" transform="translate(-258.223 -111.697)" fill="#963815"/>
      </g>
      <g id="Group_14899" data-name="Group 14899" transform="translate(217.599 148.009)">
        <g id="Group_14341" data-name="Group 14341" transform="translate(8.349 181.995)">
          <g id="Group_5823" data-name="Group 5823" transform="translate(35.921)">
            <g id="Group_5822" data-name="Group 5822">
              <path id="Path_187012" data-name="Path 187012" d="M150.127,247.74S163.252,255,167.581,255.1s1.137,1.9-3.576,2.343c-3.74.342-11.207-.726-15.563-1.548a6.44,6.44,0,0,1-1.37-1.137l-.3,1.027a13.96,13.96,0,0,1-2.26-.178,48.385,48.385,0,0,1,.932-7.823Z" transform="translate(-144.51 -244.233)" fill="#003d57"/>
              <g id="Group_5821" data-name="Group 5821" transform="translate(0.781)">
                <path id="Path_187013" data-name="Path 187013" d="M149.916,248.687l-.178-3.507-4.658.233.164,3.247Z" transform="translate(-145.08 -245.18)" fill="#ffb780"/>
              </g>
            </g>
          </g>
          <g id="Group_5827" data-name="Group 5827" transform="translate(0 1.466)">
            <g id="Group_5826" data-name="Group 5826">
              <path id="Path_187017" data-name="Path 187017" d="M123.88,248.827s13.152,7.22,17.467,7.288,1.123,1.9-3.589,2.343c-3.726.343-11.193-.74-15.549-1.562a6.85,6.85,0,0,1-1.37-1.123l-.288,1.027a13.988,13.988,0,0,1-2.26-.192,46.925,46.925,0,0,1,.932-7.809Z" transform="translate(-118.29 -245.307)" fill="#005479"/>
              <g id="Group_5825" data-name="Group 5825" transform="translate(0.753)">
                <path id="Path_187018" data-name="Path 187018" d="M123.676,249.771l-.178-3.521-4.658.233L119,249.73Z" transform="translate(-118.84 -246.25)" fill="#ffb780"/>
              </g>
            </g>
          </g>
        </g>
        <g id="Group_14288" data-name="Group 14288">
          <g id="Group_14273" data-name="Group 14273" transform="translate(75.671 48.61)">
            <g id="Group_14272" data-name="Group 14272">
              <g id="Group_14271" data-name="Group 14271">
                <path id="Path_198432" data-name="Path 198432" d="M167.43,155.4s2.356-.74,2.548-2.137a7.864,7.864,0,0,1,1.548-3.028c.438-.589,1.11-2.877,1.863-2.329s-.932,3.836-1.151,4.59,3-.685,3.809-.493,2.877,5.672.562,6.412-5.288,0-5.672.192a15.242,15.242,0,0,1-1.671.6Z" transform="translate(-167.43 -147.819)" fill="#eea886"/>
              </g>
            </g>
          </g>
          <g id="Group_14276" data-name="Group 14276" transform="translate(83.699 51.307)">
            <g id="Group_14275" data-name="Group 14275">
              <g id="Group_14274" data-name="Group 14274">
                <path id="Path_198433" data-name="Path 198433" d="M173.29,151.312s7.261-1.781,7.85-1.493.658.685,0,.877-6.973,1.932-6.973,1.932,8.946-.671,9.48-.534c.315.069.493.836.151.973s-9.179,1.3-9.179,1.3,8.357-.6,8.768-.356a.575.575,0,0,1,.137.795.616.616,0,0,1-.4.247l-8.343,1.082s6.11,0,6.329.356.342.89-1.247.863-5.3.274-5.3.274Z" transform="translate(-173.29 -149.787)" fill="#eea886"/>
              </g>
            </g>
          </g>
          <g id="Group_14277" data-name="Group 14277" transform="translate(36.865 33.827)">
            <path id="Path_198434" data-name="Path 198434" d="M181.815,165.335s-20.317,4.494-24.359,3.507c-1.863-.466-4.329-3.041-6.672-6.069-.767-1-1.521-2.055-2.247-3.1h0c-2.863-4.11-5.11-8.11-5.11-8.11s-8.48-9.932-1.685-14.371a4.535,4.535,0,0,1,4.74,1.507,43.99,43.99,0,0,1,5.48,8.823c.589,1.288,8.919,13.3,9.357,13.577s4.11-.685,6.987-.932a64.307,64.307,0,0,0,11.878-2.822Z" transform="translate(-139.105 -137.028)" fill="#fff"/>
          </g>
          <g id="Group_14279" data-name="Group 14279" transform="translate(43.388 181.132)">
            <path id="Path_198436" data-name="Path 198436" d="M150.488,245.482a12.674,12.674,0,0,1,.356,1.589c-.069,0-7.193.822-6.973-.411.178-1.014.425-2.11.425-2.11Z" transform="translate(-143.866 -244.55)" fill="#2f6b8c"/>
          </g>
          <g id="Group_14281" data-name="Group 14281" transform="translate(8.047 182.324)">
            <path id="Path_198438" data-name="Path 198438" d="M124.824,246.023a12.217,12.217,0,0,1,.1,1.589s-6.85,1.233-6.85,0a9.288,9.288,0,0,1,.438-2.192Z" transform="translate(-118.07 -245.42)" fill="#2f6b8c"/>
          </g>
          <g id="Group_14282" data-name="Group 14282" transform="translate(5.992 82.394)">
            <path id="Path_198439" data-name="Path 198439" d="M153.4,179.344s3.3,23.975,4.644,32.072c1.576,9.467,2.11,17.3,2.562,22.208.548,6.165,1.274,37.73,1.671,39.525s-9.59.863-9.59.863-5.233-41.1-6.85-47.717c-1.534-6.11-6-32.524-7.4-30.852s-5.686,31.592-6.713,36.415-3.822,42.8-3.822,42.8-9.426,1.507-11.33,0c0,0,1.493-33.866,2.151-42.908.247-3.439-2.178-41.251,3.644-56.513C125.379,167.179,153.4,179.344,153.4,179.344Z" transform="translate(-116.57 -172.478)" fill="#2f4563"/>
          </g>
          <path id="Path_198440" data-name="Path 198440" d="M143.161,135.53s8.727,1.808,9.768,2.74,3.11,10.535,3.22,13.193a101.38,101.38,0,0,1-2.178,17.947c-1.123,4.11-.918,24.55-.205,30.291,0,0-17.577,5-34.867,2.74,0,0,2.891-21.468,2.206-27.153-.891-7.275-3.014-24.03-3.014-24.03s1.534-11.672,3.069-12.974,12.138-2.74,12.138-2.74Z" transform="translate(-110.015 -103.755)" fill="#bcc0cf"/>
          <path id="Path_198441" data-name="Path 198441" d="M136.091,115.954s10.508-3.877,9.85,10.083-3.124,15.371-10.028,13.426-7.494-10.768-8.4-15.07S132.652,116.57,136.091,115.954Z" transform="translate(-106.562 -111.181)" fill="#eea886"/>
          <path id="Path_198442" data-name="Path 198442" d="M140.6,140.789s-2.165,1.37-10.357-2.178a37.387,37.387,0,0,0-1.37-10.878c-1.6-5.247,10.96,7,10.96,7a4.147,4.147,0,0,0-.082,1.37,14.7,14.7,0,0,0,.411,2.165,5.343,5.343,0,0,1,.438,2.521Z" transform="translate(-106.08 -107.124)" fill="#eea886"/>
          <path id="Path_198444" data-name="Path 198444" d="M139.624,136.7c-8.22-1.37-9.357-6-9.385-6.069,3.165,4.11,8.974,3.9,8.974,3.9A14.7,14.7,0,0,0,139.624,136.7Z" transform="translate(-105.52 -105.568)" fill="#a77860"/>
          <path id="Path_198445" data-name="Path 198445" d="M137.247,138.25s1.48,2.192,2.384,7.8a118.672,118.672,0,0,1,.74,15.289l-2.055.247s-3.124-19.728-2.589-23.167Z" transform="translate(-103.512 -102.749)" fill="#434343"/>
          <path id="Path_198447" data-name="Path 198447" d="M145.537,138.123s5.069,6.549,3.233,23.728c-3.329,31.03,5.37,80.83,5.37,80.83l-8.973,2.809s-8.576-63.678-6.384-86.789c.986-10.535,3.946-14.042-.712-22.81A17.55,17.55,0,0,1,145.537,138.123Z" transform="translate(-102.623 -103.622)" fill="#fff"/>
          <path id="Path_198448" data-name="Path 198448" d="M131.637,135.79s14.207,14.344,15.317,25.222,2.918,84.529,2.918,84.529l-33.812-1.973s3.11-38.881,3.877-43.744,2.329-32.784-1.1-45.744c-1.85-6.96.342-15.8,4.548-16.755S131.637,135.79,131.637,135.79Z" transform="translate(-110.766 -103.659)" fill="#fff"/>
          <path id="Path_198449" data-name="Path 198449" d="M127.412,137.236s5.48,1.507,2.466,11.535c-2.356,7.864-2.74,9.59-2.74,9.59l-12.618-3.151s3.7-17.276,9.741-18.207a6.85,6.85,0,0,1,3.151.233Z" transform="translate(-111.336 -103.242)" fill="#dbdff0"/>
          <path id="Path_198450" data-name="Path 198450" d="M152.948,167.859,132.48,196.985l-18.7-13.138L133.522,154.2Z" transform="translate(-111.61 -96.847)" fill="#616161"/>
          <path id="Path_198451" data-name="Path 198451" d="M150.148,168.056l-18.194,25.866-16.6-11.672L132.886,156Z" transform="translate(-111.029 -96.181)" fill="#e0cec7"/>
          <path id="Path_198452" data-name="Path 198452" d="M138.543,164.395l1.288-1.808-6.713-4.726-1.548,1.63Z" transform="translate(-105.028 -95.493)" fill="#616161"/>
          <g id="Group_14287" data-name="Group 14287" transform="translate(23.939 80.506)">
            <g id="Group_14286" data-name="Group 14286">
              <g id="Group_14285" data-name="Group 14285">
                <g id="Group_14284" data-name="Group 14284">
                  <g id="Group_14283" data-name="Group 14283">
                    <path id="Path_198453" data-name="Path 198453" d="M137.315,181.211a3.713,3.713,0,0,1-1.151-.274s-.575-.411-1.014-.685l-.342-.192a6.7,6.7,0,0,1-1.9-1.014,48.4,48.4,0,0,1-3.233-4.11l1.493-1.877,1.151-1.959a46.181,46.181,0,0,1,6.535,1.37,1.369,1.369,0,0,1,.205.151,8.919,8.919,0,0,1,1.123,1.37c.11.11,1.069,1.233.986,1.671a1.37,1.37,0,0,1-.808,1.137,3.37,3.37,0,0,1-.891,1.685,2.123,2.123,0,0,1-1.164,1.48S137.972,181.115,137.315,181.211Z" transform="translate(-129.67 -171.1)" fill="#eea886"/>
                  </g>
                </g>
              </g>
            </g>
          </g>
          <path id="Path_198454" data-name="Path 198454" d="M130.067,134.18a26.03,26.03,0,0,0,8.521,3.165l-2.247,3.6-7.151-4.918Z" transform="translate(-105.908 -104.255)" fill="#a7aab8"/>
          <path id="Path_198455" data-name="Path 198455" d="M137.46,135.06a3.672,3.672,0,0,1-1.37,1.959l2.124,2.959-.082-3.918Z" transform="translate(-103.355 -103.929)" fill="#a7aab8"/>
          <path id="Path_198456" data-name="Path 198456" d="M136.511,136.49l1.671,2.343s-1.055,1.37-3.343.329Z" transform="translate(-103.818 -103.4)" fill="#434343"/>
          <path id="Path_198457" data-name="Path 198457" d="M148.247,159.273h0c-.781-1-1.534-2.041-2.247-3.082h0s.274-7.562,0-9.741C146,146.45,148.493,154.6,148.247,159.273Z" transform="translate(-99.689 -99.715)" fill="#a7aab8"/>
          <path id="Path_198458" data-name="Path 198458" d="M123.378,152.15s-1.644,10.741-1.521,11.426S114.391,161.411,123.378,152.15Z" transform="translate(-109.686 -97.606)" fill="#a7aab8"/>
          <path id="Path_198459" data-name="Path 198459" d="M128.915,137.758c1.151.438,1.589,2.466,1.11,8.357a19.851,19.851,0,0,1-3.315,9.974c-.767,1.37-5.028,9.754-4.261,10.864s7.987,8.22,8.412,8.809,8.48,7.878,8.48,7.878l-4.11,5.74s-17.413-13.6-18.769-14.96-5.48-4.22-3.918-8.96,4.274-16.111,4.754-16.988S121.353,134.826,128.915,137.758Z" transform="translate(-112.196 -103.092)" fill="#fff"/>
          <rect id="Rectangle_8332" data-name="Rectangle 8332" width="3.987" height="6.083" transform="translate(39.503 50.708)" fill="#c6cad9"/>
          <path id="Path_198523" data-name="Path 198523" d="M131.269,126.439c.836-.206,1.507-.479,1.822.288.178.4,1.493,4.891,1.493,4.891a18.2,18.2,0,0,1,.589-2.411,12.126,12.126,0,0,0-.178-2.987l-.233-2.836a3.685,3.685,0,0,1,.438-2.658,2.946,2.946,0,0,1,1.165-.836,10.549,10.549,0,0,1,4.836-.6c1.644.1,3.3.356,4.946.288a5.3,5.3,0,0,0,2.014-.37,3.521,3.521,0,0,0,1.945-2.343,5.289,5.289,0,0,0-.233-3.055,4.783,4.783,0,0,1-.712.863,3.739,3.739,0,0,0-.548-1.438c-1.041,2.219-11.659-1.26-14.44-.863-1.932.288-3.48.384-4.11,2.987a.932.932,0,0,1-.438.315,7.206,7.206,0,0,0-3.726,4.617c-.945,2.74.11,6.371,1.37,9.179a5.932,5.932,0,0,0,.973,1.781,3.946,3.946,0,0,0,2.384,1.137c.808,0,2.329.507,2.521-.219.151-.507-.836-1.726-1.069-2.233" transform="translate(-107.261 -112.337)" fill="#411809"/>
          <path id="Path_198446" data-name="Path 198446" d="M131.748,123.212c-.466-1.233-3.083-1.069-2.74.877s2.425,4.959,3.3,4.384S132.324,124.842,131.748,123.212Z" transform="translate(-105.987 -108.603)" fill="#eea886"/>
          <path id="Path_186869" data-name="Path 186869" d="M141.1,124a31.592,31.592,0,0,0,2.548,4.74,5.548,5.548,0,0,1-3.4.767Z" transform="translate(-101.816 -108.021)" fill="#eea886"/>
        </g>
      </g>
    </g>
  </g>
</svg>
