<svg xmlns="http://www.w3.org/2000/svg" width="540.016" height="330" viewBox="0 0 540.016 330">
  <g id="Group_22022" data-name="Group 22022" transform="translate(-1570.984 -8848)">
    <g id="industryReal_estate" data-name="industryReal estate" transform="translate(1472.542 8801.356)">
      <path id="Path_200063" data-name="Path 200063" d="M216.107,5.116c103.72,0,110.6-9.747,172.974-5.143S503.162,33.021,459.9,44.1c-20.685,5.3-81.345-8.37-188.492-4.227s-161,23.036-236.655,16.571c-32.986-2.819-79.557-32.607-60.8-44.668S112.387,5.113,216.107,5.116Z" transform="translate(143.816 318.867)" fill="#fda1a1" opacity="0.35"/>
      <path id="Path_195797" data-name="Path 195797" d="M299.59,135.92V159.9l52.692,17.674V158.211Z" transform="translate(110.873 49.896)" fill="#c0e6ff"/>
      <g id="Group_22005" data-name="Group 22005" transform="translate(98.458 46.644)">
        <path id="Path_195784" data-name="Path 195784" d="M556.174,275.358l15.582-49.538-34.082-14.706,3.358-65.107L227.694,103.391v43.055l-42.421,3.821L186.3,72.31l-53.378,3.6L60.53,110.341,84.835,291.126l507.043,3.666,8.652-8.195Z" transform="translate(-60.53 -30.449)" fill="#e9b685" opacity="0.67"/>
        <path id="Path_195793" data-name="Path 195793" d="M278.822,57.89,200.87,89.418V208.449H332.226V87.1Z" transform="translate(-16.675 -36.526)" fill="#bb926b"/>
        <path id="Path_195824" data-name="Path 195824" d="M200.87,109.316v16.56l76.943-33.29,56.318,19.46V98.428L277.273,79.48Z" transform="translate(-16.674 -27.654)" fill="#dbb38c"/>
        <path id="Path_195837" data-name="Path 195837" d="M277.792,42.86,200.92,76.975v27.007L276.6,72.056,332.276,94.97V65.12Z" transform="translate(-16.654 -42.86)" fill="#dbb38c"/>
        <path id="Path_195795" data-name="Path 195795" d="M123,193.464v72.493H369.465V144.581l-53.4-29.211Z" transform="translate(-49.765 -13.256)" fill="#bb926b"/>
        <path id="Path_195796" data-name="Path 195796" d="M111.645,192.658,319.973,100.35l54.47,22.246v29.85l-55.664-22.928L143.372,203.433v9.822l176-60.809,55.067,18.337v12.111l-54.47-17.342-176.6,55.919.6,8.529,176.6-41.9,53.873,13.092v13.418L320.57,204.456,143.969,237.5l-.6,9.5,177.2-20.3,53.873,5.245v13.092l-55.664-3.6L143.372,255.188v9.822H374.443v15.053H111.19Z" transform="translate(-54.742 -19.586)" fill="#dbb38c"/>
        <path id="Path_195789" data-name="Path 195789" d="M299.59,157.26v24.008l54.669,13.091V173.848Z" transform="translate(25.062 4.672)" fill="#dbb38c"/>
        <path id="Path_195790" data-name="Path 195790" d="M299.59,179.22v23.354l54.669,6.112V190.35Z" transform="translate(25.062 13.823)" fill="#dbb38c"/>
        <path id="Path_195791" data-name="Path 195791" d="M299.59,201.18v23.781l54.669.426v-19.63Z" transform="translate(25.062 22.907)" fill="#dbb38c"/>
        <path id="Path_195830" data-name="Path 195830" d="M111.489,75.937l-.3,111.6,52.594-22.871,1.023-92.394Z" transform="translate(-39.179 -30.732)" fill="#dbb38c"/>
        <path id="Path_195825" data-name="Path 195825" d="M186.1,94.27,158.77,105.812v34.115L186.1,137.51Z" transform="translate(-18.962 -21.511)" fill="#dbb38c"/>
        <g id="Group_10797" data-name="Group 10797" transform="translate(53.514 98.111)" opacity="0.47">
          <path id="Path_195499" data-name="Path 195499" d="M200.4,133.15l-18.551,8.22L139.88,184.1l17.879-7.535Z" transform="translate(-100.587 -98.378)" fill="#bb926b"/>
          <path id="Path_195500" data-name="Path 195500" d="M111.29,218.629l40.019-40.773-9.138,3.165V176.5l-30.826,31.388Z" transform="translate(-111.167 -82.336)" fill="#bb926b"/>
          <path id="Path_195501" data-name="Path 195501" d="M184.919,164.827l44.088-44.9-12.33,5.48L173,169.855Z" transform="translate(-88.331 -103.27)" fill="#bb926b"/>
          <path id="Path_195502" data-name="Path 195502" d="M159.222,181.973l13.07-13.3-10.59,3.658L149.07,185.193Z" transform="translate(-97.186 -85.234)" fill="#bb926b"/>
          <path id="Path_195503" data-name="Path 195503" d="M111.2,237.759l31.237-31.785.384-6.1,6.85-1.288,9.741-9.919-9.111,2.165-39.047,39.732Z" transform="translate(-111.2 -77.833)" fill="#bb926b"/>
          <path id="Path_195504" data-name="Path 195504" d="M212.983,154.037l45.431-46.267-18.55,8.22-44.773,45.6Z" transform="translate(-80.156 -107.77)" fill="#bb926b"/>
          <path id="Path_195505" data-name="Path 195505" d="M127.262,233.21l14.249-14.523h-1.37V209.44L116.85,233.21Z" transform="translate(-109.109 -70.147)" fill="#bb926b"/>
          <path id="Path_195506" data-name="Path 195506" d="M145.344,211.147l9.193-9.357-11.81,1.37L134,212.038Z" transform="translate(-102.763 -72.978)" fill="#bb926b"/>
          <path id="Path_195507" data-name="Path 195507" d="M161.739,195.484l11.4-11.6-13.7,3.233L148.86,197.882Z" transform="translate(-97.264 -79.605)" fill="#bb926b"/>
          <path id="Path_195508" data-name="Path 195508" d="M183.1,175.21l14.4-14.66-15.879,5.48-13.7,14Z" transform="translate(-90.211 -88.239)" fill="#bb926b"/>
          <path id="Path_195509" data-name="Path 195509" d="M149.394,154.53,111.43,193.193v7.165l50.377-51.309Z" transform="translate(-111.115 -92.494)" fill="#bb926b"/>
        </g>
      </g>
      <rect id="Rectangle_8817" data-name="Rectangle 8817" width="123.113" height="120.825" transform="translate(469.417 108.433) rotate(90)" fill="#3e89cc"/>
      <rect id="Rectangle_8818" data-name="Rectangle 8818" width="116.181" height="118.469" transform="translate(350.907 110.744)" fill="#fff"/>
      <rect id="Rectangle_8819" data-name="Rectangle 8819" width="5.179" height="0.438" transform="translate(366.085 149.522)" fill="#5b007c"/>
      <rect id="Rectangle_8820" data-name="Rectangle 8820" width="16.139" height="0.438" transform="translate(355.132 134.29)" fill="#5b007c"/>
      <rect id="Rectangle_8821" data-name="Rectangle 8821" width="15.673" height="0.438" transform="translate(355.131 173.333)" fill="#5b007c"/>
      <rect id="Rectangle_8822" data-name="Rectangle 8822" width="0.151" height="39.156" transform="translate(368.03 134.475)" fill="#5b007c"/>
      <rect id="Rectangle_8823" data-name="Rectangle 8823" width="0.151" height="39.156" transform="translate(364.038 134.475)" fill="#5b007c"/>
      <rect id="Rectangle_8824" data-name="Rectangle 8824" width="0.151" height="39.156" transform="translate(361.542 134.475)" fill="#5b007c"/>
      <rect id="Rectangle_8825" data-name="Rectangle 8825" width="0.151" height="39.156" transform="translate(359.471 134.475)" fill="#5b007c"/>
      <rect id="Rectangle_8826" data-name="Rectangle 8826" width="0.151" height="39.156" transform="translate(356.741 134.475)" fill="#5b007c"/>
      <rect id="Rectangle_8827" data-name="Rectangle 8827" width="66.407" height="0.151" transform="translate(371.323 132.719)" fill="#5b007c"/>
      <rect id="Rectangle_8828" data-name="Rectangle 8828" width="83.121" height="0.151" transform="translate(371.185 130.861)" fill="#5b007c"/>
      <rect id="Rectangle_8829" data-name="Rectangle 8829" width="83.094" height="0.151" transform="translate(371.226 128.498)" fill="#5b007c"/>
      <rect id="Rectangle_8830" data-name="Rectangle 8830" width="36.457" height="0.151" transform="translate(370.836 190.723)" fill="#5b007c"/>
      <rect id="Rectangle_8831" data-name="Rectangle 8831" width="66.872" height="0.151" transform="translate(370.857 192.882)" fill="#5b007c"/>
      <rect id="Rectangle_8832" data-name="Rectangle 8832" width="66.872" height="0.151" transform="translate(370.857 197.281)" fill="#5b007c"/>
      <rect id="Rectangle_8833" data-name="Rectangle 8833" width="82.559" height="0.151" transform="translate(370.869 199.781)" fill="#5b007c"/>
      <rect id="Rectangle_8834" data-name="Rectangle 8834" width="0.151" height="27.483" transform="translate(398.643 173.519)" fill="#5b007c"/>
      <rect id="Rectangle_8835" data-name="Rectangle 8835" width="0.151" height="10.029" transform="translate(407.229 181.627)" fill="#5b007c"/>
      <rect id="Rectangle_8836" data-name="Rectangle 8836" width="0.151" height="19.236" transform="translate(412.963 174.854)" fill="#5b007c"/>
      <rect id="Rectangle_8837" data-name="Rectangle 8837" width="0.151" height="14.07" transform="translate(419.725 179.996)" fill="#5b007c"/>
      <rect id="Rectangle_8838" data-name="Rectangle 8838" width="0.151" height="14.07" transform="translate(427.296 179.996)" fill="#5b007c"/>
      <rect id="Rectangle_8839" data-name="Rectangle 8839" width="0.151" height="22.359" transform="translate(437.679 175.779)" fill="#5b007c"/>
      <rect id="Rectangle_8840" data-name="Rectangle 8840" width="0.151" height="26.168" transform="translate(370.732 174.845)" fill="#5b007c"/>
      <rect id="Rectangle_8841" data-name="Rectangle 8841" width="0.151" height="34.265" transform="translate(453.397 166.749)" fill="#5b007c"/>
      <rect id="Rectangle_8842" data-name="Rectangle 8842" width="0.438" height="3.096" transform="translate(419.162 124.315)" fill="#5b007c"/>
      <rect id="Rectangle_8843" data-name="Rectangle 8843" width="11.33" height="0.151" transform="translate(419.924 125.779)" fill="#5b007c"/>
      <path id="Path_199244" data-name="Path 199244" d="M306.709,92.181a1.055,1.055,0,0,1,.233.671,1.89,1.89,0,0,0-.822-.671,2.068,2.068,0,0,0,.822-.671,1.11,1.11,0,0,1-.233.671Z" transform="translate(113.262 33.695)" fill="#5b007c"/>
      <rect id="Rectangle_8844" data-name="Rectangle 8844" width="5.508" height="0.438" transform="translate(363.63 156.502)" fill="#5b007c"/>
      <rect id="Rectangle_8845" data-name="Rectangle 8845" width="8.453" height="0.438" transform="translate(360.682 159.125)" fill="#5b007c"/>
      <rect id="Rectangle_8846" data-name="Rectangle 8846" width="11.495" height="0.438" transform="translate(358.215 164.508)" fill="#5b007c"/>
      <rect id="Rectangle_8847" data-name="Rectangle 8847" width="0.438" height="6.193" transform="translate(371.047 127.4)" fill="#5b007c"/>
      <rect id="Rectangle_8848" data-name="Rectangle 8848" width="0.151" height="6.193" transform="translate(454.275 127.4)" fill="#5b007c"/>
      <rect id="Rectangle_8849" data-name="Rectangle 8849" width="0.151" height="4.124" transform="translate(437.679 129.847)" fill="#5b007c"/>
      <rect id="Rectangle_8850" data-name="Rectangle 8850" width="0.151" height="4.124" transform="translate(412.044 129.451)" fill="#5b007c"/>
      <rect id="Rectangle_8851" data-name="Rectangle 8851" width="7.302" height="1.151" transform="translate(423.954 123.169)" fill="#5b007c"/>
      <rect id="Rectangle_8852" data-name="Rectangle 8852" width="23.387" height="1.48" transform="translate(425.337 203.536)" fill="#5b007c"/>
      <rect id="Rectangle_8853" data-name="Rectangle 8853" width="12.358" height="1.178" transform="translate(433.998 206.473)" fill="#5b007c"/>
      <path id="Path_199245" data-name="Path 199245" d="M270.85,97.78v39.9H273.4v-2.356h-.192V114.974h.274v-2.356h-.274V100.136h6.85v12.481h-3.685v2.356h14.276v6.48h5.672V135.32H276.741v2.356h35.621l7.083,5.823h7.782l6.549-5.083H337.5V100.136h14.523v28.689h2.356V97.78Zm27.826,17.194h11.276v8.4H298.676Zm0-2.356V100.136H303.4v12.481Zm11.276,0h-5.371V100.136h5.371ZM281.18,100.136h15.071v12.481H281.18Zm10.6,20.14v-5.3h4.494v5.3Zm6.85,15.071V124.578H309.91v10.769Zm36.485.74h-2.165l-6.563,5.083h-6.015l-7.07-5.823h-.932v-35.21h22.839Z" transform="translate(100.212 35.951)" fill="#3f3c43"/>
      <path id="Path_199246" data-name="Path 199246" d="M276.1,131.63v2.357h28.922l7.261,5.864,1.48-1.836-7.919-6.384Z" transform="translate(102.13 48.374)" fill="#3f3c43"/>
      <rect id="Rectangle_8854" data-name="Rectangle 8854" width="70.571" height="3.329" transform="translate(366.429 223.232)" fill="#f7b28b"/>
      <rect id="Rectangle_8855" data-name="Rectangle 8855" width="45.335" height="3.398" transform="translate(398.674 215.5)" fill="#f7b28b"/>
      <rect id="Rectangle_8856" data-name="Rectangle 8856" width="60.666" height="2.398" transform="translate(362.196 113.811)" fill="#f7b28b"/>
      <rect id="Rectangle_8857" data-name="Rectangle 8857" width="249.939" height="7.878" transform="translate(240.417 222.828)" fill="#3e2720"/>
      <path id="Path_199247" data-name="Path 199247" d="M186.43,264.579V168.73h7.083v95.849" transform="translate(68.789 61.216)" fill="#3e2720"/>
      <path id="Path_199248" data-name="Path 199248" d="M343.75,264.579V168.73h7.083v95.849" transform="translate(127.249 61.216)" fill="#3e2720"/>
      <path id="Path_199249" data-name="Path 199249" d="M335.47,264.935V168.73h7.083v96.205" transform="translate(124.172 61.214)" fill="#3e2720"/>
      <path id="Path_199250" data-name="Path 199250" d="M197.93,264.757V168.73h7.083v96.027" transform="translate(73.062 61.215)" fill="#3e2720"/>
      <rect id="Rectangle_8858" data-name="Rectangle 8858" width="20.003" height="37.69" transform="translate(249.037 184.743)" fill="#99c8f2"/>
      <rect id="Rectangle_8859" data-name="Rectangle 8859" width="1.904" height="37.69" transform="translate(267.26 184.743)" fill="#bbdfff"/>
      <path id="Path_199251" data-name="Path 199251" d="M180.71,137.273H202.8l4.151-7.837-19.236-.1Z" transform="translate(66.67 47.536)" fill="#4083bf"/>
      <path id="Path_199252" data-name="Path 199252" d="M188.64,129.35l-6.96,7.919.493.6,6.974-8.522Z" transform="translate(67.024 47.539)" fill="#6188cb"/>
      <path id="Path_199253" data-name="Path 199253" d="M190.036,129.35l-6.946,7.919h.493l6.96-7.905Z" transform="translate(67.548 47.539)" fill="#6188cb"/>
      <path id="Path_199254" data-name="Path 199254" d="M191.436,129.36l-6.946,7.905h.493l6.96-7.905Z" transform="translate(68.068 47.543)" fill="#6188cb"/>
      <path id="Path_199255" data-name="Path 199255" d="M192.833,129.37l-6.932,7.892h.493l6.946-7.892Z" transform="translate(68.592 47.547)" fill="#6188cb"/>
      <path id="Path_199256" data-name="Path 199256" d="M194.232,129.38l-6.932,7.878h.507l6.932-7.878Z" transform="translate(69.112 47.551)" fill="#6188cb"/>
      <path id="Path_199257" data-name="Path 199257" d="M195.629,129.38l-6.919,7.878h.493l6.932-7.878Z" transform="translate(69.636 47.551)" fill="#6188cb"/>
      <path id="Path_199258" data-name="Path 199258" d="M197.029,129.39l-6.919,7.864h.507l6.919-7.864Z" transform="translate(70.157 47.554)" fill="#6188cb"/>
      <path id="Path_199259" data-name="Path 199259" d="M198.425,129.4l-6.905,7.85h.493l6.919-7.85Z" transform="translate(70.681 47.558)" fill="#6188cb"/>
      <path id="Path_199260" data-name="Path 199260" d="M199.821,129.4l-6.891,7.85h.493l6.891-7.85Z" transform="translate(71.205 47.558)" fill="#6188cb"/>
      <path id="Path_199261" data-name="Path 199261" d="M201.221,129.41l-6.891,7.837h.507l6.878-7.837Z" transform="translate(71.725 47.562)" fill="#6188cb"/>
      <path id="Path_199262" data-name="Path 199262" d="M202.689,119.89l-7.069,7.933h30.059L232.488,120Z" transform="translate(72.215 44.077)" fill="#4083bf"/>
      <rect id="Rectangle_8860" data-name="Rectangle 8860" width="28.826" height="50.624" transform="translate(269.067 171.82)" fill="#99c8f2"/>
      <rect id="Rectangle_8861" data-name="Rectangle 8861" width="10.248" height="50.624" transform="translate(297.918 171.82)" fill="#bbdfff"/>
      <path id="Path_199263" data-name="Path 199263" d="M227.808,127.793H217.56l6.809-7.823,3.439,3.439Z" transform="translate(80.358 44.106)" fill="#2a5780"/>
      <path id="Path_199264" data-name="Path 199264" d="M223.551,119.97l-6.891,7.823h.493l6.891-7.823Z" transform="translate(80.023 44.106)" fill="#6188cb"/>
      <path id="Path_199265" data-name="Path 199265" d="M221.991,119.96,215.1,127.8h.493l6.905-7.837Z" transform="translate(79.443 44.103)" fill="#6188cb"/>
      <path id="Path_199266" data-name="Path 199266" d="M220.445,119.96,213.54,127.8h.507l6.891-7.837Z" transform="translate(78.863 44.103)" fill="#6188cb"/>
      <path id="Path_199267" data-name="Path 199267" d="M218.9,119.95l-6.919,7.85h.507l6.905-7.85Z" transform="translate(78.284 44.099)" fill="#6188cb"/>
      <path id="Path_199268" data-name="Path 199268" d="M217.349,119.95l-6.919,7.85h.493l6.919-7.85Z" transform="translate(77.708 44.099)" fill="#6188cb"/>
      <path id="Path_199269" data-name="Path 199269" d="M215.8,119.94,208.87,127.8h.493l6.932-7.864Z" transform="translate(77.128 44.095)" fill="#6188cb"/>
      <path id="Path_199270" data-name="Path 199270" d="M214.242,119.94,207.31,127.8h.507l6.932-7.864Z" transform="translate(76.548 44.095)" fill="#6188cb"/>
      <path id="Path_199271" data-name="Path 199271" d="M212.692,119.93l-6.932,7.878h.493l6.932-7.878Z" transform="translate(75.972 44.092)" fill="#6188cb"/>
      <path id="Path_199272" data-name="Path 199272" d="M211.146,119.92l-6.946,7.892h.493l6.946-7.878Z" transform="translate(75.393 44.088)" fill="#6188cb"/>
      <path id="Path_199273" data-name="Path 199273" d="M209.6,119.92l-6.96,7.892h.507l6.946-7.892Z" transform="translate(74.813 44.088)" fill="#6188cb"/>
      <path id="Path_199274" data-name="Path 199274" d="M208.036,119.91l-6.946,7.905h.493l6.96-7.892Z" transform="translate(74.237 44.084)" fill="#6188cb"/>
      <path id="Path_199275" data-name="Path 199275" d="M206.49,119.91l-6.96,7.905h.493l6.96-7.905Z" transform="translate(73.657 44.084)" fill="#6188cb"/>
      <path id="Path_199276" data-name="Path 199276" d="M204.944,119.9l-6.974,7.919h.507l6.96-7.919Z" transform="translate(73.077 44.081)" fill="#6188cb"/>
      <path id="Path_199277" data-name="Path 199277" d="M203.4,119.9l-6.987,7.919h.507l6.974-7.919Z" transform="translate(72.498 44.081)" fill="#6188cb"/>
      <rect id="Rectangle_8862" data-name="Rectangle 8862" width="0.945" height="3.781" transform="translate(258.097 186.935)" fill="#4083bf"/>
      <rect id="Rectangle_8863" data-name="Rectangle 8863" width="0.945" height="3.781" transform="translate(259.537 186.935)" fill="#4083bf"/>
      <rect id="Rectangle_8864" data-name="Rectangle 8864" width="0.945" height="3.781" transform="translate(260.978 186.935)" fill="#4083bf"/>
      <rect id="Rectangle_8865" data-name="Rectangle 8865" width="0.945" height="3.781" transform="translate(262.432 186.935)" fill="#4083bf"/>
      <rect id="Rectangle_8866" data-name="Rectangle 8866" width="0.945" height="3.781" transform="translate(263.872 186.935)" fill="#4083bf"/>
      <rect id="Rectangle_8867" data-name="Rectangle 8867" width="0.945" height="3.781" transform="translate(265.312 186.935)" fill="#4083bf"/>
      <rect id="Rectangle_8868" data-name="Rectangle 8868" width="0.945" height="3.781" transform="translate(258.097 191.457)" fill="#4083bf"/>
      <rect id="Rectangle_8869" data-name="Rectangle 8869" width="0.945" height="3.781" transform="translate(259.537 191.457)" fill="#4083bf"/>
      <rect id="Rectangle_8870" data-name="Rectangle 8870" width="0.945" height="3.781" transform="translate(260.978 191.457)" fill="#4083bf"/>
      <rect id="Rectangle_8871" data-name="Rectangle 8871" width="0.945" height="3.781" transform="translate(262.432 191.457)" fill="#4083bf"/>
      <rect id="Rectangle_8872" data-name="Rectangle 8872" width="0.945" height="3.781" transform="translate(263.872 191.457)" fill="#4083bf"/>
      <rect id="Rectangle_8873" data-name="Rectangle 8873" width="0.945" height="3.781" transform="translate(265.312 191.457)" fill="#4083bf"/>
      <rect id="Rectangle_8874" data-name="Rectangle 8874" width="0.945" height="3.781" transform="translate(258.097 195.992)" fill="#4083bf"/>
      <rect id="Rectangle_8875" data-name="Rectangle 8875" width="0.945" height="3.781" transform="translate(259.537 195.992)" fill="#4083bf"/>
      <rect id="Rectangle_8876" data-name="Rectangle 8876" width="0.945" height="3.781" transform="translate(260.978 195.992)" fill="#4083bf"/>
      <rect id="Rectangle_8877" data-name="Rectangle 8877" width="0.945" height="3.781" transform="translate(262.432 195.992)" fill="#4083bf"/>
      <rect id="Rectangle_8878" data-name="Rectangle 8878" width="0.945" height="3.781" transform="translate(263.872 195.992)" fill="#4083bf"/>
      <rect id="Rectangle_8879" data-name="Rectangle 8879" width="0.945" height="3.781" transform="translate(265.312 195.992)" fill="#4083bf"/>
      <rect id="Rectangle_8880" data-name="Rectangle 8880" width="0.945" height="3.781" transform="translate(258.097 200.527)" fill="#4083bf"/>
      <rect id="Rectangle_8881" data-name="Rectangle 8881" width="0.945" height="3.781" transform="translate(259.537 200.527)" fill="#4083bf"/>
      <rect id="Rectangle_8882" data-name="Rectangle 8882" width="0.945" height="3.781" transform="translate(260.978 200.527)" fill="#4083bf"/>
      <rect id="Rectangle_8883" data-name="Rectangle 8883" width="0.945" height="3.781" transform="translate(262.432 200.527)" fill="#4083bf"/>
      <rect id="Rectangle_8884" data-name="Rectangle 8884" width="0.945" height="3.781" transform="translate(263.872 200.527)" fill="#4083bf"/>
      <rect id="Rectangle_8885" data-name="Rectangle 8885" width="0.945" height="3.781" transform="translate(265.312 200.527)" fill="#4083bf"/>
      <rect id="Rectangle_8886" data-name="Rectangle 8886" width="0.945" height="3.781" transform="translate(258.097 205.062)" fill="#4083bf"/>
      <rect id="Rectangle_8887" data-name="Rectangle 8887" width="0.945" height="3.781" transform="translate(259.537 205.062)" fill="#4083bf"/>
      <rect id="Rectangle_8888" data-name="Rectangle 8888" width="0.945" height="3.781" transform="translate(260.978 205.062)" fill="#4083bf"/>
      <rect id="Rectangle_8889" data-name="Rectangle 8889" width="0.945" height="3.781" transform="translate(262.432 205.062)" fill="#4083bf"/>
      <rect id="Rectangle_8890" data-name="Rectangle 8890" width="0.945" height="3.781" transform="translate(263.872 205.062)" fill="#4083bf"/>
      <rect id="Rectangle_8891" data-name="Rectangle 8891" width="0.945" height="3.781" transform="translate(265.312 205.062)" fill="#4083bf"/>
      <rect id="Rectangle_8892" data-name="Rectangle 8892" width="0.945" height="3.781" transform="translate(258.097 209.598)" fill="#4083bf"/>
      <rect id="Rectangle_8893" data-name="Rectangle 8893" width="0.945" height="3.781" transform="translate(259.537 209.598)" fill="#4083bf"/>
      <rect id="Rectangle_8894" data-name="Rectangle 8894" width="0.945" height="3.781" transform="translate(260.978 209.598)" fill="#4083bf"/>
      <rect id="Rectangle_8895" data-name="Rectangle 8895" width="0.945" height="3.781" transform="translate(262.432 209.598)" fill="#4083bf"/>
      <rect id="Rectangle_8896" data-name="Rectangle 8896" width="0.945" height="3.781" transform="translate(263.872 209.598)" fill="#4083bf"/>
      <rect id="Rectangle_8897" data-name="Rectangle 8897" width="0.945" height="3.781" transform="translate(265.312 209.598)" fill="#4083bf"/>
      <rect id="Rectangle_8898" data-name="Rectangle 8898" width="0.945" height="3.781" transform="translate(258.097 214.119)" fill="#4083bf"/>
      <rect id="Rectangle_8899" data-name="Rectangle 8899" width="0.945" height="3.781" transform="translate(259.537 214.119)" fill="#4083bf"/>
      <rect id="Rectangle_8900" data-name="Rectangle 8900" width="0.945" height="3.781" transform="translate(260.978 214.119)" fill="#4083bf"/>
      <rect id="Rectangle_8901" data-name="Rectangle 8901" width="0.945" height="3.781" transform="translate(262.432 214.119)" fill="#4083bf"/>
      <rect id="Rectangle_8902" data-name="Rectangle 8902" width="0.945" height="3.781" transform="translate(263.872 214.119)" fill="#4083bf"/>
      <rect id="Rectangle_8903" data-name="Rectangle 8903" width="0.945" height="3.781" transform="translate(265.312 214.119)" fill="#4083bf"/>
      <rect id="Rectangle_8904" data-name="Rectangle 8904" width="1.425" height="5.658" transform="translate(271.237 173.709)" fill="#4083bf"/>
      <rect id="Rectangle_8905" data-name="Rectangle 8905" width="1.425" height="5.658" transform="translate(273.391 173.709)" fill="#4083bf"/>
      <rect id="Rectangle_8906" data-name="Rectangle 8906" width="1.425" height="5.658" transform="translate(275.558 173.709)" fill="#4083bf"/>
      <rect id="Rectangle_8907" data-name="Rectangle 8907" width="1.425" height="5.658" transform="translate(277.725 173.709)" fill="#4083bf"/>
      <rect id="Rectangle_8908" data-name="Rectangle 8908" width="1.425" height="5.658" transform="translate(279.892 173.709)" fill="#4083bf"/>
      <rect id="Rectangle_8909" data-name="Rectangle 8909" width="1.425" height="5.658" transform="translate(282.059 173.709)" fill="#4083bf"/>
      <rect id="Rectangle_8910" data-name="Rectangle 8910" width="1.425" height="5.658" transform="translate(271.237 180.498)" fill="#4083bf"/>
      <rect id="Rectangle_8911" data-name="Rectangle 8911" width="1.425" height="5.658" transform="translate(273.391 180.498)" fill="#4083bf"/>
      <rect id="Rectangle_8912" data-name="Rectangle 8912" width="1.425" height="5.658" transform="translate(275.558 180.498)" fill="#4083bf"/>
      <rect id="Rectangle_8913" data-name="Rectangle 8913" width="1.425" height="5.658" transform="translate(277.725 180.498)" fill="#4083bf"/>
      <rect id="Rectangle_8914" data-name="Rectangle 8914" width="1.425" height="5.658" transform="translate(279.892 180.498)" fill="#4083bf"/>
      <rect id="Rectangle_8915" data-name="Rectangle 8915" width="1.425" height="5.658" transform="translate(282.059 180.498)" fill="#4083bf"/>
      <rect id="Rectangle_8916" data-name="Rectangle 8916" width="1.425" height="5.658" transform="translate(271.237 187.288)" fill="#4083bf"/>
      <rect id="Rectangle_8917" data-name="Rectangle 8917" width="1.425" height="5.658" transform="translate(273.391 187.288)" fill="#4083bf"/>
      <rect id="Rectangle_8918" data-name="Rectangle 8918" width="1.425" height="5.658" transform="translate(275.558 187.288)" fill="#4083bf"/>
      <rect id="Rectangle_8919" data-name="Rectangle 8919" width="1.425" height="5.658" transform="translate(277.725 187.288)" fill="#4083bf"/>
      <rect id="Rectangle_8920" data-name="Rectangle 8920" width="1.425" height="5.658" transform="translate(279.892 187.288)" fill="#4083bf"/>
      <rect id="Rectangle_8921" data-name="Rectangle 8921" width="1.425" height="5.658" transform="translate(282.059 187.288)" fill="#4083bf"/>
      <rect id="Rectangle_8922" data-name="Rectangle 8922" width="1.425" height="5.658" transform="translate(271.237 194.091)" fill="#4083bf"/>
      <rect id="Rectangle_8923" data-name="Rectangle 8923" width="1.425" height="5.658" transform="translate(273.391 194.091)" fill="#4083bf"/>
      <rect id="Rectangle_8924" data-name="Rectangle 8924" width="1.425" height="5.658" transform="translate(275.558 194.091)" fill="#4083bf"/>
      <rect id="Rectangle_8925" data-name="Rectangle 8925" width="1.425" height="5.658" transform="translate(277.725 194.091)" fill="#4083bf"/>
      <rect id="Rectangle_8926" data-name="Rectangle 8926" width="1.425" height="5.658" transform="translate(279.892 194.091)" fill="#4083bf"/>
      <rect id="Rectangle_8927" data-name="Rectangle 8927" width="1.425" height="5.658" transform="translate(282.059 194.091)" fill="#4083bf"/>
      <rect id="Rectangle_8928" data-name="Rectangle 8928" width="1.425" height="5.658" transform="translate(271.237 200.88)" fill="#4083bf"/>
      <rect id="Rectangle_8929" data-name="Rectangle 8929" width="1.425" height="5.658" transform="translate(273.391 200.88)" fill="#4083bf"/>
      <rect id="Rectangle_8930" data-name="Rectangle 8930" width="1.425" height="5.658" transform="translate(275.558 200.88)" fill="#4083bf"/>
      <rect id="Rectangle_8931" data-name="Rectangle 8931" width="1.425" height="5.658" transform="translate(277.725 200.88)" fill="#4083bf"/>
      <rect id="Rectangle_8932" data-name="Rectangle 8932" width="1.425" height="5.658" transform="translate(279.892 200.88)" fill="#4083bf"/>
      <rect id="Rectangle_8933" data-name="Rectangle 8933" width="1.425" height="5.658" transform="translate(282.059 200.88)" fill="#4083bf"/>
      <rect id="Rectangle_8934" data-name="Rectangle 8934" width="1.425" height="5.658" transform="translate(271.237 207.669)" fill="#4083bf"/>
      <rect id="Rectangle_8935" data-name="Rectangle 8935" width="1.425" height="5.658" transform="translate(273.391 207.669)" fill="#4083bf"/>
      <rect id="Rectangle_8936" data-name="Rectangle 8936" width="1.425" height="5.658" transform="translate(275.558 207.669)" fill="#4083bf"/>
      <rect id="Rectangle_8937" data-name="Rectangle 8937" width="1.425" height="5.658" transform="translate(277.725 207.669)" fill="#4083bf"/>
      <rect id="Rectangle_8938" data-name="Rectangle 8938" width="1.425" height="5.658" transform="translate(279.892 207.669)" fill="#4083bf"/>
      <rect id="Rectangle_8939" data-name="Rectangle 8939" width="1.425" height="5.658" transform="translate(282.059 207.669)" fill="#4083bf"/>
      <rect id="Rectangle_8940" data-name="Rectangle 8940" width="1.425" height="5.658" transform="translate(271.237 214.458)" fill="#4083bf"/>
      <rect id="Rectangle_8941" data-name="Rectangle 8941" width="1.425" height="5.658" transform="translate(273.391 214.458)" fill="#4083bf"/>
      <rect id="Rectangle_8942" data-name="Rectangle 8942" width="1.425" height="5.658" transform="translate(275.558 214.458)" fill="#4083bf"/>
      <rect id="Rectangle_8943" data-name="Rectangle 8943" width="1.425" height="5.658" transform="translate(277.725 214.458)" fill="#4083bf"/>
      <rect id="Rectangle_8944" data-name="Rectangle 8944" width="1.425" height="5.658" transform="translate(279.892 214.458)" fill="#4083bf"/>
      <rect id="Rectangle_8945" data-name="Rectangle 8945" width="1.425" height="5.658" transform="translate(282.059 214.458)" fill="#4083bf"/>
      <rect id="Rectangle_8946" data-name="Rectangle 8946" width="1.425" height="5.658" transform="translate(285.173 173.709)" fill="#4083bf"/>
      <rect id="Rectangle_8947" data-name="Rectangle 8947" width="1.425" height="5.658" transform="translate(287.34 173.709)" fill="#4083bf"/>
      <rect id="Rectangle_8948" data-name="Rectangle 8948" width="1.425" height="5.658" transform="translate(289.507 173.709)" fill="#4083bf"/>
      <rect id="Rectangle_8949" data-name="Rectangle 8949" width="1.425" height="5.658" transform="translate(291.674 173.709)" fill="#4083bf"/>
      <rect id="Rectangle_8950" data-name="Rectangle 8950" width="1.425" height="5.658" transform="translate(293.827 173.709)" fill="#4083bf"/>
      <rect id="Rectangle_8951" data-name="Rectangle 8951" width="1.425" height="5.658" transform="translate(295.994 173.709)" fill="#4083bf"/>
      <rect id="Rectangle_8952" data-name="Rectangle 8952" width="1.425" height="5.658" transform="translate(285.173 180.498)" fill="#4083bf"/>
      <rect id="Rectangle_8953" data-name="Rectangle 8953" width="1.425" height="5.658" transform="translate(287.34 180.498)" fill="#4083bf"/>
      <rect id="Rectangle_8954" data-name="Rectangle 8954" width="1.425" height="5.658" transform="translate(289.507 180.498)" fill="#4083bf"/>
      <rect id="Rectangle_8955" data-name="Rectangle 8955" width="1.425" height="5.658" transform="translate(291.674 180.498)" fill="#4083bf"/>
      <rect id="Rectangle_8956" data-name="Rectangle 8956" width="1.425" height="5.658" transform="translate(293.827 180.498)" fill="#4083bf"/>
      <rect id="Rectangle_8957" data-name="Rectangle 8957" width="1.425" height="5.658" transform="translate(295.994 180.498)" fill="#4083bf"/>
      <rect id="Rectangle_8958" data-name="Rectangle 8958" width="1.425" height="5.658" transform="translate(285.173 187.288)" fill="#4083bf"/>
      <rect id="Rectangle_8959" data-name="Rectangle 8959" width="1.425" height="5.658" transform="translate(287.34 187.288)" fill="#4083bf"/>
      <rect id="Rectangle_8960" data-name="Rectangle 8960" width="1.425" height="5.658" transform="translate(289.507 187.288)" fill="#4083bf"/>
      <rect id="Rectangle_8961" data-name="Rectangle 8961" width="1.425" height="5.658" transform="translate(291.674 187.288)" fill="#4083bf"/>
      <rect id="Rectangle_8962" data-name="Rectangle 8962" width="1.425" height="5.658" transform="translate(293.827 187.288)" fill="#4083bf"/>
      <rect id="Rectangle_8963" data-name="Rectangle 8963" width="1.425" height="5.658" transform="translate(295.994 187.288)" fill="#4083bf"/>
      <rect id="Rectangle_8964" data-name="Rectangle 8964" width="1.425" height="5.658" transform="translate(285.173 194.091)" fill="#4083bf"/>
      <rect id="Rectangle_8965" data-name="Rectangle 8965" width="1.425" height="5.658" transform="translate(287.34 194.091)" fill="#4083bf"/>
      <rect id="Rectangle_8966" data-name="Rectangle 8966" width="1.425" height="5.658" transform="translate(289.507 194.091)" fill="#4083bf"/>
      <rect id="Rectangle_8967" data-name="Rectangle 8967" width="1.425" height="5.658" transform="translate(291.674 194.091)" fill="#4083bf"/>
      <rect id="Rectangle_8968" data-name="Rectangle 8968" width="1.425" height="5.658" transform="translate(293.827 194.091)" fill="#4083bf"/>
      <rect id="Rectangle_8969" data-name="Rectangle 8969" width="1.425" height="5.658" transform="translate(295.994 194.091)" fill="#4083bf"/>
      <rect id="Rectangle_8970" data-name="Rectangle 8970" width="1.425" height="5.658" transform="translate(285.173 200.88)" fill="#4083bf"/>
      <rect id="Rectangle_8971" data-name="Rectangle 8971" width="1.425" height="5.658" transform="translate(287.34 200.88)" fill="#4083bf"/>
      <rect id="Rectangle_8972" data-name="Rectangle 8972" width="1.425" height="5.658" transform="translate(289.507 200.88)" fill="#4083bf"/>
      <rect id="Rectangle_8973" data-name="Rectangle 8973" width="1.425" height="5.658" transform="translate(291.674 200.88)" fill="#4083bf"/>
      <rect id="Rectangle_8974" data-name="Rectangle 8974" width="1.425" height="5.658" transform="translate(293.827 200.88)" fill="#4083bf"/>
      <rect id="Rectangle_8975" data-name="Rectangle 8975" width="1.425" height="5.658" transform="translate(295.994 200.88)" fill="#4083bf"/>
      <rect id="Rectangle_8976" data-name="Rectangle 8976" width="1.425" height="5.658" transform="translate(285.173 207.669)" fill="#4083bf"/>
      <rect id="Rectangle_8977" data-name="Rectangle 8977" width="1.425" height="5.658" transform="translate(287.34 207.669)" fill="#4083bf"/>
      <rect id="Rectangle_8978" data-name="Rectangle 8978" width="1.425" height="5.658" transform="translate(289.507 207.669)" fill="#4083bf"/>
      <rect id="Rectangle_8979" data-name="Rectangle 8979" width="1.425" height="5.658" transform="translate(291.674 207.669)" fill="#4083bf"/>
      <rect id="Rectangle_8980" data-name="Rectangle 8980" width="1.425" height="5.658" transform="translate(293.827 207.669)" fill="#4083bf"/>
      <rect id="Rectangle_8981" data-name="Rectangle 8981" width="1.425" height="5.658" transform="translate(295.994 207.669)" fill="#4083bf"/>
      <rect id="Rectangle_8982" data-name="Rectangle 8982" width="1.425" height="5.658" transform="translate(285.173 214.458)" fill="#4083bf"/>
      <rect id="Rectangle_8983" data-name="Rectangle 8983" width="1.425" height="5.658" transform="translate(287.34 214.458)" fill="#4083bf"/>
      <rect id="Rectangle_8984" data-name="Rectangle 8984" width="1.425" height="5.658" transform="translate(289.507 214.458)" fill="#4083bf"/>
      <rect id="Rectangle_8985" data-name="Rectangle 8985" width="1.425" height="5.658" transform="translate(291.674 214.458)" fill="#4083bf"/>
      <rect id="Rectangle_8986" data-name="Rectangle 8986" width="1.425" height="5.658" transform="translate(293.827 214.458)" fill="#4083bf"/>
      <rect id="Rectangle_8987" data-name="Rectangle 8987" width="1.425" height="5.658" transform="translate(295.994 214.458)" fill="#4083bf"/>
      <path id="Path_199278" data-name="Path 199278" d="M240.963,180.209H233.25V117.488l7.713-2.658Z" transform="translate(86.188 42.154)" fill="#6188cb"/>
      <path id="Path_199279" data-name="Path 199279" d="M247.046,122l-8.165-7.618v66h8.371Z" transform="translate(88.28 41.989)" fill="#99c8f2"/>
      <rect id="Rectangle_8988" data-name="Rectangle 8988" width="4.644" height="60.995" transform="translate(314.773 161.359)" fill="#2c4053"/>
      <rect id="Rectangle_8989" data-name="Rectangle 8989" width="13.481" height="63.05" transform="translate(301.76 159.295)" fill="#4083bf"/>
      <rect id="Rectangle_8990" data-name="Rectangle 8990" width="17.208" height="0.589" transform="translate(299.019 158.92)" fill="#2a5780"/>
      <rect id="Rectangle_8991" data-name="Rectangle 8991" width="4.165" height="0.589" transform="translate(315.253 161.133)" fill="#2a5780"/>
      <path id="Path_199280" data-name="Path 199280" d="M249.477,122.583l-8.535-7.768-7.549,3.206-.233-.548,7.905-3.343,8.809,8.015Z" transform="translate(86.159 41.968)" fill="#2a5780"/>
      <rect id="Rectangle_8992" data-name="Rectangle 8992" width="1.945" height="4.206" transform="translate(323.536 160.488)" fill="#2a5780"/>
      <rect id="Rectangle_8993" data-name="Rectangle 8993" width="1.754" height="3.713" transform="translate(321.547 169.408)" fill="#2a5780"/>
      <rect id="Rectangle_8994" data-name="Rectangle 8994" width="0.973" height="3.85" transform="translate(323.536 177.796)" fill="#2a5780"/>
      <rect id="Rectangle_8995" data-name="Rectangle 8995" width="3.192" height="3.644" transform="translate(309.258 162.674)" fill="#8cb5d9"/>
      <rect id="Rectangle_8996" data-name="Rectangle 8996" width="12.906" height="1.192" transform="translate(302.693 167.731)" fill="#8cb5d9"/>
      <rect id="Rectangle_8997" data-name="Rectangle 8997" width="12.906" height="1.192" transform="translate(302.802 170.982)" fill="#8cb5d9"/>
      <rect id="Rectangle_8998" data-name="Rectangle 8998" width="12.906" height="1.192" transform="translate(302.912 174.22)" fill="#8cb5d9"/>
      <rect id="Rectangle_8999" data-name="Rectangle 8999" width="12.906" height="1.192" transform="translate(303.022 177.457)" fill="#8cb5d9"/>
      <rect id="Rectangle_9000" data-name="Rectangle 9000" width="12.906" height="1.192" transform="translate(303.132 180.709)" fill="#8cb5d9"/>
      <rect id="Rectangle_9001" data-name="Rectangle 9001" width="12.906" height="1.192" transform="translate(303.241 183.946)" fill="#8cb5d9"/>
      <rect id="Rectangle_9002" data-name="Rectangle 9002" width="12.906" height="1.192" transform="translate(303.351 187.184)" fill="#8cb5d9"/>
      <rect id="Rectangle_9003" data-name="Rectangle 9003" width="12.906" height="1.192" transform="translate(303.461 190.422)" fill="#8cb5d9"/>
      <rect id="Rectangle_9004" data-name="Rectangle 9004" width="12.906" height="1.192" transform="translate(303.571 193.673)" fill="#8cb5d9"/>
      <rect id="Rectangle_9005" data-name="Rectangle 9005" width="12.906" height="1.192" transform="translate(303.68 196.911)" fill="#8cb5d9"/>
      <rect id="Rectangle_9006" data-name="Rectangle 9006" width="12.906" height="1.192" transform="translate(303.79 200.148)" fill="#8cb5d9"/>
      <rect id="Rectangle_9007" data-name="Rectangle 9007" width="12.906" height="1.192" transform="translate(303.9 203.399)" fill="#8cb5d9"/>
      <rect id="Rectangle_9008" data-name="Rectangle 9008" width="12.906" height="1.192" transform="translate(304.01 206.637)" fill="#8cb5d9"/>
      <rect id="Rectangle_9009" data-name="Rectangle 9009" width="12.906" height="1.192" transform="translate(304.119 209.875)" fill="#8cb5d9"/>
      <rect id="Rectangle_9010" data-name="Rectangle 9010" width="12.906" height="1.192" transform="translate(304.229 213.126)" fill="#8cb5d9"/>
      <rect id="Rectangle_9011" data-name="Rectangle 9011" width="12.906" height="1.192" transform="translate(304.339 216.364)" fill="#8cb5d9"/>
      <g id="Group_10769" data-name="Group 10769" transform="translate(237.052 209.884)">
        <path id="Path_195629" data-name="Path 195629" d="M173.17,153.57v10.495m67.448,48.294" transform="translate(-173.17 -153.57)" fill="#9298c4"/>
      </g>
      <g id="Group_14795" data-name="Group 14795" transform="translate(185.819 147.236)">
        <g id="Group_10832" data-name="Group 10832" transform="translate(0 7.745)">
          <g id="Group_5822-2" data-name="Group 5822-2" transform="translate(311.969 176.348)">
            <path id="Path_187012-2" data-name="Path 187012-2" d="M368.689,246.1a38.907,38.907,0,0,1,.781,6.658,11.2,11.2,0,0,1-1.918.164l-.247-.877a5.259,5.259,0,0,1-1.178.945,63.025,63.025,0,0,1-13.262,1.37c-4.014-.384-6.741-1.959-3.055-2.014s14.892-6.206,14.892-6.206Z" transform="translate(-348.071 -243.154)" fill="#003d57"/>
            <g id="Group_5821-2" data-name="Group 5821-2" transform="translate(16.63)">
              <path id="Path_187013-2" data-name="Path 187013-2" d="M364.2,246.9l.137-2.74-3.973-.206-.151,3Z" transform="translate(-360.21 -243.95)" fill="#ffb780"/>
            </g>
          </g>
          <path id="Path_187017-2" data-name="Path 187017-2" d="M381.239,246.15a38.917,38.917,0,0,1,.781,6.658,11.209,11.209,0,0,1-1.918.164l-.247-.877a5.315,5.315,0,0,1-1.178.959,61.2,61.2,0,0,1-13.262,1.37c-4.014-.37-6.741-1.959-3.055-2s14.892-6.193,14.892-6.193Z" transform="translate(-31.458 -66.788)" fill="#005479"/>
          <g id="Group_5825-2" data-name="Group 5825-2" transform="translate(345.794 176.43)">
            <path id="Path_187018-2" data-name="Path 187018-2" d="M376.733,246.942l.137-2.74-3.959-.192L372.76,247Z" transform="translate(-372.76 -244.01)" fill="#ffb780"/>
          </g>
          <g id="Group_14793" data-name="Group 14793">
            <g id="Group_5822-2-2" data-name="Group 5822-2" transform="translate(29.534 181.828)">
              <path id="Path_187012-2-2" data-name="Path 187012-2" d="M163.141,250.1a38.9,38.9,0,0,0-.781,6.659,11.208,11.208,0,0,0,1.918.164l.247-.877a5.262,5.262,0,0,0,1.178.945,63.022,63.022,0,0,0,13.262,1.37c4.014-.384,6.741-1.959,3.055-2.014s-14.879-6.206-14.879-6.206Z" transform="translate(-162.36 -247.154)" fill="#003d57"/>
              <g id="Group_5821-2-2" data-name="Group 5821-2" transform="translate(0.644)">
                <path id="Path_187013-2-2" data-name="Path 187013-2" d="M162.967,250.9l-.137-2.74,3.987-.205.151,3Z" transform="translate(-162.83 -247.95)" fill="#ffb780"/>
              </g>
            </g>
            <g id="Group_5827-2" data-name="Group 5827-2" transform="translate(17.82 156.112)">
              <g id="Group_5826-2" data-name="Group 5826-2">
                <path id="Path_187017-2-2" data-name="Path 187017-2" d="M154.591,250.15a40.321,40.321,0,0,0-.781,6.658,11.206,11.206,0,0,0,1.918.164l.247-.877a5.316,5.316,0,0,0,1.178.959,61.2,61.2,0,0,0,13.262,1.37c4.014-.37,6.741-1.959,3.069-2s-14.893-6.193-14.893-6.193Z" transform="translate(-153.81 -221.42)" fill="#005479"/>
                <path id="Path_187017" data-name="Path 187017" d="M153.93,229.18h5.261" transform="translate(-153.766 -229.18)" fill="#005479"/>
                <g id="Group_5825-2-2" data-name="Group 5825-2" transform="translate(0.658 25.798)">
                  <path id="Path_187018-2-2" data-name="Path 187018-2" d="M154.427,250.942l-.137-2.74,3.973-.192.151,2.987Z" transform="translate(-154.29 -248.01)" fill="#ffb780"/>
                </g>
              </g>
            </g>
            <path id="Path_195668" data-name="Path 195668" d="M164.85,143.07s1.685,9.906,6.987,16.564c3.973,4.973,12.33,10.522,12.33,10.522l-4.7,5.042-13.043-10.453Z" transform="translate(-131.904 -104.933)" fill="#363a68"/>
            <path id="Path_195669" data-name="Path 195669" d="M164.485,136.32H154.1l.343,33.429,13.783.9Z" transform="translate(-135.882 -107.431)" fill="#260e0d"/>
            <path id="Path_195672" data-name="Path 195672" d="M151.858,236.488l-3.288-27.8-2.11-17.454,1.548-13.385h30.141l.219,11.8,3.083,45.952s-7.837,38.279-7.713,38.91h-5.672c0-.137,1.6-41.978,1.6-41.978l-6.494-37.265-2.535,39.115s1.151,35.265,1.165,40.129h-5.343C156.42,274.425,151.858,236.488,151.858,236.488Z" transform="translate(-138.71 -92.062)" fill="#2f1954"/>
            <path id="Path_195673" data-name="Path 195673" d="M147.39,179.6l.206-1.754h30.141v1.534l-6.316,2.11a26.908,26.908,0,0,1-15.838.384Z" transform="translate(-138.365 -92.062)" fill="#0e0e0e"/>
            <path id="Path_195674" data-name="Path 195674" d="M146.506,145.017c3.261-3.6,10.837-9.344,19.181-7.96l8.714,3.8,2.576,18.427,2.288-.534-31.087.356-2.959,1.466S143.259,148.607,146.506,145.017Z" transform="translate(-139.386 -107.236)" fill="#fff"/>
            <path id="Path_195682" data-name="Path 195682" d="M162.44,137.25l2.315,68.16h14.427l-4.261-30.95-2.74-18.811s-1.37-12.646-4.288-14.906A34.469,34.469,0,0,0,162.44,137.25Z" transform="translate(-132.796 -107.087)" fill="#555da2"/>
            <path id="Path_195684" data-name="Path 195684" d="M157.794,137l1.507,68.5H143.846s-.589-54.3,1.123-59.967S157.794,137,157.794,137Z" transform="translate(-139.713 -107.179)" fill="#555da2"/>
            <path id="Path_195685" data-name="Path 195685" d="M168.325,140.115l-6.645-3.8,2.137,33.7,3.658-19.071-1.288-.863Z" transform="translate(-133.077 -107.431)" fill="#777eb5"/>
            <path id="Path_195686" data-name="Path 195686" d="M156.274,170.489,155.7,136.32l-5.919,2.63L153,150.075l-.822.63Z" transform="translate(-137.481 -107.431)" fill="#777eb5"/>
            <path id="Path_195687" data-name="Path 195687" d="M179.317,173.217l3.809-19.057-5.083.973L160.89,173.217Z" transform="translate(-133.37 -100.829)" fill="#1e3340"/>
            <path id="Path_195687-2" data-name="Path 195687" d="M164.6,154.21l-3.809,19.071,5.069-.973L183,154.21Z" transform="translate(-133.407 -100.81)" fill="#1e3340"/>
            <path id="Path_195688" data-name="Path 195688" d="M169.553,163.1a8,8,0,0,0-3.179,1.452c-1.1,1.165-3.713,3.069-4.809,3.069s-5.754.466-5.754.466l-.781,5.124s17.4-3.987,18.222-4.85-4.11.644-4.11.26,5.9-.836,5.59-1.822-5.48,1.37-5.891.836,6.206-1.3,6.206-2.343S168.4,166.8,168.4,166.8s-.11-.534,1.671-1.37,3.535-1.534,3.137-1.959-4.973,2.274-5.59,1.63Z" transform="translate(-135.538 -97.521)" fill="#ffc69a"/>
            <path id="Path_195689" data-name="Path 195689" d="M150.321,142.65a22.031,22.031,0,0,1,2.028,11.276c-.507,6.672-1.37,16.879,0,20.208s11.8,0,11.8,0v7.919s-15.071,6.11-19.4,4.11-3.932-19.181-3.932-27.648S147.54,136.594,150.321,142.65Z" transform="translate(-140.803 -105.65)" fill="#777eb5"/>
            <path id="Path_195690" data-name="Path 195690" d="M147.75,142.24a23.154,23.154,0,0,1,1.808,10.755c-.48,6.206-1.945,19.674.754,21.715,2.6,1.6,8.494,0,11.289-.986-2.74.74-10.536,2.535-11.55-.11-.863-2.124-.726-7.248-.644-9.522.315-9.837,1.521-13.3-.548-19.3a16.273,16.273,0,0,0-1.11-2.548Z" transform="translate(-138.232 -105.24)" fill="#9298c4"/>
            <path id="Path_195692" data-name="Path 195692" d="M179.732,161.943a7.8,7.8,0,0,1,.849,1.644c.507,1.192-.9,2.425-1.178,2.74a14.018,14.018,0,0,1-2.069,1.507,5.345,5.345,0,0,1-1.534.63c-.836.178-2.74-2.74-2.452-3.083s.384-.343.575-.274,2.274,1.671,2.274,1.671-1.863-2.343-1.658-3.028.617-.617.781-.438,2.548,2.37,2.548,2.37a14.181,14.181,0,0,1-1.48-3.247c.151-.452.795-.781,1.534.356a13.166,13.166,0,0,0,1.493,1.658,7.576,7.576,0,0,1-.7-2.74C178.869,160.929,179.732,161.943,179.732,161.943Z" transform="translate(-128.77 -98.145)" fill="#ffc69a"/>
            <g id="Group_6067" data-name="Group 6067" transform="translate(18.426 7.756)">
              <path id="Path_187667" data-name="Path 187667" d="M162.36,121.039s9.193-2.069,7.083,9.494-4.3,12.522-9.851,10.084-5.042-9.8-5.33-13.44S159.387,121.107,162.36,121.039Z" transform="translate(-154.252 -120.895)" fill="#ffc69a"/>
            </g>
            <g id="Group_6068" data-name="Group 6068" transform="translate(18.464 19.25)">
              <path id="Path_187668" data-name="Path 187668" d="M163.226,144.76s-2.521,3.411-8.946-.521c0,0,1.37-9.385.671-13.906s8.4,7.042,8.4,7.042a3.54,3.54,0,0,0-.219,1.123,11.96,11.96,0,0,0,.1,1.85,33.853,33.853,0,0,1,0,4.412Z" transform="translate(-154.28 -129.285)" fill="#ffc69a"/>
            </g>
            <g id="Group_6070" data-name="Group 6070" transform="translate(20.273 24.217)">
              <path id="Path_187670" data-name="Path 187670" d="M162.738,139.02c-6.631-2.041-7.138-6.056-7.138-6.11,2.178,3.754,7.042,4.261,7.042,4.261a11.958,11.958,0,0,0,.1,1.85Z" transform="translate(-155.6 -132.91)" fill="#a77860"/>
            </g>
            <g id="Group_6071" data-name="Group 6071" transform="translate(18.752 30.781)">
              <path id="Path_187671" data-name="Path 187671" d="M154.49,138.837s2.233,5.48,5.823,5.165.617-5.9.452-5.946A7.563,7.563,0,0,0,154.49,138.837Z" transform="translate(-154.49 -137.701)" fill="#ffc69a"/>
            </g>
            <path id="Path_187732" data-name="Path 187732" d="M164.35,129a10.659,10.659,0,0,0,1.877,4.11,3.822,3.822,0,0,1-2.507,1.069Z" transform="translate(-132.323 -110.14)" fill="#ffc69a"/>
            <path id="Path_187731" data-name="Path 187731" d="M154.614,129.885a13.865,13.865,0,0,1,9.083-3.3c5.7,0,6.316,0,7.7-2.589s-4-2.4-4-2.4-4.11-1.808-10.412.781C152.189,124.281,152.162,125.021,154.614,129.885Z" transform="translate(-136.287 -113.107)" fill="#963815"/>
            <g id="Group_10823" data-name="Group 10823" transform="translate(14.973)">
              <path id="Path_195667" data-name="Path 195667" d="M170.663,123.554a90.112,90.112,0,0,1-11.44,2.357c-4.727.507-6,1.576-6.85,1.178s2.014-3.562,2.014-3.562l9.015-3.014,7.289-.082Z" transform="translate(-151.553 -113.311)" fill="#963815"/>
              <path id="Path_195693" data-name="Path 195693" d="M156.6,116.2c0,.082.767,7.124.767,7.042,2.822-.233,6.741-.3,9.59-.26a7.207,7.207,0,0,0-1.274-4.028c-1.247-1.247-3.4-3.3-5.48-3.494A6.754,6.754,0,0,0,156.6,116.2Z" transform="translate(-149.93 -115.155)" fill="#f2b90c"/>
              <path id="Path_195694" data-name="Path 195694" d="M156.83,116.092l.836,7.206c2.973-.233,8.357-.562,11.317-.521a10.494,10.494,0,0,0-1.082-3.48,8.028,8.028,0,0,0-3.357-3.124,7.577,7.577,0,0,0-4.014-.932,12.535,12.535,0,0,0-3.329.7Z" transform="translate(-149.845 -115.234)" fill="#f47b50"/>
              <path id="Path_195695" data-name="Path 195695" d="M155.52,116.311l1.37,7.028c.082,0,3.822-.4,9.042-.37a8.22,8.22,0,0,0-1.233-5.234,6.11,6.11,0,0,0-4.658-2.315,6.6,6.6,0,0,0-2.356.452,10.839,10.839,0,0,0-2.165.438Z" transform="translate(-150.33 -115.165)" fill="#b5441b"/>
              <path id="Path_195696" data-name="Path 195696" d="M152.1,127.611c1.891-2.891,9.864-4.754,13.522-4.74a10.193,10.193,0,0,0-.356-4.4c-2.3-4.11-10.96-3.74-13.1,1.987a16.152,16.152,0,0,0-.069,7.152Z" transform="translate(-151.732 -115.052)" fill="#f15a24"/>
              <g id="Group_10778" data-name="Group 10778" transform="translate(4.284 2.878)">
                <path id="Path_195697" data-name="Path 195697" d="M155.052,117.78h0l1.274-.315a.1.1,0,0,0,0-.11.082.082,0,0,0-.11,0l-1.288.3a.1.1,0,0,0-.069.11.11.11,0,0,0,.192.014Z" transform="translate(-154.859 -117.335)" fill="#591914"/>
              </g>
              <g id="Group_10779" data-name="Group 10779" transform="translate(4.527 3.663)">
                <path id="Path_195698" data-name="Path 195698" d="M155.124,118.295h0l1.233-.26s.082,0,0-.11h0a.1.1,0,0,0-.11,0h0l-1.151.315a.1.1,0,0,0,0,.178Z" transform="translate(-155.036 -117.907)" fill="#591914"/>
              </g>
              <g id="Group_10780" data-name="Group 10780" transform="translate(1.586 3.762)">
                <path id="Path_195699" data-name="Path 195699" d="M153.041,118.555h0l1.178-.452v-.123H154.1l-1.178.452a.082.082,0,0,0,0,.123.068.068,0,0,0,.123,0Z" transform="translate(-152.89 -117.98)" fill="#591914"/>
              </g>
              <g id="Group_10781" data-name="Group 10781" transform="translate(1.612 4.314)">
                <path id="Path_195700" data-name="Path 195700" d="M153.034,119h0l1.192-.425a.1.1,0,1,0-.068-.178l-1.178.425a.1.1,0,0,0-.069.11.11.11,0,0,0,.123.068Z" transform="translate(-152.909 -118.382)" fill="#591914"/>
              </g>
              <g id="Group_10782" data-name="Group 10782" transform="translate(3.402 3.543)">
                <path id="Path_195701" data-name="Path 195701" d="M154.222,118.067a.26.26,0,1,0,.507,0,.253.253,0,0,0-.507,0Z" transform="translate(-154.215 -117.82)" fill="#591914"/>
              </g>
              <path id="Path_195702" data-name="Path 195702" d="M168.858,119.362c-3.6,0-12.166,1.069-16.153,5.768,0,0-1.781,1.932-.137,2.357a3.343,3.343,0,0,1,1.37-1.877c3.85-1.932,10.193-3.9,15.5-2.192.507.164,1.26.274,1.37.534a6.549,6.549,0,0,0,2.535-1.1C175.188,121.513,175.489,119.225,168.858,119.362Z" transform="translate(-151.68 -113.708)" fill="#792d12"/>
              <path id="Path_195703" data-name="Path 195703" d="M173.339,122.927c.754-.589,1.439-1.452.918-2.219a3.864,3.864,0,0,0-2.384-1.014,23.2,23.2,0,0,0-8.946.617c-8.124,1.658-12.824,6.508-10.344,7.248-2.3-.562,1.233-3.877,3.4-5.179,6.275-3.672,19.592-4.535,18.523-.822A2.74,2.74,0,0,1,173.339,122.927Z" transform="translate(-151.695 -113.78)" fill="#f2b90c"/>
            </g>
          </g>
        </g>
        <g id="Group_14794" data-name="Group 14794" transform="translate(139.027)">
          <g id="Group_10822" data-name="Group 10822" transform="translate(147.059)">
            <g id="Group_10815" data-name="Group 10815" transform="translate(0 6.055)">
              <g id="Group_5744" data-name="Group 5744" transform="translate(4.684 29.884)">
                <path id="Path_186812" data-name="Path 186812" d="M385.132,135.85s-6.645-1.26-15.221,10.686a177.023,177.023,0,0,1-14.838,18.427l-15.18-13.7-3.6,2.74s18.92,24.223,21.578,24.442C367.061,179.336,405.135,138.495,385.132,135.85Z" transform="translate(-331.232 -135.812)" fill="#3880a3"/>
                <path id="Path_186813" data-name="Path 186813" d="M339.012,153.99s-6.782-5.48-6.4-7.275c.6-2.891-.548-10.125,1.63-5.919,1.37,2.658,2.863,7.069,4.357,6.261s-2.809-3.466-.48-5.288l2.932,4.946a4.384,4.384,0,0,1-.233,4.809Z" transform="translate(-332.599 -134.442)" fill="#ffb47a"/>
                <rect id="Rectangle_6623" data-name="Rectangle 6623" width="7.946" height="4.412" transform="matrix(0.658, -0.753, 0.753, 0.658, 4.362, 20.158)" fill="#3880a3"/>
              </g>
              <path id="Rectangle_6624" data-name="Rectangle 6624" d="M330.66,134.31l-1.3.891a.439.439,0,0,0-.11.589h0l10.522,18.057h0l1.658-1.1h0L330.66,134.392Z" transform="translate(-329.18 -106.484)" fill="#1e3340"/>
              <path id="Path_186814" data-name="Path 186814" d="M341.032,152.658l1.028-1.685a.356.356,0,0,0,0-.37l-9.166-13.248a.356.356,0,0,0-.26-.137l-2.384-2.877Z" transform="translate(-328.784 -106.473)" fill="#1e3340"/>
              <g id="Group_5752" data-name="Group 5752" transform="translate(38.499 4.959)">
                <path id="Path_186823" data-name="Path 186823" d="M357.8,122.689c-1.26,4.261-.11,9.248,2.124,13.262,2.411,4.37,9.33,1,11.8-3.329,2.192-3.822,2.041-9.357-.7-12.495C367.46,116.058,359.472,116.962,357.8,122.689Z" transform="translate(-357.28 -117.62)" fill="#ffc69a"/>
                <path id="Path_186824" data-name="Path 186824" d="M362.76,124.3l7.549-3.083,7.439,18.235a5.083,5.083,0,0,1-2.74,6.658h0a5.11,5.11,0,0,1-6.658-2.74c-.068-.164-.123-.343-.178-.521Z" transform="translate(-355.252 -116.288)" fill="#ffc69a"/>
                <path id="Path_186825" data-name="Path 186825" d="M365.521,134.02l3.864-5.48L365,132.376Z" transform="translate(-354.423 -113.579)" fill="#ffb47a"/>
              </g>
              <path id="Path_186827" data-name="Path 186827" d="M385.174,139.71s-6.645-1.26-15.18,10.686a180.179,180.179,0,0,1-14.8,18.413l-15.18-13.7-3.617,2.74s18.92,24.223,21.592,24.442C367.144,183.21,405.218,142.327,385.174,139.71Z" transform="translate(-326.508 -104.5)" fill="#49a8d6"/>
              <path id="Path_186828" data-name="Path 186828" d="M358.771,123.77s-.891,3.932-2.521,5.48a5.1,5.1,0,0,0,3.384,1.439Z" transform="translate(-319.162 -110.385)" fill="#ffc69a"/>
              <path id="Path_186829" data-name="Path 186829" d="M339.1,157.851s-6.782-5.48-6.4-7.275c.6-2.9-.548-10.125,1.63-5.919,1.37,2.658,2.863,7.069,4.357,6.261s-2.809-3.48-.48-5.288l2.918,4.932a4.329,4.329,0,0,1-.233,4.809Z" transform="translate(-327.881 -103.131)" fill="#ffc69a"/>
              <path id="Path_186830" data-name="Path 186830" d="M372.2,131s-1.48-5.371-8.22-5.371-7.494,0-9.138-3.74,1.644-7.426,1.644-7.426,8.467-1.85,15.947,1.822C378.08,119.056,381.369,130.948,372.2,131Z" transform="translate(-319.853 -114)" fill="#963815"/>
              <path id="Path_186831" data-name="Path 186831" d="M365.4,125.659a2.12,2.12,0,1,0,2.11-2.439,2.315,2.315,0,0,0-2.11,2.439Z" transform="translate(-315.777 -110.588)" fill="#ffc69a"/>
              <rect id="Rectangle_6625" data-name="Rectangle 6625" width="8.535" height="4.74" transform="matrix(0.658, -0.753, 0.753, 0.658, 8.722, 54.52)" fill="#49a8d6"/>
              <path id="Path_186826" data-name="Path 186826" d="M360.789,149.8c.1-2.74,1.439-8.385,3.261-10.426a17.906,17.906,0,0,1,5.357-4.576c4.754-1.808,17.441-2.055,19.564,16.18,2.261,19.962.767,48.185.767,48.185s-7.59.685-24.538-1.11c-4.6-.493-8.22-1.644-8.22-4.617l2.9-21.455Z" transform="translate(-318.892 -106.6)" fill="#49a8d6"/>
              <path id="Path_186832" data-name="Path 186832" d="M375.862,132.6l-10.454,3.179-.438,6.11,12.139-5.768Z" transform="translate(-315.935 -107.117)" fill="#fff"/>
            </g>
            <g id="Group_10821" data-name="Group 10821" transform="translate(30.638)">
              <path id="Path_195904" data-name="Path 195904" d="M370.381,110.717l-1.151,9.59c-3.959-.329-11.111-.781-15.071-.74a14.249,14.249,0,0,1,1.466-4.644,10.673,10.673,0,0,1,4.48-4.11,10.152,10.152,0,0,1,5.357-1.219,16.152,16.152,0,0,1,4.412.945,3.27,3.27,0,0,1,.507.178Z" transform="translate(-350.573 -109.581)" fill="#f2b90c"/>
              <path id="Path_195905" data-name="Path 195905" d="M371.522,111.016l-1.863,9.357c-.11,0-5.083-.548-12.029-.548,0-2.356.151-5.014,1.672-6.946a8.22,8.22,0,0,1,6.22-3.069,8.769,8.769,0,0,1,3.124.63,13.7,13.7,0,0,1,2.877.575Z" transform="translate(-349.289 -109.496)" fill="#b65f2e"/>
              <path id="Path_195906" data-name="Path 195906" d="M377.578,123.693c-2.507-3.864-13.427-4-18.29-4,0-1.247-.329-4.4.493-5.85,3.083-5.4,14.536-4.918,17.441,2.74A22.218,22.218,0,0,1,377.578,123.693Z" transform="translate(-348.7 -109.336)" fill="#f7931e"/>
              <g id="Group_10820" data-name="Group 10820" transform="translate(21.355 3.772)">
                <path id="Path_195570" data-name="Path 195570" d="M368.925,113h0l-1.7-.411a.151.151,0,0,1-.1-.164.11.11,0,0,1,.151-.082l1.713.411a.137.137,0,0,1,0,.164.11.11,0,0,1-.11.082Z" transform="translate(-367.129 -112.334)" fill="#591914"/>
              </g>
              <g id="Group_10819" data-name="Group 10819" transform="translate(21.374 4.739)">
                <path id="Path_195571" data-name="Path 195571" d="M368.756,113.711h0l-1.534-.425a.123.123,0,0,1-.068-.164.151.151,0,0,1,.137-.082l1.534.425a.137.137,0,0,1,0,.164.123.123,0,0,1-.11.082Z" transform="translate(-367.143 -113.04)" fill="#591914"/>
              </g>
              <g id="Group_10817" data-name="Group 10817" transform="translate(25.237 5.009)">
                <path id="Path_195572" data-name="Path 195572" d="M371.576,114.036h0l-1.576-.6a.123.123,0,0,1,0-.178.137.137,0,0,1,.137,0l1.576.6a.137.137,0,0,1,0,.164.11.11,0,0,1-.109.082Z" transform="translate(-369.962 -113.237)" fill="#591914"/>
              </g>
              <g id="Group_10818" data-name="Group 10818" transform="translate(25.251 5.858)">
                <path id="Path_195573" data-name="Path 195573" d="M371.572,114.587h0l-1.562-.534a.123.123,0,0,1,0-.178.137.137,0,0,1,.137,0l1.576.562a.137.137,0,0,1,0,.164.123.123,0,0,1-.11.082Z" transform="translate(-369.972 -113.857)" fill="#591914"/>
              </g>
              <g id="Group_10816" data-name="Group 10816" transform="translate(23.919 4.698)">
                <path id="Path_195574" data-name="Path 195574" d="M369.685,113.353a.356.356,0,0,1-.343.343.343.343,0,1,1,.343-.343Z" transform="translate(-369 -113.01)" fill="#591914"/>
              </g>
              <path id="Path_195902" data-name="Path 195902" d="M380.165,121.208h0c-2.384-3.891-12.577-3.918-17.372-4-2.631-.1-10.563-.891-10.563,1.37,0,.836,1.9,1.754,3.562,2.124.123-.342.233-.945.945-.932,5.727.082,15.5.411,20.619,2.987a2.9,2.9,0,0,1,1.219,2.644,2.658,2.658,0,0,0,2.028-3.151,2.6,2.6,0,0,0-.438-1.041Z" transform="translate(-351.287 -106.837)" fill="#b96e16"/>
              <path id="Path_195903" data-name="Path 195903" d="M380.6,121.412c-3.261-5.7-26.031-6.289-28.662-3.918-1.137,1,.288,2.48,2.932,3.165a4.11,4.11,0,0,1-1.959-1.26c-2.192-3.439,19-1.726,24.223.151a6.577,6.577,0,0,1,3.1,2.055h0a2.918,2.918,0,0,1,.534,1.671,2.439,2.439,0,0,1-.562,1.658C381.927,123.837,380.6,121.412,380.6,121.412Z" transform="translate(-351.542 -107.137)" fill="#f8e000"/>
            </g>
          </g>
          <g id="Group_10831" data-name="Group 10831" transform="translate(0 8.531)">
            <g id="Group_5745" data-name="Group 5745" transform="translate(16.023 177.809)">
              <path id="Path_186815-2" data-name="Path 186815-2" d="M238.656,249.863V245.59l-4.476.145.683,4.607Z" transform="translate(-233.219 -245.59)" fill="#ffc69a"/>
              <path id="Path_186816-2" data-name="Path 186816-2" d="M239.513,247.816a26.361,26.361,0,0,1,2.588,3.212c1.225,1.52,2.646,3.139,2.646,3.139A40.677,40.677,0,0,0,248.233,257c1.366.916,2.587,1.831,2.834,2.616.291.218-.828,1.264-2.834.61-2.907-.959-6.206-2.093-9.025-3.227-.494-.2-1.73-2.631-2.195-2.834s0,1.889-.436,1.715a22.771,22.771,0,0,0-2.923-.77c.421.218.116-6.807.464-7.752Z" transform="translate(-233.654 -244.851)" fill="#003d57"/>
            </g>
            <g id="Group_5822-3" data-name="Group 5822-3" transform="translate(32.482 178.727)">
              <path id="Path_187012-3" data-name="Path 187012-3" d="M247.06,248.23a38.839,38.839,0,0,0-.78,6.517,11.476,11.476,0,0,0,1.883.147l.25-.853a5.03,5.03,0,0,0,1.147.927,61.788,61.788,0,0,0,12.946,1.295c3.928-.368,6.591-1.913,2.942-1.957s-13.3-6.076-13.3-6.076Z" transform="translate(-246.28 -245.531)" fill="#003d57"/>
              <g id="Group_5821-3" data-name="Group 5821-3" transform="translate(1.603)">
                <path id="Path_187013-3" data-name="Path 187013-3" d="M246.843,248.959l-.123-2.521,3.617-.178.137,2.74Z" transform="translate(-246.72 -246.26)" fill="#ffb780"/>
              </g>
            </g>
            <path id="Path_195704" data-name="Path 195704" d="M260.137,188.994l26.031-30.278s1.7-1.233-2.946-3.727-7.6,0-7.6,0-22.3,33.566-21.167,33.566S260.137,188.994,260.137,188.994Z" transform="translate(-209.789 -101.718)" fill="#6f81a6"/>
            <path id="Path_195705" data-name="Path 195705" d="M254.384,140.61s7.4,31.909,16.92,36.115l-6.33,5.316c-5.48-3.439-9.851-6.85-12.865-12.536C246.889,159.9,254.384,140.61,254.384,140.61Z" transform="translate(-211.324 -106.629)" fill="#ffb939"/>
            <path id="Path_195707" data-name="Path 195707" d="M237.2,190.885l15.071,40.458-3.453,40.006H254.9l8.357-42.307L254.9,180.61Z" transform="translate(-216.158 -91.827)" fill="#003d57"/>
            <path id="Path_195709" data-name="Path 195709" d="M255.452,181.512v16.605l-6.6,8.124s-5.234,20.14-6.631,36.43a145.728,145.728,0,0,0,0,27.4l-7.686,1.247s-4.439-33.84-2.74-45.212-3.3-20.332-2.6-32.046,1.754-13.481,1.754-13.481Z" transform="translate(-219.147 -91.838)" fill="#005479"/>
            <path id="Path_195710" data-name="Path 195710" d="M240.889,168l-11.4,17.811,28.415.945,3.877-15.92Z" transform="translate(-219.011 -96.493)" fill="#ffb939"/>
            <path id="Path_195711" data-name="Path 195711" d="M261.618,141.314s-16.3-3.384-24.853-2.439a22.866,22.866,0,0,0-6.056,1.151l7.768,45.212s19.414,1.247,19.879.781S262.851,149.548,261.618,141.314Z" transform="translate(-218.559 -107.333)" fill="#ffb939"/>
            <path id="Path_195713" data-name="Path 195713" d="M281.92,158.115l-24.373,30.58s-4.494-.315-3.562-1.247,21.921-32.758,21.921-32.758S274.782,161.527,281.92,158.115Z" transform="translate(-209.994 -101.419)" fill="#d6e9fa"/>
            <path id="Path_195714" data-name="Path 195714" d="M239.352,153.89s-.548,5.987,2.329,8.864,51.391,2.507,56.049-5.48l-26.552,31.059c-5.932,1.082-12.029,2.192-17.811.589-10.1-2.644-16.441.932-21.428-.932a36.484,36.484,0,0,0-8.7-2.178Z" transform="translate(-221.324 -101.715)" fill="#99c8f2"/>
            <path id="Path_195715" data-name="Path 195715" d="M222.55,165.537s2.028-18.825,11.18-25.867c0,0,6.11,16.715,3.343,19.482s-6.85,7.809-6.85,7.809S229.688,167.235,222.55,165.537Z" transform="translate(-221.579 -106.977)" fill="#ffb939"/>
            <path id="Path_195716" data-name="Path 195716" d="M229.8,159.108s3.151,2.493.877,11.577l-4.042,4.206s-7.385-9.59-3.822-16.084C222.812,158.807,227.169,156.478,229.8,159.108Z" transform="translate(-221.841 -100.247)" fill="#ffb939"/>
            <path id="Path_195717" data-name="Path 195717" d="M234.983,172.625s-3.37-1.48-4.192-3.261-.069-2.384-.575-2.891-2.48-.11-2.987.4-2,1.123-1.7,2.987-1.589,2.48-1.589,3.343a5.48,5.48,0,0,0,1.3,3.1c.685.685,3.137.836,4.836.288s-2.082-1.63-2.082-1.63,4.507.849,5.288.082-3.891-1.863-3.891-1.863a48.65,48.65,0,0,0,5.055.849C235.476,174.022,234.983,172.625,234.983,172.625Z" transform="translate(-221.065 -97.145)" fill="#ffb780"/>
            <path id="Path_187022" data-name="Path 187022" d="M242.76,121.087s4.384-2.055,6.22,0a10.1,10.1,0,0,1,2.576,7.412Z" transform="translate(-214.1 -114.192)" fill="#411809"/>
            <path id="Path_187024" data-name="Path 187024" d="M238.81,138.416l1.48-3.466c4.343,1.863,10.728,6.974,10.96,7.179v4.8C251.291,147.5,242.687,140.06,238.81,138.416Z" transform="translate(-215.562 -108.724)" fill="#fff"/>
            <path id="Path_187025" data-name="Path 187025" d="M251.475,123.488c3.453,4.357,2.74,10.1,1.192,13.824-2.069,4.74-8.535,3.85-12.221.247-3.261-3.206-4.686-8.755-2.822-12.673a8.344,8.344,0,0,1,11.262-3.507,8.6,8.6,0,0,1,2.589,2.11Z" transform="translate(-216.307 -114.1)" fill="#ffb780"/>
            <path id="Path_187026" data-name="Path 187026" d="M246.267,125.15l-7.467.6,1.37,17.811c.233,3.11,8.1,5.7,8.1,5.7,1.863.137.685-3.891.178-6.658Z" transform="translate(-215.566 -112.35)" fill="#ffb780"/>
            <path id="Path_187027" data-name="Path 187027" d="M248.839,122.918s-9.193-1.123-6.357,12.837c1.6,7.946-15.975-7.686,1.37-14.632,11.234-4.48,10.166,6.85,10.166,6.85S253.4,122.123,248.839,122.918Z" transform="translate(-216.548 -114.228)" fill="#411809"/>
            <path id="Path_187028" data-name="Path 187028" d="M246.968,137.233l-4.658-2.6,4.425.767Z" transform="translate(-214.267 -108.842)" opacity="0.1"/>
            <path id="Path_187030" data-name="Path 187030" d="M250.63,148.656v-6.083c-3.59-3.453-10.96-5.919-11.262-6.083l-1.809,3.439C237.642,140.025,247.438,145.587,250.63,148.656Z" transform="translate(-216.024 -108.154)" fill="#fff"/>
            <path id="Path_187031" data-name="Path 187031" d="M251.677,123.652s-9.8-.3-8.864,5.823c.438,2.9-4.357,2.37-4.11.219C240.2,114.376,251.677,123.652,251.677,123.652Z" transform="translate(-215.605 -113.934)" fill="#411809"/>
            <g id="Group_5829" data-name="Group 5829" transform="translate(23.328 16.275)">
              <path id="Path_187032" data-name="Path 187032" d="M239.515,130.856a1.589,1.589,0,0,0,2.192.425l.192-.164a2.069,2.069,0,0,0-.233-2.74,1.576,1.576,0,0,0-2.178-.425l-.192.164a2.041,2.041,0,0,0,.219,2.74Z" transform="translate(-238.868 -127.686)" fill="#ffb780"/>
            </g>
            <path id="Path_187068" data-name="Path 187068" d="M248.732,125.15a14.7,14.7,0,0,0,2.959,4.74l-3.781,1.521Z" transform="translate(-212.194 -112.35)" fill="#ffb780"/>
            <path id="Path_187070" data-name="Path 187070" d="M242.226,127.61s5.9,3.548,10.865,1.987c0,0,2.411,8.07-1.891,9.741-3.644,1.37-9.508-.274-12.18-5.083Z" transform="translate(-215.484 -111.44)" fill="#411809"/>
            <g id="Group_10830" data-name="Group 10830" transform="translate(17.587)">
              <path id="Path_195907" data-name="Path 195907" d="M238.46,117.636s2.124,6.754,2.1,6.686c2.74-.781,6.494-1.589,9.234-2.1a7.316,7.316,0,0,0-2.014-3.672c-1.37-.973-3.932-2.535-6.015-2.329a6.672,6.672,0,0,0-3.3,1.411Z" transform="translate(-233.278 -115.66)" fill="#f2b90c"/>
              <path id="Path_195908" data-name="Path 195908" d="M238.67,117.565c0,.082,2.206,6.85,2.192,6.85,2.836-.795,7.987-2.151,10.878-2.74a10.782,10.782,0,0,0-1.658-3.137,7.987,7.987,0,0,0-3.85-2.384,7.659,7.659,0,0,0-4.11-.123,12.015,12.015,0,0,0-3.083,1.37A1.961,1.961,0,0,0,238.67,117.565Z" transform="translate(-233.2 -115.807)" fill="#f2b90c"/>
              <path id="Path_195909" data-name="Path 195909" d="M237.43,118.035l2.74,6.563c.082,0,3.631-1.123,8.7-2.11a8.111,8.111,0,0,0-2.206-4.823,6.015,6.015,0,0,0-4.973-1.37,6.59,6.59,0,0,0-2.178.891,10.521,10.521,0,0,0-2.082.849Z" transform="translate(-233.659 -115.661)" fill="#b65f2e"/>
              <path id="Path_195910" data-name="Path 195910" d="M235.434,128.142c1.274-3.165,9.22-4.823,12.769-5.48a10.084,10.084,0,0,0-1.192-4.206c-3.014-3.494-11.3-1.521-12.33,4.466A16.222,16.222,0,0,0,235.434,128.142Z" transform="translate(-234.678 -115.466)" fill="#f7931e"/>
              <g id="Group_10825" data-name="Group 10825" transform="translate(3.406 3.905)">
                <path id="Path_195660" data-name="Path 195660" d="M237.268,119.387h0l1.178-.548a.1.1,0,0,0-.069-.178h0l-1.192.548a.1.1,0,0,0,0,.123.082.082,0,0,0,.082.055Z" transform="translate(-237.164 -118.658)" fill="#591914"/>
              </g>
              <g id="Group_10826" data-name="Group 10826" transform="translate(3.639 4.655)">
                <path id="Path_195661" data-name="Path 195661" d="M237.466,119.87h0l1.055-.521a.082.082,0,0,0,0-.123h0a.082.082,0,0,0-.11,0h0l-1.055.521a.1.1,0,0,0,0,.123h0a.082.082,0,0,0,.11,0Z" transform="translate(-237.334 -119.205)" fill="#591914"/>
              </g>
              <g id="Group_10827" data-name="Group 10827" transform="translate(0.871 5.336)">
                <path id="Path_195662" data-name="Path 195662" d="M235.459,120.521h0l1.069-.671a.1.1,0,0,0,0-.123h0a.11.11,0,0,0-.137,0h0l-1.055.671a.1.1,0,0,0,0,.123h0a.082.082,0,0,0,.123,0Z" transform="translate(-235.314 -119.702)" fill="#591914"/>
              </g>
              <g id="Group_10829" data-name="Group 10829" transform="translate(0.971 5.921)">
                <path id="Path_195663" data-name="Path 195663" d="M235.542,120.925h0l1.069-.644a.11.11,0,0,0,0-.123.1.1,0,0,0-.137,0h0l-1.069.644a.11.11,0,0,0,0,.123.1.1,0,0,0,.137,0Z" transform="translate(-235.386 -120.129)" fill="#591914"/>
              </g>
              <g id="Group_10828" data-name="Group 10828" transform="translate(2.547 4.97)">
                <path id="Path_195664" data-name="Path 195664" d="M236.541,119.743a.253.253,0,1,0,.493-.11.233.233,0,0,0-.288-.192h0A.26.26,0,0,0,236.541,119.743Z" transform="translate(-236.537 -119.435)" fill="#591914"/>
              </g>
              <path id="Path_195912" data-name="Path 195912" d="M235.283,126.851h0c1.192-3.165,8.631-4.644,12.111-5.371,1.9-.452,7.576-2.151,7.892-.548.11.6-.562,1.247-1.713,1.754-.137-.233-.891-.356-1.37-.247-4.179.863-11.262,2.494-14.618,5.1a3.247,3.247,0,0,0-.986,2.1C234.886,129.495,234.845,127.988,235.283,126.851Z" transform="translate(-234.54 -114.161)" fill="#b96e16"/>
              <path id="Path_195911" data-name="Path 195911" d="M235.191,126.93c1.576-4.617,18.044-8.22,20.345-6.85.973.562.137,1.85-1.685,2.74a2.987,2.987,0,0,0,1.247-1.192c1.11-2.822-14.1,1.37-17.633,3.548a4.74,4.74,0,0,0-1.973,1.945h0a2.959,2.959,0,0,0,.233,2.493C234.328,129,235.191,126.93,235.191,126.93Z" transform="translate(-234.585 -114.335)" fill="#f8e000"/>
            </g>
            <path id="Path_195707-2" data-name="Path 195707" d="M374.32,196.207l-9.33,32.881a.438.438,0,0,0,0,.192l3.4,39.293a.548.548,0,0,1-.548.6h-5.028a.576.576,0,0,1-.548-.438l-8.22-41.759a.453.453,0,0,1,0-.192l8.111-47.007a.562.562,0,0,1,1-.219l11.152,16.221A.521.521,0,0,1,374.32,196.207Z" transform="translate(-172.923 -92.299)" fill="#003d57"/>
            <path id="Path_195709-2" data-name="Path 195709" d="M361.43,179.565V196.17l6.59,8.124s5.247,20.126,6.631,36.43a143.465,143.465,0,0,1,0,27.4l7.686,1.233s4.439-33.84,2.74-45.212,3.288-20.332,2.589-32.032-1.754-13.5-1.754-13.5Z" transform="translate(-170.186 -92.563)" fill="#005479"/>
          </g>
        </g>
      </g>
      <path id="Path_195718" data-name="Path 195718" d="M267.61,167.876s-2.946-1.713-2.946-.438,1.63,2.151,1.63,2.151-2.192-1.233-2.672-.315.973,1.452.973,1.452-1.726-.288-2.288.274.863,1.85.863,1.85-1.521-.617-1.521,0,1.493,1.767,2.822,1.767,2.863,0,3.316-1.028.849-.74,1.37-1.822S267.61,168.479,267.61,167.876Z" transform="translate(116.764 61.308)" fill="#ffb780"/>
      <g id="Group_14790" data-name="Group 14790" transform="translate(449.912 324.283) rotate(160)">
        <g id="Group_5762" data-name="Group 5762" transform="translate(0 0)">
          <path id="Path_186836" data-name="Path 186836" d="M32.948,7.652c-1.865,6.066-4.035,11.3-6.034,11.138-1.576-.13-2.129-3.54-3.459-3.476-2.361.136-2.471,11.007-5.214,11.416-1.448.217-2.077-4.745-4.148-4.849-1.712-.087-2.1,3.157-5.544,5.533C6.559,28.8,3,30.249,1.263,28.9c-1.932-1.474-1.573-6.2.565-9.269,3.3-4.736,10.243-4.693,10.138-6.532-.078-1.573-5.2-2.028-5.324-4.09C6.579,7.962,7.836,7.1,8.166,6.87c4.29-2.943,11.845,1.292,12.184.5.081-.188-.29-.579-2.7-2.288C13.731,2.3,12.7,1.893,12.778,1.372c.162-1.078,4.861-1.9,9.209-.959A19.7,19.7,0,0,1,32.948,7.652Z" fill="#1b4e67"/>
          <path id="Path_186837" data-name="Path 186837" d="M23.863,0S14.122.972,0,14.343" transform="translate(7.616 7.525)" fill="none" stroke="#38728f" stroke-linecap="round" stroke-miterlimit="10" stroke-width="1"/>
        </g>
        <g id="Group_5766" data-name="Group 5766" transform="translate(10.421 3.577)">
          <path id="Path_186844" data-name="Path 186844" d="M35.772,4.774c.211,8.69-.327,16.442-3,17.091-2.1.513-4.3-3.676-6-3-3.007,1.2,1.576,15.378-1.8,17.09-1.8.91-4.762-5.263-7.5-4.5-2.259.632-1.353,5.011-4.8,9.594-2,2.659-5.976,6.083-8.847,5.1C.69,45.082-.906,38.781.534,33.863,2.759,26.276,11.8,23.31,10.881,20.967c-.788-2.007-7.63-.359-8.69-3-.542-1.341.718-3.013,1.051-3.45,4.29-5.689,15.946-3.476,16.042-4.635.023-.29-.611-.623-4.5-1.8C8.479,6.171,6.964,6.107,6.84,5.386,6.582,3.911,12.326.8,18.386.137,26.074-.715,32.418,2.6,35.772,4.774Z" fill="#49a8d6"/>
          <path id="Path_186845" data-name="Path 186845" d="M25.826,0S12.855,5.431,0,29.541" transform="translate(7.983 5.247)" fill="none" stroke="#3880a3" stroke-linecap="round" stroke-miterlimit="10" stroke-width="1"/>
        </g>
      </g>
      <g id="Group_22021" data-name="Group 22021" transform="translate(-152.615 245.67)">
        <path id="Path_200088" data-name="Path 200088" d="M308.065,76.7V74.007H251.057V76.7l28.5,15.7Z" transform="translate(0 8.27)" fill="#535b65"/>
        <path id="Path_200089" data-name="Path 200089" d="M308.065,76.449l-28.5-14.735h0l-28.5,14.735,28.5,15.7h0Z" transform="translate(0 5.828)" fill="#fbb03b"/>
        <g id="Group_14806" data-name="Group 14806" transform="translate(259.797 33.707)">
          <g id="Group_14799" data-name="Group 14799">
            <path id="Path_200090" data-name="Path 200090" d="M284.3,33.487a32.128,32.128,0,0,1-4.874.372,32.15,32.15,0,0,1-4.875-.372c-5.188,16.877-10.267,32.479-14.89,46.809a32.984,32.984,0,0,0,39.528,0C294.567,65.966,289.487,50.364,284.3,33.487Z" transform="translate(-259.661 -33.487)" fill="#fff"/>
          </g>
          <g id="Group_14801" data-name="Group 14801" transform="translate(0 37.96)">
            <g id="Group_14800" data-name="Group 14800">
              <path id="Path_200091" data-name="Path 200091" d="M259.661,74a32.979,32.979,0,0,0,39.528,0q-1.4-4.344-2.856-8.847a32.723,32.723,0,0,1-33.814,0Q261.065,69.658,259.661,74Z" transform="translate(-259.661 -65.156)" fill="#e58126"/>
            </g>
          </g>
          <g id="Group_14803" data-name="Group 14803" transform="translate(5.728 19.588)">
            <g id="Group_14802" data-name="Group 14802">
              <path id="Path_200092" data-name="Path 200092" d="M265.3,59.294a32.519,32.519,0,0,0,28.072,0q-1.495-4.655-3.027-9.465a32.346,32.346,0,0,1-22.017,0Q266.8,54.64,265.3,59.294Z" transform="translate(-265.3 -49.829)" fill="#e58126"/>
            </g>
          </g>
          <g id="Group_14805" data-name="Group 14805" transform="translate(11.759)">
            <g id="Group_14804" data-name="Group 14804">
              <path id="Path_200093" data-name="Path 200093" d="M284.116,33.487a32.127,32.127,0,0,1-4.874.372,32.149,32.149,0,0,1-4.875-.372q-1.573,5.119-3.131,10.081a32.241,32.241,0,0,0,16.01,0Q285.691,38.605,284.116,33.487Z" transform="translate(-271.237 -33.487)" fill="#e58126"/>
            </g>
          </g>
        </g>
        <ellipse id="Ellipse_767" data-name="Ellipse 767" cx="4.874" cy="1.33" rx="4.874" ry="1.33" transform="translate(274.687 32.378)" fill="#535b65"/>
      </g>
    </g>
  </g>
</svg>
