<svg xmlns="http://www.w3.org/2000/svg" xmlns:xlink="http://www.w3.org/1999/xlink" width="540" height="330" viewBox="0 0 540 330">
  <defs>
    <filter id="Path_200716" x="67.132" y="67.702" width="132.032" height="203.671" filterUnits="userSpaceOnUse">
      <feOffset dx="5" input="SourceAlpha"/>
      <feGaussianBlur stdDeviation="3" result="blur"/>
      <feFlood flood-opacity="0.161"/>
      <feComposite operator="in" in2="blur"/>
      <feComposite in="SourceGraphic"/>
    </filter>
  </defs>
  <g id="Group_22024" data-name="Group 22024" transform="translate(-546 -8856)">
    <g id="ilustrator" transform="translate(-474.984 8562.146)">
      <path id="shadow" d="M1063.094,580.93c20.477,8.894,31.505,8.121,103.069,6.431s112.958-6.431,188.45-6.431,82.607,7.689,135.019,6.431,92.234-7.573,99.684-23.262-35.907-28.4-73.578-28.4-36.227,18.183-98.02,18.883-194.692,0-194.692,0-98.719-5.177-138.773-2.8S1042.617,572.036,1063.094,580.93Z" transform="translate(-29.176 35.43)" fill="#fff" opacity="0.5"/>
      <g id="Group_15540" data-name="Group 15540" transform="translate(1020.984 293.854)">
        <g id="Group_15545" data-name="Group 15545" transform="translate(123.156 0)">
          <g id="Group_15796" data-name="Group 15796" transform="translate(272.811 171.072)">
            <g id="Group_15669" data-name="Group 15669" transform="translate(0 0)">
              <g id="Group_15668" data-name="Group 15668">
                <path id="Path_200979" data-name="Path 200979" d="M-214.323-576.8h-12.825a5.367,5.367,0,0,1-5.362-5.361v-12.824a5.367,5.367,0,0,1,5.362-5.361h12.825a5.366,5.366,0,0,1,5.36,5.361v12.824A5.366,5.366,0,0,1-214.323-576.8Zm-12.825-22.053a3.873,3.873,0,0,0-3.869,3.868v12.824a3.873,3.873,0,0,0,3.869,3.868h12.825a3.872,3.872,0,0,0,3.867-3.868v-12.824a3.872,3.872,0,0,0-3.867-3.868Z" transform="translate(232.51 600.344)" fill="#848f38"/>
              </g>
            </g>
          </g>
          <rect id="Rectangle_8004_1_" width="53.892" height="38.207" transform="translate(129.232 222.737)" fill="#c9e5fc"/>
          <path id="Path_197883_1_" d="M322.928,221.4H213.43a6.23,6.23,0,1,0,0,12.461h109.5a6.249,6.249,0,0,0,6.23-6.23,6.056,6.056,0,0,0-6.23-6.23h0" transform="translate(-111.924 38.922)" fill="#c9e5fc"/>
          <path id="Path_197884_1_" d="M329.259,226.058a6.249,6.249,0,0,1-6.23,6.23H213.53a6.249,6.249,0,0,1-6.23-6.23,5.3,5.3,0,0,1,.156-1.558,6.016,6.016,0,0,0,6.075,4.673h109.5A6.353,6.353,0,0,0,329.1,224.5c0,.467.156.935.156,1.558" transform="translate(-111.868 40.65)" fill="#8fcaf2"/>
          <path id="Path_200640" data-name="Path 200640" d="M1902.177,2071.287h291.155a16.486,16.486,0,0,0,16.486-16.486V1859.118a16.487,16.487,0,0,0-16.486-16.486H1902.177a16.485,16.485,0,0,0-16.486,16.486V2054.8a16.485,16.485,0,0,0,16.486,16.486Z" transform="translate(-1885.691 -1842.632)" fill="#fff"/>
          <path id="Path_200641" data-name="Path 200641" d="M1897.435,2012.936h298.738V1820.115H1897.435v192.821Z" transform="translate(-1884.743 -1808.744)" fill="#6c4848"/>
          <rect id="Rectangle_9327" data-name="Rectangle 9327" width="298.427" height="28.534" transform="translate(12.748 20.158)" fill="#9e7171"/>
          <path id="Path_200679" data-name="Path 200679" d="M1948.026,1837.576h-35.483a3.564,3.564,0,0,1-3.563-3.563v-2.785a3.563,3.563,0,0,1,3.563-3.563h35.483a3.563,3.563,0,0,1,3.562,3.563v2.785a3.563,3.563,0,0,1-3.562,3.563Z" transform="translate(-1883.809 -1798.365)" fill="#fafafc"/>
          <path id="Path_200725" data-name="Path 200725" d="M2174.154,2051.3h33.731v2h-33.731v-2Z" transform="translate(-1862.379 -1825.416)" fill="#e9d9cd"/>
          <path id="Path_200726" data-name="Path 200726" d="M2201.4,2125.016h-2.955v-67.045h2.955v67.045Z" transform="translate(-1860.415 -1824.763)" fill="#fff"/>
          <path id="Path_200727" data-name="Path 200727" d="M2157.344,2050.772h23.447v2.86h-23.447v-2.86Z" transform="translate(-1863.736 -1825.459)" fill="#d5c4b7"/>
          <path id="Path_200728" data-name="Path 200728" d="M2164.083,2055.167h8.879V2028.2h-8.879v26.967Z" transform="translate(-1863.191 -1827.293)" fill="#8c91d1"/>
          <path id="Path_200729" data-name="Path 200729" d="M2096.363,2058.358h129.91v-5.177h-129.91v5.177Z" transform="translate(-1868.665 -1825.256)" fill="#ba916d"/>
          <path id="Path_200744" data-name="Path 200744" d="M2185.8,2035.159a.018.018,0,0,1,.015,0c-.064.027-.072.029-.015,0Z" transform="translate(-1861.44 -1826.75)" fill="#2d214b"/>
          <path id="Path_200755" data-name="Path 200755" d="M2111.741,2125.016h2.956v-67.045h-2.956v67.045Z" transform="translate(-1867.422 -1824.763)" fill="#fff"/>
          <path id="Path_200756" data-name="Path 200756" d="M2136.624,2044.262h68.869a3.9,3.9,0,0,0,3.9-3.9v-46.288a3.9,3.9,0,0,0-3.9-3.9h-68.869a3.9,3.9,0,0,0-3.9,3.9v46.288a3.9,3.9,0,0,0,3.9,3.9Z" transform="translate(-1865.727 -1830.406)" fill="#a2aaf2"/>
          <path id="Path_200757" data-name="Path 200757" d="M2135.5,2035.568h70.664v-42.686H2135.5v42.686Z" transform="translate(-1865.502 -1830.195)" fill="#58615b"/>
          <path id="Path_200760" data-name="Path 200760" d="M2185.956,2000.663h12.934c.72,0,1.3-.419,1.3-.937v-.4c0-.518-.583-.938-1.3-.938h-12.934c-.719,0-1.3.42-1.3.938v.4c0,.518.584.938,1.3.938Z" transform="translate(-1871.762 -1826.365)" fill="#fff"/>
          <path id="Path_201225" data-name="Path 201225" d="M2186.4,2000.663h17.365c.967,0,1.75-.419,1.75-.937v-.4c0-.518-.783-.938-1.75-.938H2186.4c-.966,0-1.75.42-1.75.938v.4c0,.518.783.938,1.75.938Z" transform="translate(-1871.762 -1821.811)" fill="#fff"/>
          <path id="Path_201226" data-name="Path 201226" d="M2186.169,2000.663h15.045c.838,0,1.516-.419,1.516-.937v-.4c0-.518-.678-.938-1.516-.938h-15.045c-.837,0-1.516.42-1.516.938v.4c0,.518.679.938,1.516.938Z" transform="translate(-1871.762 -1817.256)" fill="#fff"/>
          <path id="Path_201227" data-name="Path 201227" d="M2186.52,2000.663h18.526c1.031,0,1.867-.419,1.867-.937v-.4c0-.518-.836-.938-1.867-.938H2186.52c-1.031,0-1.867.42-1.867.938v.4c0,.518.836.938,1.867.938Z" transform="translate(-1871.762 -1812.701)" fill="#fff"/>
          <path id="Path_200762" data-name="Path 200762" d="M2165.9,2036.35a2.473,2.473,0,1,0,2.472-2.474,2.472,2.472,0,0,0-2.472,2.474Z" transform="translate(-1863.045 -1826.85)" fill="#594945"/>
          <g id="Group_15994" data-name="Group 15994" transform="translate(281.846 167.864)" opacity="0.8">
            <path id="Path_200768" data-name="Path 200768" d="M2170.633,2009.771a9.981,9.981,0,1,1-9.98-9.981,9.981,9.981,0,0,1,9.98,9.981Z" transform="translate(-2150.67 -1999.79)" fill="#f5f5f9"/>
            <path id="Path_200769" data-name="Path 200769" d="M2166.892,2014.294l-.736,2.641a9.925,9.925,0,0,1-4.539,1.758c-.3.037-.6.059-.9.069-.108,0-.217.005-.326.005-.323,0-.643-.015-.958-.045a10.185,10.185,0,0,1-1.039-.154,9.919,9.919,0,0,1-4.079-1.863c-.141-.873-.294-1.838-.427-2.743.734-.272,3.069-1.067,4.542-1.565l.062-.021c.033-.012.064-.023.1-.032.087-.031.169-.058.25-.084l.229-.079.591-.2h0l.029-.011h.017l1.981.149.333.024.1.008.045.012c.12.03.467.121.927.261h0c1.174.358,3.076,1.041,3.794,1.865Z" transform="translate(-2150.41 -1998.806)" fill="#fff"/>
            <path id="Path_200770" data-name="Path 200770" d="M2160.6,2004.441s2.375.4,1.972,4.121-2.5,3.393-2.64,3.387-2.11.044-2.214-4.505c0,0-.031-3.361,2.882-3Z" transform="translate(-2150.1 -1999.417)" fill="#edac84"/>
            <path id="Path_200771" data-name="Path 200771" d="M2161.583,2010.42a8.615,8.615,0,0,0,.063,1.864c.145.333-1.908,1.388-3.184.186a13.032,13.032,0,0,0,.178-2.264c-.08-.591,2.943.213,2.943.213Z" transform="translate(-2150.041 -1998.966)" fill="#edac84"/>
            <path id="Path_200772" data-name="Path 200772" d="M2162.268,2007.288s.264-.274.355.008-.42,1.537-.388,1.594c0,0-.049.109-.111.048a13.667,13.667,0,0,1,.144-1.65Z" transform="translate(-2149.745 -1999.194)" fill="#edac84"/>
            <path id="Path_200773" data-name="Path 200773" d="M2157.774,2007.2s-.253-.287-.358-.007a4.77,4.77,0,0,0,.325,1.607s.081.129.146.072a13.612,13.612,0,0,0-.112-1.671Z" transform="translate(-2150.126 -1999.202)" fill="#edac84"/>
            <path id="Path_200774" data-name="Path 200774" d="M2162.787,2007.241c-.082.509-.16.887-.16.887l-.346.452a9.053,9.053,0,0,0-.031-1.155c-.021-.061-.043-.166-.068-.279-.04-.188-.081-.4-.108-.472a5.093,5.093,0,0,0-3.811.123s.015.153.014.324c0,.2-.023.423-.114.456-.171.063-.1,1.169-.1,1.169l-.277-.319s-.08-.577-.16-1.242v0c-.017-.156-.035-.315-.053-.473a3.107,3.107,0,0,1,.9-2.6,4.288,4.288,0,0,1,3.087.014,1.074,1.074,0,0,1,.459.121,4.414,4.414,0,0,1,.77,2.994Z" transform="translate(-2150.112 -1999.463)" fill="#541c09"/>
            <path id="Path_200777" data-name="Path 200777" d="M2161.466,2011.834a6.594,6.594,0,0,1-1.521,1.319l.643.991,1.1-1.958-.22-.352Z" transform="translate(-2149.921 -1998.817)" fill="#49a8d6"/>
            <path id="Path_200778" data-name="Path 200778" d="M2158.535,2011.972a4.433,4.433,0,0,0,1.555,1.169l-.707,1.02-1.234-1.787.386-.4Z" transform="translate(-2150.066 -1998.806)" fill="#49a8d6"/>
            <path id="Path_200780" data-name="Path 200780" d="M2166.952,2014.123l-.015.055c-.061.215-.294,1.043-.6,2.146-.115.1-.231.2-.35.289s-.271.208-.412.308a9.929,9.929,0,0,1-4.539,1.757c.147-3.455.556-6.518.556-6.518.324.085.631.17.922.253h0a21.155,21.155,0,0,1,4.254,1.606l.01,0c.115.064.167.1.167.1Z" transform="translate(-2149.832 -1998.79)" fill="#49a8d6"/>
            <path id="Path_200781" data-name="Path 200781" d="M2158.476,2018.537a10.025,10.025,0,0,1-5.088-2.75c-.062-.062-.122-.125-.181-.188l-.125-.53-.173-.729h0s1.235-.812,5.6-1.977v0c0,.1,0,2.9-.035,6.171Z" transform="translate(-2150.489 -1998.775)" fill="#49a8d6"/>
            <path id="Path_200782" data-name="Path 200782" d="M2160.6,2014.011c-.04.91-.085,4.7-.085,4.7h-.541c-.323,0-.643-.015-.958-.045.192-2.484.258-4.037.4-4.653a1.749,1.749,0,0,1,.3-.5l.341-.433c0,.064.315.471.313.546Z" transform="translate(-2149.995 -1998.748)" fill="#0b1651"/>
            <path id="Path_200783" data-name="Path 200783" d="M2167.085,2015.045a9.986,9.986,0,0,1-1.115,1.132c-.115.1-.231.2-.35.289,0-.012.573-1.673.962-2.49.264.177.384.775.5,1.069Z" transform="translate(-2149.461 -1998.644)" fill="#2d214b"/>
            <path id="Path_200784" data-name="Path 200784" d="M2153.413,2015.639c-.062-.062-.122-.125-.181-.188a9.719,9.719,0,0,1-.634-.742,1.145,1.145,0,0,1,.335-.517h0l.48,1.446Z" transform="translate(-2150.513 -1998.626)" fill="#2d214b"/>
          </g>
          <path id="Path_197943_1_" d="M255.284,202.242a6.542,6.542,0,1,1-6.542-6.542h0a6.686,6.686,0,0,1,6.542,6.542" transform="translate(-93.545 14.234)" fill="#8fcaf2"/>
          <g id="Group_15794" data-name="Group 15794" transform="translate(239.789 123.967)">
            <g id="Group_15660" data-name="Group 15660" transform="translate(0 0)">
              <rect id="Rectangle_9356" data-name="Rectangle 9356" width="19.397" height="19.397" rx="9.698" fill="#848f38"/>
            </g>
            <g id="Group_15663" data-name="Group 15663" transform="translate(3.849 5.426)">
              <g id="Group_15662" data-name="Group 15662">
                <g id="Group_15661" data-name="Group 15661">
                  <path id="Path_200977" data-name="Path 200977" d="M-331.991-569.343l-4.9-4.275a.966.966,0,0,1-.093-1.363.966.966,0,0,1,1.363-.093l3.468,3.023,4.945-5.516a.966.966,0,0,1,1.364-.074.966.966,0,0,1,.074,1.364Z" transform="translate(337.226 577.887)" fill="#fff"/>
                </g>
              </g>
            </g>
          </g>
          <g id="Group_15795" data-name="Group 15795" transform="translate(239.78 94.356)">
            <g id="Group_15666" data-name="Group 15666" transform="translate(0 0)">
              <g id="Group_15665" data-name="Group 15665">
                <path id="Path_200978" data-name="Path 200978" d="M-338.172-703.019h-10.575a4.425,4.425,0,0,1-4.42-4.421v-10.574a4.425,4.425,0,0,1,4.42-4.421h10.575a4.425,4.425,0,0,1,4.42,4.421v10.574A4.425,4.425,0,0,1-338.172-703.019ZM-348.747-721.2a3.193,3.193,0,0,0-3.189,3.19v10.574a3.193,3.193,0,0,0,3.189,3.19h10.575a3.193,3.193,0,0,0,3.189-3.19v-10.574a3.193,3.193,0,0,0-3.189-3.19Z" transform="translate(353.167 722.435)" fill="#848f38"/>
              </g>
            </g>
          </g>
          <g id="Group_15998" data-name="Group 15998" transform="translate(268.555 123.965)">
            <g id="Group_15666-2" data-name="Group 15666" transform="translate(0 0)">
              <g id="Group_15665-2" data-name="Group 15665">
                <path id="Path_200978-2" data-name="Path 200978" d="M-338.172-703.019h-10.575a4.425,4.425,0,0,1-4.42-4.421v-10.574a4.425,4.425,0,0,1,4.42-4.421h10.575a4.425,4.425,0,0,1,4.42,4.421v10.574A4.425,4.425,0,0,1-338.172-703.019ZM-348.747-721.2a3.193,3.193,0,0,0-3.189,3.19v10.574a3.193,3.193,0,0,0,3.189,3.19h10.575a3.193,3.193,0,0,0,3.189-3.19v-10.574a3.193,3.193,0,0,0-3.189-3.19Z" transform="translate(353.167 722.435)" fill="#848f38"/>
              </g>
            </g>
          </g>
          <g id="Group_15797" data-name="Group 15797" transform="translate(268.994 94.367)">
            <g id="Group_15671" data-name="Group 15671" transform="translate(0 0)">
              <path id="Rectangle_9357" data-name="Rectangle 9357" d="M9.7,0h0a9.7,9.7,0,0,1,9.7,9.7v0a9.7,9.7,0,0,1-9.7,9.7h0A9.7,9.7,0,0,1,0,9.7v0A9.7,9.7,0,0,1,9.7,0Z" fill="#848f38"/>
            </g>
            <g id="Group_15674" data-name="Group 15674" transform="translate(3.849 5.426)">
              <g id="Group_15673" data-name="Group 15673">
                <g id="Group_15672" data-name="Group 15672">
                  <path id="Path_200980" data-name="Path 200980" d="M-211.331-691.432l-4.9-4.275a.966.966,0,0,1-.093-1.363.966.966,0,0,1,1.363-.093l3.467,3.023,4.945-5.516a.966.966,0,0,1,1.364-.074.965.965,0,0,1,.075,1.364Z" transform="translate(216.566 699.977)" fill="#fff"/>
                </g>
              </g>
            </g>
          </g>
          <g id="Group_15996" data-name="Group 15996" transform="translate(313.333 192.291)">
            <g id="Group_15671-2" data-name="Group 15671" transform="translate(0 0)">
              <path id="Rectangle_9357-2" data-name="Rectangle 9357" d="M3.333,0h0A3.333,3.333,0,0,1,6.666,3.333v0A3.333,3.333,0,0,1,3.333,6.666h0A3.333,3.333,0,0,1,0,3.333v0A3.333,3.333,0,0,1,3.333,0Z" fill="#848f38"/>
            </g>
            <g id="Group_15674-2" data-name="Group 15674" transform="translate(1.323 1.865)">
              <g id="Group_15673-2" data-name="Group 15673">
                <g id="Group_15672-2" data-name="Group 15672">
                  <path id="Path_200980-2" data-name="Path 200980" d="M-214.767-697.04l-1.685-1.469a.332.332,0,0,1-.032-.468.332.332,0,0,1,.468-.032l1.192,1.039,1.7-1.9a.332.332,0,0,1,.469-.026.332.332,0,0,1,.026.469Z" transform="translate(216.566 699.977)" fill="#fff"/>
                </g>
              </g>
            </g>
          </g>
          <g id="Group_15997" data-name="Group 15997" transform="translate(324.703 192.291)">
            <g id="Group_15671-3" data-name="Group 15671" transform="translate(0 0)">
              <path id="Rectangle_9357-3" data-name="Rectangle 9357" d="M3.333,0h0A3.333,3.333,0,0,1,6.666,3.333v0A3.333,3.333,0,0,1,3.333,6.666h0A3.333,3.333,0,0,1,0,3.333v0A3.333,3.333,0,0,1,3.333,0Z" fill="#848f38"/>
            </g>
            <g id="Group_15674-3" data-name="Group 15674" transform="translate(1.323 1.865)">
              <g id="Group_15673-3" data-name="Group 15673">
                <g id="Group_15672-3" data-name="Group 15672">
                  <path id="Path_200980-3" data-name="Path 200980" d="M-214.767-697.04l-1.685-1.469a.332.332,0,0,1-.032-.468.332.332,0,0,1,.468-.032l1.192,1.039,1.7-1.9a.332.332,0,0,1,.469-.026.332.332,0,0,1,.026.469Z" transform="translate(216.566 699.977)" fill="#fff"/>
                </g>
              </g>
            </g>
          </g>
          <g id="Group_15798" data-name="Group 15798" transform="translate(268.555 64.758)">
            <g id="Group_15677" data-name="Group 15677" transform="translate(0 0)">
              <g id="Group_15676" data-name="Group 15676">
                <path id="Path_200981" data-name="Path 200981" d="M-217.514-825.107h-10.575a4.425,4.425,0,0,1-4.421-4.42V-840.1a4.426,4.426,0,0,1,4.421-4.421h10.575a4.425,4.425,0,0,1,4.419,4.421v10.575A4.424,4.424,0,0,1-217.514-825.107Zm-10.575-18.185a3.194,3.194,0,0,0-3.19,3.19v10.575a3.194,3.194,0,0,0,3.19,3.19h10.575a3.193,3.193,0,0,0,3.189-3.19V-840.1a3.193,3.193,0,0,0-3.189-3.19Z" transform="translate(232.51 844.523)" fill="#848f38"/>
              </g>
            </g>
          </g>
          <g id="Group_15799" data-name="Group 15799" transform="translate(239.789 64.767)">
            <g id="Group_15679" data-name="Group 15679" transform="translate(0 0)">
              <path id="Rectangle_9358" data-name="Rectangle 9358" d="M9.7,0h0a9.7,9.7,0,0,1,9.7,9.7v0a9.7,9.7,0,0,1-9.7,9.7h0A9.7,9.7,0,0,1,0,9.7v0A9.7,9.7,0,0,1,9.7,0Z" fill="#848f38"/>
            </g>
            <g id="Group_15682" data-name="Group 15682" transform="translate(3.849 5.426)">
              <g id="Group_15681" data-name="Group 15681">
                <g id="Group_15680" data-name="Group 15680">
                  <path id="Path_200982" data-name="Path 200982" d="M-331.991-813.521l-4.9-4.275a.966.966,0,0,1-.093-1.363.966.966,0,0,1,1.363-.093l3.468,3.023,4.945-5.515a.966.966,0,0,1,1.364-.074.966.966,0,0,1,.074,1.364Z" transform="translate(337.226 822.065)" fill="#fff"/>
                </g>
              </g>
            </g>
          </g>
          <g id="Group_15990" data-name="Group 15990" transform="translate(116.885 139.574)">
            <g id="Group_15848" data-name="Group 15848" transform="translate(0.001 0)">
              <g id="Group_15847" data-name="Group 15847" transform="translate(0)">
                <g id="Group_15846" data-name="Group 15846">
                  <path id="Path_201146" data-name="Path 201146" d="M-224.276-212.331a21.468,21.468,0,0,1-6.62,1.128,21.471,21.471,0,0,1-17.277-8.332,21.383,21.383,0,0,1-4.5-12.891c-.008-.482,0-.965.027-1.439a21.383,21.383,0,0,1,1.257-6.181A21.508,21.508,0,0,1-231.45-254.2a21.4,21.4,0,0,1,13.213,4.324,21.456,21.456,0,0,1,8.565,16.9A21.51,21.51,0,0,1-224.276-212.331Zm9.225-20.578a16.08,16.08,0,0,0-6.342-12.606,16.046,16.046,0,0,0-9.986-3.307,16.124,16.124,0,0,0-14.948,10.614l0,.009a16.083,16.083,0,0,0-.939,4.625c-.019.357-.025.716-.022,1.079a16.055,16.055,0,0,0,3.373,9.662,16.091,16.091,0,0,0,12.953,6.25,16.124,16.124,0,0,0,4.966-.846A16.128,16.128,0,0,0-215.051-232.909Z" transform="translate(252.673 254.204)" fill="#fff"/>
                </g>
              </g>
            </g>
            <g id="Group_15851" data-name="Group 15851" transform="translate(4.501 31.373)">
              <g id="Group_15850" data-name="Group 15850" transform="translate(0)">
                <g id="Group_15849" data-name="Group 15849">
                  <path id="Path_201147" data-name="Path 201147" d="M-234.941-225.255l-4.255,3.3a21.47,21.47,0,0,0,17.277,8.333,21.442,21.442,0,0,0,6.62-1.128l-1.725-5.1a16.121,16.121,0,0,1-4.964.844A16.092,16.092,0,0,1-234.941-225.255Z" transform="translate(239.196 225.255)" fill="#1a598c"/>
                </g>
              </g>
            </g>
            <g id="Group_15854" data-name="Group 15854" transform="translate(0 20.338)">
              <g id="Group_15853" data-name="Group 15853" transform="translate(0)">
                <g id="Group_15852" data-name="Group 15852">
                  <path id="Path_201148" data-name="Path 201148" d="M-215.668-235.145l-5.374-.292c-.025.476-.035.957-.028,1.44a21.406,21.406,0,0,0,4.5,12.89l4.255-3.3a16.048,16.048,0,0,1-3.373-9.663C-215.694-234.428-215.687-234.789-215.668-235.145Z" transform="translate(221.072 235.437)" fill="#ffca44"/>
                </g>
              </g>
            </g>
            <g id="Group_15857" data-name="Group 15857" transform="translate(0.03 14.159)">
              <g id="Group_15856" data-name="Group 15856" transform="translate(0)">
                <g id="Group_15855" data-name="Group 15855">
                  <path id="Path_201149" data-name="Path 201149" d="M-213.476-234.667a16.082,16.082,0,0,1,.939-4.625l0-.009-5.059-1.838a21.384,21.384,0,0,0-1.257,6.181Z" transform="translate(218.849 241.139)" fill="#ffca44"/>
                </g>
              </g>
            </g>
            <g id="Group_15860" data-name="Group 15860" transform="translate(1.287 0)">
              <g id="Group_15859" data-name="Group 15859" transform="translate(0)">
                <g id="Group_15858" data-name="Group 15858">
                  <path id="Path_201150" data-name="Path 201150" d="M-211.619-249.878a21.4,21.4,0,0,0-13.213-4.324,21.508,21.508,0,0,0-19.936,14.157l5.055,1.847,0-.009a16.124,16.124,0,0,1,14.948-10.614,16.046,16.046,0,0,1,9.986,3.307Z" transform="translate(244.768 254.204)" fill="#b5a9a9"/>
                </g>
              </g>
            </g>
          </g>
          <g id="Group_15991" data-name="Group 15991" transform="translate(86.766 162.208)">
            <rect id="Rectangle_9415" data-name="Rectangle 9415" width="5.78" height="18.952" transform="translate(0 0)" fill="#78c2ff"/>
          </g>
          <g id="Group_15992" data-name="Group 15992" transform="translate(77.291 167.528)">
            <rect id="Rectangle_9416" data-name="Rectangle 9416" width="5.781" height="13.637" transform="translate(0 0)" fill="#78c2ff"/>
          </g>
          <g id="Group_15993" data-name="Group 15993" transform="translate(96.24 153.417)">
            <rect id="Rectangle_9417" data-name="Rectangle 9417" width="5.78" height="27.736" transform="translate(0 0)" fill="#78c2ff"/>
          </g>
          <rect id="Rectangle_9438" data-name="Rectangle 9438" width="4.292" height="16.445" transform="translate(40.619 98.411)" fill="#78c2ff"/>
          <g id="Group_10718" data-name="Group 10718" transform="translate(105.818 66.508)">
            <path id="Path_195364" data-name="Path 195364" d="M256.514,93.79l1.172,2.366,2.622.384-1.9,1.855.448,2.6-2.345-1.215L254.169,101l.448-2.6-1.9-1.855,2.728-.384Z" transform="translate(-252.72 -93.79)" fill="#848f38"/>
            <path id="Path_195365" data-name="Path 195365" d="M261.862,93.79l1.172,2.366,2.622.384-1.9,1.855.448,2.6-2.345-1.215L259.517,101l.49-2.494-1.9-1.855,2.622-.384Z" transform="translate(-246.621 -93.79)" fill="#848f38"/>
            <path id="Path_195366" data-name="Path 195366" d="M267.254,93.79l1.172,2.366,2.622.384-1.9,1.855.448,2.6-2.345-1.215L264.909,101l.448-2.6-1.9-1.855,2.622-.384Z" transform="translate(-240.567 -93.79)" fill="#848f38"/>
            <path id="Path_195367" data-name="Path 195367" d="M272.636,93.79l1.172,2.366,2.622.384-1.9,1.855.448,2.6-2.345-1.215L270.291,101l.448-2.6L268.82,96.54l2.622-.384Z" transform="translate(-234.501 -93.79)" fill="#848f38"/>
            <path id="Path_195368" data-name="Path 195368" d="M278.014,93.79l1.172,2.366,2.622.384-1.9,1.855.448,2.6-2.345-1.215L275.669,101l.448-2.6-1.9-1.855,2.622-.384Z" transform="translate(-228.39 -93.79)" fill="#e6e6e6"/>
            <g id="Group_10717" data-name="Group 10717" transform="translate(1.184 15.397)">
              <line id="Line_553" data-name="Line 553" x2="23.91" stroke-width="2" stroke="#fff" stroke-linecap="round" stroke-linejoin="round" fill="none"/>
              <line id="Line_554" data-name="Line 554" x2="18.194" transform="translate(77.592 9.568)" fill="none" stroke="#fff" stroke-linecap="round" stroke-linejoin="round" stroke-width="2"/>
              <line id="Line_555" data-name="Line 555" x2="69.719" transform="translate(0 9.568)" fill="none" stroke="#fff" stroke-linecap="round" stroke-linejoin="round" stroke-width="2"/>
              <line id="Line_556" data-name="Line 556" x2="95.786" transform="translate(0 19.157)" fill="none" stroke="#fff" stroke-linecap="round" stroke-linejoin="round" stroke-width="2"/>
              <line id="Line_557" data-name="Line 557" x2="30.442" transform="translate(65.344 28.725)" fill="none" stroke="#fff" stroke-linecap="round" stroke-linejoin="round" stroke-width="2"/>
              <line id="Line_558" data-name="Line 558" x2="57.764" transform="translate(0 28.725)" fill="none" stroke="#fff" stroke-linecap="round" stroke-linejoin="round" stroke-width="2"/>
              <line id="Line_559" data-name="Line 559" x2="64.025" transform="translate(31.761)" fill="none" stroke="#fff" stroke-linecap="round" stroke-linejoin="round" stroke-width="2"/>
            </g>
          </g>
          <g id="Group_15995" data-name="Group 15995" transform="translate(40.382 63.685)">
            <path id="Path_200768-2" data-name="Path 200768" d="M2201.889,2025.4a25.61,25.61,0,1,1-25.606-25.61,25.609,25.609,0,0,1,25.606,25.61Z" transform="translate(-2150.67 -1999.79)" fill="#f5f5f9"/>
            <path id="Path_200769-2" data-name="Path 200769" d="M2187.251,2017.929l-1.888,6.777a25.48,25.48,0,0,1-11.645,4.509q-1.14.141-2.307.178c-.278.011-.558.013-.837.013-.83,0-1.651-.038-2.457-.116a26.085,26.085,0,0,1-2.665-.394,25.455,25.455,0,0,1-10.467-4.781c-.362-2.24-.753-4.716-1.095-7.038,1.883-.7,7.873-2.737,11.653-4.015.052-.019.105-.036.158-.053.083-.031.164-.058.247-.083.223-.077.436-.15.641-.216s.405-.139.587-.2c.774-.258,1.321-.443,1.518-.507h0l.075-.028.044,0,5.083.383.855.061.263.02.116.03c.308.078,1.2.311,2.379.671l.005,0c3.012.918,7.893,2.671,9.734,4.787Z" transform="translate(-2144.961 -1978.189)" fill="#e1cdc2"/>
            <path id="Path_200770-2" data-name="Path 200770" d="M2165.113,2004.483s6.095,1.032,5.061,10.574-6.414,8.7-6.774,8.691-5.414.114-5.68-11.559c0,0-.078-8.624,7.393-7.707Z" transform="translate(-2138.167 -1991.592)" fill="#edac84"/>
            <path id="Path_200771-2" data-name="Path 200771" d="M2166.47,2011.093s-.209,3.927.16,4.784-4.894,3.561-8.169.477a33.454,33.454,0,0,0,.457-5.807c-.205-1.517,7.552.546,7.552.546Z" transform="translate(-2136.856 -1981.705)" fill="#edac84"/>
            <path id="Path_200772-2" data-name="Path 200772" d="M2162.511,2007.476s.676-.7.912.019-1.078,3.944-1,4.091c0,0-.125.28-.286.122a35.019,35.019,0,0,1,.369-4.232Z" transform="translate(-2130.379 -1986.707)" fill="#edac84"/>
            <path id="Path_200773-2" data-name="Path 200773" d="M2158.362,2007.4s-.649-.738-.918-.02.709,3.927.833,4.124c0,0,.207.33.373.183a34.847,34.847,0,0,0-.288-4.287Z" transform="translate(-2138.739 -1986.888)" fill="#edac84"/>
            <path id="Path_200774-2" data-name="Path 200774" d="M2170.963,2012.566c-.21,1.306-.41,2.277-.41,2.277l-.887,1.159a23.215,23.215,0,0,0-.08-2.964c-.052-.156-.111-.425-.176-.716-.1-.483-.207-1.026-.276-1.212-.114-.289-5.225-1.781-9.779.315,0,0,.039.391.037.832,0,.513-.059,1.084-.292,1.171-.438.161-.255,3-.255,3l-.71-.818s-.205-1.48-.41-3.187v-.011c-.045-.4-.091-.807-.136-1.215-.1-1.717.066-4.829,2.3-6.658,1.507-.641,3.91-1.193,7.921.035a2.748,2.748,0,0,1,1.178.311c2.5,2.749,1.974,7.682,1.974,7.682Z" transform="translate(-2138.441 -1992.608)" fill="#ea6d42"/>
            <path id="Path_200777-2" data-name="Path 200777" d="M2163.847,2011.834a16.925,16.925,0,0,1-3.9,3.383l1.65,2.543,2.817-5.025-.565-.9Z" transform="translate(-2134.225 -1978.435)" fill="#f2e0d6"/>
            <path id="Path_200778-2" data-name="Path 200778" d="M2159.139,2011.972a11.376,11.376,0,0,0,3.99,3l-1.813,2.618-3.167-4.584.99-1.035Z" transform="translate(-2137.408 -1978.189)" fill="#f2e0d6"/>
            <path id="Path_200780-2" data-name="Path 200780" d="M2176.209,2017.2l-.038.141c-.156.552-.754,2.676-1.531,5.5-.294.252-.594.5-.9.741q-.516.407-1.057.79a25.464,25.464,0,0,1-11.645,4.509c.377-8.865,1.428-16.725,1.428-16.725q1.249.329,2.366.649l.005,0a54.25,54.25,0,0,1,10.915,4.121l.025.01c.294.167.43.255.43.255Z" transform="translate(-2132.281 -1977.857)" fill="#2d214b"/>
            <path id="Path_200781-2" data-name="Path 200781" d="M2167.193,2028.2a25.456,25.456,0,0,1-10.466-4.78,25.152,25.152,0,0,1-2.587-2.274c-.158-.157-.313-.321-.466-.482-.45-1.905-.747-3.148-.765-3.228v0s3.167-2.082,14.376-5.072v.005c0,.255.006,7.447-.091,15.834Z" transform="translate(-2146.702 -1977.497)" fill="#2d214b"/>
            <path id="Path_200782-2" data-name="Path 200782" d="M2162.4,2014.416c-.1,2.334-.114,6.865-.081,12.032-.278.01-.558.014-.837.014-.83,0-1.65-.04-2.457-.116a79.015,79.015,0,0,1,1.7-11.939c.125-.516.2-.774.2-.774l1.5.25c-.012.164-.023.341-.031.533Z" transform="translate(-2135.864 -1975.244)" fill="#5f699e"/>
            <path id="Path_200783-2" data-name="Path 200783" d="M2169.381,2016.719a25.829,25.829,0,0,1-2.863,2.9c-.294.252-.593.5-.9.74.008-.031,1.471-4.293,2.468-6.387.677.452.984,1.988,1.293,2.742Z" transform="translate(-2124.159 -1974.638)" fill="#2d214b"/>
            <path id="Path_200784-2" data-name="Path 200784" d="M2154.69,2017.9c-.159-.157-.314-.321-.466-.482a24.661,24.661,0,0,1-1.626-1.905,2.916,2.916,0,0,1,.86-1.326v0l1.232,3.71Z" transform="translate(-2147.25 -1974.254)" fill="#2d214b"/>
          </g>
          <path id="Path_195364-2" data-name="Path 195364" d="M254.51,93.79l.553,1.116,1.237.181-.9.875.211,1.227-1.106-.573-1.106.573.211-1.227-.9-.875,1.287-.181Z" transform="translate(25.702 98.432)" fill="#848f38"/>
          <path id="Path_195365-2" data-name="Path 195365" d="M259.88,93.79l.553,1.116,1.237.181-.9.875.211,1.227-1.106-.573-1.106.573.231-1.177-.9-.875,1.237-.181Z" transform="translate(25.733 98.432)" fill="#848f38"/>
          <path id="Path_195366-2" data-name="Path 195366" d="M265.25,93.79l.553,1.116,1.237.181-.9.875.211,1.227-1.106-.573-1.106.573.211-1.227-.9-.875,1.237-.181Z" transform="translate(25.763 98.432)" fill="#848f38"/>
          <path id="Path_195367-2" data-name="Path 195367" d="M270.62,93.79l.553,1.116,1.237.181-.9.875.211,1.227-1.106-.573-1.106.573.211-1.227-.905-.875,1.237-.181Z" transform="translate(25.793 98.432)" fill="#e6e6e6"/>
          <path id="Path_195368-2" data-name="Path 195368" d="M276.01,93.79l.553,1.116,1.237.181-.9.875.211,1.227-1.106-.573-1.106.573.211-1.227-.9-.875,1.237-.181Z" transform="translate(25.824 98.432)" fill="#e6e6e6"/>
        </g>
        <g id="Group_15544" data-name="Group 15544" transform="translate(71.132 75.207)">
          <path id="Path_200715" data-name="Path 200715" d="M1929.737,2156.828h-3.465V1999.3h3.465v157.524Z" transform="translate(-1830.979 -1931.999)" fill="#fff"/>
          <path id="Path_200839" data-name="Path 200839" d="M1929.737,2156.828h-3.465V1999.3h3.465v157.524Z" transform="translate(-1916.248 -1931.999)" fill="#fff"/>
          <g transform="matrix(1, 0, 0, 1, -71.13, -75.21)" filter="url(#Path_200716)">
            <path id="Path_200716-2" data-name="Path 200716" d="M1941.734,2124.086h-93.227c-5.745,0-10.4-4.381-10.4-9.787V1948.2c0-5.405,4.657-9.787,10.4-9.787h93.227c5.745,0,10.4,4.382,10.4,9.787v166.1c0,5.406-4.658,9.787-10.4,9.787Z" transform="translate(-1766.97 -1861.71)" fill="#8fcaf2"/>
          </g>
          <path id="Path_200717" data-name="Path 200717" d="M1938.5,2116.139h-87.219c-5.675,0-10.278-4.314-10.278-9.634V1950.99c0-5.321,4.6-9.635,10.278-9.635H1938.5c5.675,0,10.276,4.314,10.276,9.635V2106.5c0,5.32-4.6,9.634-10.276,9.634Z" transform="translate(-1837.871 -1936.682)" fill="#fff"/>
          <path id="Path_200718" data-name="Path 200718" d="M1909.118,1944.7h-33.98v-7.673h33.98v7.673Z" transform="translate(-1835.112 -1937.031)" fill="#75645d"/>
          <path id="Path_200719" data-name="Path 200719" d="M1926.63,2103.868h-68.282c-5.531,0-10.031-3.969-10.031-8.849v-34.293c0-4.88,4.5-8.851,10.031-8.851h68.282c5.532,0,10.032,3.97,10.032,8.851v34.293c0,4.879-4.5,8.849-10.032,8.849Z" transform="translate(-1835.618 -1932.385)" fill="none" stroke="#707070" stroke-width="1"/>
          <path id="Path_200721" data-name="Path 200721" d="M1918.462,1995.417a8.116,8.116,0,1,0,8.115,8.115,8.124,8.124,0,0,0-8.115-8.115Zm0,17.3a9.182,9.182,0,1,1,9.182-9.183,9.193,9.193,0,0,1-9.182,9.183Z" transform="translate(-1832.352 -1932.629)" fill="#9ba55a"/>
          <path id="Path_200722" data-name="Path 200722" d="M1918.462,2019.385a8.115,8.115,0,1,0,8.115,8.115,8.124,8.124,0,0,0-8.115-8.115Zm0,17.3a9.182,9.182,0,1,1,9.182-9.181,9.193,9.193,0,0,1-9.182,9.181Z" transform="translate(-1832.352 -1935.44)" fill="#9ba55a"/>
          <path id="Path_200724" data-name="Path 200724" d="M1894.8,1994.886a2.535,2.535,0,0,0-.284-.318.472.472,0,0,0-.148-.12c-.01-.008-.018-.011-.027-.017l0,0c-5.428-3-15.225-5.448-15.225-5.448a16.8,16.8,0,0,1-.22-4.274,12.124,12.124,0,0,0,2.454-5.9c.164.122.289-.158.289-.158-.091-.162,1.375-3.739,1.111-4.545a.423.423,0,0,0-.691-.272c.035-.207.07-.423.108-.651,0,0,.58-5.483-2.2-8.538a3.068,3.068,0,0,0-1.309-.344c-4.457-1.365-7.131-.756-8.806-.039-2.482,2.033-2.671,5.494-2.557,7.4.05.45.1.9.151,1.346l0,.014c.021.173.041.346.063.513-.232-.142-.536-.21-.7.242-.3.795.787,4.367.922,4.587,0,0,.233.366.416.2h0a13.106,13.106,0,0,0,2.407,6.26c-.1,1.761-.412,3.962-.5,4.545h0c-2.276.718-13.69,3.754-17.144,6.023a3.286,3.286,0,0,0-.956,1.476,27.692,27.692,0,0,0,1.807,2.115c.17.18.343.36.518.536a28.021,28.021,0,0,0,2.875,2.53,28.348,28.348,0,0,0,14.6,5.752q1.347.128,2.73.13c.313,0,.625,0,.935-.016.864-.027,1.719-.094,2.562-.2a28.311,28.311,0,0,0,12.947-5.012q.6-.426,1.173-.88c.339-.266.672-.542,1-.824a28.7,28.7,0,0,0,3.181-3.225,13.947,13.947,0,0,0-1.48-2.895Z" transform="translate(-1836.985 -1934.893)" fill="#2abccc"/>
          <path id="Path_200816" data-name="Path 200816" d="M1851.465,2015.923Z" transform="translate(-1828.297 -1879.236)" fill="#9ba55a"/>
          <g id="Ellipse_772" data-name="Ellipse 772" transform="translate(8.471 14.104)" fill="none" stroke="#9ba55a" stroke-width="1">
            <circle cx="29.56" cy="29.56" r="29.56" stroke="none"/>
            <circle cx="29.56" cy="29.56" r="29.06" fill="none"/>
          </g>
          <path id="Path_200957" data-name="Path 200957" d="M-519.993,238.505h-41.844a1.14,1.14,0,0,1-1.139-1.139h0a1.139,1.139,0,0,1,1.139-1.139h41.844a1.139,1.139,0,0,1,1.139,1.139h0A1.14,1.14,0,0,1-519.993,238.505Z" transform="translate(580.808 -148.307)" fill="#83b9f7"/>
          <g id="Group_15599" data-name="Group 15599" transform="translate(21.321 96.513)">
            <path id="Path_200896" data-name="Path 200896" d="M-554.745,246.366a2.58,2.58,0,0,1-2.581,2.581,2.58,2.58,0,0,1-2.581-2.581,2.58,2.58,0,0,1,2.581-2.581A2.58,2.58,0,0,1-554.745,246.366Z" transform="translate(559.907 -243.785)" fill="#d17e6f"/>
            <path id="Path_200897" data-name="Path 200897" d="M-545.369,246.366a2.58,2.58,0,0,1-2.581,2.581,2.58,2.58,0,0,1-2.581-2.581,2.58,2.58,0,0,1,2.581-2.581A2.58,2.58,0,0,1-545.369,246.366Z" transform="translate(561.191 -243.785)" fill="#d17e6f"/>
            <path id="Path_200898" data-name="Path 200898" d="M-535.993,246.366a2.58,2.58,0,0,1-2.581,2.581,2.581,2.581,0,0,1-2.581-2.581,2.581,2.581,0,0,1,2.581-2.581A2.58,2.58,0,0,1-535.993,246.366Z" transform="translate(562.475 -243.785)" fill="#d17e6f"/>
            <path id="Path_200899" data-name="Path 200899" d="M-526.616,246.366a2.581,2.581,0,0,1-2.582,2.581,2.581,2.581,0,0,1-2.581-2.581,2.581,2.581,0,0,1,2.581-2.581A2.581,2.581,0,0,1-526.616,246.366Z" transform="translate(563.758 -243.785)" fill="#d17e6f"/>
          </g>
          <g id="Group_15601" data-name="Group 15601" transform="translate(17.701 136.447)">
            <line id="Line_642" data-name="Line 642" x2="35.549" transform="translate(0 0)" fill="none" stroke="silver" stroke-miterlimit="10" stroke-width="1"/>
            <line id="Line_643" data-name="Line 643" x2="35.549" transform="translate(0 6.538)" fill="none" stroke="silver" stroke-miterlimit="10" stroke-width="1"/>
            <line id="Line_644" data-name="Line 644" x2="35.549" transform="translate(0 13.076)" fill="none" stroke="silver" stroke-miterlimit="10" stroke-width="1"/>
            <line id="Line_645" data-name="Line 645" x2="35.549" transform="translate(0 19.614)" fill="none" stroke="silver" stroke-miterlimit="10" stroke-width="1"/>
          </g>
          <path id="Path_200977-2" data-name="Path 200977" d="M-332.879-570.908l-3.077-2.563a.789.789,0,0,1-.076-1.113.789.789,0,0,1,1.113-.076l1.9,1.541,4.039-4.505a.789.789,0,0,1,1.114-.061.789.789,0,0,1,.061,1.114Z" transform="translate(417.678 645.55)" fill="#9ba55a"/>
          <path id="Path_201224" data-name="Path 201224" d="M-332.879-570.908l-3.077-2.563a.789.789,0,0,1-.076-1.113.789.789,0,0,1,1.113-.076l1.9,1.541,4.039-4.505a.789.789,0,0,1,1.114-.061.789.789,0,0,1,.061,1.114Z" transform="translate(417.678 666.907)" fill="#9ba55a"/>
        </g>
        <g id="Group_15537" data-name="Group 15537" transform="translate(442.053 100.188)">
          <g id="Group_5823" data-name="Group 5823" transform="translate(18.828 190.989)">
            <g id="Group_5822" data-name="Group 5822">
              <path id="Path_187012" data-name="Path 187012" d="M161.042,244.77s-10.71,5.927-14.252,6-.92,1.562,2.928,1.924a60.79,60.79,0,0,0,12.7-1.269,5.577,5.577,0,0,0,1.13-.934l.237.837a11.678,11.678,0,0,0,1.841-.139,40.938,40.938,0,0,0-.753-6.387Z" transform="translate(-145.12 -241.911)" fill="#005479"/>
              <g id="Group_5821" data-name="Group 5821" transform="translate(15.922)">
                <path id="Path_187013" data-name="Path 187013" d="M145.58,245.579l.139-2.859,3.807.181-.126,2.65Z" transform="translate(-145.58 -242.72)" fill="#ffb780"/>
              </g>
            </g>
          </g>
          <path id="Path_187017" data-name="Path 187017" d="M140.236,245.638s-10.724,5.9-14.252,5.954-.92,1.548,2.928,1.91a60.785,60.785,0,0,0,12.7-1.269,5.577,5.577,0,0,0,1.13-.92l.237.837a11.719,11.719,0,0,0,1.841-.153,40.943,40.943,0,0,0-.753-6.387Z" transform="translate(-76.48 -50.592)" fill="#005479"/>
          <path id="Path_187018" data-name="Path 187018" d="M124.78,246.419l.139-2.789,3.807.181-.126,2.65Z" transform="translate(-61.024 -51.374)" fill="#ffb780"/>
          <path id="Path_195389" data-name="Path 195389" d="M1.548,14.294a38.631,38.631,0,0,1,3.849-4c.377-.139,2.873-.614,3.7-.753a3.443,3.443,0,0,0,.892-.265,2.538,2.538,0,0,0,.739-.6,26.5,26.5,0,0,0,1.7-2.05,3.288,3.288,0,0,0,.39-.586,4.306,4.306,0,0,0,.251-.823c.363-1.6.655-3.221.906-4.839a.391.391,0,0,0,0-.251c-.1-.2-.376-.139-.53,0a1.578,1.578,0,0,1-.474.39V.1a.962.962,0,0,0-.906.125A7.475,7.475,0,0,0,9.273,3.013a2.593,2.593,0,0,1-.446.655c-.5.5-1.283.488-1.966.669a10.512,10.512,0,0,0-1.841.6c-1.06.488-1.185,1.757-1.3,1.994a1.059,1.059,0,0,1-.279.335C2.747,7.88,0,9.971,0,9.971" transform="translate(19.832 101.168) rotate(164)" fill="#ffbe9d"/>
          <path id="Path_195390" data-name="Path 195390" d="M140.892,108.87c-1.534.446-2.357,2.426-2.873,3.779a21.336,21.336,0,0,0-1.157,5.1,7.168,7.168,0,0,0,.251,3.6,8.76,8.76,0,0,0,1,1.562,3.388,3.388,0,0,0,.725.753,1.13,1.13,0,0,0,1,.181,1.743,1.743,0,0,0,.809-1.241,32.449,32.449,0,0,1,3.668-9.3" transform="translate(-93.299 -104.533)" fill="#411809"/>
          <path id="Path_195391" data-name="Path 195391" d="M143.5,116.522c0-1.032-1.116-1.7-2.036-.628a6.456,6.456,0,0,0-1.032,3.779c0,1.478,1.1,1.771,2.036,1.98" transform="translate(-97.625 -101.978)" fill="#f2a181"/>
          <path id="Path_195394" data-name="Path 195394" d="M150.89,220.209c-.349-5.578,4.183-12.941,4.183-12.941S143,200.644,142.816,198.58c0,0-1.646,11.379-2.245,15.339-1.032,6.972,2.454,46.785,2.454,46.785a14.419,14.419,0,0,0,5.885.084s.628-15.339,3.138-25.8C153.177,230.123,151.309,221.575,150.89,220.209Z" transform="translate(-109.125 -69.144)" fill="#005479"/>
          <path id="Path_195395" data-name="Path 195395" d="M137.529,168.9c-4.532,10.124-9.455,42.741-10.64,54.009-.5,4.783,3.486,10.375,8.116,6.052,5.578-5.16,13.3-28.768,16.092-32.938s13.178-7.99,6.066-29.145" transform="translate(-94.789 -81.65)" fill="#005479"/>
          <path id="Path_195398" data-name="Path 195398" d="M125.542,231.735c.767,3.946,11.044,2.468,10.821-1.018-.307-4.95,3.165-11.351,4.49-34.862.153-2.705,2.789-3.1,3.919-10.417s-3.3-15.465-3.3-15.465L125.654,167.7s-6.08,13.722-4.825,27.388S124.636,227.105,125.542,231.735Z" transform="translate(-71.506 -81.324)" fill="#005479"/>
          <path id="Path_195399" data-name="Path 195399" d="M135.336,213.8s3.6,7.126,4.016,12.272c.628,7.53-.139,32.324-.139,32.324a16.2,16.2,0,0,1-5.968.237s-9.12-44-9.455-48.723S135.336,213.8,135.336,213.8Z" transform="translate(-70.507 -65.233)" fill="#005479"/>
          <path id="Path_195400" data-name="Path 195400" d="M121.117,135.611c1.8-2.05,7.474-5.425,15.061-5.188,5.215.167,19.523,1.018,21.043,4.518.809,1.785,1.687,20.081.488,26.4-.892,4.741-3.179,16.5-3.179,19.342s1.52,4.044.809,4.881c-1.59,1.841-12.55,2.608-17.584,2.608-4.56,0-12.3-1.213-12.69-2.664-.586-2.161.879-2.092,1.088-4.351s1.269-17.236-.07-19.411c-2.106-3.444-4.183-12.55-4.379-15.13S119.332,137.661,121.117,135.611Z" transform="translate(-84.512 -96.036)" fill="#ffb939"/>
          <path id="Path_195401" data-name="Path 195401" d="M124.611,144.779c.53,1.13,4.183,7.056,4.183,7.056l.139.711a30.153,30.153,0,0,1-.377,3.166c-.892,4.741-3.179,16.5-3.179,19.328s1.52,4.058.809,4.881-2.789,1.311-5.411,1.715A6.429,6.429,0,0,0,122,179.878c.209-.837-1.185-.614-1.395-1.325s3.166-14.405,4-20.987S124.068,143.733,124.611,144.779Z" transform="translate(-55.403 -90.408)" fill="#ffa320" opacity="0.45"/>
          <path id="Path_195402" data-name="Path 195402" d="M133.473,126.924a60.9,60.9,0,0,1-.307,6.568,9.9,9.9,0,0,1-1.506.837s.892,5.48,2.259,5.076,10.459-4.992,10.459-4.992-1.3-.53-1.3-1.032,1.227-10.431,1.227-10.431" transform="translate(-86.27 -98.979)" fill="#ffbe9d"/>
          <path id="Path_195403" data-name="Path 195403" d="M138.086,109.36c-1.325.363-4.811-.363-5.773,1.074a32.839,32.839,0,0,0-2.161,5.9,58.659,58.659,0,0,0-1.715,5.927c-.683,2.58-1.8,7.293.711,9.441a3.417,3.417,0,0,0,1.952.99c1.185.209,2.371.46,3.57.669a12.02,12.02,0,0,0,5.717.126c2.454-.795,3.793-4.183,4.421-6.456l3.612-13.108Z" transform="translate(-84.636 -104.341)" fill="#ffbe9d"/>
          <path id="Path_195404" data-name="Path 195404" d="M137.608,135.83s-.5,23.232-1.395,37.358l3.347,4.713,2.357-5.9a179.892,179.892,0,0,0-2.217-35.936Z" transform="translate(-90.294 -93.897)" fill="#1b227a"/>
          <path id="Path_195405" data-name="Path 195405" d="M136.77,134.784l.07.321a6.371,6.371,0,0,0,.711,1.715h0l2.092.167s1.395-.753,1.618-1.548-2.343-2.12-2.343-2.12l-.307.126a4.518,4.518,0,0,0-1.827,1.311Z" transform="translate(-90.292 -94.887)" fill="#1b227a"/>
          <path id="Path_195406" data-name="Path 195406" d="M138.787,128.86a12.76,12.76,0,0,1,2.789,2.887,26.886,26.886,0,0,1-6.972,8.646,12.118,12.118,0,0,0-4.183-5.313S137.978,133.5,138.787,128.86Z" transform="translate(-81.739 -96.648)" fill="#eaeaea"/>
          <path id="Path_195407" data-name="Path 195407" d="M142.718,134.961a8.967,8.967,0,0,0-4.183,3.96,20.067,20.067,0,0,1,.572-7.349s1.394-2.371,2.008-2.413A11.156,11.156,0,0,0,142.718,134.961Z" transform="translate(-94.037 -96.529)" fill="#eaeaea"/>
          <path id="Path_195408" data-name="Path 195408" d="M4.423,46.853c4.63-2.566,18.634-21.32,19.5-21.626s18.8-21.391,18.8-21.391L39.93,0S21.8,13.15,16.656,18.909C13,22.953,0,33.4,0,33.4S-.235,49.432,4.423,46.853Z" transform="translate(54.055 83.853) rotate(164)" fill="#ffb939"/>
          <path id="Path_195409" data-name="Path 195409" d="M159.516,162.592c1.482-2,9.325-16.481,9.325-16.481l1.165,3.921c-3.462,5.347-7.079,11.8-8.642,14.318-3.8,5.793-14.887,20.633-14.887,20.633l-1.265-.924Z" transform="translate(-130.797 -90.194)" fill="#ffa320" opacity="0.45"/>
          <g id="Group_10733" data-name="Group 10733" transform="translate(56.453 82.178)">
            <path id="Path_195410" data-name="Path 195410" d="M113.874,164.718l27.458,5.174a1.3,1.3,0,0,1,1.032,1.52s0,.07,0,.112l-3.681,18.993a1.311,1.311,0,0,1-1.506.934l-27.444-5.187a1.3,1.3,0,0,1-1.046-1.52.886.886,0,0,1,0-.1l3.681-18.993a1.283,1.283,0,0,1,1.506-.934Z" transform="translate(-108.663 -164.69)" fill="#fe7d90"/>
            <path id="Path_195411" data-name="Path 195411" d="M113.6,165.75l26.328,4.964-3.64,18.854L110,184.6Z" transform="translate(-108.066 -164.272)" fill="#e5f8ff"/>
            <g id="Group_10732" data-name="Group 10732" transform="translate(4.834 3.305)">
              <line id="Line_581" data-name="Line 581" y1="16.051" x2="2.873" transform="translate(0)" fill="none" stroke="#a1d2f0" stroke-linecap="round" stroke-linejoin="round" stroke-width="0.53"/>
              <line id="Line_582" data-name="Line 582" y1="16.051" x2="2.873" transform="translate(2.482 0.474)" fill="none" stroke="#a1d2f0" stroke-linecap="round" stroke-linejoin="round" stroke-width="0.53"/>
              <line id="Line_583" data-name="Line 583" y1="16.051" x2="2.873" transform="translate(6.052 1.199)" fill="none" stroke="#a1d2f0" stroke-linecap="round" stroke-linejoin="round" stroke-width="0.53"/>
              <line id="Line_584" data-name="Line 584" y1="16.051" x2="2.873" transform="translate(9.622 1.938)" fill="none" stroke="#a1d2f0" stroke-linecap="round" stroke-linejoin="round" stroke-width="0.53"/>
              <line id="Line_585" data-name="Line 585" y1="16.051" x2="3.221" transform="translate(13.178 2.663)" fill="none" stroke="#a1d2f0" stroke-linecap="round" stroke-linejoin="round" stroke-width="0.53"/>
              <line id="Line_586" data-name="Line 586" y1="16.051" x2="3.221" transform="translate(16.748 3.403)" fill="none" stroke="#a1d2f0" stroke-linecap="round" stroke-linejoin="round" stroke-width="0.53"/>
              <line id="Line_587" data-name="Line 587" y1="16.051" x2="3.347" transform="translate(20.318 4.128)" fill="none" stroke="#a1d2f0" stroke-linecap="round" stroke-linejoin="round" stroke-width="0.53"/>
            </g>
          </g>
          <g id="Group_10734" data-name="Group 10734" transform="translate(67.953 36.592)">
            <path id="Path_195412" data-name="Path 195412" d="M123.475,174.61s-1.088,2.2-1.673,3.333c-.377.739-3.263,3.193-4.421,5.146a5.02,5.02,0,0,0-.906,3.1,2.078,2.078,0,0,0,2.231,1.9c.307-.07.655-.223.906,0a1.172,1.172,0,0,1,.251.39,1.213,1.213,0,0,0,1.659.474,1.185,1.185,0,0,0,.586-.781,2.05,2.05,0,0,0,2.789,0,1.59,1.59,0,0,1-.655-1.394,3.124,3.124,0,0,1,.837-1.395,4.184,4.184,0,0,0,.851-2.649,16.939,16.939,0,0,0-.279-2.008,6.428,6.428,0,0,1,.892-3.974" transform="translate(-115.205 -115.191)" fill="#ffb939"/>
            <path id="Path_195413" data-name="Path 195413" d="M108.35,147.06c.837,2.956,13.457,22.409,13.457,22.409l-6.763,24.655,3.9,2.413s12.021-19.983,12.062-25.631-8.8-26.328-15.256-34.862A14.642,14.642,0,0,0,109.577,132" transform="translate(-108.35 -132)" fill="#ffb939"/>
          </g>
          <path id="Path_195414" data-name="Path 195414" d="M141.1,126.175c-.837-.488-1.464-.99-2.008-.2-.279.418-2.789,5.257-2.789,5.257a21.118,21.118,0,0,0,0-2.97,16.331,16.331,0,0,1,.976-3.43l1-3.221a4.839,4.839,0,0,0,.237-3.221,3.625,3.625,0,0,0-1.018-1.311,10.835,10.835,0,0,0-4.95-2.12,52.99,52.99,0,0,1-5.327-1.088,5.857,5.857,0,0,1-2.036-1.032,4.365,4.365,0,0,1-1.394-3.277,6.805,6.805,0,0,1,1.046-3.5,5.578,5.578,0,0,0,.53,1.227,4.56,4.56,0,0,1,.976-1.534c.516,2.887,12.676,1.924,15.507,3.207,1.966.879,3.6,1.394,3.542,4.644a1.143,1.143,0,0,0,.39.5,8.911,8.911,0,0,1,2.789,6.456c.265,3.528-1.8,7.363-3.821,10.291a6.637,6.637,0,0,1-1.506,1.8,3.932,3.932,0,0,1-2.789.628c-.879-.167-2.608-.084-2.622-.976,0-.641,1.395-1.785,1.729-2.3" transform="translate(-79.52 -105.76)" fill="#411809"/>
          <path id="Path_195415" data-name="Path 195415" d="M128.519,124.057a1.116,1.116,0,0,0,1.659,1.269,3.863,3.863,0,0,0,2.426-2.984c.279-1.534-.53-3.068-1.938-2.663a2.092,2.092,0,0,0-1.325,2.022" transform="translate(-70.104 -100.295)" fill="#ffbe9d"/>
          <path id="Path_195416" data-name="Path 195416" d="M136.722,126.18l3.9.725a5.452,5.452,0,0,1-3.946,1.394" transform="translate(-89.519 -97.706)" fill="#f2a181"/>
          <path id="Path_195417" data-name="Path 195417" d="M137.5,223.239c-.711-2.315,1.283-5.9,2.259-8.576s8.367-24.083,8.367-24.083l1.618,8.632c-1.52,3.709-3.193,7.67-4.853,11.156h0c-.655,1.395-1.3,2.622-1.924,3.793a21.3,21.3,0,0,0-2.2,9.148c.418,1.394,2.287,9.915,1.1,14.851-2.51,10.417-3.138,25.8-3.138,25.8a13.127,13.127,0,0,1-1.813.209c.223-3.793.586-10.5.628-11.825,0-1.869,2.426-12.648,2.259-16.915A57.6,57.6,0,0,0,137.5,223.239Z" transform="translate(-98.953 -72.301)" fill="#003d57"/>
          <g id="Group_10735" data-name="Group 10735" transform="translate(53.82 87.685)">
            <path id="Path_195418" data-name="Path 195418" d="M129.39,177.509l2.371.558,1.715-8.925-2.385-.5Z" transform="translate(-126.022 -168.64)" fill="#fe7d90"/>
            <path id="Path_195419" data-name="Path 195419" d="M130.939,171.676a2.161,2.161,0,0,1,2.524-1.715h0l2.789.5-.809,4.253-2.789-.516a2.175,2.175,0,0,1-1.729-2.524Zm3.347.628a1.2,1.2,0,0,0-.962-1.394,1.213,1.213,0,1,0-.446,2.385h0a1.2,1.2,0,0,0,1.395-.976Z" transform="translate(-130.89 -168.134)" fill="#fe7d90"/>
          </g>
          <path id="Path_187070" data-name="Path 187070" d="M147.468,121.912s-7.907.781-13.666-1.032c0,0-3.751,9.761,1.241,11.658,4.183,1.6,9.566-.4,12.662-6Z" transform="translate(-90.699 -99.795)" fill="#411809"/>
          <path id="Path_187068-2" data-name="Path 187068-2" d="M144.044,117.82A19.383,19.383,0,0,1,139.4,122.1a4.183,4.183,0,0,0,1.659.781,7.292,7.292,0,0,0,2.2,0Z" transform="translate(-96.729 -101.002)" fill="#f2a181"/>
        </g>
        <g id="Group_15547" data-name="Group 15547" transform="matrix(-0.656, 0.755, -0.755, -0.656, 87.725, 282.601)">
          <g id="Group_15546" data-name="Group 15546" transform="translate(27.279 0) rotate(30)">
            <g id="Group_5763" data-name="Group 5763" transform="translate(0 0)">
              <path id="Path_186838" data-name="Path 186838" d="M14.362,0C7.952,6.41,2.806,12.65,4.337,15.065c1.218,1.9,5.894.318,6.686,2.064C12.426,20.2-1.227,27.611.09,31.33c.7,1.977,7.38-.549,8.9,2,1.238,2.1-2.584,4.755-3.277,10.694-.413,3.442.14,8.886,3.013,10.211,3.153,1.453,8.882-2.163,11.334-6.913,3.772-7.326-.924-16.067,1.457-17.178,2.039-.949,6.022,5.217,8.721,3.991,1.374-.623,1.622-2.794,1.688-3.36.85-7.384-9.546-14.086-8.77-15.044.182-.231.908-.029,4.689,1.874,6.137,3.087,7.33,4.127,7.941,3.673,1.238-.924-.825-7.4-4.953-12.262C25.63,2.827,18.452.772,14.362,0Z" fill="#b5c8dd"/>
              <path id="Path_186839" data-name="Path 186839" d="M4.128,0S10.228,15.271,0,47.513" transform="translate(11.394 1.754)" fill="none" stroke="#999" stroke-linecap="round" stroke-miterlimit="10" stroke-width="1"/>
            </g>
          </g>
          <g id="Group_5763-2" data-name="Group 5763" transform="translate(25.857 8.216)">
            <path id="Path_186838-2" data-name="Path 186838" d="M11.33,0C6.273,5.057,2.213,9.98,3.421,11.884c.961,1.5,4.65.251,5.275,1.628C9.8,15.938-.968,21.783.071,24.716c.554,1.56,5.822-.433,7.02,1.576.977,1.654-2.038,3.751-2.585,8.436-.326,2.716.111,7.01,2.377,8.055,2.488,1.146,7.007-1.706,8.941-5.454,2.976-5.779-.729-12.676,1.149-13.552,1.609-.749,4.751,4.116,6.88,3.149,1.084-.492,1.28-2.2,1.332-2.65.671-5.825-7.531-11.113-6.919-11.868.143-.182.716-.023,3.7,1.478,4.842,2.435,5.783,3.256,6.265,2.9.977-.729-.651-5.841-3.907-9.674C20.219,2.23,14.557.609,11.33,0Z" transform="translate(0 0)" fill="#03618a"/>
            <path id="Path_186839-2" data-name="Path 186839" d="M3.256,0S8.068,12.047,0,37.483" transform="translate(8.989 1.384)" fill="none" stroke="#999" stroke-linecap="round" stroke-miterlimit="10" stroke-width="1"/>
          </g>
        </g>
        <g id="Group_15538" data-name="Group 15538" transform="translate(50.233 115.992)">
          <g id="Group_10738" data-name="Group 10738" transform="translate(34.711 17.933)">
            <path id="Path_195421" data-name="Path 195421" d="M195.381,128.627l-6.749,29.7a1.394,1.394,0,0,0,1.06,1.7h.112l21.057,3.026a1.394,1.394,0,0,0,1.59-1.1l6.763-29.7a1.395,1.395,0,0,0-1.074-1.7h-.112l-21.057-3.026A1.4,1.4,0,0,0,195.381,128.627Z" transform="translate(-188.59 -127.507)" fill="#57c6f2"/>
            <path id="Path_195422" data-name="Path 195422" d="M196.24,129l-6.47,28.434,20.917,3L217.158,132Z" transform="translate(-188.125 -126.918)" fill="#e5f8ff"/>
            <g id="Group_10737" data-name="Group 10737" transform="translate(6.135 4.634)">
              <line id="Line_588" data-name="Line 588" x1="17.766" y1="2.538" transform="translate(2.901)" fill="none" stroke="#a1d2f0" stroke-linecap="round" stroke-linejoin="round" stroke-width="0.53"/>
              <line id="Line_589" data-name="Line 589" x1="17.766" y1="2.552" transform="translate(2.301 2.677)" fill="none" stroke="#a1d2f0" stroke-linecap="round" stroke-linejoin="round" stroke-width="0.53"/>
              <line id="Line_590" data-name="Line 590" x1="11.1" y1="1.59" transform="translate(1.576 5.871)" fill="none" stroke="#a1d2f0" stroke-linecap="round" stroke-linejoin="round" stroke-width="0.53"/>
              <line id="Line_591" data-name="Line 591" x1="11.1" y1="1.604" transform="translate(0.781 8.172)" fill="none" stroke="#a1d2f0" stroke-linecap="round" stroke-linejoin="round" stroke-width="0.53"/>
              <line id="Line_592" data-name="Line 592" x1="11.086" y1="1.59" transform="translate(0 10.487)" fill="none" stroke="#a1d2f0" stroke-linecap="round" stroke-linejoin="round" stroke-width="0.53"/>
              <line id="Line_593" data-name="Line 593" x1="11.086" y1="1.59" transform="translate(4.072 23.26)" fill="none" stroke="#a1d2f0" stroke-linecap="round" stroke-linejoin="round" stroke-width="0.53"/>
            </g>
          </g>
          <path id="Path_195423" data-name="Path 195423" d="M188.836,163.657a9.412,9.412,0,0,0,2.928-2.622l2.51-2.984a2.58,2.58,0,0,0,.711-1.325c-1.394-.112-2.315,1.7-3.709,1.813a29.393,29.393,0,0,1,2.789-6.624,2.05,2.05,0,0,0,.4-1.645,10.822,10.822,0,0,0-3.9,2.789,20.834,20.834,0,0,0-2.106,2.691,28.963,28.963,0,0,0-3.779,9.273" transform="translate(-155.422 -100.594)" fill="#f2a181"/>
          <g id="Group_10739" data-name="Group 10739" transform="translate(7.358 74.275)">
            <path id="Path_195424" data-name="Path 195424" d="M188.98,180.586,173.948,167.91s-6.972,9.483-4.351,18.63c1.3,4.5,2.928,6.735,3.626,8.869s5.174,30.233,4.839,32.3-2.789,7.851-3.7,13.945c-1.116,7.307-.92,31.111-1.785,37.428s4.964,7.377,5.285,5.243c2.789-18.254,9.971-46.7,10.989-55.78S189.454,202.675,188.98,180.586Z" transform="translate(-168.962 -167.91)" fill="#ffbe9d"/>
            <path id="Path_195425" data-name="Path 195425" d="M185.21,189.928l-6.54,14.991a33.467,33.467,0,0,1,4.56,15.716c.112,2.9-.139,5.787,0,8.688a2.425,2.425,0,0,0,.084.628c.879-4.281,1.534-7.823,1.785-10.124.711-6.443.711-16.734.488-29.926Z" transform="translate(-165.151 -159.235)" fill="#f2a181"/>
            <path id="Path_195426" data-name="Path 195426" d="M178.719,247.547s-1.394,6.624-1.032,7.474a11.825,11.825,0,0,0,3.124,4.183c1.394.92,4.672,2.036,4.936,2.44a1,1,0,0,1-.2,1.395,6.61,6.61,0,0,1-4.588,1.157c-4.365-.725-4.825-2.65-7.363-2.956a3.328,3.328,0,0,1-2.468,0,2.873,2.873,0,0,1-1.7-2.789,12.55,12.55,0,0,1,1.924-4.672c.739-1.395,1.255-7.53,1.255-7.53" transform="translate(-168.797 -137.006)" fill="#ffbe9d"/>
            <path id="Path_195427" data-name="Path 195427" d="M186.078,260.908c.321-.558.4-1.394.1-1.576a24.191,24.191,0,0,0-2.719-1.632c-.837-.39-2.189-.739-1.715-.488s-.39,1.213-1.185,1.171c-2.789-.167-4.755-1.994-6.317-2.371a5.341,5.341,0,0,1-3.291-3.654,10.346,10.346,0,0,0-1.618,3.082A5.216,5.216,0,0,0,169,257.8a5.577,5.577,0,0,1,.251,2.245,4.31,4.31,0,0,0,1.618.572,6.081,6.081,0,0,0,1.743,0l.181-1.394a5.769,5.769,0,0,1,1.395.139,7.082,7.082,0,0,1,2.134.99c.307.377.558,1.06.976,1.255a8.451,8.451,0,0,0,3.584.893C183.819,262.679,185.535,261.829,186.078,260.908Z" transform="translate(-168.975 -134.595)" fill="#1b227a"/>
          </g>
          <g id="Group_10740" data-name="Group 10740" transform="translate(12.413 72.838)">
            <path id="Path_195428" data-name="Path 195428" d="M208.02,294.35c-.321-.363-3.793-.92-5.439-1.6a9.427,9.427,0,0,1-3.807-3.626,40.845,40.845,0,0,1-.237-7.265c.335-13,2.789-44.763,3.082-52.363.6-13.22-1.116-26.858-6.191-48.082L176.491,166.88s-5.3,9.859-3.528,19.286c1.018,5.466,5.578,6.3,6.331,8.367s12.216,36.4,12.216,36.4a65.027,65.027,0,0,0-2.3,15.6c-.112,6.972,3.04,27.89,3.612,35.8.07,1.562.349,5.285-.112,6.47-.558,1.394-1.994,3.152-1.924,4.992a2.789,2.789,0,0,0,2.148,2.5c1.394.418,2.092-.363,2.552-.376,2.677-.112,3.416,1.715,8.018,1.715a7.321,7.321,0,0,0,4.574-1.9.962.962,0,0,0-.056-1.381Z" transform="translate(-172.6 -166.88)" fill="#ffbe9d"/>
            <path id="Path_195429" data-name="Path 195429" d="M203.479,261.123c.251-.586.223-1.394-.112-1.562a24.407,24.407,0,0,0-3.04-1.171c-.934-.251-2.371-.376-1.841-.2s-.237,1.255-1.06,1.395c-2.859.279-5.2-1.185-6.861-1.311a4.379,4.379,0,0,1-3.444-3.068,11.016,11.016,0,0,0-1.7,3.319,5.048,5.048,0,0,0,0,2.371,5.2,5.2,0,0,1,.572,2.175,4.462,4.462,0,0,0,1.687.209,7.1,7.1,0,0,0,1.8-.265v-1.395a7.389,7.389,0,0,1,1.395-.1,4.909,4.909,0,0,1,2.343.837c.39.293.809.795,1.269.906a9.651,9.651,0,0,0,3.737.279C201.4,263.284,203.018,262.141,203.479,261.123Z" transform="translate(-167.599 -132.035)" fill="#1b227a"/>
          </g>
          <path id="Path_195430" data-name="Path 195430" d="M174.513,167.192c-1.283,1.395-5.871,9.036-5.913,15.256s2.161,10.194,2.357,11.491c1.395,9.483,2.859,20.917,2.859,21.559s5.383,4.183,12.634,3.765c13.387-.837,18.589-4.351,18.589-4.351s-.641-23-2.705-34.332c-1.032-5.676-5.578-14.809-5.578-14.809" transform="translate(-161.765 -94.479)" fill="#49a8d6"/>
          <path id="Path_195431" data-name="Path 195431" d="M164.08,149.3s2.161,10.71,2.719,12.55,3.361,14.015,6.01,13.805,17.18-12.327,17.18-12.327l-2.064-4.183-12.8,6.205s-1.157-13.833-2.175-17.124" transform="translate(-163.549 -101.4)" fill="#ffbe9d"/>
          <path id="Path_195432" data-name="Path 195432" d="M167.62,153.72c1.395,4.769,4.183,9.761,4.964,13.527.167.739,9.008-2.482,9.036-5.8" transform="translate(-162.151 -99.233)" fill="#3e89cc"/>
          <path id="Path_195433" data-name="Path 195433" d="M172.89,138.34a15.7,15.7,0,0,0-6.387,2.092c-5.48,4.183-1.241,19.411-1.241,19.411s-.265.809,3.4.6a25.632,25.632,0,0,0,6.638-1.255l-1.074-12.467" transform="translate(-163.698 -105.301)" fill="#49a8d6"/>
          <path id="Path_195434" data-name="Path 195434" d="M166.827,144.52s-.46,8.939,1.157,13.457a14.6,14.6,0,0,0,3-.39Z" transform="translate(-162.488 -102.863)" fill="#3e89cc"/>
          <path id="Path_195435" data-name="Path 195435" d="M190.208,118.45c2.552,3.3,2.05,7.963,1.394,12.09-.321,2.092-.641,4.183-.948,6.275a3.166,3.166,0,0,1-4.044,3.319q0,2.594,0,5.188-4.434.112-8.869,0a8.479,8.479,0,0,0-.767-3.514c-1.395,0-2.412-1.478-2.984-2.789a40.266,40.266,0,0,1-1.59-4.741,25.886,25.886,0,0,1-1.255-6.512,9.385,9.385,0,0,1,1.883-6.233,11.393,11.393,0,0,1,3.6-2.691c1.841-.962,4.044-1.715,5.94-.879" transform="translate(-160.768 -113.483)" fill="#ffbe9d"/>
          <path id="Path_195436" data-name="Path 195436" d="M188.5,135.387a5.4,5.4,0,0,1,.237-3.877,2.608,2.608,0,0,1,.781-.99,1.618,1.618,0,0,1,2.371.572,22.312,22.312,0,0,0,.558-7.251,9.4,9.4,0,0,0-5.968-8.2c-6.275-2.58-15.339,0-17.822,6.122A15.2,15.2,0,0,0,171.445,137c3.249,3.458,7.949,3.96,12.272,3.249,2.2-.363,5.578-.139,6.763-3.152a.335.335,0,0,0-.2-.432.251.251,0,0,0-.139,0A1.817,1.817,0,0,1,188.5,135.387Z" transform="translate(-162.115 -114.647)" fill="#963815"/>
          <path id="Path_195437" data-name="Path 195437" d="M184.778,126.842c.237.363.181.851.4,1.227a2.789,2.789,0,0,0,1.506,1.157c1.074.5.823,2.05.795,2.789.795-.53.92-1.98,1.116-2.719s.363-1.673.6-2.5a13.193,13.193,0,0,0,.725-2.4,9.887,9.887,0,0,0-3.765-7.949,5.271,5.271,0,0,0-5.871,0,4.672,4.672,0,0,0-1.673,2.134,1.4,1.4,0,0,0,0,1.143" transform="translate(-157.862 -114.287)" fill="#963815"/>
          <path id="Path_195438" data-name="Path 195438" d="M172.74,139.273c.153-1.018.418-2.2,1.394-2.594a3,3,0,0,1,.837-.181,67.206,67.206,0,0,1,8.7-.4,8.074,8.074,0,0,1,3.528.614,8.646,8.646,0,0,1,3.417,4.351" transform="translate(-160.132 -106.192)" fill="#b03d44"/>
          <path id="Path_195439" data-name="Path 195439" d="M199.547,175.926a22.317,22.317,0,0,1-1.673-1.966,30.6,30.6,0,0,1-1.227-9.915c.293-1.813,1.9-2.789,2.622-6.847a14.893,14.893,0,0,0-2.4-10.989c-1.687-2.454-.683-2.44-1.255-5.452a2.929,2.929,0,0,0-.6-1.492,14.672,14.672,0,0,0-3.375-1.6c-4.7-.725-7.461-.153-12.2,0a40.747,40.747,0,0,0-6.972.893c-2.552.558-4.769,1.241-5.3,4.7a34.862,34.862,0,0,0,1.464,15.939c1.088,3.375,7.53,15.019,5.927,17.278a7.724,7.724,0,0,0-1.394,2.134c-.4,2.357,4.923,3.179,7.2,3.361a86.457,86.457,0,0,0,10.919,0c2.636-.112,8.367-1.032,8.8-4.295a2.357,2.357,0,0,0-.53-1.743Z" transform="translate(-162.465 -105.709)" fill="#49a8d6"/>
          <path id="Path_195440" data-name="Path 195440" d="M191.732,154.059a9.553,9.553,0,0,1-.7,2.705,7.223,7.223,0,0,1-4.783.223,70.868,70.868,0,0,0-2.161-9.148S191.732,153.181,191.732,154.059Z" transform="translate(-155.655 -101.553)" fill="#3e89cc"/>
          <path id="Path_195441" data-name="Path 195441" d="M175.651,131.484a5.02,5.02,0,0,0-4.95,1.952c-1.394,1.673-1.994,4.184-.7,6a5.76,5.76,0,0,0,1.883,1.492,9.985,9.985,0,0,0,7.1,1.395,5.717,5.717,0,0,0,4.462-5.188c0-2.231-1.659-4.1-3.3-5.578" transform="translate(-161.495 -108.039)" fill="#963815"/>
          <g id="Group_10742" data-name="Group 10742" transform="translate(32.717 33.827)">
            <path id="Path_195442" data-name="Path 195442" d="M187.16,152.825s8.66,20.917,12.425,20.917c2.789,0,9.455-19.342,9.455-19.342l-4.184-2.008-4.727,8.1L195.3,145.42" transform="translate(-187.16 -136.334)" fill="#ffbe9d"/>
            <path id="Path_195443" data-name="Path 195443" d="M199.2,154.9a8.367,8.367,0,0,0,1.311-3.779,15.492,15.492,0,0,1-.1-4.016,16.483,16.483,0,0,1,1.394-2.789c.418-.349,1.924-.92,2.287-.669s.823-.92,1.395-.823a1.311,1.311,0,0,1,1.116,1.171c0,.558.823.669.92,1.074a5.576,5.576,0,0,0,.2,1.074c.153.307.614.153.767.906a2.538,2.538,0,0,1,0,1.116c0,.349.363.335.265,1a8.771,8.771,0,0,1-.976,2.329,6.847,6.847,0,0,1-2.371,2.4,4.435,4.435,0,0,0-1.395,1.9" transform="translate(-182.41 -137.362)" fill="#ffbe9d"/>
            <path id="Path_195444" data-name="Path 195444" d="M201.777,139.191a.5.5,0,0,0-.7-.223h0a.669.669,0,0,0-.167.837c3.458,7.767,2.928,6.624,2.566,5.8,0,0,.2.237.6-.112s.293-.572.293-.572S201.889,139.358,201.777,139.191Z" transform="translate(-181.766 -138.905)" fill="#1b227a"/>
            <g id="Group_10741" data-name="Group 10741" transform="translate(19.467 6.633)">
              <path id="Path_195445" data-name="Path 195445" d="M203.477,143.757a6.206,6.206,0,0,1-1.562,1.632c-.4.363-.349.614-.795.99.781,0,.641-.5,1.645-1.227a2.133,2.133,0,0,0,1.032-1.269.167.167,0,0,0-.126-.209.153.153,0,0,0-.2.07Z" transform="translate(-201.12 -143.661)" fill="#f2a181"/>
            </g>
          </g>
          <path id="Path_195446" data-name="Path 195446" d="M181.44,137.352c2.245.112,8.827-1.032,12.481,2.789,3.068,3.207,4.811,11.588,6.052,15-3.068,3.124-6.024,5.578-10.668,4.63-.181-.139-2.482-7.391-4.183-8.032" transform="translate(-156.699 -105.722)" fill="#49a8d6"/>
          <path id="Path_195447" data-name="Path 195447" d="M186.687,212.34c-.851-5.578-6.136-22.619-6.359-23.093a20.569,20.569,0,0,1-5.717-6.387c-.655,3.751,1.046,7.461,2.649,10.9,2.789,6.024,4.462,12.55,6.875,18.77" transform="translate(-159.451 -87.738)" fill="#3e89cc"/>
          <path id="Path_187885" data-name="Path 187885" d="M184.883,130.548a.879.879,0,1,1-1.729,0,1.185,1.185,0,0,1,.39-1,.753.753,0,0,1,.92,0,1.143,1.143,0,0,1,.418.976Z" transform="translate(-156.029 -108.832)" fill="#fff"/>
        </g>
      </g>
      <line id="Line_649" data-name="Line 649" y2="41.998" transform="translate(1155.747 493.345)" fill="none" stroke="#6b9cff" stroke-miterlimit="10" stroke-width="0.546"/>
      <g id="Group_15600" data-name="Group 15600" transform="translate(1158.473 498.54)">
        <path id="Path_200900" data-name="Path 200900" d="M-521.375,267.91a15.79,15.79,0,0,0-15.79,15.79,15.79,15.79,0,0,0,15.79,15.79,15.79,15.79,0,0,0,15.79-15.79A15.79,15.79,0,0,0-521.375,267.91Zm0,29A13.211,13.211,0,0,1-534.586,283.7a13.21,13.21,0,0,1,13.211-13.211A13.211,13.211,0,0,1-508.164,283.7,13.212,13.212,0,0,1-521.375,296.911Z" transform="translate(537.165 -267.91)" fill="#6b9cff"/>
        <path id="Path_200901" data-name="Path 200901" d="M-509.1,288.132a15.8,15.8,0,0,0,.73-4.75,15.769,15.769,0,0,0-7.056-13.15l-1.426,2.146a13.2,13.2,0,0,1,5.9,11,13.2,13.2,0,0,1-.61,3.975Z" transform="translate(539.947 -267.592)" fill="#ffca44"/>
        <path id="Path_200902" data-name="Path 200902" d="M-508.842,285.311a13.217,13.217,0,0,1-12.608,9.259,13.209,13.209,0,0,1-12.69-9.565l-2.476.712a15.787,15.787,0,0,0,15.167,11.432,15.8,15.8,0,0,0,15.069-11.067Z" transform="translate(537.24 -265.569)" fill="#3358cc"/>
        <path id="Path_200903" data-name="Path 200903" d="M-525.153,268.07l.349,2.552a13.182,13.182,0,0,1,1.784-.134,13.141,13.141,0,0,1,7.274,2.187l1.42-2.151a15.7,15.7,0,0,0-8.694-2.615A15.888,15.888,0,0,0-525.153,268.07Z" transform="translate(538.81 -267.91)" fill="#d18100"/>
        <path id="Path_200904" data-name="Path 200904" d="M-515.3,284.5h-13.023a2.412,2.412,0,0,1-2.413-2.413h0a2.412,2.412,0,0,1,2.413-2.413H-515.3a2.412,2.412,0,0,1,2.413,2.413h0A2.412,2.412,0,0,1-515.3,284.5Z" transform="translate(538.045 -266.299)" fill="#d1d1d1"/>
      </g>
    </g>
  </g>
</svg>
