<svg xmlns="http://www.w3.org/2000/svg" xmlns:xlink="http://www.w3.org/1999/xlink" width="546.093" height="329" viewBox="0 0 546.093 329">
  <defs>
    <filter id="Path_198574-2" x="138.394" y="49.19" width="404.976" height="231.228" filterUnits="userSpaceOnUse">
      <feOffset dx="-7" input="SourceAlpha"/>
      <feGaussianBlur stdDeviation="3" result="blur"/>
      <feFlood flood-opacity="0.2"/>
      <feComposite operator="in" in2="blur"/>
      <feComposite in="SourceGraphic"/>
    </filter>
    <filter id="Rectangle_8540" x="297.04" y="256.433" width="82.007" height="60.232" filterUnits="userSpaceOnUse">
      <feOffset dy="3" input="SourceAlpha"/>
      <feGaussianBlur stdDeviation="3" result="blur-2"/>
      <feFlood flood-opacity="0.161"/>
      <feComposite operator="in" in2="blur-2"/>
      <feComposite in="SourceGraphic"/>
    </filter>
  </defs>
  <g id="Group_22026" data-name="Group 22026" transform="translate(443 -8857)">
    <g id="Group_14477" data-name="Group 14477" transform="translate(-540.981 8812.344)">
      <path id="Path_200062" data-name="Path 200062" d="M335.176,15.279C398.635,14.1,438.861,3.021,475.75,5.876c68.5,5.3,74.493,24,68.621,51.306S401.011,93.3,266.862,93.3,11.169,89.93,1.01,49.317,58.444-.715,152.126.041,271.716,16.46,335.176,15.279Z" transform="translate(644.074 373.656) rotate(180)" fill="#dee9f2" opacity="0.3"/>
      <g id="Group_14449" data-name="Group 14449" transform="translate(99.351 101.438)">
        <g id="Group_14448" data-name="Group 14448">
          <path id="Path_198570-2" data-name="Path 198570-2" d="M60,288.533s49.152-152.3,146.515-152.3,242.935,152.3,242.935,152.3Z" transform="translate(-60 -73.897)" fill="#6c441c"/>
          <path id="Path_198571" data-name="Path 198571" d="M60.121,283.514s51-149.244,122.971-149.244S434.979,283.514,434.979,283.514Z" transform="translate(-29.14 -74.139)" fill="#3c1f01"/>
          <path id="Path_198572" data-name="Path 198572" d="M201.976,130.571c47.124-3.389,93.263,54.13,93.263,54.13l-85.712-6.242-45.4,28.994L145.876,187.49,103.39,203.219S154.852,133.96,201.976,130.571Z" transform="translate(-49.175 -88.977)" fill="#8f6a44"/>
          <path id="Path_198573" data-name="Path 198573" d="M83.434.013C99.025.952,60.383,71.372,60.383,71.372L43.191,50.178,0,63.674S18.635,40.785,39.648,25.028,76.371-.412,83.434.013Z" transform="translate(50.927 50.608) rotate(-3)" fill="#a6805a"/>
          <g transform="matrix(1, 0, 0, 1, -1.37, -56.78)" filter="url(#Path_198574-2)">
            <path id="Path_198574-2-2" data-name="Path 198574-2" d="M302.563,311.228H195.8L316.788,180.645s4.585-5.5,37.126-41.778S415.7,98,415.7,98L582.776,311.228Z" transform="translate(-41.41 -39.81)" fill="#6c441c"/>
          </g>
          <path id="Path_198575" data-name="Path 198575" d="M272.24,311.228S305.646,98,372.475,98,539.554,311.228,539.554,311.228Z" transform="translate(0.446 -96.592)" fill="#3c1f02" opacity="0.99"/>
          <path id="Path_198576" data-name="Path 198576" d="M385.36,99.514c54.4-2.03,104.543,89.441,104.543,89.441l-95.6-15.367L327.611,218.5l-9.98-32.868L270.723,210.1s32.293-42.915,54.818-66.885,31.2-30.249,31.2-30.249a62.948,62.948,0,0,1,12.744-8.894C375.995,100.91,378.439,99.773,385.36,99.514Z" transform="translate(-21.076 -99.481)" fill="#8f6a44"/>
          <path id="Path_198577" data-name="Path 198577" d="M114.16.119c14.33,2.617-57.982,112.212-57.982,112.212L48.107,81.353,0,103.356s18.844-23.976,34.837-40.4S62.705,35.442,62.705,35.442,77.513,20.9,90.68,11.092,110.579-.535,114.16.119Z" transform="translate(245.197 7.409) rotate(-3)" fill="#d3ae87" opacity="0.33"/>
        </g>
        <g id="Group_15999" data-name="Group 15999" transform="translate(114.805 205.095)">
          <path id="Path_201228" data-name="Path 201228" d="M-8378.017,19410.27s.055.205.811-.838c1.136-1.059.827-.92.827-.92s-.427-1.006-1.2-.766c-6.886,2.119-31.573,2.441-27.513,6.961s33.594,10.316,43.74,11.113c22.261,1.744,40.378-1.816,59.841-2.42s18,0,18,0,38.217.324,48.738-1.424,39.089-8.643,0-11.525S-8378.017,19410.27-8378.017,19410.27Z" transform="translate(8405.541 -19401.088)" fill="#79bedf"/>
          <path id="Path_201229" data-name="Path 201229" d="M120.946,195.413c3.626-2.01,9.731-3.373,16.566-5.223s11.9-3.1,11.9-3.1l-8.158,9.018S117.321,197.423,120.946,195.413Z" transform="translate(-100.7 -187.091)" fill="#79bedf"/>
        </g>
      </g>
      <path id="Path_195033" data-name="Path 195033" d="M171.084,219.188c-.493,5.024.327-.17-.766,4.781a28.175,28.175,0,0,0,.766,8.065c.506,1.338-1.352,33.776-1.544,34.516s3.957.327,3.957.327,8.254-23.659,7.748-27.507-1.026-12.068.424-15.4S171.672,211.923,171.084,219.188Z" transform="translate(333.108 69.246)" fill="#ffb780"/>
      <path id="Path_195033-2" data-name="Path 195033" d="M171.137,219.383c-.539,5.372.358-.182-.838,5.113a29.458,29.458,0,0,0,.838,8.625c.554,1.431-.714,37.014-.924,37.807s4.332.35,4.332.35,7.725-26.042,7.381-30.6-.789-12.618.8-16.183S171.781,211.615,171.137,219.383Z" transform="translate(310.027 66.523)" fill="#ffb780"/>
      <g id="bag" transform="translate(404.021 300.059)">
        <path id="Path_198691" data-name="Path 198691" d="M329.147,207.338h-2.014v-7.8H315.814v7.8H313.8v-8.66a1.137,1.137,0,0,1,1.137-1.137H328.01a1.137,1.137,0,0,1,1.137,1.137h0Z" transform="translate(-289.477 -197.54)" fill="#ccc8c8"/>
        <g transform="matrix(1, 0, 0, 1, -306.04, -255.4)" filter="url(#Rectangle_8540)">
          <rect id="Rectangle_8540-2" data-name="Rectangle 8540" width="64.007" height="42.233" rx="2.67" transform="translate(306.04 262.43)" fill="#3ac09c"/>
        </g>
        <rect id="Rectangle_8541" data-name="Rectangle 8541" width="5.166" height="42.233" transform="translate(10.496 7.03)" fill="#021323"/>
        <rect id="Rectangle_8542" data-name="Rectangle 8542" width="5.166" height="42.233" transform="translate(48.317 7.03)" fill="#021323"/>
        <path id="Path_198692" data-name="Path 198692" d="M316.981,209.81a4.453,4.453,0,0,0-6.221,6.221,2.659,2.659,0,0,0,.836.822,4.44,4.44,0,0,0,6.208-6.207A2.657,2.657,0,0,0,316.981,209.81Z" transform="translate(-290.918 -193.312)" fill="#6e6e6e"/>
        <rect id="Rectangle_8543" data-name="Rectangle 8543" width="11.963" height="7.002" transform="translate(27.707 37.478)" fill="#003d57"/>
        <path id="Path_198693" data-name="Path 198693" d="M328.828,211.46c-2.878-.473-7.578,8.907-7.578,8.907h0s9.616,4.323,11.51,2.11-1.055-10.435-3.933-10.962Z" transform="translate(-289.718 -191.385)" fill="#eebb73"/>
      </g>
      <path id="Path_198673" data-name="Path 198673" d="M364.713,129.929a57.733,57.733,0,0,0-10.209,0c-3.3.589-3.7,8.8-3.3,16.087s-3.453,39.739,1.055,41.89,27.406,9.482,38.752,3.522c5.481-3.412,2.741-24.46,2.933-32.819s1.59-23.651-.987-25.638S370.537,127.9,364.713,129.929Z" transform="translate(127.664 47.49)" fill="#ffc5c5"/>
      <path id="Path_198674" data-name="Path 198674" d="M363.527,133.99a50.3,50.3,0,0,0-9.085,0c-2.946.521-3.289,7.824-2.946,14.306s-3.056,35.354.946,37.231,24.419,8.427,34.449,3.124c4.906-3.015,2.439-21.733,2.617-29.16s1.37-21.034-.891-22.8S368.68,132.182,363.527,133.99Z" transform="translate(127.838 49.016)" fill="#ff6d6d"/>
      <path id="Path_198675" data-name="Path 198675" d="M346.754,119.51s50.934,4.111,58.1,2.741c5.714,8.3,3.768,21.445-2.974,19.376-8.907-2.741-33.709-7.386-53.318-3.289C340.053,135.542,341.369,121.058,346.754,119.51Z" transform="translate(124.819 43.935)" fill="#3d3d3d"/>
      <path id="Path_198676" data-name="Path 198676" d="M388.005,124.451s2.22-.247,2.878,4.59-2.069,7.7-2.878,8.071-5.3-.219-5.3-.219-1.137-10.058.987-10.962A35.723,35.723,0,0,1,388.005,124.451Z" transform="translate(139.566 45.758)" fill="#1e1e1e"/>
      <path id="Path_198677" data-name="Path 198677" d="M403.082,125.1s-2.124,1.014-2.165,5.481.767,8.907,4.262,9.825c-3.33,1.274-5.3,0-13.443-1.768s-37.327-2.425-43.055-1.37c-5.481.11-8.825-10.962-4.851-14.621C354.628,122.787,403.082,125.1,403.082,125.1Z" transform="translate(124.7 45.093)" fill="#707070"/>
      <path id="Path_195669" data-name="Path 195669" d="M363.911,135.67h10.373l-.329,55.62L360.17,192.8Z" transform="translate(131.455 49.852)" fill="#fff"/>
      <path id="Path_195672" data-name="Path 195672" d="M390.1,229.837s2.673-14.568,3.867-24.774,0-15.806,0-15.806l-1.83-12.047H356.653l-.249,10.617L351.867,229.2h16.775l5.593-36.289,2.033,36.289Z" transform="translate(126.434 65.135)" fill="#c53d81"/>
      <path id="Path_195673" data-name="Path 195673" d="M385.407,178.968l-.26-1.768H355v1.548l6.317,2.1a27.023,27.023,0,0,0,15.841.4Z" transform="translate(129.517 65.184)" fill="#0e0e0e"/>
      <path id="Path_195674" data-name="Path 195674" d="M387.414,144.365c-3.275-3.59-10.839-9.332-19.184-7.948l-8.729,3.8-2.562,18.417-2.288-.521,31.092.356,2.96,1.466S390.757,147.969,387.414,144.365Z" transform="translate(129.374 50.078)" fill="#fff"/>
      <path id="Path_195682" data-name="Path 195682" d="M366.665,136.6l-2.316,68.131H349.92l4.248-30.955,2.741-18.814s1.37-12.648,4.289-14.909a34.845,34.845,0,0,1,5.467-3.453Z" transform="translate(127.716 50.183)" fill="#555da2"/>
      <path id="Path_195684" data-name="Path 195684" d="M371,136.33l-1.507,68.515h15.443s.576-54.291-1.137-59.964S371,136.33,371,136.33Z" transform="translate(134.843 50.084)" fill="#555da2"/>
      <path id="Path_195685" data-name="Path 195685" d="M358.05,139.479l6.646-3.809-2.151,33.709L358.9,150.332l1.288-.877Z" transform="translate(130.709 49.873)" fill="#777eb5"/>
      <path id="Path_195686" data-name="Path 195686" d="M370.05,169.855l.576-34.175,5.933,2.631-3.234,11.127.822.63Z" transform="translate(135.078 49.876)" fill="#777eb5"/>
      <path id="Path_187667" data-name="Path 187667" d="M366.4,120.349s-9.181-2.069-7.085,9.5,4.316,12.511,9.866,10.085,5.043-9.811,5.331-13.443S369.345,120.472,366.4,120.349Z" transform="translate(131.026 44.191)" fill="#ffc69a"/>
      <path id="Path_187668" data-name="Path 187668" d="M363.793,144.123s2.521,3.4,8.962-.521c0,0-1.439-9.387-.685-13.909s-8.4,7.043-8.4,7.043a3.625,3.625,0,0,1,.233,1.11,14.028,14.028,0,0,1-.11,1.864A33.85,33.85,0,0,0,363.793,144.123Z" transform="translate(132.747 47.3)" fill="#ffc69a"/>
      <path id="Path_187670" data-name="Path 187670" d="M363.76,138.372c6.646-2.042,7.139-6.043,7.153-6.112-2.179,3.768-7.043,4.262-7.043,4.262a11.974,11.974,0,0,1-.11,1.85Z" transform="translate(132.786 48.638)" fill="#a77860"/>
      <path id="Path_187671" data-name="Path 187671" d="M372.14,138.2s-2.234,5.481-5.824,5.166-.617-5.906-.452-5.961a7.605,7.605,0,0,1,6.276.795Z" transform="translate(133.073 50.404)" fill="#ffc69a"/>
      <path id="Path_187732" data-name="Path 187732" d="M360.894,128.36a10.716,10.716,0,0,1-1.864,4.111,3.782,3.782,0,0,0,2.508,1.055Z" transform="translate(131.08 47.203)" fill="#ffc69a"/>
      <path id="Path_198678" data-name="Path 198678" d="M359.743,172l24.158,9.921,3.083,4.591-18.239,16.8-19.513-5.632-3.083-4.59Z" transform="translate(126.26 63.244)" fill="#ed6964"/>
      <path id="Path_198679" data-name="Path 198679" d="M361.975,175.33l24.227,9.921-15.155,21.39-22.6-10.236Z" transform="translate(127.108 64.469)" fill="#d65151"/>
      <path id="Path_198680" data-name="Path 198680" d="M362.76,176.966c.1-.192,2.3-4.81,5.659-4.563a6.509,6.509,0,0,1,5.07,2.741,7.3,7.3,0,0,1,0,6.3l-1.22-.48a6.139,6.139,0,0,0,.082-5.125,5.317,5.317,0,0,0-4.111-2.11c-2.055-.151-3.864,2.741-4.385,3.823Z" transform="translate(132.407 63.411)" fill="#173a58"/>
      <path id="Path_198681" data-name="Path 198681" d="M328.336,152.409s-2.494-1.809-2.055-3.809c.178-.85-4.221-1.96-4.221-1.96l-2.343.206a21.527,21.527,0,0,0-.384,4.878c.26,1.439,5.33,2.645,6.673,3.905C327.542,155.259,328.336,152.409,328.336,152.409Z" transform="translate(116.603 53.93)" fill="#fac1ad"/>
      <path id="Path_198682" data-name="Path 198682" d="M325.583,150.7l-4.687,1.713-2.466-11.442.6-.274,6.851,9.811Z" transform="translate(116.283 51.742)" fill="#e2e2e2"/>
      <path id="Path_198683" data-name="Path 198683" d="M326.023,150.436l-4.686,1.685L318.87,140.68l5.289-.11Z" transform="translate(116.444 51.694)" fill="#f2f2f2"/>
      <path id="Path_198684" data-name="Path 198684" d="M325.007,149.411s.137-.74.329-2.192-1.946-3-2.343-2.741a1.768,1.768,0,0,0,.3,2.138c1.178.781.767,1.973,1.151,2.741a.329.329,0,0,0,.425.178.535.535,0,0,0,.137-.123Z" transform="translate(117.874 53.127)" fill="#fac1ad"/>
      <path id="Path_198685" data-name="Path 198685" d="M319.18,147.552s1-2.329,2.329-2.658,1.466.343.809,1.11-2.521,2.234-2.85,3.412S318.427,148.908,319.18,147.552Z" transform="translate(116.445 53.259)" fill="#fac1ad"/>
      <path id="Path_198686" data-name="Path 198686" d="M318.924,146.3s.548-1.864,1.576-2.288,1.233.082.781.74a11.631,11.631,0,0,0-1.658,3.261C319.486,148.932,318.444,147.424,318.924,146.3Z" transform="translate(116.431 52.909)" fill="#fac1ad"/>
      <path id="Path_198687" data-name="Path 198687" d="M319.17,148.742s1-2.33,2.329-2.658,1.466.329.809,1.11a12.839,12.839,0,0,0-2.672,3.453C319.294,151.811,318.417,150.112,319.17,148.742Z" transform="translate(116.455 53.696)" fill="#fac1ad"/>
      <path id="Path_198688" data-name="Path 198688" d="M319.47,149.671s.987-2.083,2.288-2.4,1.439.315.795,1.014a12.454,12.454,0,0,0-2.617,3.234C319.607,152.534,318.716,150.849,319.47,149.671Z" transform="translate(116.565 54.136)" fill="#fac1ad"/>
      <path id="Path_198689" data-name="Path 198689" d="M374.683,138.165s-5.193,23.884,8.414,34.627a9.6,9.6,0,0,0,0-3.3s-7.112-11.853-2.987-30.9C378.561,137.138,374.683,138.165,374.683,138.165Z" transform="translate(136.4 50.66)" fill="#173a58"/>
      <path id="Path_198523" data-name="Path 198523" d="M373.476,131.038c-.726-.192-1.3-.411-1.576.247-.137.343-1.274,4.221-1.274,4.221a15.42,15.42,0,0,0-.521-2.083,10.152,10.152,0,0,1,.164-2.576l.206-2.439a3.206,3.206,0,0,0-.384-2.3,2.535,2.535,0,0,0-1.014-.713,8.989,8.989,0,0,0-4.111-.534c-1.37.082-2.85.3-4.275.26a4.783,4.783,0,0,1-1.74-.329,3.015,3.015,0,0,1-1.672-2.014,4.7,4.7,0,0,1,.192-2.645,3.609,3.609,0,0,0,.63.74,3.441,3.441,0,0,1,.466-1.247c.9,1.918,10.058-1.069,12.456-.726,1.672.233,3.015.329,3.522,2.562a.945.945,0,0,0,.384.274,6.153,6.153,0,0,1,3.22,3.988c.822,2.412-.1,5.481-1.137,7.92a4.92,4.92,0,0,1-.836,1.535,3.344,3.344,0,0,1-2.055.987c-.7,0-2.014.439-2.179-.192s.713-1.494.918-1.932" transform="translate(130.34 43.702)" fill="#411809"/>
      <path id="Path_198102" data-name="Path 198102" d="M370.585,139.19a14.375,14.375,0,0,0-7.071,1.891c-1.521,1.069-14.69,9.674-16.334,10.565s-21.925,2.055-21.925,2.055a3.631,3.631,0,0,0-1.055,2.329,9.058,9.058,0,0,0,.452,2.741s20.006,1.85,24.213.987,21.075-8.071,21.075-8.071" transform="translate(118.26 51.179)" fill="#555da2"/>
      <path id="Path_198690" data-name="Path 198690" d="M360.392,137.421s2.891,24.145-9.592,32.7a9.6,9.6,0,0,1,.288-3.289s6.057-9.825,4.837-29.283a10.2,10.2,0,0,1,4.467-.123Z" transform="translate(128.046 50.448)" fill="#173a58"/>
      <path id="Path_198449" data-name="Path 198449" d="M379.382,141.215s-4.755,1.37-2.151,10.031c2.055,6.851,2.329,8.3,2.329,8.3l10.962-2.741s-3.207-15.073-8.455-15.813a6.139,6.139,0,0,0-2.686.219Z" transform="translate(137.381 51.823)" fill="#555da2"/>
      <g id="Group_14286" data-name="Group 14286" transform="translate(499.956 233.365)">
        <g id="Group_14285" data-name="Group 14285">
          <g id="Group_14284" data-name="Group 14284">
            <g id="Group_14283" data-name="Group 14283">
              <path id="Path_198453" data-name="Path 198453" d="M369.669,179.366a3.069,3.069,0,0,0,.987-.247l.891-.589a1.635,1.635,0,0,1,.3-.164,6.207,6.207,0,0,0,1.658-.877,40.745,40.745,0,0,0,2.741-3.549l-1.288-1.631-1-1.7a40.363,40.363,0,0,0-5.687,1.206l-.178.137a9.018,9.018,0,0,0-.973,1.192c-.082.1-.918,1.069-.85,1.453a1.206,1.206,0,0,0,.7.987,2.932,2.932,0,0,0,.767,1.453,1.891,1.891,0,0,0,1.014,1.3S369.094,179.366,369.669,179.366Z" transform="translate(-366.267 -170.61)" fill="#eea886"/>
            </g>
          </g>
        </g>
      </g>
      <path id="Path_198459" data-name="Path 198459" d="M380.618,141.672c-1,.384-1.37,2.151-.959,7.263a17.169,17.169,0,0,0,2.878,8.66c.671,1.178,4.358,8.468,3.7,9.428s-6.947,7.153-7.3,7.66-7.372,6.852-7.372,6.852l3.576,4.988s15.073-11.812,16.307-12.99,4.7-3.659,3.4-7.783-3.714-13.991-4.111-14.758S387.236,139.137,380.618,141.672Z" transform="translate(135.567 51.933)" fill="#555da2"/>
      <g id="Group_14476" data-name="Group 14476" transform="translate(264.916 44.656)">
        <path id="Path_198694" data-name="Path 198694" d="M154.79,51.476l41.956,19.266,35.534-6.677L158.723,50.74Z" transform="translate(-101.149 -50.74)" fill="#6f6fdc"/>
        <path id="Path_198695" data-name="Path 198695" d="M185.962,67.153l-17.343,3.254a5.149,5.149,0,1,0,0,10.3,4.753,4.753,0,0,0,1.98-.4l17.343-3.253c3.338-.622,4.979-1.669,4.187-5.913S189.3,66.531,185.962,67.153Z" transform="translate(-85.272 -21.152)" fill="#594b70"/>
        <path id="Path_198696" data-name="Path 198696" d="M279.823,51.442c-15.079.82-39.042,6.394-60.233,11.571-44.7,10.949-80.461,21.558-78.311,30.328a358.593,358.593,0,0,0,84.874-3.31c47.473-7.78,80.4-22.124,78.254-30.923C303.333,54.5,281.831,51.329,279.823,51.442Z" transform="translate(-126.03 -49.461)" fill="#4c4cc5"/>
        <path id="Path_198697-2" data-name="Path 198697-2" d="M283.011,62.016c-28.093,3.14-141.8,26.17-141.8,26.17a1.157,1.157,0,0,0,0,.453,358.705,358.705,0,0,0,84.874-3.31c47.445-7.78,80.4-22.124,78.226-30.923a2.208,2.208,0,0,0-.141-.4,40.74,40.74,0,0,1-21.162,8.007Z" transform="translate(-126.022 -44.759)" fill="#4c4cc5"/>
        <path id="Path_198698" data-name="Path 198698" d="M151,120.038l6.139-1.386L246.427,59.24l-48.463,5.941Z" transform="translate(-108.082 -35.192)" fill="#6f6fdc"/>
        <path id="Path_198699" data-name="Path 198699" d="M135.83,57.768l15.447,23.425,17.909-7.129L143.158,56.58Z" transform="translate(-135.83 -40.058)" fill="#6f6fdc"/>
        <path id="Path_198700" data-name="Path 198700" d="M138.59,85.228l10.609-1.98L165.523,65l-19.1,3.565Z" transform="translate(-130.782 -24.656)" fill="#6f6fdc"/>
        <path id="Path_198701" data-name="Path 198701" d="M173.335,67.2c-.707,0-.99,1.98-.566,4.131s1.273,3.593,2.009,3.452,1.018-1.811.622-3.961S174.07,67.054,173.335,67.2Z" transform="translate(-68.628 -20.656)" fill="#fff"/>
        <path id="Path_198702" data-name="Path 198702" d="M195.415,55.769c-2.15,1.98-6.988,3.225-5.658,5.658s9.025.82,12.25-1.358a21.557,21.557,0,0,0,5.658-6.337l-8.657-1.952a20.621,20.621,0,0,1-3.593,3.989Z" transform="translate(-37.606 -48.838)" fill="#fff0f0"/>
        <path id="Path_198703" data-name="Path 198703" d="M151.72,116.714l52.226-55.9-3.338.538Z" transform="translate(-106.765 -32.321)" fill="#fff0f0"/>
        <path id="Path_198704" data-name="Path 198704" d="M190.315,64.883l3.2-.792L155.46,50.85Z" transform="translate(-99.924 -50.539)" fill="#fff0f0"/>
        <rect id="Rectangle_9439" data-name="Rectangle 9439" width="6.194" height="6.194" rx="1" transform="translate(109.135 21.461) rotate(-16)" fill="#fff"/>
        <rect id="Rectangle_9440" data-name="Rectangle 9440" width="6.194" height="6.194" rx="1" transform="translate(133.911 15.267) rotate(-16)" fill="#fff"/>
        <rect id="Rectangle_9442" data-name="Rectangle 9442" width="6.194" height="6.194" rx="1" transform="translate(125.652 17.332) rotate(-16)" fill="#fff"/>
        <rect id="Rectangle_9441" data-name="Rectangle 9441" width="6.194" height="6.194" rx="1" transform="translate(117.394 19.396) rotate(-16)" fill="#fff"/>
      </g>
      <path id="Path_194793" data-name="Path 194793" d="M11.834.052S10.847.427,9.378,1.11A14.222,14.222,0,0,1,4.139,2.677C2.045,2.8-.136,3.455.007,5.215S6.857,7.5,13.16,6.541s6.379-1.1,6.423-1.519A25.129,25.129,0,0,0,18.893.081C18.586-.082,11.834.052,11.834.052Z" transform="translate(490.224 333.885)" fill="#1b1d2e"/>
      <path id="Path_194796" data-name="Path 194796" d="M156.632,247.38a9.694,9.694,0,0,0-2.52.911c-1.522.882,2.21-.843-5.031,2.017,1.755-.7-4.033.873-3.878,2.666s6.35,2.3,12.011,1.309,5.748-1.125,5.816-1.561a22.308,22.308,0,0,0-.5-4.676C162.381,247.777,156.632,247.38,156.632,247.38Z" transform="translate(322.91 87.017)" fill="#1b1d2e"/>
      <g id="Group_14452" data-name="Group 14452" transform="translate(208.51 160.271)">
        <g id="Group_14451" data-name="Group 14451">
          <path id="Path_195032" data-name="Path 195032" d="M172.929,173.479a54.617,54.617,0,0,0-5.865,9.181c-1.535,3.659-4.111,11.661-3.741,17.814s2.384,17.814,1.781,20.472-1.192,8.071-1.822,9.935-3.193,7.317-3.439,12.922,3.563,30.242,3.4,32.531,4.33.932,4.33.932,1.535-22.254,2.384-26.036,1.864-16.827,2.631-17.814,2.85-10.62,2.535-12.141,8.345-24.474,8.852-29.05,9.88-18.17,9.88-18.17S186.1,169.177,172.929,173.479Z" transform="translate(-149.983 -97.318)" fill="#ffc69a"/>
          <path id="Path_195033-3" data-name="Path 195033" d="M185.384,173.9a24.465,24.465,0,0,0,.466,3.165c.26.85,6.125,22.514,6.714,30.845a165.231,165.231,0,0,0,2.384,17.17,36.819,36.819,0,0,1-.767,9.249c-.507,1.535,2.549,37.642,2.741,38.492s-2.042,1.1-3.659.85-9.77-26.515-9.263-30.928,1.028-13.84-.425-17.663-14.443-31.517-14.525-33.23S163.5,160.844,185.384,173.9Z" transform="translate(-146.815 -97.742)" fill="#ffc69a"/>
          <path id="Path_195034" data-name="Path 195034" d="M167.01,247.055a18.337,18.337,0,0,0,.877,3.741c.452.795,1.713,4.878,2.288,5.632s1.822,6.481,0,7.167-6.139,1.836-7.591-.466a9.386,9.386,0,0,1-1.37-6.317c.219-1.754,1.959-9.8,1.946-10.592S167.01,247.055,167.01,247.055Z" transform="translate(-149.504 -69.807)" fill="#ffc69a"/>
          <path id="Path_195035" data-name="Path 195035" d="M169.485,252.46s.206,4.44-3.152,4.44-4.837-4.042-4.837-4.042-1.137,1.987,0,6.207,5.906,3.357,6.975,3.206S174.583,260.778,169.485,252.46Z" transform="translate(-149.553 -67.415)" fill="#061f3d"/>
          <path id="Path_195036" data-name="Path 195036" d="M190.678,243.86s2.371,4.248,3.782,5.1c1.754,1.069,5.166,4.508,6.344,4.659s5.481.918,4.645,3.33c-.685,1.987-10.866,1.7-12.018.713s-4.591-4.549-5.975-4.481-.877,5.139-.877,5.139h-1.507s-.521-4.919-.589-5.755c-.192-2.508,1.6-4.344,1.672-5.769s.164-2.494.164-2.494Z" transform="translate(-140.859 -70.6)" fill="#061f3d"/>
          <path id="Path_195038" data-name="Path 195038" d="M194.211,172.856s1.206,5.029,1.658,6.5.891,25.008,1.6,39.218c0,0-11.154,7.386-34.723,6.29,0,0-3.1-28.68-.932-36.08s5.029-13.429,7.989-15.553C172.437,171.335,194.211,172.856,194.211,172.856Z" transform="translate(-149.532 -97.106)" fill="#f5b"/>
          <g id="Group_10432" data-name="Group 10432" transform="translate(0 85.233)">
            <g id="Group_10431" data-name="Group 10431">
              <path id="Path_195040" data-name="Path 195040" d="M158.2,182.881a32.888,32.888,0,0,0,.987,4.111c.644,2.055,1.233,2.741.973,3.878-.192.877-1.192,1.548-1.37,1.261s-.384-3.727-1.809-3.714.425,4.262-.411,3.946-4.111-2.1-3.919-3.837,1.507-2.987,1.37-5.577a5.632,5.632,0,0,1,.658-3.33Z" transform="translate(-152.644 -179.62)" fill="#ffc69a"/>
            </g>
          </g>
          <path id="Path_195045" data-name="Path 195045" d="M196.358,154.744c-.192,2.987-1.713,5.481-1.973,6.564s0,3.563-.315,6.057-1.274,14.333-.959,17.7-23.185,1.8-25.008.836c0,0,3.96-7.071,4.111-10,0-1,.63-4.111-1.028-6.44-.863-1.206-2.741-4.481-4.412-7.29h0l-1.672-2.932h0l-.987-1.754s-.767-14.21,2.11-15.676a14.648,14.648,0,0,1,7.194-1.85,19.854,19.854,0,0,0,4.659-.7l6.564.7a37.48,37.48,0,0,0,5.865,1.6c1.658.123,3.755,3.7,3.563,5.988S196.55,151.743,196.358,154.744Z" transform="translate(-148.431 -109.333)" fill="#f5b"/>
          <path id="Path_195046" data-name="Path 195046" d="M172.995,140.25a8.989,8.989,0,0,0-7.578,4.563c-2.357,4.591-2.617,9.441-3.179,11.154s-2.425,11.031-3,12.483a143.251,143.251,0,0,0-4.454,17.814c-.822,5.618-1.494,11.223-1.494,11.223l5.317.11s2.741-12.936,4.33-15.868,2.288-11.7,2.987-13.621,5.043-15.347,5.933-16.307S177.435,141.1,172.995,140.25Z" transform="translate(-152.405 -108.966)" fill="#f5b"/>
          <g id="Group_10438" data-name="Group 10438" transform="translate(40.527 59.475)">
            <path id="Path_195049" data-name="Path 195049" d="M193.251,160.915h-3.686a8.838,8.838,0,0,0-4.591,1.37c-.617.726-2.247,5.3-2.645,5.618s.356.822,1.083.4a1.877,1.877,0,0,0,2.535.808h.069c1.617-.959,2.549-2.658,3.412-3.069s5.92-2.576,5.92-2.576S194.539,160.243,193.251,160.915Z" transform="translate(-182.22 -160.823)" fill="#ffc69a"/>
          </g>
          <path id="Path_195051" data-name="Path 195051" d="M207.159,166.51a93.014,93.014,0,0,1-12.072,6.221s-.836-4.111-1.658-4.549l8.222-5.687s-6.358-4.344-10.154-6.989c-.932-.644-1.713-1.192-2.192-1.548l-.37-.274c-1.548-1.22-7.852-9.88-5.481-12.744a11.086,11.086,0,0,1,6.5,3.124,49.7,49.7,0,0,0,7.578,6.276c.959.671,11.661,8.88,12.113,10.154S210.735,163.961,207.159,166.51Z" transform="translate(-141.431 -108.711)" fill="#f5b"/>
          <path id="Path_195053" data-name="Path 195053" d="M189.76,160.934a6.057,6.057,0,0,1,1.261,3.22,3.3,3.3,0,0,0,.932-.4,9.77,9.77,0,0,0-1.055-2.932S190.829,160.742,189.76,160.934Z" transform="translate(-138.9 -101.354)" fill="#383432"/>
          <path id="Path_195054" data-name="Path 195054" d="M191.481,161.279c0,.315-.4.589-.891.589s-.891-.274-.891-.589.4-.589.891-.589S191.481,160.95,191.481,161.279Z" transform="translate(-138.922 -101.397)" fill="#383432"/>
          <g id="Group_14450" data-name="Group 14450" transform="translate(27.757)">
            <path id="Path_195044" data-name="Path 195044" d="M185.084,119.932c3.206.438,9.112,2.741,6.043,14.95s-10.88,12.237-14.114,7.728-2.206-16.307-.932-18.348A9.674,9.674,0,0,1,185.084,119.932Z" transform="translate(-172.176 -116.506)" fill="#ffc69a"/>
            <path id="Path_195047" data-name="Path 195047" d="M180.953,142.419a37,37,0,0,0-.37,4.919c.178.795-6.194,3.056-6.3-5.481,0,0,1.932-6.536,1.1-9.277s5.783,8.085,5.783,8.085S181.063,141.446,180.953,142.419Z" transform="translate(-172.389 -111.971)" fill="#ffc69a"/>
            <path id="Path_195048" data-name="Path 195048" d="M190.832,137.035s-2.741-3.645-5.947-4.618-4.275-.37-6.783.685a4.769,4.769,0,0,0-2.645,3.933s-4.029-9.948.932-14.566a11.442,11.442,0,0,1,14.443-.6C193.422,124.072,193.093,130.649,190.832,137.035Z" transform="translate(-172.525 -116.617)" fill="#4a0808"/>
            <circle id="Ellipse_552" data-name="Ellipse 552" cx="5.07" cy="5.07" r="5.07" transform="translate(0.795)" fill="#4a0808"/>
            <path id="Path_195050" data-name="Path 195050" d="M172.9,139.753s1.562,9.592,7.372,8.51,1.37-8.112,1.37-8.112S179.683,137.944,172.9,139.753Z" transform="translate(-172.9 -109.414)" fill="#ffc69a"/>
            <path id="Path_195055" data-name="Path 195055" d="M178.048,128.822a1.165,1.165,0,0,0-1.494-.63,1.137,1.137,0,0,0-.685.795c-.63,1.37.959,5.577,1.85,4.549S178.555,130.452,178.048,128.822Z" transform="translate(-171.854 -113.461)" fill="#ffc69a"/>
            <path id="Path_186936" data-name="Path 186936" d="M178.331,132.148a1.261,1.261,0,1,1-.754-1.617,1.37,1.37,0,0,1,.713.644,1.261,1.261,0,0,1,.041.973Z" transform="translate(-171.794 -112.593)" fill="#fff"/>
            <path id="Path_187886" data-name="Path 187886" d="M185.773,134.89l-1.1,4.549-2.357-1.37Z" transform="translate(-169.412 -110.951)" fill="#ffc69a"/>
          </g>
        </g>
      </g>
      <g id="Group_21991" data-name="Group 21991" transform="translate(148.834 252.322)">
        <path id="Path_198647" data-name="Path 198647" d="M268.284,122.9l-31.5,63.513-8.982-4.472-9.246-4.608,28.651-53.172c2.6-3.421,6.993-4.072,11.1-3.73a36.23,36.23,0,0,1,9.946,2.466h.019" transform="translate(-208.958 -96.493)" fill="#20205a"/>
        <path id="Path_198648" data-name="Path 198648" d="M272.919,125.241h-.012a36.379,36.379,0,0,0-9.946-2.466c-4.1-.34-8.5.311-11.1,3.73l-28.651,53.17-8.982-4.472,28.644-53.17a11.314,11.314,0,0,1,9.749-3.808l-.1-.035c9.863.207,20.083,6.838,20.4,7.045" transform="translate(-213.599 -98.841)" fill="#5b5ba6"/>
        <path id="Path_198649" data-name="Path 198649" d="M229.232,152.975c-.083.207-1.629,3.73-3.618,2.455-2.041-1.318-.228-4.372-.228-4.372l3.641,1.807s.068.041.207.11" transform="translate(-202.436 -63.57)" fill="#1e1e29"/>
        <path id="Path_198650" data-name="Path 198650" d="M221.584,149.192s-1.577,3.771-3.62,2.46-.23-4.37-.23-4.37v-.012c.234.124.487.257.742.383l3.108,1.54" transform="translate(-210.639 -67.633)" fill="#1e1e29"/>
        <path id="Path_198651" data-name="Path 198651" d="M252.116,113.539q-5.911,8.22-12.619,15.876c-.571.652.4,1.605.979.958q6.82-7.785,12.844-16.159c.5-.707-.7-1.371-1.205-.666" transform="translate(-186.698 -106.45)" fill="#1e1e29"/>
        <path id="Path_198652" data-name="Path 198652" d="M252.515,109q-7.778,10.333-15.557,20.66c-.426.567.529,1.115.949.553q7.781-10.327,15.559-20.658c.426-.567-.529-1.115-.951-.555" transform="translate(-189.349 -108.022)" fill="#1e1e29"/>
        <path id="Path_198653" data-name="Path 198653" d="M234.359,132.505l-13.982,28.2-3.987-1.985a4.442,4.442,0,0,1-2-5.955l.068-.128L225,133.065a5.355,5.355,0,0,1,4.927-1.658,16.236,16.236,0,0,1,4.42,1.1h0" transform="translate(-213.926 -84.733)" fill="#20205a"/>
        <path id="Path_198654" data-name="Path 198654" d="M234.807,121.951l-8.168,16.475-2.329-1.16a2.6,2.6,0,0,1-1.169-3.479l.041-.077,6.16-11.432a3.119,3.119,0,0,1,2.878-.968,8.525,8.525,0,0,1,1.658.321,9.131,9.131,0,0,1,.922.317h0" transform="translate(-204.337 -95.518)" fill="#20205a"/>
        <line id="Line_650" data-name="Line 650" transform="translate(64.916)" fill="none" stroke="#707070" stroke-width="1"/>
        <line id="Line_651" data-name="Line 651" x1="2" y1="6" transform="translate(63.916 1)" fill="none" stroke="#1e1e29" stroke-linecap="round" stroke-miterlimit="10" stroke-width="1.3"/>
      </g>
      <g id="Group_21992" data-name="Group 21992" transform="translate(587.285 339.273) rotate(160)">
        <g id="Group_5766" data-name="Group 5766" transform="translate(10.435 3.581)">
          <path id="Path_186844" data-name="Path 186844" d="M35.819,4.781c.212,8.7-.328,16.463-3,17.113-2.106.513-4.31-3.681-6.007-3C23.8,20.1,28.388,34.29,25.009,36c-1.8.911-4.768-5.27-7.506-4.5-2.262.632-1.355,5.018-4.806,9.607-2,2.663-5.984,6.091-8.858,5.1-3.147-1.07-4.745-7.379-3.3-12.3,2.228-7.6,11.283-10.567,10.361-12.913-.789-2.01-7.64-.36-8.7-3-.542-1.343.719-3.017,1.053-3.454,4.3-5.7,15.967-3.481,16.063-4.641.023-.29-.612-.624-4.5-1.8-6.314-1.917-7.831-1.981-7.956-2.7C6.591,3.916,12.343.8,18.41.137,26.108-.716,32.46,2.605,35.819,4.781Z" transform="translate(0 0)" fill="#49a8d6"/>
          <path id="Path_186845" data-name="Path 186845" d="M25.859,0S12.872,5.438,0,29.581" transform="translate(7.993 5.253)" fill="none" stroke="#3880a3" stroke-linecap="round" stroke-miterlimit="10" stroke-width="1"/>
        </g>
        <g id="Group_5762" data-name="Group 5762" transform="translate(0 0)">
          <path id="Path_186836" data-name="Path 186836" d="M32.99,7.662c-1.868,6.074-4.04,11.312-6.042,11.152-1.578-.131-2.132-3.544-3.463-3.481-2.364.136-2.474,11.022-5.221,11.431-1.45.218-2.08-4.751-4.153-4.855-1.714-.087-2.1,3.162-5.552,5.54-1.993,1.392-5.554,2.84-7.295,1.494C-.67,27.467-.31,22.73,1.831,19.662c3.3-4.742,10.256-4.7,10.152-6.541-.078-1.575-5.206-2.03-5.331-4.1-.064-1.053,1.2-1.92,1.526-2.146,4.3-2.947,11.86,1.294,12.2.5.081-.189-.29-.58-2.7-2.291C13.749,2.3,12.713,1.9,12.795,1.374c.162-1.079,4.867-1.906,9.221-.96A19.725,19.725,0,0,1,32.99,7.662Z" transform="translate(0)" fill="#003d57"/>
          <path id="Path_186837" data-name="Path 186837" d="M23.894,0S14.14.973,0,14.362" transform="translate(7.625 7.534)" fill="none" stroke="#38728f" stroke-linecap="round" stroke-miterlimit="10" stroke-width="1"/>
        </g>
      </g>
    </g>
  </g>
</svg>
