<svg xmlns="http://www.w3.org/2000/svg" width="79.701" height="79.701" viewBox="0 0 79.701 79.701">
  <g id="click" transform="translate(-0.001)">
    <g id="Group_5606" data-name="Group 5606" transform="translate(0.001)">
      <g id="Group_5605" data-name="Group 5605">
        <path id="Path_186588" data-name="Path 186588" d="M67.249,43.051V42.27a7.241,7.241,0,0,0-7.233-7.233H49.508a4.124,4.124,0,0,1-4.119-4.119V26.774a1.557,1.557,0,0,0-3.113,0v4.143a7.241,7.241,0,0,0,7.233,7.233H60.016a4.124,4.124,0,0,1,4.119,4.12v.781A14.03,14.03,0,0,0,51.682,56.974v8.717c0,.314.011.625.032.934h-34.9V58.764a5.844,5.844,0,0,0-5.837-5.837H3.114V4.67A1.558,1.558,0,0,1,4.671,3.113H51.993A1.558,1.558,0,0,1,53.55,4.67V29.122a1.557,1.557,0,1,0,3.113,0V4.67A4.675,4.675,0,0,0,51.993,0H4.671A4.675,4.675,0,0,0,0,4.67V54.483l0,0a1.554,1.554,0,0,0,.452,1.1l13.7,13.7a1.556,1.556,0,0,0,1.1.456H52.279A14.01,14.01,0,0,0,79.7,65.691V56.974A14.029,14.029,0,0,0,67.249,43.051ZM13.7,64.423,5.316,56.04h5.66A2.727,2.727,0,0,1,13.7,58.764Zm62.889,1.268a10.9,10.9,0,1,1-21.793,0v-2.8H76.588Zm0-5.915h-9.34V56.507a1.557,1.557,0,0,0-3.113,0v3.269H54.8v-2.8a10.9,10.9,0,1,1,21.793,0Z" transform="translate(-0.001)" fill="#e56500"/>
      </g>
    </g>
    <g id="Group_5608" data-name="Group 5608" transform="translate(64.135 49.589)">
      <g id="Group_5607" data-name="Group 5607">
        <path id="Path_186589" data-name="Path 186589" d="M414.658,319.016a1.555,1.555,0,1,0,.456,1.1A1.568,1.568,0,0,0,414.658,319.016Z" transform="translate(-412.001 -318.56)" fill="#e56500"/>
      </g>
    </g>
    <g id="Group_5610" data-name="Group 5610" transform="translate(8.407 8.426)">
      <g id="Group_5609" data-name="Group 5609">
        <path id="Path_186590" data-name="Path 186590" d="M76.106,54.127H55.558A1.557,1.557,0,0,0,54,55.684V85.571a1.557,1.557,0,0,0,1.557,1.557H76.106a1.557,1.557,0,0,0,1.557-1.557V55.684A1.557,1.557,0,0,0,76.106,54.127Zm-1.557,13.19L71.94,64.707a1.557,1.557,0,0,0-2.2,0l-4.229,4.229a1.557,1.557,0,0,0,2.2,2.2l3.128-3.128,3.647,3.647c.02.02.042.038.063.057v12.3H57.114v-6.7l3.344-3.344,6.711,6.711a1.557,1.557,0,1,0,2.2-2.2l-7.812-7.812a1.557,1.557,0,0,0-2.2,0l-2.243,2.244V57.24H74.549Z" transform="translate(-54.001 -54.127)" fill="#e56500"/>
      </g>
    </g>
    <g id="Group_5612" data-name="Group 5612" transform="translate(8.407 45.785)">
      <g id="Group_5611" data-name="Group 5611">
        <path id="Path_186591" data-name="Path 186591" d="M89.427,294.127H55.558a1.557,1.557,0,1,0,0,3.113H89.427a1.557,1.557,0,1,0,0-3.113Z" transform="translate(-54.001 -294.127)" fill="#e56500"/>
      </g>
    </g>
    <g id="Group_5614" data-name="Group 5614" transform="translate(22.106 53.257)">
      <g id="Group_5613" data-name="Group 5613">
        <path id="Path_186592" data-name="Path 186592" d="M163.728,342.127H143.558a1.557,1.557,0,1,0,0,3.113h20.171a1.557,1.557,0,0,0,0-3.113Z" transform="translate(-142.001 -342.127)" fill="#e56500"/>
      </g>
    </g>
    <g id="Group_5616" data-name="Group 5616" transform="translate(42.275 8.237)">
      <g id="Group_5615" data-name="Group 5615">
        <path id="Path_186593" data-name="Path 186593" d="M273.129,52.917a1.557,1.557,0,0,0-1.557,1.557v4.672a1.557,1.557,0,0,0,3.113,0V54.474A1.557,1.557,0,0,0,273.129,52.917Z" transform="translate(-271.572 -52.917)" fill="#e56500"/>
      </g>
    </g>
    <g id="Group_5618" data-name="Group 5618" transform="translate(42.275 18.4)">
      <g id="Group_5617" data-name="Group 5617">
        <path id="Path_186594" data-name="Path 186594" d="M274.227,118.656a1.556,1.556,0,1,0,.456,1.1A1.568,1.568,0,0,0,274.227,118.656Z" transform="translate(-271.57 -118.2)" fill="#e56500"/>
      </g>
    </g>
    <g id="Group_5620" data-name="Group 5620" transform="translate(35.391 15.125)">
      <g id="Group_5619" data-name="Group 5619">
        <path id="Path_186595" data-name="Path 186595" d="M231.883,99.5,230,97.619a1.557,1.557,0,0,0-2.2,2.2l1.879,1.877a1.557,1.557,0,0,0,2.2-2.2Z" transform="translate(-227.347 -97.164)" fill="#e56500"/>
      </g>
    </g>
    <g id="Group_5622" data-name="Group 5622" transform="translate(47.164 15.127)">
      <g id="Group_5621" data-name="Group 5621">
        <path id="Path_186596" data-name="Path 186596" d="M307.631,97.633a1.557,1.557,0,0,0-2.2,0l-2,2a1.557,1.557,0,1,0,2.2,2.2l2-2A1.557,1.557,0,0,0,307.631,97.633Z" transform="translate(-302.976 -97.177)" fill="#e56500"/>
      </g>
    </g>
  </g>
</svg>
