<svg id="color-adjustment" xmlns="http://www.w3.org/2000/svg" width="79.047" height="79.047" viewBox="0 0 79.047 79.047">
  <g id="Group_5576" data-name="Group 5576" transform="translate(60.212 57.754)">
    <g id="Group_5575" data-name="Group 5575">
      <path id="Path_186573" data-name="Path 186573" d="M392.635,374.532a1.543,1.543,0,1,0,.452,1.092A1.556,1.556,0,0,0,392.635,374.532Z" transform="translate(-390 -374.08)" fill="#e56500"/>
    </g>
  </g>
  <g id="Group_5578" data-name="Group 5578">
    <g id="Group_5577" data-name="Group 5577">
      <path id="Path_186574" data-name="Path 186574" d="M72.872,0H6.176A6.183,6.183,0,0,0,0,6.176V54.667a6.183,6.183,0,0,0,6.176,6.176H30.415v7.75a8.966,8.966,0,0,0-8.08,8.911,1.544,1.544,0,0,0,1.544,1.544h31.29A1.544,1.544,0,0,0,56.712,77.5a8.965,8.965,0,0,0-8.388-8.935V60.842h7.2a1.544,1.544,0,1,0,0-3.088H6.176a3.091,3.091,0,0,1-3.088-3.088V6.176A3.091,3.091,0,0,1,6.176,3.088h66.7A3.091,3.091,0,0,1,75.96,6.176V54.667a3.091,3.091,0,0,1-3.088,3.088h-5.39a1.544,1.544,0,0,0,0,3.088h5.39a6.183,6.183,0,0,0,6.176-6.176V6.176A6.183,6.183,0,0,0,72.872,0ZM33.5,60.842H45.236v7.707H33.5ZM47.758,71.637a5.878,5.878,0,0,1,5.661,4.323H25.629a5.877,5.877,0,0,1,5.661-4.323Z" fill="#e56500"/>
    </g>
  </g>
  <g id="Group_5580" data-name="Group 5580" transform="translate(37.825 52.814)">
    <g id="Group_5579" data-name="Group 5579">
      <path id="Path_186575" data-name="Path 186575" d="M247.635,342.532a1.543,1.543,0,1,0,.452,1.092A1.555,1.555,0,0,0,247.635,342.532Z" transform="translate(-245 -342.08)" fill="#e56500"/>
    </g>
  </g>
  <g id="Group_5582" data-name="Group 5582" transform="translate(12.721 14.056)">
    <g id="Group_5581" data-name="Group 5581">
      <path id="Path_186576" data-name="Path 186576" d="M107.963,101.751c-.177-.1-.356-.2-.537-.286.012-.2.021-.4.021-.608a9.815,9.815,0,0,0-19.63,0c0,.2.008.406.021.608-.181.09-.36.184-.537.286a9.815,9.815,0,1,0,9.815,17c.176-.1.348-.21.516-.322.168.111.34.22.516.322a9.757,9.757,0,0,0,4.892,1.319,9.88,9.88,0,0,0,2.556-.339,9.815,9.815,0,0,0,2.367-17.981ZM97.632,94.13a6.735,6.735,0,0,1,6.719,6.393,9.872,9.872,0,0,0-6.714,1.548,9.868,9.868,0,0,0-6.724-1.554A6.736,6.736,0,0,1,97.632,94.13Zm.735,13.414a6.616,6.616,0,0,1-1.469,0,6.436,6.436,0,0,1,.736-1.27,6.652,6.652,0,0,1,.733,1.27Zm-7.9,9.205A6.727,6.727,0,0,1,88.56,104.6a9.872,9.872,0,0,0,4.7,5.04,9.87,9.87,0,0,0,2.016,6.6A6.677,6.677,0,0,1,90.467,116.749Zm4.088-11.405a9.967,9.967,0,0,0-.571,1.162,6.767,6.767,0,0,1-2.509-2.942,6.641,6.641,0,0,1,.723-.043,6.788,6.788,0,0,1,3.082.744A9.867,9.867,0,0,0,94.555,105.343Zm4.151,6.648a6.725,6.725,0,0,1-1.075,2.242,6.753,6.753,0,0,1-1.3-3.65,9.555,9.555,0,0,0,2.592,0A6.781,6.781,0,0,1,98.707,111.992Zm4.36-8.467a6.718,6.718,0,0,1,.721.042,6.767,6.767,0,0,1-2.508,2.938,9.691,9.691,0,0,0-1.291-2.236A6.776,6.776,0,0,1,103.067,103.525Zm5.815,10.09a6.727,6.727,0,0,1-8.89,2.625,9.87,9.87,0,0,0,2.016-6.6,9.872,9.872,0,0,0,4.7-5.04A6.735,6.735,0,0,1,108.882,113.614Z" transform="translate(-82.395 -91.042)" fill="#e56500"/>
    </g>
  </g>
  <g id="Group_5584" data-name="Group 5584" transform="translate(46.317 25.268)">
    <g id="Group_5583" data-name="Group 5583">
      <path id="Path_186577" data-name="Path 186577" d="M318.928,165.43H311.78v-.219a1.544,1.544,0,1,0-3.088,0v.219h-7.148a1.544,1.544,0,1,0,0,3.088h7.148v.219a1.544,1.544,0,1,0,3.088,0v-.219h7.148a1.544,1.544,0,0,0,0-3.088Z" transform="translate(-300 -163.667)" fill="#e56500"/>
    </g>
  </g>
  <g id="Group_5586" data-name="Group 5586" transform="translate(46.317 15.388)">
    <g id="Group_5585" data-name="Group 5585">
      <path id="Path_186578" data-name="Path 186578" d="M318.928,101.43H305.507v-.219a1.544,1.544,0,1,0-3.088,0v.219h-.875a1.544,1.544,0,1,0,0,3.088h.875v.219a1.544,1.544,0,1,0,3.088,0v-.219h13.422a1.544,1.544,0,0,0,0-3.088Z" transform="translate(-300 -99.667)" fill="#e56500"/>
    </g>
  </g>
  <g id="Group_5588" data-name="Group 5588" transform="translate(46.317 35.149)">
    <g id="Group_5587" data-name="Group 5587">
      <path id="Path_186579" data-name="Path 186579" d="M318.928,229.43h-.875v-.219a1.544,1.544,0,1,0-3.088,0v.219H301.544a1.544,1.544,0,1,0,0,3.088h13.422v.219a1.544,1.544,0,1,0,3.088,0v-.219h.875a1.544,1.544,0,0,0,0-3.088Z" transform="translate(-300 -227.667)" fill="#e56500"/>
    </g>
  </g>
  <g id="Group_5590" data-name="Group 5590" transform="translate(6.176 6.188)">
    <g id="Group_5589" data-name="Group 5589">
      <path id="Path_186580" data-name="Path 186580" d="M105.152,40.083H41.544A1.544,1.544,0,0,0,40,41.627V83.312a1.544,1.544,0,0,0,1.544,1.544h63.608a1.544,1.544,0,0,0,1.544-1.544V41.627A1.544,1.544,0,0,0,105.152,40.083Zm-1.544,41.685H43.088v-38.6h60.521Z" transform="translate(-40 -40.083)" fill="#e56500"/>
    </g>
  </g>
</svg>
