<svg id="editor" xmlns="http://www.w3.org/2000/svg" width="79.408" height="79.408" viewBox="0 0 79.408 79.408">
  <g id="Group_5624" data-name="Group 5624" transform="translate(11.477 20.497)">
    <g id="Group_5623" data-name="Group 5623">
      <path id="Path_186597" data-name="Path 186597" d="M120.1,171.121l-8.81-1.824a1.771,1.771,0,0,1-1.406-1.727v-2.347a13.123,13.123,0,0,0,5.481-10.664v-9.267a13.134,13.134,0,0,0-26.268,0v9.267a13.122,13.122,0,0,0,5.414,10.616v2.4A1.771,1.771,0,0,1,93.1,169.3l-8.752,1.818A13.044,13.044,0,0,0,74,183.837v5.681a1.551,1.551,0,0,0,1.551,1.551h34.431a1.551,1.551,0,1,0,0-3.1H77.1v-4.13a9.93,9.93,0,0,1,7.878-9.683l8.752-1.818a4.811,4.811,0,0,0,1.444-.554l5.7,9.085a1.551,1.551,0,0,0,2.627,0l5.7-9.086a4.822,4.822,0,0,0,1.446.554l8.81,1.824a9.929,9.929,0,0,1,7.885,9.684v4.124h-2.481a1.551,1.551,0,1,0,0,3.1H128.9a1.551,1.551,0,0,0,1.551-1.551v-5.675A13.043,13.043,0,0,0,120.1,171.121Zm-27.9-25.829a10.032,10.032,0,0,1,19.623-2.942l-.6.6a18.3,18.3,0,0,1-13.024,5.395h-6Zm10,31.832-4.909-7.818a4.819,4.819,0,0,0,.324-1.735v-.719a13.118,13.118,0,0,0,9.169.027v.691a4.823,4.823,0,0,0,.324,1.736Zm.034-12.533a10.044,10.044,0,0,1-10.032-10.032v-3.11h6a21.36,21.36,0,0,0,14.066-5.232v8.342A10.043,10.043,0,0,1,102.227,164.591Z" transform="translate(-74 -132.158)" fill="#e56500"/>
    </g>
  </g>
  <g id="Group_5626" data-name="Group 5626" transform="translate(53.817 76.306)">
    <g id="Group_5625" data-name="Group 5625">
      <path id="Path_186598" data-name="Path 186598" d="M349.647,492.454a1.55,1.55,0,1,0,.454,1.1A1.563,1.563,0,0,0,349.647,492.454Z" transform="translate(-347 -492)" fill="#e56500"/>
    </g>
  </g>
  <g id="Group_5628" data-name="Group 5628" transform="translate(31.329)">
    <g id="Group_5627" data-name="Group 5627">
      <path id="Path_186599" data-name="Path 186599" d="M217.2,0H203.551A1.551,1.551,0,0,0,202,1.551V16.44a1.551,1.551,0,0,0,1.551,1.551H217.2a1.551,1.551,0,0,0,1.551-1.551V1.551A1.551,1.551,0,0,0,217.2,0Zm-1.551,14.889H205.1V3.1h10.546Z" transform="translate(-202)" fill="#e56500"/>
    </g>
  </g>
  <g id="Group_5630" data-name="Group 5630">
    <g id="Group_5629" data-name="Group 5629">
      <path id="Path_186600" data-name="Path 186600" d="M15.2,0H1.551A1.551,1.551,0,0,0,0,1.551V16.44a1.551,1.551,0,0,0,1.551,1.551H15.2A1.551,1.551,0,0,0,16.75,16.44V1.551A1.551,1.551,0,0,0,15.2,0ZM13.648,14.889H3.1V3.1H13.648Z" fill="#e56500"/>
    </g>
  </g>
  <g id="Group_5632" data-name="Group 5632" transform="translate(62.658)">
    <g id="Group_5631" data-name="Group 5631">
      <path id="Path_186601" data-name="Path 186601" d="M419.2,0H405.551A1.551,1.551,0,0,0,404,1.551V16.44a1.551,1.551,0,0,0,1.551,1.551H419.2a1.551,1.551,0,0,0,1.551-1.551V1.551A1.551,1.551,0,0,0,419.2,0Zm-1.551,14.889H407.1V3.1h10.546Z" transform="translate(-404)" fill="#e56500"/>
    </g>
  </g>
  <g id="Group_5634" data-name="Group 5634" transform="translate(13.648 25.549)">
    <g id="Group_5633" data-name="Group 5633">
      <path id="Path_186602" data-name="Path 186602" d="M94.9,169.445l-4.257-4.257a1.551,1.551,0,0,0-2.193,2.193l4.257,4.257a1.551,1.551,0,1,0,2.193-2.193Z" transform="translate(-88 -164.733)" fill="#e56500"/>
    </g>
  </g>
  <g id="Group_5636" data-name="Group 5636" transform="translate(8.628 20.53)">
    <g id="Group_5635" data-name="Group 5635">
      <path id="Path_186603" data-name="Path 186603" d="M58.277,132.823a1.552,1.552,0,1,0,.454,1.1A1.561,1.561,0,0,0,58.277,132.823Z" transform="translate(-55.63 -132.37)" fill="#e56500"/>
    </g>
  </g>
  <g id="Group_5638" data-name="Group 5638" transform="translate(58.401 23.743)">
    <g id="Group_5637" data-name="Group 5637">
      <path id="Path_186604" data-name="Path 186604" d="M385.263,153.542a1.551,1.551,0,0,0-2.193,0l-6.063,6.063A1.551,1.551,0,0,0,379.2,161.8l6.063-6.063A1.551,1.551,0,0,0,385.263,153.542Z" transform="translate(-376.552 -153.088)" fill="#e56500"/>
    </g>
  </g>
</svg>
