<svg id="envelope" xmlns="http://www.w3.org/2000/svg" width="77.574" height="77.574" viewBox="0 0 77.574 77.574">
  <g id="Group_5640" data-name="Group 5640" transform="translate(0 0)">
    <g id="Group_5639" data-name="Group 5639">
      <path id="Path_186605" data-name="Path 186605" d="M77.131,13.779,63.8.446A1.516,1.516,0,0,0,62.726,0H26.363a3.944,3.944,0,0,0-3.939,3.939V30.568H7.576A7.584,7.584,0,0,0,0,38.144V70a7.584,7.584,0,0,0,7.576,7.576H61.817A7.584,7.584,0,0,0,69.393,70V67.273h4.242a3.944,3.944,0,0,0,3.939-3.939V14.85A1.515,1.515,0,0,0,77.131,13.779Zm-12.889-8.6,8.16,8.16H65.15a.91.91,0,0,1-.909-.909ZM3.03,70V38.144a4.551,4.551,0,0,1,2.563-4.089L16.186,44.647A1.515,1.515,0,0,0,18.329,42.5L9.422,33.6H59.971L42.959,50.609a1.516,1.516,0,0,0-.148.175,18.342,18.342,0,0,0-21.07,3.474L3.673,72.327A4.517,4.517,0,0,1,3.03,70Zm58.787,4.545H7.576a4.525,4.525,0,0,1-1.56-.276L23.884,56.4a15.283,15.283,0,0,1,21.613,0L63.369,74.272A4.522,4.522,0,0,1,61.817,74.545ZM66.362,70a4.517,4.517,0,0,1-.647,2.334L47.64,54.259a18.548,18.548,0,0,0-2.179-1.865L63.8,34.054a4.551,4.551,0,0,1,2.562,4.089V70Zm8.182-6.666a.91.91,0,0,1-.909.909H69.393v-26.1a7.584,7.584,0,0,0-7.576-7.576H25.454V3.941a.91.91,0,0,1,.909-.909H61.211v9.394a3.944,3.944,0,0,0,3.939,3.939h9.394Z" transform="translate(0 -0.002)" fill="#e56500"/>
    </g>
  </g>
  <g id="Group_5642" data-name="Group 5642" transform="translate(19.877 46.193)">
    <g id="Group_5641" data-name="Group 5641">
      <path id="Path_186606" data-name="Path 186606" d="M133.775,305.324a1.516,1.516,0,1,0,.444,1.071A1.527,1.527,0,0,0,133.775,305.324Z" transform="translate(-131.189 -304.88)" fill="#e56500"/>
    </g>
  </g>
  <g id="Group_5644" data-name="Group 5644" transform="translate(30.508 22.726)">
    <g id="Group_5643" data-name="Group 5643">
      <path id="Path_186607" data-name="Path 186607" d="M217.665,150H202.87a1.515,1.515,0,0,0,0,3.03h14.794a1.515,1.515,0,0,0,0-3.03Z" transform="translate(-201.355 -149.998)" fill="#e56500"/>
    </g>
  </g>
  <g id="Group_5646" data-name="Group 5646" transform="translate(67.37 22.727)">
    <g id="Group_5645" data-name="Group 5645">
      <path id="Path_186608" data-name="Path 186608" d="M447.235,150.444a1.514,1.514,0,1,0,.444,1.071A1.529,1.529,0,0,0,447.235,150.444Z" transform="translate(-444.649 -150)" fill="#e56500"/>
    </g>
  </g>
  <g id="Group_5648" data-name="Group 5648" transform="translate(52.272 22.726)">
    <g id="Group_5647" data-name="Group 5647">
      <path id="Path_186609" data-name="Path 186609" d="M354.369,150h-7.853a1.515,1.515,0,0,0,0,3.03h7.853a1.515,1.515,0,1,0,0-3.03Z" transform="translate(-345 -149.998)" fill="#e56500"/>
    </g>
  </g>
  <g id="Group_5650" data-name="Group 5650" transform="translate(29.684 8.181)">
    <g id="Group_5649" data-name="Group 5649">
      <path id="Path_186610" data-name="Path 186610" d="M218.038,54H197.432a1.515,1.515,0,0,0-1.515,1.515v7.273a1.515,1.515,0,0,0,1.515,1.515h20.606a1.515,1.515,0,0,0,1.515-1.515V55.513A1.515,1.515,0,0,0,218.038,54Zm-1.515,7.273H198.947V57.028h17.575Z" transform="translate(-195.917 -53.998)" fill="#e56500"/>
    </g>
  </g>
</svg>
