<svg xmlns="http://www.w3.org/2000/svg" xmlns:xlink="http://www.w3.org/1999/xlink" width="559.483" height="764.22" viewBox="0 0 559.483 764.22">
  <defs>
    <linearGradient id="linear-gradient" x1="0.036" x2="0.78" y2="0.771" gradientUnits="objectBoundingBox">
      <stop offset="0" stop-color="#e56500"/>
      <stop offset="1" stop-color="#ccb6a5"/>
    </linearGradient>
    <linearGradient id="linear-gradient-2" x1="0.053" y1="0.063" x2="1" y2="1" gradientUnits="objectBoundingBox">
      <stop offset="0" stop-color="#0d5bb9"/>
      <stop offset="1" stop-color="#85aad6"/>
    </linearGradient>
    <linearGradient id="linear-gradient-3" x1="0.053" y1="0.056" x2="1" y2="1.079" gradientUnits="objectBoundingBox">
      <stop offset="0" stop-color="#aa076b"/>
      <stop offset="1" stop-color="#e7e9bb"/>
    </linearGradient>
  </defs>
  <g id="Group_10736" data-name="Group 10736" transform="translate(-298 -443)">
    <rect id="Rectangle_6940" data-name="Rectangle 6940" width="245" height="234" rx="15" transform="translate(298 443)" fill="url(#linear-gradient)"/>
    <rect id="Rectangle_6941" data-name="Rectangle 6941" width="180" height="171" rx="15" transform="translate(608 560)" fill="url(#linear-gradient-2)"/>
    <rect id="Rectangle_6942" data-name="Rectangle 6942" width="143" height="135" rx="15" transform="translate(420 747)" fill="url(#linear-gradient-3)"/>
    <rect id="Rectangle_6943" data-name="Rectangle 6943" width="62" height="59" rx="15" transform="translate(608 835)" fill="#0d5bb9" opacity="0.29"/>
    <rect id="Rectangle_6944" data-name="Rectangle 6944" width="61" height="58" rx="15" transform="translate(322 882)" fill="#0d5bb9" opacity="0.29"/>
    <rect id="Rectangle_6945" data-name="Rectangle 6945" width="61" height="58" rx="15" transform="translate(578 458)" fill="#0d5bb9" opacity="0.29"/>
    <g id="baseline-all_inclusive-24px" transform="translate(349.282 489.019)">
      <path id="Path_2137" data-name="Path 2137" d="M109.8,6.62a31.472,31.472,0,0,0-22.256,9.032L70.841,30.47,61.867,38.38h.059L46.046,52.489A19.988,19.988,0,1,1,31.878,18.427a20.069,20.069,0,0,1,14.4,6.08l6.671,5.9L61.867,22.5l-7.438-6.553a31.759,31.759,0,1,0-.3,45.161L70.841,46.35l.059.059,8.914-8.029h-.059l15.88-14.109A19.988,19.988,0,1,1,109.8,58.334a20.168,20.168,0,0,1-14.4-6.08l-6.73-5.962L79.755,54.2l7.5,6.612A31.815,31.815,0,1,0,109.8,6.62Z" transform="translate(0 32.46)" fill="#fff"/>
      <path id="Path_2138" data-name="Path 2138" d="M0,0H141.681V141.681H0Z" fill="none"/>
    </g>
    <g id="outline-textsms-24px" transform="translate(634 582)">
      <g id="Bounding_Boxes">
        <path id="Path_2762" data-name="Path 2762" d="M0,0H127.218V127.218H0Z" fill="none"/>
      </g>
      <g id="Outline" transform="translate(10.601 10.601)">
        <g id="Group_191" data-name="Group 191">
          <path id="Path_2763" data-name="Path 2763" d="M97.413,2H12.6A10.633,10.633,0,0,0,2,12.6v95.413l21.2-21.2h74.21a10.633,10.633,0,0,0,10.6-10.6V12.6A10.633,10.633,0,0,0,97.413,2Zm0,74.21H23.2l-10.6,10.6V12.6H97.413Z" transform="translate(-2 -2)" fill="#fff"/>
          <rect id="Rectangle_120" data-name="Rectangle 120" width="12" height="12" transform="translate(23.399 35.399)" fill="#fff"/>
          <rect id="Rectangle_121" data-name="Rectangle 121" width="12" height="12" transform="translate(47.399 35.399)" fill="#fff"/>
          <rect id="Rectangle_122" data-name="Rectangle 122" width="11" height="12" transform="translate(71.399 35.399)" fill="#fff"/>
        </g>
      </g>
    </g>
    <g id="baseline-settings_input_antenna-24px" transform="translate(450 773.059)">
      <path id="Path_453" data-name="Path 453" d="M0,0H82.595V82.595H0Z" fill="none"/>
      <path id="Path_454" data-name="Path 454" d="M38.856,14.766a24.072,24.072,0,0,0-24.09,24.09h6.883a17.207,17.207,0,0,1,34.414,0h6.883A24.072,24.072,0,0,0,38.856,14.766ZM42.3,46.737a8.6,8.6,0,1,0-6.883,0V58.094L23.679,69.829l4.852,4.852L38.856,64.357,49.18,74.681l4.852-4.852L42.3,58.094ZM38.856,1A37.879,37.879,0,0,0,1,38.856H7.883a30.973,30.973,0,0,1,61.946,0h6.883A37.879,37.879,0,0,0,38.856,1Z" transform="translate(2.441 2.441)" fill="#fff"/>
    </g>
    <path id="Path_186831" data-name="Path 186831" d="M314.013,136.517a3.67,3.67,0,1,1-3.635-4.217A3.988,3.988,0,0,1,314.013,136.517Z" transform="translate(542.447 935.138)" fill="#ffc69a"/>
    <path id="Path_186832" data-name="Path 186832" d="M301.68,144.88l18.1,5.506.759,10.588L299.51,150.968Z" transform="translate(536.939 944.757)" fill="#fff"/>
    <path id="Path_195429" data-name="Path 195429" d="M13822.628,4672.444s24.061-48.39,46.5-49.742,28.585,62.858,46.116,53.366c25.225-13.658,23.119-74.331,6.754-99.8s-53.993,3.889-75.595-29.065-10.812-102.753-10.812-102.753" transform="translate(-13126 -3695)" fill="none" stroke="#707070" stroke-width="1" stroke-dasharray="5"/>
    <path id="Path_195430" data-name="Path 195430" d="M13955.888,4349.438s-6.547-24.479-21.96-26.881-13.534,22.724-27.259,24.609-25.36-6-27.64-17.066,6.059-29.5,6.059-29.5" transform="translate(-13471 -3615)" fill="none" stroke="#707070" stroke-width="1" stroke-dasharray="5"/>
    <path id="Path_195431" data-name="Path 195431" d="M14144.248,4358.575c.96,1.344-3.913,17.239,3.938,21.656,11.676,6.569,34.836,9.412,39.414,24.048,7.506,23.994-12.58,34.136-28.586,43.874s-32.94,1.846-35.437-4.922-2.9-23.139,17.341-27.07,54.962,23.684,57.459,48.235-49.729,34.244-47.472,49.971,47.472,14.271,47.472,14.271" transform="translate(-13655 -3465)" fill="none" stroke="#707070" stroke-width="1" stroke-dasharray="5"/>
    <g id="Group_10324" data-name="Group 10324" transform="translate(480.477 1194.776)">
      <path id="Path_195014" data-name="Path 195014" d="M1204.764,3661.995H939.133a2.567,2.567,0,0,1,0-5.13h265.63a2.567,2.567,0,0,1,0,5.13Z" transform="translate(-936.662 -3656.864)" fill="#ba8e69"/>
    </g>
    <g id="Group_10562" data-name="Group 10562" transform="translate(73 -254.693)">
      <g id="Group_10477" data-name="Group 10477" transform="translate(467.072 1223.448)">
        <g id="Group_10475" data-name="Group 10475" transform="translate(0 181.017)">
          <path id="Path_195199" data-name="Path 195199" d="M317.8,429.131s1.787-1.718,5.5-1.44c2.411.182,9.057,2.416,12.308,2.694s6.7-.087,8.282,2.874c2.679,5.025.879,9.126-4.509,9.218-2.93.05-5.126-2.106-9.772-2.121-4.5-.015-11.3-2.215-13-5.605" transform="translate(-190.864 -385.31)" fill="#4c4051"/>
          <path id="Path_195200" data-name="Path 195200" d="M314.17,426.632a34.825,34.825,0,0,0,5.853,1.766c2.368.371,7.775.324,10.032,2.09,2.446,1.913,1.022,6.27-.743,7.152-2.849,1.425-4.923.326-9.661-1.718a30.757,30.757,0,0,0-10.544-2.044" transform="translate(-193.299 -385.644)" fill="#ffd1ab"/>
          <path id="Path_195201" data-name="Path 195201" d="M235.458,395.719a12.751,12.751,0,0,0-13.633,14.531q.028.179.06.362c2.126,12.146,17.005,19.738,34.922,23.989s85.936,12.45,85.936,12.45,3.34-3.34,3.037-12.147a264.687,264.687,0,0,1-36.136-15.791C284.306,405.877,262.027,397.6,235.458,395.719Z" transform="translate(-221.671 -395.686)" fill="#4c4051"/>
          <path id="Path_195202" data-name="Path 195202" d="M326.958,430.235s-1.7-1.191-2.416-.168a15.957,15.957,0,0,0-1.269,6.331c.433,1.331,3.127,1.146,3.127,1.146l2.756-5.605Z" transform="translate(-188.716 -384.664)" fill="#4c4051"/>
        </g>
        <g id="Group_10476" data-name="Group 10476" transform="translate(11.714 181.017)">
          <path id="Path_195203" data-name="Path 195203" d="M258.622,429.411s-1.83-1.76-5.637-1.475c-2.47.185-9.281,2.475-12.612,2.76s-6.677-.089-8.561,2.37c-3.548,4.63.73,9.518,6.25,9.613,3,.052,3.7-1.751,8.458-1.766,4.612-.015,11.577-2.269,13.318-5.743" transform="translate(-230.515 -385.231)" fill="#4c4051"/>
          <path id="Path_195204" data-name="Path 195204" d="M260.742,426.85a35.692,35.692,0,0,1-6,1.809c-2.426.38-7.966.332-10.279,2.142-2.506,1.959-1.046,6.424.762,7.328,2.92,1.46,5.045.332,9.9-1.76a31.509,31.509,0,0,1,10.8-2.094" transform="translate(-226.422 -385.574)" fill="#ffd1ab"/>
          <path id="Path_195205" data-name="Path 195205" d="M364.214,395.719a12.752,12.752,0,0,1,13.634,14.531c-.019.119-.038.24-.061.362-2.124,12.146-17,19.738-34.92,23.989s-85.937,12.45-85.937,12.45-3.339-3.34-3.036-12.147a264.77,264.77,0,0,0,36.136-15.791C315.367,405.877,337.646,397.6,364.214,395.719Z" transform="translate(-222.934 -395.686)" fill="#594a5f"/>
          <path id="Path_195206" data-name="Path 195206" d="M243.541,430.542s1.744-1.22,2.474-.173a16.365,16.365,0,0,1,1.3,6.486c-.444,1.364-3.2,1.175-3.2,1.175l-2.824-5.743Z" transform="translate(-227.019 -384.569)" fill="#4c4051"/>
        </g>
        <path id="Path_186769" data-name="Path 186769" d="M176.788,167.179s-3.983,19.9-5.444,32.216-9.414,10.835-9.414,10.835,46.478,17.328,65.957-13.519c0,0-9.868.434-11.526-13.164s0-26.051-21.453-29.367Z" transform="translate(-111.419 -149.375)" fill="#f2ac29"/>
        <path id="Path_195189" data-name="Path 195189" d="M302.9,328.174s-.7,12.63-12.185,12.27a15.479,15.479,0,0,1-6.365-1.523c-6.469-3.114-8.642-9.96-8.642-9.96,5.476-1.4,5.476-11.482,5.476-11.482l15.093.445a22.563,22.563,0,0,0,.154,2.617c.239,2,.8,4.638,2.225,6.092C301.134,329.167,302.9,328.174,302.9,328.174Z" transform="translate(-206.464 -258.38)" fill="#ffe1bd"/>
        <path id="Path_195190" data-name="Path 195190" d="M284.826,321.894s-4.346,5.853-3.218,9.344c1.147,3.491,3.884,6.742,6.588,7.1l-3.849.581c-6.469-3.114-8.642-9.96-8.642-9.96,5.476-1.4,5.476-11.482,5.476-11.482l15.093.445a22.563,22.563,0,0,0,.154,2.617A14.57,14.57,0,0,1,284.826,321.894Z" transform="translate(-206.464 -258.38)" fill="#fcd4a9"/>
        <path id="Path_195191" data-name="Path 195191" d="M290,324.208s3.93,9.694,11.465,9.809c7.851.119,9.617-5,10.629-9.832,37.176-.408,48.572,48.7,48.572,48.7a67.658,67.658,0,0,1-8.007,3.076,33.185,33.185,0,0,0-7.3,3.182l-5.047,68.175h-78.9l-1.345-68.216s-5.184-1.243-9.377-2.616c-6.136-2.013-8.432-3.979-8.432-3.979S252.134,324.112,290,324.208Z" transform="translate(-218.478 -252.706)" fill="#f9b253"/>
        <path id="Path_195193" data-name="Path 195193" d="M273.059,415.754l-2.587,8.846-1.349,4.563s-30.051-17.8-30.74-30.52c-.69-12.7,6.837-39.318,6.837-39.318s1.741.893,4.423,1.961a59.482,59.482,0,0,0,6.759,2.289c6.32,1.741,8.172,2.227,8.172,2.227s-7.7,25.22-5.851,34.928S273.059,415.754,273.059,415.754Z" transform="translate(-220.038 -238.732)" fill="#fcd4a9"/>
        <path id="Path_195194" data-name="Path 195194" d="M274.161,420.159l-2.823,9.652c-9.019-5.9-28.441-19.817-29.024-30.46-.581-10.594,4.073-30.033,6.3-38.623a64.9,64.9,0,0,0,7.375,2.5c6.9,1.9,8.917,2.429,8.917,2.429s-8.4,27.518-6.384,38.111S274.161,420.159,274.161,420.159Z" transform="translate(-224.02 -235.675)" fill="#ffe1bd"/>
        <path id="Path_195196" data-name="Path 195196" d="M341.067,398.642c-.5,9.332-16.8,21.377-25.454,27.149-3.136,2.1-5.286,3.371-5.286,3.371l-3.92-13.409a33.375,33.375,0,0,0,5.364-3.075l.282-.187c0-.015,0-.015.015-.015,3.56-2.526,7.669-6.493,8.657-11.747,1.85-9.708-6.713-35.038-6.713-35.038s1.789-.486,5.851-1.6c.941-.25,2.007-.532,3.2-.862a91.7,91.7,0,0,0,11.183-3.9S341.773,385.939,341.067,398.642Z" transform="translate(-192.971 -238.732)" fill="#fcd4a9"/>
        <path id="Path_195197" data-name="Path 195197" d="M339.546,398.642c-.5,9.332-16.8,21.377-25.454,27.149l-3.842-13.113-.017-.061s.111-.048.3-.126c0-.015,0-.015.015-.015,1.929-.895,12.327-6.085,14.006-14.885,1.584-8.264-4.408-27.869-6.211-33.5.941-.25,2.007-.532,3.2-.862a91.7,91.7,0,0,0,11.183-3.9S340.252,385.939,339.546,398.642Z" transform="translate(-191.449 -238.732)" fill="#ffe1bd"/>
        <path id="Path_195198" data-name="Path 195198" d="M349.659,432.559H250.224l-2.255-62.3a2.853,2.853,0,0,1,2.851-2.957h98.244a2.853,2.853,0,0,1,2.851,2.957Z" transform="translate(-216.795 -232.224)" fill="#97deef"/>
        <path id="Path_195207" data-name="Path 195207" d="M289.637,331.732s-19.279,2.474-16.984-35.674H309.21S313.683,334.029,289.637,331.732Z" transform="translate(-208.166 -269.626)" fill="#ffe1bd"/>
        <path id="Path_195208" data-name="Path 195208" d="M269.482,295.127Z" transform="translate(-209.731 -271.654)" fill="#2c1e56"/>
        <path id="Path_195209" data-name="Path 195209" d="M293.132,391.15a6.846,6.846,0,1,1-6.846-6.844A6.846,6.846,0,0,1,293.132,391.15Z" transform="translate(-204.503 -223.297)" fill="#a7e8f2"/>
        <path id="Path_186802" data-name="Path 186802" d="M0,2.181,10.877,0S9.643,3.831,6.924,4.376a5.532,5.532,0,0,1-3.718-.082A8.9,8.9,0,0,1,0,2.181Z" transform="translate(77.822 49.647) rotate(11)" fill="#eba26a"/>
        <g id="Group_5737" data-name="Group 5737" transform="translate(69.963 30.95) rotate(11)">
          <path id="Path_186803" data-name="Path 186803" d="M11.02,4.774A5.534,5.534,0,1,1,4.82.02H5.3A5.282,5.282,0,0,1,11.02,4.774Z" transform="translate(18.811 0)" fill="none" stroke="#fff" stroke-miterlimit="10" stroke-width="1"/>
          <path id="Path_186804" data-name="Path 186804" d="M11.023,4.795A5.534,5.534,0,1,1,4.823.018h.505A5.282,5.282,0,0,1,11.023,4.795Z" transform="translate(0 3.699)" fill="none" stroke="#fff" stroke-miterlimit="10" stroke-width="1"/>
          <path id="Path_186805" data-name="Path 186805" d="M0,2.558s2.159-4.593,7.946-1.47" transform="translate(10.771 4.627)" fill="none" stroke="#fff" stroke-miterlimit="10" stroke-width="1"/>
        </g>
        <path id="Path_186779" data-name="Path 186779" d="M1.455,34.084s23.238,1.224,32.079-15.192a15.325,15.325,0,0,1,8.48,5.828S44.082,3.522,27.545.679C-9.276-5.631,1.455,34.084,1.455,34.084Z" transform="translate(66.56 0) rotate(13)" fill="#f2ac29"/>
      </g>
      <g id="Background_Complete" data-name="Background Complete" transform="translate(399.591 1384.912) rotate(-30)">
        <g id="Group_10398" data-name="Group 10398" transform="translate(222.589 0)">
          <g id="Group_10390" data-name="Group 10390" transform="translate(0)">
            <rect id="Rectangle_7231" data-name="Rectangle 7231" width="26.952" height="39.987" transform="matrix(0.366, -0.931, 0.931, 0.366, 0, 25.083)" fill="#0d5bb9"/>
          </g>
          <g id="Group_10393" data-name="Group 10393" transform="translate(9.862 0.348)">
            <g id="Group_10392" data-name="Group 10392">
              <g id="Group_10391" data-name="Group 10391">
                <path id="Path_195119" data-name="Path 195119" d="M512.99,62.512a2.743,2.743,0,0,1-.478.2l-1.393.5-5.149,1.778L488.9,70.741l-.141.047-.074-.129-.179-.312L479.439,54.5l-2.711-4.824-.721-1.32a2.829,2.829,0,0,1-.23-.473,2.876,2.876,0,0,1,.293.436l.78,1.287,2.81,4.767,9.156,15.8.179.312-.215-.082,17.107-5.65,5.186-1.669,1.415-.436A2.825,2.825,0,0,1,512.99,62.512Z" transform="translate(-475.776 -47.88)" fill="#e0e0e0"/>
              </g>
            </g>
          </g>
          <g id="Group_10395" data-name="Group 10395" transform="translate(0 15.305)">
            <g id="Group_10394" data-name="Group 10394">
              <path id="Path_195120" data-name="Path 195120" d="M448.335,99.622c-.048-.088,4.1-2.426,9.269-5.221s9.4-4.991,9.443-4.9-4.1,2.426-9.27,5.222S448.383,99.71,448.335,99.622Z" transform="translate(-448.335 -89.496)" fill="#e0e0e0"/>
            </g>
          </g>
          <g id="Group_10397" data-name="Group 10397" transform="translate(31.2 19.858)">
            <g id="Group_10396" data-name="Group 10396">
              <path id="Path_195121" data-name="Path 195121" d="M535.152,102.164c.1-.028,1.519,4.472,3.178,10.051s2.927,10.127,2.83,10.155-1.519-4.471-3.178-10.052S535.056,102.193,535.152,102.164Z" transform="translate(-535.147 -102.164)" fill="#e0e0e0"/>
            </g>
          </g>
        </g>
      </g>
      <g id="Speech_Bubble" data-name="Speech Bubble" transform="translate(475.76 1203.405)">
        <g id="Group_10453" data-name="Group 10453" transform="translate(0 0)">
          <g id="Group_10448" data-name="Group 10448" transform="translate(12.98 12.028)">
            <g id="Group_10445" data-name="Group 10445" transform="translate(0 2.008)">
              <path id="Path_195137" data-name="Path 195137" d="M300.989,107.825l-13.258,0,1.792-2.06,0-4.933A4.831,4.831,0,0,1,294.358,96h0a4.831,4.831,0,0,1,4.829,4.832l0,4.694Z" transform="translate(-287.731 -95.999)" fill="#0d5bb9"/>
            </g>
            <g id="Group_10446" data-name="Group 10446" transform="translate(4.393 12.495)">
              <path id="Path_195138" data-name="Path 195138" d="M300.039,114.734a2.048,2.048,0,1,1-4-.688" transform="translate(-295.95 -114.046)" fill="#0d5bb9"/>
            </g>
            <g id="Group_10447" data-name="Group 10447" transform="translate(5.891)">
              <rect id="Rectangle_7232" data-name="Rectangle 7232" width="1.301" height="2.764" transform="translate(0)" fill="#0d5bb9"/>
            </g>
          </g>
          <g id="Group_10452" data-name="Group 10452">
            <g id="Group_10451" data-name="Group 10451">
              <g id="Group_10450" data-name="Group 10450">
                <g id="Group_10449" data-name="Group 10449">
                  <path id="Path_195139" data-name="Path 195139" d="M264.255,88.633a2.389,2.389,0,0,0,.093-.347l.232-1.023a12.315,12.315,0,0,1,.471-1.635c.113-.316.194-.672.355-1.024l.493-1.13a20.07,20.07,0,0,1,3.514-5.194,19.566,19.566,0,0,1,18.836-5.513c.44.094.864.262,1.3.391a9.118,9.118,0,0,1,1.3.474,18.561,18.561,0,0,1,4.917,2.943,19.523,19.523,0,0,1,6.563,10.5,19.05,19.05,0,0,1,.381,6.744,18.7,18.7,0,0,1-1.991,6.668l-.337.632-.044.084.026.085,3.14,10.3.275-.249-8.3-4.328-.1-.053-.094.072a19.535,19.535,0,0,1-8.74,3.8,19.411,19.411,0,0,1-15.375-4.219A20,20,0,0,1,266.8,101.5a19.356,19.356,0,0,1-2.693-9.313q-.006-.86-.01-1.528.057-.653.1-1.112c.023-.286.041-.511.055-.682a1.214,1.214,0,0,0,.008-.232,1.265,1.265,0,0,0-.04.228c-.022.17-.051.394-.087.679q-.054.46-.13,1.114-.009.671-.02,1.538A21.253,21.253,0,0,0,264.5,96.4a21.482,21.482,0,0,0,2.095,5.231,20.144,20.144,0,0,0,4.392,5.212,19.652,19.652,0,0,0,15.6,4.353,19.854,19.854,0,0,0,8.913-3.845l-.2.019,8.295,4.341.418.219-.143-.468c-1.016-3.342-2.065-6.79-3.134-10.306l-.019.169.345-.646a19.1,19.1,0,0,0,2.034-6.818,19.442,19.442,0,0,0-.4-6.892,19.869,19.869,0,0,0-6.712-10.7,18.851,18.851,0,0,0-5.014-2.981,9.307,9.307,0,0,0-1.321-.478c-.446-.13-.878-.3-1.325-.393A19.571,19.571,0,0,0,265.76,83.405l-.481,1.146c-.156.357-.232.718-.341,1.038a11.5,11.5,0,0,0-.436,1.654c-.083.44-.147.784-.195,1.035A2.506,2.506,0,0,0,264.255,88.633Z" transform="translate(-263.978 -71.845)" fill="#0d5bb9"/>
                </g>
              </g>
            </g>
          </g>
        </g>
      </g>
    </g>
  </g>
</svg>
