<svg xmlns="http://www.w3.org/2000/svg" xmlns:xlink="http://www.w3.org/1999/xlink" width="519.878" height="756.906" viewBox="0 0 519.878 756.906">
  <defs>
    <linearGradient id="linear-gradient" x1="-0.307" y1="-0.268" x2="0.866" y2="0.853" gradientUnits="objectBoundingBox">
      <stop offset="0" stop-color="#334d50"/>
      <stop offset="1" stop-color="#becb9a"/>
    </linearGradient>
    <linearGradient id="linear-gradient-2" x1="0.928" y1="0.923" x2="0.057" y2="0.082" gradientUnits="objectBoundingBox">
      <stop offset="0" stop-color="#ff58cf"/>
      <stop offset="1" stop-color="#6a94ca"/>
    </linearGradient>
    <linearGradient id="linear-gradient-3" x1="0.053" y1="0.063" x2="0.829" y2="0.755" gradientUnits="objectBoundingBox">
      <stop offset="0" stop-color="#6063c6"/>
      <stop offset="1" stop-color="#959199"/>
    </linearGradient>
    <clipPath id="clip-path">
      <path id="Path_193500" data-name="Path 193500" d="M0,0H81.947V81.947H0Z" fill="#fff"/>
    </clipPath>
    <clipPath id="clip-path-2">
      <circle id="Ellipse_626" data-name="Ellipse 626" cx="21.94" cy="21.94" r="21.94" fill="none"/>
    </clipPath>
    <clipPath id="clip-path-3">
      <circle id="Ellipse_627" data-name="Ellipse 627" cx="26.94" cy="26.94" r="26.94" transform="translate(236.42 57)" fill="none"/>
    </clipPath>
    <clipPath id="clip-path-11">
      <circle id="Ellipse_635" data-name="Ellipse 635" cx="21.94" cy="21.94" r="21.94" transform="translate(385.97 122.38)" fill="none"/>
    </clipPath>
  </defs>
  <g id="Group_10739" data-name="Group 10739" transform="translate(-298 -443)">
    <rect id="Rectangle_6940" data-name="Rectangle 6940" width="245" height="234" rx="15" transform="translate(298 443)" fill="url(#linear-gradient)"/>
    <rect id="Rectangle_6941" data-name="Rectangle 6941" width="180" height="171" rx="15" transform="translate(608 560)" fill="url(#linear-gradient-2)"/>
    <rect id="Rectangle_6942" data-name="Rectangle 6942" width="143" height="135" rx="15" transform="translate(420 747)" fill="url(#linear-gradient-3)"/>
    <rect id="Rectangle_6943" data-name="Rectangle 6943" width="62" height="59" rx="15" transform="translate(606 896)" fill="#0d5bb9" opacity="0.29"/>
    <rect id="Rectangle_6944" data-name="Rectangle 6944" width="61" height="58" rx="15" transform="translate(322 882)" fill="#0d5bb9" opacity="0.29"/>
    <rect id="Rectangle_6945" data-name="Rectangle 6945" width="61" height="58" rx="15" transform="translate(578 458)" fill="#0d5bb9" opacity="0.29"/>
    <g id="baseline-device_hub-24px" transform="translate(348.999 488.897)">
      <path id="Path_1394" data-name="Path 1394" d="M0,0H142.388V142.388H0Z" fill="none"/>
      <path id="Path_1395" data-name="Path 1395" d="M86.06,80.127,62.328,56.4V37.529a17.8,17.8,0,1,0-11.866,0V56.4L26.731,80.127H3v29.664H32.664V91.7L56.4,66.778,80.127,91.7v18.1h29.664V80.127Z" transform="translate(14.799 14.799)" fill="#fff"/>
      <path id="Path_1396" data-name="Path 1396" d="M0,0H142.388V142.388H0Z" fill="none"/>
    </g>
    <g id="baseline-open_with-24px" transform="translate(640.119 588)">
      <path id="Path_365" data-name="Path 365" d="M44.081,39.294H63.227V24.934h14.36L53.654,1,29.72,24.934h14.36Zm-4.787,4.787H24.934V29.72L1,53.654,24.934,77.588V63.227h14.36Zm67.014,9.573L82.374,29.72v14.36H68.014V63.227h14.36v14.36ZM63.227,68.014H44.081v14.36H29.72l23.934,23.934L77.588,82.374H63.227Z" transform="translate(3.787 3.787)" fill="#fff"/>
      <path id="Path_366" data-name="Path 366" d="M0,0H114.881V114.881H0Z" fill="none"/>
    </g>
    <g id="baseline-timeline-24px" transform="translate(450.11 774)" clip-path="url(#clip-path)">
      <path id="Path_193499" data-name="Path 193499" d="M76.118,12.829a6.849,6.849,0,0,1-6.829,6.829,5.8,5.8,0,0,1-1.741-.239L55.392,31.54a6.032,6.032,0,0,1,.239,1.776,6.829,6.829,0,1,1-13.658,0,6.032,6.032,0,0,1,.239-1.776l-8.707-8.707a6.714,6.714,0,0,1-3.551,0L14.419,38.4a5.8,5.8,0,0,1,.239,1.741,6.829,6.829,0,1,1-6.829-6.829,5.8,5.8,0,0,1,1.741.239L25.14,18.019a6.032,6.032,0,0,1-.239-1.776,6.829,6.829,0,0,1,13.658,0,6.032,6.032,0,0,1-.239,1.776l8.707,8.707a6.714,6.714,0,0,1,3.551,0L62.7,14.57a5.8,5.8,0,0,1-.239-1.741,6.829,6.829,0,1,1,13.658,0Z" transform="translate(2.414 14.487)" fill="#fff"/>
    </g>
    <g id="Group_10730" data-name="Group 10730" transform="translate(88 58)">
      <g id="Rectangle_7292" data-name="Rectangle 7292" transform="translate(395 961)" fill="#f5f5f5" stroke="#707070" stroke-width="0.5">
        <rect width="258" height="178" rx="15" stroke="none"/>
        <rect x="0.25" y="0.25" width="257.5" height="177.5" rx="14.75" fill="none"/>
      </g>
      <g id="girl" transform="translate(348.03 891.401)">
        <g id="Group_7518" data-name="Group 7518" transform="translate(86.47 92)">
          <circle id="Ellipse_595" data-name="Ellipse 595" cx="21.94" cy="21.94" r="21.94" fill="#d4dce6"/>
          <g id="Group_7548" data-name="Group 7548" clip-path="url(#clip-path-2)">
            <g id="Group_7517" data-name="Group 7517" transform="translate(5.013 3.052)">
              <path id="Path_189457" data-name="Path 189457" d="M119.845,111.083v20.426L94,131.016V110.59Z" transform="translate(-89.965 -91.305)" fill="#421800"/>
              <path id="Path_189458" data-name="Path 189458" d="M116.113,104.936v7.089a.924.924,0,0,1,0,.18,3.189,3.189,0,0,1,0,.336v.264h0v.589h0v.18a.769.769,0,0,0,0,.084.433.433,0,0,0,0,.12s0,0,0,.072v.072a2.1,2.1,0,0,1-.168.577c-.06.192,0,.18-.084.276l-.084.24a.168.168,0,0,0,0,.084.255.255,0,0,1-.1.228l-.108.276-.108.24h0l-.12.264a1.814,1.814,0,0,0-.132.264l-.276.517-.12.228a15.294,15.294,0,0,1-1.2,1.79l-.18.228c-.1.108-.18.216-.276.312a2.513,2.513,0,0,1-.24.264h0c-.24.24-.469.481-.709.7l-.144.144-.252.216-.192.168c-.18.132-.348.276-.529.4l-.216.156-.36.252-.216.132c-.24.144-.493.288-.733.409l-.18.084-.18.1-.24.1h-.1l-.276.108-.348.108H105.9a6.477,6.477,0,0,1-1.2-.421,8.144,8.144,0,0,1-1.105-.589c-.18-.108-.372-.228-.553-.36l-.264-.192a8.866,8.866,0,0,1-.853-.685l-.228-.2-.228-.216a7.208,7.208,0,0,1-.517-.529h0l-.2-.228c-.192-.216-.384-.445-.553-.673a2.21,2.21,0,0,1-.2-.264c-.24-.312-.469-.649-.685-1,0-.1-.12-.192-.168-.288l-.877-.072c-.24-.445-.457-.889-.649-1.346,0-.072-.06-.132-.084-.2a2.4,2.4,0,0,1-.1-.264l-.144-.384a1.758,1.758,0,0,0-.12-.384l-.108-.372-.108-.409a3.284,3.284,0,0,0-.12-.577c-.036-.192-.084-.529-.108-.793V105a9.768,9.768,0,0,1,9.228-9.756h1.093a10.237,10.237,0,0,1,1.6.228,9.768,9.768,0,0,1,7.606,9.432Z" transform="translate(-89.417 -94.399)" fill="#f0d0b4"/>
              <path id="Path_189459" data-name="Path 189459" d="M119.586,134.047H94.15a12.291,12.291,0,0,1,.661-4.061h0c.084-.24.168-.469.264-.7h0c.084-.228.192-.457.288-.673a13.073,13.073,0,0,1,1.55-2.4,7.213,7.213,0,0,1,.481-.553c.072-.1.156-.18.24-.276l.252-.252a11.825,11.825,0,0,1,1.382-1.2c.24-.168.481-.348.733-.5l.108-.072.276-.168.4-.228h0l.3-.18a6.962,6.962,0,0,0,.865-.6,8,8,0,0,0,3.04-6.3h3.761a7.7,7.7,0,0,0,.12,1.394,6.861,6.861,0,0,0,.336,1.3,7.978,7.978,0,0,0,2.559,3.6,6.005,6.005,0,0,0,.529.384h0a1.972,1.972,0,0,1,.264.168l.3.168h0l.625.372h0l.24.168a4.7,4.7,0,0,1,.589.409h0c.24.168.469.372.7.565s.457.409.673.613a12.7,12.7,0,0,1,3.737,9Z" transform="translate(-89.935 -90.239)" fill="#f0d0b4"/>
              <path id="Path_189460" data-name="Path 189460" d="M119.586,133H94.15a12.412,12.412,0,0,1,.661-4.073h0c.084-.228.168-.457.264-.685h0c.084-.228.192-.457.288-.673a13.566,13.566,0,0,1,1.55-2.475c.156-.18.312-.372.481-.541a2.629,2.629,0,0,0,.24-.276c.084-.1.168-.168.252-.252a11.827,11.827,0,0,1,1.382-1.2c.24-.18.481-.348.733-.5l.108-.072.276-.168.4-.228h0l.3-.18a8.539,8.539,0,0,0,.865-.6h0a6.825,6.825,0,0,0,4.89,2.067h0a6.885,6.885,0,0,0,4.89-2.055h0l.517.4h0l.264.168a3.36,3.36,0,0,0,.3.168h0l.625.372h0l.252.156.577.409h0a8.064,8.064,0,0,1,.7.577c.228.192.457.4.673.613a12.7,12.7,0,0,1,3.737,9Z" transform="translate(-89.935 -89.193)" fill="#b34fc5"/>
              <path id="Path_189461" data-name="Path 189461" d="M120.57,131.283h0c-1.262.336-6.236-5.659-6.3-11.943a12.84,12.84,0,0,1,.1-1.526,16.04,16.04,0,0,1,1.358-3.977,8.411,8.411,0,0,0,.793-3.148c0-5.755-1.67-3.881-6.32-6.993-1.129-.745-1.922-1.358-2.547-1.85-1.73-1.382-2.163-1.874-4.542-1.874-3.016,0-4.205,5.251-4.554,7.486a19.825,19.825,0,0,0,1.129,10.033,8.411,8.411,0,0,1-1.129,8.855c-.865,1.2-2.187,5.155-3.821,6.44a1.418,1.418,0,0,1-1.622.24c-4.47-2.283-1.778-9.612-.433-14.238,1.442-4.95,1.874-9.973,2.932-14.971,1.2-5.635,6.008-9.072,7.954-7.678.649-1.2,2.4-1.6,4.085-1.6a10.225,10.225,0,0,1,3.5.589c7.1,2.764,7.209,9.36,7.606,12.1.312,2.259,1.43,4.374,1.814,6.608h0a9.456,9.456,0,0,1,.144,1.43c0,2.619-.276,4.4,1.706,6.572C123.874,123.509,122.721,130.334,120.57,131.283Z" transform="translate(-90.642 -94.54)" fill="#421800"/>
              <g id="Group_7516" data-name="Group 7516" transform="translate(10.187 31.805)">
                <path id="Path_189462" data-name="Path 189462" d="M105.885,123.087h0a3.46,3.46,0,0,1-4.806,1.057,3.364,3.364,0,0,1-.673-.565L99.12,122.2a7.592,7.592,0,0,1,.673-.4h0l.3-.18a8.54,8.54,0,0,0,.865-.6h0a6.825,6.825,0,0,0,4.89,2.067h0Z" transform="translate(-99.12 -121.008)" fill="#e7ecf2"/>
                <path id="Path_189463" data-name="Path 189463" d="M111.513,122.2l-1.286,1.37a3.46,3.46,0,0,1-4.9.18,3.365,3.365,0,0,1-.565-.673h0a6.849,6.849,0,0,0,4.89-2.067h0a5.363,5.363,0,0,0,.517.4h0l.264.168.3.18h0l.625.372Z" transform="translate(-97.983 -121.01)" fill="#e7ecf2"/>
              </g>
            </g>
          </g>
        </g>
      </g>
      <g id="man" transform="translate(260.361 1006.021)">
        <g id="Group_7536" data-name="Group 7536">
          <circle id="Ellipse_607" data-name="Ellipse 607" cx="26.94" cy="26.94" r="26.94" transform="translate(236.42 57)" fill="#f3e4b2"/>
          <g id="Group_7550" data-name="Group 7550" clip-path="url(#clip-path-3)">
            <g id="Group_7528" data-name="Group 7528">
              <path id="Path_189472" data-name="Path 189472" d="M275.36,72.11V82.3a.431.431,0,0,1,0,.12,1.791,1.791,0,0,1,0,.23v.53a1.551,1.551,0,0,1,0,.21h0a.675.675,0,0,1-.05.31,2.413,2.413,0,0,0-.08.42.13.13,0,0,1,0,.06h0a1.744,1.744,0,0,1-.05.22.442.442,0,0,1,0,.1.826.826,0,0,1,0,.15.359.359,0,0,1,0,.1.249.249,0,0,0,0,.07c-.06.24-.14.48-.21.71s-.07.22-.11.34h0l-.11.3v.1a.9.9,0,0,1-.11.28c-.04.1-.09.22-.14.34a2.709,2.709,0,0,1-.13.3c-.05.1-.09.21-.15.31l-.15.33c-.11.21-.22.43-.34.63l-.16.29a17,17,0,0,1-1.5,2.19,2,2,0,0,1-.23.28,4.45,4.45,0,0,1-.33.39l-.3.33c-.28.31-.57.59-.86.87l-.18.16-.31.27-.24.2c-.22.18-.43.35-.64.5l-.27.2-.45.3-.25.16c-.3.18-.61.35-.91.5l-.21.11-.23.11-.29.12h-.12a2.369,2.369,0,0,1-.34.13,4.429,4.429,0,0,1-.44.14l-.3.08h0l-.3.06h-2.18l-.33-.05a1.5,1.5,0,0,1-.29-.06,8.21,8.21,0,0,1-1.54-.52,11.71,11.71,0,0,1-1.36-.71l-.67-.44-.34-.24a10.1,10.1,0,0,1-1-.84l-.28-.26-.28-.26c-.23-.22-.45-.45-.67-.69l-.26-.28c-.23-.26-.46-.54-.68-.82l-.24-.32c-.3-.39-.58-.8-.85-1.23l-.21-.35c-.08-.13-.16-.28-.24-.42a15.7,15.7,0,0,1-.8-1.65l-.1-.24a2.191,2.191,0,0,1-.12-.33c-.06-.15-.12-.31-.17-.46s-.11-.32-.16-.48-.09-.3-.13-.46-.09-.33-.13-.5,0,0,0-.06c-.06-.23-.11-.47-.15-.71s-.11-.65-.14-1V71.85a12,12,0,0,1,12-12h0a12.44,12.44,0,0,1,2.65.29A12,12,0,0,1,275.36,72Z" fill="#ecc19c"/>
            </g>
          </g>
          <g id="Group_7551" data-name="Group 7551" clip-path="url(#clip-path-3)">
            <g id="Group_7529" data-name="Group 7529">
              <path id="Path_189473" data-name="Path 189473" d="M279,114.48H247.76a15.771,15.771,0,0,1,.83-5c.1-.28.21-.57.32-.84h0c.11-.28.24-.56.37-.83a15.121,15.121,0,0,1,1.9-3c.19-.23.38-.46.58-.68s.2-.21.3-.33.21-.21.31-.31a15.658,15.658,0,0,1,1.69-1.46c.3-.21.6-.43.91-.63l.95-.56h0l.38-.22a9.89,9.89,0,0,0,4.78-8.46h4.62a9.81,9.81,0,0,0,3.7,7.71,7.8,7.8,0,0,0,.65.48h.07l.32.2.37.22a.05.05,0,0,1,.05,0c.26.14.52.29.77.45l.35.23c.25.16.49.32.72.5h0c.3.22.59.46.87.7s.55.5.81.76A15.54,15.54,0,0,1,279,114.48Z" fill="#ecc19c"/>
            </g>
          </g>
          <g id="Group_7552" data-name="Group 7552" clip-path="url(#clip-path-3)">
            <g id="Group_7530" data-name="Group 7530">
              <path id="Path_189474" data-name="Path 189474" d="M279,114.48H247.76a15.771,15.771,0,0,1,.83-5c.1-.28.2-.57.32-.85h0c.11-.28.23-.55.36-.82a15.629,15.629,0,0,1,1.91-3c.18-.23.38-.46.57-.68l.3-.33.32-.32a15.456,15.456,0,0,1,1.68-1.45c.3-.22.6-.43.91-.63l.49-.3.47-.26h0l.37-.22a8.62,8.62,0,0,0,1.05-.74h0a8.37,8.37,0,0,0,6,2.53h0a8.4,8.4,0,0,0,6-2.53h0c.21.17.43.33.65.49h.07l.32.21.37.21h.05l.42.24.35.21c.11.08.24.15.35.24s.49.32.72.5h0c.29.23.58.46.86.7s.56.5.82.76A15.56,15.56,0,0,1,279,114.48Z" fill="#eb6d4a"/>
            </g>
          </g>
          <g id="Group_7553" data-name="Group 7553" clip-path="url(#clip-path-3)">
            <g id="Group_7531" data-name="Group 7531">
              <path id="Path_189475" data-name="Path 189475" d="M275.36,81.06v1.19a.431.431,0,0,1,0,.12,1.791,1.791,0,0,1,0,.23v.53a1.551,1.551,0,0,1,0,.21,3.061,3.061,0,0,1-.05.32,2.285,2.285,0,0,1-.07.36c-.02.12,0,0,0,.08v.06h0a.25.25,0,0,1-.05.18.359.359,0,0,1,0,.1v.25a.19.19,0,0,0,0,.07c-.06.25-.13.48-.21.72a2.8,2.8,0,0,0-.1.33h0l-.1.31a.19.19,0,0,0,0,.09.816.816,0,0,1-.11.28c-.04.09-.09.23-.14.34s-.08.2-.12.3h0c-.05.11-.09.21-.14.31l-.16.33c-.11.21-.22.43-.34.64l-.15.28A18.492,18.492,0,0,1,271.69,91l-.23.28-.34.39-.3.33c-.28.31-.57.59-.86.86l-.18.17-.31.27c-.07.07-.16.13-.24.2s-.42.34-.64.5l-.27.19-.45.31-.25.16c-.3.18-.6.35-.9.5l-.22.11-.23.11-.29.12h-.12l-.34.13a4.278,4.278,0,0,1-.43.14l-.31.08h0l-.3.06h-1.79l-.33-.05-.29-.06a8.459,8.459,0,0,1-1.54-.52,10.828,10.828,0,0,1-1.35-.71c-.23-.14-.45-.28-.68-.44l-.33-.24a9.065,9.065,0,0,1-1-.84l-.29-.26-.28-.26c-.23-.22-.45-.45-.67-.69a3.551,3.551,0,0,1-.25-.28c-.24-.26-.47-.54-.69-.82l-.24-.32c-.3-.39-.58-.8-.85-1.23-.07-.12-.14-.23-.2-.35s-.17-.28-.25-.42a18,18,0,0,1-.8-1.65c0-.08-.07-.16-.1-.25l-.12-.32c-.06-.15-.12-.31-.17-.47s-.11-.31-.15-.47-.1-.31-.14-.46-.09-.34-.13-.51l-.15-.72c-.06-.31-.1-.64-.14-1V80.95l1.91,3.76,3.29,1.43,3.89.35h0l2.88.27h0l2.69.24h0l6,.54Z" fill="#543e36"/>
            </g>
          </g>
          <g id="Group_7554" data-name="Group 7554" clip-path="url(#clip-path-3)">
            <g id="Group_7532" data-name="Group 7532">
              <path id="Path_189476" data-name="Path 189476" d="M263.39,83v2.9h0v4.47h0L251.8,84.42v-.06c-.06-.23-.11-.47-.15-.71s-.11-.65-.14-1a1.709,1.709,0,0,1,0-.31V77.7a11.66,11.66,0,0,0,1.18,4.74h0c.77,1.61,1.8,2.7,2.75,2.87h.18a9,9,0,0,0,1.15.07c1.51,0,2.84-1.21,3.68-1.7h0l.12-.08h0a6,6,0,0,1,2.86-.66h0Z" fill="#543e36"/>
              <path id="Path_189477" data-name="Path 189477" d="M275.36,77.55v3.51a14.94,14.94,0,0,1-.23,2.59c-.06.33-.14.67-.22,1l-2.72,3.92-8.81,1.75h0V83h0a6,6,0,0,1,2.86.66h0a.57.57,0,0,0,.13.08h0c.84.49,2.17,1.7,3.68,1.7a9,9,0,0,0,1.15-.07h.18c.95-.17,2-1.26,2.75-2.87h0a11.141,11.141,0,0,0,.75-2,11.419,11.419,0,0,0,.43-2.78A.45.45,0,0,1,275.36,77.55Z" fill="#543e36"/>
            </g>
          </g>
          <g id="Group_7555" data-name="Group 7555" clip-path="url(#clip-path-3)">
            <g id="Group_7533" data-name="Group 7533">
              <ellipse id="Ellipse_613" data-name="Ellipse 613" cx="2.94" cy="0.91" rx="2.94" ry="0.91" transform="translate(260.43 85.85)" fill="#ecc19c"/>
            </g>
          </g>
          <g id="Group_7556" data-name="Group 7556" clip-path="url(#clip-path-3)">
            <g id="Group_7534" data-name="Group 7534">
              <path id="Path_189478" data-name="Path 189478" d="M263.37,60.13h0a12,12,0,0,0-12,12v5.28a11.19,11.19,0,0,1,1.84-4.68c1.45-1.66,1.08-4.19,4.34-4.19,2.11,0,2.23.77,5.79.77h0c3.56,0,3.68-.77,5.79-.77,3.26,0,2.89,2.53,4.35,4.19a11.44,11.44,0,0,1,1.83,4.68v-5.3A12,12,0,0,0,263.37,60.13Z" fill="#543e36"/>
            </g>
          </g>
          <g id="Group_7557" data-name="Group 7557" clip-path="url(#clip-path-3)">
            <g id="Group_7535" data-name="Group 7535">
              <path id="Path_189479" data-name="Path 189479" d="M271.28,101l-.32.33a10.62,10.62,0,0,1-15,.15l-.16-.15-.31-.32.47-.27h0l.37-.21a8.62,8.62,0,0,0,1.05-.74h0a8.38,8.38,0,0,0,6,2.54h0a8.4,8.4,0,0,0,6-2.53h0c.21.17.43.33.65.48h.07l.32.21.37.21h.05a2.78,2.78,0,0,1,.44.3Z" fill="#c34628"/>
            </g>
          </g>
        </g>
      </g>
      <g id="Group_7504" data-name="Group 7504" transform="translate(183.109 860.021)">
        <path id="Path_189342" data-name="Path 189342" d="M407.48,174.24a3.08,3.08,0,1,1,3.07-3.08,3.08,3.08,0,0,1-3.07,3.08Zm0-5.31a2.23,2.23,0,1,0,1.583.65,2.24,2.24,0,0,0-1.583-.65Z" fill="#a1d4ff"/>
      </g>
      <g id="Group_7504-2" data-name="Group 7504" transform="translate(453.5 1029.101)">
        <path id="Path_189342-2" data-name="Path 189342" d="M407.46,174.24a3.08,3.08,0,1,0-3.07-3.08,3.08,3.08,0,0,0,3.07,3.08Zm0-5.31a2.23,2.23,0,1,1-1.583.65,2.24,2.24,0,0,1,1.583-.65Z" transform="translate(-404.39 -168.08)" fill="#a1d4ff"/>
      </g>
      <g id="man-2" data-name="man" transform="translate(183.361 861.021)">
        <circle id="Ellipse_626-2" data-name="Ellipse 626" cx="21.94" cy="21.94" r="21.94" transform="translate(385.97 122.38)" fill="#e1854f"/>
        <g id="Group_7559" data-name="Group 7559" clip-path="url(#clip-path-11)">
          <g id="Group_7549" data-name="Group 7549">
            <g id="Group_7548-2" data-name="Group 7548">
              <path id="Path_189495" data-name="Path 189495" d="M420.62,169.19H395.19a12.729,12.729,0,0,1,.68-4.1,7.012,7.012,0,0,1,.26-.69h0c.08-.23.19-.45.29-.67a12.656,12.656,0,0,1,1.55-2.47c.16-.19.31-.38.47-.55l.25-.27.25-.26a11.938,11.938,0,0,1,1.38-1.18c.24-.18.48-.36.74-.52l.33-.2.19-.11h.08l.18-.09h0l.3-.17a7.459,7.459,0,0,0,.87-.6,8.16,8.16,0,0,0,2.79-4.33,3.033,3.033,0,0,1,.12-.55,8.3,8.3,0,0,0,.12-1.41h3.76a8.179,8.179,0,0,0,.12,1.4,5.414,5.414,0,0,0,.12.55,6.3,6.3,0,0,0,.22.74,8.129,8.129,0,0,0,2.55,3.59l.28.21.26.18h.05l.26.16.3.18h0c.21.12.42.24.62.37a2.9,2.9,0,0,1,.29.19c.2.13.4.26.59.41h0c.24.17.47.37.7.57s.45.4.67.61a12.67,12.67,0,0,1,3.79,9.01Z" fill="#ecc19c"/>
              <path id="Path_189496" data-name="Path 189496" d="M420.62,169.19H395.19a12.729,12.729,0,0,1,.68-4.1,7.012,7.012,0,0,1,.26-.69h0c.08-.23.19-.45.29-.67a12.656,12.656,0,0,1,1.55-2.47c.16-.19.31-.38.47-.55l.25-.27.25-.26a11.938,11.938,0,0,1,1.38-1.18c.24-.18.48-.36.74-.52l.33-.2.19-.11h.08l.18-.1h0l.3-.17a6.379,6.379,0,0,0,.86-.61h0a6.79,6.79,0,0,0,4.88,2.06h.34a6.8,6.8,0,0,0,4.58-2.05h0c.17.14.35.28.53.4l.27.16.3.18h0c.21.12.42.24.62.37l.3.19c.2.13.39.26.58.41h0c.24.18.48.37.71.57s.45.4.66.62A12.62,12.62,0,0,1,420.62,169.19Z" fill="#5ab7b2"/>
              <path id="Path_189497" data-name="Path 189497" d="M411.83,154v1.46a1.06,1.06,0,0,1-.19.62,1.09,1.09,0,0,1-.89.46h-5.82a1.09,1.09,0,0,1-1.09-1.08V154a1.09,1.09,0,0,1,1.09-1.09h5.82a1,1,0,0,1,.58.18,1.07,1.07,0,0,1,.5.91Z" fill="#5ab7b2"/>
              <path id="Path_189498" data-name="Path 189498" d="M413.09,157.46v3.18h-11.7v-2.36l.19-.11h.09l.17-.1h0l.31-.18a8.293,8.293,0,0,0,.86-.6,7.349,7.349,0,0,0,1.1-1.06,8.286,8.286,0,0,0,.81-1.13h6a8.252,8.252,0,0,0,.72,1,8.7,8.7,0,0,0,1.18,1.17Z" fill="#5ab7b2"/>
              <path id="Path_189499" data-name="Path 189499" d="M420.77,138.74A13.93,13.93,0,0,1,414,150.89a12.22,12.22,0,0,1-5.75,1.64h-.32a12.09,12.09,0,0,1-6.08-1.63A14,14,0,0,1,395,138.73c0-7.42,5.47-13.48,12.33-13.78h1.31C415.43,125.4,420.77,131.39,420.77,138.74Z" fill="#141720"/>
              <path id="Path_189500" data-name="Path 189500" d="M417.67,134.7v7.61a2.253,2.253,0,0,1,0,.26,1.78,1.78,0,0,1,0,.23c0,.05,0,.11,0,.16v.63a.291.291,0,0,1,0,.09,1.113,1.113,0,0,1,0,.17h0v.25l-.06.34h0a.07.07,0,0,1,0,.05h0v.46a.638.638,0,0,1,0,.07c-.05.19-.11.38-.17.58s0,.17-.08.27h0l-.09.24v.07l-.09.23a2.326,2.326,0,0,1-.11.28l-.11.24h0l-.12.25-.13.27-.27.52-.13.23a15.623,15.623,0,0,1-1.23,1.78,2.112,2.112,0,0,1-.19.23l-.27.32-.24.26h0c-.23.25-.46.48-.7.7l-.15.14-.25.22-.2.16c-.17.14-.34.28-.52.41l-.22.16-.36.24-.21.13h0a6.134,6.134,0,0,1-.7.39l-.18.09-.18.09-.24.1a.29.29,0,0,1-.1,0l-.28.11-.35.11-.25.07h0l-.25.06h-.26a2.855,2.855,0,0,1-.29,0h-.9l-.27-.05h-.23a7.211,7.211,0,0,1-1.26-.43,8.856,8.856,0,0,1-1.1-.58h-.06c-.17-.1-.33-.21-.49-.32l-.28-.2a10,10,0,0,1-.84-.68l-.23-.21-.23-.21c-.17-.17-.35-.34-.51-.52h0l-.21-.23A7.351,7.351,0,0,1,401,150l-.2-.25c-.24-.33-.47-.66-.69-1l-.17-.28-.19-.34a14,14,0,0,1-.66-1.35.642.642,0,0,0-.08-.2,2.768,2.768,0,0,1-.1-.26c-.05-.13-.09-.26-.14-.38l-.12-.39a1.815,1.815,0,0,0-.11-.38c-.03-.13-.07-.27-.1-.41h0c-.05-.19-.09-.38-.13-.58s-.08-.53-.11-.79v-.25a2.46,2.46,0,0,0,0-.27V134.7a9.77,9.77,0,0,1,9.22-9.75H409a8.45,8.45,0,0,1,1.12.19,9.76,9.76,0,0,1,7.59,9.43A.28.28,0,0,1,417.67,134.7Z" fill="#ecc19c"/>
              <path id="Path_189501" data-name="Path 189501" d="M419.84,138.31H396c0-7.19,5.06-13,11.4-13.36H409C415.05,125.58,419.84,131.32,419.84,138.31Z" fill="#141720"/>
            </g>
          </g>
        </g>
      </g>
      <line id="Line_560" data-name="Line 560" x1="42" y2="20" transform="translate(548.5 1057.5)" fill="none" stroke="#a1d4ff" stroke-linecap="round" stroke-width="0.75"/>
      <line id="Line_562" data-name="Line 562" x2="42.001" y2="20" transform="translate(456.659 1058.5)" fill="none" stroke="#a1d4ff" stroke-linecap="round" stroke-width="0.75"/>
      <line id="Line_561" data-name="Line 561" y1="23" transform="translate(590.5 1034.5)" fill="none" stroke="#a1d4ff" stroke-linecap="round" stroke-width="0.75"/>
      <line id="Line_563" data-name="Line 563" y1="23" transform="translate(456.659 1035.5)" fill="none" stroke="#a1d4ff" stroke-linecap="round" stroke-width="0.75"/>
    </g>
    <rect id="Rectangle_6694" data-name="Rectangle 6694" width="36.17" height="3.85" transform="translate(686.521 1167.991)" fill="#1487e3"/>
    <rect id="Rectangle_6674" data-name="Rectangle 6674" width="34" height="3.85" transform="translate(664.461 1154.491)" fill="#1487e3"/>
    <rect id="Rectangle_6683" data-name="Rectangle 6683" width="12.45" height="3.85" transform="translate(704.751 1154.491)" fill="#e0e0e0"/>
    <rect id="Rectangle_6681" data-name="Rectangle 6681" width="27.88" height="3.85" transform="translate(653.811 1167.971)" fill="#ff8761"/>
    <g id="Group_10324" data-name="Group 10324" transform="translate(480.477 1194.776)">
      <path id="Path_195014" data-name="Path 195014" d="M1204.764,3661.995H939.133a2.567,2.567,0,0,1,0-5.13h265.63a2.567,2.567,0,0,1,0,5.13Z" transform="translate(-936.662 -3656.864)" fill="#ba8e69"/>
    </g>
    <path id="Path_195401" data-name="Path 195401" d="M12180.6,4401.727c-3.405,22.2,1.519,40.579,18.552,51.489s30.886-14.357,50.353-7.193,27.515,15.761,27.515,35.848,1.416,29.907-8.224,44.432-23.761,28.181-39.682,25.309-27.32-21.92-24-36.8,19.3-38.592,37.276-22.716,8.993,75.171-13.274,91.628-41.167,60.424-41.167,60.424" transform="translate(-11459.694 -3656)" fill="none" stroke="#707070" stroke-width="1" stroke-dasharray="5"/>
    <path id="Path_195077" data-name="Path 195077" d="M-6.548,108.073s-45.4,5.61-61.216-9.438-19.146-30.691-2.03-50.751S-11.593,29.738.7,18.393-2.149-10.667-2.149-10.667" transform="matrix(0.951, 0.309, -0.309, 0.951, 446.922, 699.046)" fill="none" stroke="#707070" stroke-width="1" stroke-dasharray="5"/>
    <path id="Path_195076" data-name="Path 195076" d="M7903.289,4273.053c-24.374,31.957,1.9,73.332,15.775,77.428s22.821-12.552,22.306-19.122-9.746-15.545-19.924-13.054-23.812,13.719-26.259,27.031,3.615,22.056,12.933,32.233,48.434-10.354,47.047,21.773" transform="matrix(0.946, -0.326, 0.326, 0.946, -8384.397, -573.126)" fill="none" stroke="#707070" stroke-width="1" stroke-dasharray="5"/>
  </g>
</svg>
