<svg xmlns="http://www.w3.org/2000/svg" xmlns:xlink="http://www.w3.org/1999/xlink" width="490" height="760.39" viewBox="0 0 490 760.39">
  <defs>
    <linearGradient id="linear-gradient" x1="0.036" x2="0.78" y2="0.771" gradientUnits="objectBoundingBox">
      <stop offset="0" stop-color="#08aeea"/>
      <stop offset="1" stop-color="#b08666"/>
    </linearGradient>
    <linearGradient id="linear-gradient-2" x1="1.024" y1="1.073" x2="0" gradientUnits="objectBoundingBox">
      <stop offset="0" stop-color="#eddf89"/>
      <stop offset="1" stop-color="#ff2525"/>
    </linearGradient>
    <linearGradient id="linear-gradient-3" x1="0.053" y1="0.063" x2="1" y2="1" gradientUnits="objectBoundingBox">
      <stop offset="0" stop-color="#b721ff"/>
      <stop offset="1" stop-color="#21d4fd"/>
    </linearGradient>
  </defs>
  <g id="Group_10733" data-name="Group 10733" transform="translate(-298 -443)">
    <rect id="Rectangle_6940" data-name="Rectangle 6940" width="245" height="234" rx="15" transform="translate(298 443)" fill="url(#linear-gradient)"/>
    <rect id="Rectangle_6941" data-name="Rectangle 6941" width="180" height="171" rx="15" transform="translate(608 560)" fill="url(#linear-gradient-2)"/>
    <rect id="Rectangle_6942" data-name="Rectangle 6942" width="143" height="135" rx="15" transform="translate(420 747)" fill="url(#linear-gradient-3)"/>
    <rect id="Rectangle_6943" data-name="Rectangle 6943" width="62" height="59" rx="15" transform="translate(712 926)" fill="#0d5bb9" opacity="0.29"/>
    <rect id="Rectangle_6944" data-name="Rectangle 6944" width="61" height="58" rx="15" transform="translate(322 882)" fill="#0d5bb9" opacity="0.29"/>
    <rect id="Rectangle_6945" data-name="Rectangle 6945" width="61" height="58" rx="15" transform="translate(578 458)" fill="#0d5bb9" opacity="0.29"/>
    <g id="baseline-equalizer-24px" transform="translate(331.096 471.096)">
      <path id="Path_630" data-name="Path 630" d="M0,0H178.009V178.009H0Z" fill="none"/>
      <path id="Path_631" data-name="Path 631" d="M48.5,122.673H78.17V4H48.5Zm-44.5,0H33.668V63.336H4ZM93,41.085v81.587h29.668V41.085Z" transform="translate(25.668 25.668)" fill="#fff"/>
    </g>
    <g id="baseline-polymer-24px" transform="translate(635 582)">
      <path id="Path_397" data-name="Path 397" d="M0,0H126.04V126.04H0Z" fill="none"/>
      <path id="Path_398" data-name="Path 398" d="M97.656,4H76.649L35.214,70.329,21.507,46.013,45.139,4H24.133L.5,46.013,24.133,88.027H45.139L86.575,21.7l13.707,24.315L76.649,88.027H97.656l23.633-42.013Z" transform="translate(2.126 17.007)" fill="#fff"/>
    </g>
    <g id="outline-business_center-24px" transform="translate(450 773)">
      <g id="Bounding_Boxes">
        <path id="Path_3429" data-name="Path 3429" d="M0,0H83.021V83.021H0Z" fill="none"/>
      </g>
      <g id="Outline" transform="translate(6.918 10.378)">
        <path id="Path_3430" data-name="Path 3430" d="M64.265,16.837H50.429V9.918L43.51,3H29.674L22.755,9.918v6.918H8.918A6.939,6.939,0,0,0,2,23.755v17.3a6.863,6.863,0,0,0,3.459,5.984V58.347a6.894,6.894,0,0,0,6.918,6.918H60.806a6.894,6.894,0,0,0,6.918-6.918V47a6.964,6.964,0,0,0,3.459-5.95v-17.3A6.939,6.939,0,0,0,64.265,16.837ZM29.674,9.918H43.51v6.918H29.674ZM8.918,23.755H64.265v17.3h-17.3V30.674H26.214V41.051H8.918ZM40.051,44.51H33.133V37.592h6.918ZM60.806,58.347H12.378V47.969H26.214v3.459H46.969V47.969H60.806Z" transform="translate(-2 -3)" fill="#fff"/>
      </g>
    </g>
    <g id="Group_10324" data-name="Group 10324" transform="translate(480.477 1194.776)">
      <path id="Path_195014" data-name="Path 195014" d="M1204.764,3661.995H939.133a2.567,2.567,0,0,1,0-5.13h265.63a2.567,2.567,0,0,1,0,5.13Z" transform="translate(-936.662 -3656.864)" fill="#ba8e69"/>
    </g>
    <path id="Path_195076" data-name="Path 195076" d="M7903.289,4273.053c-24.374,31.957,1.9,73.332,15.775,77.428s22.821-12.552,22.306-19.122-9.746-15.545-19.924-13.054-23.812,13.719-26.259,27.031,3.615,22.056,12.933,32.233,48.434-10.354,47.047,21.773" transform="translate(-8451.749 -105.029) rotate(-22)" fill="none" stroke="#707070" stroke-width="1" stroke-dasharray="5"/>
    <path id="Path_195077" data-name="Path 195077" d="M-6.548,108.073s-45.4,5.61-61.216-9.438-19.146-30.691-2.03-50.751S-11.593,29.738.7,18.393-2.149-10.667-2.149-10.667" transform="matrix(0.951, 0.309, -0.309, 0.951, 446.921, 699.046)" fill="none" stroke="#707070" stroke-width="1" stroke-dasharray="5"/>
    <path id="Path_195398" data-name="Path 195398" d="M7903.9,4226.656c35.684,33.467-35.672,71.062-23.686,100.854s75.32,28.178,75.32,28.178,15.393-5.055,15.008-14.619,2.873-27.549-16.55-23.636-52.674,16.838-61.139,39.288,45.127,25.328,59.1,40.807S7964.1,4426.6,7964.1,4426.6" transform="matrix(-0.819, -0.574, 0.574, -0.819, 4696.17, 8937.142)" fill="none" stroke="#707070" stroke-width="1" stroke-dasharray="5"/>
    <g id="Group_10731" data-name="Group 10731" transform="translate(0 3)">
      <g id="Group_10528" data-name="Group 10528" transform="translate(-110 -1)">
        <path id="Path_186915" data-name="Path 186915" d="M184.2,242.33c-1.653-18.042-11.341-16-8.888-28.21,2.453-12.692,8.408-26.539,16.674-31.41,17.865-10.541,33.774-.2,35.037.551,20.478,12.248,17.047,48.759,16.887,51.55-1.3,22.575,13.439,22.522,19.163,42.413,7.217,25.135-8.977,56.58-23.109,63.566-18.7,9.208-71.442,10.346-76.241-17.331-1.511-8.728-5.955-17.065,2.453-43.391C170.972,264.869,185.424,255.644,184.2,242.33Z" transform="translate(543.361 785.021)" fill="#8e3d20"/>
        <path id="Path_186927" data-name="Path 186927" d="M209.324,209,189.77,222.794l3.022,7.537,20.051-18.362Z" transform="translate(544.562 809.125)" fill="#fff"/>
        <path id="Path_186928" data-name="Path 186928" d="M199.876,189.09l14.736,5.333L197.76,235.147c-14.452,10.772-16.425,9.279-16.425,9.279-5.084-.96,1.778-12.336,5.137-19.3Z" transform="translate(561.013 793.644)" fill="#ffb780"/>
        <path id="Path_186930" data-name="Path 186930" d="M183.263,192.245A36.8,36.8,0,0,0,184.4,229.7c7.946,11.874,23.518,5.688,31.695-5.955,7.253-10.328,9.919-25.668,2.915-35.338C209.927,175.856,191.28,177.278,183.263,192.245Z" transform="translate(554.002 786.507)" fill="#ffb780"/>
        <path id="Path_186931" data-name="Path 186931" d="M188.111,188.8s19.554-4.16,29.473,33.774c2.151,8.248,27.962-40.884-17.118-43.355-18.647-1.013-23.891,26.042-23.891,26.042S175.33,188.963,188.111,188.8Z" transform="translate(554.042 785.949)" fill="#8e3d20"/>
        <path id="Path_186932" data-name="Path 186932" d="M190.58,214.973l12.23-4.213-10.221.711Z" transform="translate(553.155 810.494)" opacity="0.1"/>
        <path id="Path_186933" data-name="Path 186933" d="M179.612,202.4s29.7,19.287,34.93,7.413c3.271-7.43,13.474.5,10.31-4.533C191.237,152.2,179.612,202.4,179.612,202.4Z" transform="translate(550.009 787.287)" fill="#8e3d20"/>
        <path id="Path_186934" data-name="Path 186934" d="M193.126,194.591c-4.96-.231-11.181,14.4-14.967,22.469-2.862,6.1-6.026,18.185,7,12.763,5.973-2.489,15.394-8.355,15.75-19.7C201.231,203.052,197.338,194.8,193.126,194.591Z" transform="translate(581.647 797.919)" fill="#8e3d20"/>
        <g id="Group_5798" data-name="Group 5798" transform="translate(759.608 993.724)">
          <path id="Path_186935" data-name="Path 186935" d="M191.485,203.427c-1.547,2.577-4.373,3.431-6.328,1.92a5.813,5.813,0,0,1-.711-7.413c1.529-2.577,4.373-3.431,6.311-1.9A5.777,5.777,0,0,1,191.485,203.427Z" transform="translate(-183.432 -195.273)" fill="#ffb780"/>
        </g>
        <path id="Path_186936" data-name="Path 186936" d="M182.651,202.547a3.377,3.377,0,1,0,1.046-2.374,3.377,3.377,0,0,0-1.046,2.374Z" transform="translate(580.656 801.536)" fill="#fff"/>
        <path id="Path_186937" data-name="Path 186937" d="M202.414,197.43l-2.2,13.581,7.946-.889Z" transform="translate(530.691 800.129)" fill="#ffb780"/>
      </g>
      <path id="Path_195297" data-name="Path 195297" d="M328.486,126.878h41.948a2.7,2.7,0,0,0,2.605-3.429L357.819,68.742a2.705,2.705,0,0,0-2.605-1.98H313.266a2.7,2.7,0,0,0-2.607,3.431l15.221,54.7A2.7,2.7,0,0,0,328.486,126.878Z" transform="translate(238.109 948.417)" fill="#97deef"/>
      <g id="Group_10499" data-name="Group 10499" transform="translate(551.751 1042.874)">
        <path id="Path_195298" data-name="Path 195298" d="M328.8,141.832c3.72-1.322,20.5-36.352,26.1-46.929,3.667-6.92,9.309-8.286,9.309-8.286,6.772,3.657,7.558,12.158,5.538,19.386-8.462,30.29-34.33,54.769-38.128,54.769C336.518,150.077,328.8,141.832,328.8,141.832Z" transform="translate(-301.577 -81.325)" fill="#ffb780"/>
        <path id="Path_195299" data-name="Path 195299" d="M312.432,92.715a38.074,38.074,0,0,0,2.848,11.615c.035.017.035.052.051.07.053.141.088.211.088.211a19.725,19.725,0,0,1,1.336,3.409c5.729,19.012,9.945,42.187,12.511,47.125,0,0,4.569,17.87,19.487,3.5.4-3.76-24.4-56.406-24.49-56.81,4.145-8.593-1.042-14.915-5.768-17.867a2.977,2.977,0,0,0-3.075-.193S312.151,86.705,312.432,92.715Z" transform="translate(-312.415 -83.432)" fill="#ffb780"/>
      </g>
      <path id="Path_195300" data-name="Path 195300" d="M365.756,77.331a22.207,22.207,0,0,0-14.72,11.417,46.493,46.493,0,0,0-2.005,4.6c-2.625,6.679-6.239,12.725-8.864,19.4,3.59,2.9,7.933,4.227,11.594,5.589a24.7,24.7,0,0,0,10.791,1.449,5.5,5.5,0,0,0,1.818-.4,6,6,0,0,0,1.889-1.623q1.685-1.934,3.281-3.944a10.867,10.867,0,0,0,2.2-3.771c.517-1.922,0-3.954-.518-5.877" transform="translate(257.692 955.408)" fill="#62c1c5"/>
      <path id="Path_195301" data-name="Path 195301" d="M356.612,88.629a2.264,2.264,0,0,1,.844-.719,1.531,1.531,0,0,1,1.773.788,4.046,4.046,0,0,1,.367,2.059,28.067,28.067,0,0,1-1.258,7.995l.839,14.089-.02.028a24.722,24.722,0,0,1-10.093-1.472c-1.522-.567-3.168-1.151-4.823-1.823C345.932,101.633,351.345,94.909,356.612,88.629Z" transform="translate(260.388 962.354)" fill="#4ea8a5"/>
      <path id="Path_195303" data-name="Path 195303" d="M423.726,156.747s-84.561-22.4-108.283-8.786-13.617,31.056,6.37,37.778c18.713,6.294,62.332,6.327,62.332,6.327Z" transform="translate(232.232 999.221)" fill="#4c4051"/>
      <path id="Path_195304" data-name="Path 195304" d="M350.749,163.793s-16.252-13.3-33.385-14.051c0,0,18.663-1.851,37.884,11.328S350.749,163.793,350.749,163.793Z" transform="translate(242.61 1003.245)" fill="#382e3d"/>
      <path id="Path_195305" data-name="Path 195305" d="M420.369,193.134a16.737,16.737,0,0,1-3.705,1.927c-15.7,6.2-55.525,4.353-62.022-1.3-1.844-.4,3.506-30.9,3.24-35.871-.532-9.57-2.06-23.941-2.675-24.905-4.918-5.433-8.357-9.371-8.49-15.817-.183-7.859,7.443-16.182,8.307-18.575,3.456-9.587,1.612-16.033,3.755-19.107,7.626-2.26,8.723-2.941,11.181-3.622a5.353,5.353,0,0,0,4.111,5.315l12.3-7.642s18.491,4.9,24.622,6.746c1.4.432,6.014,4.12,7.327,5.018,1.113.764.349,10.151-.714,23.244C415.418,135.249,411.912,177.367,420.369,193.134Z" transform="translate(262.024 954.045)" fill="#62c1c5"/>
      <path id="Path_195306" data-name="Path 195306" d="M394.845,180.084a16.738,16.738,0,0,1-3.7,1.927l-2.924-5.3s-2.592-20.552-2.891-36.336c-.282-15.784,2.276-34.691,2.276-34.691L391.538,95l.548.5C389.894,122.2,386.388,164.316,394.845,180.084Z" transform="translate(287.548 967.095)" fill="#4ea8a5"/>
      <path id="Path_195308" data-name="Path 195308" d="M352.95,148.461" transform="translate(266.148 1002.456)" fill="#f2f2f2"/>
      <g id="Group_10500" data-name="Group 10500" transform="translate(595.273 1055.915)">
        <path id="Path_195310" data-name="Path 195310" d="M360.816,147.026c3.72-1.324,20.5-36.354,26.106-46.931,3.665-6.918,9.307-8.284,9.307-8.284,6.772,3.657,7.558,12.158,5.539,19.386-8.463,30.29-34.332,54.77-38.13,54.77C368.537,155.271,360.816,147.026,360.816,147.026Z" transform="translate(-323.922 -90.93)" fill="#ffb780"/>
        <path id="Path_195311" data-name="Path 195311" d="M342.245,109.9c0,.017.025.03.045.045a14.05,14.05,0,0,1,4.282,5.31c9.332,17.527,17.993,39.434,21.474,43.776,0,0,7.97,16.633,19.794-.377-.339-3.766-33.7-48.865-33.869-49.244,2.389-9.236-5.179-16.114-10.391-18.086C341.255,90.447,334.456,102.192,342.245,109.9Z" transform="translate(-338.61 -91.281)" fill="#ffb780"/>
      </g>
      <path id="Path_195312" data-name="Path 195312" d="M341.074,126.878H363.74a2.7,2.7,0,0,0,2.607-3.429L351.126,68.742a2.706,2.706,0,0,0-2.607-1.98H325.852a2.7,2.7,0,0,0-2.605,3.431l15.221,54.7A2.7,2.7,0,0,0,341.074,126.878Z" transform="translate(246.435 948.417)" fill="#97deef"/>
      <g id="Group_10502" data-name="Group 10502" transform="translate(648.758 1035.412)">
        <g id="Group_10501" data-name="Group 10501" transform="translate(0 0)">
          <path id="Path_195313" data-name="Path 195313" d="M397.8,78.94s9.636,4.147,8.031,19.3c-.488,4.6-12.027,30.559-12.027,30.559a12.028,12.028,0,0,1-10.339,1.281,24.921,24.921,0,0,1-11.108-7.495s2.57-11.816,3.237-17.977c.417-3.84-4.787-.866-4.787-.866l4.29-20.68Z" transform="translate(-370.802 -78.94)" fill="#62c1c5"/>
        </g>
      </g>
      <path id="Path_195314" data-name="Path 195314" d="M319.3,196.508s.088.018.246.035h96.442a47.93,47.93,0,0,0,11.984-1.4c21.33-5.506,21.6-21.742,21.6-22.564v-.035c-1.3-24.441-30.346-34.176-30.346-34.176Z" transform="translate(243.891 995.779)" fill="#594a5f"/>
      <path id="Path_195315" data-name="Path 195315" d="M428.525,148.461s8.412,16.207-14.43,27.321-71.163,14.081-71.163,14.081l-23.49,0Z" transform="translate(243.985 1002.456)" fill="#4c4051"/>
      <g id="Group_10504" data-name="Group 10504" transform="translate(517 1132.473)">
        <g id="Group_10503" data-name="Group 10503" transform="translate(0 45.765)">
          <path id="Path_195316" data-name="Path 195316" d="M330,168.12s-2.507-2.412-7.721-2.02c-3.383.253-12.712,3.389-17.276,3.78s-9.146-.123-11.727,3.245c-4.861,6.343,1,13.037,8.561,13.169,4.112.071,5.064-2.4,11.584-2.419,6.318-.02,15.86-3.109,18.243-7.867" transform="translate(-291.498 -164.143)" fill="#4c4051"/>
          <path id="Path_195317" data-name="Path 195317" d="M329.4,164.9a48.662,48.662,0,0,1-8.213,2.477c-3.325.522-10.912.457-14.081,2.934-3.434,2.683-1.434,8.8,1.042,10.038,4,2,6.91.457,13.559-2.412s14.8-2.868,14.8-2.868" transform="translate(-282.388 -164.905)" fill="#ffd1ab"/>
          <path id="Path_195318" data-name="Path 195318" d="M306.347,169.1s2.391-1.671,3.389-.238,2.118,7.852,1.783,8.885c-.608,1.869-4.39,1.608-4.39,1.608l-3.868-7.867Z" transform="translate(-283.717 -162.67)" fill="#4c4051"/>
        </g>
        <path id="Path_195319" data-name="Path 195319" d="M319.549,197.205c-2.73,0-5.637-13.7-4.576-15.619,0,0,20.393-6.111,26.633-8.646,18.464-7.5,38.617-21.843,56.449-30.7,8.708-4.331,20.148-8.3,28.411-.181,6.777,6.659,6.958,18.4,2.552,25.455s-12.069,10.492-19.547,13.326C409.471,180.843,355.182,197.164,319.549,197.205Z" transform="translate(-276.119 -137.36)" fill="#594a5f"/>
      </g>
      <path id="Path_195320" data-name="Path 195320" d="M312.92,91.937l2-7.182s2.426-8.7,4.011-8.41c.937.169.94,1,.59,3.019,0,0-.391,2.331-.753,4.177,1.168-2.183,3.821-6.837,4.974-6.387.887.346.733,1.161,0,3.075,0,0-.6,1.613-1.223,3.17,1.3-2.236,3.052-4.865,3.933-4.521s.731,1.161,0,3.075c0,0-1.758,4.685-2.343,5.783a8.768,8.768,0,0,0-.425,2.537,25.887,25.887,0,0,1,2.153-4.368c.7-.877,1.786-1.025,2.005,0s-1.831,5.052-1.977,6.589-.545,9.55-.545,9.55l-2.027-7.37-2.451-3.318c-.028,1.087-.028,1.9-.028,1.9l-2.07-2.8c.206,1.259.4,2.256.4,2.256Z" transform="translate(239.671 954.751)" fill="#ffb780"/>
    </g>
  </g>
</svg>
