<svg xmlns="http://www.w3.org/2000/svg" xmlns:xlink="http://www.w3.org/1999/xlink" width="490" height="756.906" viewBox="0 0 490 756.906">
  <defs>
    <linearGradient id="linear-gradient" x1="0.036" x2="0.758" y2="0.724" gradientUnits="objectBoundingBox">
      <stop offset="0" stop-color="#00a8d5"/>
      <stop offset="1" stop-color="#fa8bff"/>
    </linearGradient>
    <linearGradient id="linear-gradient-2" x1="0.066" y1="0.052" x2="0.95" y2="0.957" gradientUnits="objectBoundingBox">
      <stop offset="0" stop-color="#ff99ac"/>
      <stop offset="1" stop-color="#ff6a88"/>
    </linearGradient>
    <linearGradient id="linear-gradient-3" x1="-0.072" y1="-0.083" x2="0.82" y2="0.837" gradientUnits="objectBoundingBox">
      <stop offset="0" stop-color="#aa076b"/>
      <stop offset="1" stop-color="#9285e7"/>
    </linearGradient>
  </defs>
  <g id="Group_10735" data-name="Group 10735" transform="translate(-298 -443)">
    <rect id="Rectangle_6940" data-name="Rectangle 6940" width="245" height="234" rx="15" transform="translate(298 443)" fill="url(#linear-gradient)"/>
    <rect id="Rectangle_6941" data-name="Rectangle 6941" width="180" height="171" rx="15" transform="translate(608 560)" fill="url(#linear-gradient-2)"/>
    <rect id="Rectangle_6942" data-name="Rectangle 6942" width="143" height="135" rx="15" transform="translate(420 747)" fill="url(#linear-gradient-3)"/>
    <rect id="Rectangle_6943" data-name="Rectangle 6943" width="62" height="59" rx="15" transform="translate(705 867)" fill="#0d5bb9" opacity="0.29"/>
    <rect id="Rectangle_6944" data-name="Rectangle 6944" width="61" height="58" rx="15" transform="translate(322 882)" fill="#0d5bb9" opacity="0.29"/>
    <rect id="Rectangle_6945" data-name="Rectangle 6945" width="61" height="58" rx="15" transform="translate(578 458)" fill="#0d5bb9" opacity="0.29"/>
    <g id="baseline-control_camera-24px" transform="translate(349.042 489.238)">
      <path id="Path_628" data-name="Path 628" d="M81.978,22.91l-10.455,10.4L61.068,22.91l-10.455,10.4L40.158,22.91,61.068,2ZM99.225,81.978l-10.4-10.455,10.4-10.455-10.4-10.455,10.4-10.455,20.91,20.91ZM40.158,99.225l10.455-10.4,10.455,10.4,10.455-10.4,10.455,10.4-20.91,20.91ZM22.91,40.158l10.4,10.455L22.91,61.068l10.4,10.455L22.91,81.978,2,61.068Z" transform="translate(9.814 9.814)" fill="#fff"/>
      <circle id="Ellipse_40" data-name="Ellipse 40" cx="16.5" cy="16.5" r="16.5" transform="translate(53.958 53.762)" fill="#fff"/>
      <path id="Path_629" data-name="Path 629" d="M0,0H141.762V141.762H0Z" fill="none"/>
    </g>
    <g id="baseline-security-24px" transform="translate(634 581.463)">
      <path id="Path_1457" data-name="Path 1457" d="M50.924,1,3,22.3V54.249c0,29.553,20.448,57.19,47.924,63.9C78.4,111.439,98.848,83.8,98.848,54.249V22.3Zm0,58.521H88.2C85.376,81.459,70.733,101,50.924,107.125V59.574H13.65V29.222l37.274-16.56V59.521Z" transform="translate(12.975 4.325)" fill="#fff"/>
      <path id="Path_1458" data-name="Path 1458" d="M0,0H127.8V127.8H0Z" fill="none"/>
    </g>
    <g id="outline-folder_special-24px" transform="translate(450 773)">
      <g id="Bounding_Boxes">
        <path id="Path_3373" data-name="Path 3373" d="M0,0H83.292V83.292H0Z" fill="none"/>
      </g>
      <g id="Outline" transform="translate(6.941 13.882)">
        <g id="Group_349" data-name="Group 349">
          <path id="Path_3374" data-name="Path 3374" d="M64.469,10.941H36.7L29.764,4H8.941A6.961,6.961,0,0,0,2,10.941V52.587a6.961,6.961,0,0,0,6.941,6.941H64.469a6.961,6.961,0,0,0,6.941-6.941v-34.7A6.961,6.961,0,0,0,64.469,10.941Zm0,41.646H8.941V10.941H26.883l6.941,6.941H64.469Z" transform="translate(-2 -4)" fill="#fff"/>
          <path id="Path_3375" data-name="Path 3375" d="M18.762,26.491,16.368,36.764l9.058-5.31,9.058,5.31L32.089,26.491l7.982-6.906-10.516-.9L25.426,9,21.3,18.683l-10.516.9Z" transform="translate(19.691 8.352)" fill="#fff"/>
        </g>
      </g>
    </g>
    <g id="Group_10544" data-name="Group 10544" transform="translate(-229.277 -136.008)">
      <g id="Group_10536" data-name="Group 10536" transform="translate(855.214 1185.233)">
        <path id="Path_195414" data-name="Path 195414" d="M906.163,674.556Z" transform="translate(-875.617 -550.455)" fill="#3b455a"/>
        <g id="Group_10546" data-name="Group 10546" transform="translate(-10.587 12.712) rotate(-21)">
          <path id="Path_195416" data-name="Path 195416" d="M803.97,458.665l16.135,116.573,7.386.007,1.4-74.711,13.494-52.427Z" transform="translate(-803.97 -448.107)" fill="#005479"/>
          <path id="Path_186849" data-name="Path 186849" d="M233.413,389.92s-11.24,3.2-16.77,6.27c-4.42,2.46-5,4.51.49,4.52,7,0,15.29-.13,20.28-.91,3.37-.52,2-8.44,1.4-9.8Z" transform="translate(-216.98 -260.036)" fill="#ffa320"/>
          <path id="Path_186850" data-name="Path 186850" d="M214.83,389.94l-1.14-4.38,5.82.69L219.2,390Z" transform="translate(-197.407 -260.036)" fill="#ffc69a"/>
          <path id="Path_186872" data-name="Path 186872" d="M226.15,390s-10.79,6.05-11.55,2.25l7.53-3.17Z" transform="translate(-204.957 -260.036)" fill="#ffc69a"/>
          <rect id="Rectangle_6630" data-name="Rectangle 6630" width="9" height="4" transform="translate(14.793 123.964)" fill="#003d57"/>
        </g>
      </g>
      <g id="Group_10537" data-name="Group 10537" transform="translate(826.683 1190.071)">
        <path id="Path_195416-2" data-name="Path 195416" d="M803.97,458.665l16.135,116.573,7.386.007,1.4-74.711,13.494-52.427Z" transform="translate(-803.97 -448.107)" fill="#005479"/>
        <path id="Path_186849-2" data-name="Path 186849" d="M233.413,389.92s-11.24,3.2-16.77,6.27c-4.42,2.46-5,4.51.49,4.52,7,0,15.29-.13,20.28-.91,3.37-.52,2-8.44,1.4-9.8Z" transform="translate(-216.98 -260.036)" fill="#ffa320"/>
        <path id="Path_186850-2" data-name="Path 186850" d="M214.83,389.94l-1.14-4.38,5.82.69L219.2,390Z" transform="translate(-197.407 -260.036)" fill="#ffc69a"/>
        <path id="Path_186872-2" data-name="Path 186872" d="M226.15,390s-10.79,6.05-11.55,2.25l7.53-3.17Z" transform="translate(-204.957 -260.036)" fill="#ffc69a"/>
        <rect id="Rectangle_6630-2" data-name="Rectangle 6630" width="9" height="4" transform="translate(14.793 123.964)" fill="#003d57"/>
      </g>
      <path id="Path_195418" data-name="Path 195418" d="M810.781,303.9c5.575-4.606,19-1.942,26.068-1.935a359.337,359.337,0,0,0,7.747,46.16c2.993,13.108,8.71,25.888,11.248,38.977,2.263,11.673,7.212,20.068,16.523,28.071,1.451,1.247,3.122,2.866,2.688,4.729a4.732,4.732,0,0,1-2.191,2.572c-9.4,6.436-21.484,7.1-32.876,7.276q-12.976.206-25.954-.041c-11.269-.215-23.807-1.553-33.409-8.082a2.461,2.461,0,0,1-1.3-1.676,2.772,2.772,0,0,1,.751-1.685c6.721-9.268,5.959-24.606,7.278-35.463,1.489-12.253,2.984-24.54,5.921-36.528a155.193,155.193,0,0,1,7.5-22.794c2.346-5.626,5.148-14.841,9.548-19.168Q810.541,304.093,810.781,303.9Z" transform="translate(34.379 811.507)" fill="#ffb939"/>
      <g id="Group_10539" data-name="Group 10539" transform="translate(748.066 1049.021)">
        <path id="Path_195419" data-name="Path 195419" d="M758.765,196.183a29.439,29.439,0,0,0-13.613-12.025c-3.863-1.684-7.887-2.1-11.779-2.5l-11.325-1.165a32.049,32.049,0,0,0-14.461,1.593,28.979,28.979,0,0,0-14.273,11.6,29.551,29.551,0,0,0-4.419,12.936l-6.157,59.858,9,.926,6.187-60.154A18.727,18.727,0,0,1,699.6,201a22.08,22.08,0,0,1,3.947-5.763A19.365,19.365,0,0,1,709.667,191a19.743,19.743,0,0,1,7.383-1.751c.122-.008.512-.022,1.487.014.407.015.844.047,1.376.1L735.767,191a18.891,18.891,0,0,1,6.322,1.687,22.044,22.044,0,0,1,5.763,3.947,19.359,19.359,0,0,1,4.232,6.114,19.752,19.752,0,0,1,1.751,7.383c.008.122.022.513-.014,1.487-.015.407-.047.84-.1,1.36l-6.189,60.169,9,.926,6.187-60.154A28.735,28.735,0,0,0,758.765,196.183Z" transform="translate(-667.969 -180.288)" fill="#305399"/>
        <g id="Group_10538" data-name="Group 10538" transform="translate(0 62.641)">
          <path id="Path_195420" data-name="Path 195420" d="M661.494,299.228l-6.713,65.265a16.068,16.068,0,0,0,14.339,17.627L729.2,388.3a16.068,16.068,0,0,0,17.627-14.339l6.713-65.265ZM706.285,346.1l-1.616,15.715c-.12,1.168-1.578,1.974-3.256,1.8l-.061-.006c-1.678-.173-2.941-1.259-2.821-2.426l1.616-15.715a12.161,12.161,0,1,1,6.138.631Z" transform="translate(-654.695 -299.228)" fill="#305399"/>
        </g>
        <path id="Path_195421" data-name="Path 195421" d="M677.013,421.859h0a16.133,16.133,0,0,0,2.671.508l60.081,6.18a16.067,16.067,0,0,0,17.627-14.339l3.05-29.653C750.354,430.69,677.346,421.85,677.013,421.859Z" transform="translate(-665.259 -276.975)" opacity="0.1"/>
      </g>
      <path id="Path_195424" data-name="Path 195424" d="M839.114,312.706s-13.59,15.1-22.276,21.075-12.469,2.827-12.469,2.827l-21.352-13.374-4.585,6.863L803.59,352.25s2.117,4.284,10.8,0,23.935-17.135,23.935-17.135Z" transform="translate(34.801 806.055)" fill="#eba628"/>
      <g id="Group_10540" data-name="Group 10540" transform="translate(847.149 1083.437)">
        <path id="Path_195425" data-name="Path 195425" d="M859.948,261.024c-4.541.656-8.165,2.529-9.209,7a10.374,10.374,0,0,1,4.335-16.384,12.011,12.011,0,0,1,4.875,7.661Z" transform="translate(-845.435 -248.476)" fill="#3b455a"/>
        <path id="Path_195426" data-name="Path 195426" d="M855.4,284.821c-3.34-1.575-5.461-5.112-6.068-8.755a23.407,23.407,0,0,1,1.246-10.9c3.757-11.7,18.469-7.771,21.559,2.465C874.83,276.551,865.112,289.4,855.4,284.821Z" transform="translate(-845.805 -251.488)" fill="#eac5b0"/>
        <path id="Path_187073" data-name="Path 187073" d="M355.818,194.961a1.486,1.486,0,1,1-1.006-1.847,1.486,1.486,0,0,1,1.006,1.847Z" transform="translate(-335.941 -169.212)" fill="#fff"/>
        <path id="Path_195427" data-name="Path 195427" d="M856.437,360.749c-2.123-1.617-1.874-4.794-2.421-7.406s-3.836-5.213-5.574-3.187c-3.689-1.522-5.626-5.8-5.61-9.787s1.591-7.79,3.139-11.468c3.432-8.15,6.644-16.439,10.31-24.486,3.466-7.607,4.848-15.979,6.249-24.079a20.835,20.835,0,0,0-1.96-12.015,65.617,65.617,0,0,0-6.5-10.489,9.749,9.749,0,0,1-2.149-4.6,6.359,6.359,0,0,1,2.211-5.025,8.91,8.91,0,0,1,7.324-2.52c9.93.993,16.646,7.774,18.254,17.791,1.36,8.469-.839,17.044-2.425,25.474-2.385,12.676-1.6,27.769,4.586,39.228,2.52,4.67,5.321,9.389,5.928,14.66s-1.7,11.325-6.681,13.16c-1.945.717-4.154.755-5.907,1.861a3.449,3.449,0,0,0-.934,5.15c-2.63,3.5-4.694.455-7.337-.6C863.717,361.118,859.153,362.819,856.437,360.749Z" transform="translate(-842.832 -245.634)" fill="#3b455a"/>
        <path id="Path_187069" data-name="Path 187069" d="M2.646,0A15.158,15.158,0,0,1,0,4.726L3.369,6.242Z" transform="translate(0.686 21.864) rotate(-14)" fill="#eac5b0"/>
      </g>
      <path id="Path_195428" data-name="Path 195428" d="M775.823,330.453l-1.639-4.213-7.629-1.534-1.148,3.051,5.337,4.584,3.169.972Z" transform="translate(40.966 800.374)" fill="#eac5b0"/>
    </g>
    <g id="Group_10324" data-name="Group 10324" transform="translate(480.477 1194.776)">
      <path id="Path_195014" data-name="Path 195014" d="M1204.764,3661.995H939.133a2.567,2.567,0,0,1,0-5.13h265.63a2.567,2.567,0,0,1,0,5.13Z" transform="translate(-936.662 -3656.864)" fill="#ba8e69"/>
    </g>
    <path id="Path_195429" data-name="Path 195429" d="M13971.5,4608.314s-18.334-13.275-27.567-6.477c-20.462,15.063-43.264,56.738-60.795,47.245-25.225-13.658-34.083-45.9-17.718-71.365s57.954-12.058,83.178-30.515,17.719-43.312,17.719-43.312" transform="translate(-13471 -3615)" fill="none" stroke="#707070" stroke-width="1" stroke-dasharray="5"/>
    <path id="Path_195430" data-name="Path 195430" d="M13941.342,4347.133s14.337-25.088,4.493-36.777c-5.759-6.838-35.83,18.076-46.067,16s5.119-24.313,5.119-24.313" transform="translate(-13471 -3615)" fill="none" stroke="#707070" stroke-width="1" stroke-dasharray="5"/>
    <path id="Path_195431" data-name="Path 195431" d="M14140.917,4364.113c2.461,3.445,28.383,20.9,35.889,44.89s10.489,38.313-5.865,51.084-40.851-11.443-59.554,0-19.81,30.022-15.257,45.772,27.07,5.783,33.469,17.226-7.876,28.546-7.876,28.546" transform="translate(-13471 -3615)" fill="none" stroke="#707070" stroke-width="1" stroke-dasharray="5"/>
  </g>
</svg>
