<svg xmlns="http://www.w3.org/2000/svg" xmlns:xlink="http://www.w3.org/1999/xlink" width="519.878" height="773.422" viewBox="0 0 519.878 773.422">
  <defs>
    <linearGradient id="linear-gradient" x1="0.036" x2="0.78" y2="0.771" gradientUnits="objectBoundingBox">
      <stop offset="0" stop-color="#784ba0"/>
      <stop offset="1" stop-color="#2b86c5"/>
    </linearGradient>
    <linearGradient id="linear-gradient-2" x1="0.105" y1="0.151" x2="0.904" y2="0.933" gradientUnits="objectBoundingBox">
      <stop offset="0" stop-color="#b3ae21"/>
      <stop offset="1" stop-color="#d7df79"/>
    </linearGradient>
    <linearGradient id="linear-gradient-3" x1="0.053" y1="0.063" x2="1" y2="1" gradientUnits="objectBoundingBox">
      <stop offset="0" stop-color="#f4d03f"/>
      <stop offset="1" stop-color="#16a085"/>
    </linearGradient>
  </defs>
  <g id="Group_10734" data-name="Group 10734" transform="translate(-298 -443)">
    <rect id="Rectangle_6940" data-name="Rectangle 6940" width="245" height="234" rx="15" transform="translate(298 443)" fill="url(#linear-gradient)"/>
    <rect id="Rectangle_6941" data-name="Rectangle 6941" width="180" height="171" rx="15" transform="translate(608 560)" fill="url(#linear-gradient-2)"/>
    <rect id="Rectangle_6942" data-name="Rectangle 6942" width="143" height="135" rx="15" transform="translate(420 747)" fill="url(#linear-gradient-3)"/>
    <rect id="Rectangle_6943" data-name="Rectangle 6943" width="62" height="59" rx="15" transform="translate(623 762)" fill="#0d5bb9" opacity="0.29"/>
    <rect id="Rectangle_6944" data-name="Rectangle 6944" width="61" height="58" rx="15" transform="translate(322 882)" fill="#0d5bb9" opacity="0.29"/>
    <rect id="Rectangle_6945" data-name="Rectangle 6945" width="61" height="58" rx="15" transform="translate(578 458)" fill="#0d5bb9" opacity="0.29"/>
    <g id="outline-verified_user-24px" transform="translate(450 772.896)">
      <g id="Bounding_Boxes">
        <path id="Path_2525" data-name="Path 2525" d="M0,0H83.311V83.311H0Z" fill="none"/>
      </g>
      <g id="Outline" transform="translate(10.414 3.471)">
        <g id="Group_121" data-name="Group 121">
          <path id="Path_2526" data-name="Path 2526" d="M34.241,1,3,14.885V35.713C3,54.978,16.33,72.994,34.241,77.368c17.912-4.374,31.241-22.39,31.241-41.655V14.885Zm24.3,34.713c0,15.69-10.344,30.165-24.3,34.47-13.955-4.3-24.3-18.78-24.3-34.47V19.4l24.3-10.8,24.3,10.8Z" transform="translate(-3 -1)" fill="#fff"/>
          <path id="Path_2527" data-name="Path 2527" d="M10.894,21.5,6,26.394,19.885,40.279l27.77-27.77L42.761,7.58,19.885,30.456Z" transform="translate(4.414 15.261)" fill="#fff"/>
        </g>
      </g>
    </g>
    <g id="outline-how_to_reg-24px" transform="translate(637.755 584.755)">
      <g id="Bounding_Boxes-2" data-name="Bounding_Boxes">
        <path id="Path_2799" data-name="Path 2799" d="M0,0H121.444V121.444H0Z" fill="none"/>
      </g>
      <g id="Outline-2" data-name="Outline" transform="translate(15.181 20.241)">
        <g id="Group_201" data-name="Group 201">
          <path id="Path_2800" data-name="Path 2800" d="M27.241,44.481A20.241,20.241,0,1,0,7,24.241,20.235,20.235,0,0,0,27.241,44.481Zm0-30.361a10.12,10.12,0,1,1-10.12,10.12A10.15,10.15,0,0,1,27.241,14.12Z" transform="translate(13.241 -4)" fill="#fff"/>
          <path id="Path_2801" data-name="Path 2801" d="M13.12,34.241c1.012-3.188,13-8.5,25.1-9.817L48.542,14.3a47.266,47.266,0,0,0-5.06-.3C29.971,14,3,20.781,3,34.241v10.12H48.542l-10.12-10.12Z" transform="translate(-3 36.602)" fill="#fff"/>
          <path id="Path_2802" data-name="Path 2802" d="M55.518,12.5,29.559,38.661,19.084,28.136,12,35.271,29.559,52.981,62.6,19.635Z" transform="translate(33.542 30.512)" fill="#fff"/>
        </g>
      </g>
    </g>
    <g id="baseline-filter_list-24px" transform="translate(331 471)">
      <path id="Path_936" data-name="Path 936" d="M54.982,95.113h29.7V80.261h-29.7ZM3,6V20.852H136.669V6ZM25.278,57.982h89.113V43.13H25.278Z" transform="translate(19.278 38.556)" fill="#fff"/>
      <path id="Path_937" data-name="Path 937" d="M0,0H178.226V178.226H0Z" fill="none"/>
    </g>
    <g id="Group_10324" data-name="Group 10324" transform="translate(480.477 1194.776)">
      <path id="Path_195014" data-name="Path 195014" d="M1204.764,3661.995H939.133a2.567,2.567,0,0,1,0-5.13h265.63a2.567,2.567,0,0,1,0,5.13Z" transform="translate(-936.662 -3656.864)" fill="#ba8e69"/>
    </g>
    <g id="Group_10330" data-name="Group 10330" transform="translate(356.684 730.224)">
      <path id="Path_195033" data-name="Path 195033" d="M4.711,17.536l24.865-6.282L21.462,0,0,7.329Z" transform="translate(219.645 451.507) rotate(8)" fill="#b3796b"/>
      <path id="Path_195034" data-name="Path 195034" d="M32.791,0S16.039,8.114,11.59,11.255,1.382,18.322.074,24.6s15.18,1.831,15.18,1.831H30.174s2.355-4.188,1.308-6.281-5.5-5.5-5.5-5.5L43.26,6.282l-3.4-6.02Z" transform="translate(198.933 442.252) rotate(8)" fill="#889ab2"/>
      <path id="Path_195035" data-name="Path 195035" d="M24.865,17.536,0,11.255,8.114,0,29.576,7.329Z" transform="translate(276.962 455.313) rotate(-11)" fill="#b3796b"/>
      <path id="Path_195036" data-name="Path 195036" d="M10.47,0S27.22,8.114,31.67,11.255,41.878,18.322,43.187,24.6s-15.182,1.831-15.182,1.831H13.087s-2.355-4.188-1.309-6.281,5.5-5.5,5.5-5.5L0,6.282,3.4.262Z" transform="translate(283.728 447.598) rotate(-11)" fill="#889ab2"/>
      <path id="Path_195037" data-name="Path 195037" d="M230.977,386.548l-4.188,13.872,33.5,19.107,30.623-17.536-2.094-14.134Z" transform="translate(4.743 26.855)" fill="#1a274f"/>
      <path id="Path_195038" data-name="Path 195038" d="M100.775,46.075l-9.945,21.2S17.544,37.962,12.31,35.082.27,24.352.008,18.855,6.29.795,14.4.01,100.775,46.075,100.775,46.075Z" transform="translate(187.539 420.158) rotate(-11)" fill="#243062"/>
      <path id="Path_195039" data-name="Path 195039" d="M295.579,302.858a164.985,164.985,0,0,0-25.727-3.755c-12.933-.7-31.29,4.033-31.29,4.033s-11.958.834-18.355,3.616-11.4,28.091-13.628,36.991-5.841,34.488-3.338,41.163,21.138,9.178,21.138,9.178h92.338s15.02-8.9,14.462-14.741-10.29-66.194-14.462-71.478S295.579,302.858,295.579,302.858Z" transform="translate(-1.342 11.322)" fill="#0a0d16"/>
      <path id="Path_195040" data-name="Path 195040" d="M66.218,10.487C65.433,10.749,0,48.962,0,48.962L12.04,66.5S65.433,47.129,75.118,42.681s23.295-9.947,26.958-15.967S98.15.541,89.775.018,66.218,10.487,66.218,10.487Z" transform="translate(242.779 401.615) rotate(8)" fill="#32447f"/>
      <path id="Path_195044" data-name="Path 195044" d="M210.828,339.265l3.4,59.152h94.486l3.4-60.2Z" transform="translate(1.86 18.126)" fill="#727272"/>
      <path id="Path_195045" data-name="Path 195045" d="M215.8,335.9l-4.973,3.926,101.291-1.047-3.926-3.664Z" transform="translate(1.86 17.565)" fill="#9b9b9b"/>
      <path id="Path_195046" data-name="Path 195046" d="M211.049,388.986l1.309,5.235H310.77l1.832-4.973Z" transform="translate(1.9 27.295)" fill="#565656"/>
      <g id="Group_6067" data-name="Group 6067" transform="translate(236.414 247.995)">
        <path id="Path_187667" data-name="Path 187667" d="M388.391,178.635s-26.028-5.875-20.086,26.893S380.52,241,396.239,234.106s14.3-27.78,15.1-38.09S396.7,178.989,388.391,178.635Z" transform="translate(-367.422 -178.225)" fill="#ffc69a"/>
      </g>
      <g id="Group_6068" data-name="Group 6068" transform="translate(250.51 280.75)">
        <path id="Path_187668" data-name="Path 187668" d="M373.78,234.261s11.529,12.238,29.753,1.131c0,0-4.057-26.605-1.929-39.42s-23.789,19.954-23.789,19.954c.355.177.576,1.419.643,3.17a37.98,37.98,0,0,1-.288,5.255C377.638,228.674,376.307,233.219,373.78,234.261Z" transform="translate(-373.78 -192.999)" fill="#ffc69a"/>
      </g>
      <g id="Group_6070" data-name="Group 6070" transform="translate(254.9 294.83)">
        <path id="Path_187670" data-name="Path 187670" d="M375.76,216.643c18.8-5.787,20.219-17.116,20.242-17.293-6.186,10.642-19.953,12.061-19.953,12.061a34.347,34.347,0,0,1-.288,5.232Z" transform="translate(-375.76 -199.35)" fill="#a77860"/>
      </g>
      <path id="Path_187732" data-name="Path 187732" d="M372.759,192.5s-1.862,8.27-5.3,11.684a10.752,10.752,0,0,0,7.117,3.037Z" transform="translate(-130.962 87.143)" fill="#ffc69a"/>
      <path id="Path_187731" data-name="Path 187731" d="M408.048,215.571s-3.569-12.748-19.71-12.837-17.892,0-21.816-8.868,3.924-17.737,3.924-17.737,20.175-4.434,38.067,4.434C422.127,187.1,430.019,215.46,408.048,215.571Z" transform="translate(-133.439 65.868)" fill="#8e3d20"/>
    </g>
    <path id="Path_195399" data-name="Path 195399" d="M12010.019,4689.552c-5.335-.871-58.564-23.493-55.786-48.571,2.345-21.163,60.9-28.054,55.786-42.2-5.3-14.66-24.916-13.24-36.218-16.658-11.618-3.516-4.164-31.8-4.164-31.8" transform="translate(-11481 -3656)" fill="none" stroke="#707070" stroke-width="1" stroke-dasharray="5"/>
    <path id="Path_195400" data-name="Path 195400" d="M11985.013,4395.259c4.2-9.641,1.01-19.9-6.988-25.043-7.6-4.883-20.091-7.2-16.531-12.934s26.126-12.979,30.771-9.988,4.768,10.81-3.766,18.126-18.713,14.45-30.368,11.139-18.854-6.732-20.683-16.688,13.367-23.136,13.367-23.136" transform="translate(-11524 -3654)" fill="none" stroke="#707070" stroke-width="1" stroke-dasharray="5"/>
    <path id="Path_195401" data-name="Path 195401" d="M12180.6,4401.727c-3.405,22.2,1.519,40.579,18.552,51.489s30.886-14.357,50.353-7.193,27.515,15.761,27.515,35.848,1.416,29.907-8.224,44.432-23.761,28.181-39.682,25.309-27.32-21.92-24-36.8,19.3-38.592,37.276-22.716,15.806,87.079,0,126.462-63.223,31.074-63.223,31.074" transform="translate(-11459.694 -3656)" fill="none" stroke="#707070" stroke-width="1" stroke-dasharray="5"/>
  </g>
</svg>
