<svg id="Group_5705" data-name="Group 5705" xmlns="http://www.w3.org/2000/svg" width="79.369" height="79.368" viewBox="0 0 79.369 79.368">
  <g id="Group_5706" data-name="Group 5706" transform="translate(13.641 13.021)">
    <g id="Group_5548" data-name="Group 5548" transform="translate(0 42.474)">
      <g id="Group_5547" data-name="Group 5547" transform="translate(0)">
        <path id="Path_186559" data-name="Path 186559" d="M90.646,358.455a1.549,1.549,0,1,0,.454,1.1A1.562,1.562,0,0,0,90.646,358.455Z" transform="translate(-88 -358.001)" fill="#e56500"/>
      </g>
    </g>
    <path id="Path_186560" data-name="Path 186560" d="M386.646,272.455a1.549,1.549,0,1,0,.454,1.1A1.562,1.562,0,0,0,386.646,272.455Z" transform="translate(-338.115 -242.858)" fill="#e56500"/>
    <g id="Group_5552" data-name="Group 5552" transform="translate(6.201)">
      <g id="Group_5551" data-name="Group 5551">
        <path id="Path_186561" data-name="Path 186561" d="M163.034,84H129.55a1.55,1.55,0,0,0-1.55,1.55v9.921a1.55,1.55,0,0,0,1.55,1.55h33.484a1.55,1.55,0,0,0,1.55-1.55V85.551A1.55,1.55,0,0,0,163.034,84Zm-1.55,9.921H131.1V87.1h30.383Z" transform="translate(-128 -84.001)" fill="#e56500"/>
      </g>
    </g>
    <g id="Group_5554" data-name="Group 5554" transform="translate(32.088 17.362)">
      <g id="Group_5553" data-name="Group 5553" transform="translate(0)">
        <path id="Path_186562" data-name="Path 186562" d="M304.146,196h-7.6a1.55,1.55,0,1,0,0,3.1h7.6a1.55,1.55,0,1,0,0-3.1Z" transform="translate(-295 -196.001)" fill="#e56500"/>
      </g>
    </g>
  </g>
  <g id="Group_5556" data-name="Group 5556" transform="translate(0 0)">
    <g id="Group_5555" data-name="Group 5555">
      <path id="Path_186563" data-name="Path 186563" d="M78.1,66.831,50.447,39.179a1.55,1.55,0,0,0-.543-.352l-14.679-5.6a1.55,1.55,0,0,0-2,2l3.832,10.04H22.943V33.484h7.6a1.55,1.55,0,1,0,0-3.1H21.392a1.55,1.55,0,0,0-1.55,1.55V46.816a1.55,1.55,0,0,0,1.55,1.55H38.24l.587,1.538a1.553,1.553,0,0,0,.352.543l2.259,2.259H21.392a1.55,1.55,0,1,0,0,3.1H44.538l4.34,4.34H21.392a1.55,1.55,0,1,0,0,3.1H51.979l6.2,6.2H16.6A8.365,8.365,0,0,0,3.1,64.5V8.372a5.271,5.271,0,0,1,10.541,0V50.319a1.55,1.55,0,0,0,3.1,0V9.922H57.976a1.552,1.552,0,0,1,1.55,1.55V38.181a1.55,1.55,0,0,0,3.1,0V11.472a4.656,4.656,0,0,0-4.651-4.65H16.6A8.37,8.37,0,0,0,0,8.372V71a8.38,8.38,0,0,0,8.371,8.371H49.52a4.656,4.656,0,0,0,4.651-4.65v-2.17h6.906a1.535,1.535,0,0,0,.19-.013L66.831,78.1a4.338,4.338,0,0,0,6.128,0L78.1,72.959a4.333,4.333,0,0,0,0-6.128ZM51.071,74.719a1.552,1.552,0,0,1-1.55,1.55H8.371A5.271,5.271,0,1,1,13.641,71a1.55,1.55,0,0,0,1.55,1.55H51.071ZM40.87,46.564l-3.514-9.208,9.208,3.514Zm1.6,2.788,6.884-6.884L70.2,63.313,63.313,70.2Zm33.44,21.415-5.141,5.141a1.234,1.234,0,0,1-1.743,0L65.505,72.39l6.884-6.884,3.518,3.518a1.233,1.233,0,0,1,0,1.743Z" transform="translate(0 -0.001)" fill="#e56500"/>
    </g>
  </g>
</svg>
