<svg xmlns="http://www.w3.org/2000/svg" xmlns:xlink="http://www.w3.org/1999/xlink" width="494" height="761.555" viewBox="0 0 494 761.555">
  <defs>
    <linearGradient id="linear-gradient" x1="0.036" x2="0.78" y2="0.771" gradientUnits="objectBoundingBox">
      <stop offset="0" stop-color="#e56500"/>
      <stop offset="1" stop-color="#ccb6a5"/>
    </linearGradient>
    <linearGradient id="linear-gradient-2" x1="0.053" y1="0.063" x2="1" y2="1" gradientUnits="objectBoundingBox">
      <stop offset="0" stop-color="#0d5bb9"/>
      <stop offset="1" stop-color="#85aad6"/>
    </linearGradient>
    <linearGradient id="linear-gradient-3" x1="0.053" y1="0.063" x2="1" y2="1" gradientUnits="objectBoundingBox">
      <stop offset="0" stop-color="#c5c026"/>
      <stop offset="1" stop-color="#cfcd7a"/>
    </linearGradient>
  </defs>
  <g id="Group_10732" data-name="Group 10732" transform="translate(-298 -443)">
    <g id="Group_10324" data-name="Group 10324" transform="translate(480.477 1194.776)">
      <path id="Path_195014" data-name="Path 195014" d="M1204.764,3661.995H939.133a2.567,2.567,0,0,1,0-5.13h265.63a2.567,2.567,0,0,1,0,5.13Z" transform="translate(-936.662 -3656.864)" fill="#ba8e69"/>
    </g>
    <rect id="Rectangle_6940" data-name="Rectangle 6940" width="245" height="234" rx="15" transform="translate(298 443)" fill="url(#linear-gradient)"/>
    <rect id="Rectangle_6941" data-name="Rectangle 6941" width="180" height="171" rx="15" transform="translate(608 560)" fill="url(#linear-gradient-2)"/>
    <rect id="Rectangle_6942" data-name="Rectangle 6942" width="143" height="135" rx="15" transform="translate(420 747)" fill="url(#linear-gradient-3)"/>
    <rect id="Rectangle_6943" data-name="Rectangle 6943" width="62" height="59" rx="15" transform="translate(730 893)" fill="#0d5bb9" opacity="0.29"/>
    <rect id="Rectangle_6944" data-name="Rectangle 6944" width="61" height="58" rx="15" transform="translate(331 1010)" fill="#0d5bb9" opacity="0.29"/>
    <rect id="Rectangle_6945" data-name="Rectangle 6945" width="61" height="58" rx="15" transform="translate(578 458)" fill="#0d5bb9" opacity="0.29"/>
    <g id="dashboard-24px" transform="translate(331.013 470.393)">
      <path id="Path_193490" data-name="Path 193490" d="M0,0H178.814V178.814H0Z" fill="none"/>
      <path id="Path_193491" data-name="Path 193491" d="M122.209,17.9V32.8h-29.8V17.9h29.8M47.7,17.9V62.6H17.9V17.9H47.7m74.506,59.6v44.7h-29.8v-44.7h29.8M47.7,107.308v14.9H17.9v-14.9H47.7M137.11,3h-59.6V47.7h59.6ZM62.6,3H3V77.506H62.6ZM137.11,62.6h-59.6V137.11h59.6ZM62.6,92.407H3v44.7H62.6Z" transform="translate(19.352 19.352)" fill="#fff"/>
    </g>
    <g id="outline-view_carousel-24px" transform="translate(634.946 582.14)">
      <g id="Bounding_Boxes">
        <path id="Path_2534" data-name="Path 2534" d="M0,0H126.541V126.541H0Z" fill="none"/>
      </g>
      <g id="Outline" transform="translate(10.119 21.09)">
        <g id="Group_123" data-name="Group 123" transform="translate(0)">
          <rect id="Rectangle_72" data-name="Rectangle 72" width="22" height="59" transform="translate(-0.066 9.77)" fill="#fff"/>
          <path id="Path_2535" data-name="Path 2535" d="M7,83.088H59.726V4H7ZM17.545,14.545H49.18v58H17.545Z" transform="translate(19.788 -4)" fill="#fff"/>
          <rect id="Rectangle_73" data-name="Rectangle 73" width="22" height="59" transform="translate(84.934 9.77)" fill="#fff"/>
        </g>
      </g>
    </g>
    <g id="baseline-input-24px" transform="translate(449.717 772.29)">
      <path id="Path_320" data-name="Path 320" d="M0,0H83.484V83.484H0Z" fill="none"/>
      <path id="Path_321" data-name="Path 321" d="M70.57,3.01H7.957A6.977,6.977,0,0,0,1,9.967V23.846H7.957V9.9H70.57V58.7H7.957V44.717H1V58.666a6.918,6.918,0,0,0,6.957,6.887H70.57a6.918,6.918,0,0,0,6.957-6.887V9.967A6.955,6.955,0,0,0,70.57,3.01ZM35.785,48.2,49.7,34.282,35.785,20.368V30.8H1V37.76H35.785Z" transform="translate(2.478 7.46)" fill="#fff"/>
    </g>
    <g id="Group_10294" data-name="Group 10294" transform="translate(533.471 964.169)">
      <g id="Group_10292" data-name="Group 10292" transform="translate(0 170.348)">
        <path id="Path_194963" data-name="Path 194963" d="M185.611,242.867c1.067-9.218,5.777-15.492,14.312-19.5,6.923-3.249,14.7-4.014,22.289-4.987,16.893-2.168,33.021-4.334,50.078-3.665,13.639.536,22.046,12.173,28.431,23.651,4.023,7.234,2.906,10.627-2.16,16.685a61.214,61.214,0,0,1-16.669,13.936c-12.535,7.123-31.793,5.363-45.6,3.823-13.032-1.452-24.521-1.682-36.143-7.753C192.672,261.154,184.573,251.842,185.611,242.867Z" transform="translate(-173.041 -212.349)" fill="#3d3342"/>
        <g id="Group_10290" data-name="Group 10290" transform="translate(12.48 50.02)">
          <path id="Path_194964" data-name="Path 194964" d="M271.221,247.577s-2.209-2.125-6.807-1.781c-2.982.224-11.2,2.989-15.228,3.333s-8.293-.108-10.246,3.557c-3.315,6.215-1.089,11.289,5.577,11.4,3.627.063,6.344-2.6,12.09-2.623,5.571-.017,13.982-2.739,16.082-6.934" transform="translate(-237.421 -244.072)" fill="#4c4051"/>
          <path id="Path_194965" data-name="Path 194965" d="M250.941,244.7a43.071,43.071,0,0,1-7.24,2.184c-2.931.459-9.619.4-12.413,2.585-3.027,2.366-1.265,7.758.919,8.85,3.526,1.763,6.091.4,11.954-2.125a38.029,38.029,0,0,1,13.044-2.53" transform="translate(-209.639 -244.696)" fill="#ffd1ab"/>
          <path id="Path_194966" data-name="Path 194966" d="M246.974,248.535s2.108-1.473,2.988-.208,1.868,6.921,1.571,7.832c-.536,1.647-3.869,1.417-3.869,1.417l-3.411-6.934Z" transform="translate(-227.165 -242.866)" fill="#4c4051"/>
        </g>
        <path id="Path_194967" data-name="Path 194967" d="M255.468,253.888c5.7-2.774,11.432-6.117,13.686-12.779s-.308-17.628-7.369-23.733c-8.607-7.443-17.4-3.542-23.829.651-13.162,8.572-20.8,17.376-36.575,26.078-4.668,2.574-30.867,16.326-30.867,16.326-.5,1.811,2.539,14.62,4.836,14.6C200.434,274.881,235.079,263.814,255.468,253.888Z" transform="translate(-115.928 -213.179)" fill="#4c4051"/>
        <g id="Group_10291" data-name="Group 10291" transform="translate(91.918 48.319)">
          <path id="Path_194968" data-name="Path 194968" d="M180.3,246.577s2.263-2.179,6.974-1.825c3.055.229,11.483,3.062,15.6,3.414s8.261-.109,10.592,2.931c4.39,5.729-.9,11.776-7.732,11.894-3.715.065-4.576-2.166-10.465-2.184-5.706-.019-14.325-2.808-16.477-7.105" transform="translate(-166.192 -242.985)" fill="#4c4051"/>
          <path id="Path_194969" data-name="Path 194969" d="M198.234,243.624a44.014,44.014,0,0,0,7.418,2.236c3,.471,9.856.413,12.719,2.65,3.1,2.424,1.3,7.948-.943,9.067-3.612,1.806-6.242.413-12.248-2.179a38.991,38.991,0,0,0-13.365-2.59" transform="translate(-191.816 -243.624)" fill="#ffd1ab"/>
          <path id="Path_194970" data-name="Path 194970" d="M194.641,247.557s-2.16-1.509-3.062-.214-1.914,7.093-1.609,8.026c.549,1.687,3.965,1.452,3.965,1.452l3.493-7.105Z" transform="translate(-166.202 -241.749)" fill="#4c4051"/>
        </g>
        <path id="Path_194971" data-name="Path 194971" d="M221.129,256.854c-6.755-2.56-13.678-5.666-17.658-12.038s-3.815-16.976,2.306-22.991c7.462-7.334,17.8-3.749,25.662.162,16.107,8,34.008,17.564,50.685,24.338,5.636,2.29,24.359,11.2,24.359,11.2.959,1.735-1.741,14.7-4.133,14.109" transform="translate(-200.779 -210.597)" fill="#594a5f"/>
      </g>
      <g id="Group_10293" data-name="Group 10293" transform="translate(11.581 0)">
        <path id="Path_194972" data-name="Path 194972" d="M254.7,142.214c-.444,1.22-3.736-5.437-5.945-4.2-.321.168-1.881,2.519-2.239,2.811-.7.571-2.192.1-2.954,2.046-1.695,4.368-1.635,12.982,5.495,16.679.1.229,6.564,28.044,10.516,41.818l10.954-10.245c-3-7.578-9.262-20.869-13.676-32.931-1.23-3.522-1.214-5.341-.427-7.75.855-2.385,2.762-8.039,2.922-11.468.051-1.178-2.614-11.159-3.785-10.064-.671.629-.636,4.268.127,8.313A8.383,8.383,0,0,1,254.7,142.214Z" transform="translate(-242.643 -92.352)" fill="#ffe1bd"/>
        <path id="Path_194973" data-name="Path 194973" d="M209.365,204.218c4.679,8.67,10.318,17.244,11.437,27.031.414,3.626.024,7.691-2.576,10.251s-10.334,2.779-13.957,2.968c-5.066-15.779-6.355-31.458-11.421-47.237l-7.528-23.452c-1.89-5.888-7.112-15.56-6.475-21.554,7.275.106,13.473,16.63,16.12,21.992C199.876,184.164,204.093,194.45,209.365,204.218Z" transform="translate(-91.727 -78.617)" fill="#f9b253"/>
        <path id="Path_194974" data-name="Path 194974" d="M189.649,256.019a71.342,71.342,0,0,0,10.286,5.372,56.162,56.162,0,0,0,16.077,3.193,132.922,132.922,0,0,0,42.166-3.487c5.85-1.447,8.578-4.311,8.7-9.578a24.609,24.609,0,0,0-.46-4.712c-1.6-8.6-.127-16.547-3.741-24.487-4.379-9.6-5.452-21.072-8.467-31.171-2.8-9.364-5.625-18.759-8.742-28.019-1.544-4.552-4.35-8.85-8.62-11.251-5.288-2.952-11.386-1.719-17.172-2.636-5.58-.9-14.325-2.782-21.164,4.179-3.036,3.095,1.1,2.316.106,6.083-3.273,12.471-5.818,25.1-7.907,37.828C189.726,203.421,185.287,253.44,189.649,256.019Z" transform="translate(-151.906 -80.909)" fill="#f9b253"/>
        <path id="Path_194975" data-name="Path 194975" d="M191.175,219.015l32.1-2.7a37.355,37.355,0,0,0-.376-5.944s-17.7,1.338-25.436.667C180.4,209.558,191.175,219.015,191.175,219.015Z" transform="translate(-108.379 -44.477)" fill="#e59a41"/>
        <path id="Path_194976" data-name="Path 194976" d="M249.535,176.089a185.259,185.259,0,0,0-10.111-18.428c-1.133-1.811-3.454-7.19-5.5-7.883-2.325-.789-7.829,1.789-10.027,2.627a340.868,340.868,0,0,0,12.974,44.423,15.172,15.172,0,0,0,3.233,5.856c3.331,3.238,9.013,2.762,12.886.2s6.367-6.7,8.731-10.7c4.141-7,8.886-14.411,10.932-22.375,1.27-4.939,5.534-13.238.99-17.5s-8.632-.689-11.484,3.282c-2.339,3.255-4.5,6.656-6.605,10.07C254.766,166.931,248.954,174.871,249.535,176.089Z" transform="translate(-218.056 -80.14)" fill="#f9b253"/>
        <path id="Path_194977" data-name="Path 194977" d="M226.287,121.63c-4.552,7.394-1.071,17.763-5.661,25.133-1.838,2.95-4.877,5.225-5.812,8.574a7.609,7.609,0,0,0,10.71,8.861,9.433,9.433,0,0,1,1.711-.794c2.189-.576,4.1,1.4,5.933,2.73a9.166,9.166,0,0,0,7.862,1.609c3.4-1.038,5.575-4.379,6.79-7.721,3.392-9.343,1.439-19.723-1.208-29.3-1.322-4.787-3.32-10.111-7.931-11.96" transform="translate(-177.161 -98.264)" fill="#2c1e56"/>
        <path id="Path_194978" data-name="Path 194978" d="M205.22,142.76s-.046,8.637-1.387,9.165a33.853,33.853,0,0,1-5.626,1.576l-.567,17.863,23.913-2.95,16.631-8.681s-16.877-6.1-16.982-7.805S222.44,140.7,222.44,140.7" transform="translate(-138.881 -85.383)" fill="#ffe1bd"/>
        <path id="Path_194979" data-name="Path 194979" d="M202.427,120.527s-1.812,16.652.8,25.474c1.936,6.536,10.43,12.814,17.669,12.927,19.928.536,24.227-26.436,24.159-27.747s-29.049-13.46-29.049-13.46Z" transform="translate(-152.378 -98.874)" fill="#ffe1bd"/>
        <path id="Path_194980" data-name="Path 194980" d="M179.489,184.767S225,208.3,228.945,207.307s39.777,26.374,39.777,26.374-3.7-68.1-26.071-78.607c-11.4-5.339-5.652-5.577-15.779-5.66l-4.477-.344c-5.049,5.88-15.476,14.6-19.729,10.44-3.2-3.134-.4-8.589.522-11.424-6.437.86-13.217,2.3-16.937,5.474C175.866,162.443,179.489,184.767,179.489,184.767Z" transform="translate(-139.641 -81.047)" fill="#f9b253"/>
        <path id="Path_194981" data-name="Path 194981" d="M208.373,166.308s12.568,49.29,10.846,50.3-25.957,4.484-25.957,4.484l-.3-1.355,23.014-4.669S206.848,176.851,208.373,166.308Z" transform="translate(-112.661 -70.349)" fill="#e59a41"/>
        <path id="Path_194982" data-name="Path 194982" d="M249.768,178.456c.449-.225.89-.468,1.32-.709,2.319-1.3,4.457-2.679,5.487-5.247,1.486-3.7,2.3-9.423.463-13.1-1.246-2.49-3.669-4.163-5.3-6.42-2.252-3.12-2.838-7.134-2.93-10.981s.238-7.734-.468-11.516c-1.206-6.467-2.873-12.64-7.716-16.915-7.759-6.847-23.565-11.206-32.415-4.039-1.609,1.3-1.946,2.374-4.077,2.523a15.672,15.672,0,0,0-7.318,1.925c-2.884,1.565-6.388,3.787-6.088,7.523.206,2.589,3.028,6.75,5.2,8.024a6.6,6.6,0,0,0,3.041.768c3.371.156,6.229-1.965,9.529-1.52a6.308,6.308,0,0,1,4.092,2.416c1.154,1.5.938,3.554,2.293,4.966,2.174,2.268,5.642,2.176,8.251,3.684a2.781,2.781,0,0,1,1.114.97,2.974,2.974,0,0,1,.252,1.427l.041,4.185c1.328-.543,1.516-2.409,2.623-3.32a3.011,3.011,0,0,1,3.788.348,6.354,6.354,0,0,1,1.732,3.685c.289,1.638-.329,3.349-.873,4.974-.941,2.817-3.444,5.31-5.36,3.381-1.482,2.058-.017,5.6-.03,7.978-.008,1.882-.143,5.61-1.936,6.8-1.647,1.092-4.187.162-4.365,3.087-.162,2.679,2.465,4.845,5.117,5.244s5.309-.465,7.9-1.16,5.422-1.214,7.894-.175c1.5.629,2.777,1.8,4.374,2.111A6.924,6.924,0,0,0,249.768,178.456Z" transform="translate(-147.794 -105.846)" fill="#2c1e56"/>
        <path id="Path_194983" data-name="Path 194983" d="M237,163.262s-7.191,12.752-7.209,16.742,2.366,12.081,2.366,12.081l-1.943-.127s-3.254-7.962-3.422-10.315.127-5.339,2.525-9.691,6.837-10.73,8.294-11.387S237,163.262,237,163.262Z" transform="translate(-185.03 -73.77)" fill="#e59a41"/>
      </g>
      <path id="Path_194984" data-name="Path 194984" d="M288.946,214.273l-103.37-.413,71.8,15.961Z" transform="translate(-158.915 -42.431)" fill="#82ccd8"/>
      <path id="Path_194985" data-name="Path 194985" d="M303.93,252.108l-83.635-6.452-14.829-65.3,84.124,7.1Z" transform="translate(-205.466 -62.099)" fill="#97deef"/>
      <path id="Path_194986" data-name="Path 194986" d="M186.329,232.288,217.9,218.03V214.12l-32.32,14.772Z" transform="translate(-87.865 -42.278)" fill="#75c1c9"/>
      <path id="Path_194987" data-name="Path 194987" d="M204.606,185.355l2.185-1.412,13.519,61.671-2.117.995Z" transform="translate(-120.482 -59.995)" fill="#75c1c9"/>
      <path id="Path_194988" data-name="Path 194988" d="M299.433,186.671,215.784,179.3l-2.66,1.686,84.124,7.1Z" transform="translate(-213.124 -62.722)" fill="#75c1c9"/>
      <path id="Path_194989" data-name="Path 194989" d="M233.127,204.062c-.417,3.095,2.6,6.056,6.732,6.613s7.826-1.5,8.243-4.595-2.6-6.056-6.732-6.615S233.545,200.966,233.127,204.062Z" transform="translate(-193.518 -50.935)" fill="#a7e8f2"/>
    </g>
    <path id="Path_195076" data-name="Path 195076" d="M7894.134,4295.288c1.5,10.279,8.069,37.291,18.194,40.28s16.655-9.16,16.279-13.955-7.113-11.345-14.541-9.527-13.382,7.083-15.168,16.8,1.222,14.635,8.022,22.063,19.179,7.646,19.179,7.646" transform="translate(-7440 -3615)" fill="none" stroke="#707070" stroke-width="1" stroke-dasharray="5"/>
    <path id="Path_195077" data-name="Path 195077" d="M20,139.991s-64.925-10.075-76.8-30.209-9.891-35.955,9.309-56.318S8.131,41.7,20,28.33,0,0,0,0" transform="translate(491.5 888.5)" fill="none" stroke="#707070" stroke-width="1" stroke-dasharray="5"/>
    <path id="Path_195078" data-name="Path 195078" d="M8126.962,4358.592s-35.893,3.5-33.655,28.054,30.859,35.78,26.227,54.152-36.25,7.071-44.753,19.334,2.327,23.988,10.741,29.716,20.139,3.759,22.914-6.8,1.79-27.21-11.815-35.445-27.926-11.278-42.6,2.506-12.442,36.072-10.383,57.643,13.248,29.716,13.248,29.716" transform="translate(-7440 -3615)" fill="none" stroke="#707070" stroke-width="1" stroke-dasharray="5"/>
    <path id="Path_187069" data-name="Path 187069" d="M341.012,188.13a30.263,30.263,0,0,1-5.282,9.436l6.727,3.026Z" transform="translate(219.103 896.784) rotate(-14)" fill="#ffe1bd"/>
    <path id="Path_187073" data-name="Path 187073" d="M358.721,196.862a2.968,2.968,0,1,1-2.009-3.687,2.968,2.968,0,0,1,2.009,3.687Z" transform="translate(269.969 809)" fill="#fff"/>
    <path id="Path_187066" data-name="Path 187066" d="M8.31,7.036c0,3.86-1.847,7-4.155,7S0,10.9,0,7.036,1.847,0,4.155,0,8.31,3.158,8.31,7.036Z" transform="translate(598.461 990.308) rotate(-8)" fill="none" stroke="#fff" stroke-miterlimit="10" stroke-width="1"/>
    <line id="Line_528" data-name="Line 528" y1="2.618" x2="15.831" transform="translate(607.669 993.5)" fill="none" stroke="#fff" stroke-miterlimit="10" stroke-width="1"/>
  </g>
</svg>
