<svg xmlns="http://www.w3.org/2000/svg" width="79.305" height="79.305" viewBox="0 0 79.305 79.305">
  <g id="options" transform="translate(0 -0.001)">
    <g id="Group_5652" data-name="Group 5652" transform="translate(33.767 0.001)">
      <g id="Group_5651" data-name="Group 5651">
        <path id="Path_186611" data-name="Path 186611" d="M223.886,0a5.886,5.886,0,1,0,5.886,5.886A5.893,5.893,0,0,0,223.886,0Zm0,8.674a2.788,2.788,0,1,1,2.788-2.788A2.791,2.791,0,0,1,223.886,8.675Z" transform="translate(-218 -0.001)" fill="#e56500"/>
      </g>
    </g>
    <g id="Group_5654" data-name="Group 5654" transform="translate(67.533 33.768)">
      <g id="Group_5653" data-name="Group 5653">
        <path id="Path_186612" data-name="Path 186612" d="M441.886,218a5.886,5.886,0,1,0,5.886,5.886A5.893,5.893,0,0,0,441.886,218Zm0,8.674a2.788,2.788,0,1,1,2.788-2.788A2.791,2.791,0,0,1,441.886,226.675Z" transform="translate(-436 -218.001)" fill="#e56500"/>
      </g>
    </g>
    <g id="Group_5656" data-name="Group 5656" transform="translate(0 33.768)">
      <g id="Group_5655" data-name="Group 5655">
        <path id="Path_186613" data-name="Path 186613" d="M5.886,218a5.886,5.886,0,1,0,5.886,5.886A5.893,5.893,0,0,0,5.886,218Zm0,8.674a2.788,2.788,0,1,1,2.788-2.788A2.791,2.791,0,0,1,5.886,226.675Z" transform="translate(0 -218.001)" fill="#e56500"/>
      </g>
    </g>
    <g id="Group_5658" data-name="Group 5658" transform="translate(9.893 9.894)">
      <g id="Group_5657" data-name="Group 5657">
        <path id="Path_186614" data-name="Path 186614" d="M73.914,65.59a5.883,5.883,0,1,0,0,8.324A5.893,5.893,0,0,0,73.914,65.59Zm-2.19,6.134a2.787,2.787,0,1,1,0-3.943A2.791,2.791,0,0,1,71.724,71.723Z" transform="translate(-63.869 -63.869)" fill="#e56500"/>
      </g>
    </g>
    <g id="Group_5660" data-name="Group 5660" transform="translate(57.646 9.894)">
      <g id="Group_5659" data-name="Group 5659">
        <path id="Path_186615" data-name="Path 186615" d="M382.212,65.59a5.883,5.883,0,1,0,0,8.324A5.893,5.893,0,0,0,382.212,65.59Zm-2.191,6.134a2.787,2.787,0,1,1,0-3.943A2.792,2.792,0,0,1,380.021,71.723Z" transform="translate(-372.167 -63.869)" fill="#e56500"/>
      </g>
    </g>
    <g id="Group_5662" data-name="Group 5662" transform="translate(38.104 14.251)">
      <g id="Group_5661" data-name="Group 5661">
        <path id="Path_186616" data-name="Path 186616" d="M247.549,92A1.549,1.549,0,0,0,246,93.55V97.4a1.549,1.549,0,0,0,3.1,0V93.55A1.549,1.549,0,0,0,247.549,92Z" transform="translate(-246 -92.001)" fill="#e56500"/>
      </g>
    </g>
    <g id="Group_5664" data-name="Group 5664" transform="translate(53.774 38.105)">
      <g id="Group_5663" data-name="Group 5663">
        <path id="Path_186617" data-name="Path 186617" d="M356.454,246h-7.74a1.549,1.549,0,1,0,0,3.1h7.74a1.549,1.549,0,1,0,0-3.1Z" transform="translate(-347.165 -246.001)" fill="#e56500"/>
      </g>
    </g>
    <g id="Group_5666" data-name="Group 5666" transform="translate(14.694 38.105)">
      <g id="Group_5665" data-name="Group 5665">
        <path id="Path_186618" data-name="Path 186618" d="M104.155,246h-7.74a1.549,1.549,0,1,0,0,3.1h7.74a1.549,1.549,0,0,0,0-3.1Z" transform="translate(-94.866 -246.001)" fill="#e56500"/>
      </g>
    </g>
    <g id="Group_5668" data-name="Group 5668" transform="translate(21.453 21.454)">
      <g id="Group_5667" data-name="Group 5667">
        <path id="Path_186619" data-name="Path 186619" d="M145.919,143.728l-4.775-4.775a1.549,1.549,0,0,0-2.191,2.191l4.775,4.775a1.549,1.549,0,0,0,2.191-2.191Z" transform="translate(-138.5 -138.5)" fill="#e56500"/>
      </g>
    </g>
    <g id="Group_5670" data-name="Group 5670" transform="translate(50.077 21.763)">
      <g id="Group_5669" data-name="Group 5669">
        <path id="Path_186620" data-name="Path 186620" d="M330.313,140.953a1.549,1.549,0,0,0-2.191,0l-4.368,4.368a1.549,1.549,0,0,0,2.191,2.191l4.368-4.368A1.549,1.549,0,0,0,330.313,140.953Z" transform="translate(-323.3 -140.499)" fill="#e56500"/>
      </g>
    </g>
    <g id="Group_5672" data-name="Group 5672" transform="translate(20.293 23.39)">
      <g id="Group_5671" data-name="Group 5671">
        <path id="Path_186621" data-name="Path 186621" d="M169.54,184.018,151.729,151.8a1.549,1.549,0,0,0-2.711,0l-17.811,32.218a1.549,1.549,0,0,0,1.356,2.3h6.968v19.052a1.549,1.549,0,0,0,1.549,1.549h18.587a1.549,1.549,0,0,0,1.549-1.549V186.317h6.968a1.549,1.549,0,0,0,1.356-2.3Zm-9.873-.8a1.549,1.549,0,0,0-1.549,1.549V203.82H154.4V190.809a1.549,1.549,0,1,0-3.1,0V203.82h-8.674V184.768a1.549,1.549,0,0,0-1.549-1.549h-5.891l15.184-27.467,15.184,27.467Z" transform="translate(-131.014 -151.001)" fill="#e56500"/>
      </g>
    </g>
    <g id="Group_5674" data-name="Group 5674" transform="translate(40.582 55.608)">
      <g id="Group_5673" data-name="Group 5673">
        <path id="Path_186622" data-name="Path 186622" d="M264.644,359.455a1.548,1.548,0,1,0,.454,1.1A1.561,1.561,0,0,0,264.644,359.455Z" transform="translate(-262 -359.001)" fill="#e56500"/>
      </g>
    </g>
  </g>
</svg>
