<svg xmlns="http://www.w3.org/2000/svg" width="78.917" height="78.912" viewBox="0 0 78.917 78.912">
  <g id="working" transform="translate(0 -0.015)">
    <g id="Group_5592" data-name="Group 5592" transform="translate(11.103 42.741)">
      <g id="Group_5591" data-name="Group 5591">
        <path id="Path_186581" data-name="Path 186581" d="M136.346,288.885a15.622,15.622,0,0,0-8.922-5.419l-10.81-2.238a2.536,2.536,0,0,1-2.014-2.474,1.541,1.541,0,1,0-3.082,0,5.567,5.567,0,0,0,.566,2.443H98.98a5.566,5.566,0,0,0,.566-2.441,1.541,1.541,0,1,0-3.082,0,2.535,2.535,0,0,1-1.885,2.441H76.311a4.281,4.281,0,0,0-4.276,4.276v26.385a1.541,1.541,0,0,0,1.541,1.541H138.3a1.541,1.541,0,0,0,1.541-1.541V298.72A15.623,15.623,0,0,0,136.346,288.885Zm-20.552,21.432H82.51v-7.09a1.541,1.541,0,1,0-3.082,0v7.09h-4.31V285.474a1.2,1.2,0,0,1,1.194-1.194H114.6a1.2,1.2,0,0,1,1.194,1.194v24.843Zm20.967,0H118.877V285.474a4.291,4.291,0,0,0-.048-.64l7.97,1.65a12.545,12.545,0,0,1,9.962,12.236Z" transform="translate(-72.035 -277.213)" fill="#e56500"/>
      </g>
    </g>
    <g id="Group_5594" data-name="Group 5594" transform="translate(31.962 0.015)">
      <g id="Group_5593" data-name="Group 5593" transform="translate(0 0)">
        <path id="Path_186582" data-name="Path 186582" d="M232.632,19.015a12.621,12.621,0,0,0-4.881-9.64,1.536,1.536,0,0,0,.489-1.124,8.237,8.237,0,0,0-16.474,0,1.535,1.535,0,0,0,.489,1.124,12.62,12.62,0,0,0-4.881,9.64,1.541,1.541,0,0,0-.008.161V31.635a12.638,12.638,0,1,0,25.276,0V19.176A1.582,1.582,0,0,0,232.632,19.015ZM220,3.1A5.161,5.161,0,0,1,225.136,7.8a12.592,12.592,0,0,0-10.268,0A5.161,5.161,0,0,1,220,3.1Zm-9.556,27.865v-3.41a.718.718,0,0,1,.717-.717h6.581a.718.718,0,0,1,.717.717v3.41a.718.718,0,0,1-.717.717h-6.581A.718.718,0,0,1,210.446,30.962ZM220,41.191a9.57,9.57,0,0,1-9.029-6.434q.095,0,.191,0h6.581A3.778,3.778,0,0,0,220,34.016a3.779,3.779,0,0,0,2.258.746h6.581q.1,0,.19,0A9.57,9.57,0,0,1,220,41.191Zm9.556-10.229a.718.718,0,0,1-.717.717H222.26a.718.718,0,0,1-.717-.717v-3.41a.718.718,0,0,1,.717-.717h6.581a.718.718,0,0,1,.717.717Zm0-10.734a3.528,3.528,0,0,1-3.524,3.524h-3.367a10.035,10.035,0,0,0,2.5-4.524,1.541,1.541,0,0,0-2.99-.75,6.96,6.96,0,0,1-6.76,5.274H213.97a3.528,3.528,0,0,1-3.524-3.524v-.879a9.556,9.556,0,0,1,19.112,0v.879Z" transform="translate(-207.364 -0.015)" fill="#e56500"/>
      </g>
    </g>
    <g id="Group_5596" data-name="Group 5596" transform="translate(29.154 57.456)">
      <g id="Group_5595" data-name="Group 5595">
        <path id="Path_186583" data-name="Path 186583" d="M194.515,372.682a5.37,5.37,0,1,0,5.37,5.37A5.376,5.376,0,0,0,194.515,372.682Zm0,7.658a2.288,2.288,0,1,1,2.288-2.288A2.29,2.29,0,0,1,194.515,380.34Z" transform="translate(-189.145 -372.682)" fill="#e56500"/>
      </g>
    </g>
    <g id="Group_5598" data-name="Group 5598" transform="translate(0 11.583)">
      <g id="Group_5597" data-name="Group 5597">
        <path id="Path_186584" data-name="Path 186584" d="M21.269,83.88a1.541,1.541,0,0,0,1.541-1.541V78.151a3.086,3.086,0,0,0-3.083-3.083H3.083A3.086,3.086,0,0,0,0,78.151V99.112a3.086,3.086,0,0,0,3.083,3.083H19.728a3.086,3.086,0,0,0,3.083-3.083v-3.4a1.541,1.541,0,0,0-3.082,0v3.4H3.083V78.151H19.728v4.188A1.541,1.541,0,0,0,21.269,83.88Z" transform="translate(0 -75.068)" fill="#e56500"/>
      </g>
    </g>
    <g id="Group_5600" data-name="Group 5600" transform="translate(19.728 23.605)">
      <g id="Group_5599" data-name="Group 5599">
        <path id="Path_186585" data-name="Path 186585" d="M130.622,153.517a1.54,1.54,0,1,0,.452,1.09A1.547,1.547,0,0,0,130.622,153.517Z" transform="translate(-127.991 -153.065)" fill="#e56500"/>
      </g>
    </g>
    <g id="Group_5602" data-name="Group 5602" transform="translate(67.203 0.015)">
      <g id="Group_5601" data-name="Group 5601">
        <path id="Path_186586" data-name="Path 186586" d="M444.305.016h-4.888A3.417,3.417,0,0,0,436,3.429v26.3a1.539,1.539,0,0,0,.135.63L440.454,40a1.541,1.541,0,0,0,2.813,0l4.315-9.643a1.542,1.542,0,0,0,.135-.63V3.428A3.416,3.416,0,0,0,444.305.016Zm-2.444,35.578-1.937-4.329H443.8Zm2.774-7.411h-5.549V11.421h5.549Zm0-19.844h-5.549V3.428a.33.33,0,0,1,.33-.33h4.888a.331.331,0,0,1,.33.33Z" transform="translate(-436.004 -0.016)" fill="#e56500"/>
      </g>
    </g>
    <g id="Group_5604" data-name="Group 5604" transform="translate(18.495 61.284)">
      <g id="Group_5603" data-name="Group 5603">
        <path id="Path_186587" data-name="Path 186587" d="M122.623,397.973a1.54,1.54,0,1,0,.452,1.09A1.552,1.552,0,0,0,122.623,397.973Z" transform="translate(-119.992 -397.521)" fill="#e56500"/>
      </g>
    </g>
  </g>
</svg>
